G04 #@! TF.GenerationSoftware,KiCad,Pcbnew,9.0.3*
G04 #@! TF.CreationDate,2025-11-21T03:11:02-06:00*
G04 #@! TF.ProjectId,LEC_RF,4c45435f-5246-42e6-9b69-6361645f7063,rev?*
G04 #@! TF.SameCoordinates,Original*
G04 #@! TF.FileFunction,Copper,L1,Top*
G04 #@! TF.FilePolarity,Positive*
%FSLAX46Y46*%
G04 Gerber Fmt 4.6, Leading zero omitted, Abs format (unit mm)*
G04 Created by KiCad (PCBNEW 9.0.3) date 2025-11-21 03:11:02*
%MOMM*%
%LPD*%
G01*
G04 APERTURE LIST*
G04 Aperture macros list*
%AMRoundRect*
0 Rectangle with rounded corners*
0 $1 Rounding radius*
0 $2 $3 $4 $5 $6 $7 $8 $9 X,Y pos of 4 corners*
0 Add a 4 corners polygon primitive as box body*
4,1,4,$2,$3,$4,$5,$6,$7,$8,$9,$2,$3,0*
0 Add four circle primitives for the rounded corners*
1,1,$1+$1,$2,$3*
1,1,$1+$1,$4,$5*
1,1,$1+$1,$6,$7*
1,1,$1+$1,$8,$9*
0 Add four rect primitives between the rounded corners*
20,1,$1+$1,$2,$3,$4,$5,0*
20,1,$1+$1,$4,$5,$6,$7,0*
20,1,$1+$1,$6,$7,$8,$9,0*
20,1,$1+$1,$8,$9,$2,$3,0*%
G04 Aperture macros list end*
G04 #@! TA.AperFunction,SMDPad,CuDef*
%ADD10RoundRect,0.250000X0.475000X-0.250000X0.475000X0.250000X-0.475000X0.250000X-0.475000X-0.250000X0*%
G04 #@! TD*
G04 #@! TA.AperFunction,SMDPad,CuDef*
%ADD11RoundRect,0.250000X0.250000X0.475000X-0.250000X0.475000X-0.250000X-0.475000X0.250000X-0.475000X0*%
G04 #@! TD*
G04 #@! TA.AperFunction,SMDPad,CuDef*
%ADD12RoundRect,0.225000X-0.250000X0.225000X-0.250000X-0.225000X0.250000X-0.225000X0.250000X0.225000X0*%
G04 #@! TD*
G04 #@! TA.AperFunction,SMDPad,CuDef*
%ADD13R,2.840000X1.520000*%
G04 #@! TD*
G04 #@! TA.AperFunction,SMDPad,CuDef*
%ADD14R,1.520000X2.840000*%
G04 #@! TD*
G04 #@! TA.AperFunction,SMDPad,CuDef*
%ADD15R,2.790000X2.790000*%
G04 #@! TD*
G04 #@! TA.AperFunction,ComponentPad*
%ADD16R,1.700000X1.700000*%
G04 #@! TD*
G04 #@! TA.AperFunction,ComponentPad*
%ADD17C,1.700000*%
G04 #@! TD*
G04 #@! TA.AperFunction,SMDPad,CuDef*
%ADD18RoundRect,0.250000X-1.100000X0.325000X-1.100000X-0.325000X1.100000X-0.325000X1.100000X0.325000X0*%
G04 #@! TD*
G04 #@! TA.AperFunction,SMDPad,CuDef*
%ADD19RoundRect,0.250000X0.350000X-0.850000X0.350000X0.850000X-0.350000X0.850000X-0.350000X-0.850000X0*%
G04 #@! TD*
G04 #@! TA.AperFunction,SMDPad,CuDef*
%ADD20RoundRect,0.249997X2.650003X-2.950003X2.650003X2.950003X-2.650003X2.950003X-2.650003X-2.950003X0*%
G04 #@! TD*
G04 #@! TA.AperFunction,SMDPad,CuDef*
%ADD21RoundRect,0.225000X-0.225000X-0.250000X0.225000X-0.250000X0.225000X0.250000X-0.225000X0.250000X0*%
G04 #@! TD*
G04 #@! TA.AperFunction,SMDPad,CuDef*
%ADD22RoundRect,0.200000X0.275000X-0.200000X0.275000X0.200000X-0.275000X0.200000X-0.275000X-0.200000X0*%
G04 #@! TD*
G04 #@! TA.AperFunction,SMDPad,CuDef*
%ADD23RoundRect,0.225000X0.225000X0.250000X-0.225000X0.250000X-0.225000X-0.250000X0.225000X-0.250000X0*%
G04 #@! TD*
G04 #@! TA.AperFunction,ViaPad*
%ADD24C,0.700000*%
G04 #@! TD*
G04 #@! TA.AperFunction,ViaPad*
%ADD25C,0.600000*%
G04 #@! TD*
G04 #@! TA.AperFunction,Conductor*
%ADD26C,0.400000*%
G04 #@! TD*
G04 #@! TA.AperFunction,Conductor*
%ADD27C,0.200000*%
G04 #@! TD*
G04 APERTURE END LIST*
D10*
X93450000Y-68850000D03*
X93450000Y-70750000D03*
D11*
X86550000Y-82950000D03*
X88450000Y-82950000D03*
D12*
X103550000Y-71275000D03*
X103550000Y-72825000D03*
D13*
X107400000Y-71300000D03*
X107400000Y-73300000D03*
X107400000Y-75300000D03*
X107400000Y-77300000D03*
X107400000Y-79300000D03*
X107400000Y-81300000D03*
X107400000Y-83300000D03*
X107400000Y-85300000D03*
X107400000Y-87300000D03*
X107400000Y-89300000D03*
X107400000Y-91300000D03*
X107400000Y-93300000D03*
X107400000Y-95300000D03*
D14*
X111400000Y-97130000D03*
X113400000Y-97130000D03*
X115400000Y-97130000D03*
X117400000Y-97130000D03*
X119400000Y-97130000D03*
X121400000Y-97130000D03*
X123400000Y-97130000D03*
X125400000Y-97130000D03*
D13*
X129400000Y-95280000D03*
X129400000Y-93280000D03*
X129400000Y-91280000D03*
X129400000Y-89280000D03*
X129400000Y-87280000D03*
X129400000Y-85280000D03*
X129400000Y-83280000D03*
X129400000Y-81280000D03*
X129400000Y-79280000D03*
X129400000Y-77280000D03*
X129400000Y-75280000D03*
X129400000Y-73280000D03*
X129400000Y-71280000D03*
X129400000Y-69280000D03*
X129400000Y-67280000D03*
X129400000Y-65280000D03*
D15*
X113285000Y-74015000D03*
D16*
X99340000Y-94200000D03*
D17*
X96800000Y-94200000D03*
X94260000Y-94200000D03*
X91720000Y-94200000D03*
D18*
X98850000Y-75250000D03*
X98850000Y-78200000D03*
D19*
X85292500Y-79800000D03*
D20*
X87572500Y-73500000D03*
D19*
X89852500Y-79800000D03*
D21*
X88425000Y-90000000D03*
X89975000Y-90000000D03*
D10*
X100850000Y-72350000D03*
X100850000Y-70450000D03*
D22*
X90250000Y-87825000D03*
X90250000Y-86175000D03*
D23*
X91975000Y-84000000D03*
X90425000Y-84000000D03*
D24*
X123650000Y-78600000D03*
X121650000Y-84600000D03*
D25*
X82250000Y-76700000D03*
D24*
X121650000Y-76600000D03*
X115650000Y-88600000D03*
X123650000Y-92600000D03*
X123650000Y-82600000D03*
D25*
X82200000Y-72550000D03*
D24*
X105650000Y-66600000D03*
X117650000Y-88600000D03*
X93650000Y-80600000D03*
D25*
X104150000Y-88950000D03*
D24*
X95650000Y-64600000D03*
D25*
X93600000Y-85800000D03*
D24*
X111650000Y-86600000D03*
X117650000Y-64600000D03*
X95650000Y-84600000D03*
X111650000Y-78600000D03*
X117650000Y-86600000D03*
X121650000Y-78600000D03*
X115650000Y-86600000D03*
X117650000Y-90600000D03*
X121650000Y-80600000D03*
X121650000Y-64600000D03*
X133650000Y-72600000D03*
X115650000Y-92600000D03*
X101650000Y-66600000D03*
X133650000Y-76600000D03*
X119650000Y-76600000D03*
X105650000Y-64600000D03*
X115650000Y-90600000D03*
X123650000Y-84600000D03*
X91650000Y-64600000D03*
X117650000Y-66600000D03*
X133650000Y-90600000D03*
X107650000Y-66600000D03*
X113650000Y-80600000D03*
X121650000Y-90600000D03*
X97650000Y-64600000D03*
X117650000Y-76600000D03*
X97650000Y-66600000D03*
X117650000Y-74600000D03*
D25*
X93850000Y-87800000D03*
X83100000Y-86000000D03*
D24*
X133650000Y-82600000D03*
D25*
X100500000Y-98400000D03*
D24*
X133650000Y-66600000D03*
X117650000Y-80600000D03*
X117650000Y-82600000D03*
X121650000Y-86600000D03*
X101650000Y-64600000D03*
X85650000Y-90600000D03*
X113650000Y-66600000D03*
X115650000Y-64600000D03*
X111650000Y-90600000D03*
X115650000Y-78600000D03*
X115650000Y-80600000D03*
X115650000Y-66600000D03*
X133650000Y-86600000D03*
X111650000Y-80600000D03*
X121650000Y-88600000D03*
X117650000Y-68600000D03*
X119650000Y-80600000D03*
X119650000Y-66600000D03*
X111650000Y-64600000D03*
X133650000Y-78600000D03*
X111650000Y-88600000D03*
X119650000Y-84600000D03*
X119650000Y-92600000D03*
X117650000Y-92600000D03*
X123650000Y-86600000D03*
D25*
X90750000Y-98400000D03*
D24*
X113650000Y-64600000D03*
X109650000Y-64600000D03*
X133650000Y-80600000D03*
X133650000Y-70600000D03*
X111650000Y-68600000D03*
X115650000Y-84600000D03*
X117650000Y-78600000D03*
X119650000Y-78600000D03*
X123650000Y-88600000D03*
X111650000Y-66600000D03*
X117650000Y-70600000D03*
X117650000Y-72600000D03*
X119650000Y-86600000D03*
X123650000Y-90600000D03*
X119650000Y-64600000D03*
X133650000Y-68600000D03*
X111650000Y-84600000D03*
X123650000Y-64600000D03*
X95650000Y-82600000D03*
X119650000Y-88600000D03*
X123650000Y-80600000D03*
X133650000Y-88600000D03*
X119650000Y-82600000D03*
X123650000Y-76600000D03*
X121650000Y-82600000D03*
X99650000Y-66600000D03*
D25*
X104250000Y-81950000D03*
X82850000Y-83000000D03*
D24*
X113650000Y-88600000D03*
X113650000Y-68600000D03*
X99650000Y-64600000D03*
X111650000Y-92600000D03*
D25*
X82550000Y-79600000D03*
D24*
X109650000Y-66600000D03*
X113650000Y-84600000D03*
X119650000Y-90600000D03*
X113650000Y-90600000D03*
X133650000Y-64600000D03*
D25*
X85700000Y-86000000D03*
D24*
X117650000Y-84600000D03*
D25*
X95900000Y-98400000D03*
D24*
X93650000Y-64600000D03*
X113650000Y-82600000D03*
X111650000Y-82600000D03*
X113650000Y-78600000D03*
X113650000Y-92600000D03*
X121650000Y-92600000D03*
X133650000Y-84600000D03*
X115650000Y-68600000D03*
X121650000Y-66600000D03*
X133650000Y-74600000D03*
X115650000Y-82600000D03*
X103650000Y-66600000D03*
X123650000Y-66600000D03*
X103650000Y-64600000D03*
X113650000Y-86600000D03*
X107650000Y-64600000D03*
X99550000Y-89450000D03*
X99600000Y-86500000D03*
D26*
X97350000Y-87950000D02*
X101000000Y-87950000D01*
X94260000Y-94200000D02*
X94260000Y-91040000D01*
X102200000Y-86750000D02*
X102200000Y-81150000D01*
X106050000Y-77300000D02*
X107400000Y-77300000D01*
X102200000Y-81150000D02*
X106050000Y-77300000D01*
X94260000Y-91040000D02*
X97350000Y-87950000D01*
X101000000Y-87950000D02*
X102200000Y-86750000D01*
X105600000Y-75300000D02*
X107400000Y-75300000D01*
X99600000Y-81300000D02*
X105600000Y-75300000D01*
X99600000Y-86500000D02*
X99600000Y-81300000D01*
X96800000Y-92350000D02*
X96800000Y-94200000D01*
X99550000Y-89600000D02*
X96800000Y-92350000D01*
D27*
X99550000Y-89450000D02*
X99550000Y-89600000D01*
G04 #@! TA.AperFunction,Conductor*
G36*
X90168220Y-78301074D02*
G01*
X90274030Y-78315092D01*
X90305476Y-78323573D01*
X90396377Y-78361489D01*
X90424522Y-78377861D01*
X90502411Y-78438137D01*
X90525327Y-78461280D01*
X90589818Y-78546332D01*
X90598799Y-78559954D01*
X90626064Y-78607903D01*
X90880678Y-79055675D01*
X90887679Y-79070079D01*
X90927290Y-79167055D01*
X90935462Y-79197956D01*
X90948966Y-79301845D01*
X90950000Y-79317829D01*
X90950000Y-86191874D01*
X90948939Y-86208060D01*
X90935093Y-86313224D01*
X90926715Y-86344491D01*
X90889259Y-86434918D01*
X90873074Y-86462951D01*
X90813491Y-86540601D01*
X90790601Y-86563491D01*
X90712951Y-86623074D01*
X90684918Y-86639259D01*
X90594491Y-86676715D01*
X90563224Y-86685093D01*
X90469398Y-86697446D01*
X90458058Y-86698939D01*
X90441874Y-86700000D01*
X88234732Y-86700000D01*
X88218442Y-86698925D01*
X88112615Y-86684901D01*
X88081160Y-86676415D01*
X87990247Y-86638485D01*
X87962088Y-86622100D01*
X87884195Y-86561803D01*
X87861277Y-86538650D01*
X87801776Y-86460144D01*
X87785679Y-86431820D01*
X87748678Y-86340523D01*
X87740515Y-86308984D01*
X87728187Y-86208060D01*
X87727571Y-86203017D01*
X87726663Y-86186722D01*
X87775041Y-81445705D01*
X87775818Y-81433058D01*
X87785130Y-81350588D01*
X87790519Y-81325870D01*
X87816387Y-81246997D01*
X87820944Y-81235180D01*
X88735753Y-79181977D01*
X88750000Y-79150000D01*
X88987072Y-78607894D01*
X88995422Y-78592036D01*
X89057414Y-78492511D01*
X89080515Y-78465191D01*
X89161532Y-78393545D01*
X89191479Y-78373956D01*
X89289580Y-78328437D01*
X89323875Y-78318216D01*
X89439883Y-78301298D01*
X89457778Y-78300000D01*
X90151934Y-78300000D01*
X90168220Y-78301074D01*
G37*
G04 #@! TD.AperFunction*
G04 #@! TA.AperFunction,Conductor*
G36*
X95844988Y-70100971D02*
G01*
X95845703Y-70101061D01*
X95945741Y-70113657D01*
X95975746Y-70121335D01*
X96070203Y-70158599D01*
X96084242Y-70165180D01*
X96641947Y-70470590D01*
X98750000Y-71625000D01*
X102061881Y-71625000D01*
X102082929Y-71626799D01*
X102218722Y-71650190D01*
X102258386Y-71664272D01*
X102378536Y-71731753D01*
X102395999Y-71743624D01*
X103050000Y-72275000D01*
X105453674Y-72275000D01*
X105520713Y-72294685D01*
X105552940Y-72324688D01*
X105622455Y-72417547D01*
X105737664Y-72503793D01*
X105737671Y-72503797D01*
X105872517Y-72554091D01*
X105872516Y-72554091D01*
X105879444Y-72554835D01*
X105932127Y-72560500D01*
X108867872Y-72560499D01*
X108927483Y-72554091D01*
X109003842Y-72525610D01*
X109010643Y-72525124D01*
X109016508Y-72521645D01*
X109045043Y-72522664D01*
X109073530Y-72520627D01*
X109079516Y-72523895D01*
X109086333Y-72524139D01*
X109109790Y-72540426D01*
X109134854Y-72554111D01*
X109139486Y-72561044D01*
X109143725Y-72563987D01*
X109161734Y-72594341D01*
X109176715Y-72630509D01*
X109185093Y-72661775D01*
X109198939Y-72766939D01*
X109200000Y-72783125D01*
X109200000Y-73791874D01*
X109198939Y-73808060D01*
X109185093Y-73913224D01*
X109176716Y-73944490D01*
X109152766Y-74002312D01*
X109108925Y-74056715D01*
X109042631Y-74078781D01*
X108994872Y-74071042D01*
X108927485Y-74045909D01*
X108927483Y-74045908D01*
X108867883Y-74039501D01*
X108867881Y-74039500D01*
X108867873Y-74039500D01*
X108867864Y-74039500D01*
X105932129Y-74039500D01*
X105932123Y-74039501D01*
X105872516Y-74045908D01*
X105737671Y-74096202D01*
X105737664Y-74096206D01*
X105622455Y-74182452D01*
X105570840Y-74251400D01*
X105535605Y-74283276D01*
X105507870Y-74300000D01*
X105493614Y-74300000D01*
X105368000Y-74384340D01*
X105367973Y-74384357D01*
X103594678Y-75575000D01*
X101829794Y-76759991D01*
X101813878Y-76769049D01*
X101705814Y-76820383D01*
X101670872Y-76831026D01*
X101571000Y-76845898D01*
X101552534Y-76848648D01*
X101534272Y-76850000D01*
X98755556Y-76850000D01*
X84658126Y-76850000D01*
X84641941Y-76848939D01*
X84628917Y-76847224D01*
X84536775Y-76835093D01*
X84505508Y-76826715D01*
X84415081Y-76789259D01*
X84387048Y-76773074D01*
X84309398Y-76713491D01*
X84286508Y-76690601D01*
X84226925Y-76612951D01*
X84210740Y-76584918D01*
X84173284Y-76494491D01*
X84164906Y-76463223D01*
X84151061Y-76358059D01*
X84150000Y-76341874D01*
X84150000Y-70608125D01*
X84151061Y-70591940D01*
X84164906Y-70486776D01*
X84173284Y-70455508D01*
X84210740Y-70365081D01*
X84226923Y-70337050D01*
X84286513Y-70259392D01*
X84309392Y-70236513D01*
X84387050Y-70176923D01*
X84415079Y-70160740D01*
X84505509Y-70123283D01*
X84536775Y-70114906D01*
X84641941Y-70101061D01*
X84658126Y-70100000D01*
X95829498Y-70100000D01*
X95844988Y-70100971D01*
G37*
G04 #@! TD.AperFunction*
G04 #@! TA.AperFunction,Conductor*
G36*
X90827468Y-87251387D02*
G01*
X90859102Y-87256157D01*
X90947248Y-87269452D01*
X90982583Y-87280358D01*
X91083241Y-87328867D01*
X91084188Y-87329514D01*
X91084774Y-87329619D01*
X91113790Y-87349712D01*
X91195658Y-87425746D01*
X91218702Y-87454676D01*
X91279203Y-87559626D01*
X91287237Y-87576339D01*
X92963460Y-91856695D01*
X92967170Y-91867649D01*
X92988110Y-91940483D01*
X92992399Y-91963191D01*
X92999461Y-92038651D01*
X93000000Y-92050205D01*
X93000000Y-93687932D01*
X92993931Y-93726250D01*
X92942754Y-93883752D01*
X92942754Y-93883755D01*
X92909500Y-94093713D01*
X92909500Y-94306286D01*
X92942753Y-94516239D01*
X92993931Y-94673748D01*
X93000000Y-94712066D01*
X93000000Y-95441874D01*
X92998939Y-95458060D01*
X92985093Y-95563224D01*
X92976715Y-95594491D01*
X92939259Y-95684918D01*
X92923074Y-95712951D01*
X92863491Y-95790601D01*
X92840601Y-95813491D01*
X92762951Y-95873074D01*
X92734918Y-95889259D01*
X92644491Y-95926715D01*
X92613224Y-95935093D01*
X92519398Y-95947446D01*
X92508058Y-95948939D01*
X92491874Y-95950000D01*
X90225802Y-95950000D01*
X90208614Y-95948803D01*
X90186877Y-95945760D01*
X90097072Y-95933190D01*
X90064018Y-95923752D01*
X89969024Y-95881650D01*
X89939829Y-95863498D01*
X89860045Y-95796932D01*
X89836959Y-95771464D01*
X89778515Y-95685548D01*
X89763310Y-95654725D01*
X89727965Y-95547781D01*
X89723708Y-95531086D01*
X89707461Y-95441874D01*
X89497339Y-94288116D01*
X89496498Y-94282853D01*
X89491691Y-94247940D01*
X89490688Y-94237255D01*
X89488918Y-94202056D01*
X89488765Y-94196689D01*
X89485232Y-93687932D01*
X89444076Y-87761627D01*
X89445032Y-87745386D01*
X89458268Y-87639652D01*
X89466501Y-87608205D01*
X89479507Y-87576339D01*
X89503648Y-87517185D01*
X89519771Y-87488959D01*
X89579303Y-87410720D01*
X89602203Y-87387660D01*
X89680033Y-87327581D01*
X89708142Y-87311266D01*
X89798902Y-87273488D01*
X89830291Y-87265037D01*
X89935917Y-87251070D01*
X89952173Y-87250000D01*
X90808976Y-87250000D01*
X90827468Y-87251387D01*
G37*
G04 #@! TD.AperFunction*
G04 #@! TA.AperFunction,Conductor*
G36*
X138004418Y-60500816D02*
G01*
X138204561Y-60515130D01*
X138222063Y-60517647D01*
X138413797Y-60559355D01*
X138430755Y-60564334D01*
X138614609Y-60632909D01*
X138630701Y-60640259D01*
X138802904Y-60734288D01*
X138817784Y-60743849D01*
X138974867Y-60861441D01*
X138988237Y-60873027D01*
X139126972Y-61011762D01*
X139138558Y-61025132D01*
X139256146Y-61182210D01*
X139265711Y-61197095D01*
X139359740Y-61369298D01*
X139367090Y-61385390D01*
X139435662Y-61569236D01*
X139440646Y-61586212D01*
X139482351Y-61777931D01*
X139484869Y-61795442D01*
X139499184Y-61995580D01*
X139499500Y-62004427D01*
X139499500Y-97995572D01*
X139499184Y-98004419D01*
X139484869Y-98204557D01*
X139482351Y-98222068D01*
X139440646Y-98413787D01*
X139435662Y-98430763D01*
X139367090Y-98614609D01*
X139359740Y-98630701D01*
X139265711Y-98802904D01*
X139256146Y-98817789D01*
X139138558Y-98974867D01*
X139126972Y-98988237D01*
X138988237Y-99126972D01*
X138974867Y-99138558D01*
X138817789Y-99256146D01*
X138802904Y-99265711D01*
X138630701Y-99359740D01*
X138614609Y-99367090D01*
X138430763Y-99435662D01*
X138413787Y-99440646D01*
X138222068Y-99482351D01*
X138204557Y-99484869D01*
X138023779Y-99497799D01*
X138004417Y-99499184D01*
X137995572Y-99499500D01*
X82004428Y-99499500D01*
X81995582Y-99499184D01*
X81973622Y-99497613D01*
X81795442Y-99484869D01*
X81777931Y-99482351D01*
X81586212Y-99440646D01*
X81569236Y-99435662D01*
X81385390Y-99367090D01*
X81369298Y-99359740D01*
X81197095Y-99265711D01*
X81182210Y-99256146D01*
X81025132Y-99138558D01*
X81011762Y-99126972D01*
X80873027Y-98988237D01*
X80861441Y-98974867D01*
X80811045Y-98907546D01*
X80743849Y-98817784D01*
X80734288Y-98802904D01*
X80640259Y-98630701D01*
X80632909Y-98614609D01*
X80572091Y-98451551D01*
X80564334Y-98430755D01*
X80559355Y-98413797D01*
X80517647Y-98222063D01*
X80515130Y-98204556D01*
X80500816Y-98004418D01*
X80500500Y-97995572D01*
X80500500Y-94093713D01*
X83449500Y-94093713D01*
X83449500Y-94306287D01*
X83458413Y-94362561D01*
X83480782Y-94503797D01*
X83482754Y-94516243D01*
X83497133Y-94560498D01*
X83548444Y-94718414D01*
X83644951Y-94907820D01*
X83769890Y-95079786D01*
X83920213Y-95230109D01*
X84092179Y-95355048D01*
X84092181Y-95355049D01*
X84092184Y-95355051D01*
X84281588Y-95451557D01*
X84483757Y-95517246D01*
X84693713Y-95550500D01*
X84693714Y-95550500D01*
X84906286Y-95550500D01*
X84906287Y-95550500D01*
X85116243Y-95517246D01*
X85318412Y-95451557D01*
X85507816Y-95355051D01*
X85529789Y-95339086D01*
X85679786Y-95230109D01*
X85679788Y-95230106D01*
X85679792Y-95230104D01*
X85830104Y-95079792D01*
X85830106Y-95079788D01*
X85830109Y-95079786D01*
X85955048Y-94907820D01*
X85955049Y-94907819D01*
X85955051Y-94907816D01*
X86051557Y-94718412D01*
X86117246Y-94516243D01*
X86150500Y-94306287D01*
X86150500Y-94093713D01*
X86117246Y-93883757D01*
X86051557Y-93681588D01*
X85955051Y-93492184D01*
X85955049Y-93492181D01*
X85955048Y-93492179D01*
X85830109Y-93320213D01*
X85679786Y-93169890D01*
X85507820Y-93044951D01*
X85318414Y-92948444D01*
X85318413Y-92948443D01*
X85318412Y-92948443D01*
X85116243Y-92882754D01*
X85116241Y-92882753D01*
X85116240Y-92882753D01*
X84954957Y-92857208D01*
X84906287Y-92849500D01*
X84693713Y-92849500D01*
X84645042Y-92857208D01*
X84483760Y-92882753D01*
X84281585Y-92948444D01*
X84092179Y-93044951D01*
X83920213Y-93169890D01*
X83769890Y-93320213D01*
X83644951Y-93492179D01*
X83548444Y-93681585D01*
X83482753Y-93883760D01*
X83469111Y-93969896D01*
X83449500Y-94093713D01*
X80500500Y-94093713D01*
X80500500Y-70608139D01*
X83644500Y-70608139D01*
X83644500Y-76341859D01*
X83645583Y-76374942D01*
X83646644Y-76391131D01*
X83649887Y-76424049D01*
X83663730Y-76529198D01*
X83676630Y-76594054D01*
X83685008Y-76625323D01*
X83706262Y-76687934D01*
X83706266Y-76687945D01*
X83743714Y-76778354D01*
X83772970Y-76837680D01*
X83789149Y-76865702D01*
X83822865Y-76916161D01*
X83825885Y-76920680D01*
X83885468Y-76998330D01*
X83917939Y-77035355D01*
X83929070Y-77048048D01*
X83951950Y-77070928D01*
X83951956Y-77070933D01*
X84001669Y-77114531D01*
X84079319Y-77174114D01*
X84079325Y-77174118D01*
X84134296Y-77210849D01*
X84162318Y-77227028D01*
X84162322Y-77227030D01*
X84162329Y-77227034D01*
X84221635Y-77256280D01*
X84221640Y-77256282D01*
X84221644Y-77256284D01*
X84266848Y-77275008D01*
X84312062Y-77293736D01*
X84369965Y-77313391D01*
X84373501Y-77314592D01*
X84374674Y-77314990D01*
X84405941Y-77323368D01*
X84470791Y-77336268D01*
X84575957Y-77350114D01*
X84608874Y-77353356D01*
X84625059Y-77354417D01*
X84658126Y-77355500D01*
X84658140Y-77355500D01*
X101534282Y-77355500D01*
X101560930Y-77354514D01*
X101571594Y-77354120D01*
X101589856Y-77352768D01*
X101626988Y-77348635D01*
X101745326Y-77331013D01*
X101818162Y-77314592D01*
X101853104Y-77303949D01*
X101922715Y-77276984D01*
X102030779Y-77225650D01*
X102063909Y-77208383D01*
X102079825Y-77199325D01*
X102111577Y-77179668D01*
X102935341Y-76626570D01*
X103001970Y-76605543D01*
X103069391Y-76623877D01*
X103116198Y-76675751D01*
X103127529Y-76744695D01*
X103099787Y-76808821D01*
X103092142Y-76817199D01*
X99055887Y-80853454D01*
X98979222Y-80968192D01*
X98926421Y-81095667D01*
X98926420Y-81095671D01*
X98926420Y-81095672D01*
X98901890Y-81218994D01*
X98899500Y-81231006D01*
X98899500Y-85979897D01*
X98879815Y-86046936D01*
X98878602Y-86048788D01*
X98846300Y-86097130D01*
X98846295Y-86097140D01*
X98782184Y-86251917D01*
X98782182Y-86251925D01*
X98749500Y-86416228D01*
X98749500Y-86583771D01*
X98782182Y-86748074D01*
X98782184Y-86748082D01*
X98846295Y-86902860D01*
X98939376Y-87042166D01*
X98943211Y-87046839D01*
X98970522Y-87111150D01*
X98958728Y-87180017D01*
X98911574Y-87231575D01*
X98847355Y-87249500D01*
X97281004Y-87249500D01*
X97145677Y-87276418D01*
X97145667Y-87276421D01*
X97018192Y-87329222D01*
X96903454Y-87405887D01*
X93715890Y-90593451D01*
X93715884Y-90593458D01*
X93642665Y-90703040D01*
X93642664Y-90703042D01*
X93639222Y-90708191D01*
X93586421Y-90835667D01*
X93586418Y-90835677D01*
X93559500Y-90971004D01*
X93559500Y-91335744D01*
X93539815Y-91402783D01*
X93487011Y-91448538D01*
X93417853Y-91458482D01*
X93354297Y-91429457D01*
X93320038Y-91380960D01*
X91757931Y-87392008D01*
X91742835Y-87357340D01*
X91737936Y-87347147D01*
X91734798Y-87340620D01*
X91717145Y-87307164D01*
X91656644Y-87202214D01*
X91616285Y-87142940D01*
X91614094Y-87139722D01*
X91591053Y-87110797D01*
X91591046Y-87110789D01*
X91539664Y-87055354D01*
X91503556Y-87021820D01*
X91457791Y-86979316D01*
X91401574Y-86934127D01*
X91399966Y-86933013D01*
X91399959Y-86933008D01*
X91372560Y-86914035D01*
X91372399Y-86913940D01*
X91372399Y-86913939D01*
X91369346Y-86912132D01*
X91369351Y-86912127D01*
X91368404Y-86911480D01*
X91361304Y-86907374D01*
X91360764Y-86907055D01*
X91360732Y-86907036D01*
X91346085Y-86898370D01*
X91298416Y-86847291D01*
X91285928Y-86778547D01*
X91306132Y-86722761D01*
X91310849Y-86715703D01*
X91327034Y-86687670D01*
X91356280Y-86628364D01*
X91393736Y-86537937D01*
X91414990Y-86475325D01*
X91423368Y-86444058D01*
X91436268Y-86379209D01*
X91450114Y-86274045D01*
X91453356Y-86241125D01*
X91454417Y-86224939D01*
X91455500Y-86191874D01*
X91455500Y-79317829D01*
X91454446Y-79285197D01*
X91453412Y-79269213D01*
X91450249Y-79236686D01*
X91436745Y-79132797D01*
X91424162Y-79068716D01*
X91424154Y-79068685D01*
X91415998Y-79037844D01*
X91415989Y-79037813D01*
X91395262Y-78975924D01*
X91395257Y-78975908D01*
X91355646Y-78878932D01*
X91342321Y-78849102D01*
X91335320Y-78834698D01*
X91320105Y-78805806D01*
X91141740Y-78492128D01*
X91038226Y-78310084D01*
X91020840Y-78281724D01*
X91011844Y-78268080D01*
X90992613Y-78240902D01*
X90928128Y-78155858D01*
X90928117Y-78155844D01*
X90884539Y-78105616D01*
X90884533Y-78105610D01*
X90884527Y-78105603D01*
X90861611Y-78082460D01*
X90861602Y-78082452D01*
X90861596Y-78082446D01*
X90811782Y-78038362D01*
X90733897Y-77978089D01*
X90678699Y-77940912D01*
X90678676Y-77940898D01*
X90650557Y-77924541D01*
X90590967Y-77894942D01*
X90500097Y-77857039D01*
X90500069Y-77857029D01*
X90437120Y-77835516D01*
X90437109Y-77835513D01*
X90437106Y-77835512D01*
X90426819Y-77832737D01*
X90405658Y-77827030D01*
X90373107Y-77820514D01*
X90340420Y-77813971D01*
X90340411Y-77813969D01*
X90340407Y-77813969D01*
X90234596Y-77799951D01*
X90201492Y-77796670D01*
X90185206Y-77795596D01*
X90166190Y-77794969D01*
X90151934Y-77794500D01*
X89457778Y-77794500D01*
X89421208Y-77795825D01*
X89421201Y-77795825D01*
X89421187Y-77795826D01*
X89403307Y-77797122D01*
X89366945Y-77801087D01*
X89250928Y-77818006D01*
X89179494Y-77833773D01*
X89145210Y-77843991D01*
X89145191Y-77843997D01*
X89076822Y-77869891D01*
X89076811Y-77869895D01*
X88978718Y-77915411D01*
X88978714Y-77915413D01*
X88914757Y-77950924D01*
X88884820Y-77970506D01*
X88884811Y-77970513D01*
X88826661Y-78014873D01*
X88745648Y-78086515D01*
X88694512Y-78138797D01*
X88671409Y-78166119D01*
X88628341Y-78225251D01*
X88628340Y-78225253D01*
X88566345Y-78324783D01*
X88548143Y-78356511D01*
X88539792Y-78372370D01*
X88523918Y-78405360D01*
X88287720Y-78945465D01*
X88287375Y-78946247D01*
X87359200Y-81029451D01*
X87349305Y-81053281D01*
X87344739Y-81065121D01*
X87336056Y-81089474D01*
X87310195Y-81168327D01*
X87310192Y-81168334D01*
X87296614Y-81218217D01*
X87291234Y-81242893D01*
X87291231Y-81242909D01*
X87282824Y-81293854D01*
X87282821Y-81293873D01*
X87273508Y-81376353D01*
X87271268Y-81402062D01*
X87270493Y-81414683D01*
X87269567Y-81440540D01*
X87258836Y-82492135D01*
X87222051Y-86097140D01*
X87221189Y-86181578D01*
X87221945Y-86214835D01*
X87222854Y-86231138D01*
X87225802Y-86264324D01*
X87238742Y-86370261D01*
X87251142Y-86435651D01*
X87259301Y-86467176D01*
X87280191Y-86530392D01*
X87317191Y-86621687D01*
X87346190Y-86681579D01*
X87346193Y-86681586D01*
X87362290Y-86709910D01*
X87398915Y-86765486D01*
X87458410Y-86843984D01*
X87502005Y-86894253D01*
X87502009Y-86894257D01*
X87502016Y-86894265D01*
X87524934Y-86917418D01*
X87524951Y-86917433D01*
X87574762Y-86961530D01*
X87652645Y-87021820D01*
X87652655Y-87021827D01*
X87652658Y-87021829D01*
X87707857Y-87059017D01*
X87736016Y-87075402D01*
X87795607Y-87105010D01*
X87857861Y-87130983D01*
X87886500Y-87142932D01*
X87886504Y-87142933D01*
X87886520Y-87142940D01*
X87949492Y-87164466D01*
X87980947Y-87172952D01*
X88046208Y-87186020D01*
X88046214Y-87186020D01*
X88046215Y-87186021D01*
X88152030Y-87200044D01*
X88164600Y-87201289D01*
X88185156Y-87203328D01*
X88201446Y-87204403D01*
X88234732Y-87205500D01*
X88900339Y-87205500D01*
X88931520Y-87214655D01*
X88963054Y-87222529D01*
X88964856Y-87224444D01*
X88967378Y-87225185D01*
X88988656Y-87249741D01*
X89010931Y-87273417D01*
X89011411Y-87276002D01*
X89013133Y-87277989D01*
X89017758Y-87310158D01*
X89023696Y-87342110D01*
X89022843Y-87345524D01*
X89023077Y-87347147D01*
X89015147Y-87376353D01*
X89011490Y-87385314D01*
X89011488Y-87385318D01*
X88998484Y-87417177D01*
X88998477Y-87417197D01*
X88977485Y-87480165D01*
X88969250Y-87511618D01*
X88969248Y-87511624D01*
X88956684Y-87576856D01*
X88943444Y-87682614D01*
X88940406Y-87715664D01*
X88939447Y-87731948D01*
X88938588Y-87765123D01*
X88938588Y-87765137D01*
X88983277Y-94200199D01*
X88983470Y-94211094D01*
X88983471Y-94211148D01*
X88983621Y-94216408D01*
X88984055Y-94227423D01*
X88985828Y-94262682D01*
X88987398Y-94284473D01*
X88988406Y-94295209D01*
X88990912Y-94316868D01*
X88995727Y-94351837D01*
X88997322Y-94362561D01*
X88998177Y-94367915D01*
X89000023Y-94378710D01*
X89210848Y-95536333D01*
X89226388Y-95621658D01*
X89230829Y-95642005D01*
X89233883Y-95655996D01*
X89238137Y-95672678D01*
X89248001Y-95706417D01*
X89283340Y-95813345D01*
X89283344Y-95813354D01*
X89309969Y-95878358D01*
X89323995Y-95906792D01*
X89325171Y-95909175D01*
X89360544Y-95969855D01*
X89360559Y-95969878D01*
X89418991Y-96055777D01*
X89418999Y-96055788D01*
X89462430Y-96110961D01*
X89485521Y-96136434D01*
X89536189Y-96185065D01*
X89536193Y-96185068D01*
X89536197Y-96185071D01*
X89536204Y-96185078D01*
X89615988Y-96251644D01*
X89672918Y-96292787D01*
X89672925Y-96292791D01*
X89672925Y-96292792D01*
X89702106Y-96310935D01*
X89702113Y-96310939D01*
X89732527Y-96327034D01*
X89764199Y-96343794D01*
X89859193Y-96385896D01*
X89859198Y-96385897D01*
X89859203Y-96385900D01*
X89859209Y-96385902D01*
X89903216Y-96401849D01*
X89925228Y-96409826D01*
X89958282Y-96419264D01*
X90026998Y-96433810D01*
X90138540Y-96449423D01*
X90173495Y-96453082D01*
X90190683Y-96454279D01*
X90219217Y-96455271D01*
X90225799Y-96455500D01*
X90225802Y-96455500D01*
X92491860Y-96455500D01*
X92491874Y-96455500D01*
X92524943Y-96454417D01*
X92541127Y-96453356D01*
X92574042Y-96450114D01*
X92679208Y-96436268D01*
X92744058Y-96423368D01*
X92775325Y-96414990D01*
X92837937Y-96393736D01*
X92928364Y-96356280D01*
X92987670Y-96327034D01*
X93015703Y-96310849D01*
X93070680Y-96274114D01*
X93148330Y-96214531D01*
X93198043Y-96170933D01*
X93220933Y-96148043D01*
X93264531Y-96098330D01*
X93324114Y-96020680D01*
X93360849Y-95965703D01*
X93377034Y-95937670D01*
X93406280Y-95878364D01*
X93443736Y-95787937D01*
X93464990Y-95725325D01*
X93473368Y-95694058D01*
X93479718Y-95662135D01*
X110139500Y-95662135D01*
X110139500Y-98597870D01*
X110139501Y-98597876D01*
X110145908Y-98657483D01*
X110196202Y-98792328D01*
X110196206Y-98792335D01*
X110282452Y-98907544D01*
X110282455Y-98907547D01*
X110397664Y-98993793D01*
X110397671Y-98993797D01*
X110532517Y-99044091D01*
X110532516Y-99044091D01*
X110539444Y-99044835D01*
X110592127Y-99050500D01*
X112207872Y-99050499D01*
X112267483Y-99044091D01*
X112356668Y-99010826D01*
X112426356Y-99005843D01*
X112443329Y-99010825D01*
X112532517Y-99044091D01*
X112592127Y-99050500D01*
X114207872Y-99050499D01*
X114267483Y-99044091D01*
X114356668Y-99010826D01*
X114426356Y-99005843D01*
X114443329Y-99010825D01*
X114532517Y-99044091D01*
X114592127Y-99050500D01*
X116207872Y-99050499D01*
X116267483Y-99044091D01*
X116356668Y-99010826D01*
X116426356Y-99005843D01*
X116443329Y-99010825D01*
X116532517Y-99044091D01*
X116592127Y-99050500D01*
X118207872Y-99050499D01*
X118267483Y-99044091D01*
X118356668Y-99010826D01*
X118426356Y-99005843D01*
X118443329Y-99010825D01*
X118532517Y-99044091D01*
X118592127Y-99050500D01*
X120207872Y-99050499D01*
X120267483Y-99044091D01*
X120356668Y-99010826D01*
X120426356Y-99005843D01*
X120443329Y-99010825D01*
X120532517Y-99044091D01*
X120592127Y-99050500D01*
X122207872Y-99050499D01*
X122267483Y-99044091D01*
X122356668Y-99010826D01*
X122426356Y-99005843D01*
X122443329Y-99010825D01*
X122532517Y-99044091D01*
X122592127Y-99050500D01*
X124207872Y-99050499D01*
X124267483Y-99044091D01*
X124356668Y-99010826D01*
X124426356Y-99005843D01*
X124443329Y-99010825D01*
X124532517Y-99044091D01*
X124592127Y-99050500D01*
X126207872Y-99050499D01*
X126267483Y-99044091D01*
X126402331Y-98993796D01*
X126517546Y-98907546D01*
X126603796Y-98792331D01*
X126654091Y-98657483D01*
X126660500Y-98597873D01*
X126660499Y-95662128D01*
X126654091Y-95602517D01*
X126624820Y-95524038D01*
X126603797Y-95467671D01*
X126603793Y-95467664D01*
X126517547Y-95352455D01*
X126517544Y-95352452D01*
X126402335Y-95266206D01*
X126402328Y-95266202D01*
X126267482Y-95215908D01*
X126267483Y-95215908D01*
X126207883Y-95209501D01*
X126207881Y-95209500D01*
X126207873Y-95209500D01*
X126207864Y-95209500D01*
X124592129Y-95209500D01*
X124592123Y-95209501D01*
X124532516Y-95215908D01*
X124443332Y-95249172D01*
X124373641Y-95254156D01*
X124356667Y-95249172D01*
X124267482Y-95215908D01*
X124267483Y-95215908D01*
X124207883Y-95209501D01*
X124207881Y-95209500D01*
X124207873Y-95209500D01*
X124207864Y-95209500D01*
X122592129Y-95209500D01*
X122592123Y-95209501D01*
X122532516Y-95215908D01*
X122443332Y-95249172D01*
X122373641Y-95254156D01*
X122356667Y-95249172D01*
X122267482Y-95215908D01*
X122267483Y-95215908D01*
X122207883Y-95209501D01*
X122207881Y-95209500D01*
X122207873Y-95209500D01*
X122207864Y-95209500D01*
X120592129Y-95209500D01*
X120592123Y-95209501D01*
X120532516Y-95215908D01*
X120443332Y-95249172D01*
X120373641Y-95254156D01*
X120356667Y-95249172D01*
X120267482Y-95215908D01*
X120267483Y-95215908D01*
X120207883Y-95209501D01*
X120207881Y-95209500D01*
X120207873Y-95209500D01*
X120207864Y-95209500D01*
X118592129Y-95209500D01*
X118592123Y-95209501D01*
X118532516Y-95215908D01*
X118443332Y-95249172D01*
X118373641Y-95254156D01*
X118356667Y-95249172D01*
X118267482Y-95215908D01*
X118267483Y-95215908D01*
X118207883Y-95209501D01*
X118207881Y-95209500D01*
X118207873Y-95209500D01*
X118207864Y-95209500D01*
X116592129Y-95209500D01*
X116592123Y-95209501D01*
X116532516Y-95215908D01*
X116443332Y-95249172D01*
X116373641Y-95254156D01*
X116356667Y-95249172D01*
X116267482Y-95215908D01*
X116267483Y-95215908D01*
X116207883Y-95209501D01*
X116207881Y-95209500D01*
X116207873Y-95209500D01*
X116207864Y-95209500D01*
X114592129Y-95209500D01*
X114592123Y-95209501D01*
X114532516Y-95215908D01*
X114443332Y-95249172D01*
X114373641Y-95254156D01*
X114356667Y-95249172D01*
X114267482Y-95215908D01*
X114267483Y-95215908D01*
X114207883Y-95209501D01*
X114207881Y-95209500D01*
X114207873Y-95209500D01*
X114207864Y-95209500D01*
X112592129Y-95209500D01*
X112592123Y-95209501D01*
X112532516Y-95215908D01*
X112443332Y-95249172D01*
X112373641Y-95254156D01*
X112356667Y-95249172D01*
X112267482Y-95215908D01*
X112267483Y-95215908D01*
X112207883Y-95209501D01*
X112207881Y-95209500D01*
X112207873Y-95209500D01*
X112207864Y-95209500D01*
X110592129Y-95209500D01*
X110592123Y-95209501D01*
X110532516Y-95215908D01*
X110397671Y-95266202D01*
X110397664Y-95266206D01*
X110282455Y-95352452D01*
X110282452Y-95352455D01*
X110196206Y-95467664D01*
X110196202Y-95467671D01*
X110145908Y-95602517D01*
X110143039Y-95629209D01*
X110139501Y-95662123D01*
X110139500Y-95662135D01*
X93479718Y-95662135D01*
X93486268Y-95629209D01*
X93500114Y-95524045D01*
X93500642Y-95518684D01*
X93526800Y-95453896D01*
X93583833Y-95413535D01*
X93653633Y-95410416D01*
X93680341Y-95420350D01*
X93741583Y-95451555D01*
X93741585Y-95451555D01*
X93741588Y-95451557D01*
X93943757Y-95517246D01*
X94153713Y-95550500D01*
X94153714Y-95550500D01*
X94366286Y-95550500D01*
X94366287Y-95550500D01*
X94576243Y-95517246D01*
X94778412Y-95451557D01*
X94967816Y-95355051D01*
X94989789Y-95339086D01*
X95139786Y-95230109D01*
X95139788Y-95230106D01*
X95139792Y-95230104D01*
X95290104Y-95079792D01*
X95290106Y-95079788D01*
X95290109Y-95079786D01*
X95415048Y-94907820D01*
X95415049Y-94907819D01*
X95415051Y-94907816D01*
X95419514Y-94899054D01*
X95467488Y-94848259D01*
X95535308Y-94831463D01*
X95601444Y-94853999D01*
X95640486Y-94899056D01*
X95644951Y-94907820D01*
X95769890Y-95079786D01*
X95920213Y-95230109D01*
X96092179Y-95355048D01*
X96092181Y-95355049D01*
X96092184Y-95355051D01*
X96281588Y-95451557D01*
X96483757Y-95517246D01*
X96693713Y-95550500D01*
X96693714Y-95550500D01*
X96906286Y-95550500D01*
X96906287Y-95550500D01*
X97116243Y-95517246D01*
X97318412Y-95451557D01*
X97507816Y-95355051D01*
X97529789Y-95339086D01*
X97679786Y-95230109D01*
X97679788Y-95230106D01*
X97679792Y-95230104D01*
X97830104Y-95079792D01*
X97830106Y-95079788D01*
X97830109Y-95079786D01*
X97884899Y-95004371D01*
X97955051Y-94907816D01*
X97962237Y-94893713D01*
X134249500Y-94893713D01*
X134249500Y-95106286D01*
X134274828Y-95266204D01*
X134282754Y-95316243D01*
X134331956Y-95467671D01*
X134348444Y-95518414D01*
X134444951Y-95707820D01*
X134569890Y-95879786D01*
X134720213Y-96030109D01*
X134892179Y-96155048D01*
X134892181Y-96155049D01*
X134892184Y-96155051D01*
X135081588Y-96251557D01*
X135283757Y-96317246D01*
X135493713Y-96350500D01*
X135493714Y-96350500D01*
X135706286Y-96350500D01*
X135706287Y-96350500D01*
X135916243Y-96317246D01*
X136118412Y-96251557D01*
X136307816Y-96155051D01*
X136385885Y-96098331D01*
X136479786Y-96030109D01*
X136479788Y-96030106D01*
X136479792Y-96030104D01*
X136630104Y-95879792D01*
X136630106Y-95879788D01*
X136630109Y-95879786D01*
X136755048Y-95707820D01*
X136755047Y-95707820D01*
X136755051Y-95707816D01*
X136851557Y-95518412D01*
X136917246Y-95316243D01*
X136950500Y-95106287D01*
X136950500Y-94893713D01*
X136917246Y-94683757D01*
X136851557Y-94481588D01*
X136755051Y-94292184D01*
X136755049Y-94292181D01*
X136755048Y-94292179D01*
X136630109Y-94120213D01*
X136479786Y-93969890D01*
X136307820Y-93844951D01*
X136118414Y-93748444D01*
X136118413Y-93748443D01*
X136118412Y-93748443D01*
X135916243Y-93682754D01*
X135916241Y-93682753D01*
X135916240Y-93682753D01*
X135754957Y-93657208D01*
X135706287Y-93649500D01*
X135493713Y-93649500D01*
X135445042Y-93657208D01*
X135283760Y-93682753D01*
X135081585Y-93748444D01*
X134892179Y-93844951D01*
X134720213Y-93969890D01*
X134569890Y-94120213D01*
X134444951Y-94292179D01*
X134348444Y-94481585D01*
X134282753Y-94683760D01*
X134249500Y-94893713D01*
X97962237Y-94893713D01*
X98051557Y-94718412D01*
X98117246Y-94516243D01*
X98150500Y-94306287D01*
X98150500Y-94093713D01*
X98117246Y-93883757D01*
X98051557Y-93681588D01*
X97955051Y-93492184D01*
X97955049Y-93492181D01*
X97955048Y-93492179D01*
X97830109Y-93320213D01*
X97679786Y-93169890D01*
X97551615Y-93076770D01*
X97508949Y-93021441D01*
X97500500Y-92976452D01*
X97500500Y-92691518D01*
X97520185Y-92624479D01*
X97536814Y-92603842D01*
X97648521Y-92492135D01*
X105479500Y-92492135D01*
X105479500Y-94107870D01*
X105479501Y-94107876D01*
X105485908Y-94167483D01*
X105536202Y-94302328D01*
X105536206Y-94302335D01*
X105622452Y-94417544D01*
X105622455Y-94417547D01*
X105737664Y-94503793D01*
X105737671Y-94503797D01*
X105872517Y-94554091D01*
X105872516Y-94554091D01*
X105879444Y-94554835D01*
X105932127Y-94560500D01*
X108867872Y-94560499D01*
X108927483Y-94554091D01*
X109062331Y-94503796D01*
X109177546Y-94417546D01*
X109263796Y-94302331D01*
X109314091Y-94167483D01*
X109320500Y-94107873D01*
X109320499Y-92492128D01*
X109314091Y-92432517D01*
X109306631Y-92412517D01*
X109263797Y-92297671D01*
X109263793Y-92297664D01*
X109177547Y-92182455D01*
X109177544Y-92182452D01*
X109062335Y-92096206D01*
X109062328Y-92096202D01*
X108927482Y-92045908D01*
X108927483Y-92045908D01*
X108867883Y-92039501D01*
X108867881Y-92039500D01*
X108867873Y-92039500D01*
X108867864Y-92039500D01*
X105932129Y-92039500D01*
X105932123Y-92039501D01*
X105872516Y-92045908D01*
X105737671Y-92096202D01*
X105737664Y-92096206D01*
X105622455Y-92182452D01*
X105622452Y-92182455D01*
X105536206Y-92297664D01*
X105536202Y-92297671D01*
X105485908Y-92432517D01*
X105481650Y-92472127D01*
X105479501Y-92492123D01*
X105479500Y-92492135D01*
X97648521Y-92492135D01*
X99908264Y-90232391D01*
X99948495Y-90205511D01*
X99952863Y-90203703D01*
X100092162Y-90110626D01*
X100210626Y-89992162D01*
X100303703Y-89852863D01*
X100367816Y-89698082D01*
X100400500Y-89533767D01*
X100400500Y-89366233D01*
X100367816Y-89201918D01*
X100303703Y-89047137D01*
X100272537Y-89000494D01*
X100210626Y-88907837D01*
X100164970Y-88862181D01*
X100131485Y-88800858D01*
X100136469Y-88731166D01*
X100178341Y-88675233D01*
X100243805Y-88650816D01*
X100252651Y-88650500D01*
X101068996Y-88650500D01*
X101160040Y-88632389D01*
X101204328Y-88623580D01*
X101268069Y-88597177D01*
X101331807Y-88570777D01*
X101331808Y-88570776D01*
X101331811Y-88570775D01*
X101446543Y-88494114D01*
X102744114Y-87196543D01*
X102820775Y-87081811D01*
X102873580Y-86954329D01*
X102883817Y-86902863D01*
X102885527Y-86894268D01*
X102885527Y-86894265D01*
X102900500Y-86818993D01*
X102900500Y-81491518D01*
X102920185Y-81424479D01*
X102936814Y-81403842D01*
X105267821Y-79072834D01*
X105329142Y-79039351D01*
X105398834Y-79044335D01*
X105454767Y-79086207D01*
X105479184Y-79151671D01*
X105479500Y-79160517D01*
X105479500Y-80107870D01*
X105479501Y-80107876D01*
X105485908Y-80167481D01*
X105519172Y-80256666D01*
X105524156Y-80326358D01*
X105519172Y-80343331D01*
X105485909Y-80432514D01*
X105485908Y-80432516D01*
X105481650Y-80472127D01*
X105479501Y-80492123D01*
X105479500Y-80492135D01*
X105479500Y-82107870D01*
X105479501Y-82107876D01*
X105485908Y-82167481D01*
X105519172Y-82256666D01*
X105524156Y-82326358D01*
X105519172Y-82343331D01*
X105485909Y-82432514D01*
X105485908Y-82432516D01*
X105481650Y-82472127D01*
X105479501Y-82492123D01*
X105479500Y-82492135D01*
X105479500Y-84107870D01*
X105479501Y-84107876D01*
X105485908Y-84167481D01*
X105519172Y-84256666D01*
X105524156Y-84326358D01*
X105519172Y-84343331D01*
X105485909Y-84432514D01*
X105485908Y-84432516D01*
X105481650Y-84472127D01*
X105479501Y-84492123D01*
X105479500Y-84492135D01*
X105479500Y-86107870D01*
X105479501Y-86107876D01*
X105485908Y-86167481D01*
X105485909Y-86167483D01*
X105517403Y-86251925D01*
X105519172Y-86256666D01*
X105524156Y-86326358D01*
X105519172Y-86343331D01*
X105485909Y-86432514D01*
X105485908Y-86432516D01*
X105479501Y-86492116D01*
X105479501Y-86492123D01*
X105479500Y-86492135D01*
X105479500Y-88107870D01*
X105479501Y-88107876D01*
X105485908Y-88167481D01*
X105519172Y-88256666D01*
X105524156Y-88326358D01*
X105519172Y-88343331D01*
X105485909Y-88432514D01*
X105485908Y-88432516D01*
X105481650Y-88472127D01*
X105479501Y-88492123D01*
X105479500Y-88492135D01*
X105479500Y-90107870D01*
X105479501Y-90107876D01*
X105485908Y-90167483D01*
X105536202Y-90302328D01*
X105536206Y-90302335D01*
X105622452Y-90417544D01*
X105622455Y-90417547D01*
X105737664Y-90503793D01*
X105737671Y-90503797D01*
X105872517Y-90554091D01*
X105872516Y-90554091D01*
X105879444Y-90554835D01*
X105932127Y-90560500D01*
X108867872Y-90560499D01*
X108927483Y-90554091D01*
X109062331Y-90503796D01*
X109177546Y-90417546D01*
X109263796Y-90302331D01*
X109314091Y-90167483D01*
X109320500Y-90107873D01*
X109320499Y-88492128D01*
X109314091Y-88432517D01*
X109280826Y-88343331D01*
X109275843Y-88273642D01*
X109280824Y-88256674D01*
X109314091Y-88167483D01*
X109320500Y-88107873D01*
X109320499Y-86492128D01*
X109314091Y-86432517D01*
X109280826Y-86343331D01*
X109275843Y-86273642D01*
X109280824Y-86256674D01*
X109314091Y-86167483D01*
X109320500Y-86107873D01*
X109320499Y-84492128D01*
X109314091Y-84432517D01*
X109280826Y-84343331D01*
X109275843Y-84273642D01*
X109280824Y-84256674D01*
X109314091Y-84167483D01*
X109320500Y-84107873D01*
X109320499Y-82492128D01*
X109314091Y-82432517D01*
X109280826Y-82343331D01*
X109275843Y-82273642D01*
X109280824Y-82256674D01*
X109314091Y-82167483D01*
X109320500Y-82107873D01*
X109320499Y-80492128D01*
X109314091Y-80432517D01*
X109280826Y-80343331D01*
X109275843Y-80273642D01*
X109280824Y-80256674D01*
X109314091Y-80167483D01*
X109320500Y-80107873D01*
X109320499Y-78492128D01*
X109314091Y-78432517D01*
X109280826Y-78343331D01*
X109275843Y-78273642D01*
X109280824Y-78256674D01*
X109314091Y-78167483D01*
X109320500Y-78107873D01*
X109320499Y-76492128D01*
X109314091Y-76432517D01*
X109280826Y-76343331D01*
X109275843Y-76273642D01*
X109280824Y-76256674D01*
X109314091Y-76167483D01*
X109320500Y-76107873D01*
X109320499Y-74586945D01*
X109340184Y-74519907D01*
X109388995Y-74476062D01*
X109397222Y-74471944D01*
X109502527Y-74373902D01*
X109546368Y-74319499D01*
X109546372Y-74319494D01*
X109619789Y-74195754D01*
X109643739Y-74137932D01*
X109664994Y-74075313D01*
X109673371Y-74044047D01*
X109686268Y-73979209D01*
X109700114Y-73874045D01*
X109703356Y-73841125D01*
X109704417Y-73824939D01*
X109705500Y-73791874D01*
X109705500Y-72783125D01*
X109704417Y-72750060D01*
X109703356Y-72733874D01*
X109700114Y-72700954D01*
X109686268Y-72595790D01*
X109673367Y-72530938D01*
X109664989Y-72499672D01*
X109643737Y-72437066D01*
X109628756Y-72400898D01*
X109596477Y-72336409D01*
X109578468Y-72306055D01*
X109537319Y-72246789D01*
X109537318Y-72246787D01*
X109537315Y-72246784D01*
X109526910Y-72237097D01*
X109526910Y-72237098D01*
X109520821Y-72231429D01*
X109492286Y-72196658D01*
X109447301Y-72162985D01*
X109442431Y-72158451D01*
X109442431Y-72158450D01*
X109442429Y-72158449D01*
X109432017Y-72148755D01*
X109432014Y-72148753D01*
X109432011Y-72148750D01*
X109427772Y-72145807D01*
X109427771Y-72145807D01*
X109402722Y-72128416D01*
X109402716Y-72128411D01*
X109382394Y-72114300D01*
X109378815Y-72111720D01*
X109377097Y-72110434D01*
X109375900Y-72109665D01*
X109374635Y-72108914D01*
X109372725Y-72107958D01*
X109368816Y-72105913D01*
X109366845Y-72104837D01*
X109366836Y-72104828D01*
X109321741Y-72080209D01*
X109321742Y-72080209D01*
X109315756Y-72076941D01*
X109315753Y-72076940D01*
X109315748Y-72076937D01*
X109302419Y-72071965D01*
X109290252Y-72066669D01*
X109246005Y-72044519D01*
X109246006Y-72044519D01*
X109223612Y-72040477D01*
X109202315Y-72034634D01*
X109197105Y-72032691D01*
X109180989Y-72026681D01*
X109169136Y-72025833D01*
X109131610Y-72023148D01*
X109119567Y-72021691D01*
X109118941Y-72021584D01*
X109104415Y-72018962D01*
X109103392Y-72018925D01*
X109103390Y-72018925D01*
X109046339Y-72016884D01*
X109046287Y-72016885D01*
X109044075Y-72016806D01*
X109039680Y-72016571D01*
X109037479Y-72016414D01*
X109036015Y-72016414D01*
X109034553Y-72016466D01*
X109032375Y-72016700D01*
X109027987Y-72017092D01*
X108975468Y-72020848D01*
X108975454Y-72020849D01*
X108968550Y-72021342D01*
X108967810Y-72021390D01*
X108953887Y-72024419D01*
X108940780Y-72026543D01*
X108891544Y-72031834D01*
X108882957Y-72034025D01*
X108882616Y-72032691D01*
X108848377Y-72039500D01*
X106028851Y-72039500D01*
X105961812Y-72019815D01*
X105936604Y-71998364D01*
X105897395Y-71954715D01*
X105897388Y-71954707D01*
X105865161Y-71924704D01*
X105794013Y-71869435D01*
X105794012Y-71869434D01*
X105663136Y-71809663D01*
X105596091Y-71789976D01*
X105548618Y-71783150D01*
X105453674Y-71769500D01*
X105453672Y-71769500D01*
X103273498Y-71769500D01*
X103206459Y-71749815D01*
X103195316Y-71741747D01*
X102714764Y-71351298D01*
X102680184Y-71325570D01*
X102662721Y-71313699D01*
X102626075Y-71291010D01*
X102505925Y-71223529D01*
X102505923Y-71223528D01*
X102427515Y-71187905D01*
X102427499Y-71187899D01*
X102387857Y-71173824D01*
X102387853Y-71173823D01*
X102304545Y-71152030D01*
X102304541Y-71152029D01*
X102304533Y-71152027D01*
X102304524Y-71152025D01*
X102304522Y-71152025D01*
X102168755Y-71128638D01*
X102168741Y-71128636D01*
X102168740Y-71128636D01*
X102125978Y-71123135D01*
X102125967Y-71123134D01*
X102125959Y-71123133D01*
X102104927Y-71121335D01*
X102061891Y-71119500D01*
X102061881Y-71119500D01*
X98911077Y-71119500D01*
X98851518Y-71104260D01*
X98035510Y-70657398D01*
X97930696Y-70600000D01*
X121400000Y-70600000D01*
X121400000Y-72900000D01*
X127355500Y-72900000D01*
X127422539Y-72919685D01*
X127468294Y-72972489D01*
X127479500Y-73024000D01*
X127479500Y-74087870D01*
X127479501Y-74087876D01*
X127485908Y-74147481D01*
X127519172Y-74236666D01*
X127524156Y-74306358D01*
X127519172Y-74323331D01*
X127485909Y-74412514D01*
X127485908Y-74412516D01*
X127479501Y-74472116D01*
X127479501Y-74472123D01*
X127479500Y-74472135D01*
X127479500Y-76087870D01*
X127479501Y-76087876D01*
X127485908Y-76147481D01*
X127519172Y-76236666D01*
X127524156Y-76306358D01*
X127519172Y-76323331D01*
X127485909Y-76412514D01*
X127485908Y-76412516D01*
X127479501Y-76472116D01*
X127479501Y-76472123D01*
X127479500Y-76472135D01*
X127479500Y-78087870D01*
X127479501Y-78087876D01*
X127485908Y-78147481D01*
X127519172Y-78236666D01*
X127524156Y-78306358D01*
X127519172Y-78323331D01*
X127485909Y-78412514D01*
X127485908Y-78412516D01*
X127479501Y-78472116D01*
X127479501Y-78472123D01*
X127479500Y-78472135D01*
X127479500Y-80087870D01*
X127479501Y-80087876D01*
X127485908Y-80147481D01*
X127519172Y-80236666D01*
X127524156Y-80306358D01*
X127519172Y-80323331D01*
X127485909Y-80412514D01*
X127485908Y-80412516D01*
X127479501Y-80472116D01*
X127479501Y-80472123D01*
X127479500Y-80472135D01*
X127479500Y-82087870D01*
X127479501Y-82087876D01*
X127485908Y-82147481D01*
X127519172Y-82236666D01*
X127524156Y-82306358D01*
X127519172Y-82323331D01*
X127485909Y-82412514D01*
X127485908Y-82412516D01*
X127479501Y-82472116D01*
X127479501Y-82472123D01*
X127479500Y-82472135D01*
X127479500Y-84087870D01*
X127479501Y-84087876D01*
X127485908Y-84147481D01*
X127519172Y-84236666D01*
X127524156Y-84306358D01*
X127519172Y-84323331D01*
X127485909Y-84412514D01*
X127485908Y-84412516D01*
X127479501Y-84472116D01*
X127479501Y-84472123D01*
X127479500Y-84472135D01*
X127479500Y-86087870D01*
X127479501Y-86087876D01*
X127485908Y-86147481D01*
X127485909Y-86147483D01*
X127511033Y-86214846D01*
X127519172Y-86236666D01*
X127524156Y-86306358D01*
X127519172Y-86323331D01*
X127485909Y-86412514D01*
X127485908Y-86412516D01*
X127480032Y-86467176D01*
X127479501Y-86472123D01*
X127479500Y-86472135D01*
X127479500Y-88087870D01*
X127479501Y-88087876D01*
X127485908Y-88147481D01*
X127519172Y-88236666D01*
X127524156Y-88306358D01*
X127519172Y-88323331D01*
X127485909Y-88412514D01*
X127485908Y-88412516D01*
X127479501Y-88472116D01*
X127479501Y-88472123D01*
X127479500Y-88472135D01*
X127479500Y-90087870D01*
X127479501Y-90087876D01*
X127485908Y-90147481D01*
X127485909Y-90147483D01*
X127517578Y-90232394D01*
X127519172Y-90236666D01*
X127524156Y-90306358D01*
X127519172Y-90323331D01*
X127485909Y-90412514D01*
X127485908Y-90412516D01*
X127479501Y-90472116D01*
X127479501Y-90472123D01*
X127479500Y-90472135D01*
X127479500Y-92087870D01*
X127479501Y-92087876D01*
X127485908Y-92147481D01*
X127519172Y-92236666D01*
X127524156Y-92306358D01*
X127519172Y-92323331D01*
X127485909Y-92412514D01*
X127485908Y-92412516D01*
X127479501Y-92472116D01*
X127479501Y-92472123D01*
X127479500Y-92472135D01*
X127479500Y-94087870D01*
X127479501Y-94087876D01*
X127485908Y-94147483D01*
X127536202Y-94282328D01*
X127536206Y-94282335D01*
X127622452Y-94397544D01*
X127622455Y-94397547D01*
X127737664Y-94483793D01*
X127737671Y-94483797D01*
X127872517Y-94534091D01*
X127872516Y-94534091D01*
X127879444Y-94534835D01*
X127932127Y-94540500D01*
X130867872Y-94540499D01*
X130927483Y-94534091D01*
X131062331Y-94483796D01*
X131177546Y-94397546D01*
X131263796Y-94282331D01*
X131314091Y-94147483D01*
X131320500Y-94087873D01*
X131320499Y-92472128D01*
X131314091Y-92412517D01*
X131280826Y-92323331D01*
X131275843Y-92253642D01*
X131280824Y-92236674D01*
X131314091Y-92147483D01*
X131320500Y-92087873D01*
X131320499Y-90472128D01*
X131314091Y-90412517D01*
X131280826Y-90323331D01*
X131275843Y-90253642D01*
X131280824Y-90236674D01*
X131314091Y-90147483D01*
X131320500Y-90087873D01*
X131320499Y-88472128D01*
X131314091Y-88412517D01*
X131280826Y-88323331D01*
X131275843Y-88253642D01*
X131280824Y-88236674D01*
X131314091Y-88147483D01*
X131320500Y-88087873D01*
X131320499Y-86472128D01*
X131314091Y-86412517D01*
X131280826Y-86323331D01*
X131275843Y-86253642D01*
X131280824Y-86236674D01*
X131314091Y-86147483D01*
X131320500Y-86087873D01*
X131320499Y-84472128D01*
X131314091Y-84412517D01*
X131280826Y-84323331D01*
X131275843Y-84253642D01*
X131280824Y-84236674D01*
X131314091Y-84147483D01*
X131320500Y-84087873D01*
X131320499Y-82472128D01*
X131314091Y-82412517D01*
X131280826Y-82323331D01*
X131275843Y-82253642D01*
X131280824Y-82236674D01*
X131314091Y-82147483D01*
X131320500Y-82087873D01*
X131320499Y-80472128D01*
X131314091Y-80412517D01*
X131280826Y-80323331D01*
X131275843Y-80253642D01*
X131280824Y-80236674D01*
X131314091Y-80147483D01*
X131320500Y-80087873D01*
X131320499Y-78472128D01*
X131314091Y-78412517D01*
X131280826Y-78323331D01*
X131275843Y-78253642D01*
X131280824Y-78236674D01*
X131314091Y-78147483D01*
X131320500Y-78087873D01*
X131320499Y-76472128D01*
X131314091Y-76412517D01*
X131280826Y-76323331D01*
X131275843Y-76253642D01*
X131280824Y-76236674D01*
X131314091Y-76147483D01*
X131320500Y-76087873D01*
X131320499Y-74472128D01*
X131314091Y-74412517D01*
X131280826Y-74323331D01*
X131275843Y-74253642D01*
X131280824Y-74236674D01*
X131314091Y-74147483D01*
X131320500Y-74087873D01*
X131320499Y-72472128D01*
X131314091Y-72412517D01*
X131280826Y-72323331D01*
X131275843Y-72253642D01*
X131280824Y-72236674D01*
X131314091Y-72147483D01*
X131320500Y-72087873D01*
X131320499Y-70472128D01*
X131314091Y-70412517D01*
X131292991Y-70355946D01*
X131263797Y-70277671D01*
X131263793Y-70277664D01*
X131177547Y-70162455D01*
X131177544Y-70162452D01*
X131062335Y-70076206D01*
X131062328Y-70076202D01*
X130927482Y-70025908D01*
X130927483Y-70025908D01*
X130867883Y-70019501D01*
X130867881Y-70019500D01*
X130867873Y-70019500D01*
X130867864Y-70019500D01*
X127932129Y-70019500D01*
X127932123Y-70019501D01*
X127872516Y-70025908D01*
X127737671Y-70076202D01*
X127737664Y-70076206D01*
X127622455Y-70162452D01*
X127622452Y-70162455D01*
X127536206Y-70277664D01*
X127536202Y-70277671D01*
X127485908Y-70412517D01*
X127485018Y-70420800D01*
X127479501Y-70472123D01*
X127479500Y-70472135D01*
X127479500Y-70476000D01*
X127459815Y-70543039D01*
X127407011Y-70588794D01*
X127355500Y-70600000D01*
X121400000Y-70600000D01*
X97930696Y-70600000D01*
X96327048Y-69721811D01*
X96298809Y-69707478D01*
X96298807Y-69707477D01*
X96298799Y-69707473D01*
X96284760Y-69700892D01*
X96283546Y-69700369D01*
X96255700Y-69688363D01*
X96161261Y-69651107D01*
X96101058Y-69631613D01*
X96071077Y-69623941D01*
X96071064Y-69623938D01*
X96071063Y-69623937D01*
X96071056Y-69623936D01*
X96041286Y-69618276D01*
X96008899Y-69612118D01*
X96007059Y-69611886D01*
X95908138Y-69599431D01*
X95908125Y-69599429D01*
X95908119Y-69599429D01*
X95876613Y-69596460D01*
X95861115Y-69595488D01*
X95829509Y-69594500D01*
X95829498Y-69594500D01*
X84658126Y-69594500D01*
X84625059Y-69595583D01*
X84608858Y-69596645D01*
X84575957Y-69599885D01*
X84470803Y-69613729D01*
X84470801Y-69613729D01*
X84470796Y-69613730D01*
X84419486Y-69623936D01*
X84405947Y-69626629D01*
X84374692Y-69635003D01*
X84374684Y-69635005D01*
X84312076Y-69656256D01*
X84312052Y-69656265D01*
X84221666Y-69693703D01*
X84221630Y-69693720D01*
X84162324Y-69722966D01*
X84134296Y-69739149D01*
X84079325Y-69775879D01*
X84079297Y-69775900D01*
X84001666Y-69835469D01*
X83951937Y-69879082D01*
X83929082Y-69901937D01*
X83885469Y-69951666D01*
X83825887Y-70029313D01*
X83825876Y-70029328D01*
X83789149Y-70084295D01*
X83789137Y-70084314D01*
X83772960Y-70112336D01*
X83743720Y-70171631D01*
X83706266Y-70262053D01*
X83706262Y-70262064D01*
X83685008Y-70324675D01*
X83676630Y-70355944D01*
X83663730Y-70420800D01*
X83649887Y-70525949D01*
X83646644Y-70558867D01*
X83645583Y-70575056D01*
X83644500Y-70608139D01*
X80500500Y-70608139D01*
X80500500Y-65493713D01*
X84949500Y-65493713D01*
X84949500Y-65706287D01*
X84982754Y-65916243D01*
X85038523Y-66087883D01*
X85048444Y-66118414D01*
X85144951Y-66307820D01*
X85269890Y-66479786D01*
X85420213Y-66630109D01*
X85592179Y-66755048D01*
X85592181Y-66755049D01*
X85592184Y-66755051D01*
X85781588Y-66851557D01*
X85983757Y-66917246D01*
X86193713Y-66950500D01*
X86193714Y-66950500D01*
X86406286Y-66950500D01*
X86406287Y-66950500D01*
X86616243Y-66917246D01*
X86818412Y-66851557D01*
X87007816Y-66755051D01*
X87029789Y-66739086D01*
X87179786Y-66630109D01*
X87179788Y-66630106D01*
X87179792Y-66630104D01*
X87330104Y-66479792D01*
X87330106Y-66479788D01*
X87330109Y-66479786D01*
X87455048Y-66307820D01*
X87455047Y-66307820D01*
X87455051Y-66307816D01*
X87551557Y-66118412D01*
X87617246Y-65916243D01*
X87650500Y-65706287D01*
X87650500Y-65493713D01*
X87617246Y-65283757D01*
X87551557Y-65081588D01*
X87455051Y-64892184D01*
X87455049Y-64892181D01*
X87455048Y-64892179D01*
X87330109Y-64720213D01*
X87179788Y-64569892D01*
X87178729Y-64569123D01*
X87178728Y-64569121D01*
X87045236Y-64472135D01*
X127479500Y-64472135D01*
X127479500Y-66087870D01*
X127479501Y-66087876D01*
X127485908Y-66147481D01*
X127519172Y-66236666D01*
X127524156Y-66306358D01*
X127519172Y-66323331D01*
X127485909Y-66412514D01*
X127485908Y-66412516D01*
X127479501Y-66472116D01*
X127479501Y-66472123D01*
X127479500Y-66472135D01*
X127479500Y-68087870D01*
X127479501Y-68087876D01*
X127485908Y-68147483D01*
X127536202Y-68282328D01*
X127536206Y-68282335D01*
X127622452Y-68397544D01*
X127622455Y-68397547D01*
X127737664Y-68483793D01*
X127737671Y-68483797D01*
X127872517Y-68534091D01*
X127872516Y-68534091D01*
X127879444Y-68534835D01*
X127932127Y-68540500D01*
X130867872Y-68540499D01*
X130927483Y-68534091D01*
X131062331Y-68483796D01*
X131177546Y-68397546D01*
X131263796Y-68282331D01*
X131314091Y-68147483D01*
X131320500Y-68087873D01*
X131320499Y-66472128D01*
X131314091Y-66412517D01*
X131280826Y-66323331D01*
X131275843Y-66253642D01*
X131280824Y-66236674D01*
X131314091Y-66147483D01*
X131320500Y-66087873D01*
X131320499Y-64472128D01*
X131314091Y-64412517D01*
X131290193Y-64348444D01*
X131263797Y-64277671D01*
X131263793Y-64277664D01*
X131177547Y-64162455D01*
X131177544Y-64162452D01*
X131062335Y-64076206D01*
X131062328Y-64076202D01*
X130927482Y-64025908D01*
X130927483Y-64025908D01*
X130867883Y-64019501D01*
X130867881Y-64019500D01*
X130867873Y-64019500D01*
X130867864Y-64019500D01*
X127932129Y-64019500D01*
X127932123Y-64019501D01*
X127872516Y-64025908D01*
X127737671Y-64076202D01*
X127737664Y-64076206D01*
X127622455Y-64162452D01*
X127622452Y-64162455D01*
X127536206Y-64277664D01*
X127536202Y-64277671D01*
X127485908Y-64412517D01*
X127479501Y-64472116D01*
X127479501Y-64472123D01*
X127479500Y-64472135D01*
X87045236Y-64472135D01*
X87007820Y-64444951D01*
X86818414Y-64348444D01*
X86818413Y-64348443D01*
X86818412Y-64348443D01*
X86616243Y-64282754D01*
X86616241Y-64282753D01*
X86616240Y-64282753D01*
X86454957Y-64257208D01*
X86406287Y-64249500D01*
X86193713Y-64249500D01*
X86145042Y-64257208D01*
X85983760Y-64282753D01*
X85781585Y-64348444D01*
X85592179Y-64444951D01*
X85420213Y-64569890D01*
X85269890Y-64720213D01*
X85144951Y-64892179D01*
X85048444Y-65081585D01*
X84982753Y-65283760D01*
X84949500Y-65493713D01*
X80500500Y-65493713D01*
X80500500Y-62004427D01*
X80500816Y-61995581D01*
X80515130Y-61795443D01*
X80515131Y-61795434D01*
X80517646Y-61777938D01*
X80559356Y-61586199D01*
X80564333Y-61569248D01*
X80632911Y-61385385D01*
X80640259Y-61369298D01*
X80702815Y-61254734D01*
X80734291Y-61197089D01*
X80743845Y-61182221D01*
X80861448Y-61025123D01*
X80873020Y-61011769D01*
X81011769Y-60873020D01*
X81025123Y-60861448D01*
X81182221Y-60743845D01*
X81197089Y-60734291D01*
X81369298Y-60640258D01*
X81385385Y-60632911D01*
X81569248Y-60564333D01*
X81586199Y-60559356D01*
X81777938Y-60517646D01*
X81795436Y-60515130D01*
X81995582Y-60500816D01*
X82004428Y-60500500D01*
X82065892Y-60500500D01*
X137934108Y-60500500D01*
X137995572Y-60500500D01*
X138004418Y-60500816D01*
G37*
G04 #@! TD.AperFunction*
M02*
