G04 #@! TF.GenerationSoftware,KiCad,Pcbnew,9.0.3*
G04 #@! TF.CreationDate,2026-01-25T14:37:19-06:00*
G04 #@! TF.ProjectId,LECV2.0_Main_Board,4c454356-322e-4305-9f4d-61696e5f426f,V2.0*
G04 #@! TF.SameCoordinates,Original*
G04 #@! TF.FileFunction,Soldermask,Top*
G04 #@! TF.FilePolarity,Negative*
%FSLAX46Y46*%
G04 Gerber Fmt 4.6, Leading zero omitted, Abs format (unit mm)*
G04 Created by KiCad (PCBNEW 9.0.3) date 2026-01-25 14:37:19*
%MOMM*%
%LPD*%
G01*
G04 APERTURE LIST*
G04 Aperture macros list*
%AMRoundRect*
0 Rectangle with rounded corners*
0 $1 Rounding radius*
0 $2 $3 $4 $5 $6 $7 $8 $9 X,Y pos of 4 corners*
0 Add a 4 corners polygon primitive as box body*
4,1,4,$2,$3,$4,$5,$6,$7,$8,$9,$2,$3,0*
0 Add four circle primitives for the rounded corners*
1,1,$1+$1,$2,$3*
1,1,$1+$1,$4,$5*
1,1,$1+$1,$6,$7*
1,1,$1+$1,$8,$9*
0 Add four rect primitives between the rounded corners*
20,1,$1+$1,$2,$3,$4,$5,0*
20,1,$1+$1,$4,$5,$6,$7,0*
20,1,$1+$1,$6,$7,$8,$9,0*
20,1,$1+$1,$8,$9,$2,$3,0*%
G04 Aperture macros list end*
%ADD10RoundRect,0.250000X-0.625000X0.375000X-0.625000X-0.375000X0.625000X-0.375000X0.625000X0.375000X0*%
%ADD11RoundRect,0.200000X0.200000X0.275000X-0.200000X0.275000X-0.200000X-0.275000X0.200000X-0.275000X0*%
%ADD12RoundRect,0.102000X0.600000X0.600000X-0.600000X0.600000X-0.600000X-0.600000X0.600000X-0.600000X0*%
%ADD13C,1.404000*%
%ADD14R,0.558800X1.549400*%
%ADD15R,4.470400X4.902200*%
%ADD16RoundRect,0.250000X0.250000X0.475000X-0.250000X0.475000X-0.250000X-0.475000X0.250000X-0.475000X0*%
%ADD17RoundRect,0.200000X-0.200000X-0.275000X0.200000X-0.275000X0.200000X0.275000X-0.200000X0.275000X0*%
%ADD18C,5.300000*%
%ADD19RoundRect,0.250000X-0.475000X0.250000X-0.475000X-0.250000X0.475000X-0.250000X0.475000X0.250000X0*%
%ADD20RoundRect,0.102000X1.125000X-1.125000X1.125000X1.125000X-1.125000X1.125000X-1.125000X-1.125000X0*%
%ADD21C,2.454000*%
%ADD22C,2.200000*%
%ADD23RoundRect,0.250000X-0.250000X-0.475000X0.250000X-0.475000X0.250000X0.475000X-0.250000X0.475000X0*%
%ADD24R,0.508000X0.508000*%
%ADD25RoundRect,0.250000X0.325000X1.100000X-0.325000X1.100000X-0.325000X-1.100000X0.325000X-1.100000X0*%
%ADD26RoundRect,0.750000X0.750000X-0.750000X0.750000X0.750000X-0.750000X0.750000X-0.750000X-0.750000X0*%
%ADD27C,3.000000*%
%ADD28RoundRect,0.150000X0.150000X-0.512500X0.150000X0.512500X-0.150000X0.512500X-0.150000X-0.512500X0*%
%ADD29R,1.700000X1.700000*%
%ADD30C,1.700000*%
%ADD31RoundRect,0.102000X1.100000X-1.350000X1.100000X1.350000X-1.100000X1.350000X-1.100000X-1.350000X0*%
%ADD32RoundRect,0.200000X0.275000X-0.200000X0.275000X0.200000X-0.275000X0.200000X-0.275000X-0.200000X0*%
%ADD33R,3.100000X2.600000*%
%ADD34R,0.600000X1.550000*%
%ADD35RoundRect,0.112500X0.237500X-0.112500X0.237500X0.112500X-0.237500X0.112500X-0.237500X-0.112500X0*%
%ADD36RoundRect,0.250000X1.100000X-0.325000X1.100000X0.325000X-1.100000X0.325000X-1.100000X-0.325000X0*%
%ADD37RoundRect,0.250000X-0.548008X1.007627X-1.007627X0.548008X0.548008X-1.007627X1.007627X-0.548008X0*%
%ADD38C,3.301600*%
%ADD39C,2.286000*%
%ADD40C,1.879600*%
%ADD41RoundRect,0.225000X-0.225000X-0.250000X0.225000X-0.250000X0.225000X0.250000X-0.225000X0.250000X0*%
%ADD42RoundRect,0.225000X0.225000X0.250000X-0.225000X0.250000X-0.225000X-0.250000X0.225000X-0.250000X0*%
%ADD43R,0.533400X1.524000*%
%ADD44RoundRect,0.200000X-0.275000X0.200000X-0.275000X-0.200000X0.275000X-0.200000X0.275000X0.200000X0*%
%ADD45RoundRect,0.150000X0.587500X0.150000X-0.587500X0.150000X-0.587500X-0.150000X0.587500X-0.150000X0*%
%ADD46RoundRect,0.150000X-0.150000X0.512500X-0.150000X-0.512500X0.150000X-0.512500X0.150000X0.512500X0*%
%ADD47O,1.700000X1.700000*%
%ADD48R,3.500000X1.700000*%
%ADD49R,1.700000X3.500000*%
G04 APERTURE END LIST*
D10*
X100800000Y-83200000D03*
X100800000Y-86000000D03*
D11*
X98350000Y-61500000D03*
X96700000Y-61500000D03*
D12*
X99862500Y-74400000D03*
D13*
X94862500Y-74400000D03*
D14*
X118715000Y-98325000D03*
X117445000Y-98325000D03*
X116175000Y-98325000D03*
X114905000Y-98325000D03*
D15*
X116810000Y-102693800D03*
D16*
X120650000Y-33800000D03*
X118750000Y-33800000D03*
X120650000Y-41100000D03*
X118750000Y-41100000D03*
D17*
X94141637Y-66658363D03*
X95791637Y-66658363D03*
D18*
X151198944Y-25675000D03*
D19*
X111550000Y-55000000D03*
X111550000Y-56900000D03*
D20*
X122500000Y-134700000D03*
D21*
X119950000Y-137250000D03*
X122500000Y-139800000D03*
D22*
X128225000Y-107125000D03*
D23*
X123850000Y-37400000D03*
X125750000Y-37400000D03*
D24*
X91968800Y-61403501D03*
X91968800Y-59503499D03*
X89581200Y-60453500D03*
D22*
X145475000Y-36950000D03*
D25*
X119075001Y-124375000D03*
X116124999Y-124375000D03*
D11*
X93325000Y-55350000D03*
X91675000Y-55350000D03*
D22*
X132225000Y-154675000D03*
D16*
X120650000Y-30200000D03*
X118750000Y-30200000D03*
D26*
X103775000Y-98125000D03*
D27*
X103775000Y-93125000D03*
D17*
X134725000Y-89400000D03*
X136375000Y-89400000D03*
D28*
X147575000Y-66525000D03*
X149475000Y-66525000D03*
X148525000Y-64250000D03*
D29*
X90325000Y-66675000D03*
D30*
X87785000Y-66675000D03*
D31*
X122700000Y-51050000D03*
X122700000Y-45950000D03*
D22*
X156900000Y-83975000D03*
D32*
X153825000Y-59137500D03*
X153825000Y-57487500D03*
D33*
X114250000Y-48550000D03*
D34*
X116155000Y-45850000D03*
X114885000Y-45850000D03*
X113615000Y-45850000D03*
X112345000Y-45850000D03*
X112345000Y-51250000D03*
X113615000Y-51250000D03*
X114885000Y-51250000D03*
X116155000Y-51250000D03*
D23*
X123850000Y-33800000D03*
X125750000Y-33800000D03*
D35*
X131675000Y-91075000D03*
X131675000Y-89775000D03*
X129675000Y-90425000D03*
D36*
X134775000Y-84375000D03*
X134775000Y-81425000D03*
D37*
X95642983Y-105007017D03*
X93557017Y-107092983D03*
D22*
X183425000Y-30025000D03*
D11*
X114800000Y-42200000D03*
X113150000Y-42200000D03*
D22*
X95450000Y-50700000D03*
D36*
X108850000Y-36850000D03*
X108850000Y-33900000D03*
D32*
X153225000Y-64162500D03*
X153225000Y-62512500D03*
D20*
X104200000Y-112900000D03*
D21*
X101650000Y-115450000D03*
X104200000Y-118000000D03*
D32*
X109600000Y-51250000D03*
X109600000Y-49600000D03*
D38*
X107960000Y-85350000D03*
X107960000Y-65030000D03*
D39*
X109357000Y-78690000D03*
X109357000Y-75190000D03*
X109357000Y-71690000D03*
D40*
X123200000Y-66300000D03*
X123200000Y-68840000D03*
X123200000Y-71380000D03*
X123200000Y-73920000D03*
X123200000Y-76460000D03*
X123200000Y-79000000D03*
X123200000Y-81540000D03*
X123200000Y-84080000D03*
D23*
X114650000Y-39250000D03*
X116550000Y-39250000D03*
D18*
X215725000Y-90200000D03*
D22*
X156900000Y-36975000D03*
X87200000Y-111475000D03*
D41*
X114775000Y-55000000D03*
X116325000Y-55000000D03*
D42*
X154750000Y-52725000D03*
X153200000Y-52725000D03*
D43*
X150545000Y-49019900D03*
X151815000Y-49019900D03*
X153085000Y-49019900D03*
X154355000Y-49019900D03*
X154355000Y-41730100D03*
X153085000Y-41730100D03*
X151815000Y-41730100D03*
X150545000Y-41730100D03*
D23*
X123850000Y-41100000D03*
X125750000Y-41100000D03*
D22*
X174975000Y-66440000D03*
X203575000Y-67940000D03*
X174175000Y-117240000D03*
D29*
X174975000Y-80980000D03*
D30*
X174975000Y-78440000D03*
X174975000Y-75900000D03*
X174975000Y-73360000D03*
D18*
X86675000Y-90200000D03*
D22*
X169050000Y-154950000D03*
D38*
X191360000Y-144697500D03*
X191360000Y-131997500D03*
X171040000Y-144697500D03*
X171040000Y-131997500D03*
D40*
X187550000Y-131997500D03*
X185010000Y-131997500D03*
X182470000Y-131997500D03*
X179930000Y-131997500D03*
X177390000Y-131997500D03*
X174850000Y-131997500D03*
X177390000Y-144697500D03*
X179930000Y-144697500D03*
X182470000Y-144697500D03*
X185010000Y-144697500D03*
X187550000Y-144697500D03*
D16*
X120650000Y-37400000D03*
X118750000Y-37400000D03*
D36*
X113700000Y-36850000D03*
X113700000Y-33900000D03*
D44*
X150550000Y-70100000D03*
X150550000Y-71750000D03*
D16*
X107150000Y-54750000D03*
X105250000Y-54750000D03*
D11*
X107125000Y-51250000D03*
X105475000Y-51250000D03*
D44*
X156125000Y-66212500D03*
X156125000Y-67862500D03*
X122375000Y-98000000D03*
X122375000Y-99650000D03*
D19*
X114100000Y-74300000D03*
X114100000Y-76200000D03*
D45*
X131000000Y-79600000D03*
X131000000Y-77700000D03*
X129125000Y-78650000D03*
D46*
X149525000Y-56812500D03*
X147625000Y-56812500D03*
X148575000Y-59087500D03*
D17*
X109500000Y-42200000D03*
X111150000Y-42200000D03*
D47*
X160080000Y-84600000D03*
D48*
X160980000Y-84600000D03*
D47*
X160080000Y-82060000D03*
D48*
X160980000Y-82060000D03*
D29*
X160080000Y-79520000D03*
D48*
X160980000Y-79520000D03*
D47*
X160080000Y-76980000D03*
D48*
X160980000Y-76980000D03*
D47*
X160080000Y-74440000D03*
D48*
X160980000Y-74440000D03*
D47*
X160080000Y-71900000D03*
D48*
X160980000Y-71900000D03*
D47*
X160080000Y-69360000D03*
D48*
X160980000Y-69360000D03*
D29*
X160080000Y-66820000D03*
D48*
X160980000Y-66820000D03*
D47*
X160080000Y-64280000D03*
D48*
X160980000Y-64280000D03*
D47*
X160080000Y-61740000D03*
D48*
X160980000Y-61740000D03*
D47*
X160080000Y-59200000D03*
D48*
X160980000Y-59200000D03*
D47*
X160080000Y-56660000D03*
D48*
X160980000Y-56660000D03*
D29*
X160080000Y-54120000D03*
D48*
X160980000Y-54120000D03*
D47*
X160080000Y-51580000D03*
D48*
X160980000Y-51580000D03*
D47*
X160080000Y-49040000D03*
D48*
X160980000Y-49040000D03*
D47*
X160080000Y-46500000D03*
D48*
X160980000Y-46500000D03*
D47*
X160080000Y-43960000D03*
D48*
X160980000Y-43960000D03*
D29*
X160080000Y-41420000D03*
D48*
X160980000Y-41420000D03*
D47*
X160080000Y-38880000D03*
D48*
X160980000Y-38880000D03*
D47*
X160080000Y-36340000D03*
D48*
X160980000Y-36340000D03*
D47*
X142300000Y-36340000D03*
D48*
X141400000Y-36340000D03*
D47*
X142300000Y-38880000D03*
D48*
X141400000Y-38880000D03*
D29*
X142300000Y-41420000D03*
D48*
X141400000Y-41420000D03*
D47*
X142300000Y-43960000D03*
D48*
X141400000Y-43960000D03*
D47*
X142300000Y-46500000D03*
D48*
X141400000Y-46500000D03*
D47*
X142300000Y-49040000D03*
D48*
X141400000Y-49040000D03*
D47*
X142300000Y-51580000D03*
D48*
X141400000Y-51580000D03*
D29*
X142300000Y-54120000D03*
D48*
X141400000Y-54120000D03*
D47*
X142300000Y-56660000D03*
D48*
X141400000Y-56660000D03*
D47*
X142300000Y-59200000D03*
D48*
X141400000Y-59200000D03*
D47*
X142300000Y-61740000D03*
D48*
X141400000Y-61740000D03*
D47*
X142300000Y-64280000D03*
D48*
X141400000Y-64280000D03*
D29*
X142300000Y-66820000D03*
D48*
X141400000Y-66820000D03*
D47*
X142300000Y-69360000D03*
D48*
X141400000Y-69360000D03*
D47*
X142300000Y-71900000D03*
D48*
X141400000Y-71900000D03*
D47*
X142300000Y-74440000D03*
D48*
X141400000Y-74440000D03*
D47*
X142300000Y-76980000D03*
D48*
X141400000Y-76980000D03*
D29*
X142300000Y-79520000D03*
D48*
X141400000Y-79520000D03*
D47*
X142300000Y-82060000D03*
D48*
X141400000Y-82060000D03*
D47*
X142300000Y-84600000D03*
D48*
X141400000Y-84600000D03*
D47*
X153730000Y-36570000D03*
D49*
X153730000Y-35670000D03*
D29*
X151190000Y-36570000D03*
D49*
X151190000Y-35670000D03*
D47*
X148650000Y-36570000D03*
D49*
X148650000Y-35670000D03*
D29*
X178350000Y-39660000D03*
D30*
X180890000Y-39660000D03*
X178350000Y-42200000D03*
X180890000Y-42200000D03*
X178350000Y-44740000D03*
X180890000Y-44740000D03*
X178350000Y-47280000D03*
X180890000Y-47280000D03*
X178350000Y-49820000D03*
X180890000Y-49820000D03*
X178350000Y-52360000D03*
X180890000Y-52360000D03*
X178350000Y-54900000D03*
X180890000Y-54900000D03*
M02*
