%TF.GenerationSoftware,KiCad,Pcbnew,9.0.3*%
%TF.CreationDate,2026-01-25T14:37:28-06:00*%
%TF.ProjectId,LECV2.0_Main_Board,4c454356-322e-4305-9f4d-61696e5f426f,V2.0*%
%TF.SameCoordinates,Original*%
%TF.FileFunction,Drillmap*%
%TF.FilePolarity,Positive*%
%FSLAX45Y45*%
G04 Gerber Fmt 4.5, Leading zero omitted, Abs format (unit mm)*
G04 Created by KiCad (PCBNEW 9.0.3) date 2026-01-25 14:37:28*
%MOMM*%
%LPD*%
G01*
G04 APERTURE LIST*
%ADD10C,0.050000*%
%ADD11C,0.200000*%
%ADD12C,0.100000*%
%ADD13C,0.102000*%
%ADD14C,0.150000*%
%ADD15C,0.180000*%
G04 APERTURE END LIST*
D10*
X19461789Y-7198211D02*
G75*
G02*
X19561789Y-7298211I1J-99999D01*
G01*
X20273750Y-10747500D02*
G75*
G02*
X20373750Y-10847500I0J-100000D01*
G01*
X18561789Y-8598211D02*
X18561789Y-7298211D01*
X18661789Y-8698211D02*
G75*
G02*
X18561789Y-8598211I1J100001D01*
G01*
X18973750Y-11747500D02*
G75*
G02*
X18873750Y-11647500I0J100000D01*
G01*
X18873750Y-11647500D02*
X18873750Y-10847500D01*
X16390000Y-9690000D02*
X16390000Y-10330000D01*
X13849999Y-16211217D02*
G75*
G02*
X16390208Y-16211180I1270001J7191217D01*
G01*
X20373750Y-10847500D02*
X20373750Y-11647500D01*
X13850000Y-9690000D02*
X13850000Y-10330000D01*
X19561789Y-7298211D02*
X19561789Y-8598211D01*
X16390208Y-16211180D02*
X16390000Y-10330000D01*
X13950000Y-9590000D02*
X16290000Y-9590000D01*
X13850000Y-9690000D02*
G75*
G02*
X13950000Y-9590000I100000J0D01*
G01*
X18873750Y-10847500D02*
G75*
G02*
X18973750Y-10747500I100000J0D01*
G01*
X20273750Y-11747500D02*
X18973750Y-11747500D01*
X16290000Y-9590000D02*
G75*
G02*
X16390000Y-9690000I0J-100000D01*
G01*
X18561789Y-7298211D02*
G75*
G02*
X18661789Y-7198209I100001J1D01*
G01*
X13850000Y-10330000D02*
X13849999Y-16211217D01*
X20373750Y-11647500D02*
G75*
G02*
X20273750Y-11747500I-100000J0D01*
G01*
X18973750Y-10747500D02*
X20273750Y-10747500D01*
X18661789Y-7198211D02*
X19461789Y-7198211D01*
X19561789Y-8598211D02*
G75*
G02*
X19461789Y-8698209I-99999J1D01*
G01*
X19461789Y-8698211D02*
X18661789Y-8698211D01*
D11*
D12*
X7982500Y-8937500D02*
X8012500Y-8967500D01*
X8012500Y-8937500D02*
X7982500Y-8967500D01*
X8047500Y-8052500D02*
X8077500Y-8082500D01*
X8077500Y-8052500D02*
X8047500Y-8082500D01*
X8062500Y-8597500D02*
X8092500Y-8627500D01*
X8092500Y-8597500D02*
X8062500Y-8627500D01*
X8175000Y-7425000D02*
X8205000Y-7455000D01*
X8205000Y-7425000D02*
X8175000Y-7455000D01*
X8462500Y-6997500D02*
X8492500Y-7027500D01*
X8492500Y-6997500D02*
X8462500Y-7027500D01*
X8462500Y-7397500D02*
X8492500Y-7427500D01*
X8492500Y-7397500D02*
X8462500Y-7427500D01*
X8462500Y-7797500D02*
X8492500Y-7827500D01*
X8492500Y-7797500D02*
X8462500Y-7827500D01*
X8462500Y-8197500D02*
X8492500Y-8227500D01*
X8492500Y-8197500D02*
X8462500Y-8227500D01*
X8462500Y-9797500D02*
X8492500Y-9827500D01*
X8492500Y-9797500D02*
X8462500Y-9827500D01*
X8462500Y-10197500D02*
X8492500Y-10227500D01*
X8492500Y-10197500D02*
X8462500Y-10227500D01*
X8462500Y-10597500D02*
X8492500Y-10627500D01*
X8492500Y-10597500D02*
X8462500Y-10627500D01*
X8557500Y-6280000D02*
X8587500Y-6310000D01*
X8587500Y-6280000D02*
X8557500Y-6310000D01*
X8862500Y-5397500D02*
X8892500Y-5427500D01*
X8892500Y-5397500D02*
X8862500Y-5427500D01*
X8862500Y-6997500D02*
X8892500Y-7027500D01*
X8892500Y-6997500D02*
X8862500Y-7027500D01*
X8862500Y-7397500D02*
X8892500Y-7427500D01*
X8892500Y-7397500D02*
X8862500Y-7427500D01*
X8862500Y-7797500D02*
X8892500Y-7827500D01*
X8892500Y-7797500D02*
X8862500Y-7827500D01*
X8862500Y-8197500D02*
X8892500Y-8227500D01*
X8892500Y-8197500D02*
X8862500Y-8227500D01*
X8862500Y-9797500D02*
X8892500Y-9827500D01*
X8892500Y-9797500D02*
X8862500Y-9827500D01*
X8862500Y-10197500D02*
X8892500Y-10227500D01*
X8892500Y-10197500D02*
X8862500Y-10227500D01*
X8862500Y-10597500D02*
X8892500Y-10627500D01*
X8892500Y-10597500D02*
X8862500Y-10627500D01*
X8862500Y-11797500D02*
X8892500Y-11827500D01*
X8892500Y-11797500D02*
X8862500Y-11827500D01*
X8902500Y-5695000D02*
X8932500Y-5725000D01*
X8932500Y-5695000D02*
X8902500Y-5725000D01*
X9140000Y-12222500D02*
X9170000Y-12252500D01*
X9170000Y-12222500D02*
X9140000Y-12252500D01*
X9262500Y-6997500D02*
X9292500Y-7027500D01*
X9292500Y-6997500D02*
X9262500Y-7027500D01*
X9382500Y-9160000D02*
X9412500Y-9190000D01*
X9412500Y-9160000D02*
X9382500Y-9190000D01*
X9450000Y-10160000D02*
X9480000Y-10190000D01*
X9480000Y-10160000D02*
X9450000Y-10190000D01*
X9500000Y-12672500D02*
X9530000Y-12702500D01*
X9530000Y-12672500D02*
X9500000Y-12702500D01*
X9660000Y-5740000D02*
X9690000Y-5770000D01*
X9690000Y-5740000D02*
X9660000Y-5770000D01*
X9830000Y-13085000D02*
X9860000Y-13115000D01*
X9860000Y-13085000D02*
X9830000Y-13115000D01*
X9895000Y-6472500D02*
X9925000Y-6502500D01*
X9925000Y-6472500D02*
X9895000Y-6502500D01*
X9942500Y-6800000D02*
X9972500Y-6830000D01*
X9972500Y-6800000D02*
X9942500Y-6830000D01*
X9960000Y-10162500D02*
X9990000Y-10192500D01*
X9990000Y-10162500D02*
X9960000Y-10192500D01*
X10000000Y-6132500D02*
X10030000Y-6162500D01*
X10030000Y-6132500D02*
X10000000Y-6162500D01*
X10092500Y-13450000D02*
X10122500Y-13480000D01*
X10122500Y-13450000D02*
X10092500Y-13480000D01*
X10345000Y-5330000D02*
X10375000Y-5360000D01*
X10375000Y-5330000D02*
X10345000Y-5360000D01*
X10392500Y-4882500D02*
X10422500Y-4912500D01*
X10422500Y-4882500D02*
X10392500Y-4912500D01*
X10430000Y-12885000D02*
X10460000Y-12915000D01*
X10460000Y-12885000D02*
X10430000Y-12915000D01*
X10522500Y-13927500D02*
X10552500Y-13957500D01*
X10552500Y-13927500D02*
X10522500Y-13957500D01*
X10542500Y-5702500D02*
X10572500Y-5732500D01*
X10572500Y-5702500D02*
X10542500Y-5732500D01*
X10590000Y-4517500D02*
X10620000Y-4547500D01*
X10620000Y-4517500D02*
X10590000Y-4547500D01*
X10602500Y-6132500D02*
X10632500Y-6162500D01*
X10632500Y-6132500D02*
X10602500Y-6162500D01*
X10635000Y-4770000D02*
X10665000Y-4800000D01*
X10665000Y-4770000D02*
X10635000Y-4800000D01*
X10690000Y-5927500D02*
X10720000Y-5957500D01*
X10720000Y-5927500D02*
X10690000Y-5957500D01*
X10807500Y-13417500D02*
X10837500Y-13447500D01*
X10837500Y-13417500D02*
X10807500Y-13447500D01*
X10862500Y-14197500D02*
X10892500Y-14227500D01*
X10892500Y-14197500D02*
X10862500Y-14227500D01*
X10870000Y-4510000D02*
X10900000Y-4540000D01*
X10900000Y-4510000D02*
X10870000Y-4540000D01*
X10915000Y-4702500D02*
X10945000Y-4732500D01*
X10945000Y-4702500D02*
X10915000Y-4732500D01*
X10925000Y-5685000D02*
X10955000Y-5715000D01*
X10955000Y-5685000D02*
X10925000Y-5715000D01*
X11077500Y-9887500D02*
X11107500Y-9917500D01*
X11107500Y-9887500D02*
X11077500Y-9917500D01*
X11145000Y-5855000D02*
X11175000Y-5885000D01*
X11175000Y-5855000D02*
X11145000Y-5885000D01*
X11157500Y-9012500D02*
X11187500Y-9042500D01*
X11187500Y-9012500D02*
X11157500Y-9042500D01*
X11160000Y-12722500D02*
X11190000Y-12752500D01*
X11190000Y-12722500D02*
X11160000Y-12752500D01*
X11167500Y-6375000D02*
X11197500Y-6405000D01*
X11197500Y-6375000D02*
X11167500Y-6405000D01*
X11202500Y-9375000D02*
X11232500Y-9405000D01*
X11232500Y-9375000D02*
X11202500Y-9405000D01*
X11255000Y-8395000D02*
X11285000Y-8425000D01*
X11285000Y-8395000D02*
X11255000Y-8425000D01*
X11262500Y-14197500D02*
X11292500Y-14227500D01*
X11292500Y-14197500D02*
X11262500Y-14227500D01*
X11262500Y-14597500D02*
X11292500Y-14627500D01*
X11292500Y-14597500D02*
X11262500Y-14627500D01*
X11300000Y-8720000D02*
X11330000Y-8750000D01*
X11330000Y-8720000D02*
X11300000Y-8750000D01*
X11310000Y-8097500D02*
X11340000Y-8127500D01*
X11340000Y-8097500D02*
X11310000Y-8127500D01*
X11375000Y-5685000D02*
X11405000Y-5715000D01*
X11405000Y-5685000D02*
X11375000Y-5715000D01*
X11395000Y-6595000D02*
X11425000Y-6625000D01*
X11425000Y-6595000D02*
X11395000Y-6625000D01*
X11610000Y-6430000D02*
X11640000Y-6460000D01*
X11640000Y-6430000D02*
X11610000Y-6460000D01*
X11632500Y-3185000D02*
X11662500Y-3215000D01*
X11662500Y-3185000D02*
X11632500Y-3215000D01*
X11655000Y-11785000D02*
X11685000Y-11815000D01*
X11685000Y-11785000D02*
X11655000Y-11815000D01*
X11662500Y-14197500D02*
X11692500Y-14227500D01*
X11692500Y-14197500D02*
X11662500Y-14227500D01*
X11662500Y-14597500D02*
X11692500Y-14627500D01*
X11692500Y-14597500D02*
X11662500Y-14627500D01*
X11682500Y-3690000D02*
X11712500Y-3720000D01*
X11712500Y-3690000D02*
X11682500Y-3720000D01*
X11720000Y-4280000D02*
X11750000Y-4310000D01*
X11750000Y-4280000D02*
X11720000Y-4310000D01*
X11800000Y-4620000D02*
X11830000Y-4650000D01*
X11830000Y-4620000D02*
X11800000Y-4650000D01*
X11847500Y-5797500D02*
X11877500Y-5827500D01*
X11877500Y-5797500D02*
X11847500Y-5827500D01*
X11887500Y-6842500D02*
X11917500Y-6872500D01*
X11917500Y-6842500D02*
X11887500Y-6872500D01*
X11985000Y-6450000D02*
X12015000Y-6480000D01*
X12015000Y-6450000D02*
X11985000Y-6480000D01*
X12062500Y-14597500D02*
X12092500Y-14627500D01*
X12092500Y-14597500D02*
X12062500Y-14627500D01*
X12062500Y-14997500D02*
X12092500Y-15027500D01*
X12092500Y-14997500D02*
X12062500Y-15027500D01*
X12287500Y-5517500D02*
X12317500Y-5547500D01*
X12317500Y-5517500D02*
X12287500Y-5547500D01*
X12340000Y-5732500D02*
X12370000Y-5762500D01*
X12370000Y-5732500D02*
X12340000Y-5762500D01*
X12357500Y-9387500D02*
X12387500Y-9417500D01*
X12387500Y-9387500D02*
X12357500Y-9417500D01*
X12360000Y-6367500D02*
X12390000Y-6397500D01*
X12390000Y-6367500D02*
X12360000Y-6397500D01*
X12400000Y-9105000D02*
X12430000Y-9135000D01*
X12430000Y-9105000D02*
X12400000Y-9135000D01*
X12462500Y-14597500D02*
X12492500Y-14627500D01*
X12492500Y-14597500D02*
X12462500Y-14627500D01*
X12462500Y-14997500D02*
X12492500Y-15027500D01*
X12492500Y-14997500D02*
X12462500Y-15027500D01*
X12537500Y-11785000D02*
X12567500Y-11815000D01*
X12567500Y-11785000D02*
X12537500Y-11815000D01*
X12645000Y-6737500D02*
X12675000Y-6767500D01*
X12675000Y-6737500D02*
X12645000Y-6767500D01*
X12702500Y-5377500D02*
X12732500Y-5407500D01*
X12732500Y-5377500D02*
X12702500Y-5407500D01*
X12755000Y-3415000D02*
X12785000Y-3445000D01*
X12785000Y-3415000D02*
X12755000Y-3445000D01*
X12755000Y-7430000D02*
X12785000Y-7460000D01*
X12785000Y-7430000D02*
X12755000Y-7460000D01*
X12770000Y-4165000D02*
X12800000Y-4195000D01*
X12800000Y-4165000D02*
X12770000Y-4195000D01*
X12770000Y-5035000D02*
X12800000Y-5065000D01*
X12800000Y-5035000D02*
X12770000Y-5065000D01*
X12785000Y-3675000D02*
X12815000Y-3705000D01*
X12815000Y-3675000D02*
X12785000Y-3705000D01*
X12785000Y-4527500D02*
X12815000Y-4557500D01*
X12815000Y-4527500D02*
X12785000Y-4557500D01*
X12800000Y-6342500D02*
X12830000Y-6372500D01*
X12830000Y-6342500D02*
X12800000Y-6372500D01*
X12827500Y-11347500D02*
X12857500Y-11377500D01*
X12857500Y-11347500D02*
X12827500Y-11377500D01*
X12862500Y-2197500D02*
X12892500Y-2227500D01*
X12892500Y-2197500D02*
X12862500Y-2227500D01*
X12862500Y-8597500D02*
X12892500Y-8627500D01*
X12892500Y-8597500D02*
X12862500Y-8627500D01*
X12862500Y-10197500D02*
X12892500Y-10227500D01*
X12892500Y-10197500D02*
X12862500Y-10227500D01*
X12862500Y-12197500D02*
X12892500Y-12227500D01*
X12892500Y-12197500D02*
X12862500Y-12227500D01*
X12862500Y-12597500D02*
X12892500Y-12627500D01*
X12892500Y-12597500D02*
X12862500Y-12627500D01*
X12862500Y-12997500D02*
X12892500Y-13027500D01*
X12892500Y-12997500D02*
X12862500Y-13027500D01*
X12862500Y-14597500D02*
X12892500Y-14627500D01*
X12892500Y-14597500D02*
X12862500Y-14627500D01*
X12862500Y-14997500D02*
X12892500Y-15027500D01*
X12892500Y-14997500D02*
X12862500Y-15027500D01*
X12862500Y-15397500D02*
X12892500Y-15427500D01*
X12892500Y-15397500D02*
X12862500Y-15427500D01*
X12910000Y-9815000D02*
X12940000Y-9845000D01*
X12940000Y-9815000D02*
X12910000Y-9845000D01*
X12942500Y-7075000D02*
X12972500Y-7105000D01*
X12972500Y-7075000D02*
X12942500Y-7105000D01*
X12987500Y-7430000D02*
X13017500Y-7460000D01*
X13017500Y-7430000D02*
X12987500Y-7460000D01*
X13057500Y-6025000D02*
X13087500Y-6055000D01*
X13087500Y-6025000D02*
X13057500Y-6055000D01*
X13085000Y-7755000D02*
X13115000Y-7785000D01*
X13115000Y-7755000D02*
X13085000Y-7785000D01*
X13085000Y-8422500D02*
X13115000Y-8452500D01*
X13115000Y-8422500D02*
X13085000Y-8452500D01*
X13140000Y-5647500D02*
X13170000Y-5677500D01*
X13170000Y-5647500D02*
X13140000Y-5677500D01*
X13147500Y-3430000D02*
X13177500Y-3460000D01*
X13177500Y-3430000D02*
X13147500Y-3460000D01*
X13152500Y-5370000D02*
X13182500Y-5400000D01*
X13182500Y-5370000D02*
X13152500Y-5400000D01*
X13155000Y-4095000D02*
X13185000Y-4125000D01*
X13185000Y-4095000D02*
X13155000Y-4125000D01*
X13157500Y-5005000D02*
X13187500Y-5035000D01*
X13187500Y-5005000D02*
X13157500Y-5035000D01*
X13162500Y-4585000D02*
X13192500Y-4615000D01*
X13192500Y-4585000D02*
X13162500Y-4615000D01*
X13177500Y-6442500D02*
X13207500Y-6472500D01*
X13207500Y-6442500D02*
X13177500Y-6472500D01*
X13182500Y-6652500D02*
X13212500Y-6682500D01*
X13212500Y-6652500D02*
X13182500Y-6682500D01*
X13262500Y-2197500D02*
X13292500Y-2227500D01*
X13292500Y-2197500D02*
X13262500Y-2227500D01*
X13262500Y-8597500D02*
X13292500Y-8627500D01*
X13292500Y-8597500D02*
X13262500Y-8627500D01*
X13262500Y-12197500D02*
X13292500Y-12227500D01*
X13292500Y-12197500D02*
X13262500Y-12227500D01*
X13262500Y-12597500D02*
X13292500Y-12627500D01*
X13292500Y-12597500D02*
X13262500Y-12627500D01*
X13262500Y-12997500D02*
X13292500Y-13027500D01*
X13292500Y-12997500D02*
X13262500Y-13027500D01*
X13262500Y-14197500D02*
X13292500Y-14227500D01*
X13292500Y-14197500D02*
X13262500Y-14227500D01*
X13262500Y-14597500D02*
X13292500Y-14627500D01*
X13292500Y-14597500D02*
X13262500Y-14627500D01*
X13262500Y-14997500D02*
X13292500Y-15027500D01*
X13292500Y-14997500D02*
X13262500Y-15027500D01*
X13340000Y-2760000D02*
X13370000Y-2790000D01*
X13370000Y-2760000D02*
X13340000Y-2790000D01*
X13350000Y-7607500D02*
X13380000Y-7637500D01*
X13380000Y-7607500D02*
X13350000Y-7637500D01*
X13405000Y-6442500D02*
X13435000Y-6472500D01*
X13435000Y-6442500D02*
X13405000Y-6472500D01*
X13510000Y-3942500D02*
X13540000Y-3972500D01*
X13540000Y-3942500D02*
X13510000Y-3972500D01*
X13522500Y-6652500D02*
X13552500Y-6682500D01*
X13552500Y-6652500D02*
X13522500Y-6682500D01*
X13527500Y-4935000D02*
X13557500Y-4965000D01*
X13557500Y-4935000D02*
X13527500Y-4965000D01*
X13535000Y-2097500D02*
X13565000Y-2127500D01*
X13565000Y-2097500D02*
X13535000Y-2127500D01*
X13550000Y-3445000D02*
X13580000Y-3475000D01*
X13580000Y-3445000D02*
X13550000Y-3475000D01*
X13650000Y-5650000D02*
X13680000Y-5680000D01*
X13680000Y-5650000D02*
X13650000Y-5680000D01*
X13662500Y-8597500D02*
X13692500Y-8627500D01*
X13692500Y-8597500D02*
X13662500Y-8627500D01*
X13955000Y-2795000D02*
X13985000Y-2825000D01*
X13985000Y-2795000D02*
X13955000Y-2825000D01*
X14435000Y-2887500D02*
X14465000Y-2917500D01*
X14465000Y-2887500D02*
X14435000Y-2917500D01*
X14470000Y-5255000D02*
X14500000Y-5285000D01*
X14500000Y-5255000D02*
X14470000Y-5285000D01*
X14517500Y-4895000D02*
X14547500Y-4925000D01*
X14547500Y-4895000D02*
X14517500Y-4925000D01*
X14540000Y-7429000D02*
X14570000Y-7459000D01*
X14570000Y-7429000D02*
X14540000Y-7459000D01*
X14542500Y-5793750D02*
X14572500Y-5823750D01*
X14572500Y-5793750D02*
X14542500Y-5823750D01*
X14542500Y-5991250D02*
X14572500Y-6021250D01*
X14572500Y-5991250D02*
X14542500Y-6021250D01*
X14542500Y-6313750D02*
X14572500Y-6343750D01*
X14572500Y-6313750D02*
X14542500Y-6343750D01*
X14542500Y-6508750D02*
X14572500Y-6538750D01*
X14572500Y-6508750D02*
X14542500Y-6538750D01*
X14557500Y-4315000D02*
X14587500Y-4345000D01*
X14587500Y-4315000D02*
X14557500Y-4345000D01*
X14562500Y-4520000D02*
X14592500Y-4550000D01*
X14592500Y-4520000D02*
X14562500Y-4550000D01*
X14567500Y-4200000D02*
X14597500Y-4230000D01*
X14597500Y-4200000D02*
X14567500Y-4230000D01*
X14635000Y-8252500D02*
X14665000Y-8282500D01*
X14665000Y-8252500D02*
X14635000Y-8282500D01*
X14705000Y-3977500D02*
X14735000Y-4007500D01*
X14735000Y-3977500D02*
X14705000Y-4007500D01*
X14732500Y-7167500D02*
X14762500Y-7197500D01*
X14762500Y-7167500D02*
X14732500Y-7197500D01*
X14742500Y-6637500D02*
X14772500Y-6667500D01*
X14772500Y-6637500D02*
X14742500Y-6667500D01*
X14775000Y-7755000D02*
X14805000Y-7785000D01*
X14805000Y-7755000D02*
X14775000Y-7785000D01*
X14787500Y-4802500D02*
X14817500Y-4832500D01*
X14817500Y-4802500D02*
X14787500Y-4832500D01*
X14800000Y-5065000D02*
X14830000Y-5095000D01*
X14830000Y-5065000D02*
X14800000Y-5095000D01*
X14862500Y-3977500D02*
X14892500Y-4007500D01*
X14892500Y-3977500D02*
X14862500Y-4007500D01*
X14862500Y-4200000D02*
X14892500Y-4230000D01*
X14892500Y-4200000D02*
X14862500Y-4230000D01*
X14865000Y-4317500D02*
X14895000Y-4347500D01*
X14895000Y-4317500D02*
X14865000Y-4347500D01*
X14915000Y-7427500D02*
X14945000Y-7457500D01*
X14945000Y-7427500D02*
X14915000Y-7457500D01*
X14945000Y-6150000D02*
X14975000Y-6180000D01*
X14975000Y-6150000D02*
X14945000Y-6180000D01*
X15145000Y-6725000D02*
X15175000Y-6755000D01*
X15175000Y-6725000D02*
X15145000Y-6755000D01*
X15310000Y-7427500D02*
X15340000Y-7457500D01*
X15340000Y-7427500D02*
X15310000Y-7457500D01*
X15417500Y-9305000D02*
X15447500Y-9335000D01*
X15447500Y-9305000D02*
X15417500Y-9335000D01*
X15442500Y-8960000D02*
X15472500Y-8990000D01*
X15472500Y-8960000D02*
X15442500Y-8990000D01*
X15657500Y-7240000D02*
X15687500Y-7270000D01*
X15687500Y-7240000D02*
X15657500Y-7270000D01*
X15662500Y-7797500D02*
X15692500Y-7827500D01*
X15692500Y-7797500D02*
X15662500Y-7827500D01*
X15670000Y-5505000D02*
X15700000Y-5535000D01*
X15700000Y-5505000D02*
X15670000Y-5535000D01*
X15682500Y-4035000D02*
X15712500Y-4065000D01*
X15712500Y-4035000D02*
X15682500Y-4065000D01*
X15687500Y-4662500D02*
X15717500Y-4692500D01*
X15717500Y-4662500D02*
X15687500Y-4692500D01*
X15930000Y-2827500D02*
X15960000Y-2857500D01*
X15960000Y-2827500D02*
X15930000Y-2857500D01*
X16017500Y-9250000D02*
X16047500Y-9280000D01*
X16047500Y-9250000D02*
X16017500Y-9280000D01*
X16262500Y-2805000D02*
X16292500Y-2835000D01*
X16292500Y-2805000D02*
X16262500Y-2835000D01*
X16532500Y-5207500D02*
X16562500Y-5237500D01*
X16562500Y-5207500D02*
X16532500Y-5237500D01*
X16555000Y-7402500D02*
X16585000Y-7432500D01*
X16585000Y-7402500D02*
X16555000Y-7432500D01*
X16565000Y-4692500D02*
X16595000Y-4722500D01*
X16595000Y-4692500D02*
X16565000Y-4722500D01*
X16612500Y-6650000D02*
X16642500Y-6680000D01*
X16642500Y-6650000D02*
X16612500Y-6680000D01*
X16725000Y-12675000D02*
X16755000Y-12705000D01*
X16755000Y-12675000D02*
X16725000Y-12705000D01*
X16742500Y-3462500D02*
X16772500Y-3492500D01*
X16772500Y-3462500D02*
X16742500Y-3492500D01*
X16752500Y-4502500D02*
X16782500Y-4532500D01*
X16782500Y-4502500D02*
X16752500Y-4532500D01*
X16752500Y-6159000D02*
X16782500Y-6189000D01*
X16782500Y-6159000D02*
X16752500Y-6189000D01*
X16772500Y-7635000D02*
X16802500Y-7665000D01*
X16802500Y-7635000D02*
X16772500Y-7665000D01*
X16812500Y-8445000D02*
X16842500Y-8475000D01*
X16842500Y-8445000D02*
X16812500Y-8475000D01*
X16857500Y-4712500D02*
X16887500Y-4742500D01*
X16887500Y-4712500D02*
X16857500Y-4742500D01*
X16857500Y-6921000D02*
X16887500Y-6951000D01*
X16887500Y-6921000D02*
X16857500Y-6951000D01*
X16862500Y-2197500D02*
X16892500Y-2227500D01*
X16892500Y-2197500D02*
X16862500Y-2227500D01*
X16862500Y-13797500D02*
X16892500Y-13827500D01*
X16892500Y-13797500D02*
X16862500Y-13827500D01*
X16862500Y-14997500D02*
X16892500Y-15027500D01*
X16892500Y-14997500D02*
X16862500Y-15027500D01*
X16885000Y-10482500D02*
X16915000Y-10512500D01*
X16915000Y-10482500D02*
X16885000Y-10512500D01*
X16885000Y-10740000D02*
X16915000Y-10770000D01*
X16915000Y-10740000D02*
X16885000Y-10770000D01*
X16962500Y-4381000D02*
X16992500Y-4411000D01*
X16992500Y-4381000D02*
X16962500Y-4411000D01*
X16962500Y-4968037D02*
X16992500Y-4998037D01*
X16992500Y-4968037D02*
X16962500Y-4998037D01*
X16982500Y-5222500D02*
X17012500Y-5252500D01*
X17012500Y-5222500D02*
X16982500Y-5252500D01*
X16982500Y-5905000D02*
X17012500Y-5935000D01*
X17012500Y-5905000D02*
X16982500Y-5935000D01*
X17042500Y-7422500D02*
X17072500Y-7452500D01*
X17072500Y-7422500D02*
X17042500Y-7452500D01*
X17046500Y-8191000D02*
X17076500Y-8221000D01*
X17076500Y-8191000D02*
X17046500Y-8221000D01*
X17085000Y-2620000D02*
X17115000Y-2650000D01*
X17115000Y-2620000D02*
X17085000Y-2650000D01*
X17085000Y-3435000D02*
X17115000Y-3465000D01*
X17115000Y-3435000D02*
X17085000Y-3465000D01*
X17087500Y-7952500D02*
X17117500Y-7982500D01*
X17117500Y-7952500D02*
X17087500Y-7982500D01*
X17097500Y-10480000D02*
X17127500Y-10510000D01*
X17127500Y-10480000D02*
X17097500Y-10510000D01*
X17097500Y-10740000D02*
X17127500Y-10770000D01*
X17127500Y-10740000D02*
X17097500Y-10770000D01*
X17175000Y-7175000D02*
X17205000Y-7205000D01*
X17205000Y-7175000D02*
X17175000Y-7205000D01*
X17177500Y-4335000D02*
X17207500Y-4365000D01*
X17207500Y-4335000D02*
X17177500Y-4365000D01*
X17262500Y-2197500D02*
X17292500Y-2227500D01*
X17292500Y-2197500D02*
X17262500Y-2227500D01*
X17262500Y-8597500D02*
X17292500Y-8627500D01*
X17292500Y-8597500D02*
X17262500Y-8627500D01*
X17262500Y-13797500D02*
X17292500Y-13827500D01*
X17292500Y-13797500D02*
X17262500Y-13827500D01*
X17262500Y-14997500D02*
X17292500Y-15027500D01*
X17292500Y-14997500D02*
X17262500Y-15027500D01*
X17262500Y-15397500D02*
X17292500Y-15427500D01*
X17292500Y-15397500D02*
X17262500Y-15427500D01*
X17262500Y-15797500D02*
X17292500Y-15827500D01*
X17292500Y-15797500D02*
X17262500Y-15827500D01*
X17302500Y-4585000D02*
X17332500Y-4615000D01*
X17332500Y-4585000D02*
X17302500Y-4615000D01*
X17302500Y-6413000D02*
X17332500Y-6443000D01*
X17332500Y-6413000D02*
X17302500Y-6443000D01*
X17417500Y-4840000D02*
X17447500Y-4870000D01*
X17447500Y-4840000D02*
X17417500Y-4870000D01*
X17417500Y-5651000D02*
X17447500Y-5681000D01*
X17447500Y-5651000D02*
X17417500Y-5681000D01*
X17427500Y-2572500D02*
X17457500Y-2602500D01*
X17457500Y-2572500D02*
X17427500Y-2602500D01*
X17495000Y-3565000D02*
X17525000Y-3595000D01*
X17525000Y-3565000D02*
X17495000Y-3595000D01*
X17555000Y-6115000D02*
X17585000Y-6145000D01*
X17585000Y-6115000D02*
X17555000Y-6145000D01*
X17627500Y-11982500D02*
X17657500Y-12012500D01*
X17657500Y-11982500D02*
X17627500Y-12012500D01*
X17662500Y-8597500D02*
X17692500Y-8627500D01*
X17692500Y-8597500D02*
X17662500Y-8627500D01*
X17662500Y-8997500D02*
X17692500Y-9027500D01*
X17692500Y-8997500D02*
X17662500Y-9027500D01*
X17662500Y-9397500D02*
X17692500Y-9427500D01*
X17692500Y-9397500D02*
X17662500Y-9427500D01*
X17662500Y-9797500D02*
X17692500Y-9827500D01*
X17692500Y-9797500D02*
X17662500Y-9827500D01*
X17662500Y-10197500D02*
X17692500Y-10227500D01*
X17692500Y-10197500D02*
X17662500Y-10227500D01*
X17662500Y-13797500D02*
X17692500Y-13827500D01*
X17692500Y-13797500D02*
X17662500Y-13827500D01*
X17662500Y-14997500D02*
X17692500Y-15027500D01*
X17692500Y-14997500D02*
X17662500Y-15027500D01*
X17697500Y-15645000D02*
X17727500Y-15675000D01*
X17727500Y-15645000D02*
X17697500Y-15675000D01*
X17812500Y-5975000D02*
X17842500Y-6005000D01*
X17842500Y-5975000D02*
X17812500Y-6005000D01*
X17842500Y-6447500D02*
X17872500Y-6477500D01*
X17872500Y-6447500D02*
X17842500Y-6477500D01*
X18062500Y-7797500D02*
X18092500Y-7827500D01*
X18092500Y-7797500D02*
X18062500Y-7827500D01*
X18062500Y-8197500D02*
X18092500Y-8227500D01*
X18092500Y-8197500D02*
X18062500Y-8227500D01*
X18062500Y-8597500D02*
X18092500Y-8627500D01*
X18092500Y-8597500D02*
X18062500Y-8627500D01*
X18062500Y-8997500D02*
X18092500Y-9027500D01*
X18092500Y-8997500D02*
X18062500Y-9027500D01*
X18062500Y-9397500D02*
X18092500Y-9427500D01*
X18092500Y-9397500D02*
X18062500Y-9427500D01*
X18062500Y-9797500D02*
X18092500Y-9827500D01*
X18092500Y-9797500D02*
X18062500Y-9827500D01*
X18062500Y-10197500D02*
X18092500Y-10227500D01*
X18092500Y-10197500D02*
X18062500Y-10227500D01*
X18062500Y-10597500D02*
X18092500Y-10627500D01*
X18092500Y-10597500D02*
X18062500Y-10627500D01*
X18062500Y-10997500D02*
X18092500Y-11027500D01*
X18092500Y-10997500D02*
X18062500Y-11027500D01*
X18062500Y-11397500D02*
X18092500Y-11427500D01*
X18092500Y-11397500D02*
X18062500Y-11427500D01*
X18062500Y-13797500D02*
X18092500Y-13827500D01*
X18092500Y-13797500D02*
X18062500Y-13827500D01*
X18062500Y-14997500D02*
X18092500Y-15027500D01*
X18092500Y-14997500D02*
X18062500Y-15027500D01*
X18062500Y-15397500D02*
X18092500Y-15427500D01*
X18092500Y-15397500D02*
X18062500Y-15427500D01*
X18067500Y-2535000D02*
X18097500Y-2565000D01*
X18097500Y-2535000D02*
X18067500Y-2565000D01*
X18200000Y-12787500D02*
X18230000Y-12817500D01*
X18230000Y-12787500D02*
X18200000Y-12817500D01*
X18227500Y-7475000D02*
X18257500Y-7505000D01*
X18257500Y-7475000D02*
X18227500Y-7505000D01*
X18287500Y-8395000D02*
X18317500Y-8425000D01*
X18317500Y-8395000D02*
X18287500Y-8425000D01*
X18302500Y-8000000D02*
X18332500Y-8030000D01*
X18332500Y-8000000D02*
X18302500Y-8030000D01*
X18397500Y-15317500D02*
X18427500Y-15347500D01*
X18427500Y-15317500D02*
X18397500Y-15347500D01*
X18437500Y-8820000D02*
X18467500Y-8850000D01*
X18467500Y-8820000D02*
X18437500Y-8850000D01*
X18462500Y-9397500D02*
X18492500Y-9427500D01*
X18492500Y-9397500D02*
X18462500Y-9427500D01*
X18462500Y-9797500D02*
X18492500Y-9827500D01*
X18492500Y-9797500D02*
X18462500Y-9827500D01*
X18462500Y-10197500D02*
X18492500Y-10227500D01*
X18492500Y-10197500D02*
X18462500Y-10227500D01*
X18462500Y-10597500D02*
X18492500Y-10627500D01*
X18492500Y-10597500D02*
X18462500Y-10627500D01*
X18462500Y-13797500D02*
X18492500Y-13827500D01*
X18492500Y-13797500D02*
X18462500Y-13827500D01*
X18462500Y-14997500D02*
X18492500Y-15027500D01*
X18492500Y-14997500D02*
X18462500Y-15027500D01*
X18470000Y-11460000D02*
X18500000Y-11490000D01*
X18500000Y-11460000D02*
X18470000Y-11490000D01*
X18500000Y-11057500D02*
X18530000Y-11087500D01*
X18530000Y-11057500D02*
X18500000Y-11087500D01*
X18642500Y-9082500D02*
X18672500Y-9112500D01*
X18672500Y-9082500D02*
X18642500Y-9112500D01*
X18652500Y-3180000D02*
X18682500Y-3210000D01*
X18682500Y-3180000D02*
X18652500Y-3210000D01*
X18727500Y-10627500D02*
X18757500Y-10657500D01*
X18757500Y-10627500D02*
X18727500Y-10657500D01*
X18755000Y-11860000D02*
X18785000Y-11890000D01*
X18785000Y-11860000D02*
X18755000Y-11890000D01*
X18767500Y-7005000D02*
X18797500Y-7035000D01*
X18797500Y-7005000D02*
X18767500Y-7035000D01*
X18862500Y-8847500D02*
X18892500Y-8877500D01*
X18892500Y-8847500D02*
X18862500Y-8877500D01*
X18862500Y-9397500D02*
X18892500Y-9427500D01*
X18892500Y-9397500D02*
X18862500Y-9427500D01*
X18862500Y-9797500D02*
X18892500Y-9827500D01*
X18892500Y-9797500D02*
X18862500Y-9827500D01*
X18862500Y-10197500D02*
X18892500Y-10227500D01*
X18892500Y-10197500D02*
X18862500Y-10227500D01*
X18862500Y-12197500D02*
X18892500Y-12227500D01*
X18892500Y-12197500D02*
X18862500Y-12227500D01*
X18862500Y-13797500D02*
X18892500Y-13827500D01*
X18892500Y-13797500D02*
X18862500Y-13827500D01*
X18862500Y-14997500D02*
X18892500Y-15027500D01*
X18892500Y-14997500D02*
X18862500Y-15027500D01*
X19000000Y-6420000D02*
X19030000Y-6450000D01*
X19030000Y-6420000D02*
X19000000Y-6450000D01*
X19092500Y-9110000D02*
X19122500Y-9140000D01*
X19122500Y-9110000D02*
X19092500Y-9140000D01*
X19092500Y-10505000D02*
X19122500Y-10535000D01*
X19122500Y-10505000D02*
X19092500Y-10535000D01*
X19117500Y-11927500D02*
X19147500Y-11957500D01*
X19147500Y-11927500D02*
X19117500Y-11957500D01*
X19222500Y-6987500D02*
X19252500Y-7017500D01*
X19252500Y-6987500D02*
X19222500Y-7017500D01*
X19262500Y-3397500D02*
X19292500Y-3427500D01*
X19292500Y-3397500D02*
X19262500Y-3427500D01*
X19262500Y-3797500D02*
X19292500Y-3827500D01*
X19292500Y-3797500D02*
X19262500Y-3827500D01*
X19262500Y-4197500D02*
X19292500Y-4227500D01*
X19292500Y-4197500D02*
X19262500Y-4227500D01*
X19262500Y-4597500D02*
X19292500Y-4627500D01*
X19292500Y-4597500D02*
X19262500Y-4627500D01*
X19262500Y-4997500D02*
X19292500Y-5027500D01*
X19292500Y-4997500D02*
X19262500Y-5027500D01*
X19262500Y-5397500D02*
X19292500Y-5427500D01*
X19292500Y-5397500D02*
X19262500Y-5427500D01*
X19262500Y-5797500D02*
X19292500Y-5827500D01*
X19292500Y-5797500D02*
X19262500Y-5827500D01*
X19262500Y-6197500D02*
X19292500Y-6227500D01*
X19292500Y-6197500D02*
X19262500Y-6227500D01*
X19262500Y-6597500D02*
X19292500Y-6627500D01*
X19292500Y-6597500D02*
X19262500Y-6627500D01*
X19262500Y-9397500D02*
X19292500Y-9427500D01*
X19292500Y-9397500D02*
X19262500Y-9427500D01*
X19262500Y-9797500D02*
X19292500Y-9827500D01*
X19292500Y-9797500D02*
X19262500Y-9827500D01*
X19262500Y-10197500D02*
X19292500Y-10227500D01*
X19292500Y-10197500D02*
X19262500Y-10227500D01*
X19262500Y-12197500D02*
X19292500Y-12227500D01*
X19292500Y-12197500D02*
X19262500Y-12227500D01*
X19262500Y-12597500D02*
X19292500Y-12627500D01*
X19292500Y-12597500D02*
X19262500Y-12627500D01*
X19262500Y-13797500D02*
X19292500Y-13827500D01*
X19292500Y-13797500D02*
X19262500Y-13827500D01*
X19275000Y-8867500D02*
X19305000Y-8897500D01*
X19305000Y-8867500D02*
X19275000Y-8897500D01*
X19470000Y-10502500D02*
X19500000Y-10532500D01*
X19500000Y-10502500D02*
X19470000Y-10532500D01*
X19480000Y-9115000D02*
X19510000Y-9145000D01*
X19510000Y-9115000D02*
X19480000Y-9145000D01*
X19482500Y-11942500D02*
X19512500Y-11972500D01*
X19512500Y-11942500D02*
X19482500Y-11972500D01*
X19572500Y-14507500D02*
X19602500Y-14537500D01*
X19602500Y-14507500D02*
X19572500Y-14537500D01*
X19617500Y-3472500D02*
X19647500Y-3502500D01*
X19647500Y-3472500D02*
X19617500Y-3502500D01*
X19652500Y-8815000D02*
X19682500Y-8845000D01*
X19682500Y-8815000D02*
X19652500Y-8845000D01*
X19662500Y-3797500D02*
X19692500Y-3827500D01*
X19692500Y-3797500D02*
X19662500Y-3827500D01*
X19662500Y-4197500D02*
X19692500Y-4227500D01*
X19692500Y-4197500D02*
X19662500Y-4227500D01*
X19662500Y-4597500D02*
X19692500Y-4627500D01*
X19692500Y-4597500D02*
X19662500Y-4627500D01*
X19662500Y-4997500D02*
X19692500Y-5027500D01*
X19692500Y-4997500D02*
X19662500Y-5027500D01*
X19662500Y-5397500D02*
X19692500Y-5427500D01*
X19692500Y-5397500D02*
X19662500Y-5427500D01*
X19662500Y-5797500D02*
X19692500Y-5827500D01*
X19692500Y-5797500D02*
X19662500Y-5827500D01*
X19662500Y-6197500D02*
X19692500Y-6227500D01*
X19692500Y-6197500D02*
X19662500Y-6227500D01*
X19662500Y-6597500D02*
X19692500Y-6627500D01*
X19692500Y-6597500D02*
X19662500Y-6627500D01*
X19662500Y-9397500D02*
X19692500Y-9427500D01*
X19692500Y-9397500D02*
X19662500Y-9427500D01*
X19662500Y-9797500D02*
X19692500Y-9827500D01*
X19692500Y-9797500D02*
X19662500Y-9827500D01*
X19662500Y-10197500D02*
X19692500Y-10227500D01*
X19692500Y-10197500D02*
X19662500Y-10227500D01*
X19662500Y-12197500D02*
X19692500Y-12227500D01*
X19692500Y-12197500D02*
X19662500Y-12227500D01*
X19662500Y-12597500D02*
X19692500Y-12627500D01*
X19692500Y-12597500D02*
X19662500Y-12627500D01*
X19662500Y-12997500D02*
X19692500Y-13027500D01*
X19692500Y-12997500D02*
X19662500Y-13027500D01*
X19662500Y-13397500D02*
X19692500Y-13427500D01*
X19692500Y-13397500D02*
X19662500Y-13427500D01*
X19662500Y-13797500D02*
X19692500Y-13827500D01*
X19692500Y-13797500D02*
X19662500Y-13827500D01*
X19662500Y-14197500D02*
X19692500Y-14227500D01*
X19692500Y-14197500D02*
X19662500Y-14227500D01*
X19665000Y-7085000D02*
X19695000Y-7115000D01*
X19695000Y-7085000D02*
X19665000Y-7115000D01*
X19777500Y-8495000D02*
X19807500Y-8525000D01*
X19807500Y-8495000D02*
X19777500Y-8525000D01*
X19782500Y-8067500D02*
X19812500Y-8097500D01*
X19812500Y-8067500D02*
X19782500Y-8097500D01*
X19812500Y-7622500D02*
X19842500Y-7652500D01*
X19842500Y-7622500D02*
X19812500Y-7652500D01*
X19847500Y-9117500D02*
X19877500Y-9147500D01*
X19877500Y-9117500D02*
X19847500Y-9147500D01*
X19932500Y-10517500D02*
X19962500Y-10547500D01*
X19962500Y-10517500D02*
X19932500Y-10547500D01*
X19937500Y-6802500D02*
X19967500Y-6832500D01*
X19967500Y-6802500D02*
X19937500Y-6832500D01*
X19950000Y-14095000D02*
X19980000Y-14125000D01*
X19980000Y-14095000D02*
X19950000Y-14125000D01*
X19952500Y-6505000D02*
X19982500Y-6535000D01*
X19982500Y-6505000D02*
X19952500Y-6535000D01*
X20005000Y-3850000D02*
X20035000Y-3880000D01*
X20035000Y-3850000D02*
X20005000Y-3880000D01*
X20045000Y-11942500D02*
X20075000Y-11972500D01*
X20075000Y-11942500D02*
X20045000Y-11972500D01*
X20062500Y-4197500D02*
X20092500Y-4227500D01*
X20092500Y-4197500D02*
X20062500Y-4227500D01*
X20062500Y-4597500D02*
X20092500Y-4627500D01*
X20092500Y-4597500D02*
X20062500Y-4627500D01*
X20062500Y-4997500D02*
X20092500Y-5027500D01*
X20092500Y-4997500D02*
X20062500Y-5027500D01*
X20062500Y-5397500D02*
X20092500Y-5427500D01*
X20092500Y-5397500D02*
X20062500Y-5427500D01*
X20062500Y-5797500D02*
X20092500Y-5827500D01*
X20092500Y-5797500D02*
X20062500Y-5827500D01*
X20062500Y-6197500D02*
X20092500Y-6227500D01*
X20092500Y-6197500D02*
X20062500Y-6227500D01*
X20062500Y-7397500D02*
X20092500Y-7427500D01*
X20092500Y-7397500D02*
X20062500Y-7427500D01*
X20062500Y-7797500D02*
X20092500Y-7827500D01*
X20092500Y-7797500D02*
X20062500Y-7827500D01*
X20062500Y-8197500D02*
X20092500Y-8227500D01*
X20092500Y-8197500D02*
X20062500Y-8227500D01*
X20062500Y-8597500D02*
X20092500Y-8627500D01*
X20092500Y-8597500D02*
X20062500Y-8627500D01*
X20062500Y-8997500D02*
X20092500Y-9027500D01*
X20092500Y-8997500D02*
X20062500Y-9027500D01*
X20062500Y-9397500D02*
X20092500Y-9427500D01*
X20092500Y-9397500D02*
X20062500Y-9427500D01*
X20062500Y-9797500D02*
X20092500Y-9827500D01*
X20092500Y-9797500D02*
X20062500Y-9827500D01*
X20062500Y-10197500D02*
X20092500Y-10227500D01*
X20092500Y-10197500D02*
X20062500Y-10227500D01*
X20062500Y-12197500D02*
X20092500Y-12227500D01*
X20092500Y-12197500D02*
X20062500Y-12227500D01*
X20062500Y-12597500D02*
X20092500Y-12627500D01*
X20092500Y-12597500D02*
X20062500Y-12627500D01*
X20062500Y-12997500D02*
X20092500Y-13027500D01*
X20092500Y-12997500D02*
X20062500Y-13027500D01*
X20062500Y-13397500D02*
X20092500Y-13427500D01*
X20092500Y-13397500D02*
X20062500Y-13427500D01*
X20062500Y-13797500D02*
X20092500Y-13827500D01*
X20092500Y-13797500D02*
X20062500Y-13827500D01*
X20245000Y-7157500D02*
X20275000Y-7187500D01*
X20275000Y-7157500D02*
X20245000Y-7187500D01*
X20345000Y-4305000D02*
X20375000Y-4335000D01*
X20375000Y-4305000D02*
X20345000Y-4335000D01*
X20345000Y-13695000D02*
X20375000Y-13725000D01*
X20375000Y-13695000D02*
X20345000Y-13725000D01*
X20462500Y-4597500D02*
X20492500Y-4627500D01*
X20492500Y-4597500D02*
X20462500Y-4627500D01*
X20462500Y-4997500D02*
X20492500Y-5027500D01*
X20492500Y-4997500D02*
X20462500Y-5027500D01*
X20462500Y-5397500D02*
X20492500Y-5427500D01*
X20492500Y-5397500D02*
X20462500Y-5427500D01*
X20462500Y-5797500D02*
X20492500Y-5827500D01*
X20492500Y-5797500D02*
X20462500Y-5827500D01*
X20462500Y-6197500D02*
X20492500Y-6227500D01*
X20492500Y-6197500D02*
X20462500Y-6227500D01*
X20462500Y-7397500D02*
X20492500Y-7427500D01*
X20492500Y-7397500D02*
X20462500Y-7427500D01*
X20462500Y-7797500D02*
X20492500Y-7827500D01*
X20492500Y-7797500D02*
X20462500Y-7827500D01*
X20462500Y-8197500D02*
X20492500Y-8227500D01*
X20492500Y-8197500D02*
X20462500Y-8227500D01*
X20462500Y-8597500D02*
X20492500Y-8627500D01*
X20492500Y-8597500D02*
X20462500Y-8627500D01*
X20462500Y-8997500D02*
X20492500Y-9027500D01*
X20492500Y-8997500D02*
X20462500Y-9027500D01*
X20462500Y-9397500D02*
X20492500Y-9427500D01*
X20492500Y-9397500D02*
X20462500Y-9427500D01*
X20462500Y-9797500D02*
X20492500Y-9827500D01*
X20492500Y-9797500D02*
X20462500Y-9827500D01*
X20462500Y-10197500D02*
X20492500Y-10227500D01*
X20492500Y-10197500D02*
X20462500Y-10227500D01*
X20462500Y-11805000D02*
X20492500Y-11835000D01*
X20492500Y-11805000D02*
X20462500Y-11835000D01*
X20462500Y-12197500D02*
X20492500Y-12227500D01*
X20492500Y-12197500D02*
X20462500Y-12227500D01*
X20462500Y-12597500D02*
X20492500Y-12627500D01*
X20492500Y-12597500D02*
X20462500Y-12627500D01*
X20462500Y-12997500D02*
X20492500Y-13027500D01*
X20492500Y-12997500D02*
X20462500Y-13027500D01*
X20462500Y-13397500D02*
X20492500Y-13427500D01*
X20492500Y-13397500D02*
X20462500Y-13427500D01*
X20487500Y-10640000D02*
X20517500Y-10670000D01*
X20517500Y-10640000D02*
X20487500Y-10670000D01*
X20532500Y-6482500D02*
X20562500Y-6512500D01*
X20562500Y-6482500D02*
X20532500Y-6512500D01*
X20547500Y-10862500D02*
X20577500Y-10892500D01*
X20577500Y-10862500D02*
X20547500Y-10892500D01*
X20547500Y-11545000D02*
X20577500Y-11575000D01*
X20577500Y-11545000D02*
X20547500Y-11575000D01*
X20560000Y-11167500D02*
X20590000Y-11197500D01*
X20590000Y-11167500D02*
X20560000Y-11197500D01*
X20602500Y-7172500D02*
X20632500Y-7202500D01*
X20632500Y-7172500D02*
X20602500Y-7202500D01*
X20777500Y-4682500D02*
X20807500Y-4712500D01*
X20807500Y-4682500D02*
X20777500Y-4712500D01*
X20835000Y-13235000D02*
X20865000Y-13265000D01*
X20865000Y-13235000D02*
X20835000Y-13265000D01*
X20862500Y-4997500D02*
X20892500Y-5027500D01*
X20892500Y-4997500D02*
X20862500Y-5027500D01*
X20862500Y-5397500D02*
X20892500Y-5427500D01*
X20892500Y-5397500D02*
X20862500Y-5427500D01*
X20862500Y-5797500D02*
X20892500Y-5827500D01*
X20892500Y-5797500D02*
X20862500Y-5827500D01*
X20862500Y-6197500D02*
X20892500Y-6227500D01*
X20892500Y-6197500D02*
X20862500Y-6227500D01*
X20862500Y-6597500D02*
X20892500Y-6627500D01*
X20892500Y-6597500D02*
X20862500Y-6627500D01*
X20862500Y-6997500D02*
X20892500Y-7027500D01*
X20892500Y-6997500D02*
X20862500Y-7027500D01*
X20862500Y-7397500D02*
X20892500Y-7427500D01*
X20892500Y-7397500D02*
X20862500Y-7427500D01*
X20862500Y-7797500D02*
X20892500Y-7827500D01*
X20892500Y-7797500D02*
X20862500Y-7827500D01*
X20862500Y-8197500D02*
X20892500Y-8227500D01*
X20892500Y-8197500D02*
X20862500Y-8227500D01*
X20862500Y-8597500D02*
X20892500Y-8627500D01*
X20892500Y-8597500D02*
X20862500Y-8627500D01*
X20862500Y-8997500D02*
X20892500Y-9027500D01*
X20892500Y-8997500D02*
X20862500Y-9027500D01*
X20862500Y-9397500D02*
X20892500Y-9427500D01*
X20892500Y-9397500D02*
X20862500Y-9427500D01*
X20862500Y-9797500D02*
X20892500Y-9827500D01*
X20892500Y-9797500D02*
X20862500Y-9827500D01*
X20862500Y-10197500D02*
X20892500Y-10227500D01*
X20892500Y-10197500D02*
X20862500Y-10227500D01*
X20862500Y-10597500D02*
X20892500Y-10627500D01*
X20892500Y-10597500D02*
X20862500Y-10627500D01*
X20862500Y-10997500D02*
X20892500Y-11027500D01*
X20892500Y-10997500D02*
X20862500Y-11027500D01*
X20862500Y-11397500D02*
X20892500Y-11427500D01*
X20892500Y-11397500D02*
X20862500Y-11427500D01*
X20862500Y-11797500D02*
X20892500Y-11827500D01*
X20892500Y-11797500D02*
X20862500Y-11827500D01*
X20862500Y-12197500D02*
X20892500Y-12227500D01*
X20892500Y-12197500D02*
X20862500Y-12227500D01*
X20862500Y-12597500D02*
X20892500Y-12627500D01*
X20892500Y-12597500D02*
X20862500Y-12627500D01*
X21152500Y-12705000D02*
X21182500Y-12735000D01*
X21182500Y-12705000D02*
X21152500Y-12735000D01*
X21185000Y-5297500D02*
X21215000Y-5327500D01*
X21215000Y-5297500D02*
X21185000Y-5327500D01*
X21262500Y-5797500D02*
X21292500Y-5827500D01*
X21292500Y-5797500D02*
X21262500Y-5827500D01*
X21262500Y-6197500D02*
X21292500Y-6227500D01*
X21292500Y-6197500D02*
X21262500Y-6227500D01*
X21262500Y-6597500D02*
X21292500Y-6627500D01*
X21292500Y-6597500D02*
X21262500Y-6627500D01*
X21262500Y-6997500D02*
X21292500Y-7027500D01*
X21292500Y-6997500D02*
X21262500Y-7027500D01*
X21262500Y-7397500D02*
X21292500Y-7427500D01*
X21292500Y-7397500D02*
X21262500Y-7427500D01*
X21262500Y-7797500D02*
X21292500Y-7827500D01*
X21292500Y-7797500D02*
X21262500Y-7827500D01*
X21262500Y-8197500D02*
X21292500Y-8227500D01*
X21292500Y-8197500D02*
X21262500Y-8227500D01*
X21262500Y-9797500D02*
X21292500Y-9827500D01*
X21292500Y-9797500D02*
X21262500Y-9827500D01*
X21262500Y-10197500D02*
X21292500Y-10227500D01*
X21292500Y-10197500D02*
X21262500Y-10227500D01*
X21262500Y-10597500D02*
X21292500Y-10627500D01*
X21292500Y-10597500D02*
X21262500Y-10627500D01*
X21262500Y-10997500D02*
X21292500Y-11027500D01*
X21292500Y-10997500D02*
X21262500Y-11027500D01*
X21262500Y-11397500D02*
X21292500Y-11427500D01*
X21292500Y-11397500D02*
X21262500Y-11427500D01*
X21262500Y-11797500D02*
X21292500Y-11827500D01*
X21292500Y-11797500D02*
X21262500Y-11827500D01*
X21262500Y-12197500D02*
X21292500Y-12227500D01*
X21292500Y-12197500D02*
X21262500Y-12227500D01*
X21662500Y-6197500D02*
X21692500Y-6227500D01*
X21692500Y-6197500D02*
X21662500Y-6227500D01*
X21662500Y-6997500D02*
X21692500Y-7027500D01*
X21692500Y-6997500D02*
X21662500Y-7027500D01*
X21662500Y-7397500D02*
X21692500Y-7427500D01*
X21692500Y-7397500D02*
X21662500Y-7427500D01*
X21662500Y-7797500D02*
X21692500Y-7827500D01*
X21692500Y-7797500D02*
X21662500Y-7827500D01*
X21662500Y-8197500D02*
X21692500Y-8227500D01*
X21692500Y-8197500D02*
X21662500Y-8227500D01*
X21662500Y-9797500D02*
X21692500Y-9827500D01*
X21692500Y-9797500D02*
X21662500Y-9827500D01*
X21662500Y-10197500D02*
X21692500Y-10227500D01*
X21692500Y-10197500D02*
X21662500Y-10227500D01*
X21662500Y-10597500D02*
X21692500Y-10627500D01*
X21692500Y-10597500D02*
X21662500Y-10627500D01*
X21662500Y-10997500D02*
X21692500Y-11027500D01*
X21692500Y-10997500D02*
X21662500Y-11027500D01*
X21662500Y-11397500D02*
X21692500Y-11427500D01*
X21692500Y-11397500D02*
X21662500Y-11427500D01*
X21662500Y-11797500D02*
X21692500Y-11827500D01*
X21692500Y-11797500D02*
X21662500Y-11827500D01*
X21852500Y-6655000D02*
X21882500Y-6685000D01*
X21882500Y-6655000D02*
X21852500Y-6685000D01*
X21965000Y-7052500D02*
X21995000Y-7082500D01*
X21995000Y-7052500D02*
X21965000Y-7082500D01*
X21972500Y-10927500D02*
X22002500Y-10957500D01*
X22002500Y-10927500D02*
X21972500Y-10957500D01*
X22062500Y-7397500D02*
X22092500Y-7427500D01*
X22092500Y-7397500D02*
X22062500Y-7427500D01*
X22062500Y-7797500D02*
X22092500Y-7827500D01*
X22092500Y-7797500D02*
X22062500Y-7827500D01*
X22062500Y-8597500D02*
X22092500Y-8627500D01*
X22092500Y-8597500D02*
X22062500Y-8627500D01*
X22062500Y-10197500D02*
X22092500Y-10227500D01*
X22092500Y-10197500D02*
X22062500Y-10227500D01*
X22062500Y-10597500D02*
X22092500Y-10627500D01*
X22092500Y-10597500D02*
X22062500Y-10627500D01*
X22115000Y-8252500D02*
X22145000Y-8282500D01*
X22145000Y-8252500D02*
X22115000Y-8282500D01*
X22195000Y-8960000D02*
X22225000Y-8990000D01*
X22225000Y-8960000D02*
X22195000Y-8990000D01*
X22205000Y-9397500D02*
X22235000Y-9427500D01*
X22235000Y-9397500D02*
X22205000Y-9427500D01*
X22207500Y-9790000D02*
X22237500Y-9820000D01*
X22237500Y-9790000D02*
X22207500Y-9820000D01*
X11245000Y-4790000D02*
G75*
G02*
X11215000Y-4790000I-15000J0D01*
G01*
X11215000Y-4790000D02*
G75*
G02*
X11245000Y-4790000I15000J0D01*
G01*
X11245000Y-4920000D02*
G75*
G02*
X11215000Y-4920000I-15000J0D01*
G01*
X11215000Y-4920000D02*
G75*
G02*
X11245000Y-4920000I15000J0D01*
G01*
X11375000Y-4790000D02*
G75*
G02*
X11345000Y-4790000I-15000J0D01*
G01*
X11345000Y-4790000D02*
G75*
G02*
X11375000Y-4790000I15000J0D01*
G01*
X11375000Y-4920000D02*
G75*
G02*
X11345000Y-4920000I-15000J0D01*
G01*
X11345000Y-4920000D02*
G75*
G02*
X11375000Y-4920000I15000J0D01*
G01*
X11505000Y-4790000D02*
G75*
G02*
X11475000Y-4790000I-15000J0D01*
G01*
X11475000Y-4790000D02*
G75*
G02*
X11505000Y-4790000I15000J0D01*
G01*
X11505000Y-4920000D02*
G75*
G02*
X11475000Y-4920000I-15000J0D01*
G01*
X11475000Y-4920000D02*
G75*
G02*
X11505000Y-4920000I15000J0D01*
G01*
X11635000Y-4790000D02*
G75*
G02*
X11605000Y-4790000I-15000J0D01*
G01*
X11605000Y-4790000D02*
G75*
G02*
X11635000Y-4790000I15000J0D01*
G01*
X11635000Y-4920000D02*
G75*
G02*
X11605000Y-4920000I-15000J0D01*
G01*
X11605000Y-4920000D02*
G75*
G02*
X11635000Y-4920000I15000J0D01*
G01*
X9486250Y-7397500D02*
X9486250Y-7482500D01*
X9443750Y-7440000D02*
X9528750Y-7440000D01*
X9986250Y-7397500D02*
X9986250Y-7482500D01*
X9943750Y-7440000D02*
X10028750Y-7440000D01*
X8813856Y-6702856D02*
X8813856Y-6632144D01*
X8743144Y-6632144D01*
X8743144Y-6702856D01*
X8813856Y-6702856D01*
X9067856Y-6702856D02*
X9067856Y-6632144D01*
X8997144Y-6632144D01*
X8997144Y-6702856D01*
X9067856Y-6702856D01*
X10971056Y-7204356D02*
X10971056Y-7133644D01*
X10900344Y-7133644D01*
X10900344Y-7204356D01*
X10971056Y-7204356D01*
X10971056Y-7554356D02*
X10971056Y-7483644D01*
X10900344Y-7483644D01*
X10900344Y-7554356D01*
X10971056Y-7554356D01*
X10971056Y-7904356D02*
X10971056Y-7833644D01*
X10900344Y-7833644D01*
X10900344Y-7904356D01*
X10971056Y-7904356D01*
X12355356Y-6665356D02*
X12355356Y-6594644D01*
X12284644Y-6594644D01*
X12284644Y-6665356D01*
X12355356Y-6665356D01*
X12355356Y-6919356D02*
X12355356Y-6848644D01*
X12284644Y-6848644D01*
X12284644Y-6919356D01*
X12355356Y-6919356D01*
X12355356Y-7173356D02*
X12355356Y-7102644D01*
X12284644Y-7102644D01*
X12284644Y-7173356D01*
X12355356Y-7173356D01*
X12355356Y-7427356D02*
X12355356Y-7356644D01*
X12284644Y-7356644D01*
X12284644Y-7427356D01*
X12355356Y-7427356D01*
X12355356Y-7681356D02*
X12355356Y-7610644D01*
X12284644Y-7610644D01*
X12284644Y-7681356D01*
X12355356Y-7681356D01*
X12355356Y-7935356D02*
X12355356Y-7864644D01*
X12284644Y-7864644D01*
X12284644Y-7935356D01*
X12355356Y-7935356D01*
X12355356Y-8189356D02*
X12355356Y-8118644D01*
X12284644Y-8118644D01*
X12284644Y-8189356D01*
X12355356Y-8189356D01*
X12355356Y-8443356D02*
X12355356Y-8372644D01*
X12284644Y-8372644D01*
X12284644Y-8443356D01*
X12355356Y-8443356D01*
X17520356Y-13235106D02*
X17520356Y-13164394D01*
X17449644Y-13164394D01*
X17449644Y-13235106D01*
X17520356Y-13235106D01*
X17532856Y-7371356D02*
X17532856Y-7300644D01*
X17462144Y-7300644D01*
X17462144Y-7371356D01*
X17532856Y-7371356D01*
X17532856Y-7625356D02*
X17532856Y-7554644D01*
X17462144Y-7554644D01*
X17462144Y-7625356D01*
X17532856Y-7625356D01*
X17532856Y-7879356D02*
X17532856Y-7808644D01*
X17462144Y-7808644D01*
X17462144Y-7879356D01*
X17532856Y-7879356D01*
X17532856Y-8133356D02*
X17532856Y-8062644D01*
X17462144Y-8062644D01*
X17462144Y-8133356D01*
X17532856Y-8133356D01*
X17774356Y-13235106D02*
X17774356Y-13164394D01*
X17703644Y-13164394D01*
X17703644Y-13235106D01*
X17774356Y-13235106D01*
X17774356Y-14505106D02*
X17774356Y-14434394D01*
X17703644Y-14434394D01*
X17703644Y-14505106D01*
X17774356Y-14505106D01*
X17870356Y-4001356D02*
X17870356Y-3930644D01*
X17799644Y-3930644D01*
X17799644Y-4001356D01*
X17870356Y-4001356D01*
X17870356Y-4255356D02*
X17870356Y-4184644D01*
X17799644Y-4184644D01*
X17799644Y-4255356D01*
X17870356Y-4255356D01*
X17870356Y-4509356D02*
X17870356Y-4438644D01*
X17799644Y-4438644D01*
X17799644Y-4509356D01*
X17870356Y-4509356D01*
X17870356Y-4763356D02*
X17870356Y-4692644D01*
X17799644Y-4692644D01*
X17799644Y-4763356D01*
X17870356Y-4763356D01*
X17870356Y-5017356D02*
X17870356Y-4946644D01*
X17799644Y-4946644D01*
X17799644Y-5017356D01*
X17870356Y-5017356D01*
X17870356Y-5271356D02*
X17870356Y-5200644D01*
X17799644Y-5200644D01*
X17799644Y-5271356D01*
X17870356Y-5271356D01*
X17870356Y-5525356D02*
X17870356Y-5454644D01*
X17799644Y-5454644D01*
X17799644Y-5525356D01*
X17870356Y-5525356D01*
X18028356Y-13235106D02*
X18028356Y-13164394D01*
X17957644Y-13164394D01*
X17957644Y-13235106D01*
X18028356Y-13235106D01*
X18028356Y-14505106D02*
X18028356Y-14434394D01*
X17957644Y-14434394D01*
X17957644Y-14505106D01*
X18028356Y-14505106D01*
X18124356Y-4001356D02*
X18124356Y-3930644D01*
X18053644Y-3930644D01*
X18053644Y-4001356D01*
X18124356Y-4001356D01*
X18124356Y-4255356D02*
X18124356Y-4184644D01*
X18053644Y-4184644D01*
X18053644Y-4255356D01*
X18124356Y-4255356D01*
X18124356Y-4509356D02*
X18124356Y-4438644D01*
X18053644Y-4438644D01*
X18053644Y-4509356D01*
X18124356Y-4509356D01*
X18124356Y-4763356D02*
X18124356Y-4692644D01*
X18053644Y-4692644D01*
X18053644Y-4763356D01*
X18124356Y-4763356D01*
X18124356Y-5017356D02*
X18124356Y-4946644D01*
X18053644Y-4946644D01*
X18053644Y-5017356D01*
X18124356Y-5017356D01*
X18124356Y-5271356D02*
X18124356Y-5200644D01*
X18053644Y-5200644D01*
X18053644Y-5271356D01*
X18124356Y-5271356D01*
X18124356Y-5525356D02*
X18124356Y-5454644D01*
X18053644Y-5454644D01*
X18053644Y-5525356D01*
X18124356Y-5525356D01*
X18282356Y-13235106D02*
X18282356Y-13164394D01*
X18211644Y-13164394D01*
X18211644Y-13235106D01*
X18282356Y-13235106D01*
X18282356Y-14505106D02*
X18282356Y-14434394D01*
X18211644Y-14434394D01*
X18211644Y-14505106D01*
X18282356Y-14505106D01*
X18536356Y-13235106D02*
X18536356Y-13164394D01*
X18465644Y-13164394D01*
X18465644Y-13235106D01*
X18536356Y-13235106D01*
X18536356Y-14505106D02*
X18536356Y-14434394D01*
X18465644Y-14434394D01*
X18465644Y-14505106D01*
X18536356Y-14505106D01*
X18790356Y-13235106D02*
X18790356Y-13164394D01*
X18719644Y-13164394D01*
X18719644Y-13235106D01*
X18790356Y-13235106D01*
X18790356Y-14505106D02*
X18790356Y-14434394D01*
X18719644Y-14434394D01*
X18719644Y-14505106D01*
X18790356Y-14505106D01*
D13*
X14230000Y-3685000D02*
X14281000Y-3634000D01*
X14230000Y-3583000D01*
X14179000Y-3634000D01*
X14230000Y-3685000D01*
X14230000Y-3939000D02*
X14281000Y-3888000D01*
X14230000Y-3837000D01*
X14179000Y-3888000D01*
X14230000Y-3939000D01*
X14230000Y-4193000D02*
X14281000Y-4142000D01*
X14230000Y-4091000D01*
X14179000Y-4142000D01*
X14230000Y-4193000D01*
X14230000Y-4447000D02*
X14281000Y-4396000D01*
X14230000Y-4345000D01*
X14179000Y-4396000D01*
X14230000Y-4447000D01*
X14230000Y-4701000D02*
X14281000Y-4650000D01*
X14230000Y-4599000D01*
X14179000Y-4650000D01*
X14230000Y-4701000D01*
X14230000Y-4955000D02*
X14281000Y-4904000D01*
X14230000Y-4853000D01*
X14179000Y-4904000D01*
X14230000Y-4955000D01*
X14230000Y-5209000D02*
X14281000Y-5158000D01*
X14230000Y-5107000D01*
X14179000Y-5158000D01*
X14230000Y-5209000D01*
X14230000Y-5463000D02*
X14281000Y-5412000D01*
X14230000Y-5361000D01*
X14179000Y-5412000D01*
X14230000Y-5463000D01*
X14230000Y-5717000D02*
X14281000Y-5666000D01*
X14230000Y-5615000D01*
X14179000Y-5666000D01*
X14230000Y-5717000D01*
X14230000Y-5971000D02*
X14281000Y-5920000D01*
X14230000Y-5869000D01*
X14179000Y-5920000D01*
X14230000Y-5971000D01*
X14230000Y-6225000D02*
X14281000Y-6174000D01*
X14230000Y-6123000D01*
X14179000Y-6174000D01*
X14230000Y-6225000D01*
X14230000Y-6479000D02*
X14281000Y-6428000D01*
X14230000Y-6377000D01*
X14179000Y-6428000D01*
X14230000Y-6479000D01*
X14230000Y-6733000D02*
X14281000Y-6682000D01*
X14230000Y-6631000D01*
X14179000Y-6682000D01*
X14230000Y-6733000D01*
X14230000Y-6987000D02*
X14281000Y-6936000D01*
X14230000Y-6885000D01*
X14179000Y-6936000D01*
X14230000Y-6987000D01*
X14230000Y-7241000D02*
X14281000Y-7190000D01*
X14230000Y-7139000D01*
X14179000Y-7190000D01*
X14230000Y-7241000D01*
X14230000Y-7495000D02*
X14281000Y-7444000D01*
X14230000Y-7393000D01*
X14179000Y-7444000D01*
X14230000Y-7495000D01*
X14230000Y-7749000D02*
X14281000Y-7698000D01*
X14230000Y-7647000D01*
X14179000Y-7698000D01*
X14230000Y-7749000D01*
X14230000Y-8003000D02*
X14281000Y-7952000D01*
X14230000Y-7901000D01*
X14179000Y-7952000D01*
X14230000Y-8003000D01*
X14230000Y-8257000D02*
X14281000Y-8206000D01*
X14230000Y-8155000D01*
X14179000Y-8206000D01*
X14230000Y-8257000D01*
X14230000Y-8511000D02*
X14281000Y-8460000D01*
X14230000Y-8409000D01*
X14179000Y-8460000D01*
X14230000Y-8511000D01*
X14865000Y-3708000D02*
X14916000Y-3657000D01*
X14865000Y-3606000D01*
X14814000Y-3657000D01*
X14865000Y-3708000D01*
X15119000Y-3708000D02*
X15170000Y-3657000D01*
X15119000Y-3606000D01*
X15068000Y-3657000D01*
X15119000Y-3708000D01*
X15373000Y-3708000D02*
X15424000Y-3657000D01*
X15373000Y-3606000D01*
X15322000Y-3657000D01*
X15373000Y-3708000D01*
X16008000Y-3685000D02*
X16059000Y-3634000D01*
X16008000Y-3583000D01*
X15957000Y-3634000D01*
X16008000Y-3685000D01*
X16008000Y-3939000D02*
X16059000Y-3888000D01*
X16008000Y-3837000D01*
X15957000Y-3888000D01*
X16008000Y-3939000D01*
X16008000Y-4193000D02*
X16059000Y-4142000D01*
X16008000Y-4091000D01*
X15957000Y-4142000D01*
X16008000Y-4193000D01*
X16008000Y-4447000D02*
X16059000Y-4396000D01*
X16008000Y-4345000D01*
X15957000Y-4396000D01*
X16008000Y-4447000D01*
X16008000Y-4701000D02*
X16059000Y-4650000D01*
X16008000Y-4599000D01*
X15957000Y-4650000D01*
X16008000Y-4701000D01*
X16008000Y-4955000D02*
X16059000Y-4904000D01*
X16008000Y-4853000D01*
X15957000Y-4904000D01*
X16008000Y-4955000D01*
X16008000Y-5209000D02*
X16059000Y-5158000D01*
X16008000Y-5107000D01*
X15957000Y-5158000D01*
X16008000Y-5209000D01*
X16008000Y-5463000D02*
X16059000Y-5412000D01*
X16008000Y-5361000D01*
X15957000Y-5412000D01*
X16008000Y-5463000D01*
X16008000Y-5717000D02*
X16059000Y-5666000D01*
X16008000Y-5615000D01*
X15957000Y-5666000D01*
X16008000Y-5717000D01*
X16008000Y-5971000D02*
X16059000Y-5920000D01*
X16008000Y-5869000D01*
X15957000Y-5920000D01*
X16008000Y-5971000D01*
X16008000Y-6225000D02*
X16059000Y-6174000D01*
X16008000Y-6123000D01*
X15957000Y-6174000D01*
X16008000Y-6225000D01*
X16008000Y-6479000D02*
X16059000Y-6428000D01*
X16008000Y-6377000D01*
X15957000Y-6428000D01*
X16008000Y-6479000D01*
X16008000Y-6733000D02*
X16059000Y-6682000D01*
X16008000Y-6631000D01*
X15957000Y-6682000D01*
X16008000Y-6733000D01*
X16008000Y-6987000D02*
X16059000Y-6936000D01*
X16008000Y-6885000D01*
X15957000Y-6936000D01*
X16008000Y-6987000D01*
X16008000Y-7241000D02*
X16059000Y-7190000D01*
X16008000Y-7139000D01*
X15957000Y-7190000D01*
X16008000Y-7241000D01*
X16008000Y-7495000D02*
X16059000Y-7444000D01*
X16008000Y-7393000D01*
X15957000Y-7444000D01*
X16008000Y-7495000D01*
X16008000Y-7749000D02*
X16059000Y-7698000D01*
X16008000Y-7647000D01*
X15957000Y-7698000D01*
X16008000Y-7749000D01*
X16008000Y-8003000D02*
X16059000Y-7952000D01*
X16008000Y-7901000D01*
X15957000Y-7952000D01*
X16008000Y-8003000D01*
X16008000Y-8257000D02*
X16059000Y-8206000D01*
X16008000Y-8155000D01*
X15957000Y-8206000D01*
X16008000Y-8257000D01*
X16008000Y-8511000D02*
X16059000Y-8460000D01*
X16008000Y-8409000D01*
X15957000Y-8460000D01*
X16008000Y-8511000D01*
D14*
X10090000Y-11470000D02*
X10240000Y-11620000D01*
X10240000Y-11470000D02*
X10090000Y-11620000D01*
X10240000Y-11545000D02*
G75*
G02*
X10090000Y-11545000I-75000J0D01*
G01*
X10090000Y-11545000D02*
G75*
G02*
X10240000Y-11545000I75000J0D01*
G01*
X10345000Y-11215000D02*
X10495000Y-11365000D01*
X10495000Y-11215000D02*
X10345000Y-11365000D01*
X10495000Y-11290000D02*
G75*
G02*
X10345000Y-11290000I-75000J0D01*
G01*
X10345000Y-11290000D02*
G75*
G02*
X10495000Y-11290000I75000J0D01*
G01*
X10345000Y-11725000D02*
X10495000Y-11875000D01*
X10495000Y-11725000D02*
X10345000Y-11875000D01*
X10495000Y-11800000D02*
G75*
G02*
X10345000Y-11800000I-75000J0D01*
G01*
X10345000Y-11800000D02*
G75*
G02*
X10495000Y-11800000I75000J0D01*
G01*
X11920000Y-13650000D02*
X12070000Y-13800000D01*
X12070000Y-13650000D02*
X11920000Y-13800000D01*
X12070000Y-13725000D02*
G75*
G02*
X11920000Y-13725000I-75000J0D01*
G01*
X11920000Y-13725000D02*
G75*
G02*
X12070000Y-13725000I75000J0D01*
G01*
X12175000Y-13395000D02*
X12325000Y-13545000D01*
X12325000Y-13395000D02*
X12175000Y-13545000D01*
X12325000Y-13470000D02*
G75*
G02*
X12175000Y-13470000I-75000J0D01*
G01*
X12175000Y-13470000D02*
G75*
G02*
X12325000Y-13470000I75000J0D01*
G01*
X12175000Y-13905000D02*
X12325000Y-14055000D01*
X12325000Y-13905000D02*
X12175000Y-14055000D01*
X12325000Y-13980000D02*
G75*
G02*
X12175000Y-13980000I-75000J0D01*
G01*
X12175000Y-13980000D02*
G75*
G02*
X12325000Y-13980000I75000J0D01*
G01*
D15*
X10287500Y-9222500D02*
X10467500Y-9402500D01*
X10467500Y-9222500D02*
X10287500Y-9402500D01*
X10377500Y-9222500D02*
X10377500Y-9402500D01*
X10287500Y-9312500D02*
X10467500Y-9312500D01*
X10287500Y-9722500D02*
X10467500Y-9902500D01*
X10467500Y-9722500D02*
X10287500Y-9902500D01*
X10377500Y-9722500D02*
X10377500Y-9902500D01*
X10287500Y-9812500D02*
X10467500Y-9812500D01*
D11*
X8075777Y-16525201D02*
X8075777Y-16325201D01*
X8075777Y-16325201D02*
X8123396Y-16325201D01*
X8123396Y-16325201D02*
X8151967Y-16334725D01*
X8151967Y-16334725D02*
X8171015Y-16353772D01*
X8171015Y-16353772D02*
X8180539Y-16372820D01*
X8180539Y-16372820D02*
X8190062Y-16410915D01*
X8190062Y-16410915D02*
X8190062Y-16439487D01*
X8190062Y-16439487D02*
X8180539Y-16477582D01*
X8180539Y-16477582D02*
X8171015Y-16496629D01*
X8171015Y-16496629D02*
X8151967Y-16515677D01*
X8151967Y-16515677D02*
X8123396Y-16525201D01*
X8123396Y-16525201D02*
X8075777Y-16525201D01*
X8275777Y-16525201D02*
X8275777Y-16391868D01*
X8275777Y-16429963D02*
X8285301Y-16410915D01*
X8285301Y-16410915D02*
X8294824Y-16401391D01*
X8294824Y-16401391D02*
X8313872Y-16391868D01*
X8313872Y-16391868D02*
X8332920Y-16391868D01*
X8399586Y-16525201D02*
X8399586Y-16391868D01*
X8399586Y-16325201D02*
X8390063Y-16334725D01*
X8390063Y-16334725D02*
X8399586Y-16344249D01*
X8399586Y-16344249D02*
X8409110Y-16334725D01*
X8409110Y-16334725D02*
X8399586Y-16325201D01*
X8399586Y-16325201D02*
X8399586Y-16344249D01*
X8523396Y-16525201D02*
X8504348Y-16515677D01*
X8504348Y-16515677D02*
X8494824Y-16496629D01*
X8494824Y-16496629D02*
X8494824Y-16325201D01*
X8628158Y-16525201D02*
X8609110Y-16515677D01*
X8609110Y-16515677D02*
X8599586Y-16496629D01*
X8599586Y-16496629D02*
X8599586Y-16325201D01*
X8856729Y-16525201D02*
X8856729Y-16325201D01*
X8856729Y-16325201D02*
X8923396Y-16468058D01*
X8923396Y-16468058D02*
X8990063Y-16325201D01*
X8990063Y-16325201D02*
X8990063Y-16525201D01*
X9171015Y-16525201D02*
X9171015Y-16420439D01*
X9171015Y-16420439D02*
X9161491Y-16401391D01*
X9161491Y-16401391D02*
X9142444Y-16391868D01*
X9142444Y-16391868D02*
X9104348Y-16391868D01*
X9104348Y-16391868D02*
X9085301Y-16401391D01*
X9171015Y-16515677D02*
X9151967Y-16525201D01*
X9151967Y-16525201D02*
X9104348Y-16525201D01*
X9104348Y-16525201D02*
X9085301Y-16515677D01*
X9085301Y-16515677D02*
X9075777Y-16496629D01*
X9075777Y-16496629D02*
X9075777Y-16477582D01*
X9075777Y-16477582D02*
X9085301Y-16458534D01*
X9085301Y-16458534D02*
X9104348Y-16449010D01*
X9104348Y-16449010D02*
X9151967Y-16449010D01*
X9151967Y-16449010D02*
X9171015Y-16439487D01*
X9266253Y-16391868D02*
X9266253Y-16591868D01*
X9266253Y-16401391D02*
X9285301Y-16391868D01*
X9285301Y-16391868D02*
X9323396Y-16391868D01*
X9323396Y-16391868D02*
X9342444Y-16401391D01*
X9342444Y-16401391D02*
X9351967Y-16410915D01*
X9351967Y-16410915D02*
X9361491Y-16429963D01*
X9361491Y-16429963D02*
X9361491Y-16487106D01*
X9361491Y-16487106D02*
X9351967Y-16506153D01*
X9351967Y-16506153D02*
X9342444Y-16515677D01*
X9342444Y-16515677D02*
X9323396Y-16525201D01*
X9323396Y-16525201D02*
X9285301Y-16525201D01*
X9285301Y-16525201D02*
X9266253Y-16515677D01*
X9447205Y-16506153D02*
X9456729Y-16515677D01*
X9456729Y-16515677D02*
X9447205Y-16525201D01*
X9447205Y-16525201D02*
X9437682Y-16515677D01*
X9437682Y-16515677D02*
X9447205Y-16506153D01*
X9447205Y-16506153D02*
X9447205Y-16525201D01*
X9447205Y-16401391D02*
X9456729Y-16410915D01*
X9456729Y-16410915D02*
X9447205Y-16420439D01*
X9447205Y-16420439D02*
X9437682Y-16410915D01*
X9437682Y-16410915D02*
X9447205Y-16401391D01*
X9447205Y-16401391D02*
X9447205Y-16420439D01*
D12*
X7785000Y-16838717D02*
X7815000Y-16868717D01*
X7815000Y-16838717D02*
X7785000Y-16868717D01*
D11*
X8113872Y-16745201D02*
X8132920Y-16745201D01*
X8132920Y-16745201D02*
X8151967Y-16754725D01*
X8151967Y-16754725D02*
X8161491Y-16764249D01*
X8161491Y-16764249D02*
X8171015Y-16783296D01*
X8171015Y-16783296D02*
X8180539Y-16821391D01*
X8180539Y-16821391D02*
X8180539Y-16869011D01*
X8180539Y-16869011D02*
X8171015Y-16907106D01*
X8171015Y-16907106D02*
X8161491Y-16926153D01*
X8161491Y-16926153D02*
X8151967Y-16935677D01*
X8151967Y-16935677D02*
X8132920Y-16945201D01*
X8132920Y-16945201D02*
X8113872Y-16945201D01*
X8113872Y-16945201D02*
X8094824Y-16935677D01*
X8094824Y-16935677D02*
X8085301Y-16926153D01*
X8085301Y-16926153D02*
X8075777Y-16907106D01*
X8075777Y-16907106D02*
X8066253Y-16869011D01*
X8066253Y-16869011D02*
X8066253Y-16821391D01*
X8066253Y-16821391D02*
X8075777Y-16783296D01*
X8075777Y-16783296D02*
X8085301Y-16764249D01*
X8085301Y-16764249D02*
X8094824Y-16754725D01*
X8094824Y-16754725D02*
X8113872Y-16745201D01*
X8266253Y-16926153D02*
X8275777Y-16935677D01*
X8275777Y-16935677D02*
X8266253Y-16945201D01*
X8266253Y-16945201D02*
X8256729Y-16935677D01*
X8256729Y-16935677D02*
X8266253Y-16926153D01*
X8266253Y-16926153D02*
X8266253Y-16945201D01*
X8342443Y-16745201D02*
X8466253Y-16745201D01*
X8466253Y-16745201D02*
X8399586Y-16821391D01*
X8399586Y-16821391D02*
X8428158Y-16821391D01*
X8428158Y-16821391D02*
X8447205Y-16830915D01*
X8447205Y-16830915D02*
X8456729Y-16840439D01*
X8456729Y-16840439D02*
X8466253Y-16859487D01*
X8466253Y-16859487D02*
X8466253Y-16907106D01*
X8466253Y-16907106D02*
X8456729Y-16926153D01*
X8456729Y-16926153D02*
X8447205Y-16935677D01*
X8447205Y-16935677D02*
X8428158Y-16945201D01*
X8428158Y-16945201D02*
X8371015Y-16945201D01*
X8371015Y-16945201D02*
X8351967Y-16935677D01*
X8351967Y-16935677D02*
X8342443Y-16926153D01*
X8590063Y-16745201D02*
X8609110Y-16745201D01*
X8609110Y-16745201D02*
X8628158Y-16754725D01*
X8628158Y-16754725D02*
X8637682Y-16764249D01*
X8637682Y-16764249D02*
X8647205Y-16783296D01*
X8647205Y-16783296D02*
X8656729Y-16821391D01*
X8656729Y-16821391D02*
X8656729Y-16869011D01*
X8656729Y-16869011D02*
X8647205Y-16907106D01*
X8647205Y-16907106D02*
X8637682Y-16926153D01*
X8637682Y-16926153D02*
X8628158Y-16935677D01*
X8628158Y-16935677D02*
X8609110Y-16945201D01*
X8609110Y-16945201D02*
X8590063Y-16945201D01*
X8590063Y-16945201D02*
X8571015Y-16935677D01*
X8571015Y-16935677D02*
X8561491Y-16926153D01*
X8561491Y-16926153D02*
X8551967Y-16907106D01*
X8551967Y-16907106D02*
X8542444Y-16869011D01*
X8542444Y-16869011D02*
X8542444Y-16821391D01*
X8542444Y-16821391D02*
X8551967Y-16783296D01*
X8551967Y-16783296D02*
X8561491Y-16764249D01*
X8561491Y-16764249D02*
X8571015Y-16754725D01*
X8571015Y-16754725D02*
X8590063Y-16745201D01*
X8780539Y-16745201D02*
X8799586Y-16745201D01*
X8799586Y-16745201D02*
X8818634Y-16754725D01*
X8818634Y-16754725D02*
X8828158Y-16764249D01*
X8828158Y-16764249D02*
X8837682Y-16783296D01*
X8837682Y-16783296D02*
X8847205Y-16821391D01*
X8847205Y-16821391D02*
X8847205Y-16869011D01*
X8847205Y-16869011D02*
X8837682Y-16907106D01*
X8837682Y-16907106D02*
X8828158Y-16926153D01*
X8828158Y-16926153D02*
X8818634Y-16935677D01*
X8818634Y-16935677D02*
X8799586Y-16945201D01*
X8799586Y-16945201D02*
X8780539Y-16945201D01*
X8780539Y-16945201D02*
X8761491Y-16935677D01*
X8761491Y-16935677D02*
X8751967Y-16926153D01*
X8751967Y-16926153D02*
X8742444Y-16907106D01*
X8742444Y-16907106D02*
X8732920Y-16869011D01*
X8732920Y-16869011D02*
X8732920Y-16821391D01*
X8732920Y-16821391D02*
X8742444Y-16783296D01*
X8742444Y-16783296D02*
X8751967Y-16764249D01*
X8751967Y-16764249D02*
X8761491Y-16754725D01*
X8761491Y-16754725D02*
X8780539Y-16745201D01*
X8932920Y-16945201D02*
X8932920Y-16811868D01*
X8932920Y-16830915D02*
X8942444Y-16821391D01*
X8942444Y-16821391D02*
X8961491Y-16811868D01*
X8961491Y-16811868D02*
X8990063Y-16811868D01*
X8990063Y-16811868D02*
X9009110Y-16821391D01*
X9009110Y-16821391D02*
X9018634Y-16840439D01*
X9018634Y-16840439D02*
X9018634Y-16945201D01*
X9018634Y-16840439D02*
X9028158Y-16821391D01*
X9028158Y-16821391D02*
X9047205Y-16811868D01*
X9047205Y-16811868D02*
X9075777Y-16811868D01*
X9075777Y-16811868D02*
X9094825Y-16821391D01*
X9094825Y-16821391D02*
X9104348Y-16840439D01*
X9104348Y-16840439D02*
X9104348Y-16945201D01*
X9199586Y-16945201D02*
X9199586Y-16811868D01*
X9199586Y-16830915D02*
X9209110Y-16821391D01*
X9209110Y-16821391D02*
X9228158Y-16811868D01*
X9228158Y-16811868D02*
X9256729Y-16811868D01*
X9256729Y-16811868D02*
X9275777Y-16821391D01*
X9275777Y-16821391D02*
X9285301Y-16840439D01*
X9285301Y-16840439D02*
X9285301Y-16945201D01*
X9285301Y-16840439D02*
X9294825Y-16821391D01*
X9294825Y-16821391D02*
X9313872Y-16811868D01*
X9313872Y-16811868D02*
X9342444Y-16811868D01*
X9342444Y-16811868D02*
X9361491Y-16821391D01*
X9361491Y-16821391D02*
X9371015Y-16840439D01*
X9371015Y-16840439D02*
X9371015Y-16945201D01*
X9761491Y-16735677D02*
X9590063Y-16992820D01*
X10018634Y-16745201D02*
X10037682Y-16745201D01*
X10037682Y-16745201D02*
X10056729Y-16754725D01*
X10056729Y-16754725D02*
X10066253Y-16764249D01*
X10066253Y-16764249D02*
X10075777Y-16783296D01*
X10075777Y-16783296D02*
X10085301Y-16821391D01*
X10085301Y-16821391D02*
X10085301Y-16869011D01*
X10085301Y-16869011D02*
X10075777Y-16907106D01*
X10075777Y-16907106D02*
X10066253Y-16926153D01*
X10066253Y-16926153D02*
X10056729Y-16935677D01*
X10056729Y-16935677D02*
X10037682Y-16945201D01*
X10037682Y-16945201D02*
X10018634Y-16945201D01*
X10018634Y-16945201D02*
X9999587Y-16935677D01*
X9999587Y-16935677D02*
X9990063Y-16926153D01*
X9990063Y-16926153D02*
X9980539Y-16907106D01*
X9980539Y-16907106D02*
X9971015Y-16869011D01*
X9971015Y-16869011D02*
X9971015Y-16821391D01*
X9971015Y-16821391D02*
X9980539Y-16783296D01*
X9980539Y-16783296D02*
X9990063Y-16764249D01*
X9990063Y-16764249D02*
X9999587Y-16754725D01*
X9999587Y-16754725D02*
X10018634Y-16745201D01*
X10171015Y-16926153D02*
X10180539Y-16935677D01*
X10180539Y-16935677D02*
X10171015Y-16945201D01*
X10171015Y-16945201D02*
X10161491Y-16935677D01*
X10161491Y-16935677D02*
X10171015Y-16926153D01*
X10171015Y-16926153D02*
X10171015Y-16945201D01*
X10304348Y-16745201D02*
X10323396Y-16745201D01*
X10323396Y-16745201D02*
X10342444Y-16754725D01*
X10342444Y-16754725D02*
X10351968Y-16764249D01*
X10351968Y-16764249D02*
X10361491Y-16783296D01*
X10361491Y-16783296D02*
X10371015Y-16821391D01*
X10371015Y-16821391D02*
X10371015Y-16869011D01*
X10371015Y-16869011D02*
X10361491Y-16907106D01*
X10361491Y-16907106D02*
X10351968Y-16926153D01*
X10351968Y-16926153D02*
X10342444Y-16935677D01*
X10342444Y-16935677D02*
X10323396Y-16945201D01*
X10323396Y-16945201D02*
X10304348Y-16945201D01*
X10304348Y-16945201D02*
X10285301Y-16935677D01*
X10285301Y-16935677D02*
X10275777Y-16926153D01*
X10275777Y-16926153D02*
X10266253Y-16907106D01*
X10266253Y-16907106D02*
X10256729Y-16869011D01*
X10256729Y-16869011D02*
X10256729Y-16821391D01*
X10256729Y-16821391D02*
X10266253Y-16783296D01*
X10266253Y-16783296D02*
X10275777Y-16764249D01*
X10275777Y-16764249D02*
X10285301Y-16754725D01*
X10285301Y-16754725D02*
X10304348Y-16745201D01*
X10561491Y-16945201D02*
X10447206Y-16945201D01*
X10504348Y-16945201D02*
X10504348Y-16745201D01*
X10504348Y-16745201D02*
X10485301Y-16773772D01*
X10485301Y-16773772D02*
X10466253Y-16792820D01*
X10466253Y-16792820D02*
X10447206Y-16802344D01*
X10751968Y-16945201D02*
X10637682Y-16945201D01*
X10694825Y-16945201D02*
X10694825Y-16745201D01*
X10694825Y-16745201D02*
X10675777Y-16773772D01*
X10675777Y-16773772D02*
X10656729Y-16792820D01*
X10656729Y-16792820D02*
X10637682Y-16802344D01*
X10866253Y-16830915D02*
X10847206Y-16821391D01*
X10847206Y-16821391D02*
X10837682Y-16811868D01*
X10837682Y-16811868D02*
X10828158Y-16792820D01*
X10828158Y-16792820D02*
X10828158Y-16783296D01*
X10828158Y-16783296D02*
X10837682Y-16764249D01*
X10837682Y-16764249D02*
X10847206Y-16754725D01*
X10847206Y-16754725D02*
X10866253Y-16745201D01*
X10866253Y-16745201D02*
X10904349Y-16745201D01*
X10904349Y-16745201D02*
X10923396Y-16754725D01*
X10923396Y-16754725D02*
X10932920Y-16764249D01*
X10932920Y-16764249D02*
X10942444Y-16783296D01*
X10942444Y-16783296D02*
X10942444Y-16792820D01*
X10942444Y-16792820D02*
X10932920Y-16811868D01*
X10932920Y-16811868D02*
X10923396Y-16821391D01*
X10923396Y-16821391D02*
X10904349Y-16830915D01*
X10904349Y-16830915D02*
X10866253Y-16830915D01*
X10866253Y-16830915D02*
X10847206Y-16840439D01*
X10847206Y-16840439D02*
X10837682Y-16849963D01*
X10837682Y-16849963D02*
X10828158Y-16869011D01*
X10828158Y-16869011D02*
X10828158Y-16907106D01*
X10828158Y-16907106D02*
X10837682Y-16926153D01*
X10837682Y-16926153D02*
X10847206Y-16935677D01*
X10847206Y-16935677D02*
X10866253Y-16945201D01*
X10866253Y-16945201D02*
X10904349Y-16945201D01*
X10904349Y-16945201D02*
X10923396Y-16935677D01*
X10923396Y-16935677D02*
X10932920Y-16926153D01*
X10932920Y-16926153D02*
X10942444Y-16907106D01*
X10942444Y-16907106D02*
X10942444Y-16869011D01*
X10942444Y-16869011D02*
X10932920Y-16849963D01*
X10932920Y-16849963D02*
X10923396Y-16840439D01*
X10923396Y-16840439D02*
X10904349Y-16830915D01*
X11018634Y-16745201D02*
X11018634Y-16783296D01*
X11094825Y-16745201D02*
X11094825Y-16783296D01*
X11390063Y-17021391D02*
X11380539Y-17011868D01*
X11380539Y-17011868D02*
X11361491Y-16983296D01*
X11361491Y-16983296D02*
X11351968Y-16964249D01*
X11351968Y-16964249D02*
X11342444Y-16935677D01*
X11342444Y-16935677D02*
X11332920Y-16888058D01*
X11332920Y-16888058D02*
X11332920Y-16849963D01*
X11332920Y-16849963D02*
X11342444Y-16802344D01*
X11342444Y-16802344D02*
X11351968Y-16773772D01*
X11351968Y-16773772D02*
X11361491Y-16754725D01*
X11361491Y-16754725D02*
X11380539Y-16726153D01*
X11380539Y-16726153D02*
X11390063Y-16716629D01*
X11551968Y-16811868D02*
X11551968Y-16945201D01*
X11504348Y-16735677D02*
X11456729Y-16878534D01*
X11456729Y-16878534D02*
X11580539Y-16878534D01*
X11647206Y-16764249D02*
X11656729Y-16754725D01*
X11656729Y-16754725D02*
X11675777Y-16745201D01*
X11675777Y-16745201D02*
X11723396Y-16745201D01*
X11723396Y-16745201D02*
X11742444Y-16754725D01*
X11742444Y-16754725D02*
X11751968Y-16764249D01*
X11751968Y-16764249D02*
X11761491Y-16783296D01*
X11761491Y-16783296D02*
X11761491Y-16802344D01*
X11761491Y-16802344D02*
X11751968Y-16830915D01*
X11751968Y-16830915D02*
X11637682Y-16945201D01*
X11637682Y-16945201D02*
X11761491Y-16945201D01*
X11942444Y-16745201D02*
X11847206Y-16745201D01*
X11847206Y-16745201D02*
X11837682Y-16840439D01*
X11837682Y-16840439D02*
X11847206Y-16830915D01*
X11847206Y-16830915D02*
X11866253Y-16821391D01*
X11866253Y-16821391D02*
X11913872Y-16821391D01*
X11913872Y-16821391D02*
X11932920Y-16830915D01*
X11932920Y-16830915D02*
X11942444Y-16840439D01*
X11942444Y-16840439D02*
X11951968Y-16859487D01*
X11951968Y-16859487D02*
X11951968Y-16907106D01*
X11951968Y-16907106D02*
X11942444Y-16926153D01*
X11942444Y-16926153D02*
X11932920Y-16935677D01*
X11932920Y-16935677D02*
X11913872Y-16945201D01*
X11913872Y-16945201D02*
X11866253Y-16945201D01*
X11866253Y-16945201D02*
X11847206Y-16935677D01*
X11847206Y-16935677D02*
X11837682Y-16926153D01*
X12190063Y-16945201D02*
X12190063Y-16745201D01*
X12275777Y-16945201D02*
X12275777Y-16840439D01*
X12275777Y-16840439D02*
X12266253Y-16821391D01*
X12266253Y-16821391D02*
X12247206Y-16811868D01*
X12247206Y-16811868D02*
X12218634Y-16811868D01*
X12218634Y-16811868D02*
X12199587Y-16821391D01*
X12199587Y-16821391D02*
X12190063Y-16830915D01*
X12399587Y-16945201D02*
X12380539Y-16935677D01*
X12380539Y-16935677D02*
X12371015Y-16926153D01*
X12371015Y-16926153D02*
X12361491Y-16907106D01*
X12361491Y-16907106D02*
X12361491Y-16849963D01*
X12361491Y-16849963D02*
X12371015Y-16830915D01*
X12371015Y-16830915D02*
X12380539Y-16821391D01*
X12380539Y-16821391D02*
X12399587Y-16811868D01*
X12399587Y-16811868D02*
X12428158Y-16811868D01*
X12428158Y-16811868D02*
X12447206Y-16821391D01*
X12447206Y-16821391D02*
X12456730Y-16830915D01*
X12456730Y-16830915D02*
X12466253Y-16849963D01*
X12466253Y-16849963D02*
X12466253Y-16907106D01*
X12466253Y-16907106D02*
X12456730Y-16926153D01*
X12456730Y-16926153D02*
X12447206Y-16935677D01*
X12447206Y-16935677D02*
X12428158Y-16945201D01*
X12428158Y-16945201D02*
X12399587Y-16945201D01*
X12580539Y-16945201D02*
X12561491Y-16935677D01*
X12561491Y-16935677D02*
X12551968Y-16916630D01*
X12551968Y-16916630D02*
X12551968Y-16745201D01*
X12732920Y-16935677D02*
X12713872Y-16945201D01*
X12713872Y-16945201D02*
X12675777Y-16945201D01*
X12675777Y-16945201D02*
X12656730Y-16935677D01*
X12656730Y-16935677D02*
X12647206Y-16916630D01*
X12647206Y-16916630D02*
X12647206Y-16840439D01*
X12647206Y-16840439D02*
X12656730Y-16821391D01*
X12656730Y-16821391D02*
X12675777Y-16811868D01*
X12675777Y-16811868D02*
X12713872Y-16811868D01*
X12713872Y-16811868D02*
X12732920Y-16821391D01*
X12732920Y-16821391D02*
X12742444Y-16840439D01*
X12742444Y-16840439D02*
X12742444Y-16859487D01*
X12742444Y-16859487D02*
X12647206Y-16878534D01*
X12818634Y-16935677D02*
X12837682Y-16945201D01*
X12837682Y-16945201D02*
X12875777Y-16945201D01*
X12875777Y-16945201D02*
X12894825Y-16935677D01*
X12894825Y-16935677D02*
X12904349Y-16916630D01*
X12904349Y-16916630D02*
X12904349Y-16907106D01*
X12904349Y-16907106D02*
X12894825Y-16888058D01*
X12894825Y-16888058D02*
X12875777Y-16878534D01*
X12875777Y-16878534D02*
X12847206Y-16878534D01*
X12847206Y-16878534D02*
X12828158Y-16869011D01*
X12828158Y-16869011D02*
X12818634Y-16849963D01*
X12818634Y-16849963D02*
X12818634Y-16840439D01*
X12818634Y-16840439D02*
X12828158Y-16821391D01*
X12828158Y-16821391D02*
X12847206Y-16811868D01*
X12847206Y-16811868D02*
X12875777Y-16811868D01*
X12875777Y-16811868D02*
X12894825Y-16821391D01*
X12971015Y-17021391D02*
X12980539Y-17011868D01*
X12980539Y-17011868D02*
X12999587Y-16983296D01*
X12999587Y-16983296D02*
X13009111Y-16964249D01*
X13009111Y-16964249D02*
X13018634Y-16935677D01*
X13018634Y-16935677D02*
X13028158Y-16888058D01*
X13028158Y-16888058D02*
X13028158Y-16849963D01*
X13028158Y-16849963D02*
X13018634Y-16802344D01*
X13018634Y-16802344D02*
X13009111Y-16773772D01*
X13009111Y-16773772D02*
X12999587Y-16754725D01*
X12999587Y-16754725D02*
X12980539Y-16726153D01*
X12980539Y-16726153D02*
X12971015Y-16716629D01*
D12*
X7815000Y-17117717D02*
G75*
G02*
X7785000Y-17117717I-15000J0D01*
G01*
X7785000Y-17117717D02*
G75*
G02*
X7815000Y-17117717I15000J0D01*
G01*
D11*
X8113872Y-17009201D02*
X8132920Y-17009201D01*
X8132920Y-17009201D02*
X8151967Y-17018725D01*
X8151967Y-17018725D02*
X8161491Y-17028249D01*
X8161491Y-17028249D02*
X8171015Y-17047296D01*
X8171015Y-17047296D02*
X8180539Y-17085391D01*
X8180539Y-17085391D02*
X8180539Y-17133011D01*
X8180539Y-17133011D02*
X8171015Y-17171106D01*
X8171015Y-17171106D02*
X8161491Y-17190153D01*
X8161491Y-17190153D02*
X8151967Y-17199677D01*
X8151967Y-17199677D02*
X8132920Y-17209201D01*
X8132920Y-17209201D02*
X8113872Y-17209201D01*
X8113872Y-17209201D02*
X8094824Y-17199677D01*
X8094824Y-17199677D02*
X8085301Y-17190153D01*
X8085301Y-17190153D02*
X8075777Y-17171106D01*
X8075777Y-17171106D02*
X8066253Y-17133011D01*
X8066253Y-17133011D02*
X8066253Y-17085391D01*
X8066253Y-17085391D02*
X8075777Y-17047296D01*
X8075777Y-17047296D02*
X8085301Y-17028249D01*
X8085301Y-17028249D02*
X8094824Y-17018725D01*
X8094824Y-17018725D02*
X8113872Y-17009201D01*
X8266253Y-17190153D02*
X8275777Y-17199677D01*
X8275777Y-17199677D02*
X8266253Y-17209201D01*
X8266253Y-17209201D02*
X8256729Y-17199677D01*
X8256729Y-17199677D02*
X8266253Y-17190153D01*
X8266253Y-17190153D02*
X8266253Y-17209201D01*
X8342443Y-17009201D02*
X8466253Y-17009201D01*
X8466253Y-17009201D02*
X8399586Y-17085391D01*
X8399586Y-17085391D02*
X8428158Y-17085391D01*
X8428158Y-17085391D02*
X8447205Y-17094915D01*
X8447205Y-17094915D02*
X8456729Y-17104439D01*
X8456729Y-17104439D02*
X8466253Y-17123487D01*
X8466253Y-17123487D02*
X8466253Y-17171106D01*
X8466253Y-17171106D02*
X8456729Y-17190153D01*
X8456729Y-17190153D02*
X8447205Y-17199677D01*
X8447205Y-17199677D02*
X8428158Y-17209201D01*
X8428158Y-17209201D02*
X8371015Y-17209201D01*
X8371015Y-17209201D02*
X8351967Y-17199677D01*
X8351967Y-17199677D02*
X8342443Y-17190153D01*
X8590063Y-17009201D02*
X8609110Y-17009201D01*
X8609110Y-17009201D02*
X8628158Y-17018725D01*
X8628158Y-17018725D02*
X8637682Y-17028249D01*
X8637682Y-17028249D02*
X8647205Y-17047296D01*
X8647205Y-17047296D02*
X8656729Y-17085391D01*
X8656729Y-17085391D02*
X8656729Y-17133011D01*
X8656729Y-17133011D02*
X8647205Y-17171106D01*
X8647205Y-17171106D02*
X8637682Y-17190153D01*
X8637682Y-17190153D02*
X8628158Y-17199677D01*
X8628158Y-17199677D02*
X8609110Y-17209201D01*
X8609110Y-17209201D02*
X8590063Y-17209201D01*
X8590063Y-17209201D02*
X8571015Y-17199677D01*
X8571015Y-17199677D02*
X8561491Y-17190153D01*
X8561491Y-17190153D02*
X8551967Y-17171106D01*
X8551967Y-17171106D02*
X8542444Y-17133011D01*
X8542444Y-17133011D02*
X8542444Y-17085391D01*
X8542444Y-17085391D02*
X8551967Y-17047296D01*
X8551967Y-17047296D02*
X8561491Y-17028249D01*
X8561491Y-17028249D02*
X8571015Y-17018725D01*
X8571015Y-17018725D02*
X8590063Y-17009201D01*
X8780539Y-17009201D02*
X8799586Y-17009201D01*
X8799586Y-17009201D02*
X8818634Y-17018725D01*
X8818634Y-17018725D02*
X8828158Y-17028249D01*
X8828158Y-17028249D02*
X8837682Y-17047296D01*
X8837682Y-17047296D02*
X8847205Y-17085391D01*
X8847205Y-17085391D02*
X8847205Y-17133011D01*
X8847205Y-17133011D02*
X8837682Y-17171106D01*
X8837682Y-17171106D02*
X8828158Y-17190153D01*
X8828158Y-17190153D02*
X8818634Y-17199677D01*
X8818634Y-17199677D02*
X8799586Y-17209201D01*
X8799586Y-17209201D02*
X8780539Y-17209201D01*
X8780539Y-17209201D02*
X8761491Y-17199677D01*
X8761491Y-17199677D02*
X8751967Y-17190153D01*
X8751967Y-17190153D02*
X8742444Y-17171106D01*
X8742444Y-17171106D02*
X8732920Y-17133011D01*
X8732920Y-17133011D02*
X8732920Y-17085391D01*
X8732920Y-17085391D02*
X8742444Y-17047296D01*
X8742444Y-17047296D02*
X8751967Y-17028249D01*
X8751967Y-17028249D02*
X8761491Y-17018725D01*
X8761491Y-17018725D02*
X8780539Y-17009201D01*
X8932920Y-17209201D02*
X8932920Y-17075868D01*
X8932920Y-17094915D02*
X8942444Y-17085391D01*
X8942444Y-17085391D02*
X8961491Y-17075868D01*
X8961491Y-17075868D02*
X8990063Y-17075868D01*
X8990063Y-17075868D02*
X9009110Y-17085391D01*
X9009110Y-17085391D02*
X9018634Y-17104439D01*
X9018634Y-17104439D02*
X9018634Y-17209201D01*
X9018634Y-17104439D02*
X9028158Y-17085391D01*
X9028158Y-17085391D02*
X9047205Y-17075868D01*
X9047205Y-17075868D02*
X9075777Y-17075868D01*
X9075777Y-17075868D02*
X9094825Y-17085391D01*
X9094825Y-17085391D02*
X9104348Y-17104439D01*
X9104348Y-17104439D02*
X9104348Y-17209201D01*
X9199586Y-17209201D02*
X9199586Y-17075868D01*
X9199586Y-17094915D02*
X9209110Y-17085391D01*
X9209110Y-17085391D02*
X9228158Y-17075868D01*
X9228158Y-17075868D02*
X9256729Y-17075868D01*
X9256729Y-17075868D02*
X9275777Y-17085391D01*
X9275777Y-17085391D02*
X9285301Y-17104439D01*
X9285301Y-17104439D02*
X9285301Y-17209201D01*
X9285301Y-17104439D02*
X9294825Y-17085391D01*
X9294825Y-17085391D02*
X9313872Y-17075868D01*
X9313872Y-17075868D02*
X9342444Y-17075868D01*
X9342444Y-17075868D02*
X9361491Y-17085391D01*
X9361491Y-17085391D02*
X9371015Y-17104439D01*
X9371015Y-17104439D02*
X9371015Y-17209201D01*
X9761491Y-16999677D02*
X9590063Y-17256820D01*
X10018634Y-17009201D02*
X10037682Y-17009201D01*
X10037682Y-17009201D02*
X10056729Y-17018725D01*
X10056729Y-17018725D02*
X10066253Y-17028249D01*
X10066253Y-17028249D02*
X10075777Y-17047296D01*
X10075777Y-17047296D02*
X10085301Y-17085391D01*
X10085301Y-17085391D02*
X10085301Y-17133011D01*
X10085301Y-17133011D02*
X10075777Y-17171106D01*
X10075777Y-17171106D02*
X10066253Y-17190153D01*
X10066253Y-17190153D02*
X10056729Y-17199677D01*
X10056729Y-17199677D02*
X10037682Y-17209201D01*
X10037682Y-17209201D02*
X10018634Y-17209201D01*
X10018634Y-17209201D02*
X9999587Y-17199677D01*
X9999587Y-17199677D02*
X9990063Y-17190153D01*
X9990063Y-17190153D02*
X9980539Y-17171106D01*
X9980539Y-17171106D02*
X9971015Y-17133011D01*
X9971015Y-17133011D02*
X9971015Y-17085391D01*
X9971015Y-17085391D02*
X9980539Y-17047296D01*
X9980539Y-17047296D02*
X9990063Y-17028249D01*
X9990063Y-17028249D02*
X9999587Y-17018725D01*
X9999587Y-17018725D02*
X10018634Y-17009201D01*
X10171015Y-17190153D02*
X10180539Y-17199677D01*
X10180539Y-17199677D02*
X10171015Y-17209201D01*
X10171015Y-17209201D02*
X10161491Y-17199677D01*
X10161491Y-17199677D02*
X10171015Y-17190153D01*
X10171015Y-17190153D02*
X10171015Y-17209201D01*
X10304348Y-17009201D02*
X10323396Y-17009201D01*
X10323396Y-17009201D02*
X10342444Y-17018725D01*
X10342444Y-17018725D02*
X10351968Y-17028249D01*
X10351968Y-17028249D02*
X10361491Y-17047296D01*
X10361491Y-17047296D02*
X10371015Y-17085391D01*
X10371015Y-17085391D02*
X10371015Y-17133011D01*
X10371015Y-17133011D02*
X10361491Y-17171106D01*
X10361491Y-17171106D02*
X10351968Y-17190153D01*
X10351968Y-17190153D02*
X10342444Y-17199677D01*
X10342444Y-17199677D02*
X10323396Y-17209201D01*
X10323396Y-17209201D02*
X10304348Y-17209201D01*
X10304348Y-17209201D02*
X10285301Y-17199677D01*
X10285301Y-17199677D02*
X10275777Y-17190153D01*
X10275777Y-17190153D02*
X10266253Y-17171106D01*
X10266253Y-17171106D02*
X10256729Y-17133011D01*
X10256729Y-17133011D02*
X10256729Y-17085391D01*
X10256729Y-17085391D02*
X10266253Y-17047296D01*
X10266253Y-17047296D02*
X10275777Y-17028249D01*
X10275777Y-17028249D02*
X10285301Y-17018725D01*
X10285301Y-17018725D02*
X10304348Y-17009201D01*
X10561491Y-17209201D02*
X10447206Y-17209201D01*
X10504348Y-17209201D02*
X10504348Y-17009201D01*
X10504348Y-17009201D02*
X10485301Y-17037772D01*
X10485301Y-17037772D02*
X10466253Y-17056820D01*
X10466253Y-17056820D02*
X10447206Y-17066344D01*
X10751968Y-17209201D02*
X10637682Y-17209201D01*
X10694825Y-17209201D02*
X10694825Y-17009201D01*
X10694825Y-17009201D02*
X10675777Y-17037772D01*
X10675777Y-17037772D02*
X10656729Y-17056820D01*
X10656729Y-17056820D02*
X10637682Y-17066344D01*
X10866253Y-17094915D02*
X10847206Y-17085391D01*
X10847206Y-17085391D02*
X10837682Y-17075868D01*
X10837682Y-17075868D02*
X10828158Y-17056820D01*
X10828158Y-17056820D02*
X10828158Y-17047296D01*
X10828158Y-17047296D02*
X10837682Y-17028249D01*
X10837682Y-17028249D02*
X10847206Y-17018725D01*
X10847206Y-17018725D02*
X10866253Y-17009201D01*
X10866253Y-17009201D02*
X10904349Y-17009201D01*
X10904349Y-17009201D02*
X10923396Y-17018725D01*
X10923396Y-17018725D02*
X10932920Y-17028249D01*
X10932920Y-17028249D02*
X10942444Y-17047296D01*
X10942444Y-17047296D02*
X10942444Y-17056820D01*
X10942444Y-17056820D02*
X10932920Y-17075868D01*
X10932920Y-17075868D02*
X10923396Y-17085391D01*
X10923396Y-17085391D02*
X10904349Y-17094915D01*
X10904349Y-17094915D02*
X10866253Y-17094915D01*
X10866253Y-17094915D02*
X10847206Y-17104439D01*
X10847206Y-17104439D02*
X10837682Y-17113963D01*
X10837682Y-17113963D02*
X10828158Y-17133011D01*
X10828158Y-17133011D02*
X10828158Y-17171106D01*
X10828158Y-17171106D02*
X10837682Y-17190153D01*
X10837682Y-17190153D02*
X10847206Y-17199677D01*
X10847206Y-17199677D02*
X10866253Y-17209201D01*
X10866253Y-17209201D02*
X10904349Y-17209201D01*
X10904349Y-17209201D02*
X10923396Y-17199677D01*
X10923396Y-17199677D02*
X10932920Y-17190153D01*
X10932920Y-17190153D02*
X10942444Y-17171106D01*
X10942444Y-17171106D02*
X10942444Y-17133011D01*
X10942444Y-17133011D02*
X10932920Y-17113963D01*
X10932920Y-17113963D02*
X10923396Y-17104439D01*
X10923396Y-17104439D02*
X10904349Y-17094915D01*
X11018634Y-17009201D02*
X11018634Y-17047296D01*
X11094825Y-17009201D02*
X11094825Y-17047296D01*
X11390063Y-17285391D02*
X11380539Y-17275868D01*
X11380539Y-17275868D02*
X11361491Y-17247296D01*
X11361491Y-17247296D02*
X11351968Y-17228249D01*
X11351968Y-17228249D02*
X11342444Y-17199677D01*
X11342444Y-17199677D02*
X11332920Y-17152058D01*
X11332920Y-17152058D02*
X11332920Y-17113963D01*
X11332920Y-17113963D02*
X11342444Y-17066344D01*
X11342444Y-17066344D02*
X11351968Y-17037772D01*
X11351968Y-17037772D02*
X11361491Y-17018725D01*
X11361491Y-17018725D02*
X11380539Y-16990153D01*
X11380539Y-16990153D02*
X11390063Y-16980630D01*
X11494825Y-17094915D02*
X11475777Y-17085391D01*
X11475777Y-17085391D02*
X11466253Y-17075868D01*
X11466253Y-17075868D02*
X11456729Y-17056820D01*
X11456729Y-17056820D02*
X11456729Y-17047296D01*
X11456729Y-17047296D02*
X11466253Y-17028249D01*
X11466253Y-17028249D02*
X11475777Y-17018725D01*
X11475777Y-17018725D02*
X11494825Y-17009201D01*
X11494825Y-17009201D02*
X11532920Y-17009201D01*
X11532920Y-17009201D02*
X11551968Y-17018725D01*
X11551968Y-17018725D02*
X11561491Y-17028249D01*
X11561491Y-17028249D02*
X11571015Y-17047296D01*
X11571015Y-17047296D02*
X11571015Y-17056820D01*
X11571015Y-17056820D02*
X11561491Y-17075868D01*
X11561491Y-17075868D02*
X11551968Y-17085391D01*
X11551968Y-17085391D02*
X11532920Y-17094915D01*
X11532920Y-17094915D02*
X11494825Y-17094915D01*
X11494825Y-17094915D02*
X11475777Y-17104439D01*
X11475777Y-17104439D02*
X11466253Y-17113963D01*
X11466253Y-17113963D02*
X11456729Y-17133011D01*
X11456729Y-17133011D02*
X11456729Y-17171106D01*
X11456729Y-17171106D02*
X11466253Y-17190153D01*
X11466253Y-17190153D02*
X11475777Y-17199677D01*
X11475777Y-17199677D02*
X11494825Y-17209201D01*
X11494825Y-17209201D02*
X11532920Y-17209201D01*
X11532920Y-17209201D02*
X11551968Y-17199677D01*
X11551968Y-17199677D02*
X11561491Y-17190153D01*
X11561491Y-17190153D02*
X11571015Y-17171106D01*
X11571015Y-17171106D02*
X11571015Y-17133011D01*
X11571015Y-17133011D02*
X11561491Y-17113963D01*
X11561491Y-17113963D02*
X11551968Y-17104439D01*
X11551968Y-17104439D02*
X11532920Y-17094915D01*
X11809110Y-17209201D02*
X11809110Y-17009201D01*
X11894825Y-17209201D02*
X11894825Y-17104439D01*
X11894825Y-17104439D02*
X11885301Y-17085391D01*
X11885301Y-17085391D02*
X11866253Y-17075868D01*
X11866253Y-17075868D02*
X11837682Y-17075868D01*
X11837682Y-17075868D02*
X11818634Y-17085391D01*
X11818634Y-17085391D02*
X11809110Y-17094915D01*
X12018634Y-17209201D02*
X11999587Y-17199677D01*
X11999587Y-17199677D02*
X11990063Y-17190153D01*
X11990063Y-17190153D02*
X11980539Y-17171106D01*
X11980539Y-17171106D02*
X11980539Y-17113963D01*
X11980539Y-17113963D02*
X11990063Y-17094915D01*
X11990063Y-17094915D02*
X11999587Y-17085391D01*
X11999587Y-17085391D02*
X12018634Y-17075868D01*
X12018634Y-17075868D02*
X12047206Y-17075868D01*
X12047206Y-17075868D02*
X12066253Y-17085391D01*
X12066253Y-17085391D02*
X12075777Y-17094915D01*
X12075777Y-17094915D02*
X12085301Y-17113963D01*
X12085301Y-17113963D02*
X12085301Y-17171106D01*
X12085301Y-17171106D02*
X12075777Y-17190153D01*
X12075777Y-17190153D02*
X12066253Y-17199677D01*
X12066253Y-17199677D02*
X12047206Y-17209201D01*
X12047206Y-17209201D02*
X12018634Y-17209201D01*
X12199587Y-17209201D02*
X12180539Y-17199677D01*
X12180539Y-17199677D02*
X12171015Y-17180630D01*
X12171015Y-17180630D02*
X12171015Y-17009201D01*
X12351968Y-17199677D02*
X12332920Y-17209201D01*
X12332920Y-17209201D02*
X12294825Y-17209201D01*
X12294825Y-17209201D02*
X12275777Y-17199677D01*
X12275777Y-17199677D02*
X12266253Y-17180630D01*
X12266253Y-17180630D02*
X12266253Y-17104439D01*
X12266253Y-17104439D02*
X12275777Y-17085391D01*
X12275777Y-17085391D02*
X12294825Y-17075868D01*
X12294825Y-17075868D02*
X12332920Y-17075868D01*
X12332920Y-17075868D02*
X12351968Y-17085391D01*
X12351968Y-17085391D02*
X12361491Y-17104439D01*
X12361491Y-17104439D02*
X12361491Y-17123487D01*
X12361491Y-17123487D02*
X12266253Y-17142534D01*
X12437682Y-17199677D02*
X12456730Y-17209201D01*
X12456730Y-17209201D02*
X12494825Y-17209201D01*
X12494825Y-17209201D02*
X12513872Y-17199677D01*
X12513872Y-17199677D02*
X12523396Y-17180630D01*
X12523396Y-17180630D02*
X12523396Y-17171106D01*
X12523396Y-17171106D02*
X12513872Y-17152058D01*
X12513872Y-17152058D02*
X12494825Y-17142534D01*
X12494825Y-17142534D02*
X12466253Y-17142534D01*
X12466253Y-17142534D02*
X12447206Y-17133011D01*
X12447206Y-17133011D02*
X12437682Y-17113963D01*
X12437682Y-17113963D02*
X12437682Y-17104439D01*
X12437682Y-17104439D02*
X12447206Y-17085391D01*
X12447206Y-17085391D02*
X12466253Y-17075868D01*
X12466253Y-17075868D02*
X12494825Y-17075868D01*
X12494825Y-17075868D02*
X12513872Y-17085391D01*
X12590063Y-17285391D02*
X12599587Y-17275868D01*
X12599587Y-17275868D02*
X12618634Y-17247296D01*
X12618634Y-17247296D02*
X12628158Y-17228249D01*
X12628158Y-17228249D02*
X12637682Y-17199677D01*
X12637682Y-17199677D02*
X12647206Y-17152058D01*
X12647206Y-17152058D02*
X12647206Y-17113963D01*
X12647206Y-17113963D02*
X12637682Y-17066344D01*
X12637682Y-17066344D02*
X12628158Y-17037772D01*
X12628158Y-17037772D02*
X12618634Y-17018725D01*
X12618634Y-17018725D02*
X12599587Y-16990153D01*
X12599587Y-16990153D02*
X12590063Y-16980630D01*
D12*
X7772500Y-17339217D02*
X7772500Y-17424217D01*
X7730000Y-17381717D02*
X7815000Y-17381717D01*
D11*
X8113872Y-17273201D02*
X8132920Y-17273201D01*
X8132920Y-17273201D02*
X8151967Y-17282725D01*
X8151967Y-17282725D02*
X8161491Y-17292249D01*
X8161491Y-17292249D02*
X8171015Y-17311296D01*
X8171015Y-17311296D02*
X8180539Y-17349391D01*
X8180539Y-17349391D02*
X8180539Y-17397011D01*
X8180539Y-17397011D02*
X8171015Y-17435106D01*
X8171015Y-17435106D02*
X8161491Y-17454153D01*
X8161491Y-17454153D02*
X8151967Y-17463677D01*
X8151967Y-17463677D02*
X8132920Y-17473201D01*
X8132920Y-17473201D02*
X8113872Y-17473201D01*
X8113872Y-17473201D02*
X8094824Y-17463677D01*
X8094824Y-17463677D02*
X8085301Y-17454153D01*
X8085301Y-17454153D02*
X8075777Y-17435106D01*
X8075777Y-17435106D02*
X8066253Y-17397011D01*
X8066253Y-17397011D02*
X8066253Y-17349391D01*
X8066253Y-17349391D02*
X8075777Y-17311296D01*
X8075777Y-17311296D02*
X8085301Y-17292249D01*
X8085301Y-17292249D02*
X8094824Y-17282725D01*
X8094824Y-17282725D02*
X8113872Y-17273201D01*
X8266253Y-17454153D02*
X8275777Y-17463677D01*
X8275777Y-17463677D02*
X8266253Y-17473201D01*
X8266253Y-17473201D02*
X8256729Y-17463677D01*
X8256729Y-17463677D02*
X8266253Y-17454153D01*
X8266253Y-17454153D02*
X8266253Y-17473201D01*
X8390063Y-17358915D02*
X8371015Y-17349391D01*
X8371015Y-17349391D02*
X8361491Y-17339868D01*
X8361491Y-17339868D02*
X8351967Y-17320820D01*
X8351967Y-17320820D02*
X8351967Y-17311296D01*
X8351967Y-17311296D02*
X8361491Y-17292249D01*
X8361491Y-17292249D02*
X8371015Y-17282725D01*
X8371015Y-17282725D02*
X8390063Y-17273201D01*
X8390063Y-17273201D02*
X8428158Y-17273201D01*
X8428158Y-17273201D02*
X8447205Y-17282725D01*
X8447205Y-17282725D02*
X8456729Y-17292249D01*
X8456729Y-17292249D02*
X8466253Y-17311296D01*
X8466253Y-17311296D02*
X8466253Y-17320820D01*
X8466253Y-17320820D02*
X8456729Y-17339868D01*
X8456729Y-17339868D02*
X8447205Y-17349391D01*
X8447205Y-17349391D02*
X8428158Y-17358915D01*
X8428158Y-17358915D02*
X8390063Y-17358915D01*
X8390063Y-17358915D02*
X8371015Y-17368439D01*
X8371015Y-17368439D02*
X8361491Y-17377963D01*
X8361491Y-17377963D02*
X8351967Y-17397011D01*
X8351967Y-17397011D02*
X8351967Y-17435106D01*
X8351967Y-17435106D02*
X8361491Y-17454153D01*
X8361491Y-17454153D02*
X8371015Y-17463677D01*
X8371015Y-17463677D02*
X8390063Y-17473201D01*
X8390063Y-17473201D02*
X8428158Y-17473201D01*
X8428158Y-17473201D02*
X8447205Y-17463677D01*
X8447205Y-17463677D02*
X8456729Y-17454153D01*
X8456729Y-17454153D02*
X8466253Y-17435106D01*
X8466253Y-17435106D02*
X8466253Y-17397011D01*
X8466253Y-17397011D02*
X8456729Y-17377963D01*
X8456729Y-17377963D02*
X8447205Y-17368439D01*
X8447205Y-17368439D02*
X8428158Y-17358915D01*
X8647205Y-17273201D02*
X8551967Y-17273201D01*
X8551967Y-17273201D02*
X8542444Y-17368439D01*
X8542444Y-17368439D02*
X8551967Y-17358915D01*
X8551967Y-17358915D02*
X8571015Y-17349391D01*
X8571015Y-17349391D02*
X8618634Y-17349391D01*
X8618634Y-17349391D02*
X8637682Y-17358915D01*
X8637682Y-17358915D02*
X8647205Y-17368439D01*
X8647205Y-17368439D02*
X8656729Y-17387487D01*
X8656729Y-17387487D02*
X8656729Y-17435106D01*
X8656729Y-17435106D02*
X8647205Y-17454153D01*
X8647205Y-17454153D02*
X8637682Y-17463677D01*
X8637682Y-17463677D02*
X8618634Y-17473201D01*
X8618634Y-17473201D02*
X8571015Y-17473201D01*
X8571015Y-17473201D02*
X8551967Y-17463677D01*
X8551967Y-17463677D02*
X8542444Y-17454153D01*
X8780539Y-17273201D02*
X8799586Y-17273201D01*
X8799586Y-17273201D02*
X8818634Y-17282725D01*
X8818634Y-17282725D02*
X8828158Y-17292249D01*
X8828158Y-17292249D02*
X8837682Y-17311296D01*
X8837682Y-17311296D02*
X8847205Y-17349391D01*
X8847205Y-17349391D02*
X8847205Y-17397011D01*
X8847205Y-17397011D02*
X8837682Y-17435106D01*
X8837682Y-17435106D02*
X8828158Y-17454153D01*
X8828158Y-17454153D02*
X8818634Y-17463677D01*
X8818634Y-17463677D02*
X8799586Y-17473201D01*
X8799586Y-17473201D02*
X8780539Y-17473201D01*
X8780539Y-17473201D02*
X8761491Y-17463677D01*
X8761491Y-17463677D02*
X8751967Y-17454153D01*
X8751967Y-17454153D02*
X8742444Y-17435106D01*
X8742444Y-17435106D02*
X8732920Y-17397011D01*
X8732920Y-17397011D02*
X8732920Y-17349391D01*
X8732920Y-17349391D02*
X8742444Y-17311296D01*
X8742444Y-17311296D02*
X8751967Y-17292249D01*
X8751967Y-17292249D02*
X8761491Y-17282725D01*
X8761491Y-17282725D02*
X8780539Y-17273201D01*
X8932920Y-17473201D02*
X8932920Y-17339868D01*
X8932920Y-17358915D02*
X8942444Y-17349391D01*
X8942444Y-17349391D02*
X8961491Y-17339868D01*
X8961491Y-17339868D02*
X8990063Y-17339868D01*
X8990063Y-17339868D02*
X9009110Y-17349391D01*
X9009110Y-17349391D02*
X9018634Y-17368439D01*
X9018634Y-17368439D02*
X9018634Y-17473201D01*
X9018634Y-17368439D02*
X9028158Y-17349391D01*
X9028158Y-17349391D02*
X9047205Y-17339868D01*
X9047205Y-17339868D02*
X9075777Y-17339868D01*
X9075777Y-17339868D02*
X9094825Y-17349391D01*
X9094825Y-17349391D02*
X9104348Y-17368439D01*
X9104348Y-17368439D02*
X9104348Y-17473201D01*
X9199586Y-17473201D02*
X9199586Y-17339868D01*
X9199586Y-17358915D02*
X9209110Y-17349391D01*
X9209110Y-17349391D02*
X9228158Y-17339868D01*
X9228158Y-17339868D02*
X9256729Y-17339868D01*
X9256729Y-17339868D02*
X9275777Y-17349391D01*
X9275777Y-17349391D02*
X9285301Y-17368439D01*
X9285301Y-17368439D02*
X9285301Y-17473201D01*
X9285301Y-17368439D02*
X9294825Y-17349391D01*
X9294825Y-17349391D02*
X9313872Y-17339868D01*
X9313872Y-17339868D02*
X9342444Y-17339868D01*
X9342444Y-17339868D02*
X9361491Y-17349391D01*
X9361491Y-17349391D02*
X9371015Y-17368439D01*
X9371015Y-17368439D02*
X9371015Y-17473201D01*
X9761491Y-17263677D02*
X9590063Y-17520820D01*
X10018634Y-17273201D02*
X10037682Y-17273201D01*
X10037682Y-17273201D02*
X10056729Y-17282725D01*
X10056729Y-17282725D02*
X10066253Y-17292249D01*
X10066253Y-17292249D02*
X10075777Y-17311296D01*
X10075777Y-17311296D02*
X10085301Y-17349391D01*
X10085301Y-17349391D02*
X10085301Y-17397011D01*
X10085301Y-17397011D02*
X10075777Y-17435106D01*
X10075777Y-17435106D02*
X10066253Y-17454153D01*
X10066253Y-17454153D02*
X10056729Y-17463677D01*
X10056729Y-17463677D02*
X10037682Y-17473201D01*
X10037682Y-17473201D02*
X10018634Y-17473201D01*
X10018634Y-17473201D02*
X9999587Y-17463677D01*
X9999587Y-17463677D02*
X9990063Y-17454153D01*
X9990063Y-17454153D02*
X9980539Y-17435106D01*
X9980539Y-17435106D02*
X9971015Y-17397011D01*
X9971015Y-17397011D02*
X9971015Y-17349391D01*
X9971015Y-17349391D02*
X9980539Y-17311296D01*
X9980539Y-17311296D02*
X9990063Y-17292249D01*
X9990063Y-17292249D02*
X9999587Y-17282725D01*
X9999587Y-17282725D02*
X10018634Y-17273201D01*
X10171015Y-17454153D02*
X10180539Y-17463677D01*
X10180539Y-17463677D02*
X10171015Y-17473201D01*
X10171015Y-17473201D02*
X10161491Y-17463677D01*
X10161491Y-17463677D02*
X10171015Y-17454153D01*
X10171015Y-17454153D02*
X10171015Y-17473201D01*
X10304348Y-17273201D02*
X10323396Y-17273201D01*
X10323396Y-17273201D02*
X10342444Y-17282725D01*
X10342444Y-17282725D02*
X10351968Y-17292249D01*
X10351968Y-17292249D02*
X10361491Y-17311296D01*
X10361491Y-17311296D02*
X10371015Y-17349391D01*
X10371015Y-17349391D02*
X10371015Y-17397011D01*
X10371015Y-17397011D02*
X10361491Y-17435106D01*
X10361491Y-17435106D02*
X10351968Y-17454153D01*
X10351968Y-17454153D02*
X10342444Y-17463677D01*
X10342444Y-17463677D02*
X10323396Y-17473201D01*
X10323396Y-17473201D02*
X10304348Y-17473201D01*
X10304348Y-17473201D02*
X10285301Y-17463677D01*
X10285301Y-17463677D02*
X10275777Y-17454153D01*
X10275777Y-17454153D02*
X10266253Y-17435106D01*
X10266253Y-17435106D02*
X10256729Y-17397011D01*
X10256729Y-17397011D02*
X10256729Y-17349391D01*
X10256729Y-17349391D02*
X10266253Y-17311296D01*
X10266253Y-17311296D02*
X10275777Y-17292249D01*
X10275777Y-17292249D02*
X10285301Y-17282725D01*
X10285301Y-17282725D02*
X10304348Y-17273201D01*
X10437682Y-17273201D02*
X10561491Y-17273201D01*
X10561491Y-17273201D02*
X10494825Y-17349391D01*
X10494825Y-17349391D02*
X10523396Y-17349391D01*
X10523396Y-17349391D02*
X10542444Y-17358915D01*
X10542444Y-17358915D02*
X10551968Y-17368439D01*
X10551968Y-17368439D02*
X10561491Y-17387487D01*
X10561491Y-17387487D02*
X10561491Y-17435106D01*
X10561491Y-17435106D02*
X10551968Y-17454153D01*
X10551968Y-17454153D02*
X10542444Y-17463677D01*
X10542444Y-17463677D02*
X10523396Y-17473201D01*
X10523396Y-17473201D02*
X10466253Y-17473201D01*
X10466253Y-17473201D02*
X10447206Y-17463677D01*
X10447206Y-17463677D02*
X10437682Y-17454153D01*
X10628158Y-17273201D02*
X10751968Y-17273201D01*
X10751968Y-17273201D02*
X10685301Y-17349391D01*
X10685301Y-17349391D02*
X10713872Y-17349391D01*
X10713872Y-17349391D02*
X10732920Y-17358915D01*
X10732920Y-17358915D02*
X10742444Y-17368439D01*
X10742444Y-17368439D02*
X10751968Y-17387487D01*
X10751968Y-17387487D02*
X10751968Y-17435106D01*
X10751968Y-17435106D02*
X10742444Y-17454153D01*
X10742444Y-17454153D02*
X10732920Y-17463677D01*
X10732920Y-17463677D02*
X10713872Y-17473201D01*
X10713872Y-17473201D02*
X10656729Y-17473201D01*
X10656729Y-17473201D02*
X10637682Y-17463677D01*
X10637682Y-17463677D02*
X10628158Y-17454153D01*
X10932920Y-17273201D02*
X10837682Y-17273201D01*
X10837682Y-17273201D02*
X10828158Y-17368439D01*
X10828158Y-17368439D02*
X10837682Y-17358915D01*
X10837682Y-17358915D02*
X10856729Y-17349391D01*
X10856729Y-17349391D02*
X10904349Y-17349391D01*
X10904349Y-17349391D02*
X10923396Y-17358915D01*
X10923396Y-17358915D02*
X10932920Y-17368439D01*
X10932920Y-17368439D02*
X10942444Y-17387487D01*
X10942444Y-17387487D02*
X10942444Y-17435106D01*
X10942444Y-17435106D02*
X10932920Y-17454153D01*
X10932920Y-17454153D02*
X10923396Y-17463677D01*
X10923396Y-17463677D02*
X10904349Y-17473201D01*
X10904349Y-17473201D02*
X10856729Y-17473201D01*
X10856729Y-17473201D02*
X10837682Y-17463677D01*
X10837682Y-17463677D02*
X10828158Y-17454153D01*
X11018634Y-17273201D02*
X11018634Y-17311296D01*
X11094825Y-17273201D02*
X11094825Y-17311296D01*
X11390063Y-17549391D02*
X11380539Y-17539868D01*
X11380539Y-17539868D02*
X11361491Y-17511296D01*
X11361491Y-17511296D02*
X11351968Y-17492249D01*
X11351968Y-17492249D02*
X11342444Y-17463677D01*
X11342444Y-17463677D02*
X11332920Y-17416058D01*
X11332920Y-17416058D02*
X11332920Y-17377963D01*
X11332920Y-17377963D02*
X11342444Y-17330344D01*
X11342444Y-17330344D02*
X11351968Y-17301772D01*
X11351968Y-17301772D02*
X11361491Y-17282725D01*
X11361491Y-17282725D02*
X11380539Y-17254153D01*
X11380539Y-17254153D02*
X11390063Y-17244630D01*
X11456729Y-17292249D02*
X11466253Y-17282725D01*
X11466253Y-17282725D02*
X11485301Y-17273201D01*
X11485301Y-17273201D02*
X11532920Y-17273201D01*
X11532920Y-17273201D02*
X11551968Y-17282725D01*
X11551968Y-17282725D02*
X11561491Y-17292249D01*
X11561491Y-17292249D02*
X11571015Y-17311296D01*
X11571015Y-17311296D02*
X11571015Y-17330344D01*
X11571015Y-17330344D02*
X11561491Y-17358915D01*
X11561491Y-17358915D02*
X11447206Y-17473201D01*
X11447206Y-17473201D02*
X11571015Y-17473201D01*
X11809110Y-17473201D02*
X11809110Y-17273201D01*
X11894825Y-17473201D02*
X11894825Y-17368439D01*
X11894825Y-17368439D02*
X11885301Y-17349391D01*
X11885301Y-17349391D02*
X11866253Y-17339868D01*
X11866253Y-17339868D02*
X11837682Y-17339868D01*
X11837682Y-17339868D02*
X11818634Y-17349391D01*
X11818634Y-17349391D02*
X11809110Y-17358915D01*
X12018634Y-17473201D02*
X11999587Y-17463677D01*
X11999587Y-17463677D02*
X11990063Y-17454153D01*
X11990063Y-17454153D02*
X11980539Y-17435106D01*
X11980539Y-17435106D02*
X11980539Y-17377963D01*
X11980539Y-17377963D02*
X11990063Y-17358915D01*
X11990063Y-17358915D02*
X11999587Y-17349391D01*
X11999587Y-17349391D02*
X12018634Y-17339868D01*
X12018634Y-17339868D02*
X12047206Y-17339868D01*
X12047206Y-17339868D02*
X12066253Y-17349391D01*
X12066253Y-17349391D02*
X12075777Y-17358915D01*
X12075777Y-17358915D02*
X12085301Y-17377963D01*
X12085301Y-17377963D02*
X12085301Y-17435106D01*
X12085301Y-17435106D02*
X12075777Y-17454153D01*
X12075777Y-17454153D02*
X12066253Y-17463677D01*
X12066253Y-17463677D02*
X12047206Y-17473201D01*
X12047206Y-17473201D02*
X12018634Y-17473201D01*
X12199587Y-17473201D02*
X12180539Y-17463677D01*
X12180539Y-17463677D02*
X12171015Y-17444630D01*
X12171015Y-17444630D02*
X12171015Y-17273201D01*
X12351968Y-17463677D02*
X12332920Y-17473201D01*
X12332920Y-17473201D02*
X12294825Y-17473201D01*
X12294825Y-17473201D02*
X12275777Y-17463677D01*
X12275777Y-17463677D02*
X12266253Y-17444630D01*
X12266253Y-17444630D02*
X12266253Y-17368439D01*
X12266253Y-17368439D02*
X12275777Y-17349391D01*
X12275777Y-17349391D02*
X12294825Y-17339868D01*
X12294825Y-17339868D02*
X12332920Y-17339868D01*
X12332920Y-17339868D02*
X12351968Y-17349391D01*
X12351968Y-17349391D02*
X12361491Y-17368439D01*
X12361491Y-17368439D02*
X12361491Y-17387487D01*
X12361491Y-17387487D02*
X12266253Y-17406534D01*
X12437682Y-17463677D02*
X12456730Y-17473201D01*
X12456730Y-17473201D02*
X12494825Y-17473201D01*
X12494825Y-17473201D02*
X12513872Y-17463677D01*
X12513872Y-17463677D02*
X12523396Y-17444630D01*
X12523396Y-17444630D02*
X12523396Y-17435106D01*
X12523396Y-17435106D02*
X12513872Y-17416058D01*
X12513872Y-17416058D02*
X12494825Y-17406534D01*
X12494825Y-17406534D02*
X12466253Y-17406534D01*
X12466253Y-17406534D02*
X12447206Y-17397011D01*
X12447206Y-17397011D02*
X12437682Y-17377963D01*
X12437682Y-17377963D02*
X12437682Y-17368439D01*
X12437682Y-17368439D02*
X12447206Y-17349391D01*
X12447206Y-17349391D02*
X12466253Y-17339868D01*
X12466253Y-17339868D02*
X12494825Y-17339868D01*
X12494825Y-17339868D02*
X12513872Y-17349391D01*
X12590063Y-17549391D02*
X12599587Y-17539868D01*
X12599587Y-17539868D02*
X12618634Y-17511296D01*
X12618634Y-17511296D02*
X12628158Y-17492249D01*
X12628158Y-17492249D02*
X12637682Y-17463677D01*
X12637682Y-17463677D02*
X12647206Y-17416058D01*
X12647206Y-17416058D02*
X12647206Y-17377963D01*
X12647206Y-17377963D02*
X12637682Y-17330344D01*
X12637682Y-17330344D02*
X12628158Y-17301772D01*
X12628158Y-17301772D02*
X12618634Y-17282725D01*
X12618634Y-17282725D02*
X12599587Y-17254153D01*
X12599587Y-17254153D02*
X12590063Y-17244630D01*
D12*
X7800356Y-17681073D02*
X7800356Y-17610362D01*
X7729644Y-17610362D01*
X7729644Y-17681073D01*
X7800356Y-17681073D01*
D11*
X8180539Y-17737201D02*
X8066253Y-17737201D01*
X8123396Y-17737201D02*
X8123396Y-17537201D01*
X8123396Y-17537201D02*
X8104348Y-17565772D01*
X8104348Y-17565772D02*
X8085301Y-17584820D01*
X8085301Y-17584820D02*
X8066253Y-17594344D01*
X8266253Y-17718153D02*
X8275777Y-17727677D01*
X8275777Y-17727677D02*
X8266253Y-17737201D01*
X8266253Y-17737201D02*
X8256729Y-17727677D01*
X8256729Y-17727677D02*
X8266253Y-17718153D01*
X8266253Y-17718153D02*
X8266253Y-17737201D01*
X8399586Y-17537201D02*
X8418634Y-17537201D01*
X8418634Y-17537201D02*
X8437682Y-17546725D01*
X8437682Y-17546725D02*
X8447205Y-17556249D01*
X8447205Y-17556249D02*
X8456729Y-17575296D01*
X8456729Y-17575296D02*
X8466253Y-17613391D01*
X8466253Y-17613391D02*
X8466253Y-17661011D01*
X8466253Y-17661011D02*
X8456729Y-17699106D01*
X8456729Y-17699106D02*
X8447205Y-17718153D01*
X8447205Y-17718153D02*
X8437682Y-17727677D01*
X8437682Y-17727677D02*
X8418634Y-17737201D01*
X8418634Y-17737201D02*
X8399586Y-17737201D01*
X8399586Y-17737201D02*
X8380539Y-17727677D01*
X8380539Y-17727677D02*
X8371015Y-17718153D01*
X8371015Y-17718153D02*
X8361491Y-17699106D01*
X8361491Y-17699106D02*
X8351967Y-17661011D01*
X8351967Y-17661011D02*
X8351967Y-17613391D01*
X8351967Y-17613391D02*
X8361491Y-17575296D01*
X8361491Y-17575296D02*
X8371015Y-17556249D01*
X8371015Y-17556249D02*
X8380539Y-17546725D01*
X8380539Y-17546725D02*
X8399586Y-17537201D01*
X8590063Y-17537201D02*
X8609110Y-17537201D01*
X8609110Y-17537201D02*
X8628158Y-17546725D01*
X8628158Y-17546725D02*
X8637682Y-17556249D01*
X8637682Y-17556249D02*
X8647205Y-17575296D01*
X8647205Y-17575296D02*
X8656729Y-17613391D01*
X8656729Y-17613391D02*
X8656729Y-17661011D01*
X8656729Y-17661011D02*
X8647205Y-17699106D01*
X8647205Y-17699106D02*
X8637682Y-17718153D01*
X8637682Y-17718153D02*
X8628158Y-17727677D01*
X8628158Y-17727677D02*
X8609110Y-17737201D01*
X8609110Y-17737201D02*
X8590063Y-17737201D01*
X8590063Y-17737201D02*
X8571015Y-17727677D01*
X8571015Y-17727677D02*
X8561491Y-17718153D01*
X8561491Y-17718153D02*
X8551967Y-17699106D01*
X8551967Y-17699106D02*
X8542444Y-17661011D01*
X8542444Y-17661011D02*
X8542444Y-17613391D01*
X8542444Y-17613391D02*
X8551967Y-17575296D01*
X8551967Y-17575296D02*
X8561491Y-17556249D01*
X8561491Y-17556249D02*
X8571015Y-17546725D01*
X8571015Y-17546725D02*
X8590063Y-17537201D01*
X8780539Y-17537201D02*
X8799586Y-17537201D01*
X8799586Y-17537201D02*
X8818634Y-17546725D01*
X8818634Y-17546725D02*
X8828158Y-17556249D01*
X8828158Y-17556249D02*
X8837682Y-17575296D01*
X8837682Y-17575296D02*
X8847205Y-17613391D01*
X8847205Y-17613391D02*
X8847205Y-17661011D01*
X8847205Y-17661011D02*
X8837682Y-17699106D01*
X8837682Y-17699106D02*
X8828158Y-17718153D01*
X8828158Y-17718153D02*
X8818634Y-17727677D01*
X8818634Y-17727677D02*
X8799586Y-17737201D01*
X8799586Y-17737201D02*
X8780539Y-17737201D01*
X8780539Y-17737201D02*
X8761491Y-17727677D01*
X8761491Y-17727677D02*
X8751967Y-17718153D01*
X8751967Y-17718153D02*
X8742444Y-17699106D01*
X8742444Y-17699106D02*
X8732920Y-17661011D01*
X8732920Y-17661011D02*
X8732920Y-17613391D01*
X8732920Y-17613391D02*
X8742444Y-17575296D01*
X8742444Y-17575296D02*
X8751967Y-17556249D01*
X8751967Y-17556249D02*
X8761491Y-17546725D01*
X8761491Y-17546725D02*
X8780539Y-17537201D01*
X8932920Y-17737201D02*
X8932920Y-17603868D01*
X8932920Y-17622915D02*
X8942444Y-17613391D01*
X8942444Y-17613391D02*
X8961491Y-17603868D01*
X8961491Y-17603868D02*
X8990063Y-17603868D01*
X8990063Y-17603868D02*
X9009110Y-17613391D01*
X9009110Y-17613391D02*
X9018634Y-17632439D01*
X9018634Y-17632439D02*
X9018634Y-17737201D01*
X9018634Y-17632439D02*
X9028158Y-17613391D01*
X9028158Y-17613391D02*
X9047205Y-17603868D01*
X9047205Y-17603868D02*
X9075777Y-17603868D01*
X9075777Y-17603868D02*
X9094825Y-17613391D01*
X9094825Y-17613391D02*
X9104348Y-17632439D01*
X9104348Y-17632439D02*
X9104348Y-17737201D01*
X9199586Y-17737201D02*
X9199586Y-17603868D01*
X9199586Y-17622915D02*
X9209110Y-17613391D01*
X9209110Y-17613391D02*
X9228158Y-17603868D01*
X9228158Y-17603868D02*
X9256729Y-17603868D01*
X9256729Y-17603868D02*
X9275777Y-17613391D01*
X9275777Y-17613391D02*
X9285301Y-17632439D01*
X9285301Y-17632439D02*
X9285301Y-17737201D01*
X9285301Y-17632439D02*
X9294825Y-17613391D01*
X9294825Y-17613391D02*
X9313872Y-17603868D01*
X9313872Y-17603868D02*
X9342444Y-17603868D01*
X9342444Y-17603868D02*
X9361491Y-17613391D01*
X9361491Y-17613391D02*
X9371015Y-17632439D01*
X9371015Y-17632439D02*
X9371015Y-17737201D01*
X9761491Y-17527677D02*
X9590063Y-17784820D01*
X10018634Y-17537201D02*
X10037682Y-17537201D01*
X10037682Y-17537201D02*
X10056729Y-17546725D01*
X10056729Y-17546725D02*
X10066253Y-17556249D01*
X10066253Y-17556249D02*
X10075777Y-17575296D01*
X10075777Y-17575296D02*
X10085301Y-17613391D01*
X10085301Y-17613391D02*
X10085301Y-17661011D01*
X10085301Y-17661011D02*
X10075777Y-17699106D01*
X10075777Y-17699106D02*
X10066253Y-17718153D01*
X10066253Y-17718153D02*
X10056729Y-17727677D01*
X10056729Y-17727677D02*
X10037682Y-17737201D01*
X10037682Y-17737201D02*
X10018634Y-17737201D01*
X10018634Y-17737201D02*
X9999587Y-17727677D01*
X9999587Y-17727677D02*
X9990063Y-17718153D01*
X9990063Y-17718153D02*
X9980539Y-17699106D01*
X9980539Y-17699106D02*
X9971015Y-17661011D01*
X9971015Y-17661011D02*
X9971015Y-17613391D01*
X9971015Y-17613391D02*
X9980539Y-17575296D01*
X9980539Y-17575296D02*
X9990063Y-17556249D01*
X9990063Y-17556249D02*
X9999587Y-17546725D01*
X9999587Y-17546725D02*
X10018634Y-17537201D01*
X10171015Y-17718153D02*
X10180539Y-17727677D01*
X10180539Y-17727677D02*
X10171015Y-17737201D01*
X10171015Y-17737201D02*
X10161491Y-17727677D01*
X10161491Y-17727677D02*
X10171015Y-17718153D01*
X10171015Y-17718153D02*
X10171015Y-17737201D01*
X10304348Y-17537201D02*
X10323396Y-17537201D01*
X10323396Y-17537201D02*
X10342444Y-17546725D01*
X10342444Y-17546725D02*
X10351968Y-17556249D01*
X10351968Y-17556249D02*
X10361491Y-17575296D01*
X10361491Y-17575296D02*
X10371015Y-17613391D01*
X10371015Y-17613391D02*
X10371015Y-17661011D01*
X10371015Y-17661011D02*
X10361491Y-17699106D01*
X10361491Y-17699106D02*
X10351968Y-17718153D01*
X10351968Y-17718153D02*
X10342444Y-17727677D01*
X10342444Y-17727677D02*
X10323396Y-17737201D01*
X10323396Y-17737201D02*
X10304348Y-17737201D01*
X10304348Y-17737201D02*
X10285301Y-17727677D01*
X10285301Y-17727677D02*
X10275777Y-17718153D01*
X10275777Y-17718153D02*
X10266253Y-17699106D01*
X10266253Y-17699106D02*
X10256729Y-17661011D01*
X10256729Y-17661011D02*
X10256729Y-17613391D01*
X10256729Y-17613391D02*
X10266253Y-17575296D01*
X10266253Y-17575296D02*
X10275777Y-17556249D01*
X10275777Y-17556249D02*
X10285301Y-17546725D01*
X10285301Y-17546725D02*
X10304348Y-17537201D01*
X10437682Y-17537201D02*
X10561491Y-17537201D01*
X10561491Y-17537201D02*
X10494825Y-17613391D01*
X10494825Y-17613391D02*
X10523396Y-17613391D01*
X10523396Y-17613391D02*
X10542444Y-17622915D01*
X10542444Y-17622915D02*
X10551968Y-17632439D01*
X10551968Y-17632439D02*
X10561491Y-17651487D01*
X10561491Y-17651487D02*
X10561491Y-17699106D01*
X10561491Y-17699106D02*
X10551968Y-17718153D01*
X10551968Y-17718153D02*
X10542444Y-17727677D01*
X10542444Y-17727677D02*
X10523396Y-17737201D01*
X10523396Y-17737201D02*
X10466253Y-17737201D01*
X10466253Y-17737201D02*
X10447206Y-17727677D01*
X10447206Y-17727677D02*
X10437682Y-17718153D01*
X10656729Y-17737201D02*
X10694825Y-17737201D01*
X10694825Y-17737201D02*
X10713872Y-17727677D01*
X10713872Y-17727677D02*
X10723396Y-17718153D01*
X10723396Y-17718153D02*
X10742444Y-17689582D01*
X10742444Y-17689582D02*
X10751968Y-17651487D01*
X10751968Y-17651487D02*
X10751968Y-17575296D01*
X10751968Y-17575296D02*
X10742444Y-17556249D01*
X10742444Y-17556249D02*
X10732920Y-17546725D01*
X10732920Y-17546725D02*
X10713872Y-17537201D01*
X10713872Y-17537201D02*
X10675777Y-17537201D01*
X10675777Y-17537201D02*
X10656729Y-17546725D01*
X10656729Y-17546725D02*
X10647206Y-17556249D01*
X10647206Y-17556249D02*
X10637682Y-17575296D01*
X10637682Y-17575296D02*
X10637682Y-17622915D01*
X10637682Y-17622915D02*
X10647206Y-17641963D01*
X10647206Y-17641963D02*
X10656729Y-17651487D01*
X10656729Y-17651487D02*
X10675777Y-17661011D01*
X10675777Y-17661011D02*
X10713872Y-17661011D01*
X10713872Y-17661011D02*
X10732920Y-17651487D01*
X10732920Y-17651487D02*
X10742444Y-17641963D01*
X10742444Y-17641963D02*
X10751968Y-17622915D01*
X10923396Y-17603868D02*
X10923396Y-17737201D01*
X10875777Y-17527677D02*
X10828158Y-17670534D01*
X10828158Y-17670534D02*
X10951968Y-17670534D01*
X11018634Y-17537201D02*
X11018634Y-17575296D01*
X11094825Y-17537201D02*
X11094825Y-17575296D01*
X11390063Y-17813391D02*
X11380539Y-17803868D01*
X11380539Y-17803868D02*
X11361491Y-17775296D01*
X11361491Y-17775296D02*
X11351968Y-17756249D01*
X11351968Y-17756249D02*
X11342444Y-17727677D01*
X11342444Y-17727677D02*
X11332920Y-17680058D01*
X11332920Y-17680058D02*
X11332920Y-17641963D01*
X11332920Y-17641963D02*
X11342444Y-17594344D01*
X11342444Y-17594344D02*
X11351968Y-17565772D01*
X11351968Y-17565772D02*
X11361491Y-17546725D01*
X11361491Y-17546725D02*
X11380539Y-17518153D01*
X11380539Y-17518153D02*
X11390063Y-17508630D01*
X11551968Y-17603868D02*
X11551968Y-17737201D01*
X11504348Y-17527677D02*
X11456729Y-17670534D01*
X11456729Y-17670534D02*
X11580539Y-17670534D01*
X11647206Y-17556249D02*
X11656729Y-17546725D01*
X11656729Y-17546725D02*
X11675777Y-17537201D01*
X11675777Y-17537201D02*
X11723396Y-17537201D01*
X11723396Y-17537201D02*
X11742444Y-17546725D01*
X11742444Y-17546725D02*
X11751968Y-17556249D01*
X11751968Y-17556249D02*
X11761491Y-17575296D01*
X11761491Y-17575296D02*
X11761491Y-17594344D01*
X11761491Y-17594344D02*
X11751968Y-17622915D01*
X11751968Y-17622915D02*
X11637682Y-17737201D01*
X11637682Y-17737201D02*
X11761491Y-17737201D01*
X11999587Y-17737201D02*
X11999587Y-17537201D01*
X12085301Y-17737201D02*
X12085301Y-17632439D01*
X12085301Y-17632439D02*
X12075777Y-17613391D01*
X12075777Y-17613391D02*
X12056730Y-17603868D01*
X12056730Y-17603868D02*
X12028158Y-17603868D01*
X12028158Y-17603868D02*
X12009110Y-17613391D01*
X12009110Y-17613391D02*
X11999587Y-17622915D01*
X12209110Y-17737201D02*
X12190063Y-17727677D01*
X12190063Y-17727677D02*
X12180539Y-17718153D01*
X12180539Y-17718153D02*
X12171015Y-17699106D01*
X12171015Y-17699106D02*
X12171015Y-17641963D01*
X12171015Y-17641963D02*
X12180539Y-17622915D01*
X12180539Y-17622915D02*
X12190063Y-17613391D01*
X12190063Y-17613391D02*
X12209110Y-17603868D01*
X12209110Y-17603868D02*
X12237682Y-17603868D01*
X12237682Y-17603868D02*
X12256730Y-17613391D01*
X12256730Y-17613391D02*
X12266253Y-17622915D01*
X12266253Y-17622915D02*
X12275777Y-17641963D01*
X12275777Y-17641963D02*
X12275777Y-17699106D01*
X12275777Y-17699106D02*
X12266253Y-17718153D01*
X12266253Y-17718153D02*
X12256730Y-17727677D01*
X12256730Y-17727677D02*
X12237682Y-17737201D01*
X12237682Y-17737201D02*
X12209110Y-17737201D01*
X12390063Y-17737201D02*
X12371015Y-17727677D01*
X12371015Y-17727677D02*
X12361491Y-17708630D01*
X12361491Y-17708630D02*
X12361491Y-17537201D01*
X12542444Y-17727677D02*
X12523396Y-17737201D01*
X12523396Y-17737201D02*
X12485301Y-17737201D01*
X12485301Y-17737201D02*
X12466253Y-17727677D01*
X12466253Y-17727677D02*
X12456730Y-17708630D01*
X12456730Y-17708630D02*
X12456730Y-17632439D01*
X12456730Y-17632439D02*
X12466253Y-17613391D01*
X12466253Y-17613391D02*
X12485301Y-17603868D01*
X12485301Y-17603868D02*
X12523396Y-17603868D01*
X12523396Y-17603868D02*
X12542444Y-17613391D01*
X12542444Y-17613391D02*
X12551968Y-17632439D01*
X12551968Y-17632439D02*
X12551968Y-17651487D01*
X12551968Y-17651487D02*
X12456730Y-17670534D01*
X12628158Y-17727677D02*
X12647206Y-17737201D01*
X12647206Y-17737201D02*
X12685301Y-17737201D01*
X12685301Y-17737201D02*
X12704349Y-17727677D01*
X12704349Y-17727677D02*
X12713872Y-17708630D01*
X12713872Y-17708630D02*
X12713872Y-17699106D01*
X12713872Y-17699106D02*
X12704349Y-17680058D01*
X12704349Y-17680058D02*
X12685301Y-17670534D01*
X12685301Y-17670534D02*
X12656730Y-17670534D01*
X12656730Y-17670534D02*
X12637682Y-17661011D01*
X12637682Y-17661011D02*
X12628158Y-17641963D01*
X12628158Y-17641963D02*
X12628158Y-17632439D01*
X12628158Y-17632439D02*
X12637682Y-17613391D01*
X12637682Y-17613391D02*
X12656730Y-17603868D01*
X12656730Y-17603868D02*
X12685301Y-17603868D01*
X12685301Y-17603868D02*
X12704349Y-17613391D01*
X12780539Y-17813391D02*
X12790063Y-17803868D01*
X12790063Y-17803868D02*
X12809111Y-17775296D01*
X12809111Y-17775296D02*
X12818634Y-17756249D01*
X12818634Y-17756249D02*
X12828158Y-17727677D01*
X12828158Y-17727677D02*
X12837682Y-17680058D01*
X12837682Y-17680058D02*
X12837682Y-17641963D01*
X12837682Y-17641963D02*
X12828158Y-17594344D01*
X12828158Y-17594344D02*
X12818634Y-17565772D01*
X12818634Y-17565772D02*
X12809111Y-17546725D01*
X12809111Y-17546725D02*
X12790063Y-17518153D01*
X12790063Y-17518153D02*
X12780539Y-17508630D01*
D13*
X7764000Y-17960717D02*
X7815000Y-17909717D01*
X7764000Y-17858717D01*
X7713000Y-17909717D01*
X7764000Y-17960717D01*
D11*
X8180539Y-18001201D02*
X8066253Y-18001201D01*
X8123396Y-18001201D02*
X8123396Y-17801201D01*
X8123396Y-17801201D02*
X8104348Y-17829772D01*
X8104348Y-17829772D02*
X8085301Y-17848820D01*
X8085301Y-17848820D02*
X8066253Y-17858344D01*
X8266253Y-17982153D02*
X8275777Y-17991677D01*
X8275777Y-17991677D02*
X8266253Y-18001201D01*
X8266253Y-18001201D02*
X8256729Y-17991677D01*
X8256729Y-17991677D02*
X8266253Y-17982153D01*
X8266253Y-17982153D02*
X8266253Y-18001201D01*
X8399586Y-17801201D02*
X8418634Y-17801201D01*
X8418634Y-17801201D02*
X8437682Y-17810725D01*
X8437682Y-17810725D02*
X8447205Y-17820249D01*
X8447205Y-17820249D02*
X8456729Y-17839296D01*
X8456729Y-17839296D02*
X8466253Y-17877391D01*
X8466253Y-17877391D02*
X8466253Y-17925011D01*
X8466253Y-17925011D02*
X8456729Y-17963106D01*
X8456729Y-17963106D02*
X8447205Y-17982153D01*
X8447205Y-17982153D02*
X8437682Y-17991677D01*
X8437682Y-17991677D02*
X8418634Y-18001201D01*
X8418634Y-18001201D02*
X8399586Y-18001201D01*
X8399586Y-18001201D02*
X8380539Y-17991677D01*
X8380539Y-17991677D02*
X8371015Y-17982153D01*
X8371015Y-17982153D02*
X8361491Y-17963106D01*
X8361491Y-17963106D02*
X8351967Y-17925011D01*
X8351967Y-17925011D02*
X8351967Y-17877391D01*
X8351967Y-17877391D02*
X8361491Y-17839296D01*
X8361491Y-17839296D02*
X8371015Y-17820249D01*
X8371015Y-17820249D02*
X8380539Y-17810725D01*
X8380539Y-17810725D02*
X8399586Y-17801201D01*
X8542444Y-17820249D02*
X8551967Y-17810725D01*
X8551967Y-17810725D02*
X8571015Y-17801201D01*
X8571015Y-17801201D02*
X8618634Y-17801201D01*
X8618634Y-17801201D02*
X8637682Y-17810725D01*
X8637682Y-17810725D02*
X8647205Y-17820249D01*
X8647205Y-17820249D02*
X8656729Y-17839296D01*
X8656729Y-17839296D02*
X8656729Y-17858344D01*
X8656729Y-17858344D02*
X8647205Y-17886915D01*
X8647205Y-17886915D02*
X8532920Y-18001201D01*
X8532920Y-18001201D02*
X8656729Y-18001201D01*
X8780539Y-17801201D02*
X8799586Y-17801201D01*
X8799586Y-17801201D02*
X8818634Y-17810725D01*
X8818634Y-17810725D02*
X8828158Y-17820249D01*
X8828158Y-17820249D02*
X8837682Y-17839296D01*
X8837682Y-17839296D02*
X8847205Y-17877391D01*
X8847205Y-17877391D02*
X8847205Y-17925011D01*
X8847205Y-17925011D02*
X8837682Y-17963106D01*
X8837682Y-17963106D02*
X8828158Y-17982153D01*
X8828158Y-17982153D02*
X8818634Y-17991677D01*
X8818634Y-17991677D02*
X8799586Y-18001201D01*
X8799586Y-18001201D02*
X8780539Y-18001201D01*
X8780539Y-18001201D02*
X8761491Y-17991677D01*
X8761491Y-17991677D02*
X8751967Y-17982153D01*
X8751967Y-17982153D02*
X8742444Y-17963106D01*
X8742444Y-17963106D02*
X8732920Y-17925011D01*
X8732920Y-17925011D02*
X8732920Y-17877391D01*
X8732920Y-17877391D02*
X8742444Y-17839296D01*
X8742444Y-17839296D02*
X8751967Y-17820249D01*
X8751967Y-17820249D02*
X8761491Y-17810725D01*
X8761491Y-17810725D02*
X8780539Y-17801201D01*
X8932920Y-18001201D02*
X8932920Y-17867868D01*
X8932920Y-17886915D02*
X8942444Y-17877391D01*
X8942444Y-17877391D02*
X8961491Y-17867868D01*
X8961491Y-17867868D02*
X8990063Y-17867868D01*
X8990063Y-17867868D02*
X9009110Y-17877391D01*
X9009110Y-17877391D02*
X9018634Y-17896439D01*
X9018634Y-17896439D02*
X9018634Y-18001201D01*
X9018634Y-17896439D02*
X9028158Y-17877391D01*
X9028158Y-17877391D02*
X9047205Y-17867868D01*
X9047205Y-17867868D02*
X9075777Y-17867868D01*
X9075777Y-17867868D02*
X9094825Y-17877391D01*
X9094825Y-17877391D02*
X9104348Y-17896439D01*
X9104348Y-17896439D02*
X9104348Y-18001201D01*
X9199586Y-18001201D02*
X9199586Y-17867868D01*
X9199586Y-17886915D02*
X9209110Y-17877391D01*
X9209110Y-17877391D02*
X9228158Y-17867868D01*
X9228158Y-17867868D02*
X9256729Y-17867868D01*
X9256729Y-17867868D02*
X9275777Y-17877391D01*
X9275777Y-17877391D02*
X9285301Y-17896439D01*
X9285301Y-17896439D02*
X9285301Y-18001201D01*
X9285301Y-17896439D02*
X9294825Y-17877391D01*
X9294825Y-17877391D02*
X9313872Y-17867868D01*
X9313872Y-17867868D02*
X9342444Y-17867868D01*
X9342444Y-17867868D02*
X9361491Y-17877391D01*
X9361491Y-17877391D02*
X9371015Y-17896439D01*
X9371015Y-17896439D02*
X9371015Y-18001201D01*
X9761491Y-17791677D02*
X9590063Y-18048820D01*
X10018634Y-17801201D02*
X10037682Y-17801201D01*
X10037682Y-17801201D02*
X10056729Y-17810725D01*
X10056729Y-17810725D02*
X10066253Y-17820249D01*
X10066253Y-17820249D02*
X10075777Y-17839296D01*
X10075777Y-17839296D02*
X10085301Y-17877391D01*
X10085301Y-17877391D02*
X10085301Y-17925011D01*
X10085301Y-17925011D02*
X10075777Y-17963106D01*
X10075777Y-17963106D02*
X10066253Y-17982153D01*
X10066253Y-17982153D02*
X10056729Y-17991677D01*
X10056729Y-17991677D02*
X10037682Y-18001201D01*
X10037682Y-18001201D02*
X10018634Y-18001201D01*
X10018634Y-18001201D02*
X9999587Y-17991677D01*
X9999587Y-17991677D02*
X9990063Y-17982153D01*
X9990063Y-17982153D02*
X9980539Y-17963106D01*
X9980539Y-17963106D02*
X9971015Y-17925011D01*
X9971015Y-17925011D02*
X9971015Y-17877391D01*
X9971015Y-17877391D02*
X9980539Y-17839296D01*
X9980539Y-17839296D02*
X9990063Y-17820249D01*
X9990063Y-17820249D02*
X9999587Y-17810725D01*
X9999587Y-17810725D02*
X10018634Y-17801201D01*
X10171015Y-17982153D02*
X10180539Y-17991677D01*
X10180539Y-17991677D02*
X10171015Y-18001201D01*
X10171015Y-18001201D02*
X10161491Y-17991677D01*
X10161491Y-17991677D02*
X10171015Y-17982153D01*
X10171015Y-17982153D02*
X10171015Y-18001201D01*
X10304348Y-17801201D02*
X10323396Y-17801201D01*
X10323396Y-17801201D02*
X10342444Y-17810725D01*
X10342444Y-17810725D02*
X10351968Y-17820249D01*
X10351968Y-17820249D02*
X10361491Y-17839296D01*
X10361491Y-17839296D02*
X10371015Y-17877391D01*
X10371015Y-17877391D02*
X10371015Y-17925011D01*
X10371015Y-17925011D02*
X10361491Y-17963106D01*
X10361491Y-17963106D02*
X10351968Y-17982153D01*
X10351968Y-17982153D02*
X10342444Y-17991677D01*
X10342444Y-17991677D02*
X10323396Y-18001201D01*
X10323396Y-18001201D02*
X10304348Y-18001201D01*
X10304348Y-18001201D02*
X10285301Y-17991677D01*
X10285301Y-17991677D02*
X10275777Y-17982153D01*
X10275777Y-17982153D02*
X10266253Y-17963106D01*
X10266253Y-17963106D02*
X10256729Y-17925011D01*
X10256729Y-17925011D02*
X10256729Y-17877391D01*
X10256729Y-17877391D02*
X10266253Y-17839296D01*
X10266253Y-17839296D02*
X10275777Y-17820249D01*
X10275777Y-17820249D02*
X10285301Y-17810725D01*
X10285301Y-17810725D02*
X10304348Y-17801201D01*
X10542444Y-17867868D02*
X10542444Y-18001201D01*
X10494825Y-17791677D02*
X10447206Y-17934534D01*
X10447206Y-17934534D02*
X10571015Y-17934534D01*
X10685301Y-17801201D02*
X10704349Y-17801201D01*
X10704349Y-17801201D02*
X10723396Y-17810725D01*
X10723396Y-17810725D02*
X10732920Y-17820249D01*
X10732920Y-17820249D02*
X10742444Y-17839296D01*
X10742444Y-17839296D02*
X10751968Y-17877391D01*
X10751968Y-17877391D02*
X10751968Y-17925011D01*
X10751968Y-17925011D02*
X10742444Y-17963106D01*
X10742444Y-17963106D02*
X10732920Y-17982153D01*
X10732920Y-17982153D02*
X10723396Y-17991677D01*
X10723396Y-17991677D02*
X10704349Y-18001201D01*
X10704349Y-18001201D02*
X10685301Y-18001201D01*
X10685301Y-18001201D02*
X10666253Y-17991677D01*
X10666253Y-17991677D02*
X10656729Y-17982153D01*
X10656729Y-17982153D02*
X10647206Y-17963106D01*
X10647206Y-17963106D02*
X10637682Y-17925011D01*
X10637682Y-17925011D02*
X10637682Y-17877391D01*
X10637682Y-17877391D02*
X10647206Y-17839296D01*
X10647206Y-17839296D02*
X10656729Y-17820249D01*
X10656729Y-17820249D02*
X10666253Y-17810725D01*
X10666253Y-17810725D02*
X10685301Y-17801201D01*
X10828158Y-17820249D02*
X10837682Y-17810725D01*
X10837682Y-17810725D02*
X10856729Y-17801201D01*
X10856729Y-17801201D02*
X10904349Y-17801201D01*
X10904349Y-17801201D02*
X10923396Y-17810725D01*
X10923396Y-17810725D02*
X10932920Y-17820249D01*
X10932920Y-17820249D02*
X10942444Y-17839296D01*
X10942444Y-17839296D02*
X10942444Y-17858344D01*
X10942444Y-17858344D02*
X10932920Y-17886915D01*
X10932920Y-17886915D02*
X10818634Y-18001201D01*
X10818634Y-18001201D02*
X10942444Y-18001201D01*
X11018634Y-17801201D02*
X11018634Y-17839296D01*
X11094825Y-17801201D02*
X11094825Y-17839296D01*
X11390063Y-18077391D02*
X11380539Y-18067868D01*
X11380539Y-18067868D02*
X11361491Y-18039296D01*
X11361491Y-18039296D02*
X11351968Y-18020249D01*
X11351968Y-18020249D02*
X11342444Y-17991677D01*
X11342444Y-17991677D02*
X11332920Y-17944058D01*
X11332920Y-17944058D02*
X11332920Y-17905963D01*
X11332920Y-17905963D02*
X11342444Y-17858344D01*
X11342444Y-17858344D02*
X11351968Y-17829772D01*
X11351968Y-17829772D02*
X11361491Y-17810725D01*
X11361491Y-17810725D02*
X11380539Y-17782153D01*
X11380539Y-17782153D02*
X11390063Y-17772630D01*
X11551968Y-17867868D02*
X11551968Y-18001201D01*
X11504348Y-17791677D02*
X11456729Y-17934534D01*
X11456729Y-17934534D02*
X11580539Y-17934534D01*
X11637682Y-17801201D02*
X11761491Y-17801201D01*
X11761491Y-17801201D02*
X11694825Y-17877391D01*
X11694825Y-17877391D02*
X11723396Y-17877391D01*
X11723396Y-17877391D02*
X11742444Y-17886915D01*
X11742444Y-17886915D02*
X11751968Y-17896439D01*
X11751968Y-17896439D02*
X11761491Y-17915487D01*
X11761491Y-17915487D02*
X11761491Y-17963106D01*
X11761491Y-17963106D02*
X11751968Y-17982153D01*
X11751968Y-17982153D02*
X11742444Y-17991677D01*
X11742444Y-17991677D02*
X11723396Y-18001201D01*
X11723396Y-18001201D02*
X11666253Y-18001201D01*
X11666253Y-18001201D02*
X11647206Y-17991677D01*
X11647206Y-17991677D02*
X11637682Y-17982153D01*
X11999587Y-18001201D02*
X11999587Y-17801201D01*
X12085301Y-18001201D02*
X12085301Y-17896439D01*
X12085301Y-17896439D02*
X12075777Y-17877391D01*
X12075777Y-17877391D02*
X12056730Y-17867868D01*
X12056730Y-17867868D02*
X12028158Y-17867868D01*
X12028158Y-17867868D02*
X12009110Y-17877391D01*
X12009110Y-17877391D02*
X11999587Y-17886915D01*
X12209110Y-18001201D02*
X12190063Y-17991677D01*
X12190063Y-17991677D02*
X12180539Y-17982153D01*
X12180539Y-17982153D02*
X12171015Y-17963106D01*
X12171015Y-17963106D02*
X12171015Y-17905963D01*
X12171015Y-17905963D02*
X12180539Y-17886915D01*
X12180539Y-17886915D02*
X12190063Y-17877391D01*
X12190063Y-17877391D02*
X12209110Y-17867868D01*
X12209110Y-17867868D02*
X12237682Y-17867868D01*
X12237682Y-17867868D02*
X12256730Y-17877391D01*
X12256730Y-17877391D02*
X12266253Y-17886915D01*
X12266253Y-17886915D02*
X12275777Y-17905963D01*
X12275777Y-17905963D02*
X12275777Y-17963106D01*
X12275777Y-17963106D02*
X12266253Y-17982153D01*
X12266253Y-17982153D02*
X12256730Y-17991677D01*
X12256730Y-17991677D02*
X12237682Y-18001201D01*
X12237682Y-18001201D02*
X12209110Y-18001201D01*
X12390063Y-18001201D02*
X12371015Y-17991677D01*
X12371015Y-17991677D02*
X12361491Y-17972630D01*
X12361491Y-17972630D02*
X12361491Y-17801201D01*
X12542444Y-17991677D02*
X12523396Y-18001201D01*
X12523396Y-18001201D02*
X12485301Y-18001201D01*
X12485301Y-18001201D02*
X12466253Y-17991677D01*
X12466253Y-17991677D02*
X12456730Y-17972630D01*
X12456730Y-17972630D02*
X12456730Y-17896439D01*
X12456730Y-17896439D02*
X12466253Y-17877391D01*
X12466253Y-17877391D02*
X12485301Y-17867868D01*
X12485301Y-17867868D02*
X12523396Y-17867868D01*
X12523396Y-17867868D02*
X12542444Y-17877391D01*
X12542444Y-17877391D02*
X12551968Y-17896439D01*
X12551968Y-17896439D02*
X12551968Y-17915487D01*
X12551968Y-17915487D02*
X12456730Y-17934534D01*
X12628158Y-17991677D02*
X12647206Y-18001201D01*
X12647206Y-18001201D02*
X12685301Y-18001201D01*
X12685301Y-18001201D02*
X12704349Y-17991677D01*
X12704349Y-17991677D02*
X12713872Y-17972630D01*
X12713872Y-17972630D02*
X12713872Y-17963106D01*
X12713872Y-17963106D02*
X12704349Y-17944058D01*
X12704349Y-17944058D02*
X12685301Y-17934534D01*
X12685301Y-17934534D02*
X12656730Y-17934534D01*
X12656730Y-17934534D02*
X12637682Y-17925011D01*
X12637682Y-17925011D02*
X12628158Y-17905963D01*
X12628158Y-17905963D02*
X12628158Y-17896439D01*
X12628158Y-17896439D02*
X12637682Y-17877391D01*
X12637682Y-17877391D02*
X12656730Y-17867868D01*
X12656730Y-17867868D02*
X12685301Y-17867868D01*
X12685301Y-17867868D02*
X12704349Y-17877391D01*
X12780539Y-18077391D02*
X12790063Y-18067868D01*
X12790063Y-18067868D02*
X12809111Y-18039296D01*
X12809111Y-18039296D02*
X12818634Y-18020249D01*
X12818634Y-18020249D02*
X12828158Y-17991677D01*
X12828158Y-17991677D02*
X12837682Y-17944058D01*
X12837682Y-17944058D02*
X12837682Y-17905963D01*
X12837682Y-17905963D02*
X12828158Y-17858344D01*
X12828158Y-17858344D02*
X12818634Y-17829772D01*
X12818634Y-17829772D02*
X12809111Y-17810725D01*
X12809111Y-17810725D02*
X12790063Y-17782153D01*
X12790063Y-17782153D02*
X12780539Y-17772630D01*
D14*
X7665000Y-18098717D02*
X7815000Y-18248717D01*
X7815000Y-18098717D02*
X7665000Y-18248717D01*
X7815000Y-18173717D02*
G75*
G02*
X7665000Y-18173717I-75000J0D01*
G01*
X7665000Y-18173717D02*
G75*
G02*
X7815000Y-18173717I75000J0D01*
G01*
D11*
X8180539Y-18265201D02*
X8066253Y-18265201D01*
X8123396Y-18265201D02*
X8123396Y-18065201D01*
X8123396Y-18065201D02*
X8104348Y-18093772D01*
X8104348Y-18093772D02*
X8085301Y-18112820D01*
X8085301Y-18112820D02*
X8066253Y-18122344D01*
X8266253Y-18246153D02*
X8275777Y-18255677D01*
X8275777Y-18255677D02*
X8266253Y-18265201D01*
X8266253Y-18265201D02*
X8256729Y-18255677D01*
X8256729Y-18255677D02*
X8266253Y-18246153D01*
X8266253Y-18246153D02*
X8266253Y-18265201D01*
X8456729Y-18065201D02*
X8361491Y-18065201D01*
X8361491Y-18065201D02*
X8351967Y-18160439D01*
X8351967Y-18160439D02*
X8361491Y-18150915D01*
X8361491Y-18150915D02*
X8380539Y-18141391D01*
X8380539Y-18141391D02*
X8428158Y-18141391D01*
X8428158Y-18141391D02*
X8447205Y-18150915D01*
X8447205Y-18150915D02*
X8456729Y-18160439D01*
X8456729Y-18160439D02*
X8466253Y-18179487D01*
X8466253Y-18179487D02*
X8466253Y-18227106D01*
X8466253Y-18227106D02*
X8456729Y-18246153D01*
X8456729Y-18246153D02*
X8447205Y-18255677D01*
X8447205Y-18255677D02*
X8428158Y-18265201D01*
X8428158Y-18265201D02*
X8380539Y-18265201D01*
X8380539Y-18265201D02*
X8361491Y-18255677D01*
X8361491Y-18255677D02*
X8351967Y-18246153D01*
X8590063Y-18065201D02*
X8609110Y-18065201D01*
X8609110Y-18065201D02*
X8628158Y-18074725D01*
X8628158Y-18074725D02*
X8637682Y-18084249D01*
X8637682Y-18084249D02*
X8647205Y-18103296D01*
X8647205Y-18103296D02*
X8656729Y-18141391D01*
X8656729Y-18141391D02*
X8656729Y-18189011D01*
X8656729Y-18189011D02*
X8647205Y-18227106D01*
X8647205Y-18227106D02*
X8637682Y-18246153D01*
X8637682Y-18246153D02*
X8628158Y-18255677D01*
X8628158Y-18255677D02*
X8609110Y-18265201D01*
X8609110Y-18265201D02*
X8590063Y-18265201D01*
X8590063Y-18265201D02*
X8571015Y-18255677D01*
X8571015Y-18255677D02*
X8561491Y-18246153D01*
X8561491Y-18246153D02*
X8551967Y-18227106D01*
X8551967Y-18227106D02*
X8542444Y-18189011D01*
X8542444Y-18189011D02*
X8542444Y-18141391D01*
X8542444Y-18141391D02*
X8551967Y-18103296D01*
X8551967Y-18103296D02*
X8561491Y-18084249D01*
X8561491Y-18084249D02*
X8571015Y-18074725D01*
X8571015Y-18074725D02*
X8590063Y-18065201D01*
X8780539Y-18065201D02*
X8799586Y-18065201D01*
X8799586Y-18065201D02*
X8818634Y-18074725D01*
X8818634Y-18074725D02*
X8828158Y-18084249D01*
X8828158Y-18084249D02*
X8837682Y-18103296D01*
X8837682Y-18103296D02*
X8847205Y-18141391D01*
X8847205Y-18141391D02*
X8847205Y-18189011D01*
X8847205Y-18189011D02*
X8837682Y-18227106D01*
X8837682Y-18227106D02*
X8828158Y-18246153D01*
X8828158Y-18246153D02*
X8818634Y-18255677D01*
X8818634Y-18255677D02*
X8799586Y-18265201D01*
X8799586Y-18265201D02*
X8780539Y-18265201D01*
X8780539Y-18265201D02*
X8761491Y-18255677D01*
X8761491Y-18255677D02*
X8751967Y-18246153D01*
X8751967Y-18246153D02*
X8742444Y-18227106D01*
X8742444Y-18227106D02*
X8732920Y-18189011D01*
X8732920Y-18189011D02*
X8732920Y-18141391D01*
X8732920Y-18141391D02*
X8742444Y-18103296D01*
X8742444Y-18103296D02*
X8751967Y-18084249D01*
X8751967Y-18084249D02*
X8761491Y-18074725D01*
X8761491Y-18074725D02*
X8780539Y-18065201D01*
X8932920Y-18265201D02*
X8932920Y-18131868D01*
X8932920Y-18150915D02*
X8942444Y-18141391D01*
X8942444Y-18141391D02*
X8961491Y-18131868D01*
X8961491Y-18131868D02*
X8990063Y-18131868D01*
X8990063Y-18131868D02*
X9009110Y-18141391D01*
X9009110Y-18141391D02*
X9018634Y-18160439D01*
X9018634Y-18160439D02*
X9018634Y-18265201D01*
X9018634Y-18160439D02*
X9028158Y-18141391D01*
X9028158Y-18141391D02*
X9047205Y-18131868D01*
X9047205Y-18131868D02*
X9075777Y-18131868D01*
X9075777Y-18131868D02*
X9094825Y-18141391D01*
X9094825Y-18141391D02*
X9104348Y-18160439D01*
X9104348Y-18160439D02*
X9104348Y-18265201D01*
X9199586Y-18265201D02*
X9199586Y-18131868D01*
X9199586Y-18150915D02*
X9209110Y-18141391D01*
X9209110Y-18141391D02*
X9228158Y-18131868D01*
X9228158Y-18131868D02*
X9256729Y-18131868D01*
X9256729Y-18131868D02*
X9275777Y-18141391D01*
X9275777Y-18141391D02*
X9285301Y-18160439D01*
X9285301Y-18160439D02*
X9285301Y-18265201D01*
X9285301Y-18160439D02*
X9294825Y-18141391D01*
X9294825Y-18141391D02*
X9313872Y-18131868D01*
X9313872Y-18131868D02*
X9342444Y-18131868D01*
X9342444Y-18131868D02*
X9361491Y-18141391D01*
X9361491Y-18141391D02*
X9371015Y-18160439D01*
X9371015Y-18160439D02*
X9371015Y-18265201D01*
X9761491Y-18055677D02*
X9590063Y-18312820D01*
X10018634Y-18065201D02*
X10037682Y-18065201D01*
X10037682Y-18065201D02*
X10056729Y-18074725D01*
X10056729Y-18074725D02*
X10066253Y-18084249D01*
X10066253Y-18084249D02*
X10075777Y-18103296D01*
X10075777Y-18103296D02*
X10085301Y-18141391D01*
X10085301Y-18141391D02*
X10085301Y-18189011D01*
X10085301Y-18189011D02*
X10075777Y-18227106D01*
X10075777Y-18227106D02*
X10066253Y-18246153D01*
X10066253Y-18246153D02*
X10056729Y-18255677D01*
X10056729Y-18255677D02*
X10037682Y-18265201D01*
X10037682Y-18265201D02*
X10018634Y-18265201D01*
X10018634Y-18265201D02*
X9999587Y-18255677D01*
X9999587Y-18255677D02*
X9990063Y-18246153D01*
X9990063Y-18246153D02*
X9980539Y-18227106D01*
X9980539Y-18227106D02*
X9971015Y-18189011D01*
X9971015Y-18189011D02*
X9971015Y-18141391D01*
X9971015Y-18141391D02*
X9980539Y-18103296D01*
X9980539Y-18103296D02*
X9990063Y-18084249D01*
X9990063Y-18084249D02*
X9999587Y-18074725D01*
X9999587Y-18074725D02*
X10018634Y-18065201D01*
X10171015Y-18246153D02*
X10180539Y-18255677D01*
X10180539Y-18255677D02*
X10171015Y-18265201D01*
X10171015Y-18265201D02*
X10161491Y-18255677D01*
X10161491Y-18255677D02*
X10171015Y-18246153D01*
X10171015Y-18246153D02*
X10171015Y-18265201D01*
X10304348Y-18065201D02*
X10323396Y-18065201D01*
X10323396Y-18065201D02*
X10342444Y-18074725D01*
X10342444Y-18074725D02*
X10351968Y-18084249D01*
X10351968Y-18084249D02*
X10361491Y-18103296D01*
X10361491Y-18103296D02*
X10371015Y-18141391D01*
X10371015Y-18141391D02*
X10371015Y-18189011D01*
X10371015Y-18189011D02*
X10361491Y-18227106D01*
X10361491Y-18227106D02*
X10351968Y-18246153D01*
X10351968Y-18246153D02*
X10342444Y-18255677D01*
X10342444Y-18255677D02*
X10323396Y-18265201D01*
X10323396Y-18265201D02*
X10304348Y-18265201D01*
X10304348Y-18265201D02*
X10285301Y-18255677D01*
X10285301Y-18255677D02*
X10275777Y-18246153D01*
X10275777Y-18246153D02*
X10266253Y-18227106D01*
X10266253Y-18227106D02*
X10256729Y-18189011D01*
X10256729Y-18189011D02*
X10256729Y-18141391D01*
X10256729Y-18141391D02*
X10266253Y-18103296D01*
X10266253Y-18103296D02*
X10275777Y-18084249D01*
X10275777Y-18084249D02*
X10285301Y-18074725D01*
X10285301Y-18074725D02*
X10304348Y-18065201D01*
X10551968Y-18065201D02*
X10456729Y-18065201D01*
X10456729Y-18065201D02*
X10447206Y-18160439D01*
X10447206Y-18160439D02*
X10456729Y-18150915D01*
X10456729Y-18150915D02*
X10475777Y-18141391D01*
X10475777Y-18141391D02*
X10523396Y-18141391D01*
X10523396Y-18141391D02*
X10542444Y-18150915D01*
X10542444Y-18150915D02*
X10551968Y-18160439D01*
X10551968Y-18160439D02*
X10561491Y-18179487D01*
X10561491Y-18179487D02*
X10561491Y-18227106D01*
X10561491Y-18227106D02*
X10551968Y-18246153D01*
X10551968Y-18246153D02*
X10542444Y-18255677D01*
X10542444Y-18255677D02*
X10523396Y-18265201D01*
X10523396Y-18265201D02*
X10475777Y-18265201D01*
X10475777Y-18265201D02*
X10456729Y-18255677D01*
X10456729Y-18255677D02*
X10447206Y-18246153D01*
X10656729Y-18265201D02*
X10694825Y-18265201D01*
X10694825Y-18265201D02*
X10713872Y-18255677D01*
X10713872Y-18255677D02*
X10723396Y-18246153D01*
X10723396Y-18246153D02*
X10742444Y-18217582D01*
X10742444Y-18217582D02*
X10751968Y-18179487D01*
X10751968Y-18179487D02*
X10751968Y-18103296D01*
X10751968Y-18103296D02*
X10742444Y-18084249D01*
X10742444Y-18084249D02*
X10732920Y-18074725D01*
X10732920Y-18074725D02*
X10713872Y-18065201D01*
X10713872Y-18065201D02*
X10675777Y-18065201D01*
X10675777Y-18065201D02*
X10656729Y-18074725D01*
X10656729Y-18074725D02*
X10647206Y-18084249D01*
X10647206Y-18084249D02*
X10637682Y-18103296D01*
X10637682Y-18103296D02*
X10637682Y-18150915D01*
X10637682Y-18150915D02*
X10647206Y-18169963D01*
X10647206Y-18169963D02*
X10656729Y-18179487D01*
X10656729Y-18179487D02*
X10675777Y-18189011D01*
X10675777Y-18189011D02*
X10713872Y-18189011D01*
X10713872Y-18189011D02*
X10732920Y-18179487D01*
X10732920Y-18179487D02*
X10742444Y-18169963D01*
X10742444Y-18169963D02*
X10751968Y-18150915D01*
X10942444Y-18265201D02*
X10828158Y-18265201D01*
X10885301Y-18265201D02*
X10885301Y-18065201D01*
X10885301Y-18065201D02*
X10866253Y-18093772D01*
X10866253Y-18093772D02*
X10847206Y-18112820D01*
X10847206Y-18112820D02*
X10828158Y-18122344D01*
X11018634Y-18065201D02*
X11018634Y-18103296D01*
X11094825Y-18065201D02*
X11094825Y-18103296D01*
X11390063Y-18341391D02*
X11380539Y-18331868D01*
X11380539Y-18331868D02*
X11361491Y-18303296D01*
X11361491Y-18303296D02*
X11351968Y-18284249D01*
X11351968Y-18284249D02*
X11342444Y-18255677D01*
X11342444Y-18255677D02*
X11332920Y-18208058D01*
X11332920Y-18208058D02*
X11332920Y-18169963D01*
X11332920Y-18169963D02*
X11342444Y-18122344D01*
X11342444Y-18122344D02*
X11351968Y-18093772D01*
X11351968Y-18093772D02*
X11361491Y-18074725D01*
X11361491Y-18074725D02*
X11380539Y-18046153D01*
X11380539Y-18046153D02*
X11390063Y-18036630D01*
X11551968Y-18065201D02*
X11513872Y-18065201D01*
X11513872Y-18065201D02*
X11494825Y-18074725D01*
X11494825Y-18074725D02*
X11485301Y-18084249D01*
X11485301Y-18084249D02*
X11466253Y-18112820D01*
X11466253Y-18112820D02*
X11456729Y-18150915D01*
X11456729Y-18150915D02*
X11456729Y-18227106D01*
X11456729Y-18227106D02*
X11466253Y-18246153D01*
X11466253Y-18246153D02*
X11475777Y-18255677D01*
X11475777Y-18255677D02*
X11494825Y-18265201D01*
X11494825Y-18265201D02*
X11532920Y-18265201D01*
X11532920Y-18265201D02*
X11551968Y-18255677D01*
X11551968Y-18255677D02*
X11561491Y-18246153D01*
X11561491Y-18246153D02*
X11571015Y-18227106D01*
X11571015Y-18227106D02*
X11571015Y-18179487D01*
X11571015Y-18179487D02*
X11561491Y-18160439D01*
X11561491Y-18160439D02*
X11551968Y-18150915D01*
X11551968Y-18150915D02*
X11532920Y-18141391D01*
X11532920Y-18141391D02*
X11494825Y-18141391D01*
X11494825Y-18141391D02*
X11475777Y-18150915D01*
X11475777Y-18150915D02*
X11466253Y-18160439D01*
X11466253Y-18160439D02*
X11456729Y-18179487D01*
X11809110Y-18265201D02*
X11809110Y-18065201D01*
X11894825Y-18265201D02*
X11894825Y-18160439D01*
X11894825Y-18160439D02*
X11885301Y-18141391D01*
X11885301Y-18141391D02*
X11866253Y-18131868D01*
X11866253Y-18131868D02*
X11837682Y-18131868D01*
X11837682Y-18131868D02*
X11818634Y-18141391D01*
X11818634Y-18141391D02*
X11809110Y-18150915D01*
X12018634Y-18265201D02*
X11999587Y-18255677D01*
X11999587Y-18255677D02*
X11990063Y-18246153D01*
X11990063Y-18246153D02*
X11980539Y-18227106D01*
X11980539Y-18227106D02*
X11980539Y-18169963D01*
X11980539Y-18169963D02*
X11990063Y-18150915D01*
X11990063Y-18150915D02*
X11999587Y-18141391D01*
X11999587Y-18141391D02*
X12018634Y-18131868D01*
X12018634Y-18131868D02*
X12047206Y-18131868D01*
X12047206Y-18131868D02*
X12066253Y-18141391D01*
X12066253Y-18141391D02*
X12075777Y-18150915D01*
X12075777Y-18150915D02*
X12085301Y-18169963D01*
X12085301Y-18169963D02*
X12085301Y-18227106D01*
X12085301Y-18227106D02*
X12075777Y-18246153D01*
X12075777Y-18246153D02*
X12066253Y-18255677D01*
X12066253Y-18255677D02*
X12047206Y-18265201D01*
X12047206Y-18265201D02*
X12018634Y-18265201D01*
X12199587Y-18265201D02*
X12180539Y-18255677D01*
X12180539Y-18255677D02*
X12171015Y-18236630D01*
X12171015Y-18236630D02*
X12171015Y-18065201D01*
X12351968Y-18255677D02*
X12332920Y-18265201D01*
X12332920Y-18265201D02*
X12294825Y-18265201D01*
X12294825Y-18265201D02*
X12275777Y-18255677D01*
X12275777Y-18255677D02*
X12266253Y-18236630D01*
X12266253Y-18236630D02*
X12266253Y-18160439D01*
X12266253Y-18160439D02*
X12275777Y-18141391D01*
X12275777Y-18141391D02*
X12294825Y-18131868D01*
X12294825Y-18131868D02*
X12332920Y-18131868D01*
X12332920Y-18131868D02*
X12351968Y-18141391D01*
X12351968Y-18141391D02*
X12361491Y-18160439D01*
X12361491Y-18160439D02*
X12361491Y-18179487D01*
X12361491Y-18179487D02*
X12266253Y-18198534D01*
X12437682Y-18255677D02*
X12456730Y-18265201D01*
X12456730Y-18265201D02*
X12494825Y-18265201D01*
X12494825Y-18265201D02*
X12513872Y-18255677D01*
X12513872Y-18255677D02*
X12523396Y-18236630D01*
X12523396Y-18236630D02*
X12523396Y-18227106D01*
X12523396Y-18227106D02*
X12513872Y-18208058D01*
X12513872Y-18208058D02*
X12494825Y-18198534D01*
X12494825Y-18198534D02*
X12466253Y-18198534D01*
X12466253Y-18198534D02*
X12447206Y-18189011D01*
X12447206Y-18189011D02*
X12437682Y-18169963D01*
X12437682Y-18169963D02*
X12437682Y-18160439D01*
X12437682Y-18160439D02*
X12447206Y-18141391D01*
X12447206Y-18141391D02*
X12466253Y-18131868D01*
X12466253Y-18131868D02*
X12494825Y-18131868D01*
X12494825Y-18131868D02*
X12513872Y-18141391D01*
X12590063Y-18341391D02*
X12599587Y-18331868D01*
X12599587Y-18331868D02*
X12618634Y-18303296D01*
X12618634Y-18303296D02*
X12628158Y-18284249D01*
X12628158Y-18284249D02*
X12637682Y-18255677D01*
X12637682Y-18255677D02*
X12647206Y-18208058D01*
X12647206Y-18208058D02*
X12647206Y-18169963D01*
X12647206Y-18169963D02*
X12637682Y-18122344D01*
X12637682Y-18122344D02*
X12628158Y-18093772D01*
X12628158Y-18093772D02*
X12618634Y-18074725D01*
X12618634Y-18074725D02*
X12599587Y-18046153D01*
X12599587Y-18046153D02*
X12590063Y-18036630D01*
D15*
X7635000Y-18353717D02*
X7815000Y-18533717D01*
X7815000Y-18353717D02*
X7635000Y-18533717D01*
X7725000Y-18353717D02*
X7725000Y-18533717D01*
X7635000Y-18443717D02*
X7815000Y-18443717D01*
D11*
X8180539Y-18535201D02*
X8066253Y-18535201D01*
X8123396Y-18535201D02*
X8123396Y-18335201D01*
X8123396Y-18335201D02*
X8104348Y-18363772D01*
X8104348Y-18363772D02*
X8085301Y-18382820D01*
X8085301Y-18382820D02*
X8066253Y-18392344D01*
X8266253Y-18516153D02*
X8275777Y-18525677D01*
X8275777Y-18525677D02*
X8266253Y-18535201D01*
X8266253Y-18535201D02*
X8256729Y-18525677D01*
X8256729Y-18525677D02*
X8266253Y-18516153D01*
X8266253Y-18516153D02*
X8266253Y-18535201D01*
X8390063Y-18420915D02*
X8371015Y-18411391D01*
X8371015Y-18411391D02*
X8361491Y-18401868D01*
X8361491Y-18401868D02*
X8351967Y-18382820D01*
X8351967Y-18382820D02*
X8351967Y-18373296D01*
X8351967Y-18373296D02*
X8361491Y-18354249D01*
X8361491Y-18354249D02*
X8371015Y-18344725D01*
X8371015Y-18344725D02*
X8390063Y-18335201D01*
X8390063Y-18335201D02*
X8428158Y-18335201D01*
X8428158Y-18335201D02*
X8447205Y-18344725D01*
X8447205Y-18344725D02*
X8456729Y-18354249D01*
X8456729Y-18354249D02*
X8466253Y-18373296D01*
X8466253Y-18373296D02*
X8466253Y-18382820D01*
X8466253Y-18382820D02*
X8456729Y-18401868D01*
X8456729Y-18401868D02*
X8447205Y-18411391D01*
X8447205Y-18411391D02*
X8428158Y-18420915D01*
X8428158Y-18420915D02*
X8390063Y-18420915D01*
X8390063Y-18420915D02*
X8371015Y-18430439D01*
X8371015Y-18430439D02*
X8361491Y-18439963D01*
X8361491Y-18439963D02*
X8351967Y-18459011D01*
X8351967Y-18459011D02*
X8351967Y-18497106D01*
X8351967Y-18497106D02*
X8361491Y-18516153D01*
X8361491Y-18516153D02*
X8371015Y-18525677D01*
X8371015Y-18525677D02*
X8390063Y-18535201D01*
X8390063Y-18535201D02*
X8428158Y-18535201D01*
X8428158Y-18535201D02*
X8447205Y-18525677D01*
X8447205Y-18525677D02*
X8456729Y-18516153D01*
X8456729Y-18516153D02*
X8466253Y-18497106D01*
X8466253Y-18497106D02*
X8466253Y-18459011D01*
X8466253Y-18459011D02*
X8456729Y-18439963D01*
X8456729Y-18439963D02*
X8447205Y-18430439D01*
X8447205Y-18430439D02*
X8428158Y-18420915D01*
X8590063Y-18335201D02*
X8609110Y-18335201D01*
X8609110Y-18335201D02*
X8628158Y-18344725D01*
X8628158Y-18344725D02*
X8637682Y-18354249D01*
X8637682Y-18354249D02*
X8647205Y-18373296D01*
X8647205Y-18373296D02*
X8656729Y-18411391D01*
X8656729Y-18411391D02*
X8656729Y-18459011D01*
X8656729Y-18459011D02*
X8647205Y-18497106D01*
X8647205Y-18497106D02*
X8637682Y-18516153D01*
X8637682Y-18516153D02*
X8628158Y-18525677D01*
X8628158Y-18525677D02*
X8609110Y-18535201D01*
X8609110Y-18535201D02*
X8590063Y-18535201D01*
X8590063Y-18535201D02*
X8571015Y-18525677D01*
X8571015Y-18525677D02*
X8561491Y-18516153D01*
X8561491Y-18516153D02*
X8551967Y-18497106D01*
X8551967Y-18497106D02*
X8542444Y-18459011D01*
X8542444Y-18459011D02*
X8542444Y-18411391D01*
X8542444Y-18411391D02*
X8551967Y-18373296D01*
X8551967Y-18373296D02*
X8561491Y-18354249D01*
X8561491Y-18354249D02*
X8571015Y-18344725D01*
X8571015Y-18344725D02*
X8590063Y-18335201D01*
X8780539Y-18335201D02*
X8799586Y-18335201D01*
X8799586Y-18335201D02*
X8818634Y-18344725D01*
X8818634Y-18344725D02*
X8828158Y-18354249D01*
X8828158Y-18354249D02*
X8837682Y-18373296D01*
X8837682Y-18373296D02*
X8847205Y-18411391D01*
X8847205Y-18411391D02*
X8847205Y-18459011D01*
X8847205Y-18459011D02*
X8837682Y-18497106D01*
X8837682Y-18497106D02*
X8828158Y-18516153D01*
X8828158Y-18516153D02*
X8818634Y-18525677D01*
X8818634Y-18525677D02*
X8799586Y-18535201D01*
X8799586Y-18535201D02*
X8780539Y-18535201D01*
X8780539Y-18535201D02*
X8761491Y-18525677D01*
X8761491Y-18525677D02*
X8751967Y-18516153D01*
X8751967Y-18516153D02*
X8742444Y-18497106D01*
X8742444Y-18497106D02*
X8732920Y-18459011D01*
X8732920Y-18459011D02*
X8732920Y-18411391D01*
X8732920Y-18411391D02*
X8742444Y-18373296D01*
X8742444Y-18373296D02*
X8751967Y-18354249D01*
X8751967Y-18354249D02*
X8761491Y-18344725D01*
X8761491Y-18344725D02*
X8780539Y-18335201D01*
X8932920Y-18535201D02*
X8932920Y-18401868D01*
X8932920Y-18420915D02*
X8942444Y-18411391D01*
X8942444Y-18411391D02*
X8961491Y-18401868D01*
X8961491Y-18401868D02*
X8990063Y-18401868D01*
X8990063Y-18401868D02*
X9009110Y-18411391D01*
X9009110Y-18411391D02*
X9018634Y-18430439D01*
X9018634Y-18430439D02*
X9018634Y-18535201D01*
X9018634Y-18430439D02*
X9028158Y-18411391D01*
X9028158Y-18411391D02*
X9047205Y-18401868D01*
X9047205Y-18401868D02*
X9075777Y-18401868D01*
X9075777Y-18401868D02*
X9094825Y-18411391D01*
X9094825Y-18411391D02*
X9104348Y-18430439D01*
X9104348Y-18430439D02*
X9104348Y-18535201D01*
X9199586Y-18535201D02*
X9199586Y-18401868D01*
X9199586Y-18420915D02*
X9209110Y-18411391D01*
X9209110Y-18411391D02*
X9228158Y-18401868D01*
X9228158Y-18401868D02*
X9256729Y-18401868D01*
X9256729Y-18401868D02*
X9275777Y-18411391D01*
X9275777Y-18411391D02*
X9285301Y-18430439D01*
X9285301Y-18430439D02*
X9285301Y-18535201D01*
X9285301Y-18430439D02*
X9294825Y-18411391D01*
X9294825Y-18411391D02*
X9313872Y-18401868D01*
X9313872Y-18401868D02*
X9342444Y-18401868D01*
X9342444Y-18401868D02*
X9361491Y-18411391D01*
X9361491Y-18411391D02*
X9371015Y-18430439D01*
X9371015Y-18430439D02*
X9371015Y-18535201D01*
X9761491Y-18325677D02*
X9590063Y-18582820D01*
X10018634Y-18335201D02*
X10037682Y-18335201D01*
X10037682Y-18335201D02*
X10056729Y-18344725D01*
X10056729Y-18344725D02*
X10066253Y-18354249D01*
X10066253Y-18354249D02*
X10075777Y-18373296D01*
X10075777Y-18373296D02*
X10085301Y-18411391D01*
X10085301Y-18411391D02*
X10085301Y-18459011D01*
X10085301Y-18459011D02*
X10075777Y-18497106D01*
X10075777Y-18497106D02*
X10066253Y-18516153D01*
X10066253Y-18516153D02*
X10056729Y-18525677D01*
X10056729Y-18525677D02*
X10037682Y-18535201D01*
X10037682Y-18535201D02*
X10018634Y-18535201D01*
X10018634Y-18535201D02*
X9999587Y-18525677D01*
X9999587Y-18525677D02*
X9990063Y-18516153D01*
X9990063Y-18516153D02*
X9980539Y-18497106D01*
X9980539Y-18497106D02*
X9971015Y-18459011D01*
X9971015Y-18459011D02*
X9971015Y-18411391D01*
X9971015Y-18411391D02*
X9980539Y-18373296D01*
X9980539Y-18373296D02*
X9990063Y-18354249D01*
X9990063Y-18354249D02*
X9999587Y-18344725D01*
X9999587Y-18344725D02*
X10018634Y-18335201D01*
X10171015Y-18516153D02*
X10180539Y-18525677D01*
X10180539Y-18525677D02*
X10171015Y-18535201D01*
X10171015Y-18535201D02*
X10161491Y-18525677D01*
X10161491Y-18525677D02*
X10171015Y-18516153D01*
X10171015Y-18516153D02*
X10171015Y-18535201D01*
X10304348Y-18335201D02*
X10323396Y-18335201D01*
X10323396Y-18335201D02*
X10342444Y-18344725D01*
X10342444Y-18344725D02*
X10351968Y-18354249D01*
X10351968Y-18354249D02*
X10361491Y-18373296D01*
X10361491Y-18373296D02*
X10371015Y-18411391D01*
X10371015Y-18411391D02*
X10371015Y-18459011D01*
X10371015Y-18459011D02*
X10361491Y-18497106D01*
X10361491Y-18497106D02*
X10351968Y-18516153D01*
X10351968Y-18516153D02*
X10342444Y-18525677D01*
X10342444Y-18525677D02*
X10323396Y-18535201D01*
X10323396Y-18535201D02*
X10304348Y-18535201D01*
X10304348Y-18535201D02*
X10285301Y-18525677D01*
X10285301Y-18525677D02*
X10275777Y-18516153D01*
X10275777Y-18516153D02*
X10266253Y-18497106D01*
X10266253Y-18497106D02*
X10256729Y-18459011D01*
X10256729Y-18459011D02*
X10256729Y-18411391D01*
X10256729Y-18411391D02*
X10266253Y-18373296D01*
X10266253Y-18373296D02*
X10275777Y-18354249D01*
X10275777Y-18354249D02*
X10285301Y-18344725D01*
X10285301Y-18344725D02*
X10304348Y-18335201D01*
X10437682Y-18335201D02*
X10571015Y-18335201D01*
X10571015Y-18335201D02*
X10485301Y-18535201D01*
X10685301Y-18335201D02*
X10704349Y-18335201D01*
X10704349Y-18335201D02*
X10723396Y-18344725D01*
X10723396Y-18344725D02*
X10732920Y-18354249D01*
X10732920Y-18354249D02*
X10742444Y-18373296D01*
X10742444Y-18373296D02*
X10751968Y-18411391D01*
X10751968Y-18411391D02*
X10751968Y-18459011D01*
X10751968Y-18459011D02*
X10742444Y-18497106D01*
X10742444Y-18497106D02*
X10732920Y-18516153D01*
X10732920Y-18516153D02*
X10723396Y-18525677D01*
X10723396Y-18525677D02*
X10704349Y-18535201D01*
X10704349Y-18535201D02*
X10685301Y-18535201D01*
X10685301Y-18535201D02*
X10666253Y-18525677D01*
X10666253Y-18525677D02*
X10656729Y-18516153D01*
X10656729Y-18516153D02*
X10647206Y-18497106D01*
X10647206Y-18497106D02*
X10637682Y-18459011D01*
X10637682Y-18459011D02*
X10637682Y-18411391D01*
X10637682Y-18411391D02*
X10647206Y-18373296D01*
X10647206Y-18373296D02*
X10656729Y-18354249D01*
X10656729Y-18354249D02*
X10666253Y-18344725D01*
X10666253Y-18344725D02*
X10685301Y-18335201D01*
X10847206Y-18535201D02*
X10885301Y-18535201D01*
X10885301Y-18535201D02*
X10904349Y-18525677D01*
X10904349Y-18525677D02*
X10913872Y-18516153D01*
X10913872Y-18516153D02*
X10932920Y-18487582D01*
X10932920Y-18487582D02*
X10942444Y-18449487D01*
X10942444Y-18449487D02*
X10942444Y-18373296D01*
X10942444Y-18373296D02*
X10932920Y-18354249D01*
X10932920Y-18354249D02*
X10923396Y-18344725D01*
X10923396Y-18344725D02*
X10904349Y-18335201D01*
X10904349Y-18335201D02*
X10866253Y-18335201D01*
X10866253Y-18335201D02*
X10847206Y-18344725D01*
X10847206Y-18344725D02*
X10837682Y-18354249D01*
X10837682Y-18354249D02*
X10828158Y-18373296D01*
X10828158Y-18373296D02*
X10828158Y-18420915D01*
X10828158Y-18420915D02*
X10837682Y-18439963D01*
X10837682Y-18439963D02*
X10847206Y-18449487D01*
X10847206Y-18449487D02*
X10866253Y-18459011D01*
X10866253Y-18459011D02*
X10904349Y-18459011D01*
X10904349Y-18459011D02*
X10923396Y-18449487D01*
X10923396Y-18449487D02*
X10932920Y-18439963D01*
X10932920Y-18439963D02*
X10942444Y-18420915D01*
X11018634Y-18335201D02*
X11018634Y-18373296D01*
X11094825Y-18335201D02*
X11094825Y-18373296D01*
X11390063Y-18611391D02*
X11380539Y-18601868D01*
X11380539Y-18601868D02*
X11361491Y-18573296D01*
X11361491Y-18573296D02*
X11351968Y-18554249D01*
X11351968Y-18554249D02*
X11342444Y-18525677D01*
X11342444Y-18525677D02*
X11332920Y-18478058D01*
X11332920Y-18478058D02*
X11332920Y-18439963D01*
X11332920Y-18439963D02*
X11342444Y-18392344D01*
X11342444Y-18392344D02*
X11351968Y-18363772D01*
X11351968Y-18363772D02*
X11361491Y-18344725D01*
X11361491Y-18344725D02*
X11380539Y-18316153D01*
X11380539Y-18316153D02*
X11390063Y-18306630D01*
X11456729Y-18354249D02*
X11466253Y-18344725D01*
X11466253Y-18344725D02*
X11485301Y-18335201D01*
X11485301Y-18335201D02*
X11532920Y-18335201D01*
X11532920Y-18335201D02*
X11551968Y-18344725D01*
X11551968Y-18344725D02*
X11561491Y-18354249D01*
X11561491Y-18354249D02*
X11571015Y-18373296D01*
X11571015Y-18373296D02*
X11571015Y-18392344D01*
X11571015Y-18392344D02*
X11561491Y-18420915D01*
X11561491Y-18420915D02*
X11447206Y-18535201D01*
X11447206Y-18535201D02*
X11571015Y-18535201D01*
X11809110Y-18535201D02*
X11809110Y-18335201D01*
X11894825Y-18535201D02*
X11894825Y-18430439D01*
X11894825Y-18430439D02*
X11885301Y-18411391D01*
X11885301Y-18411391D02*
X11866253Y-18401868D01*
X11866253Y-18401868D02*
X11837682Y-18401868D01*
X11837682Y-18401868D02*
X11818634Y-18411391D01*
X11818634Y-18411391D02*
X11809110Y-18420915D01*
X12018634Y-18535201D02*
X11999587Y-18525677D01*
X11999587Y-18525677D02*
X11990063Y-18516153D01*
X11990063Y-18516153D02*
X11980539Y-18497106D01*
X11980539Y-18497106D02*
X11980539Y-18439963D01*
X11980539Y-18439963D02*
X11990063Y-18420915D01*
X11990063Y-18420915D02*
X11999587Y-18411391D01*
X11999587Y-18411391D02*
X12018634Y-18401868D01*
X12018634Y-18401868D02*
X12047206Y-18401868D01*
X12047206Y-18401868D02*
X12066253Y-18411391D01*
X12066253Y-18411391D02*
X12075777Y-18420915D01*
X12075777Y-18420915D02*
X12085301Y-18439963D01*
X12085301Y-18439963D02*
X12085301Y-18497106D01*
X12085301Y-18497106D02*
X12075777Y-18516153D01*
X12075777Y-18516153D02*
X12066253Y-18525677D01*
X12066253Y-18525677D02*
X12047206Y-18535201D01*
X12047206Y-18535201D02*
X12018634Y-18535201D01*
X12199587Y-18535201D02*
X12180539Y-18525677D01*
X12180539Y-18525677D02*
X12171015Y-18506630D01*
X12171015Y-18506630D02*
X12171015Y-18335201D01*
X12351968Y-18525677D02*
X12332920Y-18535201D01*
X12332920Y-18535201D02*
X12294825Y-18535201D01*
X12294825Y-18535201D02*
X12275777Y-18525677D01*
X12275777Y-18525677D02*
X12266253Y-18506630D01*
X12266253Y-18506630D02*
X12266253Y-18430439D01*
X12266253Y-18430439D02*
X12275777Y-18411391D01*
X12275777Y-18411391D02*
X12294825Y-18401868D01*
X12294825Y-18401868D02*
X12332920Y-18401868D01*
X12332920Y-18401868D02*
X12351968Y-18411391D01*
X12351968Y-18411391D02*
X12361491Y-18430439D01*
X12361491Y-18430439D02*
X12361491Y-18449487D01*
X12361491Y-18449487D02*
X12266253Y-18468534D01*
X12437682Y-18525677D02*
X12456730Y-18535201D01*
X12456730Y-18535201D02*
X12494825Y-18535201D01*
X12494825Y-18535201D02*
X12513872Y-18525677D01*
X12513872Y-18525677D02*
X12523396Y-18506630D01*
X12523396Y-18506630D02*
X12523396Y-18497106D01*
X12523396Y-18497106D02*
X12513872Y-18478058D01*
X12513872Y-18478058D02*
X12494825Y-18468534D01*
X12494825Y-18468534D02*
X12466253Y-18468534D01*
X12466253Y-18468534D02*
X12447206Y-18459011D01*
X12447206Y-18459011D02*
X12437682Y-18439963D01*
X12437682Y-18439963D02*
X12437682Y-18430439D01*
X12437682Y-18430439D02*
X12447206Y-18411391D01*
X12447206Y-18411391D02*
X12466253Y-18401868D01*
X12466253Y-18401868D02*
X12494825Y-18401868D01*
X12494825Y-18401868D02*
X12513872Y-18411391D01*
X12590063Y-18611391D02*
X12599587Y-18601868D01*
X12599587Y-18601868D02*
X12618634Y-18573296D01*
X12618634Y-18573296D02*
X12628158Y-18554249D01*
X12628158Y-18554249D02*
X12637682Y-18525677D01*
X12637682Y-18525677D02*
X12647206Y-18478058D01*
X12647206Y-18478058D02*
X12647206Y-18439963D01*
X12647206Y-18439963D02*
X12637682Y-18392344D01*
X12637682Y-18392344D02*
X12628158Y-18363772D01*
X12628158Y-18363772D02*
X12618634Y-18344725D01*
X12618634Y-18344725D02*
X12599587Y-18316153D01*
X12599587Y-18316153D02*
X12590063Y-18306630D01*
M02*
