M48
; DRILL file {KiCad 9.0.3} date 2026-01-25T14:37:28-0600
; FORMAT={-:-/ absolute / metric / decimal}
; #@! TF.CreationDate,2026-01-25T14:37:28-06:00
; #@! TF.GenerationSoftware,Kicad,Pcbnew,9.0.3
; #@! TF.FileFunction,Plated,1,2,PTH
FMAT,2
METRIC
; #@! TA.AperFunction,Plated,PTH,ViaDrill
T1C0.300
; #@! TA.AperFunction,Plated,PTH,ComponentDrill
T2C0.300
; #@! TA.AperFunction,Plated,PTH,ComponentDrill
T3C0.850
; #@! TA.AperFunction,Plated,PTH,ComponentDrill
T4C1.000
; #@! TA.AperFunction,Plated,PTH,ComponentDrill
T5C1.020
; #@! TA.AperFunction,Plated,PTH,ComponentDrill
T6C1.500
; #@! TA.AperFunction,Plated,PTH,ComponentDrill
T7C1.800
%
G90
G05
T1
X79.975Y-89.525
X80.625Y-80.675
X80.775Y-86.125
X81.9Y-74.4
X84.775Y-70.125
X84.775Y-74.125
X84.775Y-78.125
X84.775Y-82.125
X84.775Y-98.125
X84.775Y-102.125
X84.775Y-106.125
X85.725Y-62.95
X88.775Y-54.125
X88.775Y-70.125
X88.775Y-74.125
X88.775Y-78.125
X88.775Y-82.125
X88.775Y-98.125
X88.775Y-102.125
X88.775Y-106.125
X88.775Y-118.125
X89.175Y-57.1
X91.55Y-122.375
X92.775Y-70.125
X93.975Y-91.75
X94.65Y-101.75
X95.15Y-126.875
X96.75Y-57.55
X98.45Y-131.0
X99.1Y-64.875
X99.575Y-68.15
X99.75Y-101.775
X100.15Y-61.475
X101.075Y-134.65
X103.6Y-53.45
X104.075Y-48.975
X104.45Y-129.0
X105.375Y-139.425
X105.575Y-57.175
X106.05Y-45.325
X106.175Y-61.475
X106.5Y-47.85
X107.05Y-59.425
X108.225Y-134.325
X108.775Y-142.125
X108.85Y-45.25
X109.3Y-47.175
X109.4Y-57.0
X110.925Y-99.025
X111.6Y-58.7
X111.725Y-90.275
X111.75Y-127.375
X111.825Y-63.9
X112.175Y-93.9
X112.7Y-84.1
X112.775Y-142.125
X112.775Y-146.125
X113.15Y-87.35
X113.25Y-81.125
X113.9Y-57.0
X114.1Y-66.1
X116.25Y-64.45
X116.475Y-32.0
X116.7Y-118.0
X116.775Y-142.125
X116.775Y-146.125
X116.975Y-37.05
X117.35Y-42.95
X118.15Y-46.35
X118.625Y-58.125
X119.025Y-68.575
X120.0Y-64.65
X120.775Y-146.125
X120.775Y-150.125
X123.025Y-55.325
X123.55Y-57.475
X123.725Y-94.025
X123.75Y-63.825
X124.15Y-91.2
X124.775Y-146.125
X124.775Y-150.125
X125.525Y-118.0
X126.6Y-67.525
X127.175Y-53.925
X127.7Y-34.3
X127.7Y-74.45
X127.85Y-41.8
X127.85Y-50.5
X128.0Y-36.9
X128.0Y-45.425
X128.15Y-63.575
X128.425Y-113.625
X128.775Y-22.125
X128.775Y-86.125
X128.775Y-102.125
X128.775Y-122.125
X128.775Y-126.125
X128.775Y-130.125
X128.775Y-146.125
X128.775Y-150.125
X128.775Y-154.125
X129.25Y-98.3
X129.575Y-70.9
X130.025Y-74.45
X130.725Y-60.4
X131.0Y-77.7
X131.0Y-84.375
X131.55Y-56.625
X131.625Y-34.45
X131.675Y-53.85
X131.7Y-41.1
X131.725Y-50.2
X131.775Y-46.0
X131.925Y-64.575
X131.975Y-66.675
X132.775Y-22.125
X132.775Y-86.125
X132.775Y-122.125
X132.775Y-126.125
X132.775Y-130.125
X132.775Y-142.125
X132.775Y-146.125
X132.775Y-150.125
X133.55Y-27.75
X133.65Y-76.225
X134.2Y-64.575
X135.25Y-39.575
X135.375Y-66.675
X135.425Y-49.5
X135.5Y-21.125
X135.65Y-34.6
X136.65Y-56.65
X136.775Y-86.125
X139.7Y-28.1
X144.5Y-29.025
X144.85Y-52.7
X145.325Y-49.1
X145.55Y-74.44
X145.575Y-58.087
X145.575Y-60.062
X145.575Y-63.287
X145.575Y-65.237
X145.725Y-43.3
X145.775Y-45.35
X145.825Y-42.15
X146.5Y-82.675
X147.2Y-39.925
X147.475Y-71.825
X147.575Y-66.525
X147.9Y-77.7
X148.025Y-48.175
X148.15Y-50.8
X148.775Y-39.925
X148.775Y-42.15
X148.8Y-43.325
X149.3Y-74.425
X149.6Y-61.65
X151.6Y-67.4
X153.25Y-74.425
X154.325Y-93.2
X154.575Y-89.75
X156.725Y-72.55
X156.775Y-78.125
X156.85Y-55.2
X156.975Y-40.5
X157.025Y-46.775
X159.45Y-28.425
X160.325Y-92.65
X162.775Y-28.2
X165.475Y-52.225
X165.7Y-74.175
X165.8Y-47.075
X166.275Y-66.65
X167.4Y-126.9
X167.575Y-34.775
X167.675Y-45.175
X167.675Y-61.74
X167.875Y-76.5
X168.275Y-84.6
X168.725Y-47.275
X168.725Y-69.36
X168.775Y-22.125
X168.775Y-138.125
X168.775Y-150.125
X169.0Y-104.975
X169.0Y-107.55
X169.775Y-43.96
X169.775Y-49.83
X169.975Y-52.375
X169.975Y-59.2
X170.575Y-74.375
X170.615Y-82.06
X171.0Y-26.35
X171.0Y-34.5
X171.025Y-79.675
X171.125Y-104.95
X171.125Y-107.55
X171.9Y-71.9
X171.925Y-43.5
X172.775Y-22.125
X172.775Y-86.125
X172.775Y-138.125
X172.775Y-150.125
X172.775Y-154.125
X172.775Y-158.125
X173.175Y-46.0
X173.175Y-64.28
X174.325Y-48.55
X174.325Y-56.66
X174.425Y-25.875
X175.1Y-35.8
X175.7Y-61.3
X176.425Y-119.975
X176.775Y-86.125
X176.775Y-90.125
X176.775Y-94.125
X176.775Y-98.125
X176.775Y-102.125
X176.775Y-138.125
X176.775Y-150.125
X177.125Y-156.6
X178.275Y-59.9
X178.575Y-64.625
X180.775Y-78.125
X180.775Y-82.125
X180.775Y-86.125
X180.775Y-90.125
X180.775Y-94.125
X180.775Y-98.125
X180.775Y-102.125
X180.775Y-106.125
X180.775Y-110.125
X180.775Y-114.125
X180.775Y-138.125
X180.775Y-150.125
X180.775Y-154.125
X180.825Y-25.5
X182.15Y-128.025
X182.425Y-74.9
X183.025Y-84.1
X183.175Y-80.15
X184.125Y-153.325
X184.525Y-88.35
X184.775Y-94.125
X184.775Y-98.125
X184.775Y-102.125
X184.775Y-106.125
X184.775Y-138.125
X184.775Y-150.125
X184.85Y-114.75
X185.15Y-110.725
X186.575Y-90.975
X186.675Y-31.95
X187.425Y-106.425
X187.7Y-118.75
X187.825Y-70.2
X188.775Y-88.625
X188.775Y-94.125
X188.775Y-98.125
X188.775Y-102.125
X188.775Y-122.125
X188.775Y-138.125
X188.775Y-150.125
X190.15Y-64.35
X191.075Y-91.25
X191.075Y-105.2
X191.325Y-119.425
X192.375Y-70.025
X192.775Y-34.125
X192.775Y-38.125
X192.775Y-42.125
X192.775Y-46.125
X192.775Y-50.125
X192.775Y-54.125
X192.775Y-58.125
X192.775Y-62.125
X192.775Y-66.125
X192.775Y-94.125
X192.775Y-98.125
X192.775Y-102.125
X192.775Y-122.125
X192.775Y-126.125
X192.775Y-138.125
X192.9Y-88.825
X194.85Y-105.175
X194.95Y-91.3
X194.975Y-119.575
X195.875Y-145.225
X196.325Y-34.875
X196.675Y-88.3
X196.775Y-38.125
X196.775Y-42.125
X196.775Y-46.125
X196.775Y-50.125
X196.775Y-54.125
X196.775Y-58.125
X196.775Y-62.125
X196.775Y-66.125
X196.775Y-94.125
X196.775Y-98.125
X196.775Y-102.125
X196.775Y-122.125
X196.775Y-126.125
X196.775Y-130.125
X196.775Y-134.125
X196.775Y-138.125
X196.775Y-142.125
X196.8Y-71.0
X197.925Y-85.1
X197.975Y-80.825
X198.275Y-76.375
X198.625Y-91.325
X199.475Y-105.325
X199.525Y-68.175
X199.65Y-141.1
X199.675Y-65.2
X200.2Y-38.65
X200.6Y-119.575
X200.775Y-42.125
X200.775Y-46.125
X200.775Y-50.125
X200.775Y-54.125
X200.775Y-58.125
X200.775Y-62.125
X200.775Y-74.125
X200.775Y-78.125
X200.775Y-82.125
X200.775Y-86.125
X200.775Y-90.125
X200.775Y-94.125
X200.775Y-98.125
X200.775Y-102.125
X200.775Y-122.125
X200.775Y-126.125
X200.775Y-130.125
X200.775Y-134.125
X200.775Y-138.125
X202.6Y-71.725
X203.6Y-43.2
X203.6Y-137.1
X204.775Y-46.125
X204.775Y-50.125
X204.775Y-54.125
X204.775Y-58.125
X204.775Y-62.125
X204.775Y-74.125
X204.775Y-78.125
X204.775Y-82.125
X204.775Y-86.125
X204.775Y-90.125
X204.775Y-94.125
X204.775Y-98.125
X204.775Y-102.125
X204.775Y-118.2
X204.775Y-122.125
X204.775Y-126.125
X204.775Y-130.125
X204.775Y-134.125
X205.025Y-106.55
X205.475Y-64.975
X205.625Y-108.775
X205.625Y-115.6
X205.75Y-111.825
X206.175Y-71.875
X207.925Y-46.975
X208.5Y-132.5
X208.775Y-50.125
X208.775Y-54.125
X208.775Y-58.125
X208.775Y-62.125
X208.775Y-66.125
X208.775Y-70.125
X208.775Y-74.125
X208.775Y-78.125
X208.775Y-82.125
X208.775Y-86.125
X208.775Y-90.125
X208.775Y-94.125
X208.775Y-98.125
X208.775Y-102.125
X208.775Y-106.125
X208.775Y-110.125
X208.775Y-114.125
X208.775Y-118.125
X208.775Y-122.125
X208.775Y-126.125
X211.675Y-127.2
X212.0Y-53.125
X212.775Y-58.125
X212.775Y-62.125
X212.775Y-66.125
X212.775Y-70.125
X212.775Y-74.125
X212.775Y-78.125
X212.775Y-82.125
X212.775Y-98.125
X212.775Y-102.125
X212.775Y-106.125
X212.775Y-110.125
X212.775Y-114.125
X212.775Y-118.125
X212.775Y-122.125
X216.775Y-62.125
X216.775Y-70.125
X216.775Y-74.125
X216.775Y-78.125
X216.775Y-82.125
X216.775Y-98.125
X216.775Y-102.125
X216.775Y-106.125
X216.775Y-110.125
X216.775Y-114.125
X216.775Y-118.125
X218.675Y-66.7
X219.8Y-70.675
X219.875Y-109.425
X220.775Y-74.125
X220.775Y-78.125
X220.775Y-86.125
X220.775Y-102.125
X220.775Y-106.125
X221.3Y-82.675
X222.1Y-89.75
X222.2Y-94.125
X222.225Y-98.05
T2
X112.3Y-47.9
X112.3Y-49.2
X113.6Y-47.9
X113.6Y-49.2
X114.9Y-47.9
X114.9Y-49.2
X116.2Y-47.9
X116.2Y-49.2
T3
X94.862Y-74.4
X99.862Y-74.4
T4
X87.785Y-66.675
X90.325Y-66.675
X109.357Y-71.69
X109.357Y-75.19
X109.357Y-78.69
X123.2Y-66.3
X123.2Y-68.84
X123.2Y-71.38
X123.2Y-73.92
X123.2Y-76.46
X123.2Y-79.0
X123.2Y-81.54
X123.2Y-84.08
X174.85Y-131.998
X174.975Y-73.36
X174.975Y-75.9
X174.975Y-78.44
X174.975Y-80.98
X177.39Y-131.998
X177.39Y-144.697
X178.35Y-39.66
X178.35Y-42.2
X178.35Y-44.74
X178.35Y-47.28
X178.35Y-49.82
X178.35Y-52.36
X178.35Y-54.9
X179.93Y-131.998
X179.93Y-144.697
X180.89Y-39.66
X180.89Y-42.2
X180.89Y-44.74
X180.89Y-47.28
X180.89Y-49.82
X180.89Y-52.36
X180.89Y-54.9
X182.47Y-131.998
X182.47Y-144.697
X185.01Y-131.998
X185.01Y-144.697
X187.55Y-131.998
X187.55Y-144.697
T5
X142.3Y-36.34
X142.3Y-38.88
X142.3Y-41.42
X142.3Y-43.96
X142.3Y-46.5
X142.3Y-49.04
X142.3Y-51.58
X142.3Y-54.12
X142.3Y-56.66
X142.3Y-59.2
X142.3Y-61.74
X142.3Y-64.28
X142.3Y-66.82
X142.3Y-69.36
X142.3Y-71.9
X142.3Y-74.44
X142.3Y-76.98
X142.3Y-79.52
X142.3Y-82.06
X142.3Y-84.6
X148.65Y-36.57
X151.19Y-36.57
X153.73Y-36.57
X160.08Y-36.34
X160.08Y-38.88
X160.08Y-41.42
X160.08Y-43.96
X160.08Y-46.5
X160.08Y-49.04
X160.08Y-51.58
X160.08Y-54.12
X160.08Y-56.66
X160.08Y-59.2
X160.08Y-61.74
X160.08Y-64.28
X160.08Y-66.82
X160.08Y-69.36
X160.08Y-71.9
X160.08Y-74.44
X160.08Y-76.98
X160.08Y-79.52
X160.08Y-82.06
X160.08Y-84.6
T6
X101.65Y-115.45
X104.2Y-112.9
X104.2Y-118.0
X119.95Y-137.25
X122.5Y-134.7
X122.5Y-139.8
T7
X103.775Y-93.125
X103.775Y-98.125
M30
