M48
; DRILL file {KiCad 9.0.3} date 2025-11-21T03:11:13-0600
; FORMAT={-:-/ absolute / metric / decimal}
; #@! TF.CreationDate,2025-11-21T03:11:13-06:00
; #@! TF.GenerationSoftware,Kicad,Pcbnew,9.0.3
; #@! TF.FileFunction,Plated,1,2,PTH
FMAT,2
METRIC
; #@! TA.AperFunction,Plated,PTH,ViaDrill
T1C0.300
; #@! TA.AperFunction,Plated,PTH,ViaDrill
T2C0.400
; #@! TA.AperFunction,Plated,PTH,ComponentDrill
T3C1.000
%
G90
G05
T1
X82.2Y-72.55
X82.25Y-76.7
X82.55Y-79.6
X82.85Y-83.0
X83.1Y-86.0
X85.7Y-86.0
X90.75Y-98.4
X93.6Y-85.8
X93.85Y-87.8
X95.9Y-98.4
X100.5Y-98.4
X104.15Y-88.95
X104.25Y-81.95
T2
X85.65Y-90.6
X91.65Y-64.6
X93.65Y-64.6
X93.65Y-80.6
X95.65Y-64.6
X95.65Y-82.6
X95.65Y-84.6
X97.65Y-64.6
X97.65Y-66.6
X99.55Y-89.45
X99.6Y-86.5
X99.65Y-64.6
X99.65Y-66.6
X101.65Y-64.6
X101.65Y-66.6
X103.65Y-64.6
X103.65Y-66.6
X105.65Y-64.6
X105.65Y-66.6
X107.65Y-64.6
X107.65Y-66.6
X109.65Y-64.6
X109.65Y-66.6
X111.65Y-64.6
X111.65Y-66.6
X111.65Y-68.6
X111.65Y-78.6
X111.65Y-80.6
X111.65Y-82.6
X111.65Y-84.6
X111.65Y-86.6
X111.65Y-88.6
X111.65Y-90.6
X111.65Y-92.6
X113.65Y-64.6
X113.65Y-66.6
X113.65Y-68.6
X113.65Y-78.6
X113.65Y-80.6
X113.65Y-82.6
X113.65Y-84.6
X113.65Y-86.6
X113.65Y-88.6
X113.65Y-90.6
X113.65Y-92.6
X115.65Y-64.6
X115.65Y-66.6
X115.65Y-68.6
X115.65Y-78.6
X115.65Y-80.6
X115.65Y-82.6
X115.65Y-84.6
X115.65Y-86.6
X115.65Y-88.6
X115.65Y-90.6
X115.65Y-92.6
X117.65Y-64.6
X117.65Y-66.6
X117.65Y-68.6
X117.65Y-70.6
X117.65Y-72.6
X117.65Y-74.6
X117.65Y-76.6
X117.65Y-78.6
X117.65Y-80.6
X117.65Y-82.6
X117.65Y-84.6
X117.65Y-86.6
X117.65Y-88.6
X117.65Y-90.6
X117.65Y-92.6
X119.65Y-64.6
X119.65Y-66.6
X119.65Y-76.6
X119.65Y-78.6
X119.65Y-80.6
X119.65Y-82.6
X119.65Y-84.6
X119.65Y-86.6
X119.65Y-88.6
X119.65Y-90.6
X119.65Y-92.6
X121.65Y-64.6
X121.65Y-66.6
X121.65Y-76.6
X121.65Y-78.6
X121.65Y-80.6
X121.65Y-82.6
X121.65Y-84.6
X121.65Y-86.6
X121.65Y-88.6
X121.65Y-90.6
X121.65Y-92.6
X123.65Y-64.6
X123.65Y-66.6
X123.65Y-76.6
X123.65Y-78.6
X123.65Y-80.6
X123.65Y-82.6
X123.65Y-84.6
X123.65Y-86.6
X123.65Y-88.6
X123.65Y-90.6
X123.65Y-92.6
X133.65Y-64.6
X133.65Y-66.6
X133.65Y-68.6
X133.65Y-70.6
X133.65Y-72.6
X133.65Y-74.6
X133.65Y-76.6
X133.65Y-78.6
X133.65Y-80.6
X133.65Y-82.6
X133.65Y-84.6
X133.65Y-86.6
X133.65Y-88.6
X133.65Y-90.6
T3
X91.72Y-94.2
X94.26Y-94.2
X96.8Y-94.2
X99.34Y-94.2
M30
