G04 #@! TF.GenerationSoftware,KiCad,Pcbnew,9.0.3*
G04 #@! TF.CreationDate,2025-11-21T03:11:02-06:00*
G04 #@! TF.ProjectId,LEC_RF,4c45435f-5246-42e6-9b69-6361645f7063,rev?*
G04 #@! TF.SameCoordinates,Original*
G04 #@! TF.FileFunction,Legend,Top*
G04 #@! TF.FilePolarity,Positive*
%FSLAX46Y46*%
G04 Gerber Fmt 4.6, Leading zero omitted, Abs format (unit mm)*
G04 Created by KiCad (PCBNEW 9.0.3) date 2025-11-21 03:11:02*
%MOMM*%
%LPD*%
G01*
G04 APERTURE LIST*
G04 Aperture macros list*
%AMRoundRect*
0 Rectangle with rounded corners*
0 $1 Rounding radius*
0 $2 $3 $4 $5 $6 $7 $8 $9 X,Y pos of 4 corners*
0 Add a 4 corners polygon primitive as box body*
4,1,4,$2,$3,$4,$5,$6,$7,$8,$9,$2,$3,0*
0 Add four circle primitives for the rounded corners*
1,1,$1+$1,$2,$3*
1,1,$1+$1,$4,$5*
1,1,$1+$1,$6,$7*
1,1,$1+$1,$8,$9*
0 Add four rect primitives between the rounded corners*
20,1,$1+$1,$2,$3,$4,$5,0*
20,1,$1+$1,$4,$5,$6,$7,0*
20,1,$1+$1,$6,$7,$8,$9,0*
20,1,$1+$1,$8,$9,$2,$3,0*%
G04 Aperture macros list end*
%ADD10C,0.162500*%
%ADD11C,0.150000*%
%ADD12C,0.100000*%
%ADD13C,0.120000*%
%ADD14C,0.000000*%
%ADD15RoundRect,0.250000X0.475000X-0.250000X0.475000X0.250000X-0.475000X0.250000X-0.475000X-0.250000X0*%
%ADD16RoundRect,0.250000X0.250000X0.475000X-0.250000X0.475000X-0.250000X-0.475000X0.250000X-0.475000X0*%
%ADD17C,2.200000*%
%ADD18RoundRect,0.225000X-0.250000X0.225000X-0.250000X-0.225000X0.250000X-0.225000X0.250000X0.225000X0*%
%ADD19R,2.840000X1.520000*%
%ADD20R,1.520000X2.840000*%
%ADD21R,2.790000X2.790000*%
%ADD22R,1.700000X1.700000*%
%ADD23C,1.700000*%
%ADD24RoundRect,0.250000X-1.100000X0.325000X-1.100000X-0.325000X1.100000X-0.325000X1.100000X0.325000X0*%
%ADD25RoundRect,0.250000X0.350000X-0.850000X0.350000X0.850000X-0.350000X0.850000X-0.350000X-0.850000X0*%
%ADD26RoundRect,0.249997X2.650003X-2.950003X2.650003X2.950003X-2.650003X2.950003X-2.650003X-2.950003X0*%
%ADD27RoundRect,0.225000X-0.225000X-0.250000X0.225000X-0.250000X0.225000X0.250000X-0.225000X0.250000X0*%
%ADD28RoundRect,0.200000X0.275000X-0.200000X0.275000X0.200000X-0.275000X0.200000X-0.275000X-0.200000X0*%
%ADD29RoundRect,0.225000X0.225000X0.250000X-0.225000X0.250000X-0.225000X-0.250000X0.225000X-0.250000X0*%
G04 APERTURE END LIST*
D10*
X132815648Y-90750235D02*
X132877553Y-90564521D01*
X132877553Y-90564521D02*
X132939457Y-90502616D01*
X132939457Y-90502616D02*
X133063267Y-90440712D01*
X133063267Y-90440712D02*
X133248981Y-90440712D01*
X133248981Y-90440712D02*
X133372791Y-90502616D01*
X133372791Y-90502616D02*
X133434696Y-90564521D01*
X133434696Y-90564521D02*
X133496600Y-90688331D01*
X133496600Y-90688331D02*
X133496600Y-91183569D01*
X133496600Y-91183569D02*
X132196600Y-91183569D01*
X132196600Y-91183569D02*
X132196600Y-90750235D01*
X132196600Y-90750235D02*
X132258505Y-90626426D01*
X132258505Y-90626426D02*
X132320410Y-90564521D01*
X132320410Y-90564521D02*
X132444219Y-90502616D01*
X132444219Y-90502616D02*
X132568029Y-90502616D01*
X132568029Y-90502616D02*
X132691838Y-90564521D01*
X132691838Y-90564521D02*
X132753743Y-90626426D01*
X132753743Y-90626426D02*
X132815648Y-90750235D01*
X132815648Y-90750235D02*
X132815648Y-91183569D01*
X133496600Y-89697854D02*
X133434696Y-89821664D01*
X133434696Y-89821664D02*
X133372791Y-89883569D01*
X133372791Y-89883569D02*
X133248981Y-89945473D01*
X133248981Y-89945473D02*
X132877553Y-89945473D01*
X132877553Y-89945473D02*
X132753743Y-89883569D01*
X132753743Y-89883569D02*
X132691838Y-89821664D01*
X132691838Y-89821664D02*
X132629934Y-89697854D01*
X132629934Y-89697854D02*
X132629934Y-89512140D01*
X132629934Y-89512140D02*
X132691838Y-89388331D01*
X132691838Y-89388331D02*
X132753743Y-89326426D01*
X132753743Y-89326426D02*
X132877553Y-89264521D01*
X132877553Y-89264521D02*
X133248981Y-89264521D01*
X133248981Y-89264521D02*
X133372791Y-89326426D01*
X133372791Y-89326426D02*
X133434696Y-89388331D01*
X133434696Y-89388331D02*
X133496600Y-89512140D01*
X133496600Y-89512140D02*
X133496600Y-89697854D01*
X133496600Y-88150236D02*
X132815648Y-88150236D01*
X132815648Y-88150236D02*
X132691838Y-88212141D01*
X132691838Y-88212141D02*
X132629934Y-88335950D01*
X132629934Y-88335950D02*
X132629934Y-88583569D01*
X132629934Y-88583569D02*
X132691838Y-88707379D01*
X133434696Y-88150236D02*
X133496600Y-88274045D01*
X133496600Y-88274045D02*
X133496600Y-88583569D01*
X133496600Y-88583569D02*
X133434696Y-88707379D01*
X133434696Y-88707379D02*
X133310886Y-88769283D01*
X133310886Y-88769283D02*
X133187076Y-88769283D01*
X133187076Y-88769283D02*
X133063267Y-88707379D01*
X133063267Y-88707379D02*
X133001362Y-88583569D01*
X133001362Y-88583569D02*
X133001362Y-88274045D01*
X133001362Y-88274045D02*
X132939457Y-88150236D01*
X133496600Y-87531189D02*
X132629934Y-87531189D01*
X132877553Y-87531189D02*
X132753743Y-87469284D01*
X132753743Y-87469284D02*
X132691838Y-87407379D01*
X132691838Y-87407379D02*
X132629934Y-87283570D01*
X132629934Y-87283570D02*
X132629934Y-87159760D01*
X133496600Y-86169284D02*
X132196600Y-86169284D01*
X133434696Y-86169284D02*
X133496600Y-86293093D01*
X133496600Y-86293093D02*
X133496600Y-86540712D01*
X133496600Y-86540712D02*
X133434696Y-86664522D01*
X133434696Y-86664522D02*
X133372791Y-86726427D01*
X133372791Y-86726427D02*
X133248981Y-86788331D01*
X133248981Y-86788331D02*
X132877553Y-86788331D01*
X132877553Y-86788331D02*
X132753743Y-86726427D01*
X132753743Y-86726427D02*
X132691838Y-86664522D01*
X132691838Y-86664522D02*
X132629934Y-86540712D01*
X132629934Y-86540712D02*
X132629934Y-86293093D01*
X132629934Y-86293093D02*
X132691838Y-86169284D01*
X133372791Y-85550237D02*
X133434696Y-85488332D01*
X133434696Y-85488332D02*
X133496600Y-85550237D01*
X133496600Y-85550237D02*
X133434696Y-85612141D01*
X133434696Y-85612141D02*
X133372791Y-85550237D01*
X133372791Y-85550237D02*
X133496600Y-85550237D01*
X132691838Y-85550237D02*
X132753743Y-85488332D01*
X132753743Y-85488332D02*
X132815648Y-85550237D01*
X132815648Y-85550237D02*
X132753743Y-85612141D01*
X132753743Y-85612141D02*
X132691838Y-85550237D01*
X132691838Y-85550237D02*
X132815648Y-85550237D01*
X132196600Y-84064522D02*
X133496600Y-83197856D01*
X132196600Y-83197856D02*
X133496600Y-84064522D01*
X132815648Y-82269284D02*
X132877553Y-82083570D01*
X132877553Y-82083570D02*
X132939457Y-82021665D01*
X132939457Y-82021665D02*
X133063267Y-81959761D01*
X133063267Y-81959761D02*
X133248981Y-81959761D01*
X133248981Y-81959761D02*
X133372791Y-82021665D01*
X133372791Y-82021665D02*
X133434696Y-82083570D01*
X133434696Y-82083570D02*
X133496600Y-82207380D01*
X133496600Y-82207380D02*
X133496600Y-82702618D01*
X133496600Y-82702618D02*
X132196600Y-82702618D01*
X132196600Y-82702618D02*
X132196600Y-82269284D01*
X132196600Y-82269284D02*
X132258505Y-82145475D01*
X132258505Y-82145475D02*
X132320410Y-82083570D01*
X132320410Y-82083570D02*
X132444219Y-82021665D01*
X132444219Y-82021665D02*
X132568029Y-82021665D01*
X132568029Y-82021665D02*
X132691838Y-82083570D01*
X132691838Y-82083570D02*
X132753743Y-82145475D01*
X132753743Y-82145475D02*
X132815648Y-82269284D01*
X132815648Y-82269284D02*
X132815648Y-82702618D01*
X133434696Y-80907380D02*
X133496600Y-81031189D01*
X133496600Y-81031189D02*
X133496600Y-81278808D01*
X133496600Y-81278808D02*
X133434696Y-81402618D01*
X133434696Y-81402618D02*
X133310886Y-81464522D01*
X133310886Y-81464522D02*
X132815648Y-81464522D01*
X132815648Y-81464522D02*
X132691838Y-81402618D01*
X132691838Y-81402618D02*
X132629934Y-81278808D01*
X132629934Y-81278808D02*
X132629934Y-81031189D01*
X132629934Y-81031189D02*
X132691838Y-80907380D01*
X132691838Y-80907380D02*
X132815648Y-80845475D01*
X132815648Y-80845475D02*
X132939457Y-80845475D01*
X132939457Y-80845475D02*
X133063267Y-81464522D01*
X133434696Y-79793094D02*
X133496600Y-79916903D01*
X133496600Y-79916903D02*
X133496600Y-80164522D01*
X133496600Y-80164522D02*
X133434696Y-80288332D01*
X133434696Y-80288332D02*
X133310886Y-80350236D01*
X133310886Y-80350236D02*
X132815648Y-80350236D01*
X132815648Y-80350236D02*
X132691838Y-80288332D01*
X132691838Y-80288332D02*
X132629934Y-80164522D01*
X132629934Y-80164522D02*
X132629934Y-79916903D01*
X132629934Y-79916903D02*
X132691838Y-79793094D01*
X132691838Y-79793094D02*
X132815648Y-79731189D01*
X132815648Y-79731189D02*
X132939457Y-79731189D01*
X132939457Y-79731189D02*
X133063267Y-80350236D01*
X133496600Y-78183570D02*
X132196600Y-78183570D01*
X132196600Y-78183570D02*
X133125172Y-77750236D01*
X133125172Y-77750236D02*
X132196600Y-77316903D01*
X132196600Y-77316903D02*
X133496600Y-77316903D01*
X133496600Y-76512141D02*
X133434696Y-76635951D01*
X133434696Y-76635951D02*
X133372791Y-76697856D01*
X133372791Y-76697856D02*
X133248981Y-76759760D01*
X133248981Y-76759760D02*
X132877553Y-76759760D01*
X132877553Y-76759760D02*
X132753743Y-76697856D01*
X132753743Y-76697856D02*
X132691838Y-76635951D01*
X132691838Y-76635951D02*
X132629934Y-76512141D01*
X132629934Y-76512141D02*
X132629934Y-76326427D01*
X132629934Y-76326427D02*
X132691838Y-76202618D01*
X132691838Y-76202618D02*
X132753743Y-76140713D01*
X132753743Y-76140713D02*
X132877553Y-76078808D01*
X132877553Y-76078808D02*
X133248981Y-76078808D01*
X133248981Y-76078808D02*
X133372791Y-76140713D01*
X133372791Y-76140713D02*
X133434696Y-76202618D01*
X133434696Y-76202618D02*
X133496600Y-76326427D01*
X133496600Y-76326427D02*
X133496600Y-76512141D01*
X133496600Y-74964523D02*
X132196600Y-74964523D01*
X133434696Y-74964523D02*
X133496600Y-75088332D01*
X133496600Y-75088332D02*
X133496600Y-75335951D01*
X133496600Y-75335951D02*
X133434696Y-75459761D01*
X133434696Y-75459761D02*
X133372791Y-75521666D01*
X133372791Y-75521666D02*
X133248981Y-75583570D01*
X133248981Y-75583570D02*
X132877553Y-75583570D01*
X132877553Y-75583570D02*
X132753743Y-75521666D01*
X132753743Y-75521666D02*
X132691838Y-75459761D01*
X132691838Y-75459761D02*
X132629934Y-75335951D01*
X132629934Y-75335951D02*
X132629934Y-75088332D01*
X132629934Y-75088332D02*
X132691838Y-74964523D01*
X132629934Y-73788333D02*
X133496600Y-73788333D01*
X132629934Y-74345476D02*
X133310886Y-74345476D01*
X133310886Y-74345476D02*
X133434696Y-74283571D01*
X133434696Y-74283571D02*
X133496600Y-74159761D01*
X133496600Y-74159761D02*
X133496600Y-73974047D01*
X133496600Y-73974047D02*
X133434696Y-73850238D01*
X133434696Y-73850238D02*
X133372791Y-73788333D01*
X133496600Y-72983571D02*
X133434696Y-73107381D01*
X133434696Y-73107381D02*
X133310886Y-73169286D01*
X133310886Y-73169286D02*
X132196600Y-73169286D01*
X133434696Y-71993096D02*
X133496600Y-72116905D01*
X133496600Y-72116905D02*
X133496600Y-72364524D01*
X133496600Y-72364524D02*
X133434696Y-72488334D01*
X133434696Y-72488334D02*
X133310886Y-72550238D01*
X133310886Y-72550238D02*
X132815648Y-72550238D01*
X132815648Y-72550238D02*
X132691838Y-72488334D01*
X132691838Y-72488334D02*
X132629934Y-72364524D01*
X132629934Y-72364524D02*
X132629934Y-72116905D01*
X132629934Y-72116905D02*
X132691838Y-71993096D01*
X132691838Y-71993096D02*
X132815648Y-71931191D01*
X132815648Y-71931191D02*
X132939457Y-71931191D01*
X132939457Y-71931191D02*
X133063267Y-72550238D01*
X135589527Y-91183569D02*
X134289527Y-91183569D01*
X134289527Y-91183569D02*
X134289527Y-90874045D01*
X134289527Y-90874045D02*
X134351432Y-90688331D01*
X134351432Y-90688331D02*
X134475242Y-90564521D01*
X134475242Y-90564521D02*
X134599051Y-90502616D01*
X134599051Y-90502616D02*
X134846670Y-90440712D01*
X134846670Y-90440712D02*
X135032384Y-90440712D01*
X135032384Y-90440712D02*
X135280003Y-90502616D01*
X135280003Y-90502616D02*
X135403813Y-90564521D01*
X135403813Y-90564521D02*
X135527623Y-90688331D01*
X135527623Y-90688331D02*
X135589527Y-90874045D01*
X135589527Y-90874045D02*
X135589527Y-91183569D01*
X135527623Y-89388331D02*
X135589527Y-89512140D01*
X135589527Y-89512140D02*
X135589527Y-89759759D01*
X135589527Y-89759759D02*
X135527623Y-89883569D01*
X135527623Y-89883569D02*
X135403813Y-89945473D01*
X135403813Y-89945473D02*
X134908575Y-89945473D01*
X134908575Y-89945473D02*
X134784765Y-89883569D01*
X134784765Y-89883569D02*
X134722861Y-89759759D01*
X134722861Y-89759759D02*
X134722861Y-89512140D01*
X134722861Y-89512140D02*
X134784765Y-89388331D01*
X134784765Y-89388331D02*
X134908575Y-89326426D01*
X134908575Y-89326426D02*
X135032384Y-89326426D01*
X135032384Y-89326426D02*
X135156194Y-89945473D01*
X135527623Y-88831187D02*
X135589527Y-88707378D01*
X135589527Y-88707378D02*
X135589527Y-88459759D01*
X135589527Y-88459759D02*
X135527623Y-88335949D01*
X135527623Y-88335949D02*
X135403813Y-88274045D01*
X135403813Y-88274045D02*
X135341908Y-88274045D01*
X135341908Y-88274045D02*
X135218099Y-88335949D01*
X135218099Y-88335949D02*
X135156194Y-88459759D01*
X135156194Y-88459759D02*
X135156194Y-88645473D01*
X135156194Y-88645473D02*
X135094289Y-88769283D01*
X135094289Y-88769283D02*
X134970480Y-88831187D01*
X134970480Y-88831187D02*
X134908575Y-88831187D01*
X134908575Y-88831187D02*
X134784765Y-88769283D01*
X134784765Y-88769283D02*
X134722861Y-88645473D01*
X134722861Y-88645473D02*
X134722861Y-88459759D01*
X134722861Y-88459759D02*
X134784765Y-88335949D01*
X135589527Y-87716902D02*
X134722861Y-87716902D01*
X134289527Y-87716902D02*
X134351432Y-87778806D01*
X134351432Y-87778806D02*
X134413337Y-87716902D01*
X134413337Y-87716902D02*
X134351432Y-87654997D01*
X134351432Y-87654997D02*
X134289527Y-87716902D01*
X134289527Y-87716902D02*
X134413337Y-87716902D01*
X134722861Y-86540711D02*
X135775242Y-86540711D01*
X135775242Y-86540711D02*
X135899051Y-86602616D01*
X135899051Y-86602616D02*
X135960956Y-86664520D01*
X135960956Y-86664520D02*
X136022861Y-86788330D01*
X136022861Y-86788330D02*
X136022861Y-86974044D01*
X136022861Y-86974044D02*
X135960956Y-87097854D01*
X135527623Y-86540711D02*
X135589527Y-86664520D01*
X135589527Y-86664520D02*
X135589527Y-86912139D01*
X135589527Y-86912139D02*
X135527623Y-87035949D01*
X135527623Y-87035949D02*
X135465718Y-87097854D01*
X135465718Y-87097854D02*
X135341908Y-87159758D01*
X135341908Y-87159758D02*
X134970480Y-87159758D01*
X134970480Y-87159758D02*
X134846670Y-87097854D01*
X134846670Y-87097854D02*
X134784765Y-87035949D01*
X134784765Y-87035949D02*
X134722861Y-86912139D01*
X134722861Y-86912139D02*
X134722861Y-86664520D01*
X134722861Y-86664520D02*
X134784765Y-86540711D01*
X134722861Y-85921664D02*
X135589527Y-85921664D01*
X134846670Y-85921664D02*
X134784765Y-85859759D01*
X134784765Y-85859759D02*
X134722861Y-85735949D01*
X134722861Y-85735949D02*
X134722861Y-85550235D01*
X134722861Y-85550235D02*
X134784765Y-85426426D01*
X134784765Y-85426426D02*
X134908575Y-85364521D01*
X134908575Y-85364521D02*
X135589527Y-85364521D01*
X135527623Y-84250236D02*
X135589527Y-84374045D01*
X135589527Y-84374045D02*
X135589527Y-84621664D01*
X135589527Y-84621664D02*
X135527623Y-84745474D01*
X135527623Y-84745474D02*
X135403813Y-84807378D01*
X135403813Y-84807378D02*
X134908575Y-84807378D01*
X134908575Y-84807378D02*
X134784765Y-84745474D01*
X134784765Y-84745474D02*
X134722861Y-84621664D01*
X134722861Y-84621664D02*
X134722861Y-84374045D01*
X134722861Y-84374045D02*
X134784765Y-84250236D01*
X134784765Y-84250236D02*
X134908575Y-84188331D01*
X134908575Y-84188331D02*
X135032384Y-84188331D01*
X135032384Y-84188331D02*
X135156194Y-84807378D01*
X135589527Y-83631188D02*
X134722861Y-83631188D01*
X134970480Y-83631188D02*
X134846670Y-83569283D01*
X134846670Y-83569283D02*
X134784765Y-83507378D01*
X134784765Y-83507378D02*
X134722861Y-83383569D01*
X134722861Y-83383569D02*
X134722861Y-83259759D01*
X135465718Y-82826426D02*
X135527623Y-82764521D01*
X135527623Y-82764521D02*
X135589527Y-82826426D01*
X135589527Y-82826426D02*
X135527623Y-82888330D01*
X135527623Y-82888330D02*
X135465718Y-82826426D01*
X135465718Y-82826426D02*
X135589527Y-82826426D01*
X134784765Y-82826426D02*
X134846670Y-82764521D01*
X134846670Y-82764521D02*
X134908575Y-82826426D01*
X134908575Y-82826426D02*
X134846670Y-82888330D01*
X134846670Y-82888330D02*
X134784765Y-82826426D01*
X134784765Y-82826426D02*
X134908575Y-82826426D01*
X134289527Y-80845473D02*
X135218099Y-80845473D01*
X135218099Y-80845473D02*
X135403813Y-80907378D01*
X135403813Y-80907378D02*
X135527623Y-81031187D01*
X135527623Y-81031187D02*
X135589527Y-81216902D01*
X135589527Y-81216902D02*
X135589527Y-81340711D01*
X135589527Y-79669283D02*
X134908575Y-79669283D01*
X134908575Y-79669283D02*
X134784765Y-79731188D01*
X134784765Y-79731188D02*
X134722861Y-79854997D01*
X134722861Y-79854997D02*
X134722861Y-80102616D01*
X134722861Y-80102616D02*
X134784765Y-80226426D01*
X135527623Y-79669283D02*
X135589527Y-79793092D01*
X135589527Y-79793092D02*
X135589527Y-80102616D01*
X135589527Y-80102616D02*
X135527623Y-80226426D01*
X135527623Y-80226426D02*
X135403813Y-80288330D01*
X135403813Y-80288330D02*
X135280003Y-80288330D01*
X135280003Y-80288330D02*
X135156194Y-80226426D01*
X135156194Y-80226426D02*
X135094289Y-80102616D01*
X135094289Y-80102616D02*
X135094289Y-79793092D01*
X135094289Y-79793092D02*
X135032384Y-79669283D01*
X135527623Y-78493093D02*
X135589527Y-78616902D01*
X135589527Y-78616902D02*
X135589527Y-78864521D01*
X135589527Y-78864521D02*
X135527623Y-78988331D01*
X135527623Y-78988331D02*
X135465718Y-79050236D01*
X135465718Y-79050236D02*
X135341908Y-79112140D01*
X135341908Y-79112140D02*
X134970480Y-79112140D01*
X134970480Y-79112140D02*
X134846670Y-79050236D01*
X134846670Y-79050236D02*
X134784765Y-78988331D01*
X134784765Y-78988331D02*
X134722861Y-78864521D01*
X134722861Y-78864521D02*
X134722861Y-78616902D01*
X134722861Y-78616902D02*
X134784765Y-78493093D01*
X135589527Y-77750235D02*
X135527623Y-77874045D01*
X135527623Y-77874045D02*
X135465718Y-77935950D01*
X135465718Y-77935950D02*
X135341908Y-77997854D01*
X135341908Y-77997854D02*
X134970480Y-77997854D01*
X134970480Y-77997854D02*
X134846670Y-77935950D01*
X134846670Y-77935950D02*
X134784765Y-77874045D01*
X134784765Y-77874045D02*
X134722861Y-77750235D01*
X134722861Y-77750235D02*
X134722861Y-77564521D01*
X134722861Y-77564521D02*
X134784765Y-77440712D01*
X134784765Y-77440712D02*
X134846670Y-77378807D01*
X134846670Y-77378807D02*
X134970480Y-77316902D01*
X134970480Y-77316902D02*
X135341908Y-77316902D01*
X135341908Y-77316902D02*
X135465718Y-77378807D01*
X135465718Y-77378807D02*
X135527623Y-77440712D01*
X135527623Y-77440712D02*
X135589527Y-77564521D01*
X135589527Y-77564521D02*
X135589527Y-77750235D01*
X135589527Y-76759760D02*
X134289527Y-76759760D01*
X134784765Y-76759760D02*
X134722861Y-76635950D01*
X134722861Y-76635950D02*
X134722861Y-76388331D01*
X134722861Y-76388331D02*
X134784765Y-76264522D01*
X134784765Y-76264522D02*
X134846670Y-76202617D01*
X134846670Y-76202617D02*
X134970480Y-76140712D01*
X134970480Y-76140712D02*
X135341908Y-76140712D01*
X135341908Y-76140712D02*
X135465718Y-76202617D01*
X135465718Y-76202617D02*
X135527623Y-76264522D01*
X135527623Y-76264522D02*
X135589527Y-76388331D01*
X135589527Y-76388331D02*
X135589527Y-76635950D01*
X135589527Y-76635950D02*
X135527623Y-76759760D01*
X135527623Y-74654998D02*
X135589527Y-74469284D01*
X135589527Y-74469284D02*
X135589527Y-74159760D01*
X135589527Y-74159760D02*
X135527623Y-74035951D01*
X135527623Y-74035951D02*
X135465718Y-73974046D01*
X135465718Y-73974046D02*
X135341908Y-73912141D01*
X135341908Y-73912141D02*
X135218099Y-73912141D01*
X135218099Y-73912141D02*
X135094289Y-73974046D01*
X135094289Y-73974046D02*
X135032384Y-74035951D01*
X135032384Y-74035951D02*
X134970480Y-74159760D01*
X134970480Y-74159760D02*
X134908575Y-74407379D01*
X134908575Y-74407379D02*
X134846670Y-74531189D01*
X134846670Y-74531189D02*
X134784765Y-74593094D01*
X134784765Y-74593094D02*
X134660956Y-74654998D01*
X134660956Y-74654998D02*
X134537146Y-74654998D01*
X134537146Y-74654998D02*
X134413337Y-74593094D01*
X134413337Y-74593094D02*
X134351432Y-74531189D01*
X134351432Y-74531189D02*
X134289527Y-74407379D01*
X134289527Y-74407379D02*
X134289527Y-74097856D01*
X134289527Y-74097856D02*
X134351432Y-73912141D01*
X135527623Y-72797856D02*
X135589527Y-72921665D01*
X135589527Y-72921665D02*
X135589527Y-73169284D01*
X135589527Y-73169284D02*
X135527623Y-73293094D01*
X135527623Y-73293094D02*
X135465718Y-73354999D01*
X135465718Y-73354999D02*
X135341908Y-73416903D01*
X135341908Y-73416903D02*
X134970480Y-73416903D01*
X134970480Y-73416903D02*
X134846670Y-73354999D01*
X134846670Y-73354999D02*
X134784765Y-73293094D01*
X134784765Y-73293094D02*
X134722861Y-73169284D01*
X134722861Y-73169284D02*
X134722861Y-72921665D01*
X134722861Y-72921665D02*
X134784765Y-72797856D01*
X135589527Y-72240713D02*
X134289527Y-72240713D01*
X135589527Y-71683570D02*
X134908575Y-71683570D01*
X134908575Y-71683570D02*
X134784765Y-71745475D01*
X134784765Y-71745475D02*
X134722861Y-71869284D01*
X134722861Y-71869284D02*
X134722861Y-72054998D01*
X134722861Y-72054998D02*
X134784765Y-72178808D01*
X134784765Y-72178808D02*
X134846670Y-72240713D01*
X135589527Y-71064523D02*
X134722861Y-71064523D01*
X134970480Y-71064523D02*
X134846670Y-71002618D01*
X134846670Y-71002618D02*
X134784765Y-70940713D01*
X134784765Y-70940713D02*
X134722861Y-70816904D01*
X134722861Y-70816904D02*
X134722861Y-70693094D01*
X135589527Y-70074046D02*
X135527623Y-70197856D01*
X135527623Y-70197856D02*
X135465718Y-70259761D01*
X135465718Y-70259761D02*
X135341908Y-70321665D01*
X135341908Y-70321665D02*
X134970480Y-70321665D01*
X134970480Y-70321665D02*
X134846670Y-70259761D01*
X134846670Y-70259761D02*
X134784765Y-70197856D01*
X134784765Y-70197856D02*
X134722861Y-70074046D01*
X134722861Y-70074046D02*
X134722861Y-69888332D01*
X134722861Y-69888332D02*
X134784765Y-69764523D01*
X134784765Y-69764523D02*
X134846670Y-69702618D01*
X134846670Y-69702618D02*
X134970480Y-69640713D01*
X134970480Y-69640713D02*
X135341908Y-69640713D01*
X135341908Y-69640713D02*
X135465718Y-69702618D01*
X135465718Y-69702618D02*
X135527623Y-69764523D01*
X135527623Y-69764523D02*
X135589527Y-69888332D01*
X135589527Y-69888332D02*
X135589527Y-70074046D01*
X135589527Y-68897856D02*
X135527623Y-69021666D01*
X135527623Y-69021666D02*
X135403813Y-69083571D01*
X135403813Y-69083571D02*
X134289527Y-69083571D01*
X135589527Y-68216904D02*
X135527623Y-68340714D01*
X135527623Y-68340714D02*
X135403813Y-68402619D01*
X135403813Y-68402619D02*
X134289527Y-68402619D01*
X137682454Y-91183569D02*
X136382454Y-91183569D01*
X136382454Y-91183569D02*
X136382454Y-90874045D01*
X136382454Y-90874045D02*
X136444359Y-90688331D01*
X136444359Y-90688331D02*
X136568169Y-90564521D01*
X136568169Y-90564521D02*
X136691978Y-90502616D01*
X136691978Y-90502616D02*
X136939597Y-90440712D01*
X136939597Y-90440712D02*
X137125311Y-90440712D01*
X137125311Y-90440712D02*
X137372930Y-90502616D01*
X137372930Y-90502616D02*
X137496740Y-90564521D01*
X137496740Y-90564521D02*
X137620550Y-90688331D01*
X137620550Y-90688331D02*
X137682454Y-90874045D01*
X137682454Y-90874045D02*
X137682454Y-91183569D01*
X137620550Y-89388331D02*
X137682454Y-89512140D01*
X137682454Y-89512140D02*
X137682454Y-89759759D01*
X137682454Y-89759759D02*
X137620550Y-89883569D01*
X137620550Y-89883569D02*
X137496740Y-89945473D01*
X137496740Y-89945473D02*
X137001502Y-89945473D01*
X137001502Y-89945473D02*
X136877692Y-89883569D01*
X136877692Y-89883569D02*
X136815788Y-89759759D01*
X136815788Y-89759759D02*
X136815788Y-89512140D01*
X136815788Y-89512140D02*
X136877692Y-89388331D01*
X136877692Y-89388331D02*
X137001502Y-89326426D01*
X137001502Y-89326426D02*
X137125311Y-89326426D01*
X137125311Y-89326426D02*
X137249121Y-89945473D01*
X137620550Y-88831187D02*
X137682454Y-88707378D01*
X137682454Y-88707378D02*
X137682454Y-88459759D01*
X137682454Y-88459759D02*
X137620550Y-88335949D01*
X137620550Y-88335949D02*
X137496740Y-88274045D01*
X137496740Y-88274045D02*
X137434835Y-88274045D01*
X137434835Y-88274045D02*
X137311026Y-88335949D01*
X137311026Y-88335949D02*
X137249121Y-88459759D01*
X137249121Y-88459759D02*
X137249121Y-88645473D01*
X137249121Y-88645473D02*
X137187216Y-88769283D01*
X137187216Y-88769283D02*
X137063407Y-88831187D01*
X137063407Y-88831187D02*
X137001502Y-88831187D01*
X137001502Y-88831187D02*
X136877692Y-88769283D01*
X136877692Y-88769283D02*
X136815788Y-88645473D01*
X136815788Y-88645473D02*
X136815788Y-88459759D01*
X136815788Y-88459759D02*
X136877692Y-88335949D01*
X137682454Y-87716902D02*
X136815788Y-87716902D01*
X136382454Y-87716902D02*
X136444359Y-87778806D01*
X136444359Y-87778806D02*
X136506264Y-87716902D01*
X136506264Y-87716902D02*
X136444359Y-87654997D01*
X136444359Y-87654997D02*
X136382454Y-87716902D01*
X136382454Y-87716902D02*
X136506264Y-87716902D01*
X136815788Y-86540711D02*
X137868169Y-86540711D01*
X137868169Y-86540711D02*
X137991978Y-86602616D01*
X137991978Y-86602616D02*
X138053883Y-86664520D01*
X138053883Y-86664520D02*
X138115788Y-86788330D01*
X138115788Y-86788330D02*
X138115788Y-86974044D01*
X138115788Y-86974044D02*
X138053883Y-87097854D01*
X137620550Y-86540711D02*
X137682454Y-86664520D01*
X137682454Y-86664520D02*
X137682454Y-86912139D01*
X137682454Y-86912139D02*
X137620550Y-87035949D01*
X137620550Y-87035949D02*
X137558645Y-87097854D01*
X137558645Y-87097854D02*
X137434835Y-87159758D01*
X137434835Y-87159758D02*
X137063407Y-87159758D01*
X137063407Y-87159758D02*
X136939597Y-87097854D01*
X136939597Y-87097854D02*
X136877692Y-87035949D01*
X136877692Y-87035949D02*
X136815788Y-86912139D01*
X136815788Y-86912139D02*
X136815788Y-86664520D01*
X136815788Y-86664520D02*
X136877692Y-86540711D01*
X136815788Y-85921664D02*
X137682454Y-85921664D01*
X136939597Y-85921664D02*
X136877692Y-85859759D01*
X136877692Y-85859759D02*
X136815788Y-85735949D01*
X136815788Y-85735949D02*
X136815788Y-85550235D01*
X136815788Y-85550235D02*
X136877692Y-85426426D01*
X136877692Y-85426426D02*
X137001502Y-85364521D01*
X137001502Y-85364521D02*
X137682454Y-85364521D01*
X137620550Y-84250236D02*
X137682454Y-84374045D01*
X137682454Y-84374045D02*
X137682454Y-84621664D01*
X137682454Y-84621664D02*
X137620550Y-84745474D01*
X137620550Y-84745474D02*
X137496740Y-84807378D01*
X137496740Y-84807378D02*
X137001502Y-84807378D01*
X137001502Y-84807378D02*
X136877692Y-84745474D01*
X136877692Y-84745474D02*
X136815788Y-84621664D01*
X136815788Y-84621664D02*
X136815788Y-84374045D01*
X136815788Y-84374045D02*
X136877692Y-84250236D01*
X136877692Y-84250236D02*
X137001502Y-84188331D01*
X137001502Y-84188331D02*
X137125311Y-84188331D01*
X137125311Y-84188331D02*
X137249121Y-84807378D01*
X137682454Y-83074045D02*
X136382454Y-83074045D01*
X137620550Y-83074045D02*
X137682454Y-83197854D01*
X137682454Y-83197854D02*
X137682454Y-83445473D01*
X137682454Y-83445473D02*
X137620550Y-83569283D01*
X137620550Y-83569283D02*
X137558645Y-83631188D01*
X137558645Y-83631188D02*
X137434835Y-83693092D01*
X137434835Y-83693092D02*
X137063407Y-83693092D01*
X137063407Y-83693092D02*
X136939597Y-83631188D01*
X136939597Y-83631188D02*
X136877692Y-83569283D01*
X136877692Y-83569283D02*
X136815788Y-83445473D01*
X136815788Y-83445473D02*
X136815788Y-83197854D01*
X136815788Y-83197854D02*
X136877692Y-83074045D01*
X137558645Y-82454998D02*
X137620550Y-82393093D01*
X137620550Y-82393093D02*
X137682454Y-82454998D01*
X137682454Y-82454998D02*
X137620550Y-82516902D01*
X137620550Y-82516902D02*
X137558645Y-82454998D01*
X137558645Y-82454998D02*
X137682454Y-82454998D01*
X136877692Y-82454998D02*
X136939597Y-82393093D01*
X136939597Y-82393093D02*
X137001502Y-82454998D01*
X137001502Y-82454998D02*
X136939597Y-82516902D01*
X136939597Y-82516902D02*
X136877692Y-82454998D01*
X136877692Y-82454998D02*
X137001502Y-82454998D01*
X137682454Y-80164521D02*
X137682454Y-80907378D01*
X137682454Y-80535950D02*
X136382454Y-80535950D01*
X136382454Y-80535950D02*
X136568169Y-80659759D01*
X136568169Y-80659759D02*
X136691978Y-80783569D01*
X136691978Y-80783569D02*
X136753883Y-80907378D01*
X137682454Y-78926426D02*
X137682454Y-79669283D01*
X137682454Y-79297855D02*
X136382454Y-79297855D01*
X136382454Y-79297855D02*
X136568169Y-79421664D01*
X136568169Y-79421664D02*
X136691978Y-79545474D01*
X136691978Y-79545474D02*
X136753883Y-79669283D01*
X136320550Y-77440712D02*
X137991978Y-78554998D01*
X136506264Y-77069283D02*
X136444359Y-77007379D01*
X136444359Y-77007379D02*
X136382454Y-76883569D01*
X136382454Y-76883569D02*
X136382454Y-76574045D01*
X136382454Y-76574045D02*
X136444359Y-76450236D01*
X136444359Y-76450236D02*
X136506264Y-76388331D01*
X136506264Y-76388331D02*
X136630073Y-76326426D01*
X136630073Y-76326426D02*
X136753883Y-76326426D01*
X136753883Y-76326426D02*
X136939597Y-76388331D01*
X136939597Y-76388331D02*
X137682454Y-77131188D01*
X137682454Y-77131188D02*
X137682454Y-76326426D01*
X136382454Y-75521665D02*
X136382454Y-75397855D01*
X136382454Y-75397855D02*
X136444359Y-75274046D01*
X136444359Y-75274046D02*
X136506264Y-75212141D01*
X136506264Y-75212141D02*
X136630073Y-75150236D01*
X136630073Y-75150236D02*
X136877692Y-75088331D01*
X136877692Y-75088331D02*
X137187216Y-75088331D01*
X137187216Y-75088331D02*
X137434835Y-75150236D01*
X137434835Y-75150236D02*
X137558645Y-75212141D01*
X137558645Y-75212141D02*
X137620550Y-75274046D01*
X137620550Y-75274046D02*
X137682454Y-75397855D01*
X137682454Y-75397855D02*
X137682454Y-75521665D01*
X137682454Y-75521665D02*
X137620550Y-75645474D01*
X137620550Y-75645474D02*
X137558645Y-75707379D01*
X137558645Y-75707379D02*
X137434835Y-75769284D01*
X137434835Y-75769284D02*
X137187216Y-75831188D01*
X137187216Y-75831188D02*
X136877692Y-75831188D01*
X136877692Y-75831188D02*
X136630073Y-75769284D01*
X136630073Y-75769284D02*
X136506264Y-75707379D01*
X136506264Y-75707379D02*
X136444359Y-75645474D01*
X136444359Y-75645474D02*
X136382454Y-75521665D01*
X136506264Y-74593093D02*
X136444359Y-74531189D01*
X136444359Y-74531189D02*
X136382454Y-74407379D01*
X136382454Y-74407379D02*
X136382454Y-74097855D01*
X136382454Y-74097855D02*
X136444359Y-73974046D01*
X136444359Y-73974046D02*
X136506264Y-73912141D01*
X136506264Y-73912141D02*
X136630073Y-73850236D01*
X136630073Y-73850236D02*
X136753883Y-73850236D01*
X136753883Y-73850236D02*
X136939597Y-73912141D01*
X136939597Y-73912141D02*
X137682454Y-74654998D01*
X137682454Y-74654998D02*
X137682454Y-73850236D01*
X136382454Y-72674046D02*
X136382454Y-73293094D01*
X136382454Y-73293094D02*
X137001502Y-73354998D01*
X137001502Y-73354998D02*
X136939597Y-73293094D01*
X136939597Y-73293094D02*
X136877692Y-73169284D01*
X136877692Y-73169284D02*
X136877692Y-72859760D01*
X136877692Y-72859760D02*
X136939597Y-72735951D01*
X136939597Y-72735951D02*
X137001502Y-72674046D01*
X137001502Y-72674046D02*
X137125311Y-72612141D01*
X137125311Y-72612141D02*
X137434835Y-72612141D01*
X137434835Y-72612141D02*
X137558645Y-72674046D01*
X137558645Y-72674046D02*
X137620550Y-72735951D01*
X137620550Y-72735951D02*
X137682454Y-72859760D01*
X137682454Y-72859760D02*
X137682454Y-73169284D01*
X137682454Y-73169284D02*
X137620550Y-73293094D01*
X137620550Y-73293094D02*
X137558645Y-73354998D01*
D11*
X90114286Y-91773866D02*
X90876191Y-91773866D01*
X90495238Y-92154819D02*
X90495238Y-91392914D01*
X91828571Y-91154819D02*
X91352381Y-91154819D01*
X91352381Y-91154819D02*
X91304762Y-91631009D01*
X91304762Y-91631009D02*
X91352381Y-91583390D01*
X91352381Y-91583390D02*
X91447619Y-91535771D01*
X91447619Y-91535771D02*
X91685714Y-91535771D01*
X91685714Y-91535771D02*
X91780952Y-91583390D01*
X91780952Y-91583390D02*
X91828571Y-91631009D01*
X91828571Y-91631009D02*
X91876190Y-91726247D01*
X91876190Y-91726247D02*
X91876190Y-91964342D01*
X91876190Y-91964342D02*
X91828571Y-92059580D01*
X91828571Y-92059580D02*
X91780952Y-92107200D01*
X91780952Y-92107200D02*
X91685714Y-92154819D01*
X91685714Y-92154819D02*
X91447619Y-92154819D01*
X91447619Y-92154819D02*
X91352381Y-92107200D01*
X91352381Y-92107200D02*
X91304762Y-92059580D01*
X92161905Y-91154819D02*
X92495238Y-92154819D01*
X92495238Y-92154819D02*
X92828571Y-91154819D01*
X104404761Y-78304819D02*
X104071428Y-77828628D01*
X103833333Y-78304819D02*
X103833333Y-77304819D01*
X103833333Y-77304819D02*
X104214285Y-77304819D01*
X104214285Y-77304819D02*
X104309523Y-77352438D01*
X104309523Y-77352438D02*
X104357142Y-77400057D01*
X104357142Y-77400057D02*
X104404761Y-77495295D01*
X104404761Y-77495295D02*
X104404761Y-77638152D01*
X104404761Y-77638152D02*
X104357142Y-77733390D01*
X104357142Y-77733390D02*
X104309523Y-77781009D01*
X104309523Y-77781009D02*
X104214285Y-77828628D01*
X104214285Y-77828628D02*
X103833333Y-77828628D01*
X104738095Y-78304819D02*
X105261904Y-77638152D01*
X104738095Y-77638152D02*
X105261904Y-78304819D01*
X104059524Y-74954819D02*
X104630952Y-74954819D01*
X104345238Y-75954819D02*
X104345238Y-74954819D01*
X104869048Y-75954819D02*
X105392857Y-75288152D01*
X104869048Y-75288152D02*
X105392857Y-75954819D01*
X91592857Y-72154819D02*
X91926190Y-73154819D01*
X91926190Y-73154819D02*
X92259523Y-72154819D01*
X93021428Y-73107200D02*
X92926190Y-73154819D01*
X92926190Y-73154819D02*
X92735714Y-73154819D01*
X92735714Y-73154819D02*
X92640476Y-73107200D01*
X92640476Y-73107200D02*
X92592857Y-73059580D01*
X92592857Y-73059580D02*
X92545238Y-72964342D01*
X92545238Y-72964342D02*
X92545238Y-72678628D01*
X92545238Y-72678628D02*
X92592857Y-72583390D01*
X92592857Y-72583390D02*
X92640476Y-72535771D01*
X92640476Y-72535771D02*
X92735714Y-72488152D01*
X92735714Y-72488152D02*
X92926190Y-72488152D01*
X92926190Y-72488152D02*
X93021428Y-72535771D01*
X93878571Y-73107200D02*
X93783333Y-73154819D01*
X93783333Y-73154819D02*
X93592857Y-73154819D01*
X93592857Y-73154819D02*
X93497619Y-73107200D01*
X93497619Y-73107200D02*
X93450000Y-73059580D01*
X93450000Y-73059580D02*
X93402381Y-72964342D01*
X93402381Y-72964342D02*
X93402381Y-72678628D01*
X93402381Y-72678628D02*
X93450000Y-72583390D01*
X93450000Y-72583390D02*
X93497619Y-72535771D01*
X93497619Y-72535771D02*
X93592857Y-72488152D01*
X93592857Y-72488152D02*
X93783333Y-72488152D01*
X93783333Y-72488152D02*
X93878571Y-72535771D01*
X95354762Y-73535771D02*
X95307143Y-73488152D01*
X95307143Y-73488152D02*
X95211905Y-73345295D01*
X95211905Y-73345295D02*
X95164286Y-73250057D01*
X95164286Y-73250057D02*
X95116667Y-73107200D01*
X95116667Y-73107200D02*
X95069048Y-72869104D01*
X95069048Y-72869104D02*
X95069048Y-72678628D01*
X95069048Y-72678628D02*
X95116667Y-72440533D01*
X95116667Y-72440533D02*
X95164286Y-72297676D01*
X95164286Y-72297676D02*
X95211905Y-72202438D01*
X95211905Y-72202438D02*
X95307143Y-72059580D01*
X95307143Y-72059580D02*
X95354762Y-72011961D01*
X95640477Y-72154819D02*
X96259524Y-72154819D01*
X96259524Y-72154819D02*
X95926191Y-72535771D01*
X95926191Y-72535771D02*
X96069048Y-72535771D01*
X96069048Y-72535771D02*
X96164286Y-72583390D01*
X96164286Y-72583390D02*
X96211905Y-72631009D01*
X96211905Y-72631009D02*
X96259524Y-72726247D01*
X96259524Y-72726247D02*
X96259524Y-72964342D01*
X96259524Y-72964342D02*
X96211905Y-73059580D01*
X96211905Y-73059580D02*
X96164286Y-73107200D01*
X96164286Y-73107200D02*
X96069048Y-73154819D01*
X96069048Y-73154819D02*
X95783334Y-73154819D01*
X95783334Y-73154819D02*
X95688096Y-73107200D01*
X95688096Y-73107200D02*
X95640477Y-73059580D01*
X96688096Y-73059580D02*
X96735715Y-73107200D01*
X96735715Y-73107200D02*
X96688096Y-73154819D01*
X96688096Y-73154819D02*
X96640477Y-73107200D01*
X96640477Y-73107200D02*
X96688096Y-73059580D01*
X96688096Y-73059580D02*
X96688096Y-73154819D01*
X97069048Y-72154819D02*
X97688095Y-72154819D01*
X97688095Y-72154819D02*
X97354762Y-72535771D01*
X97354762Y-72535771D02*
X97497619Y-72535771D01*
X97497619Y-72535771D02*
X97592857Y-72583390D01*
X97592857Y-72583390D02*
X97640476Y-72631009D01*
X97640476Y-72631009D02*
X97688095Y-72726247D01*
X97688095Y-72726247D02*
X97688095Y-72964342D01*
X97688095Y-72964342D02*
X97640476Y-73059580D01*
X97640476Y-73059580D02*
X97592857Y-73107200D01*
X97592857Y-73107200D02*
X97497619Y-73154819D01*
X97497619Y-73154819D02*
X97211905Y-73154819D01*
X97211905Y-73154819D02*
X97116667Y-73107200D01*
X97116667Y-73107200D02*
X97069048Y-73059580D01*
X97973810Y-72154819D02*
X98307143Y-73154819D01*
X98307143Y-73154819D02*
X98640476Y-72154819D01*
X98878572Y-73535771D02*
X98926191Y-73488152D01*
X98926191Y-73488152D02*
X99021429Y-73345295D01*
X99021429Y-73345295D02*
X99069048Y-73250057D01*
X99069048Y-73250057D02*
X99116667Y-73107200D01*
X99116667Y-73107200D02*
X99164286Y-72869104D01*
X99164286Y-72869104D02*
X99164286Y-72678628D01*
X99164286Y-72678628D02*
X99116667Y-72440533D01*
X99116667Y-72440533D02*
X99069048Y-72297676D01*
X99069048Y-72297676D02*
X99021429Y-72202438D01*
X99021429Y-72202438D02*
X98926191Y-72059580D01*
X98926191Y-72059580D02*
X98878572Y-72011961D01*
X96354819Y-97590475D02*
X96354819Y-97019047D01*
X97354819Y-97304761D02*
X96354819Y-97304761D01*
X97354819Y-96780951D02*
X96688152Y-96257142D01*
X96688152Y-96780951D02*
X97354819Y-96257142D01*
X94604819Y-97195238D02*
X94128628Y-97528571D01*
X94604819Y-97766666D02*
X93604819Y-97766666D01*
X93604819Y-97766666D02*
X93604819Y-97385714D01*
X93604819Y-97385714D02*
X93652438Y-97290476D01*
X93652438Y-97290476D02*
X93700057Y-97242857D01*
X93700057Y-97242857D02*
X93795295Y-97195238D01*
X93795295Y-97195238D02*
X93938152Y-97195238D01*
X93938152Y-97195238D02*
X94033390Y-97242857D01*
X94033390Y-97242857D02*
X94081009Y-97290476D01*
X94081009Y-97290476D02*
X94128628Y-97385714D01*
X94128628Y-97385714D02*
X94128628Y-97766666D01*
X94604819Y-96861904D02*
X93938152Y-96338095D01*
X93938152Y-96861904D02*
X94604819Y-96338095D01*
X103088095Y-90802438D02*
X102992857Y-90754819D01*
X102992857Y-90754819D02*
X102850000Y-90754819D01*
X102850000Y-90754819D02*
X102707143Y-90802438D01*
X102707143Y-90802438D02*
X102611905Y-90897676D01*
X102611905Y-90897676D02*
X102564286Y-90992914D01*
X102564286Y-90992914D02*
X102516667Y-91183390D01*
X102516667Y-91183390D02*
X102516667Y-91326247D01*
X102516667Y-91326247D02*
X102564286Y-91516723D01*
X102564286Y-91516723D02*
X102611905Y-91611961D01*
X102611905Y-91611961D02*
X102707143Y-91707200D01*
X102707143Y-91707200D02*
X102850000Y-91754819D01*
X102850000Y-91754819D02*
X102945238Y-91754819D01*
X102945238Y-91754819D02*
X103088095Y-91707200D01*
X103088095Y-91707200D02*
X103135714Y-91659580D01*
X103135714Y-91659580D02*
X103135714Y-91326247D01*
X103135714Y-91326247D02*
X102945238Y-91326247D01*
X103564286Y-91754819D02*
X103564286Y-90754819D01*
X103564286Y-90754819D02*
X104135714Y-91754819D01*
X104135714Y-91754819D02*
X104135714Y-90754819D01*
X104611905Y-91754819D02*
X104611905Y-90754819D01*
X104611905Y-90754819D02*
X104850000Y-90754819D01*
X104850000Y-90754819D02*
X104992857Y-90802438D01*
X104992857Y-90802438D02*
X105088095Y-90897676D01*
X105088095Y-90897676D02*
X105135714Y-90992914D01*
X105135714Y-90992914D02*
X105183333Y-91183390D01*
X105183333Y-91183390D02*
X105183333Y-91326247D01*
X105183333Y-91326247D02*
X105135714Y-91516723D01*
X105135714Y-91516723D02*
X105088095Y-91611961D01*
X105088095Y-91611961D02*
X104992857Y-91707200D01*
X104992857Y-91707200D02*
X104850000Y-91754819D01*
X104850000Y-91754819D02*
X104611905Y-91754819D01*
X100238095Y-96402438D02*
X100142857Y-96354819D01*
X100142857Y-96354819D02*
X100000000Y-96354819D01*
X100000000Y-96354819D02*
X99857143Y-96402438D01*
X99857143Y-96402438D02*
X99761905Y-96497676D01*
X99761905Y-96497676D02*
X99714286Y-96592914D01*
X99714286Y-96592914D02*
X99666667Y-96783390D01*
X99666667Y-96783390D02*
X99666667Y-96926247D01*
X99666667Y-96926247D02*
X99714286Y-97116723D01*
X99714286Y-97116723D02*
X99761905Y-97211961D01*
X99761905Y-97211961D02*
X99857143Y-97307200D01*
X99857143Y-97307200D02*
X100000000Y-97354819D01*
X100000000Y-97354819D02*
X100095238Y-97354819D01*
X100095238Y-97354819D02*
X100238095Y-97307200D01*
X100238095Y-97307200D02*
X100285714Y-97259580D01*
X100285714Y-97259580D02*
X100285714Y-96926247D01*
X100285714Y-96926247D02*
X100095238Y-96926247D01*
X100714286Y-97354819D02*
X100714286Y-96354819D01*
X100714286Y-96354819D02*
X101285714Y-97354819D01*
X101285714Y-97354819D02*
X101285714Y-96354819D01*
X101761905Y-97354819D02*
X101761905Y-96354819D01*
X101761905Y-96354819D02*
X102000000Y-96354819D01*
X102000000Y-96354819D02*
X102142857Y-96402438D01*
X102142857Y-96402438D02*
X102238095Y-96497676D01*
X102238095Y-96497676D02*
X102285714Y-96592914D01*
X102285714Y-96592914D02*
X102333333Y-96783390D01*
X102333333Y-96783390D02*
X102333333Y-96926247D01*
X102333333Y-96926247D02*
X102285714Y-97116723D01*
X102285714Y-97116723D02*
X102238095Y-97211961D01*
X102238095Y-97211961D02*
X102142857Y-97307200D01*
X102142857Y-97307200D02*
X102000000Y-97354819D01*
X102000000Y-97354819D02*
X101761905Y-97354819D01*
D12*
X121208646Y-61472419D02*
X121875312Y-62472419D01*
X121875312Y-61472419D02*
X121208646Y-62472419D01*
X122589598Y-61948609D02*
X122732455Y-61996228D01*
X122732455Y-61996228D02*
X122780074Y-62043847D01*
X122780074Y-62043847D02*
X122827693Y-62139085D01*
X122827693Y-62139085D02*
X122827693Y-62281942D01*
X122827693Y-62281942D02*
X122780074Y-62377180D01*
X122780074Y-62377180D02*
X122732455Y-62424800D01*
X122732455Y-62424800D02*
X122637217Y-62472419D01*
X122637217Y-62472419D02*
X122256265Y-62472419D01*
X122256265Y-62472419D02*
X122256265Y-61472419D01*
X122256265Y-61472419D02*
X122589598Y-61472419D01*
X122589598Y-61472419D02*
X122684836Y-61520038D01*
X122684836Y-61520038D02*
X122732455Y-61567657D01*
X122732455Y-61567657D02*
X122780074Y-61662895D01*
X122780074Y-61662895D02*
X122780074Y-61758133D01*
X122780074Y-61758133D02*
X122732455Y-61853371D01*
X122732455Y-61853371D02*
X122684836Y-61900990D01*
X122684836Y-61900990D02*
X122589598Y-61948609D01*
X122589598Y-61948609D02*
X122256265Y-61948609D01*
X123637217Y-62424800D02*
X123541979Y-62472419D01*
X123541979Y-62472419D02*
X123351503Y-62472419D01*
X123351503Y-62472419D02*
X123256265Y-62424800D01*
X123256265Y-62424800D02*
X123208646Y-62329561D01*
X123208646Y-62329561D02*
X123208646Y-61948609D01*
X123208646Y-61948609D02*
X123256265Y-61853371D01*
X123256265Y-61853371D02*
X123351503Y-61805752D01*
X123351503Y-61805752D02*
X123541979Y-61805752D01*
X123541979Y-61805752D02*
X123637217Y-61853371D01*
X123637217Y-61853371D02*
X123684836Y-61948609D01*
X123684836Y-61948609D02*
X123684836Y-62043847D01*
X123684836Y-62043847D02*
X123208646Y-62139085D01*
X124494360Y-62424800D02*
X124399122Y-62472419D01*
X124399122Y-62472419D02*
X124208646Y-62472419D01*
X124208646Y-62472419D02*
X124113408Y-62424800D01*
X124113408Y-62424800D02*
X124065789Y-62329561D01*
X124065789Y-62329561D02*
X124065789Y-61948609D01*
X124065789Y-61948609D02*
X124113408Y-61853371D01*
X124113408Y-61853371D02*
X124208646Y-61805752D01*
X124208646Y-61805752D02*
X124399122Y-61805752D01*
X124399122Y-61805752D02*
X124494360Y-61853371D01*
X124494360Y-61853371D02*
X124541979Y-61948609D01*
X124541979Y-61948609D02*
X124541979Y-62043847D01*
X124541979Y-62043847D02*
X124065789Y-62139085D01*
X124970551Y-62091466D02*
X125732456Y-62091466D01*
X126208646Y-62472419D02*
X126208646Y-61472419D01*
X126208646Y-61472419D02*
X126589598Y-61472419D01*
X126589598Y-61472419D02*
X126684836Y-61520038D01*
X126684836Y-61520038D02*
X126732455Y-61567657D01*
X126732455Y-61567657D02*
X126780074Y-61662895D01*
X126780074Y-61662895D02*
X126780074Y-61805752D01*
X126780074Y-61805752D02*
X126732455Y-61900990D01*
X126732455Y-61900990D02*
X126684836Y-61948609D01*
X126684836Y-61948609D02*
X126589598Y-61996228D01*
X126589598Y-61996228D02*
X126208646Y-61996228D01*
X127208646Y-62472419D02*
X127208646Y-61805752D01*
X127208646Y-61996228D02*
X127256265Y-61900990D01*
X127256265Y-61900990D02*
X127303884Y-61853371D01*
X127303884Y-61853371D02*
X127399122Y-61805752D01*
X127399122Y-61805752D02*
X127494360Y-61805752D01*
X127970551Y-62472419D02*
X127875313Y-62424800D01*
X127875313Y-62424800D02*
X127827694Y-62377180D01*
X127827694Y-62377180D02*
X127780075Y-62281942D01*
X127780075Y-62281942D02*
X127780075Y-61996228D01*
X127780075Y-61996228D02*
X127827694Y-61900990D01*
X127827694Y-61900990D02*
X127875313Y-61853371D01*
X127875313Y-61853371D02*
X127970551Y-61805752D01*
X127970551Y-61805752D02*
X128113408Y-61805752D01*
X128113408Y-61805752D02*
X128208646Y-61853371D01*
X128208646Y-61853371D02*
X128256265Y-61900990D01*
X128256265Y-61900990D02*
X128303884Y-61996228D01*
X128303884Y-61996228D02*
X128303884Y-62281942D01*
X128303884Y-62281942D02*
X128256265Y-62377180D01*
X128256265Y-62377180D02*
X128208646Y-62424800D01*
X128208646Y-62424800D02*
X128113408Y-62472419D01*
X128113408Y-62472419D02*
X127970551Y-62472419D01*
X129446742Y-62424800D02*
X129589599Y-62472419D01*
X129589599Y-62472419D02*
X129827694Y-62472419D01*
X129827694Y-62472419D02*
X129922932Y-62424800D01*
X129922932Y-62424800D02*
X129970551Y-62377180D01*
X129970551Y-62377180D02*
X130018170Y-62281942D01*
X130018170Y-62281942D02*
X130018170Y-62186704D01*
X130018170Y-62186704D02*
X129970551Y-62091466D01*
X129970551Y-62091466D02*
X129922932Y-62043847D01*
X129922932Y-62043847D02*
X129827694Y-61996228D01*
X129827694Y-61996228D02*
X129637218Y-61948609D01*
X129637218Y-61948609D02*
X129541980Y-61900990D01*
X129541980Y-61900990D02*
X129494361Y-61853371D01*
X129494361Y-61853371D02*
X129446742Y-61758133D01*
X129446742Y-61758133D02*
X129446742Y-61662895D01*
X129446742Y-61662895D02*
X129494361Y-61567657D01*
X129494361Y-61567657D02*
X129541980Y-61520038D01*
X129541980Y-61520038D02*
X129637218Y-61472419D01*
X129637218Y-61472419D02*
X129875313Y-61472419D01*
X129875313Y-61472419D02*
X130018170Y-61520038D01*
X130351504Y-61472419D02*
X131018170Y-62472419D01*
X131018170Y-61472419D02*
X130351504Y-62472419D01*
X132208647Y-62472419D02*
X132399123Y-62472419D01*
X132399123Y-62472419D02*
X132494361Y-62424800D01*
X132494361Y-62424800D02*
X132541980Y-62377180D01*
X132541980Y-62377180D02*
X132637218Y-62234323D01*
X132637218Y-62234323D02*
X132684837Y-62043847D01*
X132684837Y-62043847D02*
X132684837Y-61662895D01*
X132684837Y-61662895D02*
X132637218Y-61567657D01*
X132637218Y-61567657D02*
X132589599Y-61520038D01*
X132589599Y-61520038D02*
X132494361Y-61472419D01*
X132494361Y-61472419D02*
X132303885Y-61472419D01*
X132303885Y-61472419D02*
X132208647Y-61520038D01*
X132208647Y-61520038D02*
X132161028Y-61567657D01*
X132161028Y-61567657D02*
X132113409Y-61662895D01*
X132113409Y-61662895D02*
X132113409Y-61900990D01*
X132113409Y-61900990D02*
X132161028Y-61996228D01*
X132161028Y-61996228D02*
X132208647Y-62043847D01*
X132208647Y-62043847D02*
X132303885Y-62091466D01*
X132303885Y-62091466D02*
X132494361Y-62091466D01*
X132494361Y-62091466D02*
X132589599Y-62043847D01*
X132589599Y-62043847D02*
X132637218Y-61996228D01*
X132637218Y-61996228D02*
X132684837Y-61900990D01*
X133303885Y-61472419D02*
X133399123Y-61472419D01*
X133399123Y-61472419D02*
X133494361Y-61520038D01*
X133494361Y-61520038D02*
X133541980Y-61567657D01*
X133541980Y-61567657D02*
X133589599Y-61662895D01*
X133589599Y-61662895D02*
X133637218Y-61853371D01*
X133637218Y-61853371D02*
X133637218Y-62091466D01*
X133637218Y-62091466D02*
X133589599Y-62281942D01*
X133589599Y-62281942D02*
X133541980Y-62377180D01*
X133541980Y-62377180D02*
X133494361Y-62424800D01*
X133494361Y-62424800D02*
X133399123Y-62472419D01*
X133399123Y-62472419D02*
X133303885Y-62472419D01*
X133303885Y-62472419D02*
X133208647Y-62424800D01*
X133208647Y-62424800D02*
X133161028Y-62377180D01*
X133161028Y-62377180D02*
X133113409Y-62281942D01*
X133113409Y-62281942D02*
X133065790Y-62091466D01*
X133065790Y-62091466D02*
X133065790Y-61853371D01*
X133065790Y-61853371D02*
X133113409Y-61662895D01*
X133113409Y-61662895D02*
X133161028Y-61567657D01*
X133161028Y-61567657D02*
X133208647Y-61520038D01*
X133208647Y-61520038D02*
X133303885Y-61472419D01*
X134256266Y-61472419D02*
X134351504Y-61472419D01*
X134351504Y-61472419D02*
X134446742Y-61520038D01*
X134446742Y-61520038D02*
X134494361Y-61567657D01*
X134494361Y-61567657D02*
X134541980Y-61662895D01*
X134541980Y-61662895D02*
X134589599Y-61853371D01*
X134589599Y-61853371D02*
X134589599Y-62091466D01*
X134589599Y-62091466D02*
X134541980Y-62281942D01*
X134541980Y-62281942D02*
X134494361Y-62377180D01*
X134494361Y-62377180D02*
X134446742Y-62424800D01*
X134446742Y-62424800D02*
X134351504Y-62472419D01*
X134351504Y-62472419D02*
X134256266Y-62472419D01*
X134256266Y-62472419D02*
X134161028Y-62424800D01*
X134161028Y-62424800D02*
X134113409Y-62377180D01*
X134113409Y-62377180D02*
X134065790Y-62281942D01*
X134065790Y-62281942D02*
X134018171Y-62091466D01*
X134018171Y-62091466D02*
X134018171Y-61853371D01*
X134018171Y-61853371D02*
X134065790Y-61662895D01*
X134065790Y-61662895D02*
X134113409Y-61567657D01*
X134113409Y-61567657D02*
X134161028Y-61520038D01*
X134161028Y-61520038D02*
X134256266Y-61472419D01*
X136303885Y-62472419D02*
X135732457Y-62472419D01*
X136018171Y-62472419D02*
X136018171Y-61472419D01*
X136018171Y-61472419D02*
X135922933Y-61615276D01*
X135922933Y-61615276D02*
X135827695Y-61710514D01*
X135827695Y-61710514D02*
X135732457Y-61758133D01*
X136637219Y-61472419D02*
X136875314Y-62472419D01*
X136875314Y-62472419D02*
X137065790Y-61758133D01*
X137065790Y-61758133D02*
X137256266Y-62472419D01*
X137256266Y-62472419D02*
X137494362Y-61472419D01*
D11*
X93183333Y-67559580D02*
X93135714Y-67607200D01*
X93135714Y-67607200D02*
X92992857Y-67654819D01*
X92992857Y-67654819D02*
X92897619Y-67654819D01*
X92897619Y-67654819D02*
X92754762Y-67607200D01*
X92754762Y-67607200D02*
X92659524Y-67511961D01*
X92659524Y-67511961D02*
X92611905Y-67416723D01*
X92611905Y-67416723D02*
X92564286Y-67226247D01*
X92564286Y-67226247D02*
X92564286Y-67083390D01*
X92564286Y-67083390D02*
X92611905Y-66892914D01*
X92611905Y-66892914D02*
X92659524Y-66797676D01*
X92659524Y-66797676D02*
X92754762Y-66702438D01*
X92754762Y-66702438D02*
X92897619Y-66654819D01*
X92897619Y-66654819D02*
X92992857Y-66654819D01*
X92992857Y-66654819D02*
X93135714Y-66702438D01*
X93135714Y-66702438D02*
X93183333Y-66750057D01*
X94135714Y-67654819D02*
X93564286Y-67654819D01*
X93850000Y-67654819D02*
X93850000Y-66654819D01*
X93850000Y-66654819D02*
X93754762Y-66797676D01*
X93754762Y-66797676D02*
X93659524Y-66892914D01*
X93659524Y-66892914D02*
X93564286Y-66940533D01*
X85239580Y-83066666D02*
X85287200Y-83114285D01*
X85287200Y-83114285D02*
X85334819Y-83257142D01*
X85334819Y-83257142D02*
X85334819Y-83352380D01*
X85334819Y-83352380D02*
X85287200Y-83495237D01*
X85287200Y-83495237D02*
X85191961Y-83590475D01*
X85191961Y-83590475D02*
X85096723Y-83638094D01*
X85096723Y-83638094D02*
X84906247Y-83685713D01*
X84906247Y-83685713D02*
X84763390Y-83685713D01*
X84763390Y-83685713D02*
X84572914Y-83638094D01*
X84572914Y-83638094D02*
X84477676Y-83590475D01*
X84477676Y-83590475D02*
X84382438Y-83495237D01*
X84382438Y-83495237D02*
X84334819Y-83352380D01*
X84334819Y-83352380D02*
X84334819Y-83257142D01*
X84334819Y-83257142D02*
X84382438Y-83114285D01*
X84382438Y-83114285D02*
X84430057Y-83066666D01*
X84334819Y-82733332D02*
X84334819Y-82114285D01*
X84334819Y-82114285D02*
X84715771Y-82447618D01*
X84715771Y-82447618D02*
X84715771Y-82304761D01*
X84715771Y-82304761D02*
X84763390Y-82209523D01*
X84763390Y-82209523D02*
X84811009Y-82161904D01*
X84811009Y-82161904D02*
X84906247Y-82114285D01*
X84906247Y-82114285D02*
X85144342Y-82114285D01*
X85144342Y-82114285D02*
X85239580Y-82161904D01*
X85239580Y-82161904D02*
X85287200Y-82209523D01*
X85287200Y-82209523D02*
X85334819Y-82304761D01*
X85334819Y-82304761D02*
X85334819Y-82590475D01*
X85334819Y-82590475D02*
X85287200Y-82685713D01*
X85287200Y-82685713D02*
X85239580Y-82733332D01*
X103383333Y-69859580D02*
X103335714Y-69907200D01*
X103335714Y-69907200D02*
X103192857Y-69954819D01*
X103192857Y-69954819D02*
X103097619Y-69954819D01*
X103097619Y-69954819D02*
X102954762Y-69907200D01*
X102954762Y-69907200D02*
X102859524Y-69811961D01*
X102859524Y-69811961D02*
X102811905Y-69716723D01*
X102811905Y-69716723D02*
X102764286Y-69526247D01*
X102764286Y-69526247D02*
X102764286Y-69383390D01*
X102764286Y-69383390D02*
X102811905Y-69192914D01*
X102811905Y-69192914D02*
X102859524Y-69097676D01*
X102859524Y-69097676D02*
X102954762Y-69002438D01*
X102954762Y-69002438D02*
X103097619Y-68954819D01*
X103097619Y-68954819D02*
X103192857Y-68954819D01*
X103192857Y-68954819D02*
X103335714Y-69002438D01*
X103335714Y-69002438D02*
X103383333Y-69050057D01*
X104240476Y-69288152D02*
X104240476Y-69954819D01*
X104002381Y-68907200D02*
X103764286Y-69621485D01*
X103764286Y-69621485D02*
X104383333Y-69621485D01*
X117638095Y-61804819D02*
X117638095Y-62614342D01*
X117638095Y-62614342D02*
X117685714Y-62709580D01*
X117685714Y-62709580D02*
X117733333Y-62757200D01*
X117733333Y-62757200D02*
X117828571Y-62804819D01*
X117828571Y-62804819D02*
X118019047Y-62804819D01*
X118019047Y-62804819D02*
X118114285Y-62757200D01*
X118114285Y-62757200D02*
X118161904Y-62709580D01*
X118161904Y-62709580D02*
X118209523Y-62614342D01*
X118209523Y-62614342D02*
X118209523Y-61804819D01*
X119209523Y-62804819D02*
X118638095Y-62804819D01*
X118923809Y-62804819D02*
X118923809Y-61804819D01*
X118923809Y-61804819D02*
X118828571Y-61947676D01*
X118828571Y-61947676D02*
X118733333Y-62042914D01*
X118733333Y-62042914D02*
X118638095Y-62090533D01*
X101174819Y-94533333D02*
X101889104Y-94533333D01*
X101889104Y-94533333D02*
X102031961Y-94580952D01*
X102031961Y-94580952D02*
X102127200Y-94676190D01*
X102127200Y-94676190D02*
X102174819Y-94819047D01*
X102174819Y-94819047D02*
X102174819Y-94914285D01*
X101270057Y-94104761D02*
X101222438Y-94057142D01*
X101222438Y-94057142D02*
X101174819Y-93961904D01*
X101174819Y-93961904D02*
X101174819Y-93723809D01*
X101174819Y-93723809D02*
X101222438Y-93628571D01*
X101222438Y-93628571D02*
X101270057Y-93580952D01*
X101270057Y-93580952D02*
X101365295Y-93533333D01*
X101365295Y-93533333D02*
X101460533Y-93533333D01*
X101460533Y-93533333D02*
X101603390Y-93580952D01*
X101603390Y-93580952D02*
X102174819Y-94152380D01*
X102174819Y-94152380D02*
X102174819Y-93533333D01*
X97233333Y-80484580D02*
X97185714Y-80532200D01*
X97185714Y-80532200D02*
X97042857Y-80579819D01*
X97042857Y-80579819D02*
X96947619Y-80579819D01*
X96947619Y-80579819D02*
X96804762Y-80532200D01*
X96804762Y-80532200D02*
X96709524Y-80436961D01*
X96709524Y-80436961D02*
X96661905Y-80341723D01*
X96661905Y-80341723D02*
X96614286Y-80151247D01*
X96614286Y-80151247D02*
X96614286Y-80008390D01*
X96614286Y-80008390D02*
X96661905Y-79817914D01*
X96661905Y-79817914D02*
X96709524Y-79722676D01*
X96709524Y-79722676D02*
X96804762Y-79627438D01*
X96804762Y-79627438D02*
X96947619Y-79579819D01*
X96947619Y-79579819D02*
X97042857Y-79579819D01*
X97042857Y-79579819D02*
X97185714Y-79627438D01*
X97185714Y-79627438D02*
X97233333Y-79675057D01*
X97614286Y-79675057D02*
X97661905Y-79627438D01*
X97661905Y-79627438D02*
X97757143Y-79579819D01*
X97757143Y-79579819D02*
X97995238Y-79579819D01*
X97995238Y-79579819D02*
X98090476Y-79627438D01*
X98090476Y-79627438D02*
X98138095Y-79675057D01*
X98138095Y-79675057D02*
X98185714Y-79770295D01*
X98185714Y-79770295D02*
X98185714Y-79865533D01*
X98185714Y-79865533D02*
X98138095Y-80008390D01*
X98138095Y-80008390D02*
X97566667Y-80579819D01*
X97566667Y-80579819D02*
X98185714Y-80579819D01*
X83309580Y-75016666D02*
X83357200Y-75064285D01*
X83357200Y-75064285D02*
X83404819Y-75207142D01*
X83404819Y-75207142D02*
X83404819Y-75302380D01*
X83404819Y-75302380D02*
X83357200Y-75445237D01*
X83357200Y-75445237D02*
X83261961Y-75540475D01*
X83261961Y-75540475D02*
X83166723Y-75588094D01*
X83166723Y-75588094D02*
X82976247Y-75635713D01*
X82976247Y-75635713D02*
X82833390Y-75635713D01*
X82833390Y-75635713D02*
X82642914Y-75588094D01*
X82642914Y-75588094D02*
X82547676Y-75540475D01*
X82547676Y-75540475D02*
X82452438Y-75445237D01*
X82452438Y-75445237D02*
X82404819Y-75302380D01*
X82404819Y-75302380D02*
X82404819Y-75207142D01*
X82404819Y-75207142D02*
X82452438Y-75064285D01*
X82452438Y-75064285D02*
X82500057Y-75016666D01*
X83404819Y-74016666D02*
X82928628Y-74349999D01*
X83404819Y-74588094D02*
X82404819Y-74588094D01*
X82404819Y-74588094D02*
X82404819Y-74207142D01*
X82404819Y-74207142D02*
X82452438Y-74111904D01*
X82452438Y-74111904D02*
X82500057Y-74064285D01*
X82500057Y-74064285D02*
X82595295Y-74016666D01*
X82595295Y-74016666D02*
X82738152Y-74016666D01*
X82738152Y-74016666D02*
X82833390Y-74064285D01*
X82833390Y-74064285D02*
X82881009Y-74111904D01*
X82881009Y-74111904D02*
X82928628Y-74207142D01*
X82928628Y-74207142D02*
X82928628Y-74588094D01*
X83404819Y-73064285D02*
X83404819Y-73635713D01*
X83404819Y-73349999D02*
X82404819Y-73349999D01*
X82404819Y-73349999D02*
X82547676Y-73445237D01*
X82547676Y-73445237D02*
X82642914Y-73540475D01*
X82642914Y-73540475D02*
X82690533Y-73635713D01*
X87009580Y-90216666D02*
X87057200Y-90264285D01*
X87057200Y-90264285D02*
X87104819Y-90407142D01*
X87104819Y-90407142D02*
X87104819Y-90502380D01*
X87104819Y-90502380D02*
X87057200Y-90645237D01*
X87057200Y-90645237D02*
X86961961Y-90740475D01*
X86961961Y-90740475D02*
X86866723Y-90788094D01*
X86866723Y-90788094D02*
X86676247Y-90835713D01*
X86676247Y-90835713D02*
X86533390Y-90835713D01*
X86533390Y-90835713D02*
X86342914Y-90788094D01*
X86342914Y-90788094D02*
X86247676Y-90740475D01*
X86247676Y-90740475D02*
X86152438Y-90645237D01*
X86152438Y-90645237D02*
X86104819Y-90502380D01*
X86104819Y-90502380D02*
X86104819Y-90407142D01*
X86104819Y-90407142D02*
X86152438Y-90264285D01*
X86152438Y-90264285D02*
X86200057Y-90216666D01*
X86104819Y-89311904D02*
X86104819Y-89788094D01*
X86104819Y-89788094D02*
X86581009Y-89835713D01*
X86581009Y-89835713D02*
X86533390Y-89788094D01*
X86533390Y-89788094D02*
X86485771Y-89692856D01*
X86485771Y-89692856D02*
X86485771Y-89454761D01*
X86485771Y-89454761D02*
X86533390Y-89359523D01*
X86533390Y-89359523D02*
X86581009Y-89311904D01*
X86581009Y-89311904D02*
X86676247Y-89264285D01*
X86676247Y-89264285D02*
X86914342Y-89264285D01*
X86914342Y-89264285D02*
X87009580Y-89311904D01*
X87009580Y-89311904D02*
X87057200Y-89359523D01*
X87057200Y-89359523D02*
X87104819Y-89454761D01*
X87104819Y-89454761D02*
X87104819Y-89692856D01*
X87104819Y-89692856D02*
X87057200Y-89788094D01*
X87057200Y-89788094D02*
X87009580Y-89835713D01*
X99557142Y-69159580D02*
X99509523Y-69207200D01*
X99509523Y-69207200D02*
X99366666Y-69254819D01*
X99366666Y-69254819D02*
X99271428Y-69254819D01*
X99271428Y-69254819D02*
X99128571Y-69207200D01*
X99128571Y-69207200D02*
X99033333Y-69111961D01*
X99033333Y-69111961D02*
X98985714Y-69016723D01*
X98985714Y-69016723D02*
X98938095Y-68826247D01*
X98938095Y-68826247D02*
X98938095Y-68683390D01*
X98938095Y-68683390D02*
X98985714Y-68492914D01*
X98985714Y-68492914D02*
X99033333Y-68397676D01*
X99033333Y-68397676D02*
X99128571Y-68302438D01*
X99128571Y-68302438D02*
X99271428Y-68254819D01*
X99271428Y-68254819D02*
X99366666Y-68254819D01*
X99366666Y-68254819D02*
X99509523Y-68302438D01*
X99509523Y-68302438D02*
X99557142Y-68350057D01*
X100509523Y-69254819D02*
X99938095Y-69254819D01*
X100223809Y-69254819D02*
X100223809Y-68254819D01*
X100223809Y-68254819D02*
X100128571Y-68397676D01*
X100128571Y-68397676D02*
X100033333Y-68492914D01*
X100033333Y-68492914D02*
X99938095Y-68540533D01*
X101128571Y-68254819D02*
X101223809Y-68254819D01*
X101223809Y-68254819D02*
X101319047Y-68302438D01*
X101319047Y-68302438D02*
X101366666Y-68350057D01*
X101366666Y-68350057D02*
X101414285Y-68445295D01*
X101414285Y-68445295D02*
X101461904Y-68635771D01*
X101461904Y-68635771D02*
X101461904Y-68873866D01*
X101461904Y-68873866D02*
X101414285Y-69064342D01*
X101414285Y-69064342D02*
X101366666Y-69159580D01*
X101366666Y-69159580D02*
X101319047Y-69207200D01*
X101319047Y-69207200D02*
X101223809Y-69254819D01*
X101223809Y-69254819D02*
X101128571Y-69254819D01*
X101128571Y-69254819D02*
X101033333Y-69207200D01*
X101033333Y-69207200D02*
X100985714Y-69159580D01*
X100985714Y-69159580D02*
X100938095Y-69064342D01*
X100938095Y-69064342D02*
X100890476Y-68873866D01*
X100890476Y-68873866D02*
X100890476Y-68635771D01*
X100890476Y-68635771D02*
X100938095Y-68445295D01*
X100938095Y-68445295D02*
X100985714Y-68350057D01*
X100985714Y-68350057D02*
X101033333Y-68302438D01*
X101033333Y-68302438D02*
X101128571Y-68254819D01*
X88751009Y-87833333D02*
X88751009Y-88166666D01*
X89274819Y-88166666D02*
X88274819Y-88166666D01*
X88274819Y-88166666D02*
X88274819Y-87690476D01*
X88751009Y-86976190D02*
X88798628Y-86833333D01*
X88798628Y-86833333D02*
X88846247Y-86785714D01*
X88846247Y-86785714D02*
X88941485Y-86738095D01*
X88941485Y-86738095D02*
X89084342Y-86738095D01*
X89084342Y-86738095D02*
X89179580Y-86785714D01*
X89179580Y-86785714D02*
X89227200Y-86833333D01*
X89227200Y-86833333D02*
X89274819Y-86928571D01*
X89274819Y-86928571D02*
X89274819Y-87309523D01*
X89274819Y-87309523D02*
X88274819Y-87309523D01*
X88274819Y-87309523D02*
X88274819Y-86976190D01*
X88274819Y-86976190D02*
X88322438Y-86880952D01*
X88322438Y-86880952D02*
X88370057Y-86833333D01*
X88370057Y-86833333D02*
X88465295Y-86785714D01*
X88465295Y-86785714D02*
X88560533Y-86785714D01*
X88560533Y-86785714D02*
X88655771Y-86833333D01*
X88655771Y-86833333D02*
X88703390Y-86880952D01*
X88703390Y-86880952D02*
X88751009Y-86976190D01*
X88751009Y-86976190D02*
X88751009Y-87309523D01*
X89274819Y-85785714D02*
X89274819Y-86357142D01*
X89274819Y-86071428D02*
X88274819Y-86071428D01*
X88274819Y-86071428D02*
X88417676Y-86166666D01*
X88417676Y-86166666D02*
X88512914Y-86261904D01*
X88512914Y-86261904D02*
X88560533Y-86357142D01*
X93934580Y-83641666D02*
X93982200Y-83689285D01*
X93982200Y-83689285D02*
X94029819Y-83832142D01*
X94029819Y-83832142D02*
X94029819Y-83927380D01*
X94029819Y-83927380D02*
X93982200Y-84070237D01*
X93982200Y-84070237D02*
X93886961Y-84165475D01*
X93886961Y-84165475D02*
X93791723Y-84213094D01*
X93791723Y-84213094D02*
X93601247Y-84260713D01*
X93601247Y-84260713D02*
X93458390Y-84260713D01*
X93458390Y-84260713D02*
X93267914Y-84213094D01*
X93267914Y-84213094D02*
X93172676Y-84165475D01*
X93172676Y-84165475D02*
X93077438Y-84070237D01*
X93077438Y-84070237D02*
X93029819Y-83927380D01*
X93029819Y-83927380D02*
X93029819Y-83832142D01*
X93029819Y-83832142D02*
X93077438Y-83689285D01*
X93077438Y-83689285D02*
X93125057Y-83641666D01*
X93029819Y-82784523D02*
X93029819Y-82974999D01*
X93029819Y-82974999D02*
X93077438Y-83070237D01*
X93077438Y-83070237D02*
X93125057Y-83117856D01*
X93125057Y-83117856D02*
X93267914Y-83213094D01*
X93267914Y-83213094D02*
X93458390Y-83260713D01*
X93458390Y-83260713D02*
X93839342Y-83260713D01*
X93839342Y-83260713D02*
X93934580Y-83213094D01*
X93934580Y-83213094D02*
X93982200Y-83165475D01*
X93982200Y-83165475D02*
X94029819Y-83070237D01*
X94029819Y-83070237D02*
X94029819Y-82879761D01*
X94029819Y-82879761D02*
X93982200Y-82784523D01*
X93982200Y-82784523D02*
X93934580Y-82736904D01*
X93934580Y-82736904D02*
X93839342Y-82689285D01*
X93839342Y-82689285D02*
X93601247Y-82689285D01*
X93601247Y-82689285D02*
X93506009Y-82736904D01*
X93506009Y-82736904D02*
X93458390Y-82784523D01*
X93458390Y-82784523D02*
X93410771Y-82879761D01*
X93410771Y-82879761D02*
X93410771Y-83070237D01*
X93410771Y-83070237D02*
X93458390Y-83165475D01*
X93458390Y-83165475D02*
X93506009Y-83213094D01*
X93506009Y-83213094D02*
X93601247Y-83260713D01*
D13*
X94185000Y-70061252D02*
X94185000Y-69538748D01*
X92715000Y-70061252D02*
X92715000Y-69538748D01*
X87761252Y-83685000D02*
X87238748Y-83685000D01*
X87761252Y-82215000D02*
X87238748Y-82215000D01*
X103040000Y-71909420D02*
X103040000Y-72190580D01*
X104060000Y-71909420D02*
X104060000Y-72190580D01*
D14*
G36*
X102328719Y-77888831D02*
G01*
X102380080Y-78032654D01*
X102423901Y-78178210D01*
X102459712Y-78323802D01*
X102483974Y-78449105D01*
X102507213Y-78614762D01*
X102521095Y-78780243D01*
X102525642Y-78945306D01*
X102520876Y-79109710D01*
X102506821Y-79273213D01*
X102483497Y-79435575D01*
X102450929Y-79596553D01*
X102409137Y-79755906D01*
X102358146Y-79913392D01*
X102344340Y-79951428D01*
X102339764Y-79963967D01*
X102332278Y-79984738D01*
X102322002Y-80013401D01*
X102309057Y-80049616D01*
X102293563Y-80093042D01*
X102275641Y-80143339D01*
X102255412Y-80200167D01*
X102232995Y-80263186D01*
X102208512Y-80332054D01*
X102182083Y-80406433D01*
X102153828Y-80485981D01*
X102123869Y-80570358D01*
X102092325Y-80659224D01*
X102059317Y-80752238D01*
X102024966Y-80849061D01*
X101989391Y-80949352D01*
X101952715Y-81052770D01*
X101915057Y-81158976D01*
X101876537Y-81267628D01*
X101837277Y-81378387D01*
X101797396Y-81490913D01*
X101757016Y-81604865D01*
X101716256Y-81719902D01*
X101675238Y-81835685D01*
X101634082Y-81951873D01*
X101592909Y-82068126D01*
X101551838Y-82184103D01*
X101510991Y-82299464D01*
X101470487Y-82413869D01*
X101430449Y-82526978D01*
X101390995Y-82638450D01*
X101352247Y-82747945D01*
X101314325Y-82855122D01*
X101277350Y-82959642D01*
X101241442Y-83061163D01*
X101206721Y-83159346D01*
X101173309Y-83253851D01*
X101141326Y-83344336D01*
X101110892Y-83430463D01*
X101082127Y-83511889D01*
X101055154Y-83588276D01*
X101030091Y-83659282D01*
X101007059Y-83724568D01*
X100986179Y-83783793D01*
X100967572Y-83836617D01*
X100951358Y-83882699D01*
X100937657Y-83921700D01*
X100926590Y-83953278D01*
X100918278Y-83977094D01*
X100912841Y-83992807D01*
X100910400Y-84000077D01*
X100910270Y-84000558D01*
X100911673Y-84008769D01*
X100915334Y-84023515D01*
X100920744Y-84043147D01*
X100927395Y-84066018D01*
X100934776Y-84090480D01*
X100942379Y-84114885D01*
X100949695Y-84137585D01*
X100956215Y-84156933D01*
X100961430Y-84171281D01*
X100964830Y-84178980D01*
X100965656Y-84179834D01*
X100971781Y-84178142D01*
X100984962Y-84174286D01*
X101003238Y-84168846D01*
X101023874Y-84162633D01*
X101119470Y-84137006D01*
X101217023Y-84117532D01*
X101317837Y-84104054D01*
X101423219Y-84096412D01*
X101534475Y-84094448D01*
X101579294Y-84095176D01*
X101689304Y-84099499D01*
X101790652Y-84106757D01*
X101883645Y-84116980D01*
X101968586Y-84130200D01*
X102012835Y-84138942D01*
X102137793Y-84170483D01*
X102259937Y-84210830D01*
X102378898Y-84259686D01*
X102494309Y-84316756D01*
X102605802Y-84381743D01*
X102713009Y-84454351D01*
X102815562Y-84534285D01*
X102913092Y-84621247D01*
X103005233Y-84714942D01*
X103091615Y-84815073D01*
X103171871Y-84921345D01*
X103245633Y-85033462D01*
X103312534Y-85151126D01*
X103341445Y-85208145D01*
X103381319Y-85296955D01*
X103415582Y-85388800D01*
X103444520Y-85484754D01*
X103468419Y-85585889D01*
X103487565Y-85693280D01*
X103502245Y-85807999D01*
X103502840Y-85813692D01*
X103504702Y-85837380D01*
X103506235Y-85868342D01*
X103507439Y-85905101D01*
X103508314Y-85946185D01*
X103508861Y-85990118D01*
X103509079Y-86035427D01*
X103508967Y-86080636D01*
X103508527Y-86124272D01*
X103507758Y-86164859D01*
X103506660Y-86200924D01*
X103505233Y-86230992D01*
X103503478Y-86253589D01*
X103502844Y-86259017D01*
X103487312Y-86363320D01*
X103468788Y-86460703D01*
X103446634Y-86553286D01*
X103420212Y-86643190D01*
X103388883Y-86732537D01*
X103352009Y-86823449D01*
X103308953Y-86918047D01*
X103297246Y-86942319D01*
X103229297Y-87072866D01*
X103154575Y-87199835D01*
X103073644Y-87322544D01*
X102987068Y-87440312D01*
X102895410Y-87552456D01*
X102799234Y-87658294D01*
X102699104Y-87757143D01*
X102595584Y-87848323D01*
X102489236Y-87931150D01*
X102466632Y-87947394D01*
X102428651Y-87972889D01*
X102383372Y-88000921D01*
X102332306Y-88030682D01*
X102276968Y-88061363D01*
X102218869Y-88092156D01*
X102159523Y-88122254D01*
X102100442Y-88150849D01*
X102043139Y-88177132D01*
X102007565Y-88192593D01*
X101859524Y-88251905D01*
X101707203Y-88306072D01*
X101550147Y-88355192D01*
X101387896Y-88399363D01*
X101219993Y-88438685D01*
X101045982Y-88473255D01*
X100865404Y-88503173D01*
X100677801Y-88528538D01*
X100482717Y-88549447D01*
X100279693Y-88566000D01*
X100273951Y-88566398D01*
X100244343Y-88567995D01*
X100206732Y-88569322D01*
X100162539Y-88570378D01*
X100113181Y-88571165D01*
X100060078Y-88571680D01*
X100004648Y-88571925D01*
X99948311Y-88571899D01*
X99892485Y-88571602D01*
X99838589Y-88571033D01*
X99788043Y-88570193D01*
X99742264Y-88569081D01*
X99702673Y-88567697D01*
X99677829Y-88566477D01*
X99579319Y-88560113D01*
X99473153Y-88551990D01*
X99360900Y-88542271D01*
X99244132Y-88531115D01*
X99124418Y-88518687D01*
X99003329Y-88505146D01*
X98882436Y-88490654D01*
X98763309Y-88475374D01*
X98672996Y-88463063D01*
X98643637Y-88458951D01*
X98614294Y-88551229D01*
X98599915Y-88596049D01*
X98583401Y-88646824D01*
X98565171Y-88702317D01*
X98545643Y-88761291D01*
X98525233Y-88822511D01*
X98504359Y-88884739D01*
X98483438Y-88946739D01*
X98462887Y-89007273D01*
X98443125Y-89065107D01*
X98424568Y-89119002D01*
X98407633Y-89167722D01*
X98392738Y-89210032D01*
X98380301Y-89244693D01*
X98379571Y-89246697D01*
X98329787Y-89380750D01*
X98281028Y-89506880D01*
X98232714Y-89626456D01*
X98184267Y-89740842D01*
X98135108Y-89851406D01*
X98084660Y-89959513D01*
X98032867Y-90065482D01*
X98017757Y-90095838D01*
X98004218Y-90123251D01*
X97992771Y-90146650D01*
X97983936Y-90164966D01*
X97978233Y-90177126D01*
X97976183Y-90182059D01*
X97976205Y-90182115D01*
X97979950Y-90178529D01*
X97988592Y-90168449D01*
X98001335Y-90152893D01*
X98017382Y-90132880D01*
X98035938Y-90109426D01*
X98056207Y-90083550D01*
X98077392Y-90056270D01*
X98098699Y-90028603D01*
X98119330Y-90001567D01*
X98138490Y-89976180D01*
X98155384Y-89953461D01*
X98160949Y-89945867D01*
X98194590Y-89899155D01*
X98228551Y-89850772D01*
X98263269Y-89800040D01*
X98299181Y-89746279D01*
X98336723Y-89688808D01*
X98376332Y-89626949D01*
X98418444Y-89560020D01*
X98463496Y-89487342D01*
X98511925Y-89408236D01*
X98564167Y-89322021D01*
X98602398Y-89258479D01*
X98625825Y-89219478D01*
X98647795Y-89182973D01*
X98667829Y-89149753D01*
X98685448Y-89120609D01*
X98700174Y-89096332D01*
X98711527Y-89077712D01*
X98719029Y-89065542D01*
X98722201Y-89060610D01*
X98722248Y-89060556D01*
X98723129Y-89059848D01*
X98723503Y-89060332D01*
X98723100Y-89062952D01*
X98721650Y-89068653D01*
X98718879Y-89078381D01*
X98714518Y-89093080D01*
X98708294Y-89113695D01*
X98699936Y-89141172D01*
X98689174Y-89176455D01*
X98685714Y-89187792D01*
X98635610Y-89346897D01*
X98584991Y-89497425D01*
X98533528Y-89640224D01*
X98480896Y-89776141D01*
X98426766Y-89906023D01*
X98370810Y-90030717D01*
X98314849Y-90146772D01*
X98289330Y-90197033D01*
X98260798Y-90251737D01*
X98230259Y-90309053D01*
X98198715Y-90367149D01*
X98167170Y-90424195D01*
X98136630Y-90478358D01*
X98108097Y-90527809D01*
X98082575Y-90570715D01*
X98081036Y-90573247D01*
X97993534Y-90710100D01*
X97902326Y-90839288D01*
X97807617Y-90960579D01*
X97709612Y-91073737D01*
X97608515Y-91178528D01*
X97504528Y-91274720D01*
X97397858Y-91362078D01*
X97382875Y-91373474D01*
X97345457Y-91400961D01*
X97303291Y-91430720D01*
X97258175Y-91461568D01*
X97211909Y-91492323D01*
X97166290Y-91521803D01*
X97123116Y-91548825D01*
X97084186Y-91572206D01*
X97057618Y-91587325D01*
X96936910Y-91648536D01*
X96811105Y-91702279D01*
X96681359Y-91748138D01*
X96548828Y-91785695D01*
X96439557Y-91809877D01*
X96389076Y-91819177D01*
X96342494Y-91826639D01*
X96297700Y-91832459D01*
X96252579Y-91836830D01*
X96205018Y-91839948D01*
X96152904Y-91842006D01*
X96094122Y-91843200D01*
X96075176Y-91843415D01*
X96036013Y-91843637D01*
X95997536Y-91843561D01*
X95961399Y-91843212D01*
X95929254Y-91842616D01*
X95902752Y-91841798D01*
X95883546Y-91840781D01*
X95879610Y-91840456D01*
X95831012Y-91835407D01*
X95781189Y-91829162D01*
X95729013Y-91821526D01*
X95673360Y-91812303D01*
X95613101Y-91801295D01*
X95547110Y-91788308D01*
X95474261Y-91773143D01*
X95396586Y-91756303D01*
X95303283Y-91734439D01*
X95217552Y-91711469D01*
X95137550Y-91686754D01*
X95061438Y-91659660D01*
X94987372Y-91629551D01*
X94913512Y-91595790D01*
X94871150Y-91574847D01*
X94755965Y-91511870D01*
X94648464Y-91443569D01*
X94548416Y-91369732D01*
X94455586Y-91290151D01*
X94369743Y-91204614D01*
X94290655Y-91112911D01*
X94218087Y-91014832D01*
X94169581Y-90939877D01*
X94145186Y-90898618D01*
X94119483Y-90852745D01*
X94093889Y-90804942D01*
X94069819Y-90757892D01*
X94048691Y-90714278D01*
X94037453Y-90689602D01*
X93991804Y-90574600D01*
X93954357Y-90455647D01*
X93925090Y-90333391D01*
X93903981Y-90208481D01*
X93891005Y-90081567D01*
X93886654Y-89966831D01*
X94667047Y-89966831D01*
X94667836Y-90024249D01*
X94669224Y-90056711D01*
X94671218Y-90089987D01*
X94673615Y-90121344D01*
X94676213Y-90148046D01*
X94678154Y-90163265D01*
X94697163Y-90259673D01*
X94724797Y-90352318D01*
X94761009Y-90441133D01*
X94805753Y-90526049D01*
X94858983Y-90606997D01*
X94920652Y-90683909D01*
X94990715Y-90756716D01*
X95069124Y-90825350D01*
X95155835Y-90889742D01*
X95179814Y-90905833D01*
X95229317Y-90937379D01*
X95277026Y-90965559D01*
X95325135Y-90991498D01*
X95375835Y-91016324D01*
X95431319Y-91041164D01*
X95493190Y-91066907D01*
X95561240Y-91093440D01*
X95623365Y-91115462D01*
X95681603Y-91133503D01*
X95737994Y-91148095D01*
X95794575Y-91159768D01*
X95853386Y-91169051D01*
X95912965Y-91176119D01*
X95943053Y-91178292D01*
X95979807Y-91179491D01*
X96021097Y-91179775D01*
X96064788Y-91179202D01*
X96108751Y-91177828D01*
X96150853Y-91175712D01*
X96188962Y-91172912D01*
X96220947Y-91169485D01*
X96234943Y-91167390D01*
X96347702Y-91143395D01*
X96457591Y-91110564D01*
X96564775Y-91068825D01*
X96669415Y-91018105D01*
X96771677Y-90958333D01*
X96871724Y-90889436D01*
X96878645Y-90884273D01*
X96926090Y-90847640D01*
X96971935Y-90809965D01*
X97016570Y-90770758D01*
X97060388Y-90729529D01*
X97103778Y-90685787D01*
X97147131Y-90639042D01*
X97190838Y-90588804D01*
X97235291Y-90534583D01*
X97280879Y-90475888D01*
X97327993Y-90412228D01*
X97377025Y-90343114D01*
X97428365Y-90268056D01*
X97482404Y-90186562D01*
X97539533Y-90098144D01*
X97600142Y-90002309D01*
X97664623Y-89898569D01*
X97665583Y-89897013D01*
X97677264Y-89878163D01*
X97856474Y-89878163D01*
X97858831Y-89880519D01*
X97861187Y-89878163D01*
X97858831Y-89875807D01*
X97856474Y-89878163D01*
X97677264Y-89878163D01*
X97696744Y-89846729D01*
X97728141Y-89796500D01*
X97759376Y-89746935D01*
X97790048Y-89698643D01*
X97819758Y-89652234D01*
X97848108Y-89608318D01*
X97874698Y-89567504D01*
X97899128Y-89530403D01*
X97920999Y-89497623D01*
X97939912Y-89469775D01*
X97955468Y-89447468D01*
X97967267Y-89431311D01*
X97974911Y-89421915D01*
X97977999Y-89419889D01*
X97978024Y-89419979D01*
X97977498Y-89427717D01*
X97974711Y-89443386D01*
X97969954Y-89465840D01*
X97963517Y-89493937D01*
X97955691Y-89526534D01*
X97946767Y-89562487D01*
X97937035Y-89600654D01*
X97926786Y-89639890D01*
X97916311Y-89679052D01*
X97905901Y-89716998D01*
X97895847Y-89752584D01*
X97886438Y-89784667D01*
X97879653Y-89806787D01*
X97872793Y-89829116D01*
X97867304Y-89848011D01*
X97863656Y-89861773D01*
X97862318Y-89868701D01*
X97862405Y-89869171D01*
X97865177Y-89865808D01*
X97871907Y-89855185D01*
X97882021Y-89838304D01*
X97894948Y-89816170D01*
X97910114Y-89789785D01*
X97926946Y-89760154D01*
X97944873Y-89728279D01*
X97963320Y-89695166D01*
X97981716Y-89661817D01*
X97999487Y-89629236D01*
X98002489Y-89623692D01*
X98019642Y-89591472D01*
X98040178Y-89552074D01*
X98063433Y-89506830D01*
X98088739Y-89457074D01*
X98115431Y-89404137D01*
X98142842Y-89349351D01*
X98170306Y-89294050D01*
X98197157Y-89239566D01*
X98222729Y-89187231D01*
X98246356Y-89138377D01*
X98267372Y-89094338D01*
X98271483Y-89085631D01*
X98286702Y-89053168D01*
X98303905Y-89016193D01*
X98322738Y-88975492D01*
X98342842Y-88931851D01*
X98363862Y-88886055D01*
X98385442Y-88838891D01*
X98407226Y-88791145D01*
X98428856Y-88743603D01*
X98449977Y-88697050D01*
X98470232Y-88652274D01*
X98489265Y-88610059D01*
X98506721Y-88571193D01*
X98522241Y-88536460D01*
X98535471Y-88506648D01*
X98546054Y-88482542D01*
X98553634Y-88464927D01*
X98557853Y-88454591D01*
X98558626Y-88452167D01*
X98553977Y-88449174D01*
X98540246Y-88445675D01*
X98517764Y-88441710D01*
X98486858Y-88437320D01*
X98447856Y-88432544D01*
X98401088Y-88427423D01*
X98346881Y-88421997D01*
X98285565Y-88416307D01*
X98218515Y-88410481D01*
X98068981Y-88398414D01*
X97928131Y-88388181D01*
X97795411Y-88379761D01*
X97670266Y-88373133D01*
X97552140Y-88368275D01*
X97440477Y-88365168D01*
X97334722Y-88363790D01*
X97234320Y-88364120D01*
X97138715Y-88366137D01*
X97088348Y-88367943D01*
X96945572Y-88374968D01*
X96811232Y-88383997D01*
X96684522Y-88395184D01*
X96564637Y-88408682D01*
X96450770Y-88424645D01*
X96342115Y-88443227D01*
X96237868Y-88464583D01*
X96137222Y-88488865D01*
X96039371Y-88516227D01*
X95943510Y-88546824D01*
X95848833Y-88580810D01*
X95754534Y-88618337D01*
X95735881Y-88626183D01*
X95702469Y-88640819D01*
X95663551Y-88658632D01*
X95620961Y-88678718D01*
X95576534Y-88700174D01*
X95532106Y-88722099D01*
X95489511Y-88743589D01*
X95450585Y-88763741D01*
X95417162Y-88781653D01*
X95397887Y-88792454D01*
X95304952Y-88849600D01*
X95216493Y-88911377D01*
X95133343Y-88977044D01*
X95056336Y-89045857D01*
X94986309Y-89117074D01*
X94924093Y-89189954D01*
X94874039Y-89258479D01*
X94820331Y-89346956D01*
X94774476Y-89440385D01*
X94736591Y-89538338D01*
X94706790Y-89640387D01*
X94685189Y-89746104D01*
X94671903Y-89855061D01*
X94667047Y-89966831D01*
X93886654Y-89966831D01*
X93886141Y-89953297D01*
X93889366Y-89824320D01*
X93900655Y-89695284D01*
X93919988Y-89566840D01*
X93947340Y-89439635D01*
X93982689Y-89314319D01*
X94026012Y-89191541D01*
X94077286Y-89071949D01*
X94095908Y-89033371D01*
X94159160Y-88916594D01*
X94230651Y-88804367D01*
X94310344Y-88696731D01*
X94398202Y-88593726D01*
X94494189Y-88495392D01*
X94598267Y-88401769D01*
X94710400Y-88312898D01*
X94830552Y-88228820D01*
X94831094Y-88228463D01*
X94934108Y-88164391D01*
X95044882Y-88102291D01*
X95161841Y-88042833D01*
X95283409Y-87986690D01*
X95408011Y-87934530D01*
X95534073Y-87887027D01*
X95660019Y-87844851D01*
X95784275Y-87808673D01*
X95863116Y-87788756D01*
X95976922Y-87763910D01*
X96093093Y-87742746D01*
X96212324Y-87725219D01*
X96335314Y-87711288D01*
X96462759Y-87700908D01*
X96595354Y-87694036D01*
X96733798Y-87690630D01*
X96878785Y-87690645D01*
X97031014Y-87694039D01*
X97191180Y-87700768D01*
X97239146Y-87703333D01*
X97266597Y-87704850D01*
X97301178Y-87706730D01*
X97340604Y-87708852D01*
X97382593Y-87711094D01*
X97424861Y-87713332D01*
X97460630Y-87715210D01*
X97514577Y-87718087D01*
X97567937Y-87721057D01*
X97621318Y-87724164D01*
X97675328Y-87727455D01*
X97730573Y-87730974D01*
X97787661Y-87734765D01*
X97847199Y-87738875D01*
X97909794Y-87743347D01*
X97976054Y-87748228D01*
X98046585Y-87753562D01*
X98121996Y-87759393D01*
X98202892Y-87765768D01*
X98289882Y-87772730D01*
X98383573Y-87780326D01*
X98484572Y-87788599D01*
X98593486Y-87797596D01*
X98710923Y-87807360D01*
X98763617Y-87811758D01*
X98886774Y-87822025D01*
X99001050Y-87831497D01*
X99106954Y-87840206D01*
X99204995Y-87848184D01*
X99295680Y-87855462D01*
X99379518Y-87862071D01*
X99457017Y-87868042D01*
X99528685Y-87873408D01*
X99595031Y-87878198D01*
X99656563Y-87882446D01*
X99713790Y-87886181D01*
X99767219Y-87889435D01*
X99817359Y-87892241D01*
X99864718Y-87894628D01*
X99909804Y-87896629D01*
X99953126Y-87898275D01*
X99995193Y-87899597D01*
X100036511Y-87900626D01*
X100077591Y-87901395D01*
X100118939Y-87901933D01*
X100161064Y-87902274D01*
X100204475Y-87902447D01*
X100233895Y-87902485D01*
X100342407Y-87901851D01*
X100443172Y-87899776D01*
X100537777Y-87896139D01*
X100627806Y-87890819D01*
X100714847Y-87883695D01*
X100800483Y-87874645D01*
X100886302Y-87863549D01*
X100973888Y-87850284D01*
X101022698Y-87842139D01*
X101182605Y-87811154D01*
X101335052Y-87774442D01*
X101480077Y-87731990D01*
X101617717Y-87683781D01*
X101748010Y-87629802D01*
X101870991Y-87570038D01*
X101986700Y-87504475D01*
X102095172Y-87433099D01*
X102124470Y-87411908D01*
X102181761Y-87368082D01*
X102236213Y-87323101D01*
X102290015Y-87275042D01*
X102345354Y-87221984D01*
X102378177Y-87189018D01*
X102453316Y-87109727D01*
X102526006Y-87027320D01*
X102597618Y-86940148D01*
X102669524Y-86846566D01*
X102714962Y-86784453D01*
X102758006Y-86718405D01*
X102795141Y-86648002D01*
X102826516Y-86572712D01*
X102852276Y-86492004D01*
X102872570Y-86405344D01*
X102887545Y-86312201D01*
X102897347Y-86212043D01*
X102902044Y-86108059D01*
X102901756Y-85985613D01*
X102895305Y-85869905D01*
X102882708Y-85761018D01*
X102863976Y-85659034D01*
X102839125Y-85564035D01*
X102808168Y-85476103D01*
X102786780Y-85427005D01*
X102742897Y-85343418D01*
X102690267Y-85260279D01*
X102629568Y-85178265D01*
X102561475Y-85098051D01*
X102486664Y-85020311D01*
X102405811Y-84945721D01*
X102319591Y-84874957D01*
X102228682Y-84808694D01*
X102133759Y-84747606D01*
X102069759Y-84710738D01*
X101988434Y-84669229D01*
X101908090Y-84634975D01*
X101827273Y-84607620D01*
X101744530Y-84586806D01*
X101658407Y-84572178D01*
X101567450Y-84563377D01*
X101470206Y-84560047D01*
X101455658Y-84559997D01*
X101404372Y-84560400D01*
X101359636Y-84561744D01*
X101318602Y-84564258D01*
X101278422Y-84568171D01*
X101236249Y-84573710D01*
X101189233Y-84581107D01*
X101185806Y-84581680D01*
X101152196Y-84587345D01*
X101126768Y-84591772D01*
X101108405Y-84595269D01*
X101095994Y-84598144D01*
X101088419Y-84600706D01*
X101084564Y-84603264D01*
X101083314Y-84606126D01*
X101083554Y-84609602D01*
X101083611Y-84609960D01*
X101085082Y-84615682D01*
X101088960Y-84629849D01*
X101095069Y-84651840D01*
X101103235Y-84681034D01*
X101113284Y-84716811D01*
X101125039Y-84758550D01*
X101138327Y-84805631D01*
X101152972Y-84857435D01*
X101168799Y-84913339D01*
X101185635Y-84972724D01*
X101203303Y-85034970D01*
X101215017Y-85076197D01*
X101236555Y-85152035D01*
X101255634Y-85219374D01*
X101272403Y-85278771D01*
X101287010Y-85330785D01*
X101299601Y-85375972D01*
X101310326Y-85414891D01*
X101319332Y-85448100D01*
X101326768Y-85476156D01*
X101332781Y-85499617D01*
X101337519Y-85519041D01*
X101341131Y-85534986D01*
X101343765Y-85548009D01*
X101345567Y-85558668D01*
X101346687Y-85567521D01*
X101347238Y-85574479D01*
X101347697Y-85599764D01*
X101346393Y-85622710D01*
X101343922Y-85638097D01*
X101341716Y-85645098D01*
X101336548Y-85660426D01*
X101328585Y-85683610D01*
X101317994Y-85714177D01*
X101304942Y-85751656D01*
X101289597Y-85795574D01*
X101272125Y-85845459D01*
X101252693Y-85900840D01*
X101231469Y-85961245D01*
X101208619Y-86026202D01*
X101184311Y-86095238D01*
X101158711Y-86167883D01*
X101131986Y-86243663D01*
X101104304Y-86322107D01*
X101075831Y-86402743D01*
X101046734Y-86485099D01*
X101017181Y-86568704D01*
X100987338Y-86653084D01*
X100957373Y-86737769D01*
X100927453Y-86822286D01*
X100897744Y-86906163D01*
X100868413Y-86988929D01*
X100839628Y-87070112D01*
X100811555Y-87149238D01*
X100784362Y-87225838D01*
X100758216Y-87299438D01*
X100733283Y-87369567D01*
X100709731Y-87435752D01*
X100687727Y-87497522D01*
X100667437Y-87554405D01*
X100649028Y-87605930D01*
X100632669Y-87651623D01*
X100618525Y-87691013D01*
X100606763Y-87723628D01*
X100597552Y-87748996D01*
X100591057Y-87766646D01*
X100587446Y-87776104D01*
X100586785Y-87777597D01*
X100577762Y-87786737D01*
X100567413Y-87786789D01*
X100562412Y-87784207D01*
X100560087Y-87779430D01*
X100554639Y-87766312D01*
X100546256Y-87745340D01*
X100535124Y-87716999D01*
X100521428Y-87681775D01*
X100505354Y-87640153D01*
X100487089Y-87592618D01*
X100466819Y-87539657D01*
X100444730Y-87481753D01*
X100421007Y-87419394D01*
X100395838Y-87353065D01*
X100369407Y-87283250D01*
X100341902Y-87210435D01*
X100313508Y-87135107D01*
X100306604Y-87116768D01*
X100278033Y-87040872D01*
X100250336Y-86967341D01*
X100223699Y-86896664D01*
X100198307Y-86829328D01*
X100174342Y-86765820D01*
X100151991Y-86706628D01*
X100131436Y-86652242D01*
X100112864Y-86603147D01*
X100096458Y-86559832D01*
X100082403Y-86522786D01*
X100070883Y-86492495D01*
X100062083Y-86469448D01*
X100056187Y-86454132D01*
X100053380Y-86447036D01*
X100053188Y-86446613D01*
X100050809Y-86449426D01*
X100045543Y-86460847D01*
X100037513Y-86480553D01*
X100026843Y-86508219D01*
X100013655Y-86543524D01*
X99998072Y-86586142D01*
X99980218Y-86635751D01*
X99965149Y-86678089D01*
X99880783Y-86916127D01*
X99629470Y-87221394D01*
X99591071Y-87268021D01*
X99554304Y-87312635D01*
X99519621Y-87354688D01*
X99487476Y-87393633D01*
X99458323Y-87428922D01*
X99432612Y-87460007D01*
X99410799Y-87486341D01*
X99393334Y-87507375D01*
X99380672Y-87522562D01*
X99373266Y-87531354D01*
X99371517Y-87533349D01*
X99369448Y-87534171D01*
X99365322Y-87534081D01*
X99358623Y-87532905D01*
X99348831Y-87530472D01*
X99335431Y-87526609D01*
X99317904Y-87521145D01*
X99295732Y-87513907D01*
X99268398Y-87504724D01*
X99235385Y-87493422D01*
X99196175Y-87479831D01*
X99150251Y-87463778D01*
X99097094Y-87445092D01*
X99036188Y-87423599D01*
X98967015Y-87399127D01*
X98954440Y-87394675D01*
X98894670Y-87373474D01*
X98837347Y-87353080D01*
X98783106Y-87333722D01*
X98732581Y-87315629D01*
X98686410Y-87299030D01*
X98645226Y-87284156D01*
X98609664Y-87271236D01*
X98580361Y-87260499D01*
X98557951Y-87252174D01*
X98543068Y-87246491D01*
X98536350Y-87243681D01*
X98536095Y-87243528D01*
X98534685Y-87241931D01*
X98533438Y-87238933D01*
X98532337Y-87233942D01*
X98531366Y-87226365D01*
X98530507Y-87215608D01*
X98529746Y-87201079D01*
X98529064Y-87182185D01*
X98528446Y-87158333D01*
X98527875Y-87128931D01*
X98527334Y-87093385D01*
X98526808Y-87051102D01*
X98526278Y-87001490D01*
X98525730Y-86943955D01*
X98525145Y-86877905D01*
X98524813Y-86838947D01*
X98521442Y-86440151D01*
X98608364Y-86195053D01*
X98624597Y-86149243D01*
X98639844Y-86106141D01*
X98653821Y-86066558D01*
X98666242Y-86031302D01*
X98676824Y-86001184D01*
X98685281Y-85977013D01*
X98691330Y-85959598D01*
X98694684Y-85949750D01*
X98695287Y-85947797D01*
X98691608Y-85945718D01*
X98690273Y-85945640D01*
X98685708Y-85947983D01*
X98673459Y-85954839D01*
X98653970Y-85965950D01*
X98627684Y-85981059D01*
X98595046Y-85999907D01*
X98556499Y-86022237D01*
X98512488Y-86047790D01*
X98463455Y-86076308D01*
X98409846Y-86107533D01*
X98352103Y-86141208D01*
X98290670Y-86177074D01*
X98225992Y-86214873D01*
X98158512Y-86254348D01*
X98088675Y-86295240D01*
X98061371Y-86311237D01*
X97971231Y-86364026D01*
X97888959Y-86412137D01*
X97814320Y-86455706D01*
X97747076Y-86494868D01*
X97686994Y-86529757D01*
X97633836Y-86560508D01*
X97587368Y-86587257D01*
X97547354Y-86610138D01*
X97513558Y-86629286D01*
X97485745Y-86644838D01*
X97463678Y-86656926D01*
X97447122Y-86665687D01*
X97435842Y-86671256D01*
X97429602Y-86673767D01*
X97428286Y-86673914D01*
X97419391Y-86668321D01*
X97416412Y-86664021D01*
X97417729Y-86659039D01*
X97422046Y-86645648D01*
X97429197Y-86624314D01*
X97439017Y-86595507D01*
X97451340Y-86559693D01*
X97466000Y-86517341D01*
X97482833Y-86468918D01*
X97501673Y-86414892D01*
X97522354Y-86355730D01*
X97544711Y-86291901D01*
X97568579Y-86223872D01*
X97593790Y-86152111D01*
X97620182Y-86077086D01*
X97647587Y-85999264D01*
X97675840Y-85919114D01*
X97704776Y-85837103D01*
X97734229Y-85753698D01*
X97764034Y-85669368D01*
X97794025Y-85584581D01*
X97824037Y-85499803D01*
X97853904Y-85415504D01*
X97883461Y-85332150D01*
X97912542Y-85250209D01*
X97940981Y-85170150D01*
X97968614Y-85092439D01*
X97995275Y-85017546D01*
X98020798Y-84945936D01*
X98045017Y-84878079D01*
X98067768Y-84814442D01*
X98088884Y-84755493D01*
X98108201Y-84701699D01*
X98125552Y-84653528D01*
X98140773Y-84611449D01*
X98153697Y-84575928D01*
X98164159Y-84547434D01*
X98171994Y-84526435D01*
X98177036Y-84513397D01*
X98178796Y-84509295D01*
X98188520Y-84493362D01*
X98202090Y-84475090D01*
X98215727Y-84459359D01*
X98222959Y-84453004D01*
X98237047Y-84441935D01*
X98258063Y-84426099D01*
X98286082Y-84405444D01*
X98321177Y-84379918D01*
X98363421Y-84349466D01*
X98412888Y-84314038D01*
X98449884Y-84287669D01*
X100992578Y-84287669D01*
X100993245Y-84292511D01*
X100996152Y-84304675D01*
X101000813Y-84322461D01*
X101006743Y-84344167D01*
X101013457Y-84368095D01*
X101020469Y-84392543D01*
X101027293Y-84415810D01*
X101033445Y-84436197D01*
X101038439Y-84452004D01*
X101041790Y-84461528D01*
X101042764Y-84463482D01*
X101048176Y-84463493D01*
X101060848Y-84461429D01*
X101078932Y-84457645D01*
X101100582Y-84452494D01*
X101102320Y-84452057D01*
X101143396Y-84442511D01*
X101190855Y-84432856D01*
X101241680Y-84423640D01*
X101292852Y-84415407D01*
X101341353Y-84408703D01*
X101343673Y-84408416D01*
X101370597Y-84405954D01*
X101404985Y-84404121D01*
X101444968Y-84402907D01*
X101488678Y-84402298D01*
X101534248Y-84402285D01*
X101579811Y-84402853D01*
X101623497Y-84403993D01*
X101663440Y-84405692D01*
X101697771Y-84407938D01*
X101724623Y-84410719D01*
X101725380Y-84410823D01*
X101832193Y-84428590D01*
X101934640Y-84451978D01*
X102033914Y-84481458D01*
X102131207Y-84517499D01*
X102227710Y-84560571D01*
X102324615Y-84611144D01*
X102423115Y-84669688D01*
X102486437Y-84710815D01*
X102593020Y-84786796D01*
X102691853Y-84866748D01*
X102782754Y-84950457D01*
X102865539Y-85037708D01*
X102940023Y-85128285D01*
X103006022Y-85221973D01*
X103063353Y-85318557D01*
X103111833Y-85417821D01*
X103131803Y-85466097D01*
X103153159Y-85526554D01*
X103173317Y-85594837D01*
X103191956Y-85669387D01*
X103208757Y-85748646D01*
X103223400Y-85831055D01*
X103235566Y-85915056D01*
X103244935Y-85999090D01*
X103247772Y-86031661D01*
X103250888Y-86084372D01*
X103252342Y-86141931D01*
X103252227Y-86202733D01*
X103250634Y-86265172D01*
X103247656Y-86327640D01*
X103243384Y-86388532D01*
X103237910Y-86446243D01*
X103231327Y-86499164D01*
X103223725Y-86545691D01*
X103216420Y-86579462D01*
X103214971Y-86586906D01*
X103216180Y-86586557D01*
X103219579Y-86579510D01*
X103224702Y-86566862D01*
X103231080Y-86549712D01*
X103238247Y-86529156D01*
X103239706Y-86524813D01*
X103270694Y-86418036D01*
X103293707Y-86307003D01*
X103308759Y-86191555D01*
X103315860Y-86071533D01*
X103315024Y-85946779D01*
X103306262Y-85817134D01*
X103298994Y-85751083D01*
X103279475Y-85631323D01*
X103250810Y-85513176D01*
X103213197Y-85397039D01*
X103166837Y-85283309D01*
X103111929Y-85172387D01*
X103048674Y-85064668D01*
X102977270Y-84960552D01*
X102897918Y-84860437D01*
X102810816Y-84764721D01*
X102797458Y-84751133D01*
X102701710Y-84661002D01*
X102601335Y-84578728D01*
X102496665Y-84504481D01*
X102388028Y-84438429D01*
X102275756Y-84380740D01*
X102160179Y-84331582D01*
X102041627Y-84291125D01*
X101920430Y-84259536D01*
X101796918Y-84236985D01*
X101786641Y-84235534D01*
X101728491Y-84228168D01*
X101673856Y-84222759D01*
X101620035Y-84219162D01*
X101564329Y-84217230D01*
X101504038Y-84216815D01*
X101453386Y-84217427D01*
X101397259Y-84218853D01*
X101348247Y-84221041D01*
X101304056Y-84224225D01*
X101262391Y-84228637D01*
X101220958Y-84234512D01*
X101177463Y-84242084D01*
X101141033Y-84249235D01*
X101114376Y-84254922D01*
X101086804Y-84261241D01*
X101059967Y-84267766D01*
X101035513Y-84274068D01*
X101015092Y-84279723D01*
X101000351Y-84284302D01*
X100992940Y-84287379D01*
X100992578Y-84287669D01*
X98449884Y-84287669D01*
X98469651Y-84273580D01*
X98533783Y-84228039D01*
X98605359Y-84177364D01*
X98684452Y-84121502D01*
X98771134Y-84060399D01*
X98865480Y-83994004D01*
X98888497Y-83977821D01*
X98958661Y-83928487D01*
X99026776Y-83880579D01*
X99092438Y-83834381D01*
X99155244Y-83790177D01*
X99214790Y-83748251D01*
X99270674Y-83708889D01*
X99322493Y-83672373D01*
X99369843Y-83638988D01*
X99412322Y-83609019D01*
X99449526Y-83582749D01*
X99481052Y-83560463D01*
X99506498Y-83542445D01*
X99525460Y-83528979D01*
X99537534Y-83520349D01*
X99542319Y-83516840D01*
X99542357Y-83516807D01*
X99544215Y-83512137D01*
X99549099Y-83498924D01*
X99556888Y-83477506D01*
X99567462Y-83448225D01*
X99580699Y-83411419D01*
X99596478Y-83367430D01*
X99614680Y-83316598D01*
X99635183Y-83259262D01*
X99657866Y-83195762D01*
X99682610Y-83126439D01*
X99709292Y-83051633D01*
X99737792Y-82971683D01*
X99767990Y-82886930D01*
X99799765Y-82797714D01*
X99832995Y-82704375D01*
X99867561Y-82607253D01*
X99903342Y-82506688D01*
X99940216Y-82403021D01*
X99978063Y-82296590D01*
X100016762Y-82187737D01*
X100056193Y-82076801D01*
X100096234Y-81964123D01*
X100136766Y-81850043D01*
X100177666Y-81734900D01*
X100218815Y-81619034D01*
X100260092Y-81502787D01*
X100301376Y-81386497D01*
X100342546Y-81270506D01*
X100383481Y-81155152D01*
X100424061Y-81040776D01*
X100464165Y-80927719D01*
X100503673Y-80816320D01*
X100542462Y-80706919D01*
X100580414Y-80599857D01*
X100617406Y-80495473D01*
X100653318Y-80394108D01*
X100688030Y-80296101D01*
X100721421Y-80201793D01*
X100753369Y-80111524D01*
X100783755Y-80025634D01*
X100812457Y-79944462D01*
X100839354Y-79868350D01*
X100864327Y-79797637D01*
X100887254Y-79732663D01*
X100908014Y-79673768D01*
X100926487Y-79621292D01*
X100942551Y-79575576D01*
X100956087Y-79536959D01*
X100966973Y-79505782D01*
X100975089Y-79482385D01*
X100980314Y-79467107D01*
X100980401Y-79466847D01*
X101012961Y-79374147D01*
X101046381Y-79287615D01*
X101082011Y-79204008D01*
X101121203Y-79120081D01*
X101143600Y-79074916D01*
X101222703Y-78928603D01*
X101309334Y-78787911D01*
X101403329Y-78653014D01*
X101504528Y-78524083D01*
X101612767Y-78401293D01*
X101727884Y-78284815D01*
X101849717Y-78174821D01*
X101978103Y-78071485D01*
X102112881Y-77974980D01*
X102253888Y-77885476D01*
X102272890Y-77874234D01*
X102313814Y-77850221D01*
X102328719Y-77888831D01*
G37*
D13*
X107150000Y-63350000D02*
X129650000Y-63350000D01*
X107150000Y-70350000D02*
X107150000Y-63350000D01*
X107150000Y-96350000D02*
X107150000Y-97600000D01*
X107150000Y-97600000D02*
X110400000Y-97600000D01*
X126400000Y-97600000D02*
X129650000Y-97600000D01*
X129650000Y-63350000D02*
X129650000Y-64350000D01*
X129650000Y-97600000D02*
X129650000Y-96350000D01*
X106400000Y-70350000D02*
X106160000Y-70014000D01*
X106640000Y-70014000D01*
X106400000Y-70350000D01*
G36*
X106400000Y-70350000D02*
G01*
X106160000Y-70014000D01*
X106640000Y-70014000D01*
X106400000Y-70350000D01*
G37*
X90340000Y-92820000D02*
X90340000Y-95580000D01*
X98070000Y-92820000D02*
X90340000Y-92820000D01*
X98070000Y-92820000D02*
X98070000Y-95580000D01*
X98070000Y-95580000D02*
X90340000Y-95580000D01*
X99340000Y-92820000D02*
X100720000Y-92820000D01*
X100720000Y-92820000D02*
X100720000Y-94200000D01*
X97490000Y-76013748D02*
X97490000Y-77436252D01*
X100210000Y-76013748D02*
X100210000Y-77436252D01*
X84122500Y-71650000D02*
X84122500Y-78070000D01*
X84122500Y-78070000D02*
X84392500Y-78070000D01*
X91022500Y-71650000D02*
X91022500Y-78070000D01*
X91022500Y-78070000D02*
X90752500Y-78070000D01*
X84432500Y-79800000D02*
X83962500Y-80140000D01*
X83962500Y-79460000D01*
X84432500Y-79800000D01*
G36*
X84432500Y-79800000D02*
G01*
X83962500Y-80140000D01*
X83962500Y-79460000D01*
X84432500Y-79800000D01*
G37*
X89059420Y-89490000D02*
X89340580Y-89490000D01*
X89059420Y-90510000D02*
X89340580Y-90510000D01*
X100115000Y-71661252D02*
X100115000Y-71138748D01*
X101585000Y-71661252D02*
X101585000Y-71138748D01*
X89727500Y-87237258D02*
X89727500Y-86762742D01*
X90772500Y-87237258D02*
X90772500Y-86762742D01*
X91340580Y-83490000D02*
X91059420Y-83490000D01*
X91340580Y-84510000D02*
X91059420Y-84510000D01*
%LPC*%
D15*
X93450000Y-68850000D03*
X93450000Y-70750000D03*
D16*
X86550000Y-82950000D03*
X88450000Y-82950000D03*
D17*
X135600000Y-95000000D03*
D18*
X103550000Y-71275000D03*
X103550000Y-72825000D03*
D19*
X107400000Y-71300000D03*
X107400000Y-73300000D03*
X107400000Y-75300000D03*
X107400000Y-77300000D03*
X107400000Y-79300000D03*
X107400000Y-81300000D03*
X107400000Y-83300000D03*
X107400000Y-85300000D03*
X107400000Y-87300000D03*
X107400000Y-89300000D03*
X107400000Y-91300000D03*
X107400000Y-93300000D03*
X107400000Y-95300000D03*
D20*
X111400000Y-97130000D03*
X113400000Y-97130000D03*
X115400000Y-97130000D03*
X117400000Y-97130000D03*
X119400000Y-97130000D03*
X121400000Y-97130000D03*
X123400000Y-97130000D03*
X125400000Y-97130000D03*
D19*
X129400000Y-95280000D03*
X129400000Y-93280000D03*
X129400000Y-91280000D03*
X129400000Y-89280000D03*
X129400000Y-87280000D03*
X129400000Y-85280000D03*
X129400000Y-83280000D03*
X129400000Y-81280000D03*
X129400000Y-79280000D03*
X129400000Y-77280000D03*
X129400000Y-75280000D03*
X129400000Y-73280000D03*
X129400000Y-71280000D03*
X129400000Y-69280000D03*
X129400000Y-67280000D03*
X129400000Y-65280000D03*
D21*
X113285000Y-74015000D03*
D22*
X99340000Y-94200000D03*
D23*
X96800000Y-94200000D03*
X94260000Y-94200000D03*
X91720000Y-94200000D03*
D17*
X84800000Y-94200000D03*
D24*
X98850000Y-75250000D03*
X98850000Y-78200000D03*
D25*
X85292500Y-79800000D03*
D26*
X87572500Y-73500000D03*
D25*
X89852500Y-79800000D03*
D27*
X88425000Y-90000000D03*
X89975000Y-90000000D03*
D15*
X100850000Y-72350000D03*
X100850000Y-70450000D03*
D28*
X90250000Y-87825000D03*
X90250000Y-86175000D03*
D29*
X91975000Y-84000000D03*
X90425000Y-84000000D03*
D17*
X86300000Y-65600000D03*
%LPD*%
M02*
