G04 #@! TF.GenerationSoftware,KiCad,Pcbnew,9.0.3*
G04 #@! TF.CreationDate,2025-11-21T03:11:02-06:00*
G04 #@! TF.ProjectId,LEC_RF,4c45435f-5246-42e6-9b69-6361645f7063,rev?*
G04 #@! TF.SameCoordinates,Original*
G04 #@! TF.FileFunction,Soldermask,Top*
G04 #@! TF.FilePolarity,Negative*
%FSLAX46Y46*%
G04 Gerber Fmt 4.6, Leading zero omitted, Abs format (unit mm)*
G04 Created by KiCad (PCBNEW 9.0.3) date 2025-11-21 03:11:02*
%MOMM*%
%LPD*%
G01*
G04 APERTURE LIST*
G04 Aperture macros list*
%AMRoundRect*
0 Rectangle with rounded corners*
0 $1 Rounding radius*
0 $2 $3 $4 $5 $6 $7 $8 $9 X,Y pos of 4 corners*
0 Add a 4 corners polygon primitive as box body*
4,1,4,$2,$3,$4,$5,$6,$7,$8,$9,$2,$3,0*
0 Add four circle primitives for the rounded corners*
1,1,$1+$1,$2,$3*
1,1,$1+$1,$4,$5*
1,1,$1+$1,$6,$7*
1,1,$1+$1,$8,$9*
0 Add four rect primitives between the rounded corners*
20,1,$1+$1,$2,$3,$4,$5,0*
20,1,$1+$1,$4,$5,$6,$7,0*
20,1,$1+$1,$6,$7,$8,$9,0*
20,1,$1+$1,$8,$9,$2,$3,0*%
G04 Aperture macros list end*
%ADD10RoundRect,0.250000X0.475000X-0.250000X0.475000X0.250000X-0.475000X0.250000X-0.475000X-0.250000X0*%
%ADD11RoundRect,0.250000X0.250000X0.475000X-0.250000X0.475000X-0.250000X-0.475000X0.250000X-0.475000X0*%
%ADD12C,2.200000*%
%ADD13RoundRect,0.225000X-0.250000X0.225000X-0.250000X-0.225000X0.250000X-0.225000X0.250000X0.225000X0*%
%ADD14R,2.840000X1.520000*%
%ADD15R,1.520000X2.840000*%
%ADD16R,2.790000X2.790000*%
%ADD17R,1.700000X1.700000*%
%ADD18C,1.700000*%
%ADD19RoundRect,0.250000X-1.100000X0.325000X-1.100000X-0.325000X1.100000X-0.325000X1.100000X0.325000X0*%
%ADD20RoundRect,0.250000X0.350000X-0.850000X0.350000X0.850000X-0.350000X0.850000X-0.350000X-0.850000X0*%
%ADD21RoundRect,0.249997X2.650003X-2.950003X2.650003X2.950003X-2.650003X2.950003X-2.650003X-2.950003X0*%
%ADD22RoundRect,0.225000X-0.225000X-0.250000X0.225000X-0.250000X0.225000X0.250000X-0.225000X0.250000X0*%
%ADD23RoundRect,0.200000X0.275000X-0.200000X0.275000X0.200000X-0.275000X0.200000X-0.275000X-0.200000X0*%
%ADD24RoundRect,0.225000X0.225000X0.250000X-0.225000X0.250000X-0.225000X-0.250000X0.225000X-0.250000X0*%
G04 APERTURE END LIST*
D10*
X93450000Y-68850000D03*
X93450000Y-70750000D03*
D11*
X86550000Y-82950000D03*
X88450000Y-82950000D03*
D12*
X135600000Y-95000000D03*
D13*
X103550000Y-71275000D03*
X103550000Y-72825000D03*
D14*
X107400000Y-71300000D03*
X107400000Y-73300000D03*
X107400000Y-75300000D03*
X107400000Y-77300000D03*
X107400000Y-79300000D03*
X107400000Y-81300000D03*
X107400000Y-83300000D03*
X107400000Y-85300000D03*
X107400000Y-87300000D03*
X107400000Y-89300000D03*
X107400000Y-91300000D03*
X107400000Y-93300000D03*
X107400000Y-95300000D03*
D15*
X111400000Y-97130000D03*
X113400000Y-97130000D03*
X115400000Y-97130000D03*
X117400000Y-97130000D03*
X119400000Y-97130000D03*
X121400000Y-97130000D03*
X123400000Y-97130000D03*
X125400000Y-97130000D03*
D14*
X129400000Y-95280000D03*
X129400000Y-93280000D03*
X129400000Y-91280000D03*
X129400000Y-89280000D03*
X129400000Y-87280000D03*
X129400000Y-85280000D03*
X129400000Y-83280000D03*
X129400000Y-81280000D03*
X129400000Y-79280000D03*
X129400000Y-77280000D03*
X129400000Y-75280000D03*
X129400000Y-73280000D03*
X129400000Y-71280000D03*
X129400000Y-69280000D03*
X129400000Y-67280000D03*
X129400000Y-65280000D03*
D16*
X113285000Y-74015000D03*
D17*
X99340000Y-94200000D03*
D18*
X96800000Y-94200000D03*
X94260000Y-94200000D03*
X91720000Y-94200000D03*
D12*
X84800000Y-94200000D03*
D19*
X98850000Y-75250000D03*
X98850000Y-78200000D03*
D20*
X85292500Y-79800000D03*
D21*
X87572500Y-73500000D03*
D20*
X89852500Y-79800000D03*
D22*
X88425000Y-90000000D03*
X89975000Y-90000000D03*
D10*
X100850000Y-72350000D03*
X100850000Y-70450000D03*
D23*
X90250000Y-87825000D03*
X90250000Y-86175000D03*
D24*
X91975000Y-84000000D03*
X90425000Y-84000000D03*
D12*
X86300000Y-65600000D03*
M02*
