G04 #@! TF.GenerationSoftware,KiCad,Pcbnew,9.0.3*
G04 #@! TF.CreationDate,2025-11-21T03:11:02-06:00*
G04 #@! TF.ProjectId,LEC_RF,4c45435f-5246-42e6-9b69-6361645f7063,rev?*
G04 #@! TF.SameCoordinates,Original*
G04 #@! TF.FileFunction,Copper,L2,Bot*
G04 #@! TF.FilePolarity,Positive*
%FSLAX46Y46*%
G04 Gerber Fmt 4.6, Leading zero omitted, Abs format (unit mm)*
G04 Created by KiCad (PCBNEW 9.0.3) date 2025-11-21 03:11:02*
%MOMM*%
%LPD*%
G01*
G04 APERTURE LIST*
G04 #@! TA.AperFunction,ComponentPad*
%ADD10R,1.700000X1.700000*%
G04 #@! TD*
G04 #@! TA.AperFunction,ComponentPad*
%ADD11C,1.700000*%
G04 #@! TD*
G04 #@! TA.AperFunction,ViaPad*
%ADD12C,0.700000*%
G04 #@! TD*
G04 #@! TA.AperFunction,ViaPad*
%ADD13C,0.600000*%
G04 #@! TD*
G04 #@! TA.AperFunction,Conductor*
%ADD14C,0.200000*%
G04 #@! TD*
G04 #@! TA.AperFunction,Conductor*
%ADD15C,0.400000*%
G04 #@! TD*
G04 APERTURE END LIST*
D10*
X99340000Y-94200000D03*
D11*
X96800000Y-94200000D03*
X94260000Y-94200000D03*
X91720000Y-94200000D03*
D12*
X123650000Y-78600000D03*
X121650000Y-84600000D03*
D13*
X82250000Y-76700000D03*
D12*
X121650000Y-76600000D03*
X115650000Y-88600000D03*
X123650000Y-92600000D03*
X123650000Y-82600000D03*
D13*
X82200000Y-72550000D03*
D12*
X105650000Y-66600000D03*
X117650000Y-88600000D03*
X93650000Y-80600000D03*
D13*
X104150000Y-88950000D03*
D12*
X95650000Y-64600000D03*
D13*
X93600000Y-85800000D03*
D12*
X111650000Y-86600000D03*
X117650000Y-64600000D03*
X95650000Y-84600000D03*
X111650000Y-78600000D03*
X117650000Y-86600000D03*
X121650000Y-78600000D03*
X115650000Y-86600000D03*
X117650000Y-90600000D03*
X121650000Y-80600000D03*
X121650000Y-64600000D03*
X133650000Y-72600000D03*
X115650000Y-92600000D03*
X101650000Y-66600000D03*
X133650000Y-76600000D03*
X119650000Y-76600000D03*
X105650000Y-64600000D03*
X115650000Y-90600000D03*
X123650000Y-84600000D03*
X91650000Y-64600000D03*
X117650000Y-66600000D03*
X133650000Y-90600000D03*
X107650000Y-66600000D03*
X113650000Y-80600000D03*
X121650000Y-90600000D03*
X97650000Y-64600000D03*
X117650000Y-76600000D03*
X97650000Y-66600000D03*
X117650000Y-74600000D03*
D13*
X93850000Y-87800000D03*
X83100000Y-86000000D03*
D12*
X133650000Y-82600000D03*
D13*
X100500000Y-98400000D03*
D12*
X133650000Y-66600000D03*
X117650000Y-80600000D03*
X117650000Y-82600000D03*
X121650000Y-86600000D03*
X101650000Y-64600000D03*
X85650000Y-90600000D03*
X113650000Y-66600000D03*
X115650000Y-64600000D03*
X111650000Y-90600000D03*
X115650000Y-78600000D03*
X115650000Y-80600000D03*
X115650000Y-66600000D03*
X133650000Y-86600000D03*
X111650000Y-80600000D03*
X121650000Y-88600000D03*
X117650000Y-68600000D03*
X119650000Y-80600000D03*
X119650000Y-66600000D03*
X111650000Y-64600000D03*
X133650000Y-78600000D03*
X111650000Y-88600000D03*
X119650000Y-84600000D03*
X119650000Y-92600000D03*
X117650000Y-92600000D03*
X123650000Y-86600000D03*
D13*
X90750000Y-98400000D03*
D12*
X113650000Y-64600000D03*
X109650000Y-64600000D03*
X133650000Y-80600000D03*
X133650000Y-70600000D03*
X111650000Y-68600000D03*
X115650000Y-84600000D03*
X117650000Y-78600000D03*
X119650000Y-78600000D03*
X123650000Y-88600000D03*
X111650000Y-66600000D03*
X117650000Y-70600000D03*
X117650000Y-72600000D03*
X119650000Y-86600000D03*
X123650000Y-90600000D03*
X119650000Y-64600000D03*
X133650000Y-68600000D03*
X111650000Y-84600000D03*
X123650000Y-64600000D03*
X95650000Y-82600000D03*
X119650000Y-88600000D03*
X123650000Y-80600000D03*
X133650000Y-88600000D03*
X119650000Y-82600000D03*
X123650000Y-76600000D03*
X121650000Y-82600000D03*
X99650000Y-66600000D03*
D13*
X104250000Y-81950000D03*
X82850000Y-83000000D03*
D12*
X113650000Y-88600000D03*
X113650000Y-68600000D03*
X99650000Y-64600000D03*
X111650000Y-92600000D03*
D13*
X82550000Y-79600000D03*
D12*
X109650000Y-66600000D03*
X113650000Y-84600000D03*
X119650000Y-90600000D03*
X113650000Y-90600000D03*
X133650000Y-64600000D03*
D13*
X85700000Y-86000000D03*
D12*
X117650000Y-84600000D03*
D13*
X95900000Y-98400000D03*
D12*
X93650000Y-64600000D03*
X113650000Y-82600000D03*
X111650000Y-82600000D03*
X113650000Y-78600000D03*
X113650000Y-92600000D03*
X121650000Y-92600000D03*
X133650000Y-84600000D03*
X115650000Y-68600000D03*
X121650000Y-66600000D03*
X133650000Y-74600000D03*
X115650000Y-82600000D03*
X103650000Y-66600000D03*
X123650000Y-66600000D03*
X103650000Y-64600000D03*
X113650000Y-86600000D03*
X107650000Y-64600000D03*
X99550000Y-89450000D03*
X99600000Y-86500000D03*
D14*
X99550000Y-89450000D02*
X99600000Y-89400000D01*
D15*
X99600000Y-89400000D02*
X99600000Y-86500000D01*
G04 #@! TA.AperFunction,Conductor*
G36*
X138004418Y-60500816D02*
G01*
X138204561Y-60515130D01*
X138222063Y-60517647D01*
X138413797Y-60559355D01*
X138430755Y-60564334D01*
X138614609Y-60632909D01*
X138630701Y-60640259D01*
X138802904Y-60734288D01*
X138817784Y-60743849D01*
X138974867Y-60861441D01*
X138988237Y-60873027D01*
X139126972Y-61011762D01*
X139138558Y-61025132D01*
X139256146Y-61182210D01*
X139265711Y-61197095D01*
X139359740Y-61369298D01*
X139367090Y-61385390D01*
X139435662Y-61569236D01*
X139440646Y-61586212D01*
X139482351Y-61777931D01*
X139484869Y-61795442D01*
X139499184Y-61995580D01*
X139499500Y-62004427D01*
X139499500Y-97995572D01*
X139499184Y-98004419D01*
X139484869Y-98204557D01*
X139482351Y-98222068D01*
X139440646Y-98413787D01*
X139435662Y-98430763D01*
X139367090Y-98614609D01*
X139359740Y-98630701D01*
X139265711Y-98802904D01*
X139256146Y-98817789D01*
X139138558Y-98974867D01*
X139126972Y-98988237D01*
X138988237Y-99126972D01*
X138974867Y-99138558D01*
X138817789Y-99256146D01*
X138802904Y-99265711D01*
X138630701Y-99359740D01*
X138614609Y-99367090D01*
X138430763Y-99435662D01*
X138413787Y-99440646D01*
X138222068Y-99482351D01*
X138204557Y-99484869D01*
X138023779Y-99497799D01*
X138004417Y-99499184D01*
X137995572Y-99499500D01*
X82004428Y-99499500D01*
X81995582Y-99499184D01*
X81973622Y-99497613D01*
X81795442Y-99484869D01*
X81777931Y-99482351D01*
X81586212Y-99440646D01*
X81569236Y-99435662D01*
X81385390Y-99367090D01*
X81369298Y-99359740D01*
X81197095Y-99265711D01*
X81182210Y-99256146D01*
X81025132Y-99138558D01*
X81011762Y-99126972D01*
X80873027Y-98988237D01*
X80861441Y-98974867D01*
X80743849Y-98817784D01*
X80734288Y-98802904D01*
X80640259Y-98630701D01*
X80632909Y-98614609D01*
X80572091Y-98451551D01*
X80564334Y-98430755D01*
X80559355Y-98413797D01*
X80517647Y-98222063D01*
X80515130Y-98204556D01*
X80500816Y-98004418D01*
X80500500Y-97995572D01*
X80500500Y-94093713D01*
X83449500Y-94093713D01*
X83449500Y-94306286D01*
X83482753Y-94516239D01*
X83548444Y-94718414D01*
X83644951Y-94907820D01*
X83769890Y-95079786D01*
X83920213Y-95230109D01*
X84092179Y-95355048D01*
X84092181Y-95355049D01*
X84092184Y-95355051D01*
X84281588Y-95451557D01*
X84483757Y-95517246D01*
X84693713Y-95550500D01*
X84693714Y-95550500D01*
X84906286Y-95550500D01*
X84906287Y-95550500D01*
X85116243Y-95517246D01*
X85318412Y-95451557D01*
X85507816Y-95355051D01*
X85561237Y-95316239D01*
X85679786Y-95230109D01*
X85679788Y-95230106D01*
X85679792Y-95230104D01*
X85830104Y-95079792D01*
X85830106Y-95079788D01*
X85830109Y-95079786D01*
X85955048Y-94907820D01*
X85955049Y-94907819D01*
X85955051Y-94907816D01*
X86051557Y-94718412D01*
X86117246Y-94516243D01*
X86150500Y-94306287D01*
X86150500Y-94093713D01*
X90369500Y-94093713D01*
X90369500Y-94306286D01*
X90402753Y-94516239D01*
X90468444Y-94718414D01*
X90564951Y-94907820D01*
X90689890Y-95079786D01*
X90840213Y-95230109D01*
X91012179Y-95355048D01*
X91012181Y-95355049D01*
X91012184Y-95355051D01*
X91201588Y-95451557D01*
X91403757Y-95517246D01*
X91613713Y-95550500D01*
X91613714Y-95550500D01*
X91826286Y-95550500D01*
X91826287Y-95550500D01*
X92036243Y-95517246D01*
X92238412Y-95451557D01*
X92427816Y-95355051D01*
X92481237Y-95316239D01*
X92599786Y-95230109D01*
X92599788Y-95230106D01*
X92599792Y-95230104D01*
X92750104Y-95079792D01*
X92750106Y-95079788D01*
X92750109Y-95079786D01*
X92875048Y-94907820D01*
X92875049Y-94907819D01*
X92875051Y-94907816D01*
X92879514Y-94899054D01*
X92927488Y-94848259D01*
X92995308Y-94831463D01*
X93061444Y-94853999D01*
X93100486Y-94899056D01*
X93104951Y-94907820D01*
X93229890Y-95079786D01*
X93380213Y-95230109D01*
X93552179Y-95355048D01*
X93552181Y-95355049D01*
X93552184Y-95355051D01*
X93741588Y-95451557D01*
X93943757Y-95517246D01*
X94153713Y-95550500D01*
X94153714Y-95550500D01*
X94366286Y-95550500D01*
X94366287Y-95550500D01*
X94576243Y-95517246D01*
X94778412Y-95451557D01*
X94967816Y-95355051D01*
X95021237Y-95316239D01*
X95139786Y-95230109D01*
X95139788Y-95230106D01*
X95139792Y-95230104D01*
X95290104Y-95079792D01*
X95290106Y-95079788D01*
X95290109Y-95079786D01*
X95415048Y-94907820D01*
X95415049Y-94907819D01*
X95415051Y-94907816D01*
X95419514Y-94899054D01*
X95467488Y-94848259D01*
X95535308Y-94831463D01*
X95601444Y-94853999D01*
X95640486Y-94899056D01*
X95644951Y-94907820D01*
X95769890Y-95079786D01*
X95920213Y-95230109D01*
X96092179Y-95355048D01*
X96092181Y-95355049D01*
X96092184Y-95355051D01*
X96281588Y-95451557D01*
X96483757Y-95517246D01*
X96693713Y-95550500D01*
X96693714Y-95550500D01*
X96906286Y-95550500D01*
X96906287Y-95550500D01*
X97116243Y-95517246D01*
X97318412Y-95451557D01*
X97507816Y-95355051D01*
X97561237Y-95316239D01*
X97679786Y-95230109D01*
X97679788Y-95230106D01*
X97679792Y-95230104D01*
X97830104Y-95079792D01*
X97830106Y-95079788D01*
X97830109Y-95079786D01*
X97884899Y-95004371D01*
X97955051Y-94907816D01*
X97962237Y-94893713D01*
X134249500Y-94893713D01*
X134249500Y-95106286D01*
X134269111Y-95230109D01*
X134282754Y-95316243D01*
X134326720Y-95451557D01*
X134348444Y-95518414D01*
X134444951Y-95707820D01*
X134569890Y-95879786D01*
X134720213Y-96030109D01*
X134892179Y-96155048D01*
X134892181Y-96155049D01*
X134892184Y-96155051D01*
X135081588Y-96251557D01*
X135283757Y-96317246D01*
X135493713Y-96350500D01*
X135493714Y-96350500D01*
X135706286Y-96350500D01*
X135706287Y-96350500D01*
X135916243Y-96317246D01*
X136118412Y-96251557D01*
X136307816Y-96155051D01*
X136329789Y-96139086D01*
X136479786Y-96030109D01*
X136479788Y-96030106D01*
X136479792Y-96030104D01*
X136630104Y-95879792D01*
X136630106Y-95879788D01*
X136630109Y-95879786D01*
X136755048Y-95707820D01*
X136755047Y-95707820D01*
X136755051Y-95707816D01*
X136851557Y-95518412D01*
X136917246Y-95316243D01*
X136950500Y-95106287D01*
X136950500Y-94893713D01*
X136917246Y-94683757D01*
X136851557Y-94481588D01*
X136755051Y-94292184D01*
X136755049Y-94292181D01*
X136755048Y-94292179D01*
X136630109Y-94120213D01*
X136479786Y-93969890D01*
X136307820Y-93844951D01*
X136118414Y-93748444D01*
X136118413Y-93748443D01*
X136118412Y-93748443D01*
X135916243Y-93682754D01*
X135916241Y-93682753D01*
X135916240Y-93682753D01*
X135754957Y-93657208D01*
X135706287Y-93649500D01*
X135493713Y-93649500D01*
X135445042Y-93657208D01*
X135283760Y-93682753D01*
X135081585Y-93748444D01*
X134892179Y-93844951D01*
X134720213Y-93969890D01*
X134569890Y-94120213D01*
X134444951Y-94292179D01*
X134348444Y-94481585D01*
X134282753Y-94683760D01*
X134249500Y-94893713D01*
X97962237Y-94893713D01*
X98051557Y-94718412D01*
X98117246Y-94516243D01*
X98150500Y-94306287D01*
X98150500Y-94093713D01*
X98117246Y-93883757D01*
X98051557Y-93681588D01*
X97955051Y-93492184D01*
X97955049Y-93492181D01*
X97955048Y-93492179D01*
X97830109Y-93320213D01*
X97679786Y-93169890D01*
X97507820Y-93044951D01*
X97318414Y-92948444D01*
X97318413Y-92948443D01*
X97318412Y-92948443D01*
X97116243Y-92882754D01*
X97116241Y-92882753D01*
X97116240Y-92882753D01*
X96954957Y-92857208D01*
X96906287Y-92849500D01*
X96693713Y-92849500D01*
X96645042Y-92857208D01*
X96483760Y-92882753D01*
X96281585Y-92948444D01*
X96092179Y-93044951D01*
X95920213Y-93169890D01*
X95769890Y-93320213D01*
X95644949Y-93492182D01*
X95640484Y-93500946D01*
X95592509Y-93551742D01*
X95524688Y-93568536D01*
X95458553Y-93545998D01*
X95419516Y-93500946D01*
X95415050Y-93492182D01*
X95290109Y-93320213D01*
X95139786Y-93169890D01*
X94967820Y-93044951D01*
X94778414Y-92948444D01*
X94778413Y-92948443D01*
X94778412Y-92948443D01*
X94576243Y-92882754D01*
X94576241Y-92882753D01*
X94576240Y-92882753D01*
X94414957Y-92857208D01*
X94366287Y-92849500D01*
X94153713Y-92849500D01*
X94105042Y-92857208D01*
X93943760Y-92882753D01*
X93741585Y-92948444D01*
X93552179Y-93044951D01*
X93380213Y-93169890D01*
X93229890Y-93320213D01*
X93104949Y-93492182D01*
X93100484Y-93500946D01*
X93052509Y-93551742D01*
X92984688Y-93568536D01*
X92918553Y-93545998D01*
X92879516Y-93500946D01*
X92875050Y-93492182D01*
X92750109Y-93320213D01*
X92599786Y-93169890D01*
X92427820Y-93044951D01*
X92238414Y-92948444D01*
X92238413Y-92948443D01*
X92238412Y-92948443D01*
X92036243Y-92882754D01*
X92036241Y-92882753D01*
X92036240Y-92882753D01*
X91874957Y-92857208D01*
X91826287Y-92849500D01*
X91613713Y-92849500D01*
X91565042Y-92857208D01*
X91403760Y-92882753D01*
X91201585Y-92948444D01*
X91012179Y-93044951D01*
X90840213Y-93169890D01*
X90689890Y-93320213D01*
X90564951Y-93492179D01*
X90468444Y-93681585D01*
X90402753Y-93883760D01*
X90369500Y-94093713D01*
X86150500Y-94093713D01*
X86117246Y-93883757D01*
X86051557Y-93681588D01*
X85955051Y-93492184D01*
X85955049Y-93492181D01*
X85955048Y-93492179D01*
X85830109Y-93320213D01*
X85679786Y-93169890D01*
X85507820Y-93044951D01*
X85318414Y-92948444D01*
X85318413Y-92948443D01*
X85318412Y-92948443D01*
X85116243Y-92882754D01*
X85116241Y-92882753D01*
X85116240Y-92882753D01*
X84954957Y-92857208D01*
X84906287Y-92849500D01*
X84693713Y-92849500D01*
X84645042Y-92857208D01*
X84483760Y-92882753D01*
X84281585Y-92948444D01*
X84092179Y-93044951D01*
X83920213Y-93169890D01*
X83769890Y-93320213D01*
X83644951Y-93492179D01*
X83548444Y-93681585D01*
X83482753Y-93883760D01*
X83449500Y-94093713D01*
X80500500Y-94093713D01*
X80500500Y-89366228D01*
X98699500Y-89366228D01*
X98699500Y-89533771D01*
X98732182Y-89698074D01*
X98732184Y-89698082D01*
X98796295Y-89852860D01*
X98889373Y-89992162D01*
X99007837Y-90110626D01*
X99100494Y-90172537D01*
X99147137Y-90203703D01*
X99301918Y-90267816D01*
X99466228Y-90300499D01*
X99466232Y-90300500D01*
X99466233Y-90300500D01*
X99633768Y-90300500D01*
X99633769Y-90300499D01*
X99798082Y-90267816D01*
X99952863Y-90203703D01*
X100092162Y-90110626D01*
X100210626Y-89992162D01*
X100303703Y-89852863D01*
X100367816Y-89698082D01*
X100400500Y-89533767D01*
X100400500Y-89366233D01*
X100367816Y-89201918D01*
X100309938Y-89062191D01*
X100300500Y-89014739D01*
X100300500Y-87020101D01*
X100320185Y-86953062D01*
X100321398Y-86951210D01*
X100353703Y-86902863D01*
X100417816Y-86748082D01*
X100450500Y-86583767D01*
X100450500Y-86416233D01*
X100417816Y-86251918D01*
X100353703Y-86097137D01*
X100322537Y-86050494D01*
X100260626Y-85957837D01*
X100142162Y-85839373D01*
X100002860Y-85746295D01*
X99848082Y-85682184D01*
X99848074Y-85682182D01*
X99683771Y-85649500D01*
X99683767Y-85649500D01*
X99516233Y-85649500D01*
X99516228Y-85649500D01*
X99351925Y-85682182D01*
X99351917Y-85682184D01*
X99197139Y-85746295D01*
X99057837Y-85839373D01*
X98939373Y-85957837D01*
X98846295Y-86097139D01*
X98782184Y-86251917D01*
X98782182Y-86251925D01*
X98749500Y-86416228D01*
X98749500Y-86583771D01*
X98782182Y-86748074D01*
X98782184Y-86748082D01*
X98846295Y-86902860D01*
X98878602Y-86951210D01*
X98899480Y-87017887D01*
X98899500Y-87020101D01*
X98899500Y-88855068D01*
X98879815Y-88922107D01*
X98878602Y-88923959D01*
X98796295Y-89047139D01*
X98732184Y-89201917D01*
X98732182Y-89201925D01*
X98699500Y-89366228D01*
X80500500Y-89366228D01*
X80500500Y-65493713D01*
X84949500Y-65493713D01*
X84949500Y-65706286D01*
X84982753Y-65916239D01*
X85048444Y-66118414D01*
X85144951Y-66307820D01*
X85269890Y-66479786D01*
X85420213Y-66630109D01*
X85592179Y-66755048D01*
X85592181Y-66755049D01*
X85592184Y-66755051D01*
X85781588Y-66851557D01*
X85983757Y-66917246D01*
X86193713Y-66950500D01*
X86193714Y-66950500D01*
X86406286Y-66950500D01*
X86406287Y-66950500D01*
X86616243Y-66917246D01*
X86818412Y-66851557D01*
X87007816Y-66755051D01*
X87029789Y-66739086D01*
X87179786Y-66630109D01*
X87179788Y-66630106D01*
X87179792Y-66630104D01*
X87330104Y-66479792D01*
X87330106Y-66479788D01*
X87330109Y-66479786D01*
X87455048Y-66307820D01*
X87455047Y-66307820D01*
X87455051Y-66307816D01*
X87551557Y-66118412D01*
X87617246Y-65916243D01*
X87650500Y-65706287D01*
X87650500Y-65493713D01*
X87617246Y-65283757D01*
X87551557Y-65081588D01*
X87455051Y-64892184D01*
X87455049Y-64892181D01*
X87455048Y-64892179D01*
X87330109Y-64720213D01*
X87179786Y-64569890D01*
X87007820Y-64444951D01*
X86818414Y-64348444D01*
X86818413Y-64348443D01*
X86818412Y-64348443D01*
X86616243Y-64282754D01*
X86616241Y-64282753D01*
X86616240Y-64282753D01*
X86454957Y-64257208D01*
X86406287Y-64249500D01*
X86193713Y-64249500D01*
X86145042Y-64257208D01*
X85983760Y-64282753D01*
X85781585Y-64348444D01*
X85592179Y-64444951D01*
X85420213Y-64569890D01*
X85269890Y-64720213D01*
X85144951Y-64892179D01*
X85048444Y-65081585D01*
X84982753Y-65283760D01*
X84949500Y-65493713D01*
X80500500Y-65493713D01*
X80500500Y-62004427D01*
X80500816Y-61995581D01*
X80515130Y-61795443D01*
X80515131Y-61795434D01*
X80517646Y-61777938D01*
X80559356Y-61586199D01*
X80564333Y-61569248D01*
X80632911Y-61385385D01*
X80640259Y-61369298D01*
X80702815Y-61254734D01*
X80734291Y-61197089D01*
X80743845Y-61182221D01*
X80861448Y-61025123D01*
X80873020Y-61011769D01*
X81011769Y-60873020D01*
X81025123Y-60861448D01*
X81182221Y-60743845D01*
X81197089Y-60734291D01*
X81369298Y-60640258D01*
X81385385Y-60632911D01*
X81569248Y-60564333D01*
X81586199Y-60559356D01*
X81777938Y-60517646D01*
X81795436Y-60515130D01*
X81995582Y-60500816D01*
X82004428Y-60500500D01*
X82065892Y-60500500D01*
X137934108Y-60500500D01*
X137995572Y-60500500D01*
X138004418Y-60500816D01*
G37*
G04 #@! TD.AperFunction*
M02*
