G04 #@! TF.GenerationSoftware,KiCad,Pcbnew,9.0.3*
G04 #@! TF.CreationDate,2026-01-25T14:37:18-06:00*
G04 #@! TF.ProjectId,LECV2.0_Main_Board,4c454356-322e-4305-9f4d-61696e5f426f,V2.0*
G04 #@! TF.SameCoordinates,Original*
G04 #@! TF.FileFunction,Paste,Top*
G04 #@! TF.FilePolarity,Positive*
%FSLAX46Y46*%
G04 Gerber Fmt 4.6, Leading zero omitted, Abs format (unit mm)*
G04 Created by KiCad (PCBNEW 9.0.3) date 2026-01-25 14:37:18*
%MOMM*%
%LPD*%
G01*
G04 APERTURE LIST*
G04 Aperture macros list*
%AMRoundRect*
0 Rectangle with rounded corners*
0 $1 Rounding radius*
0 $2 $3 $4 $5 $6 $7 $8 $9 X,Y pos of 4 corners*
0 Add a 4 corners polygon primitive as box body*
4,1,4,$2,$3,$4,$5,$6,$7,$8,$9,$2,$3,0*
0 Add four circle primitives for the rounded corners*
1,1,$1+$1,$2,$3*
1,1,$1+$1,$4,$5*
1,1,$1+$1,$6,$7*
1,1,$1+$1,$8,$9*
0 Add four rect primitives between the rounded corners*
20,1,$1+$1,$2,$3,$4,$5,0*
20,1,$1+$1,$4,$5,$6,$7,0*
20,1,$1+$1,$6,$7,$8,$9,0*
20,1,$1+$1,$8,$9,$2,$3,0*%
G04 Aperture macros list end*
%ADD10RoundRect,0.250000X-0.625000X0.375000X-0.625000X-0.375000X0.625000X-0.375000X0.625000X0.375000X0*%
%ADD11RoundRect,0.200000X0.200000X0.275000X-0.200000X0.275000X-0.200000X-0.275000X0.200000X-0.275000X0*%
%ADD12R,0.558800X1.549400*%
%ADD13R,4.470400X4.902200*%
%ADD14RoundRect,0.250000X0.250000X0.475000X-0.250000X0.475000X-0.250000X-0.475000X0.250000X-0.475000X0*%
%ADD15RoundRect,0.200000X-0.200000X-0.275000X0.200000X-0.275000X0.200000X0.275000X-0.200000X0.275000X0*%
%ADD16RoundRect,0.250000X-0.475000X0.250000X-0.475000X-0.250000X0.475000X-0.250000X0.475000X0.250000X0*%
%ADD17RoundRect,0.250000X-0.250000X-0.475000X0.250000X-0.475000X0.250000X0.475000X-0.250000X0.475000X0*%
%ADD18R,0.508000X0.508000*%
%ADD19RoundRect,0.250000X0.325000X1.100000X-0.325000X1.100000X-0.325000X-1.100000X0.325000X-1.100000X0*%
%ADD20RoundRect,0.150000X0.150000X-0.512500X0.150000X0.512500X-0.150000X0.512500X-0.150000X-0.512500X0*%
%ADD21R,2.200000X2.700000*%
%ADD22RoundRect,0.200000X0.275000X-0.200000X0.275000X0.200000X-0.275000X0.200000X-0.275000X-0.200000X0*%
%ADD23R,3.100000X2.600000*%
%ADD24R,0.600000X1.550000*%
%ADD25RoundRect,0.112500X0.237500X-0.112500X0.237500X0.112500X-0.237500X0.112500X-0.237500X-0.112500X0*%
%ADD26RoundRect,0.250000X1.100000X-0.325000X1.100000X0.325000X-1.100000X0.325000X-1.100000X-0.325000X0*%
%ADD27RoundRect,0.250000X-0.548008X1.007627X-1.007627X0.548008X0.548008X-1.007627X1.007627X-0.548008X0*%
%ADD28RoundRect,0.225000X-0.225000X-0.250000X0.225000X-0.250000X0.225000X0.250000X-0.225000X0.250000X0*%
%ADD29RoundRect,0.225000X0.225000X0.250000X-0.225000X0.250000X-0.225000X-0.250000X0.225000X-0.250000X0*%
%ADD30R,0.533400X1.524000*%
%ADD31RoundRect,0.200000X-0.275000X0.200000X-0.275000X-0.200000X0.275000X-0.200000X0.275000X0.200000X0*%
%ADD32RoundRect,0.150000X0.587500X0.150000X-0.587500X0.150000X-0.587500X-0.150000X0.587500X-0.150000X0*%
%ADD33RoundRect,0.150000X-0.150000X0.512500X-0.150000X-0.512500X0.150000X-0.512500X0.150000X0.512500X0*%
G04 APERTURE END LIST*
D10*
X100800000Y-83200000D03*
X100800000Y-86000000D03*
D11*
X98350000Y-61500000D03*
X96700000Y-61500000D03*
D12*
X118715000Y-98325000D03*
X117445000Y-98325000D03*
X116175000Y-98325000D03*
X114905000Y-98325000D03*
D13*
X116810000Y-102693800D03*
D14*
X120650000Y-33800000D03*
X118750000Y-33800000D03*
X120650000Y-41100000D03*
X118750000Y-41100000D03*
D15*
X94141637Y-66658363D03*
X95791637Y-66658363D03*
D16*
X111550000Y-55000000D03*
X111550000Y-56900000D03*
D17*
X123850000Y-37400000D03*
X125750000Y-37400000D03*
D18*
X91968800Y-61403501D03*
X91968800Y-59503499D03*
X89581200Y-60453500D03*
D19*
X119075001Y-124375000D03*
X116124999Y-124375000D03*
D11*
X93325000Y-55350000D03*
X91675000Y-55350000D03*
D14*
X120650000Y-30200000D03*
X118750000Y-30200000D03*
D15*
X134725000Y-89400000D03*
X136375000Y-89400000D03*
D20*
X147575000Y-66525000D03*
X149475000Y-66525000D03*
X148525000Y-64250000D03*
D21*
X122700000Y-51050000D03*
X122700000Y-45950000D03*
D22*
X153825000Y-59137500D03*
X153825000Y-57487500D03*
D23*
X114250000Y-48550000D03*
D24*
X116155000Y-45850000D03*
X114885000Y-45850000D03*
X113615000Y-45850000D03*
X112345000Y-45850000D03*
X112345000Y-51250000D03*
X113615000Y-51250000D03*
X114885000Y-51250000D03*
X116155000Y-51250000D03*
D17*
X123850000Y-33800000D03*
X125750000Y-33800000D03*
D25*
X131675000Y-91075000D03*
X131675000Y-89775000D03*
X129675000Y-90425000D03*
D26*
X134775000Y-84375000D03*
X134775000Y-81425000D03*
D27*
X95642983Y-105007017D03*
X93557017Y-107092983D03*
D11*
X114800000Y-42200000D03*
X113150000Y-42200000D03*
D26*
X108850000Y-36850000D03*
X108850000Y-33900000D03*
D22*
X153225000Y-64162500D03*
X153225000Y-62512500D03*
X109600000Y-51250000D03*
X109600000Y-49600000D03*
D17*
X114650000Y-39250000D03*
X116550000Y-39250000D03*
D28*
X114775000Y-55000000D03*
X116325000Y-55000000D03*
D29*
X154750000Y-52725000D03*
X153200000Y-52725000D03*
D30*
X150545000Y-49019900D03*
X151815000Y-49019900D03*
X153085000Y-49019900D03*
X154355000Y-49019900D03*
X154355000Y-41730100D03*
X153085000Y-41730100D03*
X151815000Y-41730100D03*
X150545000Y-41730100D03*
D17*
X123850000Y-41100000D03*
X125750000Y-41100000D03*
D14*
X120650000Y-37400000D03*
X118750000Y-37400000D03*
D26*
X113700000Y-36850000D03*
X113700000Y-33900000D03*
D31*
X150550000Y-70100000D03*
X150550000Y-71750000D03*
D14*
X107150000Y-54750000D03*
X105250000Y-54750000D03*
D11*
X107125000Y-51250000D03*
X105475000Y-51250000D03*
D31*
X156125000Y-66212500D03*
X156125000Y-67862500D03*
X122375000Y-98000000D03*
X122375000Y-99650000D03*
D16*
X114100000Y-74300000D03*
X114100000Y-76200000D03*
D32*
X131000000Y-79600000D03*
X131000000Y-77700000D03*
X129125000Y-78650000D03*
D33*
X149525000Y-56812500D03*
X147625000Y-56812500D03*
X148575000Y-59087500D03*
D15*
X109500000Y-42200000D03*
X111150000Y-42200000D03*
M02*
