G04 #@! TF.GenerationSoftware,KiCad,Pcbnew,7.0.8*
G04 #@! TF.CreationDate,2025-02-11T22:02:48-06:00*
G04 #@! TF.ProjectId,XBeeBreakoutBoard,58426565-4272-4656-916b-6f7574426f61,rev?*
G04 #@! TF.SameCoordinates,Original*
G04 #@! TF.FileFunction,Soldermask,Bot*
G04 #@! TF.FilePolarity,Negative*
%FSLAX46Y46*%
G04 Gerber Fmt 4.6, Leading zero omitted, Abs format (unit mm)*
G04 Created by KiCad (PCBNEW 7.0.8) date 2025-02-11 22:02:48*
%MOMM*%
%LPD*%
G01*
G04 APERTURE LIST*
G04 Aperture macros list*
%AMRoundRect*
0 Rectangle with rounded corners*
0 $1 Rounding radius*
0 $2 $3 $4 $5 $6 $7 $8 $9 X,Y pos of 4 corners*
0 Add a 4 corners polygon primitive as box body*
4,1,4,$2,$3,$4,$5,$6,$7,$8,$9,$2,$3,0*
0 Add four circle primitives for the rounded corners*
1,1,$1+$1,$2,$3*
1,1,$1+$1,$4,$5*
1,1,$1+$1,$6,$7*
1,1,$1+$1,$8,$9*
0 Add four rect primitives between the rounded corners*
20,1,$1+$1,$2,$3,$4,$5,0*
20,1,$1+$1,$4,$5,$6,$7,0*
20,1,$1+$1,$6,$7,$8,$9,0*
20,1,$1+$1,$8,$9,$2,$3,0*%
G04 Aperture macros list end*
%ADD10C,1.651000*%
%ADD11R,1.651000X1.651000*%
%ADD12R,2.200000X2.200000*%
%ADD13O,2.200000X2.200000*%
%ADD14R,1.700000X1.700000*%
%ADD15O,1.700000X1.700000*%
%ADD16RoundRect,0.102000X-0.765000X-0.765000X0.765000X-0.765000X0.765000X0.765000X-0.765000X0.765000X0*%
%ADD17C,1.734000*%
%ADD18C,3.200000*%
%ADD19R,3.000000X3.000000*%
%ADD20C,3.000000*%
G04 APERTURE END LIST*
D10*
X140000000Y-91560000D03*
X140000000Y-94100000D03*
D11*
X140000000Y-96640000D03*
D12*
X118740000Y-91200000D03*
D13*
X128900000Y-91200000D03*
D14*
X144640000Y-83400000D03*
D15*
X142100000Y-83400000D03*
X139560000Y-83400000D03*
X137020000Y-83400000D03*
X134480000Y-83400000D03*
D16*
X128400000Y-55253800D03*
D17*
X128400000Y-57260400D03*
X128400000Y-59267000D03*
X128400000Y-61273600D03*
X128400000Y-63280200D03*
X128400000Y-65286800D03*
X128400000Y-67293400D03*
X128400000Y-69300000D03*
X128400000Y-71306600D03*
X128400000Y-73313200D03*
X150396400Y-73313200D03*
X150396400Y-71306600D03*
X150396400Y-69300000D03*
X150396400Y-67293400D03*
X150396400Y-65286800D03*
X150396400Y-63280200D03*
X150396400Y-61273600D03*
X150396400Y-59267000D03*
X150396400Y-57260400D03*
X150396400Y-55253800D03*
D18*
X122400000Y-50300000D03*
D14*
X156775000Y-79160000D03*
D15*
X156775000Y-76620000D03*
X156775000Y-74080000D03*
X156775000Y-71540000D03*
X156775000Y-69000000D03*
X156775000Y-66460000D03*
X156775000Y-63920000D03*
X156775000Y-61380000D03*
X156775000Y-58840000D03*
X156775000Y-56300000D03*
D18*
X156800000Y-100000000D03*
D14*
X122425000Y-56300000D03*
D15*
X122425000Y-58840000D03*
X122425000Y-61380000D03*
X122425000Y-63920000D03*
X122425000Y-66460000D03*
X122425000Y-69000000D03*
X122425000Y-71540000D03*
X122425000Y-74080000D03*
X122425000Y-76620000D03*
X122425000Y-79160000D03*
D18*
X156800000Y-50300000D03*
X122400000Y-100000000D03*
D19*
X154600000Y-91800000D03*
D20*
X149600000Y-91800000D03*
M02*
