G04 #@! TF.GenerationSoftware,KiCad,Pcbnew,7.0.8*
G04 #@! TF.CreationDate,2025-02-11T22:02:48-06:00*
G04 #@! TF.ProjectId,XBeeBreakoutBoard,58426565-4272-4656-916b-6f7574426f61,rev?*
G04 #@! TF.SameCoordinates,Original*
G04 #@! TF.FileFunction,Legend,Top*
G04 #@! TF.FilePolarity,Positive*
%FSLAX46Y46*%
G04 Gerber Fmt 4.6, Leading zero omitted, Abs format (unit mm)*
G04 Created by KiCad (PCBNEW 7.0.8) date 2025-02-11 22:02:48*
%MOMM*%
%LPD*%
G01*
G04 APERTURE LIST*
G04 Aperture macros list*
%AMRoundRect*
0 Rectangle with rounded corners*
0 $1 Rounding radius*
0 $2 $3 $4 $5 $6 $7 $8 $9 X,Y pos of 4 corners*
0 Add a 4 corners polygon primitive as box body*
4,1,4,$2,$3,$4,$5,$6,$7,$8,$9,$2,$3,0*
0 Add four circle primitives for the rounded corners*
1,1,$1+$1,$2,$3*
1,1,$1+$1,$4,$5*
1,1,$1+$1,$6,$7*
1,1,$1+$1,$8,$9*
0 Add four rect primitives between the rounded corners*
20,1,$1+$1,$2,$3,$4,$5,0*
20,1,$1+$1,$4,$5,$6,$7,0*
20,1,$1+$1,$6,$7,$8,$9,0*
20,1,$1+$1,$8,$9,$2,$3,0*%
G04 Aperture macros list end*
%ADD10C,0.150000*%
%ADD11C,0.152400*%
%ADD12C,0.120000*%
%ADD13C,0.127000*%
%ADD14C,0.400000*%
%ADD15C,1.651000*%
%ADD16R,1.651000X1.651000*%
%ADD17R,2.200000X2.200000*%
%ADD18O,2.200000X2.200000*%
%ADD19R,1.700000X1.700000*%
%ADD20O,1.700000X1.700000*%
%ADD21RoundRect,0.102000X-0.765000X-0.765000X0.765000X-0.765000X0.765000X0.765000X-0.765000X0.765000X0*%
%ADD22C,1.734000*%
%ADD23C,3.200000*%
%ADD24RoundRect,0.250000X0.475000X-0.250000X0.475000X0.250000X-0.475000X0.250000X-0.475000X-0.250000X0*%
%ADD25R,3.000000X3.000000*%
%ADD26C,3.000000*%
%ADD27RoundRect,0.225000X-0.250000X0.225000X-0.250000X-0.225000X0.250000X-0.225000X0.250000X0.225000X0*%
G04 APERTURE END LIST*
D10*
X142630190Y-78846087D02*
X143337297Y-78138980D01*
X143337297Y-78138980D02*
X143067923Y-78879758D01*
X143067923Y-78879758D02*
X143808702Y-78610384D01*
X143808702Y-78610384D02*
X143101595Y-79317491D01*
X144280106Y-79081789D02*
X144414793Y-79216476D01*
X144414793Y-79216476D02*
X144448465Y-79317491D01*
X144448465Y-79317491D02*
X144448465Y-79452178D01*
X144448465Y-79452178D02*
X144347449Y-79620537D01*
X144347449Y-79620537D02*
X144111747Y-79856239D01*
X144111747Y-79856239D02*
X143943388Y-79957254D01*
X143943388Y-79957254D02*
X143808701Y-79957254D01*
X143808701Y-79957254D02*
X143707686Y-79923582D01*
X143707686Y-79923582D02*
X143572999Y-79788895D01*
X143572999Y-79788895D02*
X143539327Y-79687880D01*
X143539327Y-79687880D02*
X143539327Y-79553193D01*
X143539327Y-79553193D02*
X143640343Y-79384834D01*
X143640343Y-79384834D02*
X143876045Y-79149132D01*
X143876045Y-79149132D02*
X144044404Y-79048117D01*
X144044404Y-79048117D02*
X144179091Y-79048117D01*
X144179091Y-79048117D02*
X144280106Y-79081789D01*
X144179091Y-80327643D02*
X144246434Y-80462330D01*
X144246434Y-80462330D02*
X144414793Y-80630689D01*
X144414793Y-80630689D02*
X144515808Y-80664361D01*
X144515808Y-80664361D02*
X144583152Y-80664361D01*
X144583152Y-80664361D02*
X144684167Y-80630689D01*
X144684167Y-80630689D02*
X144751510Y-80563346D01*
X144751510Y-80563346D02*
X144785182Y-80462330D01*
X144785182Y-80462330D02*
X144785182Y-80394987D01*
X144785182Y-80394987D02*
X144751510Y-80293972D01*
X144751510Y-80293972D02*
X144650495Y-80125613D01*
X144650495Y-80125613D02*
X144616823Y-80024598D01*
X144616823Y-80024598D02*
X144616823Y-79957254D01*
X144616823Y-79957254D02*
X144650495Y-79856239D01*
X144650495Y-79856239D02*
X144717839Y-79788895D01*
X144717839Y-79788895D02*
X144818854Y-79755224D01*
X144818854Y-79755224D02*
X144886197Y-79755224D01*
X144886197Y-79755224D02*
X144987213Y-79788895D01*
X144987213Y-79788895D02*
X145155571Y-79957254D01*
X145155571Y-79957254D02*
X145222915Y-80091941D01*
X144852526Y-81068422D02*
X145559632Y-80361315D01*
X140230190Y-79678743D02*
X140297534Y-79813430D01*
X140297534Y-79813430D02*
X140465892Y-79981789D01*
X140465892Y-79981789D02*
X140566908Y-80015461D01*
X140566908Y-80015461D02*
X140634251Y-80015461D01*
X140634251Y-80015461D02*
X140735266Y-79981789D01*
X140735266Y-79981789D02*
X140802610Y-79914445D01*
X140802610Y-79914445D02*
X140836282Y-79813430D01*
X140836282Y-79813430D02*
X140836282Y-79746087D01*
X140836282Y-79746087D02*
X140802610Y-79645071D01*
X140802610Y-79645071D02*
X140701595Y-79476713D01*
X140701595Y-79476713D02*
X140667923Y-79375697D01*
X140667923Y-79375697D02*
X140667923Y-79308354D01*
X140667923Y-79308354D02*
X140701595Y-79207339D01*
X140701595Y-79207339D02*
X140768938Y-79139995D01*
X140768938Y-79139995D02*
X140869953Y-79106323D01*
X140869953Y-79106323D02*
X140937297Y-79106323D01*
X140937297Y-79106323D02*
X141038312Y-79139995D01*
X141038312Y-79139995D02*
X141206671Y-79308354D01*
X141206671Y-79308354D02*
X141274015Y-79443041D01*
X141375030Y-80756239D02*
X141307686Y-80756239D01*
X141307686Y-80756239D02*
X141172999Y-80688896D01*
X141172999Y-80688896D02*
X141105656Y-80621552D01*
X141105656Y-80621552D02*
X141038312Y-80486865D01*
X141038312Y-80486865D02*
X141038312Y-80352178D01*
X141038312Y-80352178D02*
X141071984Y-80251163D01*
X141071984Y-80251163D02*
X141172999Y-80082804D01*
X141172999Y-80082804D02*
X141274015Y-79981789D01*
X141274015Y-79981789D02*
X141442373Y-79880774D01*
X141442373Y-79880774D02*
X141543389Y-79847102D01*
X141543389Y-79847102D02*
X141678076Y-79847102D01*
X141678076Y-79847102D02*
X141812763Y-79914445D01*
X141812763Y-79914445D02*
X141880106Y-79981789D01*
X141880106Y-79981789D02*
X141947450Y-80116476D01*
X141947450Y-80116476D02*
X141947450Y-80183819D01*
X141610732Y-81126628D02*
X142317839Y-80419522D01*
X142014793Y-81530689D02*
X142115808Y-80823583D01*
X142721900Y-80823583D02*
X141913778Y-80823583D01*
X136534251Y-80950148D02*
X136635266Y-80377728D01*
X136130190Y-80546087D02*
X136837297Y-79838980D01*
X136837297Y-79838980D02*
X137106671Y-80108354D01*
X137106671Y-80108354D02*
X137140343Y-80209369D01*
X137140343Y-80209369D02*
X137140343Y-80276713D01*
X137140343Y-80276713D02*
X137106671Y-80377728D01*
X137106671Y-80377728D02*
X137005656Y-80478743D01*
X137005656Y-80478743D02*
X136904641Y-80512415D01*
X136904641Y-80512415D02*
X136837297Y-80512415D01*
X136837297Y-80512415D02*
X136736282Y-80478743D01*
X136736282Y-80478743D02*
X136466908Y-80209369D01*
X136769953Y-81185850D02*
X137611747Y-81084835D01*
X137241358Y-80714445D02*
X137140343Y-81556239D01*
X139336282Y-80037965D02*
X139740343Y-80442026D01*
X138831205Y-80947102D02*
X139538312Y-80239995D01*
X139201595Y-81317491D02*
X140043389Y-81216476D01*
X139672999Y-80846087D02*
X139571984Y-81687881D01*
X132230190Y-79146087D02*
X132937297Y-78438980D01*
X132937297Y-78438980D02*
X132667923Y-79179758D01*
X132667923Y-79179758D02*
X133408702Y-78910384D01*
X133408702Y-78910384D02*
X132701595Y-79617491D01*
X133038312Y-79954208D02*
X133745419Y-79247102D01*
X133375029Y-80223582D02*
X133442373Y-80358269D01*
X133442373Y-80358269D02*
X133610732Y-80526628D01*
X133610732Y-80526628D02*
X133711747Y-80560300D01*
X133711747Y-80560300D02*
X133779090Y-80560300D01*
X133779090Y-80560300D02*
X133880106Y-80526628D01*
X133880106Y-80526628D02*
X133947449Y-80459284D01*
X133947449Y-80459284D02*
X133981121Y-80358269D01*
X133981121Y-80358269D02*
X133981121Y-80290926D01*
X133981121Y-80290926D02*
X133947449Y-80189910D01*
X133947449Y-80189910D02*
X133846434Y-80021552D01*
X133846434Y-80021552D02*
X133812762Y-79920536D01*
X133812762Y-79920536D02*
X133812762Y-79853193D01*
X133812762Y-79853193D02*
X133846434Y-79752178D01*
X133846434Y-79752178D02*
X133913777Y-79684834D01*
X133913777Y-79684834D02*
X134014793Y-79651162D01*
X134014793Y-79651162D02*
X134082136Y-79651162D01*
X134082136Y-79651162D02*
X134183151Y-79684834D01*
X134183151Y-79684834D02*
X134351510Y-79853193D01*
X134351510Y-79853193D02*
X134418854Y-79987880D01*
X134890258Y-80391941D02*
X135024945Y-80526628D01*
X135024945Y-80526628D02*
X135058617Y-80627643D01*
X135058617Y-80627643D02*
X135058617Y-80762330D01*
X135058617Y-80762330D02*
X134957602Y-80930689D01*
X134957602Y-80930689D02*
X134721899Y-81166391D01*
X134721899Y-81166391D02*
X134553541Y-81267406D01*
X134553541Y-81267406D02*
X134418854Y-81267406D01*
X134418854Y-81267406D02*
X134317838Y-81233735D01*
X134317838Y-81233735D02*
X134183151Y-81099048D01*
X134183151Y-81099048D02*
X134149480Y-80998032D01*
X134149480Y-80998032D02*
X134149480Y-80863345D01*
X134149480Y-80863345D02*
X134250495Y-80694987D01*
X134250495Y-80694987D02*
X134486197Y-80459284D01*
X134486197Y-80459284D02*
X134654556Y-80358269D01*
X134654556Y-80358269D02*
X134789243Y-80358269D01*
X134789243Y-80358269D02*
X134890258Y-80391941D01*
X128036779Y-102549819D02*
X128036779Y-101549819D01*
X128036779Y-101549819D02*
X128274874Y-101549819D01*
X128274874Y-101549819D02*
X128417731Y-101597438D01*
X128417731Y-101597438D02*
X128512969Y-101692676D01*
X128512969Y-101692676D02*
X128560588Y-101787914D01*
X128560588Y-101787914D02*
X128608207Y-101978390D01*
X128608207Y-101978390D02*
X128608207Y-102121247D01*
X128608207Y-102121247D02*
X128560588Y-102311723D01*
X128560588Y-102311723D02*
X128512969Y-102406961D01*
X128512969Y-102406961D02*
X128417731Y-102502200D01*
X128417731Y-102502200D02*
X128274874Y-102549819D01*
X128274874Y-102549819D02*
X128036779Y-102549819D01*
X129417731Y-102502200D02*
X129322493Y-102549819D01*
X129322493Y-102549819D02*
X129132017Y-102549819D01*
X129132017Y-102549819D02*
X129036779Y-102502200D01*
X129036779Y-102502200D02*
X128989160Y-102406961D01*
X128989160Y-102406961D02*
X128989160Y-102026009D01*
X128989160Y-102026009D02*
X129036779Y-101930771D01*
X129036779Y-101930771D02*
X129132017Y-101883152D01*
X129132017Y-101883152D02*
X129322493Y-101883152D01*
X129322493Y-101883152D02*
X129417731Y-101930771D01*
X129417731Y-101930771D02*
X129465350Y-102026009D01*
X129465350Y-102026009D02*
X129465350Y-102121247D01*
X129465350Y-102121247D02*
X128989160Y-102216485D01*
X129846303Y-102502200D02*
X129941541Y-102549819D01*
X129941541Y-102549819D02*
X130132017Y-102549819D01*
X130132017Y-102549819D02*
X130227255Y-102502200D01*
X130227255Y-102502200D02*
X130274874Y-102406961D01*
X130274874Y-102406961D02*
X130274874Y-102359342D01*
X130274874Y-102359342D02*
X130227255Y-102264104D01*
X130227255Y-102264104D02*
X130132017Y-102216485D01*
X130132017Y-102216485D02*
X129989160Y-102216485D01*
X129989160Y-102216485D02*
X129893922Y-102168866D01*
X129893922Y-102168866D02*
X129846303Y-102073628D01*
X129846303Y-102073628D02*
X129846303Y-102026009D01*
X129846303Y-102026009D02*
X129893922Y-101930771D01*
X129893922Y-101930771D02*
X129989160Y-101883152D01*
X129989160Y-101883152D02*
X130132017Y-101883152D01*
X130132017Y-101883152D02*
X130227255Y-101930771D01*
X130703446Y-102549819D02*
X130703446Y-101883152D01*
X130703446Y-101549819D02*
X130655827Y-101597438D01*
X130655827Y-101597438D02*
X130703446Y-101645057D01*
X130703446Y-101645057D02*
X130751065Y-101597438D01*
X130751065Y-101597438D02*
X130703446Y-101549819D01*
X130703446Y-101549819D02*
X130703446Y-101645057D01*
X131608207Y-101883152D02*
X131608207Y-102692676D01*
X131608207Y-102692676D02*
X131560588Y-102787914D01*
X131560588Y-102787914D02*
X131512969Y-102835533D01*
X131512969Y-102835533D02*
X131417731Y-102883152D01*
X131417731Y-102883152D02*
X131274874Y-102883152D01*
X131274874Y-102883152D02*
X131179636Y-102835533D01*
X131608207Y-102502200D02*
X131512969Y-102549819D01*
X131512969Y-102549819D02*
X131322493Y-102549819D01*
X131322493Y-102549819D02*
X131227255Y-102502200D01*
X131227255Y-102502200D02*
X131179636Y-102454580D01*
X131179636Y-102454580D02*
X131132017Y-102359342D01*
X131132017Y-102359342D02*
X131132017Y-102073628D01*
X131132017Y-102073628D02*
X131179636Y-101978390D01*
X131179636Y-101978390D02*
X131227255Y-101930771D01*
X131227255Y-101930771D02*
X131322493Y-101883152D01*
X131322493Y-101883152D02*
X131512969Y-101883152D01*
X131512969Y-101883152D02*
X131608207Y-101930771D01*
X132084398Y-101883152D02*
X132084398Y-102549819D01*
X132084398Y-101978390D02*
X132132017Y-101930771D01*
X132132017Y-101930771D02*
X132227255Y-101883152D01*
X132227255Y-101883152D02*
X132370112Y-101883152D01*
X132370112Y-101883152D02*
X132465350Y-101930771D01*
X132465350Y-101930771D02*
X132512969Y-102026009D01*
X132512969Y-102026009D02*
X132512969Y-102549819D01*
X133370112Y-102502200D02*
X133274874Y-102549819D01*
X133274874Y-102549819D02*
X133084398Y-102549819D01*
X133084398Y-102549819D02*
X132989160Y-102502200D01*
X132989160Y-102502200D02*
X132941541Y-102406961D01*
X132941541Y-102406961D02*
X132941541Y-102026009D01*
X132941541Y-102026009D02*
X132989160Y-101930771D01*
X132989160Y-101930771D02*
X133084398Y-101883152D01*
X133084398Y-101883152D02*
X133274874Y-101883152D01*
X133274874Y-101883152D02*
X133370112Y-101930771D01*
X133370112Y-101930771D02*
X133417731Y-102026009D01*
X133417731Y-102026009D02*
X133417731Y-102121247D01*
X133417731Y-102121247D02*
X132941541Y-102216485D01*
X133846303Y-102549819D02*
X133846303Y-101883152D01*
X133846303Y-102073628D02*
X133893922Y-101978390D01*
X133893922Y-101978390D02*
X133941541Y-101930771D01*
X133941541Y-101930771D02*
X134036779Y-101883152D01*
X134036779Y-101883152D02*
X134132017Y-101883152D01*
X134465351Y-102454580D02*
X134512970Y-102502200D01*
X134512970Y-102502200D02*
X134465351Y-102549819D01*
X134465351Y-102549819D02*
X134417732Y-102502200D01*
X134417732Y-102502200D02*
X134465351Y-102454580D01*
X134465351Y-102454580D02*
X134465351Y-102549819D01*
X134465351Y-101930771D02*
X134512970Y-101978390D01*
X134512970Y-101978390D02*
X134465351Y-102026009D01*
X134465351Y-102026009D02*
X134417732Y-101978390D01*
X134417732Y-101978390D02*
X134465351Y-101930771D01*
X134465351Y-101930771D02*
X134465351Y-102026009D01*
X136274874Y-102549819D02*
X135941541Y-102073628D01*
X135703446Y-102549819D02*
X135703446Y-101549819D01*
X135703446Y-101549819D02*
X136084398Y-101549819D01*
X136084398Y-101549819D02*
X136179636Y-101597438D01*
X136179636Y-101597438D02*
X136227255Y-101645057D01*
X136227255Y-101645057D02*
X136274874Y-101740295D01*
X136274874Y-101740295D02*
X136274874Y-101883152D01*
X136274874Y-101883152D02*
X136227255Y-101978390D01*
X136227255Y-101978390D02*
X136179636Y-102026009D01*
X136179636Y-102026009D02*
X136084398Y-102073628D01*
X136084398Y-102073628D02*
X135703446Y-102073628D01*
X137132017Y-102549819D02*
X137132017Y-102026009D01*
X137132017Y-102026009D02*
X137084398Y-101930771D01*
X137084398Y-101930771D02*
X136989160Y-101883152D01*
X136989160Y-101883152D02*
X136798684Y-101883152D01*
X136798684Y-101883152D02*
X136703446Y-101930771D01*
X137132017Y-102502200D02*
X137036779Y-102549819D01*
X137036779Y-102549819D02*
X136798684Y-102549819D01*
X136798684Y-102549819D02*
X136703446Y-102502200D01*
X136703446Y-102502200D02*
X136655827Y-102406961D01*
X136655827Y-102406961D02*
X136655827Y-102311723D01*
X136655827Y-102311723D02*
X136703446Y-102216485D01*
X136703446Y-102216485D02*
X136798684Y-102168866D01*
X136798684Y-102168866D02*
X137036779Y-102168866D01*
X137036779Y-102168866D02*
X137132017Y-102121247D01*
X137608208Y-102549819D02*
X137608208Y-101549819D01*
X137703446Y-102168866D02*
X137989160Y-102549819D01*
X137989160Y-101883152D02*
X137608208Y-102264104D01*
X138370113Y-102502200D02*
X138465351Y-102549819D01*
X138465351Y-102549819D02*
X138655827Y-102549819D01*
X138655827Y-102549819D02*
X138751065Y-102502200D01*
X138751065Y-102502200D02*
X138798684Y-102406961D01*
X138798684Y-102406961D02*
X138798684Y-102359342D01*
X138798684Y-102359342D02*
X138751065Y-102264104D01*
X138751065Y-102264104D02*
X138655827Y-102216485D01*
X138655827Y-102216485D02*
X138512970Y-102216485D01*
X138512970Y-102216485D02*
X138417732Y-102168866D01*
X138417732Y-102168866D02*
X138370113Y-102073628D01*
X138370113Y-102073628D02*
X138370113Y-102026009D01*
X138370113Y-102026009D02*
X138417732Y-101930771D01*
X138417732Y-101930771D02*
X138512970Y-101883152D01*
X138512970Y-101883152D02*
X138655827Y-101883152D01*
X138655827Y-101883152D02*
X138751065Y-101930771D01*
X139227256Y-102549819D02*
X139227256Y-101549819D01*
X139655827Y-102549819D02*
X139655827Y-102026009D01*
X139655827Y-102026009D02*
X139608208Y-101930771D01*
X139608208Y-101930771D02*
X139512970Y-101883152D01*
X139512970Y-101883152D02*
X139370113Y-101883152D01*
X139370113Y-101883152D02*
X139274875Y-101930771D01*
X139274875Y-101930771D02*
X139227256Y-101978390D01*
X140560589Y-102549819D02*
X140560589Y-102026009D01*
X140560589Y-102026009D02*
X140512970Y-101930771D01*
X140512970Y-101930771D02*
X140417732Y-101883152D01*
X140417732Y-101883152D02*
X140227256Y-101883152D01*
X140227256Y-101883152D02*
X140132018Y-101930771D01*
X140560589Y-102502200D02*
X140465351Y-102549819D01*
X140465351Y-102549819D02*
X140227256Y-102549819D01*
X140227256Y-102549819D02*
X140132018Y-102502200D01*
X140132018Y-102502200D02*
X140084399Y-102406961D01*
X140084399Y-102406961D02*
X140084399Y-102311723D01*
X140084399Y-102311723D02*
X140132018Y-102216485D01*
X140132018Y-102216485D02*
X140227256Y-102168866D01*
X140227256Y-102168866D02*
X140465351Y-102168866D01*
X140465351Y-102168866D02*
X140560589Y-102121247D01*
X141036780Y-102549819D02*
X141036780Y-101549819D01*
X141132018Y-102168866D02*
X141417732Y-102549819D01*
X141417732Y-101883152D02*
X141036780Y-102264104D01*
X142560590Y-102502200D02*
X142703447Y-102549819D01*
X142703447Y-102549819D02*
X142941542Y-102549819D01*
X142941542Y-102549819D02*
X143036780Y-102502200D01*
X143036780Y-102502200D02*
X143084399Y-102454580D01*
X143084399Y-102454580D02*
X143132018Y-102359342D01*
X143132018Y-102359342D02*
X143132018Y-102264104D01*
X143132018Y-102264104D02*
X143084399Y-102168866D01*
X143084399Y-102168866D02*
X143036780Y-102121247D01*
X143036780Y-102121247D02*
X142941542Y-102073628D01*
X142941542Y-102073628D02*
X142751066Y-102026009D01*
X142751066Y-102026009D02*
X142655828Y-101978390D01*
X142655828Y-101978390D02*
X142608209Y-101930771D01*
X142608209Y-101930771D02*
X142560590Y-101835533D01*
X142560590Y-101835533D02*
X142560590Y-101740295D01*
X142560590Y-101740295D02*
X142608209Y-101645057D01*
X142608209Y-101645057D02*
X142655828Y-101597438D01*
X142655828Y-101597438D02*
X142751066Y-101549819D01*
X142751066Y-101549819D02*
X142989161Y-101549819D01*
X142989161Y-101549819D02*
X143132018Y-101597438D01*
X143989161Y-101883152D02*
X143989161Y-102549819D01*
X143560590Y-101883152D02*
X143560590Y-102406961D01*
X143560590Y-102406961D02*
X143608209Y-102502200D01*
X143608209Y-102502200D02*
X143703447Y-102549819D01*
X143703447Y-102549819D02*
X143846304Y-102549819D01*
X143846304Y-102549819D02*
X143941542Y-102502200D01*
X143941542Y-102502200D02*
X143989161Y-102454580D01*
X144893923Y-102549819D02*
X144893923Y-101549819D01*
X144893923Y-102502200D02*
X144798685Y-102549819D01*
X144798685Y-102549819D02*
X144608209Y-102549819D01*
X144608209Y-102549819D02*
X144512971Y-102502200D01*
X144512971Y-102502200D02*
X144465352Y-102454580D01*
X144465352Y-102454580D02*
X144417733Y-102359342D01*
X144417733Y-102359342D02*
X144417733Y-102073628D01*
X144417733Y-102073628D02*
X144465352Y-101978390D01*
X144465352Y-101978390D02*
X144512971Y-101930771D01*
X144512971Y-101930771D02*
X144608209Y-101883152D01*
X144608209Y-101883152D02*
X144798685Y-101883152D01*
X144798685Y-101883152D02*
X144893923Y-101930771D01*
X145370114Y-102549819D02*
X145370114Y-101549819D01*
X145798685Y-102549819D02*
X145798685Y-102026009D01*
X145798685Y-102026009D02*
X145751066Y-101930771D01*
X145751066Y-101930771D02*
X145655828Y-101883152D01*
X145655828Y-101883152D02*
X145512971Y-101883152D01*
X145512971Y-101883152D02*
X145417733Y-101930771D01*
X145417733Y-101930771D02*
X145370114Y-101978390D01*
X146703447Y-102549819D02*
X146703447Y-102026009D01*
X146703447Y-102026009D02*
X146655828Y-101930771D01*
X146655828Y-101930771D02*
X146560590Y-101883152D01*
X146560590Y-101883152D02*
X146370114Y-101883152D01*
X146370114Y-101883152D02*
X146274876Y-101930771D01*
X146703447Y-102502200D02*
X146608209Y-102549819D01*
X146608209Y-102549819D02*
X146370114Y-102549819D01*
X146370114Y-102549819D02*
X146274876Y-102502200D01*
X146274876Y-102502200D02*
X146227257Y-102406961D01*
X146227257Y-102406961D02*
X146227257Y-102311723D01*
X146227257Y-102311723D02*
X146274876Y-102216485D01*
X146274876Y-102216485D02*
X146370114Y-102168866D01*
X146370114Y-102168866D02*
X146608209Y-102168866D01*
X146608209Y-102168866D02*
X146703447Y-102121247D01*
X147179638Y-102549819D02*
X147179638Y-101549819D01*
X147274876Y-102168866D02*
X147560590Y-102549819D01*
X147560590Y-101883152D02*
X147179638Y-102264104D01*
X148417733Y-102549819D02*
X148417733Y-102026009D01*
X148417733Y-102026009D02*
X148370114Y-101930771D01*
X148370114Y-101930771D02*
X148274876Y-101883152D01*
X148274876Y-101883152D02*
X148084400Y-101883152D01*
X148084400Y-101883152D02*
X147989162Y-101930771D01*
X148417733Y-102502200D02*
X148322495Y-102549819D01*
X148322495Y-102549819D02*
X148084400Y-102549819D01*
X148084400Y-102549819D02*
X147989162Y-102502200D01*
X147989162Y-102502200D02*
X147941543Y-102406961D01*
X147941543Y-102406961D02*
X147941543Y-102311723D01*
X147941543Y-102311723D02*
X147989162Y-102216485D01*
X147989162Y-102216485D02*
X148084400Y-102168866D01*
X148084400Y-102168866D02*
X148322495Y-102168866D01*
X148322495Y-102168866D02*
X148417733Y-102121247D01*
X148893924Y-102549819D02*
X148893924Y-101883152D01*
X148893924Y-102073628D02*
X148941543Y-101978390D01*
X148941543Y-101978390D02*
X148989162Y-101930771D01*
X148989162Y-101930771D02*
X149084400Y-101883152D01*
X149084400Y-101883152D02*
X149179638Y-101883152D01*
X149941543Y-102549819D02*
X149941543Y-102026009D01*
X149941543Y-102026009D02*
X149893924Y-101930771D01*
X149893924Y-101930771D02*
X149798686Y-101883152D01*
X149798686Y-101883152D02*
X149608210Y-101883152D01*
X149608210Y-101883152D02*
X149512972Y-101930771D01*
X149941543Y-102502200D02*
X149846305Y-102549819D01*
X149846305Y-102549819D02*
X149608210Y-102549819D01*
X149608210Y-102549819D02*
X149512972Y-102502200D01*
X149512972Y-102502200D02*
X149465353Y-102406961D01*
X149465353Y-102406961D02*
X149465353Y-102311723D01*
X149465353Y-102311723D02*
X149512972Y-102216485D01*
X149512972Y-102216485D02*
X149608210Y-102168866D01*
X149608210Y-102168866D02*
X149846305Y-102168866D01*
X149846305Y-102168866D02*
X149941543Y-102121247D01*
X150417734Y-101883152D02*
X150417734Y-102549819D01*
X150417734Y-101978390D02*
X150465353Y-101930771D01*
X150465353Y-101930771D02*
X150560591Y-101883152D01*
X150560591Y-101883152D02*
X150703448Y-101883152D01*
X150703448Y-101883152D02*
X150798686Y-101930771D01*
X150798686Y-101930771D02*
X150846305Y-102026009D01*
X150846305Y-102026009D02*
X150846305Y-102549819D01*
X128036779Y-104159819D02*
X128036779Y-103159819D01*
X128036779Y-103159819D02*
X128274874Y-103159819D01*
X128274874Y-103159819D02*
X128417731Y-103207438D01*
X128417731Y-103207438D02*
X128512969Y-103302676D01*
X128512969Y-103302676D02*
X128560588Y-103397914D01*
X128560588Y-103397914D02*
X128608207Y-103588390D01*
X128608207Y-103588390D02*
X128608207Y-103731247D01*
X128608207Y-103731247D02*
X128560588Y-103921723D01*
X128560588Y-103921723D02*
X128512969Y-104016961D01*
X128512969Y-104016961D02*
X128417731Y-104112200D01*
X128417731Y-104112200D02*
X128274874Y-104159819D01*
X128274874Y-104159819D02*
X128036779Y-104159819D01*
X129465350Y-104159819D02*
X129465350Y-103636009D01*
X129465350Y-103636009D02*
X129417731Y-103540771D01*
X129417731Y-103540771D02*
X129322493Y-103493152D01*
X129322493Y-103493152D02*
X129132017Y-103493152D01*
X129132017Y-103493152D02*
X129036779Y-103540771D01*
X129465350Y-104112200D02*
X129370112Y-104159819D01*
X129370112Y-104159819D02*
X129132017Y-104159819D01*
X129132017Y-104159819D02*
X129036779Y-104112200D01*
X129036779Y-104112200D02*
X128989160Y-104016961D01*
X128989160Y-104016961D02*
X128989160Y-103921723D01*
X128989160Y-103921723D02*
X129036779Y-103826485D01*
X129036779Y-103826485D02*
X129132017Y-103778866D01*
X129132017Y-103778866D02*
X129370112Y-103778866D01*
X129370112Y-103778866D02*
X129465350Y-103731247D01*
X129798684Y-103493152D02*
X130179636Y-103493152D01*
X129941541Y-103159819D02*
X129941541Y-104016961D01*
X129941541Y-104016961D02*
X129989160Y-104112200D01*
X129989160Y-104112200D02*
X130084398Y-104159819D01*
X130084398Y-104159819D02*
X130179636Y-104159819D01*
X130893922Y-104112200D02*
X130798684Y-104159819D01*
X130798684Y-104159819D02*
X130608208Y-104159819D01*
X130608208Y-104159819D02*
X130512970Y-104112200D01*
X130512970Y-104112200D02*
X130465351Y-104016961D01*
X130465351Y-104016961D02*
X130465351Y-103636009D01*
X130465351Y-103636009D02*
X130512970Y-103540771D01*
X130512970Y-103540771D02*
X130608208Y-103493152D01*
X130608208Y-103493152D02*
X130798684Y-103493152D01*
X130798684Y-103493152D02*
X130893922Y-103540771D01*
X130893922Y-103540771D02*
X130941541Y-103636009D01*
X130941541Y-103636009D02*
X130941541Y-103731247D01*
X130941541Y-103731247D02*
X130465351Y-103826485D01*
X131370113Y-104064580D02*
X131417732Y-104112200D01*
X131417732Y-104112200D02*
X131370113Y-104159819D01*
X131370113Y-104159819D02*
X131322494Y-104112200D01*
X131322494Y-104112200D02*
X131370113Y-104064580D01*
X131370113Y-104064580D02*
X131370113Y-104159819D01*
X131370113Y-103540771D02*
X131417732Y-103588390D01*
X131417732Y-103588390D02*
X131370113Y-103636009D01*
X131370113Y-103636009D02*
X131322494Y-103588390D01*
X131322494Y-103588390D02*
X131370113Y-103540771D01*
X131370113Y-103540771D02*
X131370113Y-103636009D01*
X132798684Y-103159819D02*
X132893922Y-103159819D01*
X132893922Y-103159819D02*
X132989160Y-103207438D01*
X132989160Y-103207438D02*
X133036779Y-103255057D01*
X133036779Y-103255057D02*
X133084398Y-103350295D01*
X133084398Y-103350295D02*
X133132017Y-103540771D01*
X133132017Y-103540771D02*
X133132017Y-103778866D01*
X133132017Y-103778866D02*
X133084398Y-103969342D01*
X133084398Y-103969342D02*
X133036779Y-104064580D01*
X133036779Y-104064580D02*
X132989160Y-104112200D01*
X132989160Y-104112200D02*
X132893922Y-104159819D01*
X132893922Y-104159819D02*
X132798684Y-104159819D01*
X132798684Y-104159819D02*
X132703446Y-104112200D01*
X132703446Y-104112200D02*
X132655827Y-104064580D01*
X132655827Y-104064580D02*
X132608208Y-103969342D01*
X132608208Y-103969342D02*
X132560589Y-103778866D01*
X132560589Y-103778866D02*
X132560589Y-103540771D01*
X132560589Y-103540771D02*
X132608208Y-103350295D01*
X132608208Y-103350295D02*
X132655827Y-103255057D01*
X132655827Y-103255057D02*
X132703446Y-103207438D01*
X132703446Y-103207438D02*
X132798684Y-103159819D01*
X133512970Y-103255057D02*
X133560589Y-103207438D01*
X133560589Y-103207438D02*
X133655827Y-103159819D01*
X133655827Y-103159819D02*
X133893922Y-103159819D01*
X133893922Y-103159819D02*
X133989160Y-103207438D01*
X133989160Y-103207438D02*
X134036779Y-103255057D01*
X134036779Y-103255057D02*
X134084398Y-103350295D01*
X134084398Y-103350295D02*
X134084398Y-103445533D01*
X134084398Y-103445533D02*
X134036779Y-103588390D01*
X134036779Y-103588390D02*
X133465351Y-104159819D01*
X133465351Y-104159819D02*
X134084398Y-104159819D01*
X135227255Y-103112200D02*
X134370113Y-104397914D01*
X135512970Y-103255057D02*
X135560589Y-103207438D01*
X135560589Y-103207438D02*
X135655827Y-103159819D01*
X135655827Y-103159819D02*
X135893922Y-103159819D01*
X135893922Y-103159819D02*
X135989160Y-103207438D01*
X135989160Y-103207438D02*
X136036779Y-103255057D01*
X136036779Y-103255057D02*
X136084398Y-103350295D01*
X136084398Y-103350295D02*
X136084398Y-103445533D01*
X136084398Y-103445533D02*
X136036779Y-103588390D01*
X136036779Y-103588390D02*
X135465351Y-104159819D01*
X135465351Y-104159819D02*
X136084398Y-104159819D01*
X136703446Y-103159819D02*
X136798684Y-103159819D01*
X136798684Y-103159819D02*
X136893922Y-103207438D01*
X136893922Y-103207438D02*
X136941541Y-103255057D01*
X136941541Y-103255057D02*
X136989160Y-103350295D01*
X136989160Y-103350295D02*
X137036779Y-103540771D01*
X137036779Y-103540771D02*
X137036779Y-103778866D01*
X137036779Y-103778866D02*
X136989160Y-103969342D01*
X136989160Y-103969342D02*
X136941541Y-104064580D01*
X136941541Y-104064580D02*
X136893922Y-104112200D01*
X136893922Y-104112200D02*
X136798684Y-104159819D01*
X136798684Y-104159819D02*
X136703446Y-104159819D01*
X136703446Y-104159819D02*
X136608208Y-104112200D01*
X136608208Y-104112200D02*
X136560589Y-104064580D01*
X136560589Y-104064580D02*
X136512970Y-103969342D01*
X136512970Y-103969342D02*
X136465351Y-103778866D01*
X136465351Y-103778866D02*
X136465351Y-103540771D01*
X136465351Y-103540771D02*
X136512970Y-103350295D01*
X136512970Y-103350295D02*
X136560589Y-103255057D01*
X136560589Y-103255057D02*
X136608208Y-103207438D01*
X136608208Y-103207438D02*
X136703446Y-103159819D01*
X137417732Y-103255057D02*
X137465351Y-103207438D01*
X137465351Y-103207438D02*
X137560589Y-103159819D01*
X137560589Y-103159819D02*
X137798684Y-103159819D01*
X137798684Y-103159819D02*
X137893922Y-103207438D01*
X137893922Y-103207438D02*
X137941541Y-103255057D01*
X137941541Y-103255057D02*
X137989160Y-103350295D01*
X137989160Y-103350295D02*
X137989160Y-103445533D01*
X137989160Y-103445533D02*
X137941541Y-103588390D01*
X137941541Y-103588390D02*
X137370113Y-104159819D01*
X137370113Y-104159819D02*
X137989160Y-104159819D01*
X138893922Y-103159819D02*
X138417732Y-103159819D01*
X138417732Y-103159819D02*
X138370113Y-103636009D01*
X138370113Y-103636009D02*
X138417732Y-103588390D01*
X138417732Y-103588390D02*
X138512970Y-103540771D01*
X138512970Y-103540771D02*
X138751065Y-103540771D01*
X138751065Y-103540771D02*
X138846303Y-103588390D01*
X138846303Y-103588390D02*
X138893922Y-103636009D01*
X138893922Y-103636009D02*
X138941541Y-103731247D01*
X138941541Y-103731247D02*
X138941541Y-103969342D01*
X138941541Y-103969342D02*
X138893922Y-104064580D01*
X138893922Y-104064580D02*
X138846303Y-104112200D01*
X138846303Y-104112200D02*
X138751065Y-104159819D01*
X138751065Y-104159819D02*
X138512970Y-104159819D01*
X138512970Y-104159819D02*
X138417732Y-104112200D01*
X138417732Y-104112200D02*
X138370113Y-104064580D01*
X128036779Y-105769819D02*
X128036779Y-104769819D01*
X128036779Y-104769819D02*
X128608207Y-105769819D01*
X128608207Y-105769819D02*
X128608207Y-104769819D01*
X129512969Y-105769819D02*
X129512969Y-105246009D01*
X129512969Y-105246009D02*
X129465350Y-105150771D01*
X129465350Y-105150771D02*
X129370112Y-105103152D01*
X129370112Y-105103152D02*
X129179636Y-105103152D01*
X129179636Y-105103152D02*
X129084398Y-105150771D01*
X129512969Y-105722200D02*
X129417731Y-105769819D01*
X129417731Y-105769819D02*
X129179636Y-105769819D01*
X129179636Y-105769819D02*
X129084398Y-105722200D01*
X129084398Y-105722200D02*
X129036779Y-105626961D01*
X129036779Y-105626961D02*
X129036779Y-105531723D01*
X129036779Y-105531723D02*
X129084398Y-105436485D01*
X129084398Y-105436485D02*
X129179636Y-105388866D01*
X129179636Y-105388866D02*
X129417731Y-105388866D01*
X129417731Y-105388866D02*
X129512969Y-105341247D01*
X129989160Y-105769819D02*
X129989160Y-105103152D01*
X129989160Y-105198390D02*
X130036779Y-105150771D01*
X130036779Y-105150771D02*
X130132017Y-105103152D01*
X130132017Y-105103152D02*
X130274874Y-105103152D01*
X130274874Y-105103152D02*
X130370112Y-105150771D01*
X130370112Y-105150771D02*
X130417731Y-105246009D01*
X130417731Y-105246009D02*
X130417731Y-105769819D01*
X130417731Y-105246009D02*
X130465350Y-105150771D01*
X130465350Y-105150771D02*
X130560588Y-105103152D01*
X130560588Y-105103152D02*
X130703445Y-105103152D01*
X130703445Y-105103152D02*
X130798684Y-105150771D01*
X130798684Y-105150771D02*
X130846303Y-105246009D01*
X130846303Y-105246009D02*
X130846303Y-105769819D01*
X131703445Y-105722200D02*
X131608207Y-105769819D01*
X131608207Y-105769819D02*
X131417731Y-105769819D01*
X131417731Y-105769819D02*
X131322493Y-105722200D01*
X131322493Y-105722200D02*
X131274874Y-105626961D01*
X131274874Y-105626961D02*
X131274874Y-105246009D01*
X131274874Y-105246009D02*
X131322493Y-105150771D01*
X131322493Y-105150771D02*
X131417731Y-105103152D01*
X131417731Y-105103152D02*
X131608207Y-105103152D01*
X131608207Y-105103152D02*
X131703445Y-105150771D01*
X131703445Y-105150771D02*
X131751064Y-105246009D01*
X131751064Y-105246009D02*
X131751064Y-105341247D01*
X131751064Y-105341247D02*
X131274874Y-105436485D01*
X132179636Y-105674580D02*
X132227255Y-105722200D01*
X132227255Y-105722200D02*
X132179636Y-105769819D01*
X132179636Y-105769819D02*
X132132017Y-105722200D01*
X132132017Y-105722200D02*
X132179636Y-105674580D01*
X132179636Y-105674580D02*
X132179636Y-105769819D01*
X132179636Y-105150771D02*
X132227255Y-105198390D01*
X132227255Y-105198390D02*
X132179636Y-105246009D01*
X132179636Y-105246009D02*
X132132017Y-105198390D01*
X132132017Y-105198390D02*
X132179636Y-105150771D01*
X132179636Y-105150771D02*
X132179636Y-105246009D01*
X133322493Y-104769819D02*
X133989159Y-105769819D01*
X133989159Y-104769819D02*
X133322493Y-105769819D01*
X134703445Y-105246009D02*
X134846302Y-105293628D01*
X134846302Y-105293628D02*
X134893921Y-105341247D01*
X134893921Y-105341247D02*
X134941540Y-105436485D01*
X134941540Y-105436485D02*
X134941540Y-105579342D01*
X134941540Y-105579342D02*
X134893921Y-105674580D01*
X134893921Y-105674580D02*
X134846302Y-105722200D01*
X134846302Y-105722200D02*
X134751064Y-105769819D01*
X134751064Y-105769819D02*
X134370112Y-105769819D01*
X134370112Y-105769819D02*
X134370112Y-104769819D01*
X134370112Y-104769819D02*
X134703445Y-104769819D01*
X134703445Y-104769819D02*
X134798683Y-104817438D01*
X134798683Y-104817438D02*
X134846302Y-104865057D01*
X134846302Y-104865057D02*
X134893921Y-104960295D01*
X134893921Y-104960295D02*
X134893921Y-105055533D01*
X134893921Y-105055533D02*
X134846302Y-105150771D01*
X134846302Y-105150771D02*
X134798683Y-105198390D01*
X134798683Y-105198390D02*
X134703445Y-105246009D01*
X134703445Y-105246009D02*
X134370112Y-105246009D01*
X135751064Y-105722200D02*
X135655826Y-105769819D01*
X135655826Y-105769819D02*
X135465350Y-105769819D01*
X135465350Y-105769819D02*
X135370112Y-105722200D01*
X135370112Y-105722200D02*
X135322493Y-105626961D01*
X135322493Y-105626961D02*
X135322493Y-105246009D01*
X135322493Y-105246009D02*
X135370112Y-105150771D01*
X135370112Y-105150771D02*
X135465350Y-105103152D01*
X135465350Y-105103152D02*
X135655826Y-105103152D01*
X135655826Y-105103152D02*
X135751064Y-105150771D01*
X135751064Y-105150771D02*
X135798683Y-105246009D01*
X135798683Y-105246009D02*
X135798683Y-105341247D01*
X135798683Y-105341247D02*
X135322493Y-105436485D01*
X136608207Y-105722200D02*
X136512969Y-105769819D01*
X136512969Y-105769819D02*
X136322493Y-105769819D01*
X136322493Y-105769819D02*
X136227255Y-105722200D01*
X136227255Y-105722200D02*
X136179636Y-105626961D01*
X136179636Y-105626961D02*
X136179636Y-105246009D01*
X136179636Y-105246009D02*
X136227255Y-105150771D01*
X136227255Y-105150771D02*
X136322493Y-105103152D01*
X136322493Y-105103152D02*
X136512969Y-105103152D01*
X136512969Y-105103152D02*
X136608207Y-105150771D01*
X136608207Y-105150771D02*
X136655826Y-105246009D01*
X136655826Y-105246009D02*
X136655826Y-105341247D01*
X136655826Y-105341247D02*
X136179636Y-105436485D01*
X138179636Y-105246009D02*
X138322493Y-105293628D01*
X138322493Y-105293628D02*
X138370112Y-105341247D01*
X138370112Y-105341247D02*
X138417731Y-105436485D01*
X138417731Y-105436485D02*
X138417731Y-105579342D01*
X138417731Y-105579342D02*
X138370112Y-105674580D01*
X138370112Y-105674580D02*
X138322493Y-105722200D01*
X138322493Y-105722200D02*
X138227255Y-105769819D01*
X138227255Y-105769819D02*
X137846303Y-105769819D01*
X137846303Y-105769819D02*
X137846303Y-104769819D01*
X137846303Y-104769819D02*
X138179636Y-104769819D01*
X138179636Y-104769819D02*
X138274874Y-104817438D01*
X138274874Y-104817438D02*
X138322493Y-104865057D01*
X138322493Y-104865057D02*
X138370112Y-104960295D01*
X138370112Y-104960295D02*
X138370112Y-105055533D01*
X138370112Y-105055533D02*
X138322493Y-105150771D01*
X138322493Y-105150771D02*
X138274874Y-105198390D01*
X138274874Y-105198390D02*
X138179636Y-105246009D01*
X138179636Y-105246009D02*
X137846303Y-105246009D01*
X138846303Y-105769819D02*
X138846303Y-105103152D01*
X138846303Y-105293628D02*
X138893922Y-105198390D01*
X138893922Y-105198390D02*
X138941541Y-105150771D01*
X138941541Y-105150771D02*
X139036779Y-105103152D01*
X139036779Y-105103152D02*
X139132017Y-105103152D01*
X139846303Y-105722200D02*
X139751065Y-105769819D01*
X139751065Y-105769819D02*
X139560589Y-105769819D01*
X139560589Y-105769819D02*
X139465351Y-105722200D01*
X139465351Y-105722200D02*
X139417732Y-105626961D01*
X139417732Y-105626961D02*
X139417732Y-105246009D01*
X139417732Y-105246009D02*
X139465351Y-105150771D01*
X139465351Y-105150771D02*
X139560589Y-105103152D01*
X139560589Y-105103152D02*
X139751065Y-105103152D01*
X139751065Y-105103152D02*
X139846303Y-105150771D01*
X139846303Y-105150771D02*
X139893922Y-105246009D01*
X139893922Y-105246009D02*
X139893922Y-105341247D01*
X139893922Y-105341247D02*
X139417732Y-105436485D01*
X140751065Y-105769819D02*
X140751065Y-105246009D01*
X140751065Y-105246009D02*
X140703446Y-105150771D01*
X140703446Y-105150771D02*
X140608208Y-105103152D01*
X140608208Y-105103152D02*
X140417732Y-105103152D01*
X140417732Y-105103152D02*
X140322494Y-105150771D01*
X140751065Y-105722200D02*
X140655827Y-105769819D01*
X140655827Y-105769819D02*
X140417732Y-105769819D01*
X140417732Y-105769819D02*
X140322494Y-105722200D01*
X140322494Y-105722200D02*
X140274875Y-105626961D01*
X140274875Y-105626961D02*
X140274875Y-105531723D01*
X140274875Y-105531723D02*
X140322494Y-105436485D01*
X140322494Y-105436485D02*
X140417732Y-105388866D01*
X140417732Y-105388866D02*
X140655827Y-105388866D01*
X140655827Y-105388866D02*
X140751065Y-105341247D01*
X141227256Y-105769819D02*
X141227256Y-104769819D01*
X141322494Y-105388866D02*
X141608208Y-105769819D01*
X141608208Y-105103152D02*
X141227256Y-105484104D01*
X142179637Y-105769819D02*
X142084399Y-105722200D01*
X142084399Y-105722200D02*
X142036780Y-105674580D01*
X142036780Y-105674580D02*
X141989161Y-105579342D01*
X141989161Y-105579342D02*
X141989161Y-105293628D01*
X141989161Y-105293628D02*
X142036780Y-105198390D01*
X142036780Y-105198390D02*
X142084399Y-105150771D01*
X142084399Y-105150771D02*
X142179637Y-105103152D01*
X142179637Y-105103152D02*
X142322494Y-105103152D01*
X142322494Y-105103152D02*
X142417732Y-105150771D01*
X142417732Y-105150771D02*
X142465351Y-105198390D01*
X142465351Y-105198390D02*
X142512970Y-105293628D01*
X142512970Y-105293628D02*
X142512970Y-105579342D01*
X142512970Y-105579342D02*
X142465351Y-105674580D01*
X142465351Y-105674580D02*
X142417732Y-105722200D01*
X142417732Y-105722200D02*
X142322494Y-105769819D01*
X142322494Y-105769819D02*
X142179637Y-105769819D01*
X143370113Y-105103152D02*
X143370113Y-105769819D01*
X142941542Y-105103152D02*
X142941542Y-105626961D01*
X142941542Y-105626961D02*
X142989161Y-105722200D01*
X142989161Y-105722200D02*
X143084399Y-105769819D01*
X143084399Y-105769819D02*
X143227256Y-105769819D01*
X143227256Y-105769819D02*
X143322494Y-105722200D01*
X143322494Y-105722200D02*
X143370113Y-105674580D01*
X143703447Y-105103152D02*
X144084399Y-105103152D01*
X143846304Y-104769819D02*
X143846304Y-105626961D01*
X143846304Y-105626961D02*
X143893923Y-105722200D01*
X143893923Y-105722200D02*
X143989161Y-105769819D01*
X143989161Y-105769819D02*
X144084399Y-105769819D01*
X145512971Y-105246009D02*
X145655828Y-105293628D01*
X145655828Y-105293628D02*
X145703447Y-105341247D01*
X145703447Y-105341247D02*
X145751066Y-105436485D01*
X145751066Y-105436485D02*
X145751066Y-105579342D01*
X145751066Y-105579342D02*
X145703447Y-105674580D01*
X145703447Y-105674580D02*
X145655828Y-105722200D01*
X145655828Y-105722200D02*
X145560590Y-105769819D01*
X145560590Y-105769819D02*
X145179638Y-105769819D01*
X145179638Y-105769819D02*
X145179638Y-104769819D01*
X145179638Y-104769819D02*
X145512971Y-104769819D01*
X145512971Y-104769819D02*
X145608209Y-104817438D01*
X145608209Y-104817438D02*
X145655828Y-104865057D01*
X145655828Y-104865057D02*
X145703447Y-104960295D01*
X145703447Y-104960295D02*
X145703447Y-105055533D01*
X145703447Y-105055533D02*
X145655828Y-105150771D01*
X145655828Y-105150771D02*
X145608209Y-105198390D01*
X145608209Y-105198390D02*
X145512971Y-105246009D01*
X145512971Y-105246009D02*
X145179638Y-105246009D01*
X146322495Y-105769819D02*
X146227257Y-105722200D01*
X146227257Y-105722200D02*
X146179638Y-105674580D01*
X146179638Y-105674580D02*
X146132019Y-105579342D01*
X146132019Y-105579342D02*
X146132019Y-105293628D01*
X146132019Y-105293628D02*
X146179638Y-105198390D01*
X146179638Y-105198390D02*
X146227257Y-105150771D01*
X146227257Y-105150771D02*
X146322495Y-105103152D01*
X146322495Y-105103152D02*
X146465352Y-105103152D01*
X146465352Y-105103152D02*
X146560590Y-105150771D01*
X146560590Y-105150771D02*
X146608209Y-105198390D01*
X146608209Y-105198390D02*
X146655828Y-105293628D01*
X146655828Y-105293628D02*
X146655828Y-105579342D01*
X146655828Y-105579342D02*
X146608209Y-105674580D01*
X146608209Y-105674580D02*
X146560590Y-105722200D01*
X146560590Y-105722200D02*
X146465352Y-105769819D01*
X146465352Y-105769819D02*
X146322495Y-105769819D01*
X147512971Y-105769819D02*
X147512971Y-105246009D01*
X147512971Y-105246009D02*
X147465352Y-105150771D01*
X147465352Y-105150771D02*
X147370114Y-105103152D01*
X147370114Y-105103152D02*
X147179638Y-105103152D01*
X147179638Y-105103152D02*
X147084400Y-105150771D01*
X147512971Y-105722200D02*
X147417733Y-105769819D01*
X147417733Y-105769819D02*
X147179638Y-105769819D01*
X147179638Y-105769819D02*
X147084400Y-105722200D01*
X147084400Y-105722200D02*
X147036781Y-105626961D01*
X147036781Y-105626961D02*
X147036781Y-105531723D01*
X147036781Y-105531723D02*
X147084400Y-105436485D01*
X147084400Y-105436485D02*
X147179638Y-105388866D01*
X147179638Y-105388866D02*
X147417733Y-105388866D01*
X147417733Y-105388866D02*
X147512971Y-105341247D01*
X147989162Y-105769819D02*
X147989162Y-105103152D01*
X147989162Y-105293628D02*
X148036781Y-105198390D01*
X148036781Y-105198390D02*
X148084400Y-105150771D01*
X148084400Y-105150771D02*
X148179638Y-105103152D01*
X148179638Y-105103152D02*
X148274876Y-105103152D01*
X149036781Y-105769819D02*
X149036781Y-104769819D01*
X149036781Y-105722200D02*
X148941543Y-105769819D01*
X148941543Y-105769819D02*
X148751067Y-105769819D01*
X148751067Y-105769819D02*
X148655829Y-105722200D01*
X148655829Y-105722200D02*
X148608210Y-105674580D01*
X148608210Y-105674580D02*
X148560591Y-105579342D01*
X148560591Y-105579342D02*
X148560591Y-105293628D01*
X148560591Y-105293628D02*
X148608210Y-105198390D01*
X148608210Y-105198390D02*
X148655829Y-105150771D01*
X148655829Y-105150771D02*
X148751067Y-105103152D01*
X148751067Y-105103152D02*
X148941543Y-105103152D01*
X148941543Y-105103152D02*
X149036781Y-105150771D01*
X150846305Y-105769819D02*
X150512972Y-105293628D01*
X150274877Y-105769819D02*
X150274877Y-104769819D01*
X150274877Y-104769819D02*
X150655829Y-104769819D01*
X150655829Y-104769819D02*
X150751067Y-104817438D01*
X150751067Y-104817438D02*
X150798686Y-104865057D01*
X150798686Y-104865057D02*
X150846305Y-104960295D01*
X150846305Y-104960295D02*
X150846305Y-105103152D01*
X150846305Y-105103152D02*
X150798686Y-105198390D01*
X150798686Y-105198390D02*
X150751067Y-105246009D01*
X150751067Y-105246009D02*
X150655829Y-105293628D01*
X150655829Y-105293628D02*
X150274877Y-105293628D01*
X151655829Y-105722200D02*
X151560591Y-105769819D01*
X151560591Y-105769819D02*
X151370115Y-105769819D01*
X151370115Y-105769819D02*
X151274877Y-105722200D01*
X151274877Y-105722200D02*
X151227258Y-105626961D01*
X151227258Y-105626961D02*
X151227258Y-105246009D01*
X151227258Y-105246009D02*
X151274877Y-105150771D01*
X151274877Y-105150771D02*
X151370115Y-105103152D01*
X151370115Y-105103152D02*
X151560591Y-105103152D01*
X151560591Y-105103152D02*
X151655829Y-105150771D01*
X151655829Y-105150771D02*
X151703448Y-105246009D01*
X151703448Y-105246009D02*
X151703448Y-105341247D01*
X151703448Y-105341247D02*
X151227258Y-105436485D01*
X152036782Y-105103152D02*
X152274877Y-105769819D01*
X152274877Y-105769819D02*
X152512972Y-105103152D01*
X152846306Y-105484104D02*
X153322496Y-105484104D01*
X152751068Y-105769819D02*
X153084401Y-104769819D01*
X153084401Y-104769819D02*
X153417734Y-105769819D01*
X158836779Y-56769819D02*
X158836779Y-55769819D01*
X158836779Y-55769819D02*
X159074874Y-55769819D01*
X159074874Y-55769819D02*
X159217731Y-55817438D01*
X159217731Y-55817438D02*
X159312969Y-55912676D01*
X159312969Y-55912676D02*
X159360588Y-56007914D01*
X159360588Y-56007914D02*
X159408207Y-56198390D01*
X159408207Y-56198390D02*
X159408207Y-56341247D01*
X159408207Y-56341247D02*
X159360588Y-56531723D01*
X159360588Y-56531723D02*
X159312969Y-56626961D01*
X159312969Y-56626961D02*
X159217731Y-56722200D01*
X159217731Y-56722200D02*
X159074874Y-56769819D01*
X159074874Y-56769819D02*
X158836779Y-56769819D01*
X159836779Y-56769819D02*
X159836779Y-55769819D01*
X160503445Y-55769819D02*
X160693921Y-55769819D01*
X160693921Y-55769819D02*
X160789159Y-55817438D01*
X160789159Y-55817438D02*
X160884397Y-55912676D01*
X160884397Y-55912676D02*
X160932016Y-56103152D01*
X160932016Y-56103152D02*
X160932016Y-56436485D01*
X160932016Y-56436485D02*
X160884397Y-56626961D01*
X160884397Y-56626961D02*
X160789159Y-56722200D01*
X160789159Y-56722200D02*
X160693921Y-56769819D01*
X160693921Y-56769819D02*
X160503445Y-56769819D01*
X160503445Y-56769819D02*
X160408207Y-56722200D01*
X160408207Y-56722200D02*
X160312969Y-56626961D01*
X160312969Y-56626961D02*
X160265350Y-56436485D01*
X160265350Y-56436485D02*
X160265350Y-56103152D01*
X160265350Y-56103152D02*
X160312969Y-55912676D01*
X160312969Y-55912676D02*
X160408207Y-55817438D01*
X160408207Y-55817438D02*
X160503445Y-55769819D01*
X161551064Y-55769819D02*
X161646302Y-55769819D01*
X161646302Y-55769819D02*
X161741540Y-55817438D01*
X161741540Y-55817438D02*
X161789159Y-55865057D01*
X161789159Y-55865057D02*
X161836778Y-55960295D01*
X161836778Y-55960295D02*
X161884397Y-56150771D01*
X161884397Y-56150771D02*
X161884397Y-56388866D01*
X161884397Y-56388866D02*
X161836778Y-56579342D01*
X161836778Y-56579342D02*
X161789159Y-56674580D01*
X161789159Y-56674580D02*
X161741540Y-56722200D01*
X161741540Y-56722200D02*
X161646302Y-56769819D01*
X161646302Y-56769819D02*
X161551064Y-56769819D01*
X161551064Y-56769819D02*
X161455826Y-56722200D01*
X161455826Y-56722200D02*
X161408207Y-56674580D01*
X161408207Y-56674580D02*
X161360588Y-56579342D01*
X161360588Y-56579342D02*
X161312969Y-56388866D01*
X161312969Y-56388866D02*
X161312969Y-56150771D01*
X161312969Y-56150771D02*
X161360588Y-55960295D01*
X161360588Y-55960295D02*
X161408207Y-55865057D01*
X161408207Y-55865057D02*
X161455826Y-55817438D01*
X161455826Y-55817438D02*
X161551064Y-55769819D01*
X158836779Y-59369819D02*
X158836779Y-58369819D01*
X158836779Y-58369819D02*
X159074874Y-58369819D01*
X159074874Y-58369819D02*
X159217731Y-58417438D01*
X159217731Y-58417438D02*
X159312969Y-58512676D01*
X159312969Y-58512676D02*
X159360588Y-58607914D01*
X159360588Y-58607914D02*
X159408207Y-58798390D01*
X159408207Y-58798390D02*
X159408207Y-58941247D01*
X159408207Y-58941247D02*
X159360588Y-59131723D01*
X159360588Y-59131723D02*
X159312969Y-59226961D01*
X159312969Y-59226961D02*
X159217731Y-59322200D01*
X159217731Y-59322200D02*
X159074874Y-59369819D01*
X159074874Y-59369819D02*
X158836779Y-59369819D01*
X159836779Y-59369819D02*
X159836779Y-58369819D01*
X160503445Y-58369819D02*
X160693921Y-58369819D01*
X160693921Y-58369819D02*
X160789159Y-58417438D01*
X160789159Y-58417438D02*
X160884397Y-58512676D01*
X160884397Y-58512676D02*
X160932016Y-58703152D01*
X160932016Y-58703152D02*
X160932016Y-59036485D01*
X160932016Y-59036485D02*
X160884397Y-59226961D01*
X160884397Y-59226961D02*
X160789159Y-59322200D01*
X160789159Y-59322200D02*
X160693921Y-59369819D01*
X160693921Y-59369819D02*
X160503445Y-59369819D01*
X160503445Y-59369819D02*
X160408207Y-59322200D01*
X160408207Y-59322200D02*
X160312969Y-59226961D01*
X160312969Y-59226961D02*
X160265350Y-59036485D01*
X160265350Y-59036485D02*
X160265350Y-58703152D01*
X160265350Y-58703152D02*
X160312969Y-58512676D01*
X160312969Y-58512676D02*
X160408207Y-58417438D01*
X160408207Y-58417438D02*
X160503445Y-58369819D01*
X161884397Y-59369819D02*
X161312969Y-59369819D01*
X161598683Y-59369819D02*
X161598683Y-58369819D01*
X161598683Y-58369819D02*
X161503445Y-58512676D01*
X161503445Y-58512676D02*
X161408207Y-58607914D01*
X161408207Y-58607914D02*
X161312969Y-58655533D01*
X158889160Y-61822200D02*
X159032017Y-61869819D01*
X159032017Y-61869819D02*
X159270112Y-61869819D01*
X159270112Y-61869819D02*
X159365350Y-61822200D01*
X159365350Y-61822200D02*
X159412969Y-61774580D01*
X159412969Y-61774580D02*
X159460588Y-61679342D01*
X159460588Y-61679342D02*
X159460588Y-61584104D01*
X159460588Y-61584104D02*
X159412969Y-61488866D01*
X159412969Y-61488866D02*
X159365350Y-61441247D01*
X159365350Y-61441247D02*
X159270112Y-61393628D01*
X159270112Y-61393628D02*
X159079636Y-61346009D01*
X159079636Y-61346009D02*
X158984398Y-61298390D01*
X158984398Y-61298390D02*
X158936779Y-61250771D01*
X158936779Y-61250771D02*
X158889160Y-61155533D01*
X158889160Y-61155533D02*
X158889160Y-61060295D01*
X158889160Y-61060295D02*
X158936779Y-60965057D01*
X158936779Y-60965057D02*
X158984398Y-60917438D01*
X158984398Y-60917438D02*
X159079636Y-60869819D01*
X159079636Y-60869819D02*
X159317731Y-60869819D01*
X159317731Y-60869819D02*
X159460588Y-60917438D01*
X160460588Y-61774580D02*
X160412969Y-61822200D01*
X160412969Y-61822200D02*
X160270112Y-61869819D01*
X160270112Y-61869819D02*
X160174874Y-61869819D01*
X160174874Y-61869819D02*
X160032017Y-61822200D01*
X160032017Y-61822200D02*
X159936779Y-61726961D01*
X159936779Y-61726961D02*
X159889160Y-61631723D01*
X159889160Y-61631723D02*
X159841541Y-61441247D01*
X159841541Y-61441247D02*
X159841541Y-61298390D01*
X159841541Y-61298390D02*
X159889160Y-61107914D01*
X159889160Y-61107914D02*
X159936779Y-61012676D01*
X159936779Y-61012676D02*
X160032017Y-60917438D01*
X160032017Y-60917438D02*
X160174874Y-60869819D01*
X160174874Y-60869819D02*
X160270112Y-60869819D01*
X160270112Y-60869819D02*
X160412969Y-60917438D01*
X160412969Y-60917438D02*
X160460588Y-60965057D01*
X160889160Y-61869819D02*
X160889160Y-60869819D01*
X161460588Y-61869819D02*
X161032017Y-61298390D01*
X161460588Y-60869819D02*
X160889160Y-61441247D01*
X158936779Y-64469819D02*
X158936779Y-63469819D01*
X158936779Y-63469819D02*
X159174874Y-63469819D01*
X159174874Y-63469819D02*
X159317731Y-63517438D01*
X159317731Y-63517438D02*
X159412969Y-63612676D01*
X159412969Y-63612676D02*
X159460588Y-63707914D01*
X159460588Y-63707914D02*
X159508207Y-63898390D01*
X159508207Y-63898390D02*
X159508207Y-64041247D01*
X159508207Y-64041247D02*
X159460588Y-64231723D01*
X159460588Y-64231723D02*
X159412969Y-64326961D01*
X159412969Y-64326961D02*
X159317731Y-64422200D01*
X159317731Y-64422200D02*
X159174874Y-64469819D01*
X159174874Y-64469819D02*
X158936779Y-64469819D01*
X159936779Y-64469819D02*
X159936779Y-63469819D01*
X160603445Y-63469819D02*
X160793921Y-63469819D01*
X160793921Y-63469819D02*
X160889159Y-63517438D01*
X160889159Y-63517438D02*
X160984397Y-63612676D01*
X160984397Y-63612676D02*
X161032016Y-63803152D01*
X161032016Y-63803152D02*
X161032016Y-64136485D01*
X161032016Y-64136485D02*
X160984397Y-64326961D01*
X160984397Y-64326961D02*
X160889159Y-64422200D01*
X160889159Y-64422200D02*
X160793921Y-64469819D01*
X160793921Y-64469819D02*
X160603445Y-64469819D01*
X160603445Y-64469819D02*
X160508207Y-64422200D01*
X160508207Y-64422200D02*
X160412969Y-64326961D01*
X160412969Y-64326961D02*
X160365350Y-64136485D01*
X160365350Y-64136485D02*
X160365350Y-63803152D01*
X160365350Y-63803152D02*
X160412969Y-63612676D01*
X160412969Y-63612676D02*
X160508207Y-63517438D01*
X160508207Y-63517438D02*
X160603445Y-63469819D01*
X161365350Y-63469819D02*
X161984397Y-63469819D01*
X161984397Y-63469819D02*
X161651064Y-63850771D01*
X161651064Y-63850771D02*
X161793921Y-63850771D01*
X161793921Y-63850771D02*
X161889159Y-63898390D01*
X161889159Y-63898390D02*
X161936778Y-63946009D01*
X161936778Y-63946009D02*
X161984397Y-64041247D01*
X161984397Y-64041247D02*
X161984397Y-64279342D01*
X161984397Y-64279342D02*
X161936778Y-64374580D01*
X161936778Y-64374580D02*
X161889159Y-64422200D01*
X161889159Y-64422200D02*
X161793921Y-64469819D01*
X161793921Y-64469819D02*
X161508207Y-64469819D01*
X161508207Y-64469819D02*
X161412969Y-64422200D01*
X161412969Y-64422200D02*
X161365350Y-64374580D01*
X158936779Y-66869819D02*
X158936779Y-65869819D01*
X158936779Y-65869819D02*
X159174874Y-65869819D01*
X159174874Y-65869819D02*
X159317731Y-65917438D01*
X159317731Y-65917438D02*
X159412969Y-66012676D01*
X159412969Y-66012676D02*
X159460588Y-66107914D01*
X159460588Y-66107914D02*
X159508207Y-66298390D01*
X159508207Y-66298390D02*
X159508207Y-66441247D01*
X159508207Y-66441247D02*
X159460588Y-66631723D01*
X159460588Y-66631723D02*
X159412969Y-66726961D01*
X159412969Y-66726961D02*
X159317731Y-66822200D01*
X159317731Y-66822200D02*
X159174874Y-66869819D01*
X159174874Y-66869819D02*
X158936779Y-66869819D01*
X159936779Y-66869819D02*
X159936779Y-65869819D01*
X160603445Y-65869819D02*
X160793921Y-65869819D01*
X160793921Y-65869819D02*
X160889159Y-65917438D01*
X160889159Y-65917438D02*
X160984397Y-66012676D01*
X160984397Y-66012676D02*
X161032016Y-66203152D01*
X161032016Y-66203152D02*
X161032016Y-66536485D01*
X161032016Y-66536485D02*
X160984397Y-66726961D01*
X160984397Y-66726961D02*
X160889159Y-66822200D01*
X160889159Y-66822200D02*
X160793921Y-66869819D01*
X160793921Y-66869819D02*
X160603445Y-66869819D01*
X160603445Y-66869819D02*
X160508207Y-66822200D01*
X160508207Y-66822200D02*
X160412969Y-66726961D01*
X160412969Y-66726961D02*
X160365350Y-66536485D01*
X160365350Y-66536485D02*
X160365350Y-66203152D01*
X160365350Y-66203152D02*
X160412969Y-66012676D01*
X160412969Y-66012676D02*
X160508207Y-65917438D01*
X160508207Y-65917438D02*
X160603445Y-65869819D01*
X161889159Y-65869819D02*
X161698683Y-65869819D01*
X161698683Y-65869819D02*
X161603445Y-65917438D01*
X161603445Y-65917438D02*
X161555826Y-65965057D01*
X161555826Y-65965057D02*
X161460588Y-66107914D01*
X161460588Y-66107914D02*
X161412969Y-66298390D01*
X161412969Y-66298390D02*
X161412969Y-66679342D01*
X161412969Y-66679342D02*
X161460588Y-66774580D01*
X161460588Y-66774580D02*
X161508207Y-66822200D01*
X161508207Y-66822200D02*
X161603445Y-66869819D01*
X161603445Y-66869819D02*
X161793921Y-66869819D01*
X161793921Y-66869819D02*
X161889159Y-66822200D01*
X161889159Y-66822200D02*
X161936778Y-66774580D01*
X161936778Y-66774580D02*
X161984397Y-66679342D01*
X161984397Y-66679342D02*
X161984397Y-66441247D01*
X161984397Y-66441247D02*
X161936778Y-66346009D01*
X161936778Y-66346009D02*
X161889159Y-66298390D01*
X161889159Y-66298390D02*
X161793921Y-66250771D01*
X161793921Y-66250771D02*
X161603445Y-66250771D01*
X161603445Y-66250771D02*
X161508207Y-66298390D01*
X161508207Y-66298390D02*
X161460588Y-66346009D01*
X161460588Y-66346009D02*
X161412969Y-66441247D01*
X159036779Y-69469819D02*
X159036779Y-68469819D01*
X159036779Y-68469819D02*
X159274874Y-68469819D01*
X159274874Y-68469819D02*
X159417731Y-68517438D01*
X159417731Y-68517438D02*
X159512969Y-68612676D01*
X159512969Y-68612676D02*
X159560588Y-68707914D01*
X159560588Y-68707914D02*
X159608207Y-68898390D01*
X159608207Y-68898390D02*
X159608207Y-69041247D01*
X159608207Y-69041247D02*
X159560588Y-69231723D01*
X159560588Y-69231723D02*
X159512969Y-69326961D01*
X159512969Y-69326961D02*
X159417731Y-69422200D01*
X159417731Y-69422200D02*
X159274874Y-69469819D01*
X159274874Y-69469819D02*
X159036779Y-69469819D01*
X160036779Y-69469819D02*
X160036779Y-68469819D01*
X160703445Y-68469819D02*
X160893921Y-68469819D01*
X160893921Y-68469819D02*
X160989159Y-68517438D01*
X160989159Y-68517438D02*
X161084397Y-68612676D01*
X161084397Y-68612676D02*
X161132016Y-68803152D01*
X161132016Y-68803152D02*
X161132016Y-69136485D01*
X161132016Y-69136485D02*
X161084397Y-69326961D01*
X161084397Y-69326961D02*
X160989159Y-69422200D01*
X160989159Y-69422200D02*
X160893921Y-69469819D01*
X160893921Y-69469819D02*
X160703445Y-69469819D01*
X160703445Y-69469819D02*
X160608207Y-69422200D01*
X160608207Y-69422200D02*
X160512969Y-69326961D01*
X160512969Y-69326961D02*
X160465350Y-69136485D01*
X160465350Y-69136485D02*
X160465350Y-68803152D01*
X160465350Y-68803152D02*
X160512969Y-68612676D01*
X160512969Y-68612676D02*
X160608207Y-68517438D01*
X160608207Y-68517438D02*
X160703445Y-68469819D01*
X162036778Y-68469819D02*
X161560588Y-68469819D01*
X161560588Y-68469819D02*
X161512969Y-68946009D01*
X161512969Y-68946009D02*
X161560588Y-68898390D01*
X161560588Y-68898390D02*
X161655826Y-68850771D01*
X161655826Y-68850771D02*
X161893921Y-68850771D01*
X161893921Y-68850771D02*
X161989159Y-68898390D01*
X161989159Y-68898390D02*
X162036778Y-68946009D01*
X162036778Y-68946009D02*
X162084397Y-69041247D01*
X162084397Y-69041247D02*
X162084397Y-69279342D01*
X162084397Y-69279342D02*
X162036778Y-69374580D01*
X162036778Y-69374580D02*
X161989159Y-69422200D01*
X161989159Y-69422200D02*
X161893921Y-69469819D01*
X161893921Y-69469819D02*
X161655826Y-69469819D01*
X161655826Y-69469819D02*
X161560588Y-69422200D01*
X161560588Y-69422200D02*
X161512969Y-69374580D01*
X159136779Y-71869819D02*
X159136779Y-70869819D01*
X159136779Y-70869819D02*
X159374874Y-70869819D01*
X159374874Y-70869819D02*
X159517731Y-70917438D01*
X159517731Y-70917438D02*
X159612969Y-71012676D01*
X159612969Y-71012676D02*
X159660588Y-71107914D01*
X159660588Y-71107914D02*
X159708207Y-71298390D01*
X159708207Y-71298390D02*
X159708207Y-71441247D01*
X159708207Y-71441247D02*
X159660588Y-71631723D01*
X159660588Y-71631723D02*
X159612969Y-71726961D01*
X159612969Y-71726961D02*
X159517731Y-71822200D01*
X159517731Y-71822200D02*
X159374874Y-71869819D01*
X159374874Y-71869819D02*
X159136779Y-71869819D01*
X160136779Y-71869819D02*
X160136779Y-70869819D01*
X160803445Y-70869819D02*
X160993921Y-70869819D01*
X160993921Y-70869819D02*
X161089159Y-70917438D01*
X161089159Y-70917438D02*
X161184397Y-71012676D01*
X161184397Y-71012676D02*
X161232016Y-71203152D01*
X161232016Y-71203152D02*
X161232016Y-71536485D01*
X161232016Y-71536485D02*
X161184397Y-71726961D01*
X161184397Y-71726961D02*
X161089159Y-71822200D01*
X161089159Y-71822200D02*
X160993921Y-71869819D01*
X160993921Y-71869819D02*
X160803445Y-71869819D01*
X160803445Y-71869819D02*
X160708207Y-71822200D01*
X160708207Y-71822200D02*
X160612969Y-71726961D01*
X160612969Y-71726961D02*
X160565350Y-71536485D01*
X160565350Y-71536485D02*
X160565350Y-71203152D01*
X160565350Y-71203152D02*
X160612969Y-71012676D01*
X160612969Y-71012676D02*
X160708207Y-70917438D01*
X160708207Y-70917438D02*
X160803445Y-70869819D01*
X161708207Y-71869819D02*
X161898683Y-71869819D01*
X161898683Y-71869819D02*
X161993921Y-71822200D01*
X161993921Y-71822200D02*
X162041540Y-71774580D01*
X162041540Y-71774580D02*
X162136778Y-71631723D01*
X162136778Y-71631723D02*
X162184397Y-71441247D01*
X162184397Y-71441247D02*
X162184397Y-71060295D01*
X162184397Y-71060295D02*
X162136778Y-70965057D01*
X162136778Y-70965057D02*
X162089159Y-70917438D01*
X162089159Y-70917438D02*
X161993921Y-70869819D01*
X161993921Y-70869819D02*
X161803445Y-70869819D01*
X161803445Y-70869819D02*
X161708207Y-70917438D01*
X161708207Y-70917438D02*
X161660588Y-70965057D01*
X161660588Y-70965057D02*
X161612969Y-71060295D01*
X161612969Y-71060295D02*
X161612969Y-71298390D01*
X161612969Y-71298390D02*
X161660588Y-71393628D01*
X161660588Y-71393628D02*
X161708207Y-71441247D01*
X161708207Y-71441247D02*
X161803445Y-71488866D01*
X161803445Y-71488866D02*
X161993921Y-71488866D01*
X161993921Y-71488866D02*
X162089159Y-71441247D01*
X162089159Y-71441247D02*
X162136778Y-71393628D01*
X162136778Y-71393628D02*
X162184397Y-71298390D01*
X159136779Y-74469819D02*
X159136779Y-73469819D01*
X159136779Y-73469819D02*
X159374874Y-73469819D01*
X159374874Y-73469819D02*
X159517731Y-73517438D01*
X159517731Y-73517438D02*
X159612969Y-73612676D01*
X159612969Y-73612676D02*
X159660588Y-73707914D01*
X159660588Y-73707914D02*
X159708207Y-73898390D01*
X159708207Y-73898390D02*
X159708207Y-74041247D01*
X159708207Y-74041247D02*
X159660588Y-74231723D01*
X159660588Y-74231723D02*
X159612969Y-74326961D01*
X159612969Y-74326961D02*
X159517731Y-74422200D01*
X159517731Y-74422200D02*
X159374874Y-74469819D01*
X159374874Y-74469819D02*
X159136779Y-74469819D01*
X160136779Y-74469819D02*
X160136779Y-73469819D01*
X160803445Y-73469819D02*
X160993921Y-73469819D01*
X160993921Y-73469819D02*
X161089159Y-73517438D01*
X161089159Y-73517438D02*
X161184397Y-73612676D01*
X161184397Y-73612676D02*
X161232016Y-73803152D01*
X161232016Y-73803152D02*
X161232016Y-74136485D01*
X161232016Y-74136485D02*
X161184397Y-74326961D01*
X161184397Y-74326961D02*
X161089159Y-74422200D01*
X161089159Y-74422200D02*
X160993921Y-74469819D01*
X160993921Y-74469819D02*
X160803445Y-74469819D01*
X160803445Y-74469819D02*
X160708207Y-74422200D01*
X160708207Y-74422200D02*
X160612969Y-74326961D01*
X160612969Y-74326961D02*
X160565350Y-74136485D01*
X160565350Y-74136485D02*
X160565350Y-73803152D01*
X160565350Y-73803152D02*
X160612969Y-73612676D01*
X160612969Y-73612676D02*
X160708207Y-73517438D01*
X160708207Y-73517438D02*
X160803445Y-73469819D01*
X161565350Y-73469819D02*
X162232016Y-73469819D01*
X162232016Y-73469819D02*
X161803445Y-74469819D01*
X159236779Y-77069819D02*
X159236779Y-76069819D01*
X159236779Y-76069819D02*
X159570112Y-76784104D01*
X159570112Y-76784104D02*
X159903445Y-76069819D01*
X159903445Y-76069819D02*
X159903445Y-77069819D01*
X160570112Y-76069819D02*
X160760588Y-76069819D01*
X160760588Y-76069819D02*
X160855826Y-76117438D01*
X160855826Y-76117438D02*
X160951064Y-76212676D01*
X160951064Y-76212676D02*
X160998683Y-76403152D01*
X160998683Y-76403152D02*
X160998683Y-76736485D01*
X160998683Y-76736485D02*
X160951064Y-76926961D01*
X160951064Y-76926961D02*
X160855826Y-77022200D01*
X160855826Y-77022200D02*
X160760588Y-77069819D01*
X160760588Y-77069819D02*
X160570112Y-77069819D01*
X160570112Y-77069819D02*
X160474874Y-77022200D01*
X160474874Y-77022200D02*
X160379636Y-76926961D01*
X160379636Y-76926961D02*
X160332017Y-76736485D01*
X160332017Y-76736485D02*
X160332017Y-76403152D01*
X160332017Y-76403152D02*
X160379636Y-76212676D01*
X160379636Y-76212676D02*
X160474874Y-76117438D01*
X160474874Y-76117438D02*
X160570112Y-76069819D01*
X161379636Y-77022200D02*
X161522493Y-77069819D01*
X161522493Y-77069819D02*
X161760588Y-77069819D01*
X161760588Y-77069819D02*
X161855826Y-77022200D01*
X161855826Y-77022200D02*
X161903445Y-76974580D01*
X161903445Y-76974580D02*
X161951064Y-76879342D01*
X161951064Y-76879342D02*
X161951064Y-76784104D01*
X161951064Y-76784104D02*
X161903445Y-76688866D01*
X161903445Y-76688866D02*
X161855826Y-76641247D01*
X161855826Y-76641247D02*
X161760588Y-76593628D01*
X161760588Y-76593628D02*
X161570112Y-76546009D01*
X161570112Y-76546009D02*
X161474874Y-76498390D01*
X161474874Y-76498390D02*
X161427255Y-76450771D01*
X161427255Y-76450771D02*
X161379636Y-76355533D01*
X161379636Y-76355533D02*
X161379636Y-76260295D01*
X161379636Y-76260295D02*
X161427255Y-76165057D01*
X161427255Y-76165057D02*
X161474874Y-76117438D01*
X161474874Y-76117438D02*
X161570112Y-76069819D01*
X161570112Y-76069819D02*
X161808207Y-76069819D01*
X161808207Y-76069819D02*
X161951064Y-76117438D01*
X162379636Y-77069819D02*
X162379636Y-76069819D01*
X118060588Y-76217438D02*
X117965350Y-76169819D01*
X117965350Y-76169819D02*
X117822493Y-76169819D01*
X117822493Y-76169819D02*
X117679636Y-76217438D01*
X117679636Y-76217438D02*
X117584398Y-76312676D01*
X117584398Y-76312676D02*
X117536779Y-76407914D01*
X117536779Y-76407914D02*
X117489160Y-76598390D01*
X117489160Y-76598390D02*
X117489160Y-76741247D01*
X117489160Y-76741247D02*
X117536779Y-76931723D01*
X117536779Y-76931723D02*
X117584398Y-77026961D01*
X117584398Y-77026961D02*
X117679636Y-77122200D01*
X117679636Y-77122200D02*
X117822493Y-77169819D01*
X117822493Y-77169819D02*
X117917731Y-77169819D01*
X117917731Y-77169819D02*
X118060588Y-77122200D01*
X118060588Y-77122200D02*
X118108207Y-77074580D01*
X118108207Y-77074580D02*
X118108207Y-76741247D01*
X118108207Y-76741247D02*
X117917731Y-76741247D01*
X118536779Y-77169819D02*
X118536779Y-76169819D01*
X118536779Y-76169819D02*
X119108207Y-77169819D01*
X119108207Y-77169819D02*
X119108207Y-76169819D01*
X119584398Y-77169819D02*
X119584398Y-76169819D01*
X119584398Y-76169819D02*
X119822493Y-76169819D01*
X119822493Y-76169819D02*
X119965350Y-76217438D01*
X119965350Y-76217438D02*
X120060588Y-76312676D01*
X120060588Y-76312676D02*
X120108207Y-76407914D01*
X120108207Y-76407914D02*
X120155826Y-76598390D01*
X120155826Y-76598390D02*
X120155826Y-76741247D01*
X120155826Y-76741247D02*
X120108207Y-76931723D01*
X120108207Y-76931723D02*
X120060588Y-77026961D01*
X120060588Y-77026961D02*
X119965350Y-77122200D01*
X119965350Y-77122200D02*
X119822493Y-77169819D01*
X119822493Y-77169819D02*
X119584398Y-77169819D01*
X117536779Y-74569819D02*
X117536779Y-73569819D01*
X117536779Y-73569819D02*
X117774874Y-73569819D01*
X117774874Y-73569819D02*
X117917731Y-73617438D01*
X117917731Y-73617438D02*
X118012969Y-73712676D01*
X118012969Y-73712676D02*
X118060588Y-73807914D01*
X118060588Y-73807914D02*
X118108207Y-73998390D01*
X118108207Y-73998390D02*
X118108207Y-74141247D01*
X118108207Y-74141247D02*
X118060588Y-74331723D01*
X118060588Y-74331723D02*
X118012969Y-74426961D01*
X118012969Y-74426961D02*
X117917731Y-74522200D01*
X117917731Y-74522200D02*
X117774874Y-74569819D01*
X117774874Y-74569819D02*
X117536779Y-74569819D01*
X118536779Y-74569819D02*
X118536779Y-73569819D01*
X119203445Y-73569819D02*
X119393921Y-73569819D01*
X119393921Y-73569819D02*
X119489159Y-73617438D01*
X119489159Y-73617438D02*
X119584397Y-73712676D01*
X119584397Y-73712676D02*
X119632016Y-73903152D01*
X119632016Y-73903152D02*
X119632016Y-74236485D01*
X119632016Y-74236485D02*
X119584397Y-74426961D01*
X119584397Y-74426961D02*
X119489159Y-74522200D01*
X119489159Y-74522200D02*
X119393921Y-74569819D01*
X119393921Y-74569819D02*
X119203445Y-74569819D01*
X119203445Y-74569819D02*
X119108207Y-74522200D01*
X119108207Y-74522200D02*
X119012969Y-74426961D01*
X119012969Y-74426961D02*
X118965350Y-74236485D01*
X118965350Y-74236485D02*
X118965350Y-73903152D01*
X118965350Y-73903152D02*
X119012969Y-73712676D01*
X119012969Y-73712676D02*
X119108207Y-73617438D01*
X119108207Y-73617438D02*
X119203445Y-73569819D01*
X120203445Y-73998390D02*
X120108207Y-73950771D01*
X120108207Y-73950771D02*
X120060588Y-73903152D01*
X120060588Y-73903152D02*
X120012969Y-73807914D01*
X120012969Y-73807914D02*
X120012969Y-73760295D01*
X120012969Y-73760295D02*
X120060588Y-73665057D01*
X120060588Y-73665057D02*
X120108207Y-73617438D01*
X120108207Y-73617438D02*
X120203445Y-73569819D01*
X120203445Y-73569819D02*
X120393921Y-73569819D01*
X120393921Y-73569819D02*
X120489159Y-73617438D01*
X120489159Y-73617438D02*
X120536778Y-73665057D01*
X120536778Y-73665057D02*
X120584397Y-73760295D01*
X120584397Y-73760295D02*
X120584397Y-73807914D01*
X120584397Y-73807914D02*
X120536778Y-73903152D01*
X120536778Y-73903152D02*
X120489159Y-73950771D01*
X120489159Y-73950771D02*
X120393921Y-73998390D01*
X120393921Y-73998390D02*
X120203445Y-73998390D01*
X120203445Y-73998390D02*
X120108207Y-74046009D01*
X120108207Y-74046009D02*
X120060588Y-74093628D01*
X120060588Y-74093628D02*
X120012969Y-74188866D01*
X120012969Y-74188866D02*
X120012969Y-74379342D01*
X120012969Y-74379342D02*
X120060588Y-74474580D01*
X120060588Y-74474580D02*
X120108207Y-74522200D01*
X120108207Y-74522200D02*
X120203445Y-74569819D01*
X120203445Y-74569819D02*
X120393921Y-74569819D01*
X120393921Y-74569819D02*
X120489159Y-74522200D01*
X120489159Y-74522200D02*
X120536778Y-74474580D01*
X120536778Y-74474580D02*
X120584397Y-74379342D01*
X120584397Y-74379342D02*
X120584397Y-74188866D01*
X120584397Y-74188866D02*
X120536778Y-74093628D01*
X120536778Y-74093628D02*
X120489159Y-74046009D01*
X120489159Y-74046009D02*
X120393921Y-73998390D01*
X116636779Y-71969819D02*
X116636779Y-70969819D01*
X116636779Y-70969819D02*
X116874874Y-70969819D01*
X116874874Y-70969819D02*
X117017731Y-71017438D01*
X117017731Y-71017438D02*
X117112969Y-71112676D01*
X117112969Y-71112676D02*
X117160588Y-71207914D01*
X117160588Y-71207914D02*
X117208207Y-71398390D01*
X117208207Y-71398390D02*
X117208207Y-71541247D01*
X117208207Y-71541247D02*
X117160588Y-71731723D01*
X117160588Y-71731723D02*
X117112969Y-71826961D01*
X117112969Y-71826961D02*
X117017731Y-71922200D01*
X117017731Y-71922200D02*
X116874874Y-71969819D01*
X116874874Y-71969819D02*
X116636779Y-71969819D01*
X117636779Y-71969819D02*
X117636779Y-70969819D01*
X118303445Y-70969819D02*
X118493921Y-70969819D01*
X118493921Y-70969819D02*
X118589159Y-71017438D01*
X118589159Y-71017438D02*
X118684397Y-71112676D01*
X118684397Y-71112676D02*
X118732016Y-71303152D01*
X118732016Y-71303152D02*
X118732016Y-71636485D01*
X118732016Y-71636485D02*
X118684397Y-71826961D01*
X118684397Y-71826961D02*
X118589159Y-71922200D01*
X118589159Y-71922200D02*
X118493921Y-71969819D01*
X118493921Y-71969819D02*
X118303445Y-71969819D01*
X118303445Y-71969819D02*
X118208207Y-71922200D01*
X118208207Y-71922200D02*
X118112969Y-71826961D01*
X118112969Y-71826961D02*
X118065350Y-71636485D01*
X118065350Y-71636485D02*
X118065350Y-71303152D01*
X118065350Y-71303152D02*
X118112969Y-71112676D01*
X118112969Y-71112676D02*
X118208207Y-71017438D01*
X118208207Y-71017438D02*
X118303445Y-70969819D01*
X119684397Y-71969819D02*
X119112969Y-71969819D01*
X119398683Y-71969819D02*
X119398683Y-70969819D01*
X119398683Y-70969819D02*
X119303445Y-71112676D01*
X119303445Y-71112676D02*
X119208207Y-71207914D01*
X119208207Y-71207914D02*
X119112969Y-71255533D01*
X120636778Y-71969819D02*
X120065350Y-71969819D01*
X120351064Y-71969819D02*
X120351064Y-70969819D01*
X120351064Y-70969819D02*
X120255826Y-71112676D01*
X120255826Y-71112676D02*
X120160588Y-71207914D01*
X120160588Y-71207914D02*
X120065350Y-71255533D01*
X116536779Y-69569819D02*
X116536779Y-68569819D01*
X116536779Y-68569819D02*
X116774874Y-68569819D01*
X116774874Y-68569819D02*
X116917731Y-68617438D01*
X116917731Y-68617438D02*
X117012969Y-68712676D01*
X117012969Y-68712676D02*
X117060588Y-68807914D01*
X117060588Y-68807914D02*
X117108207Y-68998390D01*
X117108207Y-68998390D02*
X117108207Y-69141247D01*
X117108207Y-69141247D02*
X117060588Y-69331723D01*
X117060588Y-69331723D02*
X117012969Y-69426961D01*
X117012969Y-69426961D02*
X116917731Y-69522200D01*
X116917731Y-69522200D02*
X116774874Y-69569819D01*
X116774874Y-69569819D02*
X116536779Y-69569819D01*
X117536779Y-69569819D02*
X117536779Y-68569819D01*
X118203445Y-68569819D02*
X118393921Y-68569819D01*
X118393921Y-68569819D02*
X118489159Y-68617438D01*
X118489159Y-68617438D02*
X118584397Y-68712676D01*
X118584397Y-68712676D02*
X118632016Y-68903152D01*
X118632016Y-68903152D02*
X118632016Y-69236485D01*
X118632016Y-69236485D02*
X118584397Y-69426961D01*
X118584397Y-69426961D02*
X118489159Y-69522200D01*
X118489159Y-69522200D02*
X118393921Y-69569819D01*
X118393921Y-69569819D02*
X118203445Y-69569819D01*
X118203445Y-69569819D02*
X118108207Y-69522200D01*
X118108207Y-69522200D02*
X118012969Y-69426961D01*
X118012969Y-69426961D02*
X117965350Y-69236485D01*
X117965350Y-69236485D02*
X117965350Y-68903152D01*
X117965350Y-68903152D02*
X118012969Y-68712676D01*
X118012969Y-68712676D02*
X118108207Y-68617438D01*
X118108207Y-68617438D02*
X118203445Y-68569819D01*
X119584397Y-69569819D02*
X119012969Y-69569819D01*
X119298683Y-69569819D02*
X119298683Y-68569819D01*
X119298683Y-68569819D02*
X119203445Y-68712676D01*
X119203445Y-68712676D02*
X119108207Y-68807914D01*
X119108207Y-68807914D02*
X119012969Y-68855533D01*
X120203445Y-68569819D02*
X120298683Y-68569819D01*
X120298683Y-68569819D02*
X120393921Y-68617438D01*
X120393921Y-68617438D02*
X120441540Y-68665057D01*
X120441540Y-68665057D02*
X120489159Y-68760295D01*
X120489159Y-68760295D02*
X120536778Y-68950771D01*
X120536778Y-68950771D02*
X120536778Y-69188866D01*
X120536778Y-69188866D02*
X120489159Y-69379342D01*
X120489159Y-69379342D02*
X120441540Y-69474580D01*
X120441540Y-69474580D02*
X120393921Y-69522200D01*
X120393921Y-69522200D02*
X120298683Y-69569819D01*
X120298683Y-69569819D02*
X120203445Y-69569819D01*
X120203445Y-69569819D02*
X120108207Y-69522200D01*
X120108207Y-69522200D02*
X120060588Y-69474580D01*
X120060588Y-69474580D02*
X120012969Y-69379342D01*
X120012969Y-69379342D02*
X119965350Y-69188866D01*
X119965350Y-69188866D02*
X119965350Y-68950771D01*
X119965350Y-68950771D02*
X120012969Y-68760295D01*
X120012969Y-68760295D02*
X120060588Y-68665057D01*
X120060588Y-68665057D02*
X120108207Y-68617438D01*
X120108207Y-68617438D02*
X120203445Y-68569819D01*
X118208207Y-67069819D02*
X117874874Y-66593628D01*
X117636779Y-67069819D02*
X117636779Y-66069819D01*
X117636779Y-66069819D02*
X118017731Y-66069819D01*
X118017731Y-66069819D02*
X118112969Y-66117438D01*
X118112969Y-66117438D02*
X118160588Y-66165057D01*
X118160588Y-66165057D02*
X118208207Y-66260295D01*
X118208207Y-66260295D02*
X118208207Y-66403152D01*
X118208207Y-66403152D02*
X118160588Y-66498390D01*
X118160588Y-66498390D02*
X118112969Y-66546009D01*
X118112969Y-66546009D02*
X118017731Y-66593628D01*
X118017731Y-66593628D02*
X117636779Y-66593628D01*
X118589160Y-67022200D02*
X118732017Y-67069819D01*
X118732017Y-67069819D02*
X118970112Y-67069819D01*
X118970112Y-67069819D02*
X119065350Y-67022200D01*
X119065350Y-67022200D02*
X119112969Y-66974580D01*
X119112969Y-66974580D02*
X119160588Y-66879342D01*
X119160588Y-66879342D02*
X119160588Y-66784104D01*
X119160588Y-66784104D02*
X119112969Y-66688866D01*
X119112969Y-66688866D02*
X119065350Y-66641247D01*
X119065350Y-66641247D02*
X118970112Y-66593628D01*
X118970112Y-66593628D02*
X118779636Y-66546009D01*
X118779636Y-66546009D02*
X118684398Y-66498390D01*
X118684398Y-66498390D02*
X118636779Y-66450771D01*
X118636779Y-66450771D02*
X118589160Y-66355533D01*
X118589160Y-66355533D02*
X118589160Y-66260295D01*
X118589160Y-66260295D02*
X118636779Y-66165057D01*
X118636779Y-66165057D02*
X118684398Y-66117438D01*
X118684398Y-66117438D02*
X118779636Y-66069819D01*
X118779636Y-66069819D02*
X119017731Y-66069819D01*
X119017731Y-66069819D02*
X119160588Y-66117438D01*
X119446303Y-66069819D02*
X120017731Y-66069819D01*
X119732017Y-67069819D02*
X119732017Y-66069819D01*
X117036779Y-64569819D02*
X117036779Y-63569819D01*
X117036779Y-63569819D02*
X117370112Y-64284104D01*
X117370112Y-64284104D02*
X117703445Y-63569819D01*
X117703445Y-63569819D02*
X117703445Y-64569819D01*
X118179636Y-64569819D02*
X118179636Y-63569819D01*
X118608207Y-64522200D02*
X118751064Y-64569819D01*
X118751064Y-64569819D02*
X118989159Y-64569819D01*
X118989159Y-64569819D02*
X119084397Y-64522200D01*
X119084397Y-64522200D02*
X119132016Y-64474580D01*
X119132016Y-64474580D02*
X119179635Y-64379342D01*
X119179635Y-64379342D02*
X119179635Y-64284104D01*
X119179635Y-64284104D02*
X119132016Y-64188866D01*
X119132016Y-64188866D02*
X119084397Y-64141247D01*
X119084397Y-64141247D02*
X118989159Y-64093628D01*
X118989159Y-64093628D02*
X118798683Y-64046009D01*
X118798683Y-64046009D02*
X118703445Y-63998390D01*
X118703445Y-63998390D02*
X118655826Y-63950771D01*
X118655826Y-63950771D02*
X118608207Y-63855533D01*
X118608207Y-63855533D02*
X118608207Y-63760295D01*
X118608207Y-63760295D02*
X118655826Y-63665057D01*
X118655826Y-63665057D02*
X118703445Y-63617438D01*
X118703445Y-63617438D02*
X118798683Y-63569819D01*
X118798683Y-63569819D02*
X119036778Y-63569819D01*
X119036778Y-63569819D02*
X119179635Y-63617438D01*
X119798683Y-63569819D02*
X119989159Y-63569819D01*
X119989159Y-63569819D02*
X120084397Y-63617438D01*
X120084397Y-63617438D02*
X120179635Y-63712676D01*
X120179635Y-63712676D02*
X120227254Y-63903152D01*
X120227254Y-63903152D02*
X120227254Y-64236485D01*
X120227254Y-64236485D02*
X120179635Y-64426961D01*
X120179635Y-64426961D02*
X120084397Y-64522200D01*
X120084397Y-64522200D02*
X119989159Y-64569819D01*
X119989159Y-64569819D02*
X119798683Y-64569819D01*
X119798683Y-64569819D02*
X119703445Y-64522200D01*
X119703445Y-64522200D02*
X119608207Y-64426961D01*
X119608207Y-64426961D02*
X119560588Y-64236485D01*
X119560588Y-64236485D02*
X119560588Y-63903152D01*
X119560588Y-63903152D02*
X119608207Y-63712676D01*
X119608207Y-63712676D02*
X119703445Y-63617438D01*
X119703445Y-63617438D02*
X119798683Y-63569819D01*
X119508207Y-61769819D02*
X119174874Y-61293628D01*
X118936779Y-61769819D02*
X118936779Y-60769819D01*
X118936779Y-60769819D02*
X119317731Y-60769819D01*
X119317731Y-60769819D02*
X119412969Y-60817438D01*
X119412969Y-60817438D02*
X119460588Y-60865057D01*
X119460588Y-60865057D02*
X119508207Y-60960295D01*
X119508207Y-60960295D02*
X119508207Y-61103152D01*
X119508207Y-61103152D02*
X119460588Y-61198390D01*
X119460588Y-61198390D02*
X119412969Y-61246009D01*
X119412969Y-61246009D02*
X119317731Y-61293628D01*
X119317731Y-61293628D02*
X118936779Y-61293628D01*
X119841541Y-61769819D02*
X120365350Y-61103152D01*
X119841541Y-61103152D02*
X120365350Y-61769819D01*
X118693922Y-58369819D02*
X119265350Y-58369819D01*
X118979636Y-59369819D02*
X118979636Y-58369819D01*
X119503446Y-59369819D02*
X120027255Y-58703152D01*
X119503446Y-58703152D02*
X120027255Y-59369819D01*
X136430180Y-95593922D02*
X135430180Y-95927255D01*
X135430180Y-95927255D02*
X136430180Y-96260588D01*
X135430180Y-96736779D02*
X135477800Y-96641541D01*
X135477800Y-96641541D02*
X135525419Y-96593922D01*
X135525419Y-96593922D02*
X135620657Y-96546303D01*
X135620657Y-96546303D02*
X135906371Y-96546303D01*
X135906371Y-96546303D02*
X136001609Y-96593922D01*
X136001609Y-96593922D02*
X136049228Y-96641541D01*
X136049228Y-96641541D02*
X136096847Y-96736779D01*
X136096847Y-96736779D02*
X136096847Y-96879636D01*
X136096847Y-96879636D02*
X136049228Y-96974874D01*
X136049228Y-96974874D02*
X136001609Y-97022493D01*
X136001609Y-97022493D02*
X135906371Y-97070112D01*
X135906371Y-97070112D02*
X135620657Y-97070112D01*
X135620657Y-97070112D02*
X135525419Y-97022493D01*
X135525419Y-97022493D02*
X135477800Y-96974874D01*
X135477800Y-96974874D02*
X135430180Y-96879636D01*
X135430180Y-96879636D02*
X135430180Y-96736779D01*
X136096847Y-97927255D02*
X135430180Y-97927255D01*
X136096847Y-97498684D02*
X135573038Y-97498684D01*
X135573038Y-97498684D02*
X135477800Y-97546303D01*
X135477800Y-97546303D02*
X135430180Y-97641541D01*
X135430180Y-97641541D02*
X135430180Y-97784398D01*
X135430180Y-97784398D02*
X135477800Y-97879636D01*
X135477800Y-97879636D02*
X135525419Y-97927255D01*
X136096847Y-98260589D02*
X136096847Y-98641541D01*
X136430180Y-98403446D02*
X135573038Y-98403446D01*
X135573038Y-98403446D02*
X135477800Y-98451065D01*
X135477800Y-98451065D02*
X135430180Y-98546303D01*
X135430180Y-98546303D02*
X135430180Y-98641541D01*
X139193922Y-89169819D02*
X139527255Y-90169819D01*
X139527255Y-90169819D02*
X139860588Y-89169819D01*
X140193922Y-90169819D02*
X140193922Y-89503152D01*
X140193922Y-89169819D02*
X140146303Y-89217438D01*
X140146303Y-89217438D02*
X140193922Y-89265057D01*
X140193922Y-89265057D02*
X140241541Y-89217438D01*
X140241541Y-89217438D02*
X140193922Y-89169819D01*
X140193922Y-89169819D02*
X140193922Y-89265057D01*
X140670112Y-89503152D02*
X140670112Y-90169819D01*
X140670112Y-89598390D02*
X140717731Y-89550771D01*
X140717731Y-89550771D02*
X140812969Y-89503152D01*
X140812969Y-89503152D02*
X140955826Y-89503152D01*
X140955826Y-89503152D02*
X141051064Y-89550771D01*
X141051064Y-89550771D02*
X141098683Y-89646009D01*
X141098683Y-89646009D02*
X141098683Y-90169819D01*
X160260588Y-78617438D02*
X160165350Y-78569819D01*
X160165350Y-78569819D02*
X160022493Y-78569819D01*
X160022493Y-78569819D02*
X159879636Y-78617438D01*
X159879636Y-78617438D02*
X159784398Y-78712676D01*
X159784398Y-78712676D02*
X159736779Y-78807914D01*
X159736779Y-78807914D02*
X159689160Y-78998390D01*
X159689160Y-78998390D02*
X159689160Y-79141247D01*
X159689160Y-79141247D02*
X159736779Y-79331723D01*
X159736779Y-79331723D02*
X159784398Y-79426961D01*
X159784398Y-79426961D02*
X159879636Y-79522200D01*
X159879636Y-79522200D02*
X160022493Y-79569819D01*
X160022493Y-79569819D02*
X160117731Y-79569819D01*
X160117731Y-79569819D02*
X160260588Y-79522200D01*
X160260588Y-79522200D02*
X160308207Y-79474580D01*
X160308207Y-79474580D02*
X160308207Y-79141247D01*
X160308207Y-79141247D02*
X160117731Y-79141247D01*
X160736779Y-79569819D02*
X160736779Y-78569819D01*
X160736779Y-78569819D02*
X161308207Y-79569819D01*
X161308207Y-79569819D02*
X161308207Y-78569819D01*
X161784398Y-79569819D02*
X161784398Y-78569819D01*
X161784398Y-78569819D02*
X162022493Y-78569819D01*
X162022493Y-78569819D02*
X162165350Y-78617438D01*
X162165350Y-78617438D02*
X162260588Y-78712676D01*
X162260588Y-78712676D02*
X162308207Y-78807914D01*
X162308207Y-78807914D02*
X162355826Y-78998390D01*
X162355826Y-78998390D02*
X162355826Y-79141247D01*
X162355826Y-79141247D02*
X162308207Y-79331723D01*
X162308207Y-79331723D02*
X162260588Y-79426961D01*
X162260588Y-79426961D02*
X162165350Y-79522200D01*
X162165350Y-79522200D02*
X162022493Y-79569819D01*
X162022493Y-79569819D02*
X161784398Y-79569819D01*
X118060588Y-78717438D02*
X117965350Y-78669819D01*
X117965350Y-78669819D02*
X117822493Y-78669819D01*
X117822493Y-78669819D02*
X117679636Y-78717438D01*
X117679636Y-78717438D02*
X117584398Y-78812676D01*
X117584398Y-78812676D02*
X117536779Y-78907914D01*
X117536779Y-78907914D02*
X117489160Y-79098390D01*
X117489160Y-79098390D02*
X117489160Y-79241247D01*
X117489160Y-79241247D02*
X117536779Y-79431723D01*
X117536779Y-79431723D02*
X117584398Y-79526961D01*
X117584398Y-79526961D02*
X117679636Y-79622200D01*
X117679636Y-79622200D02*
X117822493Y-79669819D01*
X117822493Y-79669819D02*
X117917731Y-79669819D01*
X117917731Y-79669819D02*
X118060588Y-79622200D01*
X118060588Y-79622200D02*
X118108207Y-79574580D01*
X118108207Y-79574580D02*
X118108207Y-79241247D01*
X118108207Y-79241247D02*
X117917731Y-79241247D01*
X118536779Y-79669819D02*
X118536779Y-78669819D01*
X118536779Y-78669819D02*
X119108207Y-79669819D01*
X119108207Y-79669819D02*
X119108207Y-78669819D01*
X119584398Y-79669819D02*
X119584398Y-78669819D01*
X119584398Y-78669819D02*
X119822493Y-78669819D01*
X119822493Y-78669819D02*
X119965350Y-78717438D01*
X119965350Y-78717438D02*
X120060588Y-78812676D01*
X120060588Y-78812676D02*
X120108207Y-78907914D01*
X120108207Y-78907914D02*
X120155826Y-79098390D01*
X120155826Y-79098390D02*
X120155826Y-79241247D01*
X120155826Y-79241247D02*
X120108207Y-79431723D01*
X120108207Y-79431723D02*
X120060588Y-79526961D01*
X120060588Y-79526961D02*
X119965350Y-79622200D01*
X119965350Y-79622200D02*
X119822493Y-79669819D01*
X119822493Y-79669819D02*
X119584398Y-79669819D01*
X117141541Y-55469819D02*
X117760588Y-55469819D01*
X117760588Y-55469819D02*
X117427255Y-55850771D01*
X117427255Y-55850771D02*
X117570112Y-55850771D01*
X117570112Y-55850771D02*
X117665350Y-55898390D01*
X117665350Y-55898390D02*
X117712969Y-55946009D01*
X117712969Y-55946009D02*
X117760588Y-56041247D01*
X117760588Y-56041247D02*
X117760588Y-56279342D01*
X117760588Y-56279342D02*
X117712969Y-56374580D01*
X117712969Y-56374580D02*
X117665350Y-56422200D01*
X117665350Y-56422200D02*
X117570112Y-56469819D01*
X117570112Y-56469819D02*
X117284398Y-56469819D01*
X117284398Y-56469819D02*
X117189160Y-56422200D01*
X117189160Y-56422200D02*
X117141541Y-56374580D01*
X118189160Y-56374580D02*
X118236779Y-56422200D01*
X118236779Y-56422200D02*
X118189160Y-56469819D01*
X118189160Y-56469819D02*
X118141541Y-56422200D01*
X118141541Y-56422200D02*
X118189160Y-56374580D01*
X118189160Y-56374580D02*
X118189160Y-56469819D01*
X118570112Y-55469819D02*
X119189159Y-55469819D01*
X119189159Y-55469819D02*
X118855826Y-55850771D01*
X118855826Y-55850771D02*
X118998683Y-55850771D01*
X118998683Y-55850771D02*
X119093921Y-55898390D01*
X119093921Y-55898390D02*
X119141540Y-55946009D01*
X119141540Y-55946009D02*
X119189159Y-56041247D01*
X119189159Y-56041247D02*
X119189159Y-56279342D01*
X119189159Y-56279342D02*
X119141540Y-56374580D01*
X119141540Y-56374580D02*
X119093921Y-56422200D01*
X119093921Y-56422200D02*
X118998683Y-56469819D01*
X118998683Y-56469819D02*
X118712969Y-56469819D01*
X118712969Y-56469819D02*
X118617731Y-56422200D01*
X118617731Y-56422200D02*
X118570112Y-56374580D01*
X119474874Y-55469819D02*
X119808207Y-56469819D01*
X119808207Y-56469819D02*
X120141540Y-55469819D01*
X139927780Y-94766666D02*
X139975400Y-94814285D01*
X139975400Y-94814285D02*
X140023019Y-94957142D01*
X140023019Y-94957142D02*
X140023019Y-95052380D01*
X140023019Y-95052380D02*
X139975400Y-95195237D01*
X139975400Y-95195237D02*
X139880161Y-95290475D01*
X139880161Y-95290475D02*
X139784923Y-95338094D01*
X139784923Y-95338094D02*
X139594447Y-95385713D01*
X139594447Y-95385713D02*
X139451590Y-95385713D01*
X139451590Y-95385713D02*
X139261114Y-95338094D01*
X139261114Y-95338094D02*
X139165876Y-95290475D01*
X139165876Y-95290475D02*
X139070638Y-95195237D01*
X139070638Y-95195237D02*
X139023019Y-95052380D01*
X139023019Y-95052380D02*
X139023019Y-94957142D01*
X139023019Y-94957142D02*
X139070638Y-94814285D01*
X139070638Y-94814285D02*
X139118257Y-94766666D01*
X140023019Y-93766666D02*
X139546828Y-94099999D01*
X140023019Y-94338094D02*
X139023019Y-94338094D01*
X139023019Y-94338094D02*
X139023019Y-93957142D01*
X139023019Y-93957142D02*
X139070638Y-93861904D01*
X139070638Y-93861904D02*
X139118257Y-93814285D01*
X139118257Y-93814285D02*
X139213495Y-93766666D01*
X139213495Y-93766666D02*
X139356352Y-93766666D01*
X139356352Y-93766666D02*
X139451590Y-93814285D01*
X139451590Y-93814285D02*
X139499209Y-93861904D01*
X139499209Y-93861904D02*
X139546828Y-93957142D01*
X139546828Y-93957142D02*
X139546828Y-94338094D01*
X140023019Y-92814285D02*
X140023019Y-93385713D01*
X140023019Y-93099999D02*
X139023019Y-93099999D01*
X139023019Y-93099999D02*
X139165876Y-93195237D01*
X139165876Y-93195237D02*
X139261114Y-93290475D01*
X139261114Y-93290475D02*
X139308733Y-93385713D01*
X123081905Y-89184819D02*
X123081905Y-88184819D01*
X123081905Y-88184819D02*
X123320000Y-88184819D01*
X123320000Y-88184819D02*
X123462857Y-88232438D01*
X123462857Y-88232438D02*
X123558095Y-88327676D01*
X123558095Y-88327676D02*
X123605714Y-88422914D01*
X123605714Y-88422914D02*
X123653333Y-88613390D01*
X123653333Y-88613390D02*
X123653333Y-88756247D01*
X123653333Y-88756247D02*
X123605714Y-88946723D01*
X123605714Y-88946723D02*
X123558095Y-89041961D01*
X123558095Y-89041961D02*
X123462857Y-89137200D01*
X123462857Y-89137200D02*
X123320000Y-89184819D01*
X123320000Y-89184819D02*
X123081905Y-89184819D01*
X124605714Y-89184819D02*
X124034286Y-89184819D01*
X124320000Y-89184819D02*
X124320000Y-88184819D01*
X124320000Y-88184819D02*
X124224762Y-88327676D01*
X124224762Y-88327676D02*
X124129524Y-88422914D01*
X124129524Y-88422914D02*
X124034286Y-88470533D01*
X118478095Y-89554819D02*
X118478095Y-88554819D01*
X119049523Y-89554819D02*
X118620952Y-88983390D01*
X119049523Y-88554819D02*
X118478095Y-89126247D01*
X146864819Y-83733333D02*
X147579104Y-83733333D01*
X147579104Y-83733333D02*
X147721961Y-83780952D01*
X147721961Y-83780952D02*
X147817200Y-83876190D01*
X147817200Y-83876190D02*
X147864819Y-84019047D01*
X147864819Y-84019047D02*
X147864819Y-84114285D01*
X146864819Y-82780952D02*
X146864819Y-83257142D01*
X146864819Y-83257142D02*
X147341009Y-83304761D01*
X147341009Y-83304761D02*
X147293390Y-83257142D01*
X147293390Y-83257142D02*
X147245771Y-83161904D01*
X147245771Y-83161904D02*
X147245771Y-82923809D01*
X147245771Y-82923809D02*
X147293390Y-82828571D01*
X147293390Y-82828571D02*
X147341009Y-82780952D01*
X147341009Y-82780952D02*
X147436247Y-82733333D01*
X147436247Y-82733333D02*
X147674342Y-82733333D01*
X147674342Y-82733333D02*
X147769580Y-82780952D01*
X147769580Y-82780952D02*
X147817200Y-82828571D01*
X147817200Y-82828571D02*
X147864819Y-82923809D01*
X147864819Y-82923809D02*
X147864819Y-83161904D01*
X147864819Y-83161904D02*
X147817200Y-83257142D01*
X147817200Y-83257142D02*
X147769580Y-83304761D01*
X129311295Y-45969619D02*
X129311295Y-46779142D01*
X129311295Y-46779142D02*
X129358914Y-46874380D01*
X129358914Y-46874380D02*
X129406533Y-46922000D01*
X129406533Y-46922000D02*
X129501771Y-46969619D01*
X129501771Y-46969619D02*
X129692247Y-46969619D01*
X129692247Y-46969619D02*
X129787485Y-46922000D01*
X129787485Y-46922000D02*
X129835104Y-46874380D01*
X129835104Y-46874380D02*
X129882723Y-46779142D01*
X129882723Y-46779142D02*
X129882723Y-45969619D01*
X130882723Y-46969619D02*
X130311295Y-46969619D01*
X130597009Y-46969619D02*
X130597009Y-45969619D01*
X130597009Y-45969619D02*
X130501771Y-46112476D01*
X130501771Y-46112476D02*
X130406533Y-46207714D01*
X130406533Y-46207714D02*
X130311295Y-46255333D01*
X156441666Y-81384819D02*
X156441666Y-82099104D01*
X156441666Y-82099104D02*
X156394047Y-82241961D01*
X156394047Y-82241961D02*
X156298809Y-82337200D01*
X156298809Y-82337200D02*
X156155952Y-82384819D01*
X156155952Y-82384819D02*
X156060714Y-82384819D01*
X157346428Y-81718152D02*
X157346428Y-82384819D01*
X157108333Y-81337200D02*
X156870238Y-82051485D01*
X156870238Y-82051485D02*
X157489285Y-82051485D01*
X132379580Y-95266666D02*
X132427200Y-95314285D01*
X132427200Y-95314285D02*
X132474819Y-95457142D01*
X132474819Y-95457142D02*
X132474819Y-95552380D01*
X132474819Y-95552380D02*
X132427200Y-95695237D01*
X132427200Y-95695237D02*
X132331961Y-95790475D01*
X132331961Y-95790475D02*
X132236723Y-95838094D01*
X132236723Y-95838094D02*
X132046247Y-95885713D01*
X132046247Y-95885713D02*
X131903390Y-95885713D01*
X131903390Y-95885713D02*
X131712914Y-95838094D01*
X131712914Y-95838094D02*
X131617676Y-95790475D01*
X131617676Y-95790475D02*
X131522438Y-95695237D01*
X131522438Y-95695237D02*
X131474819Y-95552380D01*
X131474819Y-95552380D02*
X131474819Y-95457142D01*
X131474819Y-95457142D02*
X131522438Y-95314285D01*
X131522438Y-95314285D02*
X131570057Y-95266666D01*
X132474819Y-94314285D02*
X132474819Y-94885713D01*
X132474819Y-94599999D02*
X131474819Y-94599999D01*
X131474819Y-94599999D02*
X131617676Y-94695237D01*
X131617676Y-94695237D02*
X131712914Y-94790475D01*
X131712914Y-94790475D02*
X131760533Y-94885713D01*
X122091666Y-52984819D02*
X122091666Y-53699104D01*
X122091666Y-53699104D02*
X122044047Y-53841961D01*
X122044047Y-53841961D02*
X121948809Y-53937200D01*
X121948809Y-53937200D02*
X121805952Y-53984819D01*
X121805952Y-53984819D02*
X121710714Y-53984819D01*
X122520238Y-53080057D02*
X122567857Y-53032438D01*
X122567857Y-53032438D02*
X122663095Y-52984819D01*
X122663095Y-52984819D02*
X122901190Y-52984819D01*
X122901190Y-52984819D02*
X122996428Y-53032438D01*
X122996428Y-53032438D02*
X123044047Y-53080057D01*
X123044047Y-53080057D02*
X123091666Y-53175295D01*
X123091666Y-53175295D02*
X123091666Y-53270533D01*
X123091666Y-53270533D02*
X123044047Y-53413390D01*
X123044047Y-53413390D02*
X122472619Y-53984819D01*
X122472619Y-53984819D02*
X123091666Y-53984819D01*
X151766666Y-95254819D02*
X151766666Y-95969104D01*
X151766666Y-95969104D02*
X151719047Y-96111961D01*
X151719047Y-96111961D02*
X151623809Y-96207200D01*
X151623809Y-96207200D02*
X151480952Y-96254819D01*
X151480952Y-96254819D02*
X151385714Y-96254819D01*
X152766666Y-96254819D02*
X152195238Y-96254819D01*
X152480952Y-96254819D02*
X152480952Y-95254819D01*
X152480952Y-95254819D02*
X152385714Y-95397676D01*
X152385714Y-95397676D02*
X152290476Y-95492914D01*
X152290476Y-95492914D02*
X152195238Y-95540533D01*
X158028571Y-91914700D02*
X159171429Y-91914700D01*
X145028571Y-91914700D02*
X146171429Y-91914700D01*
X145600000Y-92486128D02*
X145600000Y-91343271D01*
X135689580Y-90891666D02*
X135737200Y-90939285D01*
X135737200Y-90939285D02*
X135784819Y-91082142D01*
X135784819Y-91082142D02*
X135784819Y-91177380D01*
X135784819Y-91177380D02*
X135737200Y-91320237D01*
X135737200Y-91320237D02*
X135641961Y-91415475D01*
X135641961Y-91415475D02*
X135546723Y-91463094D01*
X135546723Y-91463094D02*
X135356247Y-91510713D01*
X135356247Y-91510713D02*
X135213390Y-91510713D01*
X135213390Y-91510713D02*
X135022914Y-91463094D01*
X135022914Y-91463094D02*
X134927676Y-91415475D01*
X134927676Y-91415475D02*
X134832438Y-91320237D01*
X134832438Y-91320237D02*
X134784819Y-91177380D01*
X134784819Y-91177380D02*
X134784819Y-91082142D01*
X134784819Y-91082142D02*
X134832438Y-90939285D01*
X134832438Y-90939285D02*
X134880057Y-90891666D01*
X134880057Y-90510713D02*
X134832438Y-90463094D01*
X134832438Y-90463094D02*
X134784819Y-90367856D01*
X134784819Y-90367856D02*
X134784819Y-90129761D01*
X134784819Y-90129761D02*
X134832438Y-90034523D01*
X134832438Y-90034523D02*
X134880057Y-89986904D01*
X134880057Y-89986904D02*
X134975295Y-89939285D01*
X134975295Y-89939285D02*
X135070533Y-89939285D01*
X135070533Y-89939285D02*
X135213390Y-89986904D01*
X135213390Y-89986904D02*
X135784819Y-90558332D01*
X135784819Y-90558332D02*
X135784819Y-89939285D01*
D11*
X137142500Y-99434000D02*
X141993900Y-99434000D01*
X137142500Y-88766000D02*
X137142500Y-99434000D01*
X141993900Y-88766000D02*
X137142500Y-88766000D01*
X141993900Y-99434000D02*
X141993900Y-88766000D01*
X140203200Y-101212000D02*
G75*
G03*
X140203200Y-101212000I-203200J0D01*
G01*
D12*
X120080000Y-91200000D02*
X121100000Y-91200000D01*
X121100000Y-89730000D02*
X121100000Y-92670000D01*
X121100000Y-92670000D02*
X126540000Y-92670000D01*
X121880000Y-89730000D02*
X121880000Y-92670000D01*
X122000000Y-89730000D02*
X122000000Y-92670000D01*
X122120000Y-89730000D02*
X122120000Y-92670000D01*
X126540000Y-89730000D02*
X121100000Y-89730000D01*
X126540000Y-92670000D02*
X126540000Y-89730000D01*
X127560000Y-91200000D02*
X126540000Y-91200000D01*
X143370000Y-82070000D02*
X133150000Y-82070000D01*
X143370000Y-82070000D02*
X143370000Y-84730000D01*
X133150000Y-82070000D02*
X133150000Y-84730000D01*
X145970000Y-83400000D02*
X145970000Y-84730000D01*
X145970000Y-84730000D02*
X144640000Y-84730000D01*
X143370000Y-84730000D02*
X133150000Y-84730000D01*
D13*
X127206200Y-54060000D02*
X133734000Y-47532200D01*
X127206200Y-75167400D02*
X127206200Y-54060000D01*
X133734000Y-47532200D02*
X145062400Y-47532200D01*
X151590200Y-54060000D02*
X145062400Y-47532200D01*
X151590200Y-54060000D02*
X151590200Y-75167400D01*
X151590200Y-75167400D02*
X127206200Y-75167400D01*
D14*
X126198200Y-55249800D02*
G75*
G03*
X126198200Y-55249800I-200000J0D01*
G01*
D12*
X158105000Y-77890000D02*
X158105000Y-54970000D01*
X158105000Y-77890000D02*
X155445000Y-77890000D01*
X158105000Y-54970000D02*
X155445000Y-54970000D01*
X156775000Y-80490000D02*
X155445000Y-80490000D01*
X155445000Y-80490000D02*
X155445000Y-79160000D01*
X155445000Y-77890000D02*
X155445000Y-54970000D01*
X132965000Y-95361252D02*
X132965000Y-94838748D01*
X134435000Y-95361252D02*
X134435000Y-94838748D01*
X121095000Y-57570000D02*
X121095000Y-80490000D01*
X121095000Y-57570000D02*
X123755000Y-57570000D01*
X121095000Y-80490000D02*
X123755000Y-80490000D01*
X122425000Y-54970000D02*
X123755000Y-54970000D01*
X123755000Y-54970000D02*
X123755000Y-56300000D01*
X123755000Y-57570000D02*
X123755000Y-80490000D01*
X157310000Y-93210000D02*
X157310000Y-90390000D01*
X157310000Y-93210000D02*
X155610000Y-94510000D01*
X157310000Y-90390000D02*
X155610000Y-89090000D01*
X155610000Y-94510000D02*
X146890000Y-94510000D01*
X155610000Y-89090000D02*
X146890000Y-89090000D01*
X146890000Y-94510000D02*
X146890000Y-89090000D01*
X134410000Y-90584420D02*
X134410000Y-90865580D01*
X133390000Y-90584420D02*
X133390000Y-90865580D01*
%LPC*%
D15*
X140000000Y-91560000D03*
X140000000Y-94100000D03*
D16*
X140000000Y-96640000D03*
D17*
X118740000Y-91200000D03*
D18*
X128900000Y-91200000D03*
D19*
X144640000Y-83400000D03*
D20*
X142100000Y-83400000D03*
X139560000Y-83400000D03*
X137020000Y-83400000D03*
X134480000Y-83400000D03*
D21*
X128400000Y-55253800D03*
D22*
X128400000Y-57260400D03*
X128400000Y-59267000D03*
X128400000Y-61273600D03*
X128400000Y-63280200D03*
X128400000Y-65286800D03*
X128400000Y-67293400D03*
X128400000Y-69300000D03*
X128400000Y-71306600D03*
X128400000Y-73313200D03*
X150396400Y-73313200D03*
X150396400Y-71306600D03*
X150396400Y-69300000D03*
X150396400Y-67293400D03*
X150396400Y-65286800D03*
X150396400Y-63280200D03*
X150396400Y-61273600D03*
X150396400Y-59267000D03*
X150396400Y-57260400D03*
X150396400Y-55253800D03*
D23*
X122400000Y-50300000D03*
D19*
X156775000Y-79160000D03*
D20*
X156775000Y-76620000D03*
X156775000Y-74080000D03*
X156775000Y-71540000D03*
X156775000Y-69000000D03*
X156775000Y-66460000D03*
X156775000Y-63920000D03*
X156775000Y-61380000D03*
X156775000Y-58840000D03*
X156775000Y-56300000D03*
D24*
X133700000Y-96050000D03*
X133700000Y-94150000D03*
D23*
X156800000Y-100000000D03*
D19*
X122425000Y-56300000D03*
D20*
X122425000Y-58840000D03*
X122425000Y-61380000D03*
X122425000Y-63920000D03*
X122425000Y-66460000D03*
X122425000Y-69000000D03*
X122425000Y-71540000D03*
X122425000Y-74080000D03*
X122425000Y-76620000D03*
X122425000Y-79160000D03*
D23*
X156800000Y-50300000D03*
X122400000Y-100000000D03*
D25*
X154600000Y-91800000D03*
D26*
X149600000Y-91800000D03*
D27*
X133900000Y-89950000D03*
X133900000Y-91500000D03*
%LPD*%
M02*
