G04 #@! TF.GenerationSoftware,KiCad,Pcbnew,7.0.8*
G04 #@! TF.CreationDate,2024-12-11T20:09:02-06:00*
G04 #@! TF.ProjectId,LEC,4c45432e-6b69-4636-9164-5f7063625858,rev?*
G04 #@! TF.SameCoordinates,Original*
G04 #@! TF.FileFunction,Soldermask,Bot*
G04 #@! TF.FilePolarity,Negative*
%FSLAX46Y46*%
G04 Gerber Fmt 4.6, Leading zero omitted, Abs format (unit mm)*
G04 Created by KiCad (PCBNEW 7.0.8) date 2024-12-11 20:09:02*
%MOMM*%
%LPD*%
G01*
G04 APERTURE LIST*
G04 Aperture macros list*
%AMRoundRect*
0 Rectangle with rounded corners*
0 $1 Rounding radius*
0 $2 $3 $4 $5 $6 $7 $8 $9 X,Y pos of 4 corners*
0 Add a 4 corners polygon primitive as box body*
4,1,4,$2,$3,$4,$5,$6,$7,$8,$9,$2,$3,0*
0 Add four circle primitives for the rounded corners*
1,1,$1+$1,$2,$3*
1,1,$1+$1,$4,$5*
1,1,$1+$1,$6,$7*
1,1,$1+$1,$8,$9*
0 Add four rect primitives between the rounded corners*
20,1,$1+$1,$2,$3,$4,$5,0*
20,1,$1+$1,$4,$5,$6,$7,0*
20,1,$1+$1,$6,$7,$8,$9,0*
20,1,$1+$1,$8,$9,$2,$3,0*%
G04 Aperture macros list end*
%ADD10RoundRect,0.102000X-0.754000X-0.754000X0.754000X-0.754000X0.754000X0.754000X-0.754000X0.754000X0*%
%ADD11C,1.712000*%
%ADD12R,3.000000X3.000000*%
%ADD13C,3.000000*%
%ADD14RoundRect,0.102000X0.754000X-0.754000X0.754000X0.754000X-0.754000X0.754000X-0.754000X-0.754000X0*%
%ADD15RoundRect,0.102000X-0.754000X0.754000X-0.754000X-0.754000X0.754000X-0.754000X0.754000X0.754000X0*%
%ADD16C,3.200000*%
%ADD17R,2.200000X2.200000*%
%ADD18O,2.200000X2.200000*%
%ADD19RoundRect,0.102000X0.754000X0.754000X-0.754000X0.754000X-0.754000X-0.754000X0.754000X-0.754000X0*%
%ADD20O,1.800000X1.800000*%
%ADD21O,1.500000X1.500000*%
%ADD22O,1.700000X1.700000*%
%ADD23R,1.700000X1.700000*%
%ADD24R,1.498600X1.498600*%
%ADD25C,1.498600*%
%ADD26R,1.651000X1.651000*%
%ADD27C,1.651000*%
%ADD28RoundRect,0.250000X-0.650000X0.325000X-0.650000X-0.325000X0.650000X-0.325000X0.650000X0.325000X0*%
%ADD29RoundRect,0.250000X0.325000X0.650000X-0.325000X0.650000X-0.325000X-0.650000X0.325000X-0.650000X0*%
%ADD30RoundRect,0.200000X0.200000X0.275000X-0.200000X0.275000X-0.200000X-0.275000X0.200000X-0.275000X0*%
%ADD31RoundRect,0.200000X-0.200000X-0.275000X0.200000X-0.275000X0.200000X0.275000X-0.200000X0.275000X0*%
%ADD32RoundRect,0.225000X-0.250000X0.225000X-0.250000X-0.225000X0.250000X-0.225000X0.250000X0.225000X0*%
%ADD33RoundRect,0.250000X0.475000X-0.250000X0.475000X0.250000X-0.475000X0.250000X-0.475000X-0.250000X0*%
%ADD34RoundRect,0.150000X-0.825000X-0.150000X0.825000X-0.150000X0.825000X0.150000X-0.825000X0.150000X0*%
%ADD35RoundRect,0.250000X-0.250000X-0.475000X0.250000X-0.475000X0.250000X0.475000X-0.250000X0.475000X0*%
%ADD36R,1.524000X0.533400*%
%ADD37RoundRect,0.250000X-0.325000X-0.650000X0.325000X-0.650000X0.325000X0.650000X-0.325000X0.650000X0*%
%ADD38R,0.355600X1.308100*%
%ADD39RoundRect,0.225000X-0.225000X-0.250000X0.225000X-0.250000X0.225000X0.250000X-0.225000X0.250000X0*%
%ADD40RoundRect,0.250000X0.650000X-0.325000X0.650000X0.325000X-0.650000X0.325000X-0.650000X-0.325000X0*%
%ADD41RoundRect,0.250000X-0.512652X-0.159099X-0.159099X-0.512652X0.512652X0.159099X0.159099X0.512652X0*%
%ADD42RoundRect,0.200000X-0.275000X0.200000X-0.275000X-0.200000X0.275000X-0.200000X0.275000X0.200000X0*%
G04 APERTURE END LIST*
D10*
X81435000Y-61450000D03*
D11*
X80800000Y-59420000D03*
X78135000Y-61450000D03*
X78770000Y-59420000D03*
D12*
X85000000Y-94800000D03*
D13*
X80000000Y-94800000D03*
D14*
X131900000Y-94520000D03*
D11*
X129870000Y-95155000D03*
X131900000Y-97820000D03*
X129870000Y-97185000D03*
D12*
X197600000Y-78600000D03*
D13*
X192600000Y-78600000D03*
D15*
X192500000Y-113000000D03*
D11*
X194530000Y-112365000D03*
X192500000Y-109700000D03*
X194530000Y-110335000D03*
D10*
X121475000Y-61400000D03*
D11*
X120840000Y-59370000D03*
X118175000Y-61400000D03*
X118810000Y-59370000D03*
D16*
X205600000Y-56500000D03*
D15*
X192400000Y-94300000D03*
D11*
X194430000Y-93665000D03*
X192400000Y-91000000D03*
X194430000Y-91635000D03*
D16*
X205700000Y-120400000D03*
D10*
X101475000Y-61400000D03*
D11*
X100840000Y-59370000D03*
X98175000Y-61400000D03*
X98810000Y-59370000D03*
D17*
X186520000Y-54800000D03*
D18*
X196680000Y-54800000D03*
D19*
X141385000Y-115300000D03*
D11*
X142020000Y-117330000D03*
X144685000Y-115300000D03*
X144050000Y-117330000D03*
D14*
X131917500Y-75612500D03*
D11*
X129887500Y-76247500D03*
X131917500Y-78912500D03*
X129887500Y-78277500D03*
D10*
X144600000Y-61400000D03*
D11*
X143965000Y-59370000D03*
X141300000Y-61400000D03*
X141935000Y-59370000D03*
D16*
X66000000Y-120400000D03*
D20*
X167765000Y-57200000D03*
D21*
X168065000Y-60230000D03*
X172915000Y-60230000D03*
D20*
X173215000Y-57200000D03*
D22*
X161600000Y-57070000D03*
X161600000Y-59610000D03*
D23*
X161600000Y-62150000D03*
D22*
X161600000Y-64690000D03*
X161600000Y-67230000D03*
X161600000Y-69770000D03*
X161600000Y-72310000D03*
D23*
X161600000Y-74850000D03*
D22*
X161600000Y-77390000D03*
X161600000Y-79930000D03*
X161600000Y-82470000D03*
X161600000Y-85010000D03*
D23*
X161600000Y-87550000D03*
D22*
X161600000Y-90090000D03*
X161600000Y-92630000D03*
X161600000Y-95170000D03*
X161600000Y-97710000D03*
D23*
X161600000Y-100250000D03*
D22*
X161600000Y-102790000D03*
X161600000Y-105330000D03*
X179380000Y-105330000D03*
X179380000Y-102790000D03*
D23*
X179380000Y-100250000D03*
D22*
X179380000Y-97710000D03*
X179380000Y-95170000D03*
X179380000Y-92630000D03*
X179380000Y-90090000D03*
D23*
X179380000Y-87550000D03*
D22*
X179380000Y-85010000D03*
X179380000Y-82470000D03*
X179380000Y-79930000D03*
X179380000Y-77390000D03*
D23*
X179380000Y-74850000D03*
D22*
X179380000Y-72310000D03*
X179380000Y-69770000D03*
X179380000Y-67230000D03*
X179380000Y-64690000D03*
D23*
X179380000Y-62150000D03*
D22*
X179380000Y-59610000D03*
X179380000Y-57070000D03*
X167950000Y-105100000D03*
D23*
X170490000Y-105100000D03*
D22*
X173030000Y-105100000D03*
D16*
X66000000Y-56500000D03*
D24*
X65564400Y-80257400D03*
D25*
X65564400Y-77717400D03*
X65564400Y-75177400D03*
D19*
X80765000Y-115270000D03*
D11*
X81400000Y-117300000D03*
X84065000Y-115270000D03*
X83430000Y-117300000D03*
D26*
X192500000Y-70500000D03*
D27*
X195040000Y-70500000D03*
X197580000Y-70500000D03*
D24*
X65564400Y-96840000D03*
D25*
X65564400Y-94300000D03*
X65564400Y-91760000D03*
D19*
X121335000Y-115300000D03*
D11*
X121970000Y-117330000D03*
X124635000Y-115300000D03*
X124000000Y-117330000D03*
D19*
X101335000Y-115300000D03*
D11*
X101970000Y-117330000D03*
X104635000Y-115300000D03*
X104000000Y-117330000D03*
D27*
X101449000Y-91900000D03*
X103989000Y-91900000D03*
X106529000Y-91900000D03*
D28*
X78200000Y-83550000D03*
X78200000Y-86500000D03*
D29*
X83850000Y-105100000D03*
X80900000Y-105100000D03*
D30*
X96325000Y-65000000D03*
X94675000Y-65000000D03*
D31*
X80730000Y-109900000D03*
X82380000Y-109900000D03*
D32*
X136400000Y-76625000D03*
X136400000Y-78175000D03*
D33*
X101400000Y-99450000D03*
X101400000Y-97550000D03*
D30*
X121475000Y-65000000D03*
X119825000Y-65000000D03*
D32*
X136400000Y-95250000D03*
X136400000Y-96800000D03*
D30*
X81370000Y-64950000D03*
X79720000Y-64950000D03*
D34*
X140650000Y-79300000D03*
X140650000Y-78030000D03*
X140650000Y-76760000D03*
X140650000Y-75490000D03*
X145600000Y-75490000D03*
X145600000Y-76760000D03*
X145600000Y-78030000D03*
X145600000Y-79300000D03*
D35*
X192450000Y-104900000D03*
X194350000Y-104900000D03*
D36*
X175200000Y-117190000D03*
X175200000Y-118460000D03*
X175200000Y-119730000D03*
X175200000Y-121000000D03*
X167910200Y-121000000D03*
X167910200Y-119730000D03*
X167910200Y-118460000D03*
X167910200Y-117190000D03*
D28*
X83200000Y-83550000D03*
X83200000Y-86500000D03*
D37*
X104860000Y-106900000D03*
X107810000Y-106900000D03*
D38*
X87849999Y-78796100D03*
X88500000Y-78796100D03*
X89149998Y-78796100D03*
X89800000Y-78796100D03*
X90449998Y-78796100D03*
X91099997Y-78796100D03*
X91749998Y-78796100D03*
X92399997Y-78796100D03*
X93049998Y-78796100D03*
X93699997Y-78796100D03*
X93699999Y-84600000D03*
X93050001Y-84600000D03*
X92400000Y-84600000D03*
X91750001Y-84600000D03*
X91100000Y-84600000D03*
X90450001Y-84600000D03*
X89800000Y-84600000D03*
X89150001Y-84600000D03*
X88500000Y-84600000D03*
X87850001Y-84600000D03*
D31*
X141310000Y-111700000D03*
X142960000Y-111700000D03*
D34*
X140650000Y-97900000D03*
X140650000Y-96630000D03*
X140650000Y-95360000D03*
X140650000Y-94090000D03*
X145600000Y-94090000D03*
X145600000Y-95360000D03*
X145600000Y-96630000D03*
X145600000Y-97900000D03*
D31*
X85830000Y-109900000D03*
X87480000Y-109900000D03*
D39*
X163155100Y-117195000D03*
X164705100Y-117195000D03*
D30*
X101450000Y-65000000D03*
X99800000Y-65000000D03*
D31*
X121335000Y-111700000D03*
X122985000Y-111700000D03*
X146535000Y-111700000D03*
X148185000Y-111700000D03*
D37*
X145065000Y-106900000D03*
X148015000Y-106900000D03*
D31*
X106335000Y-111800000D03*
X107985000Y-111800000D03*
D29*
X77655000Y-69750000D03*
X74705000Y-69750000D03*
D37*
X124985000Y-106900000D03*
X127935000Y-106900000D03*
D35*
X192450000Y-86200000D03*
X194350000Y-86200000D03*
D29*
X117795000Y-69800000D03*
X114845000Y-69800000D03*
D31*
X126435000Y-111700000D03*
X128085000Y-111700000D03*
D33*
X106600000Y-99500000D03*
X106600000Y-97600000D03*
D31*
X101335000Y-111800000D03*
X102985000Y-111800000D03*
D39*
X140600000Y-72100000D03*
X142150000Y-72100000D03*
D30*
X76185000Y-64950000D03*
X74535000Y-64950000D03*
D40*
X77900000Y-78875000D03*
X77900000Y-75925000D03*
X82900000Y-78875000D03*
X82900000Y-75925000D03*
D29*
X97795000Y-69800000D03*
X94845000Y-69800000D03*
D41*
X86656498Y-72756498D03*
X88000000Y-74100000D03*
D39*
X140625000Y-90400000D03*
X142175000Y-90400000D03*
D42*
X187800000Y-108575000D03*
X187800000Y-110225000D03*
X187600000Y-90875000D03*
X187600000Y-92525000D03*
D30*
X116325000Y-65000000D03*
X114675000Y-65000000D03*
M02*
