G04 #@! TF.GenerationSoftware,KiCad,Pcbnew,7.0.8*
G04 #@! TF.CreationDate,2024-12-11T20:09:02-06:00*
G04 #@! TF.ProjectId,LEC,4c45432e-6b69-4636-9164-5f7063625858,rev?*
G04 #@! TF.SameCoordinates,Original*
G04 #@! TF.FileFunction,Paste,Bot*
G04 #@! TF.FilePolarity,Positive*
%FSLAX46Y46*%
G04 Gerber Fmt 4.6, Leading zero omitted, Abs format (unit mm)*
G04 Created by KiCad (PCBNEW 7.0.8) date 2024-12-11 20:09:02*
%MOMM*%
%LPD*%
G01*
G04 APERTURE LIST*
G04 Aperture macros list*
%AMRoundRect*
0 Rectangle with rounded corners*
0 $1 Rounding radius*
0 $2 $3 $4 $5 $6 $7 $8 $9 X,Y pos of 4 corners*
0 Add a 4 corners polygon primitive as box body*
4,1,4,$2,$3,$4,$5,$6,$7,$8,$9,$2,$3,0*
0 Add four circle primitives for the rounded corners*
1,1,$1+$1,$2,$3*
1,1,$1+$1,$4,$5*
1,1,$1+$1,$6,$7*
1,1,$1+$1,$8,$9*
0 Add four rect primitives between the rounded corners*
20,1,$1+$1,$2,$3,$4,$5,0*
20,1,$1+$1,$4,$5,$6,$7,0*
20,1,$1+$1,$6,$7,$8,$9,0*
20,1,$1+$1,$8,$9,$2,$3,0*%
G04 Aperture macros list end*
%ADD10RoundRect,0.250000X-0.650000X0.325000X-0.650000X-0.325000X0.650000X-0.325000X0.650000X0.325000X0*%
%ADD11RoundRect,0.250000X0.325000X0.650000X-0.325000X0.650000X-0.325000X-0.650000X0.325000X-0.650000X0*%
%ADD12RoundRect,0.200000X0.200000X0.275000X-0.200000X0.275000X-0.200000X-0.275000X0.200000X-0.275000X0*%
%ADD13RoundRect,0.200000X-0.200000X-0.275000X0.200000X-0.275000X0.200000X0.275000X-0.200000X0.275000X0*%
%ADD14RoundRect,0.225000X-0.250000X0.225000X-0.250000X-0.225000X0.250000X-0.225000X0.250000X0.225000X0*%
%ADD15RoundRect,0.250000X0.475000X-0.250000X0.475000X0.250000X-0.475000X0.250000X-0.475000X-0.250000X0*%
%ADD16RoundRect,0.150000X-0.825000X-0.150000X0.825000X-0.150000X0.825000X0.150000X-0.825000X0.150000X0*%
%ADD17RoundRect,0.250000X-0.250000X-0.475000X0.250000X-0.475000X0.250000X0.475000X-0.250000X0.475000X0*%
%ADD18R,1.524000X0.533400*%
%ADD19RoundRect,0.250000X-0.325000X-0.650000X0.325000X-0.650000X0.325000X0.650000X-0.325000X0.650000X0*%
%ADD20R,0.355600X1.308100*%
%ADD21RoundRect,0.225000X-0.225000X-0.250000X0.225000X-0.250000X0.225000X0.250000X-0.225000X0.250000X0*%
%ADD22RoundRect,0.250000X0.650000X-0.325000X0.650000X0.325000X-0.650000X0.325000X-0.650000X-0.325000X0*%
%ADD23RoundRect,0.250000X-0.512652X-0.159099X-0.159099X-0.512652X0.512652X0.159099X0.159099X0.512652X0*%
%ADD24RoundRect,0.200000X-0.275000X0.200000X-0.275000X-0.200000X0.275000X-0.200000X0.275000X0.200000X0*%
G04 APERTURE END LIST*
D10*
X78200000Y-83550000D03*
X78200000Y-86500000D03*
D11*
X83850000Y-105100000D03*
X80900000Y-105100000D03*
D12*
X96325000Y-65000000D03*
X94675000Y-65000000D03*
D13*
X80730000Y-109900000D03*
X82380000Y-109900000D03*
D14*
X136400000Y-76625000D03*
X136400000Y-78175000D03*
D15*
X101400000Y-99450000D03*
X101400000Y-97550000D03*
D12*
X121475000Y-65000000D03*
X119825000Y-65000000D03*
D14*
X136400000Y-95250000D03*
X136400000Y-96800000D03*
D12*
X81370000Y-64950000D03*
X79720000Y-64950000D03*
D16*
X140650000Y-79300000D03*
X140650000Y-78030000D03*
X140650000Y-76760000D03*
X140650000Y-75490000D03*
X145600000Y-75490000D03*
X145600000Y-76760000D03*
X145600000Y-78030000D03*
X145600000Y-79300000D03*
D17*
X192450000Y-104900000D03*
X194350000Y-104900000D03*
D18*
X175200000Y-117190000D03*
X175200000Y-118460000D03*
X175200000Y-119730000D03*
X175200000Y-121000000D03*
X167910200Y-121000000D03*
X167910200Y-119730000D03*
X167910200Y-118460000D03*
X167910200Y-117190000D03*
D10*
X83200000Y-83550000D03*
X83200000Y-86500000D03*
D19*
X104860000Y-106900000D03*
X107810000Y-106900000D03*
D20*
X87849999Y-78796100D03*
X88500000Y-78796100D03*
X89149998Y-78796100D03*
X89800000Y-78796100D03*
X90449998Y-78796100D03*
X91099997Y-78796100D03*
X91749998Y-78796100D03*
X92399997Y-78796100D03*
X93049998Y-78796100D03*
X93699997Y-78796100D03*
X93699999Y-84600000D03*
X93050001Y-84600000D03*
X92400000Y-84600000D03*
X91750001Y-84600000D03*
X91100000Y-84600000D03*
X90450001Y-84600000D03*
X89800000Y-84600000D03*
X89150001Y-84600000D03*
X88500000Y-84600000D03*
X87850001Y-84600000D03*
D13*
X141310000Y-111700000D03*
X142960000Y-111700000D03*
D16*
X140650000Y-97900000D03*
X140650000Y-96630000D03*
X140650000Y-95360000D03*
X140650000Y-94090000D03*
X145600000Y-94090000D03*
X145600000Y-95360000D03*
X145600000Y-96630000D03*
X145600000Y-97900000D03*
D13*
X85830000Y-109900000D03*
X87480000Y-109900000D03*
D21*
X163155100Y-117195000D03*
X164705100Y-117195000D03*
D12*
X101450000Y-65000000D03*
X99800000Y-65000000D03*
D13*
X121335000Y-111700000D03*
X122985000Y-111700000D03*
X146535000Y-111700000D03*
X148185000Y-111700000D03*
D19*
X145065000Y-106900000D03*
X148015000Y-106900000D03*
D13*
X106335000Y-111800000D03*
X107985000Y-111800000D03*
D11*
X77655000Y-69750000D03*
X74705000Y-69750000D03*
D19*
X124985000Y-106900000D03*
X127935000Y-106900000D03*
D17*
X192450000Y-86200000D03*
X194350000Y-86200000D03*
D11*
X117795000Y-69800000D03*
X114845000Y-69800000D03*
D13*
X126435000Y-111700000D03*
X128085000Y-111700000D03*
D15*
X106600000Y-99500000D03*
X106600000Y-97600000D03*
D13*
X101335000Y-111800000D03*
X102985000Y-111800000D03*
D21*
X140600000Y-72100000D03*
X142150000Y-72100000D03*
D12*
X76185000Y-64950000D03*
X74535000Y-64950000D03*
D22*
X77900000Y-78875000D03*
X77900000Y-75925000D03*
X82900000Y-78875000D03*
X82900000Y-75925000D03*
D11*
X97795000Y-69800000D03*
X94845000Y-69800000D03*
D23*
X86656498Y-72756498D03*
X88000000Y-74100000D03*
D21*
X140625000Y-90400000D03*
X142175000Y-90400000D03*
D24*
X187800000Y-108575000D03*
X187800000Y-110225000D03*
X187600000Y-90875000D03*
X187600000Y-92525000D03*
D12*
X116325000Y-65000000D03*
X114675000Y-65000000D03*
M02*
