M48
; DRILL file {KiCad 7.0.8} date Wed Dec 11 20:13:07 2024
; FORMAT={-:-/ absolute / metric / decimal}
; #@! TF.CreationDate,2024-12-11T20:13:07-06:00
; #@! TF.GenerationSoftware,Kicad,Pcbnew,7.0.8
; #@! TF.FileFunction,Plated,1,4,PTH
FMAT,2
METRIC
; #@! TA.AperFunction,Plated,PTH,ViaDrill
T1C0.400
; #@! TA.AperFunction,Plated,PTH,ComponentDrill
T2C0.991
; #@! TA.AperFunction,Plated,PTH,ComponentDrill
T3C1.000
; #@! TA.AperFunction,Plated,PTH,ComponentDrill
T4C1.020
; #@! TA.AperFunction,Plated,PTH,ComponentDrill
T5C1.100
; #@! TA.AperFunction,Plated,PTH,ComponentDrill
T6C1.143
; #@! TA.AperFunction,Plated,PTH,ComponentDrill
T7C1.800
%
G90
G05
T1
X64.375Y-69.775
X64.375Y-84.775
X64.375Y-89.775
X64.375Y-99.775
X64.375Y-104.775
X64.375Y-109.775
X69.375Y-59.775
X69.375Y-64.775
X69.375Y-69.775
X69.375Y-84.775
X69.375Y-89.775
X69.375Y-99.775
X69.375Y-104.775
X69.375Y-109.775
X69.375Y-114.775
X74.375Y-54.775
X74.375Y-59.775
X74.375Y-99.775
X74.375Y-104.775
X74.375Y-109.775
X74.375Y-114.775
X74.375Y-119.775
X79.375Y-54.775
X79.375Y-99.775
X79.375Y-104.775
X79.375Y-109.775
X79.375Y-119.775
X79.375Y-124.775
X84.375Y-54.775
X84.375Y-59.775
X84.375Y-64.775
X84.375Y-99.775
X84.375Y-119.775
X84.375Y-124.775
X86.6Y-76.4
X88.9Y-81.7
X89.375Y-54.775
X89.375Y-59.775
X89.375Y-64.775
X89.375Y-94.775
X89.375Y-99.775
X89.375Y-104.775
X89.375Y-109.775
X89.375Y-119.775
X89.375Y-124.775
X94.375Y-54.775
X94.375Y-59.775
X94.375Y-99.775
X94.375Y-104.775
X94.375Y-114.775
X94.375Y-119.775
X94.375Y-124.775
X99.375Y-54.775
X99.375Y-84.775
X99.375Y-89.775
X99.375Y-94.775
X99.375Y-99.775
X99.375Y-109.775
X99.375Y-114.775
X99.375Y-119.775
X99.375Y-124.775
X102.0Y-78.7
X104.375Y-54.775
X104.375Y-59.775
X104.375Y-64.775
X104.375Y-69.775
X104.375Y-89.775
X104.375Y-94.775
X104.375Y-99.775
X104.375Y-119.775
X104.375Y-124.775
X108.4Y-84.1
X109.0Y-87.6
X109.3Y-80.5
X109.375Y-54.775
X109.375Y-59.775
X109.375Y-69.775
X109.375Y-89.775
X109.375Y-94.775
X109.375Y-104.775
X109.375Y-109.775
X109.375Y-114.775
X109.375Y-119.775
X109.375Y-124.775
X110.512Y-82.288
X112.1Y-84.0
X112.3Y-87.6
X114.375Y-54.775
X114.375Y-59.775
X114.375Y-99.775
X114.375Y-104.775
X114.375Y-109.775
X114.375Y-114.775
X114.375Y-119.775
X114.375Y-124.775
X119.375Y-54.775
X119.375Y-69.775
X119.375Y-74.775
X119.375Y-94.775
X119.375Y-109.775
X119.375Y-114.775
X119.375Y-119.775
X119.375Y-124.775
X124.375Y-54.775
X124.375Y-59.775
X124.375Y-64.775
X124.375Y-69.775
X124.375Y-74.775
X124.375Y-94.775
X124.375Y-99.775
X124.375Y-119.775
X124.375Y-124.775
X129.375Y-54.775
X129.375Y-59.775
X129.375Y-64.775
X129.375Y-69.775
X129.375Y-99.775
X129.375Y-104.775
X129.375Y-114.775
X129.375Y-119.775
X129.375Y-124.775
X134.375Y-54.775
X134.375Y-59.775
X134.375Y-64.775
X134.375Y-69.775
X134.375Y-99.775
X134.375Y-104.775
X134.375Y-114.775
X134.375Y-119.775
X134.375Y-124.775
X139.375Y-54.775
X139.375Y-59.775
X139.375Y-64.775
X139.375Y-69.775
X139.375Y-99.775
X139.375Y-104.775
X139.375Y-114.775
X139.375Y-119.775
X139.375Y-124.775
X142.2Y-85.8
X144.375Y-54.775
X144.375Y-69.775
X144.375Y-104.775
X144.375Y-119.775
X144.375Y-124.775
X147.5Y-91.5
X148.6Y-94.3
X149.375Y-54.775
X149.375Y-69.775
X149.375Y-74.775
X149.375Y-99.775
X149.375Y-104.775
X149.375Y-109.775
X149.375Y-114.775
X149.375Y-119.775
X149.375Y-124.775
X151.0Y-68.2
X152.1Y-101.1
X152.2Y-89.8
X152.7Y-57.7
X154.3Y-65.6
X154.375Y-54.775
X154.375Y-69.775
X154.375Y-99.775
X154.375Y-104.775
X154.375Y-109.775
X154.375Y-114.775
X154.375Y-119.775
X154.375Y-124.775
X156.1Y-61.6
X159.375Y-109.775
X159.375Y-114.775
X159.375Y-119.775
X159.375Y-124.775
X164.2Y-121.0
X164.375Y-54.775
X164.375Y-59.775
X164.375Y-64.775
X164.375Y-69.775
X164.375Y-74.775
X164.375Y-79.775
X164.375Y-84.775
X164.375Y-89.775
X164.375Y-94.775
X164.375Y-99.775
X164.375Y-104.775
X165.9Y-109.2
X169.375Y-54.775
X169.375Y-64.775
X169.375Y-69.775
X169.375Y-74.775
X169.375Y-79.775
X169.375Y-84.775
X169.375Y-89.775
X169.375Y-94.775
X169.375Y-99.775
X169.375Y-109.775
X174.375Y-64.775
X174.375Y-69.775
X174.375Y-74.775
X174.375Y-79.775
X174.375Y-84.775
X174.375Y-89.775
X174.375Y-94.775
X174.375Y-99.775
X174.375Y-124.775
X179.375Y-54.775
X179.375Y-119.775
X179.375Y-124.775
X184.375Y-54.775
X184.375Y-64.775
X184.375Y-69.775
X184.375Y-74.775
X184.375Y-79.775
X184.375Y-89.775
X184.375Y-109.775
X184.375Y-114.775
X184.375Y-119.775
X184.375Y-124.775
X189.375Y-64.775
X189.375Y-69.775
X189.375Y-74.775
X189.375Y-79.775
X189.375Y-84.775
X189.375Y-89.775
X189.375Y-94.775
X189.375Y-99.775
X189.375Y-104.775
X189.375Y-119.775
X189.375Y-124.775
X194.375Y-54.775
X194.375Y-59.775
X194.375Y-74.775
X194.375Y-89.775
X194.375Y-119.775
X194.375Y-124.775
X199.375Y-54.775
X199.375Y-74.775
X199.375Y-99.775
X199.375Y-104.775
X199.375Y-114.775
X199.375Y-119.775
X204.375Y-64.775
X204.375Y-69.775
X204.375Y-74.775
X204.375Y-79.775
X204.375Y-84.775
X204.375Y-89.775
X204.375Y-94.775
X204.375Y-99.775
X204.375Y-104.775
X204.375Y-109.775
T2
X65.564Y-75.177
X65.564Y-77.717
X65.564Y-80.257
X65.564Y-91.76
X65.564Y-94.3
X65.564Y-96.84
T3
X78.135Y-61.45
X78.77Y-59.42
X80.765Y-115.27
X80.8Y-59.42
X81.4Y-117.3
X81.435Y-61.45
X83.43Y-117.3
X84.065Y-115.27
X98.175Y-61.4
X98.81Y-59.37
X100.84Y-59.37
X101.335Y-115.3
X101.475Y-61.4
X101.97Y-117.33
X104.0Y-117.33
X104.635Y-115.3
X118.175Y-61.4
X118.81Y-59.37
X120.84Y-59.37
X121.335Y-115.3
X121.475Y-61.4
X121.97Y-117.33
X124.0Y-117.33
X124.635Y-115.3
X129.87Y-95.155
X129.87Y-97.185
X129.887Y-76.248
X129.887Y-78.278
X131.9Y-94.52
X131.9Y-97.82
X131.917Y-75.612
X131.917Y-78.912
X141.3Y-61.4
X141.385Y-115.3
X141.935Y-59.37
X142.02Y-117.33
X143.965Y-59.37
X144.05Y-117.33
X144.6Y-61.4
X144.685Y-115.3
X192.4Y-91.0
X192.4Y-94.3
X192.5Y-109.7
X192.5Y-113.0
X194.43Y-91.635
X194.43Y-93.665
X194.53Y-110.335
X194.53Y-112.365
T4
X161.6Y-57.07
X161.6Y-59.61
X161.6Y-62.15
X161.6Y-64.69
X161.6Y-67.23
X161.6Y-69.77
X161.6Y-72.31
X161.6Y-74.85
X161.6Y-77.39
X161.6Y-79.93
X161.6Y-82.47
X161.6Y-85.01
X161.6Y-87.55
X161.6Y-90.09
X161.6Y-92.63
X161.6Y-95.17
X161.6Y-97.71
X161.6Y-100.25
X161.6Y-102.79
X161.6Y-105.33
X167.95Y-105.1
X170.49Y-105.1
X173.03Y-105.1
X179.38Y-57.07
X179.38Y-59.61
X179.38Y-62.15
X179.38Y-64.69
X179.38Y-67.23
X179.38Y-69.77
X179.38Y-72.31
X179.38Y-74.85
X179.38Y-77.39
X179.38Y-79.93
X179.38Y-82.47
X179.38Y-85.01
X179.38Y-87.55
X179.38Y-90.09
X179.38Y-92.63
X179.38Y-95.17
X179.38Y-97.71
X179.38Y-100.25
X179.38Y-102.79
X179.38Y-105.33
T5
X186.52Y-54.8
X196.68Y-54.8
T6
X101.449Y-91.9
X103.989Y-91.9
X106.529Y-91.9
X192.5Y-70.5
X195.04Y-70.5
X197.58Y-70.5
T7
X80.0Y-94.8
X85.0Y-94.8
X192.6Y-78.6
X197.6Y-78.6
T0
M30
