%TF.GenerationSoftware,KiCad,Pcbnew,7.0.8*%
%TF.CreationDate,2024-12-11T20:14:41-06:00*%
%TF.ProjectId,LEC,4c45432e-6b69-4636-9164-5f7063625858,rev?*%
%TF.SameCoordinates,Original*%
%TF.FileFunction,Drillmap*%
%TF.FilePolarity,Positive*%
%FSLAX45Y45*%
G04 Gerber Fmt 4.5, Leading zero omitted, Abs format (unit mm)*
G04 Created by KiCad (PCBNEW 7.0.8) date 2024-12-11 20:14:41*
%MOMM*%
%LPD*%
G01*
G04 APERTURE LIST*
%ADD10C,0.050000*%
%ADD11C,0.200000*%
%ADD12C,0.150000*%
%ADD13C,0.180000*%
%ADD14C,0.320000*%
G04 APERTURE END LIST*
D10*
X21230000Y-12040000D02*
X21230000Y-5650000D01*
X6600000Y-12700000D02*
X20570000Y-12700000D01*
X6600000Y-4980000D02*
G75*
G03*
X5940000Y-5640000I0J-660000D01*
G01*
X20560000Y-4980000D02*
X6600000Y-4980000D01*
X5940000Y-12040000D02*
G75*
G03*
X6600000Y-12700000I660000J0D01*
G01*
X5940000Y-5640000D02*
X5940000Y-12040000D01*
X20570000Y-12700000D02*
G75*
G03*
X21230000Y-12040000I0J660000D01*
G01*
X21230000Y-5650000D02*
G75*
G03*
X20560000Y-4980000I-670000J0D01*
G01*
D11*
D12*
X16731500Y-5948000D02*
X16881500Y-6098000D01*
X16881500Y-5948000D02*
X16731500Y-6098000D01*
X17216500Y-5948000D02*
X17366500Y-6098000D01*
X17366500Y-5948000D02*
X17216500Y-6098000D01*
D13*
X16866500Y-5720000D02*
G75*
G03*
X16866500Y-5720000I-90000J0D01*
G01*
X17411500Y-5720000D02*
G75*
G03*
X17411500Y-5720000I-90000J0D01*
G01*
D14*
X6600000Y-5490000D02*
X6600000Y-5810000D01*
X6440000Y-5650000D02*
X6760000Y-5650000D01*
X6600000Y-11880000D02*
X6600000Y-12200000D01*
X6440000Y-12040000D02*
X6760000Y-12040000D01*
X20560000Y-5490000D02*
X20560000Y-5810000D01*
X20400000Y-5650000D02*
X20720000Y-5650000D01*
X20570000Y-11880000D02*
X20570000Y-12200000D01*
X20410000Y-12040000D02*
X20730000Y-12040000D01*
D11*
X6198277Y-13013984D02*
X6198277Y-12813984D01*
X6198277Y-12813984D02*
X6245896Y-12813984D01*
X6245896Y-12813984D02*
X6274467Y-12823508D01*
X6274467Y-12823508D02*
X6293515Y-12842555D01*
X6293515Y-12842555D02*
X6303039Y-12861603D01*
X6303039Y-12861603D02*
X6312562Y-12899698D01*
X6312562Y-12899698D02*
X6312562Y-12928269D01*
X6312562Y-12928269D02*
X6303039Y-12966365D01*
X6303039Y-12966365D02*
X6293515Y-12985412D01*
X6293515Y-12985412D02*
X6274467Y-13004460D01*
X6274467Y-13004460D02*
X6245896Y-13013984D01*
X6245896Y-13013984D02*
X6198277Y-13013984D01*
X6398277Y-13013984D02*
X6398277Y-12880650D01*
X6398277Y-12918746D02*
X6407801Y-12899698D01*
X6407801Y-12899698D02*
X6417324Y-12890174D01*
X6417324Y-12890174D02*
X6436372Y-12880650D01*
X6436372Y-12880650D02*
X6455420Y-12880650D01*
X6522086Y-13013984D02*
X6522086Y-12880650D01*
X6522086Y-12813984D02*
X6512562Y-12823508D01*
X6512562Y-12823508D02*
X6522086Y-12833031D01*
X6522086Y-12833031D02*
X6531610Y-12823508D01*
X6531610Y-12823508D02*
X6522086Y-12813984D01*
X6522086Y-12813984D02*
X6522086Y-12833031D01*
X6645896Y-13013984D02*
X6626848Y-13004460D01*
X6626848Y-13004460D02*
X6617324Y-12985412D01*
X6617324Y-12985412D02*
X6617324Y-12813984D01*
X6750658Y-13013984D02*
X6731610Y-13004460D01*
X6731610Y-13004460D02*
X6722086Y-12985412D01*
X6722086Y-12985412D02*
X6722086Y-12813984D01*
X6979229Y-13013984D02*
X6979229Y-12813984D01*
X6979229Y-12813984D02*
X7045896Y-12956841D01*
X7045896Y-12956841D02*
X7112562Y-12813984D01*
X7112562Y-12813984D02*
X7112562Y-13013984D01*
X7293515Y-13013984D02*
X7293515Y-12909222D01*
X7293515Y-12909222D02*
X7283991Y-12890174D01*
X7283991Y-12890174D02*
X7264943Y-12880650D01*
X7264943Y-12880650D02*
X7226848Y-12880650D01*
X7226848Y-12880650D02*
X7207801Y-12890174D01*
X7293515Y-13004460D02*
X7274467Y-13013984D01*
X7274467Y-13013984D02*
X7226848Y-13013984D01*
X7226848Y-13013984D02*
X7207801Y-13004460D01*
X7207801Y-13004460D02*
X7198277Y-12985412D01*
X7198277Y-12985412D02*
X7198277Y-12966365D01*
X7198277Y-12966365D02*
X7207801Y-12947317D01*
X7207801Y-12947317D02*
X7226848Y-12937793D01*
X7226848Y-12937793D02*
X7274467Y-12937793D01*
X7274467Y-12937793D02*
X7293515Y-12928269D01*
X7388753Y-12880650D02*
X7388753Y-13080650D01*
X7388753Y-12890174D02*
X7407801Y-12880650D01*
X7407801Y-12880650D02*
X7445896Y-12880650D01*
X7445896Y-12880650D02*
X7464943Y-12890174D01*
X7464943Y-12890174D02*
X7474467Y-12899698D01*
X7474467Y-12899698D02*
X7483991Y-12918746D01*
X7483991Y-12918746D02*
X7483991Y-12975888D01*
X7483991Y-12975888D02*
X7474467Y-12994936D01*
X7474467Y-12994936D02*
X7464943Y-13004460D01*
X7464943Y-13004460D02*
X7445896Y-13013984D01*
X7445896Y-13013984D02*
X7407801Y-13013984D01*
X7407801Y-13013984D02*
X7388753Y-13004460D01*
X7569705Y-12994936D02*
X7579229Y-13004460D01*
X7579229Y-13004460D02*
X7569705Y-13013984D01*
X7569705Y-13013984D02*
X7560182Y-13004460D01*
X7560182Y-13004460D02*
X7569705Y-12994936D01*
X7569705Y-12994936D02*
X7569705Y-13013984D01*
X7569705Y-12890174D02*
X7579229Y-12899698D01*
X7579229Y-12899698D02*
X7569705Y-12909222D01*
X7569705Y-12909222D02*
X7560182Y-12899698D01*
X7560182Y-12899698D02*
X7569705Y-12890174D01*
X7569705Y-12890174D02*
X7569705Y-12909222D01*
D12*
X5787500Y-13267500D02*
X5937500Y-13417500D01*
X5937500Y-13267500D02*
X5787500Y-13417500D01*
D11*
X6303039Y-13433984D02*
X6188753Y-13433984D01*
X6245896Y-13433984D02*
X6245896Y-13233984D01*
X6245896Y-13233984D02*
X6226848Y-13262555D01*
X6226848Y-13262555D02*
X6207801Y-13281603D01*
X6207801Y-13281603D02*
X6188753Y-13291127D01*
X6388753Y-13414936D02*
X6398277Y-13424460D01*
X6398277Y-13424460D02*
X6388753Y-13433984D01*
X6388753Y-13433984D02*
X6379229Y-13424460D01*
X6379229Y-13424460D02*
X6388753Y-13414936D01*
X6388753Y-13414936D02*
X6388753Y-13433984D01*
X6579229Y-13233984D02*
X6483991Y-13233984D01*
X6483991Y-13233984D02*
X6474467Y-13329222D01*
X6474467Y-13329222D02*
X6483991Y-13319698D01*
X6483991Y-13319698D02*
X6503039Y-13310174D01*
X6503039Y-13310174D02*
X6550658Y-13310174D01*
X6550658Y-13310174D02*
X6569705Y-13319698D01*
X6569705Y-13319698D02*
X6579229Y-13329222D01*
X6579229Y-13329222D02*
X6588753Y-13348269D01*
X6588753Y-13348269D02*
X6588753Y-13395888D01*
X6588753Y-13395888D02*
X6579229Y-13414936D01*
X6579229Y-13414936D02*
X6569705Y-13424460D01*
X6569705Y-13424460D02*
X6550658Y-13433984D01*
X6550658Y-13433984D02*
X6503039Y-13433984D01*
X6503039Y-13433984D02*
X6483991Y-13424460D01*
X6483991Y-13424460D02*
X6474467Y-13414936D01*
X6712562Y-13233984D02*
X6731610Y-13233984D01*
X6731610Y-13233984D02*
X6750658Y-13243508D01*
X6750658Y-13243508D02*
X6760182Y-13253031D01*
X6760182Y-13253031D02*
X6769705Y-13272079D01*
X6769705Y-13272079D02*
X6779229Y-13310174D01*
X6779229Y-13310174D02*
X6779229Y-13357793D01*
X6779229Y-13357793D02*
X6769705Y-13395888D01*
X6769705Y-13395888D02*
X6760182Y-13414936D01*
X6760182Y-13414936D02*
X6750658Y-13424460D01*
X6750658Y-13424460D02*
X6731610Y-13433984D01*
X6731610Y-13433984D02*
X6712562Y-13433984D01*
X6712562Y-13433984D02*
X6693515Y-13424460D01*
X6693515Y-13424460D02*
X6683991Y-13414936D01*
X6683991Y-13414936D02*
X6674467Y-13395888D01*
X6674467Y-13395888D02*
X6664943Y-13357793D01*
X6664943Y-13357793D02*
X6664943Y-13310174D01*
X6664943Y-13310174D02*
X6674467Y-13272079D01*
X6674467Y-13272079D02*
X6683991Y-13253031D01*
X6683991Y-13253031D02*
X6693515Y-13243508D01*
X6693515Y-13243508D02*
X6712562Y-13233984D01*
X6903039Y-13233984D02*
X6922086Y-13233984D01*
X6922086Y-13233984D02*
X6941134Y-13243508D01*
X6941134Y-13243508D02*
X6950658Y-13253031D01*
X6950658Y-13253031D02*
X6960182Y-13272079D01*
X6960182Y-13272079D02*
X6969705Y-13310174D01*
X6969705Y-13310174D02*
X6969705Y-13357793D01*
X6969705Y-13357793D02*
X6960182Y-13395888D01*
X6960182Y-13395888D02*
X6950658Y-13414936D01*
X6950658Y-13414936D02*
X6941134Y-13424460D01*
X6941134Y-13424460D02*
X6922086Y-13433984D01*
X6922086Y-13433984D02*
X6903039Y-13433984D01*
X6903039Y-13433984D02*
X6883991Y-13424460D01*
X6883991Y-13424460D02*
X6874467Y-13414936D01*
X6874467Y-13414936D02*
X6864943Y-13395888D01*
X6864943Y-13395888D02*
X6855420Y-13357793D01*
X6855420Y-13357793D02*
X6855420Y-13310174D01*
X6855420Y-13310174D02*
X6864943Y-13272079D01*
X6864943Y-13272079D02*
X6874467Y-13253031D01*
X6874467Y-13253031D02*
X6883991Y-13243508D01*
X6883991Y-13243508D02*
X6903039Y-13233984D01*
X7055420Y-13433984D02*
X7055420Y-13300650D01*
X7055420Y-13319698D02*
X7064943Y-13310174D01*
X7064943Y-13310174D02*
X7083991Y-13300650D01*
X7083991Y-13300650D02*
X7112563Y-13300650D01*
X7112563Y-13300650D02*
X7131610Y-13310174D01*
X7131610Y-13310174D02*
X7141134Y-13329222D01*
X7141134Y-13329222D02*
X7141134Y-13433984D01*
X7141134Y-13329222D02*
X7150658Y-13310174D01*
X7150658Y-13310174D02*
X7169705Y-13300650D01*
X7169705Y-13300650D02*
X7198277Y-13300650D01*
X7198277Y-13300650D02*
X7217324Y-13310174D01*
X7217324Y-13310174D02*
X7226848Y-13329222D01*
X7226848Y-13329222D02*
X7226848Y-13433984D01*
X7322086Y-13433984D02*
X7322086Y-13300650D01*
X7322086Y-13319698D02*
X7331610Y-13310174D01*
X7331610Y-13310174D02*
X7350658Y-13300650D01*
X7350658Y-13300650D02*
X7379229Y-13300650D01*
X7379229Y-13300650D02*
X7398277Y-13310174D01*
X7398277Y-13310174D02*
X7407801Y-13329222D01*
X7407801Y-13329222D02*
X7407801Y-13433984D01*
X7407801Y-13329222D02*
X7417324Y-13310174D01*
X7417324Y-13310174D02*
X7436372Y-13300650D01*
X7436372Y-13300650D02*
X7464943Y-13300650D01*
X7464943Y-13300650D02*
X7483991Y-13310174D01*
X7483991Y-13310174D02*
X7493515Y-13329222D01*
X7493515Y-13329222D02*
X7493515Y-13433984D01*
X7883991Y-13224460D02*
X7712563Y-13481603D01*
X8141134Y-13233984D02*
X8160182Y-13233984D01*
X8160182Y-13233984D02*
X8179229Y-13243508D01*
X8179229Y-13243508D02*
X8188753Y-13253031D01*
X8188753Y-13253031D02*
X8198277Y-13272079D01*
X8198277Y-13272079D02*
X8207801Y-13310174D01*
X8207801Y-13310174D02*
X8207801Y-13357793D01*
X8207801Y-13357793D02*
X8198277Y-13395888D01*
X8198277Y-13395888D02*
X8188753Y-13414936D01*
X8188753Y-13414936D02*
X8179229Y-13424460D01*
X8179229Y-13424460D02*
X8160182Y-13433984D01*
X8160182Y-13433984D02*
X8141134Y-13433984D01*
X8141134Y-13433984D02*
X8122086Y-13424460D01*
X8122086Y-13424460D02*
X8112563Y-13414936D01*
X8112563Y-13414936D02*
X8103039Y-13395888D01*
X8103039Y-13395888D02*
X8093515Y-13357793D01*
X8093515Y-13357793D02*
X8093515Y-13310174D01*
X8093515Y-13310174D02*
X8103039Y-13272079D01*
X8103039Y-13272079D02*
X8112563Y-13253031D01*
X8112563Y-13253031D02*
X8122086Y-13243508D01*
X8122086Y-13243508D02*
X8141134Y-13233984D01*
X8293515Y-13414936D02*
X8303039Y-13424460D01*
X8303039Y-13424460D02*
X8293515Y-13433984D01*
X8293515Y-13433984D02*
X8283991Y-13424460D01*
X8283991Y-13424460D02*
X8293515Y-13414936D01*
X8293515Y-13414936D02*
X8293515Y-13433984D01*
X8426848Y-13233984D02*
X8445896Y-13233984D01*
X8445896Y-13233984D02*
X8464944Y-13243508D01*
X8464944Y-13243508D02*
X8474468Y-13253031D01*
X8474468Y-13253031D02*
X8483991Y-13272079D01*
X8483991Y-13272079D02*
X8493515Y-13310174D01*
X8493515Y-13310174D02*
X8493515Y-13357793D01*
X8493515Y-13357793D02*
X8483991Y-13395888D01*
X8483991Y-13395888D02*
X8474468Y-13414936D01*
X8474468Y-13414936D02*
X8464944Y-13424460D01*
X8464944Y-13424460D02*
X8445896Y-13433984D01*
X8445896Y-13433984D02*
X8426848Y-13433984D01*
X8426848Y-13433984D02*
X8407801Y-13424460D01*
X8407801Y-13424460D02*
X8398277Y-13414936D01*
X8398277Y-13414936D02*
X8388753Y-13395888D01*
X8388753Y-13395888D02*
X8379229Y-13357793D01*
X8379229Y-13357793D02*
X8379229Y-13310174D01*
X8379229Y-13310174D02*
X8388753Y-13272079D01*
X8388753Y-13272079D02*
X8398277Y-13253031D01*
X8398277Y-13253031D02*
X8407801Y-13243508D01*
X8407801Y-13243508D02*
X8426848Y-13233984D01*
X8674468Y-13233984D02*
X8579229Y-13233984D01*
X8579229Y-13233984D02*
X8569706Y-13329222D01*
X8569706Y-13329222D02*
X8579229Y-13319698D01*
X8579229Y-13319698D02*
X8598277Y-13310174D01*
X8598277Y-13310174D02*
X8645896Y-13310174D01*
X8645896Y-13310174D02*
X8664944Y-13319698D01*
X8664944Y-13319698D02*
X8674468Y-13329222D01*
X8674468Y-13329222D02*
X8683991Y-13348269D01*
X8683991Y-13348269D02*
X8683991Y-13395888D01*
X8683991Y-13395888D02*
X8674468Y-13414936D01*
X8674468Y-13414936D02*
X8664944Y-13424460D01*
X8664944Y-13424460D02*
X8645896Y-13433984D01*
X8645896Y-13433984D02*
X8598277Y-13433984D01*
X8598277Y-13433984D02*
X8579229Y-13424460D01*
X8579229Y-13424460D02*
X8569706Y-13414936D01*
X8779229Y-13433984D02*
X8817325Y-13433984D01*
X8817325Y-13433984D02*
X8836372Y-13424460D01*
X8836372Y-13424460D02*
X8845896Y-13414936D01*
X8845896Y-13414936D02*
X8864944Y-13386365D01*
X8864944Y-13386365D02*
X8874468Y-13348269D01*
X8874468Y-13348269D02*
X8874468Y-13272079D01*
X8874468Y-13272079D02*
X8864944Y-13253031D01*
X8864944Y-13253031D02*
X8855420Y-13243508D01*
X8855420Y-13243508D02*
X8836372Y-13233984D01*
X8836372Y-13233984D02*
X8798277Y-13233984D01*
X8798277Y-13233984D02*
X8779229Y-13243508D01*
X8779229Y-13243508D02*
X8769706Y-13253031D01*
X8769706Y-13253031D02*
X8760182Y-13272079D01*
X8760182Y-13272079D02*
X8760182Y-13319698D01*
X8760182Y-13319698D02*
X8769706Y-13338746D01*
X8769706Y-13338746D02*
X8779229Y-13348269D01*
X8779229Y-13348269D02*
X8798277Y-13357793D01*
X8798277Y-13357793D02*
X8836372Y-13357793D01*
X8836372Y-13357793D02*
X8855420Y-13348269D01*
X8855420Y-13348269D02*
X8864944Y-13338746D01*
X8864944Y-13338746D02*
X8874468Y-13319698D01*
X9064944Y-13433984D02*
X8950658Y-13433984D01*
X9007801Y-13433984D02*
X9007801Y-13233984D01*
X9007801Y-13233984D02*
X8988753Y-13262555D01*
X8988753Y-13262555D02*
X8969706Y-13281603D01*
X8969706Y-13281603D02*
X8950658Y-13291127D01*
X9141134Y-13233984D02*
X9141134Y-13272079D01*
X9217325Y-13233984D02*
X9217325Y-13272079D01*
X9512563Y-13510174D02*
X9503039Y-13500650D01*
X9503039Y-13500650D02*
X9483991Y-13472079D01*
X9483991Y-13472079D02*
X9474468Y-13453031D01*
X9474468Y-13453031D02*
X9464944Y-13424460D01*
X9464944Y-13424460D02*
X9455420Y-13376841D01*
X9455420Y-13376841D02*
X9455420Y-13338746D01*
X9455420Y-13338746D02*
X9464944Y-13291127D01*
X9464944Y-13291127D02*
X9474468Y-13262555D01*
X9474468Y-13262555D02*
X9483991Y-13243508D01*
X9483991Y-13243508D02*
X9503039Y-13214936D01*
X9503039Y-13214936D02*
X9512563Y-13205412D01*
X9579230Y-13253031D02*
X9588753Y-13243508D01*
X9588753Y-13243508D02*
X9607801Y-13233984D01*
X9607801Y-13233984D02*
X9655420Y-13233984D01*
X9655420Y-13233984D02*
X9674468Y-13243508D01*
X9674468Y-13243508D02*
X9683991Y-13253031D01*
X9683991Y-13253031D02*
X9693515Y-13272079D01*
X9693515Y-13272079D02*
X9693515Y-13291127D01*
X9693515Y-13291127D02*
X9683991Y-13319698D01*
X9683991Y-13319698D02*
X9569706Y-13433984D01*
X9569706Y-13433984D02*
X9693515Y-13433984D01*
X9931611Y-13433984D02*
X9931611Y-13233984D01*
X10017325Y-13433984D02*
X10017325Y-13329222D01*
X10017325Y-13329222D02*
X10007801Y-13310174D01*
X10007801Y-13310174D02*
X9988753Y-13300650D01*
X9988753Y-13300650D02*
X9960182Y-13300650D01*
X9960182Y-13300650D02*
X9941134Y-13310174D01*
X9941134Y-13310174D02*
X9931611Y-13319698D01*
X10141134Y-13433984D02*
X10122087Y-13424460D01*
X10122087Y-13424460D02*
X10112563Y-13414936D01*
X10112563Y-13414936D02*
X10103039Y-13395888D01*
X10103039Y-13395888D02*
X10103039Y-13338746D01*
X10103039Y-13338746D02*
X10112563Y-13319698D01*
X10112563Y-13319698D02*
X10122087Y-13310174D01*
X10122087Y-13310174D02*
X10141134Y-13300650D01*
X10141134Y-13300650D02*
X10169706Y-13300650D01*
X10169706Y-13300650D02*
X10188753Y-13310174D01*
X10188753Y-13310174D02*
X10198277Y-13319698D01*
X10198277Y-13319698D02*
X10207801Y-13338746D01*
X10207801Y-13338746D02*
X10207801Y-13395888D01*
X10207801Y-13395888D02*
X10198277Y-13414936D01*
X10198277Y-13414936D02*
X10188753Y-13424460D01*
X10188753Y-13424460D02*
X10169706Y-13433984D01*
X10169706Y-13433984D02*
X10141134Y-13433984D01*
X10322087Y-13433984D02*
X10303039Y-13424460D01*
X10303039Y-13424460D02*
X10293515Y-13405412D01*
X10293515Y-13405412D02*
X10293515Y-13233984D01*
X10474468Y-13424460D02*
X10455420Y-13433984D01*
X10455420Y-13433984D02*
X10417325Y-13433984D01*
X10417325Y-13433984D02*
X10398277Y-13424460D01*
X10398277Y-13424460D02*
X10388753Y-13405412D01*
X10388753Y-13405412D02*
X10388753Y-13329222D01*
X10388753Y-13329222D02*
X10398277Y-13310174D01*
X10398277Y-13310174D02*
X10417325Y-13300650D01*
X10417325Y-13300650D02*
X10455420Y-13300650D01*
X10455420Y-13300650D02*
X10474468Y-13310174D01*
X10474468Y-13310174D02*
X10483992Y-13329222D01*
X10483992Y-13329222D02*
X10483992Y-13348269D01*
X10483992Y-13348269D02*
X10388753Y-13367317D01*
X10560182Y-13424460D02*
X10579230Y-13433984D01*
X10579230Y-13433984D02*
X10617325Y-13433984D01*
X10617325Y-13433984D02*
X10636373Y-13424460D01*
X10636373Y-13424460D02*
X10645896Y-13405412D01*
X10645896Y-13405412D02*
X10645896Y-13395888D01*
X10645896Y-13395888D02*
X10636373Y-13376841D01*
X10636373Y-13376841D02*
X10617325Y-13367317D01*
X10617325Y-13367317D02*
X10588753Y-13367317D01*
X10588753Y-13367317D02*
X10569706Y-13357793D01*
X10569706Y-13357793D02*
X10560182Y-13338746D01*
X10560182Y-13338746D02*
X10560182Y-13329222D01*
X10560182Y-13329222D02*
X10569706Y-13310174D01*
X10569706Y-13310174D02*
X10588753Y-13300650D01*
X10588753Y-13300650D02*
X10617325Y-13300650D01*
X10617325Y-13300650D02*
X10636373Y-13310174D01*
X10712563Y-13510174D02*
X10722087Y-13500650D01*
X10722087Y-13500650D02*
X10741134Y-13472079D01*
X10741134Y-13472079D02*
X10750658Y-13453031D01*
X10750658Y-13453031D02*
X10760182Y-13424460D01*
X10760182Y-13424460D02*
X10769706Y-13376841D01*
X10769706Y-13376841D02*
X10769706Y-13338746D01*
X10769706Y-13338746D02*
X10760182Y-13291127D01*
X10760182Y-13291127D02*
X10750658Y-13262555D01*
X10750658Y-13262555D02*
X10741134Y-13243508D01*
X10741134Y-13243508D02*
X10722087Y-13214936D01*
X10722087Y-13214936D02*
X10712563Y-13205412D01*
X11074468Y-13510174D02*
X11064944Y-13500650D01*
X11064944Y-13500650D02*
X11045896Y-13472079D01*
X11045896Y-13472079D02*
X11036373Y-13453031D01*
X11036373Y-13453031D02*
X11026849Y-13424460D01*
X11026849Y-13424460D02*
X11017325Y-13376841D01*
X11017325Y-13376841D02*
X11017325Y-13338746D01*
X11017325Y-13338746D02*
X11026849Y-13291127D01*
X11026849Y-13291127D02*
X11036373Y-13262555D01*
X11036373Y-13262555D02*
X11045896Y-13243508D01*
X11045896Y-13243508D02*
X11064944Y-13214936D01*
X11064944Y-13214936D02*
X11074468Y-13205412D01*
X11150658Y-13300650D02*
X11150658Y-13433984D01*
X11150658Y-13319698D02*
X11160182Y-13310174D01*
X11160182Y-13310174D02*
X11179230Y-13300650D01*
X11179230Y-13300650D02*
X11207801Y-13300650D01*
X11207801Y-13300650D02*
X11226849Y-13310174D01*
X11226849Y-13310174D02*
X11236372Y-13329222D01*
X11236372Y-13329222D02*
X11236372Y-13433984D01*
X11360182Y-13433984D02*
X11341134Y-13424460D01*
X11341134Y-13424460D02*
X11331611Y-13414936D01*
X11331611Y-13414936D02*
X11322087Y-13395888D01*
X11322087Y-13395888D02*
X11322087Y-13338746D01*
X11322087Y-13338746D02*
X11331611Y-13319698D01*
X11331611Y-13319698D02*
X11341134Y-13310174D01*
X11341134Y-13310174D02*
X11360182Y-13300650D01*
X11360182Y-13300650D02*
X11388753Y-13300650D01*
X11388753Y-13300650D02*
X11407801Y-13310174D01*
X11407801Y-13310174D02*
X11417325Y-13319698D01*
X11417325Y-13319698D02*
X11426849Y-13338746D01*
X11426849Y-13338746D02*
X11426849Y-13395888D01*
X11426849Y-13395888D02*
X11417325Y-13414936D01*
X11417325Y-13414936D02*
X11407801Y-13424460D01*
X11407801Y-13424460D02*
X11388753Y-13433984D01*
X11388753Y-13433984D02*
X11360182Y-13433984D01*
X11483992Y-13300650D02*
X11560182Y-13300650D01*
X11512563Y-13233984D02*
X11512563Y-13405412D01*
X11512563Y-13405412D02*
X11522087Y-13424460D01*
X11522087Y-13424460D02*
X11541134Y-13433984D01*
X11541134Y-13433984D02*
X11560182Y-13433984D01*
X11779230Y-13300650D02*
X11779230Y-13500650D01*
X11779230Y-13310174D02*
X11798277Y-13300650D01*
X11798277Y-13300650D02*
X11836373Y-13300650D01*
X11836373Y-13300650D02*
X11855420Y-13310174D01*
X11855420Y-13310174D02*
X11864944Y-13319698D01*
X11864944Y-13319698D02*
X11874468Y-13338746D01*
X11874468Y-13338746D02*
X11874468Y-13395888D01*
X11874468Y-13395888D02*
X11864944Y-13414936D01*
X11864944Y-13414936D02*
X11855420Y-13424460D01*
X11855420Y-13424460D02*
X11836373Y-13433984D01*
X11836373Y-13433984D02*
X11798277Y-13433984D01*
X11798277Y-13433984D02*
X11779230Y-13424460D01*
X11988753Y-13433984D02*
X11969706Y-13424460D01*
X11969706Y-13424460D02*
X11960182Y-13405412D01*
X11960182Y-13405412D02*
X11960182Y-13233984D01*
X12150658Y-13433984D02*
X12150658Y-13329222D01*
X12150658Y-13329222D02*
X12141134Y-13310174D01*
X12141134Y-13310174D02*
X12122087Y-13300650D01*
X12122087Y-13300650D02*
X12083992Y-13300650D01*
X12083992Y-13300650D02*
X12064944Y-13310174D01*
X12150658Y-13424460D02*
X12131611Y-13433984D01*
X12131611Y-13433984D02*
X12083992Y-13433984D01*
X12083992Y-13433984D02*
X12064944Y-13424460D01*
X12064944Y-13424460D02*
X12055420Y-13405412D01*
X12055420Y-13405412D02*
X12055420Y-13386365D01*
X12055420Y-13386365D02*
X12064944Y-13367317D01*
X12064944Y-13367317D02*
X12083992Y-13357793D01*
X12083992Y-13357793D02*
X12131611Y-13357793D01*
X12131611Y-13357793D02*
X12150658Y-13348269D01*
X12217325Y-13300650D02*
X12293515Y-13300650D01*
X12245896Y-13233984D02*
X12245896Y-13405412D01*
X12245896Y-13405412D02*
X12255420Y-13424460D01*
X12255420Y-13424460D02*
X12274468Y-13433984D01*
X12274468Y-13433984D02*
X12293515Y-13433984D01*
X12436373Y-13424460D02*
X12417325Y-13433984D01*
X12417325Y-13433984D02*
X12379230Y-13433984D01*
X12379230Y-13433984D02*
X12360182Y-13424460D01*
X12360182Y-13424460D02*
X12350658Y-13405412D01*
X12350658Y-13405412D02*
X12350658Y-13329222D01*
X12350658Y-13329222D02*
X12360182Y-13310174D01*
X12360182Y-13310174D02*
X12379230Y-13300650D01*
X12379230Y-13300650D02*
X12417325Y-13300650D01*
X12417325Y-13300650D02*
X12436373Y-13310174D01*
X12436373Y-13310174D02*
X12445896Y-13329222D01*
X12445896Y-13329222D02*
X12445896Y-13348269D01*
X12445896Y-13348269D02*
X12350658Y-13367317D01*
X12617325Y-13433984D02*
X12617325Y-13233984D01*
X12617325Y-13424460D02*
X12598277Y-13433984D01*
X12598277Y-13433984D02*
X12560182Y-13433984D01*
X12560182Y-13433984D02*
X12541134Y-13424460D01*
X12541134Y-13424460D02*
X12531611Y-13414936D01*
X12531611Y-13414936D02*
X12522087Y-13395888D01*
X12522087Y-13395888D02*
X12522087Y-13338746D01*
X12522087Y-13338746D02*
X12531611Y-13319698D01*
X12531611Y-13319698D02*
X12541134Y-13310174D01*
X12541134Y-13310174D02*
X12560182Y-13300650D01*
X12560182Y-13300650D02*
X12598277Y-13300650D01*
X12598277Y-13300650D02*
X12617325Y-13310174D01*
X12693515Y-13510174D02*
X12703039Y-13500650D01*
X12703039Y-13500650D02*
X12722087Y-13472079D01*
X12722087Y-13472079D02*
X12731611Y-13453031D01*
X12731611Y-13453031D02*
X12741134Y-13424460D01*
X12741134Y-13424460D02*
X12750658Y-13376841D01*
X12750658Y-13376841D02*
X12750658Y-13338746D01*
X12750658Y-13338746D02*
X12741134Y-13291127D01*
X12741134Y-13291127D02*
X12731611Y-13262555D01*
X12731611Y-13262555D02*
X12722087Y-13243508D01*
X12722087Y-13243508D02*
X12703039Y-13214936D01*
X12703039Y-13214936D02*
X12693515Y-13205412D01*
D13*
X5937500Y-13612500D02*
G75*
G03*
X5937500Y-13612500I-90000J0D01*
G01*
D11*
X6303039Y-13703984D02*
X6188753Y-13703984D01*
X6245896Y-13703984D02*
X6245896Y-13503984D01*
X6245896Y-13503984D02*
X6226848Y-13532555D01*
X6226848Y-13532555D02*
X6207801Y-13551603D01*
X6207801Y-13551603D02*
X6188753Y-13561127D01*
X6388753Y-13684936D02*
X6398277Y-13694460D01*
X6398277Y-13694460D02*
X6388753Y-13703984D01*
X6388753Y-13703984D02*
X6379229Y-13694460D01*
X6379229Y-13694460D02*
X6388753Y-13684936D01*
X6388753Y-13684936D02*
X6388753Y-13703984D01*
X6512562Y-13589698D02*
X6493515Y-13580174D01*
X6493515Y-13580174D02*
X6483991Y-13570650D01*
X6483991Y-13570650D02*
X6474467Y-13551603D01*
X6474467Y-13551603D02*
X6474467Y-13542079D01*
X6474467Y-13542079D02*
X6483991Y-13523031D01*
X6483991Y-13523031D02*
X6493515Y-13513508D01*
X6493515Y-13513508D02*
X6512562Y-13503984D01*
X6512562Y-13503984D02*
X6550658Y-13503984D01*
X6550658Y-13503984D02*
X6569705Y-13513508D01*
X6569705Y-13513508D02*
X6579229Y-13523031D01*
X6579229Y-13523031D02*
X6588753Y-13542079D01*
X6588753Y-13542079D02*
X6588753Y-13551603D01*
X6588753Y-13551603D02*
X6579229Y-13570650D01*
X6579229Y-13570650D02*
X6569705Y-13580174D01*
X6569705Y-13580174D02*
X6550658Y-13589698D01*
X6550658Y-13589698D02*
X6512562Y-13589698D01*
X6512562Y-13589698D02*
X6493515Y-13599222D01*
X6493515Y-13599222D02*
X6483991Y-13608746D01*
X6483991Y-13608746D02*
X6474467Y-13627793D01*
X6474467Y-13627793D02*
X6474467Y-13665888D01*
X6474467Y-13665888D02*
X6483991Y-13684936D01*
X6483991Y-13684936D02*
X6493515Y-13694460D01*
X6493515Y-13694460D02*
X6512562Y-13703984D01*
X6512562Y-13703984D02*
X6550658Y-13703984D01*
X6550658Y-13703984D02*
X6569705Y-13694460D01*
X6569705Y-13694460D02*
X6579229Y-13684936D01*
X6579229Y-13684936D02*
X6588753Y-13665888D01*
X6588753Y-13665888D02*
X6588753Y-13627793D01*
X6588753Y-13627793D02*
X6579229Y-13608746D01*
X6579229Y-13608746D02*
X6569705Y-13599222D01*
X6569705Y-13599222D02*
X6550658Y-13589698D01*
X6712562Y-13503984D02*
X6731610Y-13503984D01*
X6731610Y-13503984D02*
X6750658Y-13513508D01*
X6750658Y-13513508D02*
X6760182Y-13523031D01*
X6760182Y-13523031D02*
X6769705Y-13542079D01*
X6769705Y-13542079D02*
X6779229Y-13580174D01*
X6779229Y-13580174D02*
X6779229Y-13627793D01*
X6779229Y-13627793D02*
X6769705Y-13665888D01*
X6769705Y-13665888D02*
X6760182Y-13684936D01*
X6760182Y-13684936D02*
X6750658Y-13694460D01*
X6750658Y-13694460D02*
X6731610Y-13703984D01*
X6731610Y-13703984D02*
X6712562Y-13703984D01*
X6712562Y-13703984D02*
X6693515Y-13694460D01*
X6693515Y-13694460D02*
X6683991Y-13684936D01*
X6683991Y-13684936D02*
X6674467Y-13665888D01*
X6674467Y-13665888D02*
X6664943Y-13627793D01*
X6664943Y-13627793D02*
X6664943Y-13580174D01*
X6664943Y-13580174D02*
X6674467Y-13542079D01*
X6674467Y-13542079D02*
X6683991Y-13523031D01*
X6683991Y-13523031D02*
X6693515Y-13513508D01*
X6693515Y-13513508D02*
X6712562Y-13503984D01*
X6903039Y-13503984D02*
X6922086Y-13503984D01*
X6922086Y-13503984D02*
X6941134Y-13513508D01*
X6941134Y-13513508D02*
X6950658Y-13523031D01*
X6950658Y-13523031D02*
X6960182Y-13542079D01*
X6960182Y-13542079D02*
X6969705Y-13580174D01*
X6969705Y-13580174D02*
X6969705Y-13627793D01*
X6969705Y-13627793D02*
X6960182Y-13665888D01*
X6960182Y-13665888D02*
X6950658Y-13684936D01*
X6950658Y-13684936D02*
X6941134Y-13694460D01*
X6941134Y-13694460D02*
X6922086Y-13703984D01*
X6922086Y-13703984D02*
X6903039Y-13703984D01*
X6903039Y-13703984D02*
X6883991Y-13694460D01*
X6883991Y-13694460D02*
X6874467Y-13684936D01*
X6874467Y-13684936D02*
X6864943Y-13665888D01*
X6864943Y-13665888D02*
X6855420Y-13627793D01*
X6855420Y-13627793D02*
X6855420Y-13580174D01*
X6855420Y-13580174D02*
X6864943Y-13542079D01*
X6864943Y-13542079D02*
X6874467Y-13523031D01*
X6874467Y-13523031D02*
X6883991Y-13513508D01*
X6883991Y-13513508D02*
X6903039Y-13503984D01*
X7055420Y-13703984D02*
X7055420Y-13570650D01*
X7055420Y-13589698D02*
X7064943Y-13580174D01*
X7064943Y-13580174D02*
X7083991Y-13570650D01*
X7083991Y-13570650D02*
X7112563Y-13570650D01*
X7112563Y-13570650D02*
X7131610Y-13580174D01*
X7131610Y-13580174D02*
X7141134Y-13599222D01*
X7141134Y-13599222D02*
X7141134Y-13703984D01*
X7141134Y-13599222D02*
X7150658Y-13580174D01*
X7150658Y-13580174D02*
X7169705Y-13570650D01*
X7169705Y-13570650D02*
X7198277Y-13570650D01*
X7198277Y-13570650D02*
X7217324Y-13580174D01*
X7217324Y-13580174D02*
X7226848Y-13599222D01*
X7226848Y-13599222D02*
X7226848Y-13703984D01*
X7322086Y-13703984D02*
X7322086Y-13570650D01*
X7322086Y-13589698D02*
X7331610Y-13580174D01*
X7331610Y-13580174D02*
X7350658Y-13570650D01*
X7350658Y-13570650D02*
X7379229Y-13570650D01*
X7379229Y-13570650D02*
X7398277Y-13580174D01*
X7398277Y-13580174D02*
X7407801Y-13599222D01*
X7407801Y-13599222D02*
X7407801Y-13703984D01*
X7407801Y-13599222D02*
X7417324Y-13580174D01*
X7417324Y-13580174D02*
X7436372Y-13570650D01*
X7436372Y-13570650D02*
X7464943Y-13570650D01*
X7464943Y-13570650D02*
X7483991Y-13580174D01*
X7483991Y-13580174D02*
X7493515Y-13599222D01*
X7493515Y-13599222D02*
X7493515Y-13703984D01*
X7883991Y-13494460D02*
X7712563Y-13751603D01*
X8141134Y-13503984D02*
X8160182Y-13503984D01*
X8160182Y-13503984D02*
X8179229Y-13513508D01*
X8179229Y-13513508D02*
X8188753Y-13523031D01*
X8188753Y-13523031D02*
X8198277Y-13542079D01*
X8198277Y-13542079D02*
X8207801Y-13580174D01*
X8207801Y-13580174D02*
X8207801Y-13627793D01*
X8207801Y-13627793D02*
X8198277Y-13665888D01*
X8198277Y-13665888D02*
X8188753Y-13684936D01*
X8188753Y-13684936D02*
X8179229Y-13694460D01*
X8179229Y-13694460D02*
X8160182Y-13703984D01*
X8160182Y-13703984D02*
X8141134Y-13703984D01*
X8141134Y-13703984D02*
X8122086Y-13694460D01*
X8122086Y-13694460D02*
X8112563Y-13684936D01*
X8112563Y-13684936D02*
X8103039Y-13665888D01*
X8103039Y-13665888D02*
X8093515Y-13627793D01*
X8093515Y-13627793D02*
X8093515Y-13580174D01*
X8093515Y-13580174D02*
X8103039Y-13542079D01*
X8103039Y-13542079D02*
X8112563Y-13523031D01*
X8112563Y-13523031D02*
X8122086Y-13513508D01*
X8122086Y-13513508D02*
X8141134Y-13503984D01*
X8293515Y-13684936D02*
X8303039Y-13694460D01*
X8303039Y-13694460D02*
X8293515Y-13703984D01*
X8293515Y-13703984D02*
X8283991Y-13694460D01*
X8283991Y-13694460D02*
X8293515Y-13684936D01*
X8293515Y-13684936D02*
X8293515Y-13703984D01*
X8426848Y-13503984D02*
X8445896Y-13503984D01*
X8445896Y-13503984D02*
X8464944Y-13513508D01*
X8464944Y-13513508D02*
X8474468Y-13523031D01*
X8474468Y-13523031D02*
X8483991Y-13542079D01*
X8483991Y-13542079D02*
X8493515Y-13580174D01*
X8493515Y-13580174D02*
X8493515Y-13627793D01*
X8493515Y-13627793D02*
X8483991Y-13665888D01*
X8483991Y-13665888D02*
X8474468Y-13684936D01*
X8474468Y-13684936D02*
X8464944Y-13694460D01*
X8464944Y-13694460D02*
X8445896Y-13703984D01*
X8445896Y-13703984D02*
X8426848Y-13703984D01*
X8426848Y-13703984D02*
X8407801Y-13694460D01*
X8407801Y-13694460D02*
X8398277Y-13684936D01*
X8398277Y-13684936D02*
X8388753Y-13665888D01*
X8388753Y-13665888D02*
X8379229Y-13627793D01*
X8379229Y-13627793D02*
X8379229Y-13580174D01*
X8379229Y-13580174D02*
X8388753Y-13542079D01*
X8388753Y-13542079D02*
X8398277Y-13523031D01*
X8398277Y-13523031D02*
X8407801Y-13513508D01*
X8407801Y-13513508D02*
X8426848Y-13503984D01*
X8560182Y-13503984D02*
X8693515Y-13503984D01*
X8693515Y-13503984D02*
X8607801Y-13703984D01*
X8807801Y-13503984D02*
X8826849Y-13503984D01*
X8826849Y-13503984D02*
X8845896Y-13513508D01*
X8845896Y-13513508D02*
X8855420Y-13523031D01*
X8855420Y-13523031D02*
X8864944Y-13542079D01*
X8864944Y-13542079D02*
X8874468Y-13580174D01*
X8874468Y-13580174D02*
X8874468Y-13627793D01*
X8874468Y-13627793D02*
X8864944Y-13665888D01*
X8864944Y-13665888D02*
X8855420Y-13684936D01*
X8855420Y-13684936D02*
X8845896Y-13694460D01*
X8845896Y-13694460D02*
X8826849Y-13703984D01*
X8826849Y-13703984D02*
X8807801Y-13703984D01*
X8807801Y-13703984D02*
X8788753Y-13694460D01*
X8788753Y-13694460D02*
X8779229Y-13684936D01*
X8779229Y-13684936D02*
X8769706Y-13665888D01*
X8769706Y-13665888D02*
X8760182Y-13627793D01*
X8760182Y-13627793D02*
X8760182Y-13580174D01*
X8760182Y-13580174D02*
X8769706Y-13542079D01*
X8769706Y-13542079D02*
X8779229Y-13523031D01*
X8779229Y-13523031D02*
X8788753Y-13513508D01*
X8788753Y-13513508D02*
X8807801Y-13503984D01*
X8969706Y-13703984D02*
X9007801Y-13703984D01*
X9007801Y-13703984D02*
X9026849Y-13694460D01*
X9026849Y-13694460D02*
X9036372Y-13684936D01*
X9036372Y-13684936D02*
X9055420Y-13656365D01*
X9055420Y-13656365D02*
X9064944Y-13618269D01*
X9064944Y-13618269D02*
X9064944Y-13542079D01*
X9064944Y-13542079D02*
X9055420Y-13523031D01*
X9055420Y-13523031D02*
X9045896Y-13513508D01*
X9045896Y-13513508D02*
X9026849Y-13503984D01*
X9026849Y-13503984D02*
X8988753Y-13503984D01*
X8988753Y-13503984D02*
X8969706Y-13513508D01*
X8969706Y-13513508D02*
X8960182Y-13523031D01*
X8960182Y-13523031D02*
X8950658Y-13542079D01*
X8950658Y-13542079D02*
X8950658Y-13589698D01*
X8950658Y-13589698D02*
X8960182Y-13608746D01*
X8960182Y-13608746D02*
X8969706Y-13618269D01*
X8969706Y-13618269D02*
X8988753Y-13627793D01*
X8988753Y-13627793D02*
X9026849Y-13627793D01*
X9026849Y-13627793D02*
X9045896Y-13618269D01*
X9045896Y-13618269D02*
X9055420Y-13608746D01*
X9055420Y-13608746D02*
X9064944Y-13589698D01*
X9141134Y-13503984D02*
X9141134Y-13542079D01*
X9217325Y-13503984D02*
X9217325Y-13542079D01*
X9512563Y-13780174D02*
X9503039Y-13770650D01*
X9503039Y-13770650D02*
X9483991Y-13742079D01*
X9483991Y-13742079D02*
X9474468Y-13723031D01*
X9474468Y-13723031D02*
X9464944Y-13694460D01*
X9464944Y-13694460D02*
X9455420Y-13646841D01*
X9455420Y-13646841D02*
X9455420Y-13608746D01*
X9455420Y-13608746D02*
X9464944Y-13561127D01*
X9464944Y-13561127D02*
X9474468Y-13532555D01*
X9474468Y-13532555D02*
X9483991Y-13513508D01*
X9483991Y-13513508D02*
X9503039Y-13484936D01*
X9503039Y-13484936D02*
X9512563Y-13475412D01*
X9579230Y-13523031D02*
X9588753Y-13513508D01*
X9588753Y-13513508D02*
X9607801Y-13503984D01*
X9607801Y-13503984D02*
X9655420Y-13503984D01*
X9655420Y-13503984D02*
X9674468Y-13513508D01*
X9674468Y-13513508D02*
X9683991Y-13523031D01*
X9683991Y-13523031D02*
X9693515Y-13542079D01*
X9693515Y-13542079D02*
X9693515Y-13561127D01*
X9693515Y-13561127D02*
X9683991Y-13589698D01*
X9683991Y-13589698D02*
X9569706Y-13703984D01*
X9569706Y-13703984D02*
X9693515Y-13703984D01*
X9931611Y-13703984D02*
X9931611Y-13503984D01*
X10017325Y-13703984D02*
X10017325Y-13599222D01*
X10017325Y-13599222D02*
X10007801Y-13580174D01*
X10007801Y-13580174D02*
X9988753Y-13570650D01*
X9988753Y-13570650D02*
X9960182Y-13570650D01*
X9960182Y-13570650D02*
X9941134Y-13580174D01*
X9941134Y-13580174D02*
X9931611Y-13589698D01*
X10141134Y-13703984D02*
X10122087Y-13694460D01*
X10122087Y-13694460D02*
X10112563Y-13684936D01*
X10112563Y-13684936D02*
X10103039Y-13665888D01*
X10103039Y-13665888D02*
X10103039Y-13608746D01*
X10103039Y-13608746D02*
X10112563Y-13589698D01*
X10112563Y-13589698D02*
X10122087Y-13580174D01*
X10122087Y-13580174D02*
X10141134Y-13570650D01*
X10141134Y-13570650D02*
X10169706Y-13570650D01*
X10169706Y-13570650D02*
X10188753Y-13580174D01*
X10188753Y-13580174D02*
X10198277Y-13589698D01*
X10198277Y-13589698D02*
X10207801Y-13608746D01*
X10207801Y-13608746D02*
X10207801Y-13665888D01*
X10207801Y-13665888D02*
X10198277Y-13684936D01*
X10198277Y-13684936D02*
X10188753Y-13694460D01*
X10188753Y-13694460D02*
X10169706Y-13703984D01*
X10169706Y-13703984D02*
X10141134Y-13703984D01*
X10322087Y-13703984D02*
X10303039Y-13694460D01*
X10303039Y-13694460D02*
X10293515Y-13675412D01*
X10293515Y-13675412D02*
X10293515Y-13503984D01*
X10474468Y-13694460D02*
X10455420Y-13703984D01*
X10455420Y-13703984D02*
X10417325Y-13703984D01*
X10417325Y-13703984D02*
X10398277Y-13694460D01*
X10398277Y-13694460D02*
X10388753Y-13675412D01*
X10388753Y-13675412D02*
X10388753Y-13599222D01*
X10388753Y-13599222D02*
X10398277Y-13580174D01*
X10398277Y-13580174D02*
X10417325Y-13570650D01*
X10417325Y-13570650D02*
X10455420Y-13570650D01*
X10455420Y-13570650D02*
X10474468Y-13580174D01*
X10474468Y-13580174D02*
X10483992Y-13599222D01*
X10483992Y-13599222D02*
X10483992Y-13618269D01*
X10483992Y-13618269D02*
X10388753Y-13637317D01*
X10560182Y-13694460D02*
X10579230Y-13703984D01*
X10579230Y-13703984D02*
X10617325Y-13703984D01*
X10617325Y-13703984D02*
X10636373Y-13694460D01*
X10636373Y-13694460D02*
X10645896Y-13675412D01*
X10645896Y-13675412D02*
X10645896Y-13665888D01*
X10645896Y-13665888D02*
X10636373Y-13646841D01*
X10636373Y-13646841D02*
X10617325Y-13637317D01*
X10617325Y-13637317D02*
X10588753Y-13637317D01*
X10588753Y-13637317D02*
X10569706Y-13627793D01*
X10569706Y-13627793D02*
X10560182Y-13608746D01*
X10560182Y-13608746D02*
X10560182Y-13599222D01*
X10560182Y-13599222D02*
X10569706Y-13580174D01*
X10569706Y-13580174D02*
X10588753Y-13570650D01*
X10588753Y-13570650D02*
X10617325Y-13570650D01*
X10617325Y-13570650D02*
X10636373Y-13580174D01*
X10712563Y-13780174D02*
X10722087Y-13770650D01*
X10722087Y-13770650D02*
X10741134Y-13742079D01*
X10741134Y-13742079D02*
X10750658Y-13723031D01*
X10750658Y-13723031D02*
X10760182Y-13694460D01*
X10760182Y-13694460D02*
X10769706Y-13646841D01*
X10769706Y-13646841D02*
X10769706Y-13608746D01*
X10769706Y-13608746D02*
X10760182Y-13561127D01*
X10760182Y-13561127D02*
X10750658Y-13532555D01*
X10750658Y-13532555D02*
X10741134Y-13513508D01*
X10741134Y-13513508D02*
X10722087Y-13484936D01*
X10722087Y-13484936D02*
X10712563Y-13475412D01*
X11074468Y-13780174D02*
X11064944Y-13770650D01*
X11064944Y-13770650D02*
X11045896Y-13742079D01*
X11045896Y-13742079D02*
X11036373Y-13723031D01*
X11036373Y-13723031D02*
X11026849Y-13694460D01*
X11026849Y-13694460D02*
X11017325Y-13646841D01*
X11017325Y-13646841D02*
X11017325Y-13608746D01*
X11017325Y-13608746D02*
X11026849Y-13561127D01*
X11026849Y-13561127D02*
X11036373Y-13532555D01*
X11036373Y-13532555D02*
X11045896Y-13513508D01*
X11045896Y-13513508D02*
X11064944Y-13484936D01*
X11064944Y-13484936D02*
X11074468Y-13475412D01*
X11150658Y-13570650D02*
X11150658Y-13703984D01*
X11150658Y-13589698D02*
X11160182Y-13580174D01*
X11160182Y-13580174D02*
X11179230Y-13570650D01*
X11179230Y-13570650D02*
X11207801Y-13570650D01*
X11207801Y-13570650D02*
X11226849Y-13580174D01*
X11226849Y-13580174D02*
X11236372Y-13599222D01*
X11236372Y-13599222D02*
X11236372Y-13703984D01*
X11360182Y-13703984D02*
X11341134Y-13694460D01*
X11341134Y-13694460D02*
X11331611Y-13684936D01*
X11331611Y-13684936D02*
X11322087Y-13665888D01*
X11322087Y-13665888D02*
X11322087Y-13608746D01*
X11322087Y-13608746D02*
X11331611Y-13589698D01*
X11331611Y-13589698D02*
X11341134Y-13580174D01*
X11341134Y-13580174D02*
X11360182Y-13570650D01*
X11360182Y-13570650D02*
X11388753Y-13570650D01*
X11388753Y-13570650D02*
X11407801Y-13580174D01*
X11407801Y-13580174D02*
X11417325Y-13589698D01*
X11417325Y-13589698D02*
X11426849Y-13608746D01*
X11426849Y-13608746D02*
X11426849Y-13665888D01*
X11426849Y-13665888D02*
X11417325Y-13684936D01*
X11417325Y-13684936D02*
X11407801Y-13694460D01*
X11407801Y-13694460D02*
X11388753Y-13703984D01*
X11388753Y-13703984D02*
X11360182Y-13703984D01*
X11483992Y-13570650D02*
X11560182Y-13570650D01*
X11512563Y-13503984D02*
X11512563Y-13675412D01*
X11512563Y-13675412D02*
X11522087Y-13694460D01*
X11522087Y-13694460D02*
X11541134Y-13703984D01*
X11541134Y-13703984D02*
X11560182Y-13703984D01*
X11779230Y-13570650D02*
X11779230Y-13770650D01*
X11779230Y-13580174D02*
X11798277Y-13570650D01*
X11798277Y-13570650D02*
X11836373Y-13570650D01*
X11836373Y-13570650D02*
X11855420Y-13580174D01*
X11855420Y-13580174D02*
X11864944Y-13589698D01*
X11864944Y-13589698D02*
X11874468Y-13608746D01*
X11874468Y-13608746D02*
X11874468Y-13665888D01*
X11874468Y-13665888D02*
X11864944Y-13684936D01*
X11864944Y-13684936D02*
X11855420Y-13694460D01*
X11855420Y-13694460D02*
X11836373Y-13703984D01*
X11836373Y-13703984D02*
X11798277Y-13703984D01*
X11798277Y-13703984D02*
X11779230Y-13694460D01*
X11988753Y-13703984D02*
X11969706Y-13694460D01*
X11969706Y-13694460D02*
X11960182Y-13675412D01*
X11960182Y-13675412D02*
X11960182Y-13503984D01*
X12150658Y-13703984D02*
X12150658Y-13599222D01*
X12150658Y-13599222D02*
X12141134Y-13580174D01*
X12141134Y-13580174D02*
X12122087Y-13570650D01*
X12122087Y-13570650D02*
X12083992Y-13570650D01*
X12083992Y-13570650D02*
X12064944Y-13580174D01*
X12150658Y-13694460D02*
X12131611Y-13703984D01*
X12131611Y-13703984D02*
X12083992Y-13703984D01*
X12083992Y-13703984D02*
X12064944Y-13694460D01*
X12064944Y-13694460D02*
X12055420Y-13675412D01*
X12055420Y-13675412D02*
X12055420Y-13656365D01*
X12055420Y-13656365D02*
X12064944Y-13637317D01*
X12064944Y-13637317D02*
X12083992Y-13627793D01*
X12083992Y-13627793D02*
X12131611Y-13627793D01*
X12131611Y-13627793D02*
X12150658Y-13618269D01*
X12217325Y-13570650D02*
X12293515Y-13570650D01*
X12245896Y-13503984D02*
X12245896Y-13675412D01*
X12245896Y-13675412D02*
X12255420Y-13694460D01*
X12255420Y-13694460D02*
X12274468Y-13703984D01*
X12274468Y-13703984D02*
X12293515Y-13703984D01*
X12436373Y-13694460D02*
X12417325Y-13703984D01*
X12417325Y-13703984D02*
X12379230Y-13703984D01*
X12379230Y-13703984D02*
X12360182Y-13694460D01*
X12360182Y-13694460D02*
X12350658Y-13675412D01*
X12350658Y-13675412D02*
X12350658Y-13599222D01*
X12350658Y-13599222D02*
X12360182Y-13580174D01*
X12360182Y-13580174D02*
X12379230Y-13570650D01*
X12379230Y-13570650D02*
X12417325Y-13570650D01*
X12417325Y-13570650D02*
X12436373Y-13580174D01*
X12436373Y-13580174D02*
X12445896Y-13599222D01*
X12445896Y-13599222D02*
X12445896Y-13618269D01*
X12445896Y-13618269D02*
X12350658Y-13637317D01*
X12617325Y-13703984D02*
X12617325Y-13503984D01*
X12617325Y-13694460D02*
X12598277Y-13703984D01*
X12598277Y-13703984D02*
X12560182Y-13703984D01*
X12560182Y-13703984D02*
X12541134Y-13694460D01*
X12541134Y-13694460D02*
X12531611Y-13684936D01*
X12531611Y-13684936D02*
X12522087Y-13665888D01*
X12522087Y-13665888D02*
X12522087Y-13608746D01*
X12522087Y-13608746D02*
X12531611Y-13589698D01*
X12531611Y-13589698D02*
X12541134Y-13580174D01*
X12541134Y-13580174D02*
X12560182Y-13570650D01*
X12560182Y-13570650D02*
X12598277Y-13570650D01*
X12598277Y-13570650D02*
X12617325Y-13580174D01*
X12693515Y-13780174D02*
X12703039Y-13770650D01*
X12703039Y-13770650D02*
X12722087Y-13742079D01*
X12722087Y-13742079D02*
X12731611Y-13723031D01*
X12731611Y-13723031D02*
X12741134Y-13694460D01*
X12741134Y-13694460D02*
X12750658Y-13646841D01*
X12750658Y-13646841D02*
X12750658Y-13608746D01*
X12750658Y-13608746D02*
X12741134Y-13561127D01*
X12741134Y-13561127D02*
X12731611Y-13532555D01*
X12731611Y-13532555D02*
X12722087Y-13513508D01*
X12722087Y-13513508D02*
X12703039Y-13484936D01*
X12703039Y-13484936D02*
X12693515Y-13475412D01*
X5837500Y-13812500D02*
X5837500Y-14012500D01*
X5737500Y-13912500D02*
X5937500Y-13912500D01*
X6179229Y-13803984D02*
X6303039Y-13803984D01*
X6303039Y-13803984D02*
X6236372Y-13880174D01*
X6236372Y-13880174D02*
X6264943Y-13880174D01*
X6264943Y-13880174D02*
X6283991Y-13889698D01*
X6283991Y-13889698D02*
X6293515Y-13899222D01*
X6293515Y-13899222D02*
X6303039Y-13918269D01*
X6303039Y-13918269D02*
X6303039Y-13965888D01*
X6303039Y-13965888D02*
X6293515Y-13984936D01*
X6293515Y-13984936D02*
X6283991Y-13994460D01*
X6283991Y-13994460D02*
X6264943Y-14003984D01*
X6264943Y-14003984D02*
X6207801Y-14003984D01*
X6207801Y-14003984D02*
X6188753Y-13994460D01*
X6188753Y-13994460D02*
X6179229Y-13984936D01*
X6388753Y-13984936D02*
X6398277Y-13994460D01*
X6398277Y-13994460D02*
X6388753Y-14003984D01*
X6388753Y-14003984D02*
X6379229Y-13994460D01*
X6379229Y-13994460D02*
X6388753Y-13984936D01*
X6388753Y-13984936D02*
X6388753Y-14003984D01*
X6474467Y-13823031D02*
X6483991Y-13813508D01*
X6483991Y-13813508D02*
X6503039Y-13803984D01*
X6503039Y-13803984D02*
X6550658Y-13803984D01*
X6550658Y-13803984D02*
X6569705Y-13813508D01*
X6569705Y-13813508D02*
X6579229Y-13823031D01*
X6579229Y-13823031D02*
X6588753Y-13842079D01*
X6588753Y-13842079D02*
X6588753Y-13861127D01*
X6588753Y-13861127D02*
X6579229Y-13889698D01*
X6579229Y-13889698D02*
X6464943Y-14003984D01*
X6464943Y-14003984D02*
X6588753Y-14003984D01*
X6712562Y-13803984D02*
X6731610Y-13803984D01*
X6731610Y-13803984D02*
X6750658Y-13813508D01*
X6750658Y-13813508D02*
X6760182Y-13823031D01*
X6760182Y-13823031D02*
X6769705Y-13842079D01*
X6769705Y-13842079D02*
X6779229Y-13880174D01*
X6779229Y-13880174D02*
X6779229Y-13927793D01*
X6779229Y-13927793D02*
X6769705Y-13965888D01*
X6769705Y-13965888D02*
X6760182Y-13984936D01*
X6760182Y-13984936D02*
X6750658Y-13994460D01*
X6750658Y-13994460D02*
X6731610Y-14003984D01*
X6731610Y-14003984D02*
X6712562Y-14003984D01*
X6712562Y-14003984D02*
X6693515Y-13994460D01*
X6693515Y-13994460D02*
X6683991Y-13984936D01*
X6683991Y-13984936D02*
X6674467Y-13965888D01*
X6674467Y-13965888D02*
X6664943Y-13927793D01*
X6664943Y-13927793D02*
X6664943Y-13880174D01*
X6664943Y-13880174D02*
X6674467Y-13842079D01*
X6674467Y-13842079D02*
X6683991Y-13823031D01*
X6683991Y-13823031D02*
X6693515Y-13813508D01*
X6693515Y-13813508D02*
X6712562Y-13803984D01*
X6903039Y-13803984D02*
X6922086Y-13803984D01*
X6922086Y-13803984D02*
X6941134Y-13813508D01*
X6941134Y-13813508D02*
X6950658Y-13823031D01*
X6950658Y-13823031D02*
X6960182Y-13842079D01*
X6960182Y-13842079D02*
X6969705Y-13880174D01*
X6969705Y-13880174D02*
X6969705Y-13927793D01*
X6969705Y-13927793D02*
X6960182Y-13965888D01*
X6960182Y-13965888D02*
X6950658Y-13984936D01*
X6950658Y-13984936D02*
X6941134Y-13994460D01*
X6941134Y-13994460D02*
X6922086Y-14003984D01*
X6922086Y-14003984D02*
X6903039Y-14003984D01*
X6903039Y-14003984D02*
X6883991Y-13994460D01*
X6883991Y-13994460D02*
X6874467Y-13984936D01*
X6874467Y-13984936D02*
X6864943Y-13965888D01*
X6864943Y-13965888D02*
X6855420Y-13927793D01*
X6855420Y-13927793D02*
X6855420Y-13880174D01*
X6855420Y-13880174D02*
X6864943Y-13842079D01*
X6864943Y-13842079D02*
X6874467Y-13823031D01*
X6874467Y-13823031D02*
X6883991Y-13813508D01*
X6883991Y-13813508D02*
X6903039Y-13803984D01*
X7055420Y-14003984D02*
X7055420Y-13870650D01*
X7055420Y-13889698D02*
X7064943Y-13880174D01*
X7064943Y-13880174D02*
X7083991Y-13870650D01*
X7083991Y-13870650D02*
X7112563Y-13870650D01*
X7112563Y-13870650D02*
X7131610Y-13880174D01*
X7131610Y-13880174D02*
X7141134Y-13899222D01*
X7141134Y-13899222D02*
X7141134Y-14003984D01*
X7141134Y-13899222D02*
X7150658Y-13880174D01*
X7150658Y-13880174D02*
X7169705Y-13870650D01*
X7169705Y-13870650D02*
X7198277Y-13870650D01*
X7198277Y-13870650D02*
X7217324Y-13880174D01*
X7217324Y-13880174D02*
X7226848Y-13899222D01*
X7226848Y-13899222D02*
X7226848Y-14003984D01*
X7322086Y-14003984D02*
X7322086Y-13870650D01*
X7322086Y-13889698D02*
X7331610Y-13880174D01*
X7331610Y-13880174D02*
X7350658Y-13870650D01*
X7350658Y-13870650D02*
X7379229Y-13870650D01*
X7379229Y-13870650D02*
X7398277Y-13880174D01*
X7398277Y-13880174D02*
X7407801Y-13899222D01*
X7407801Y-13899222D02*
X7407801Y-14003984D01*
X7407801Y-13899222D02*
X7417324Y-13880174D01*
X7417324Y-13880174D02*
X7436372Y-13870650D01*
X7436372Y-13870650D02*
X7464943Y-13870650D01*
X7464943Y-13870650D02*
X7483991Y-13880174D01*
X7483991Y-13880174D02*
X7493515Y-13899222D01*
X7493515Y-13899222D02*
X7493515Y-14003984D01*
X7883991Y-13794460D02*
X7712563Y-14051603D01*
X8141134Y-13803984D02*
X8160182Y-13803984D01*
X8160182Y-13803984D02*
X8179229Y-13813508D01*
X8179229Y-13813508D02*
X8188753Y-13823031D01*
X8188753Y-13823031D02*
X8198277Y-13842079D01*
X8198277Y-13842079D02*
X8207801Y-13880174D01*
X8207801Y-13880174D02*
X8207801Y-13927793D01*
X8207801Y-13927793D02*
X8198277Y-13965888D01*
X8198277Y-13965888D02*
X8188753Y-13984936D01*
X8188753Y-13984936D02*
X8179229Y-13994460D01*
X8179229Y-13994460D02*
X8160182Y-14003984D01*
X8160182Y-14003984D02*
X8141134Y-14003984D01*
X8141134Y-14003984D02*
X8122086Y-13994460D01*
X8122086Y-13994460D02*
X8112563Y-13984936D01*
X8112563Y-13984936D02*
X8103039Y-13965888D01*
X8103039Y-13965888D02*
X8093515Y-13927793D01*
X8093515Y-13927793D02*
X8093515Y-13880174D01*
X8093515Y-13880174D02*
X8103039Y-13842079D01*
X8103039Y-13842079D02*
X8112563Y-13823031D01*
X8112563Y-13823031D02*
X8122086Y-13813508D01*
X8122086Y-13813508D02*
X8141134Y-13803984D01*
X8293515Y-13984936D02*
X8303039Y-13994460D01*
X8303039Y-13994460D02*
X8293515Y-14003984D01*
X8293515Y-14003984D02*
X8283991Y-13994460D01*
X8283991Y-13994460D02*
X8293515Y-13984936D01*
X8293515Y-13984936D02*
X8293515Y-14003984D01*
X8493515Y-14003984D02*
X8379229Y-14003984D01*
X8436372Y-14003984D02*
X8436372Y-13803984D01*
X8436372Y-13803984D02*
X8417325Y-13832555D01*
X8417325Y-13832555D02*
X8398277Y-13851603D01*
X8398277Y-13851603D02*
X8379229Y-13861127D01*
X8569706Y-13823031D02*
X8579229Y-13813508D01*
X8579229Y-13813508D02*
X8598277Y-13803984D01*
X8598277Y-13803984D02*
X8645896Y-13803984D01*
X8645896Y-13803984D02*
X8664944Y-13813508D01*
X8664944Y-13813508D02*
X8674468Y-13823031D01*
X8674468Y-13823031D02*
X8683991Y-13842079D01*
X8683991Y-13842079D02*
X8683991Y-13861127D01*
X8683991Y-13861127D02*
X8674468Y-13889698D01*
X8674468Y-13889698D02*
X8560182Y-14003984D01*
X8560182Y-14003984D02*
X8683991Y-14003984D01*
X8855420Y-13803984D02*
X8817325Y-13803984D01*
X8817325Y-13803984D02*
X8798277Y-13813508D01*
X8798277Y-13813508D02*
X8788753Y-13823031D01*
X8788753Y-13823031D02*
X8769706Y-13851603D01*
X8769706Y-13851603D02*
X8760182Y-13889698D01*
X8760182Y-13889698D02*
X8760182Y-13965888D01*
X8760182Y-13965888D02*
X8769706Y-13984936D01*
X8769706Y-13984936D02*
X8779229Y-13994460D01*
X8779229Y-13994460D02*
X8798277Y-14003984D01*
X8798277Y-14003984D02*
X8836372Y-14003984D01*
X8836372Y-14003984D02*
X8855420Y-13994460D01*
X8855420Y-13994460D02*
X8864944Y-13984936D01*
X8864944Y-13984936D02*
X8874468Y-13965888D01*
X8874468Y-13965888D02*
X8874468Y-13918269D01*
X8874468Y-13918269D02*
X8864944Y-13899222D01*
X8864944Y-13899222D02*
X8855420Y-13889698D01*
X8855420Y-13889698D02*
X8836372Y-13880174D01*
X8836372Y-13880174D02*
X8798277Y-13880174D01*
X8798277Y-13880174D02*
X8779229Y-13889698D01*
X8779229Y-13889698D02*
X8769706Y-13899222D01*
X8769706Y-13899222D02*
X8760182Y-13918269D01*
X8998277Y-13803984D02*
X9017325Y-13803984D01*
X9017325Y-13803984D02*
X9036372Y-13813508D01*
X9036372Y-13813508D02*
X9045896Y-13823031D01*
X9045896Y-13823031D02*
X9055420Y-13842079D01*
X9055420Y-13842079D02*
X9064944Y-13880174D01*
X9064944Y-13880174D02*
X9064944Y-13927793D01*
X9064944Y-13927793D02*
X9055420Y-13965888D01*
X9055420Y-13965888D02*
X9045896Y-13984936D01*
X9045896Y-13984936D02*
X9036372Y-13994460D01*
X9036372Y-13994460D02*
X9017325Y-14003984D01*
X9017325Y-14003984D02*
X8998277Y-14003984D01*
X8998277Y-14003984D02*
X8979229Y-13994460D01*
X8979229Y-13994460D02*
X8969706Y-13984936D01*
X8969706Y-13984936D02*
X8960182Y-13965888D01*
X8960182Y-13965888D02*
X8950658Y-13927793D01*
X8950658Y-13927793D02*
X8950658Y-13880174D01*
X8950658Y-13880174D02*
X8960182Y-13842079D01*
X8960182Y-13842079D02*
X8969706Y-13823031D01*
X8969706Y-13823031D02*
X8979229Y-13813508D01*
X8979229Y-13813508D02*
X8998277Y-13803984D01*
X9141134Y-13803984D02*
X9141134Y-13842079D01*
X9217325Y-13803984D02*
X9217325Y-13842079D01*
X9512563Y-14080174D02*
X9503039Y-14070650D01*
X9503039Y-14070650D02*
X9483991Y-14042079D01*
X9483991Y-14042079D02*
X9474468Y-14023031D01*
X9474468Y-14023031D02*
X9464944Y-13994460D01*
X9464944Y-13994460D02*
X9455420Y-13946841D01*
X9455420Y-13946841D02*
X9455420Y-13908746D01*
X9455420Y-13908746D02*
X9464944Y-13861127D01*
X9464944Y-13861127D02*
X9474468Y-13832555D01*
X9474468Y-13832555D02*
X9483991Y-13813508D01*
X9483991Y-13813508D02*
X9503039Y-13784936D01*
X9503039Y-13784936D02*
X9512563Y-13775412D01*
X9674468Y-13870650D02*
X9674468Y-14003984D01*
X9626849Y-13794460D02*
X9579230Y-13937317D01*
X9579230Y-13937317D02*
X9703039Y-13937317D01*
X9931611Y-14003984D02*
X9931611Y-13803984D01*
X10017325Y-14003984D02*
X10017325Y-13899222D01*
X10017325Y-13899222D02*
X10007801Y-13880174D01*
X10007801Y-13880174D02*
X9988753Y-13870650D01*
X9988753Y-13870650D02*
X9960182Y-13870650D01*
X9960182Y-13870650D02*
X9941134Y-13880174D01*
X9941134Y-13880174D02*
X9931611Y-13889698D01*
X10141134Y-14003984D02*
X10122087Y-13994460D01*
X10122087Y-13994460D02*
X10112563Y-13984936D01*
X10112563Y-13984936D02*
X10103039Y-13965888D01*
X10103039Y-13965888D02*
X10103039Y-13908746D01*
X10103039Y-13908746D02*
X10112563Y-13889698D01*
X10112563Y-13889698D02*
X10122087Y-13880174D01*
X10122087Y-13880174D02*
X10141134Y-13870650D01*
X10141134Y-13870650D02*
X10169706Y-13870650D01*
X10169706Y-13870650D02*
X10188753Y-13880174D01*
X10188753Y-13880174D02*
X10198277Y-13889698D01*
X10198277Y-13889698D02*
X10207801Y-13908746D01*
X10207801Y-13908746D02*
X10207801Y-13965888D01*
X10207801Y-13965888D02*
X10198277Y-13984936D01*
X10198277Y-13984936D02*
X10188753Y-13994460D01*
X10188753Y-13994460D02*
X10169706Y-14003984D01*
X10169706Y-14003984D02*
X10141134Y-14003984D01*
X10322087Y-14003984D02*
X10303039Y-13994460D01*
X10303039Y-13994460D02*
X10293515Y-13975412D01*
X10293515Y-13975412D02*
X10293515Y-13803984D01*
X10474468Y-13994460D02*
X10455420Y-14003984D01*
X10455420Y-14003984D02*
X10417325Y-14003984D01*
X10417325Y-14003984D02*
X10398277Y-13994460D01*
X10398277Y-13994460D02*
X10388753Y-13975412D01*
X10388753Y-13975412D02*
X10388753Y-13899222D01*
X10388753Y-13899222D02*
X10398277Y-13880174D01*
X10398277Y-13880174D02*
X10417325Y-13870650D01*
X10417325Y-13870650D02*
X10455420Y-13870650D01*
X10455420Y-13870650D02*
X10474468Y-13880174D01*
X10474468Y-13880174D02*
X10483992Y-13899222D01*
X10483992Y-13899222D02*
X10483992Y-13918269D01*
X10483992Y-13918269D02*
X10388753Y-13937317D01*
X10560182Y-13994460D02*
X10579230Y-14003984D01*
X10579230Y-14003984D02*
X10617325Y-14003984D01*
X10617325Y-14003984D02*
X10636373Y-13994460D01*
X10636373Y-13994460D02*
X10645896Y-13975412D01*
X10645896Y-13975412D02*
X10645896Y-13965888D01*
X10645896Y-13965888D02*
X10636373Y-13946841D01*
X10636373Y-13946841D02*
X10617325Y-13937317D01*
X10617325Y-13937317D02*
X10588753Y-13937317D01*
X10588753Y-13937317D02*
X10569706Y-13927793D01*
X10569706Y-13927793D02*
X10560182Y-13908746D01*
X10560182Y-13908746D02*
X10560182Y-13899222D01*
X10560182Y-13899222D02*
X10569706Y-13880174D01*
X10569706Y-13880174D02*
X10588753Y-13870650D01*
X10588753Y-13870650D02*
X10617325Y-13870650D01*
X10617325Y-13870650D02*
X10636373Y-13880174D01*
X10712563Y-14080174D02*
X10722087Y-14070650D01*
X10722087Y-14070650D02*
X10741134Y-14042079D01*
X10741134Y-14042079D02*
X10750658Y-14023031D01*
X10750658Y-14023031D02*
X10760182Y-13994460D01*
X10760182Y-13994460D02*
X10769706Y-13946841D01*
X10769706Y-13946841D02*
X10769706Y-13908746D01*
X10769706Y-13908746D02*
X10760182Y-13861127D01*
X10760182Y-13861127D02*
X10750658Y-13832555D01*
X10750658Y-13832555D02*
X10741134Y-13813508D01*
X10741134Y-13813508D02*
X10722087Y-13784936D01*
X10722087Y-13784936D02*
X10712563Y-13775412D01*
X11074468Y-14080174D02*
X11064944Y-14070650D01*
X11064944Y-14070650D02*
X11045896Y-14042079D01*
X11045896Y-14042079D02*
X11036373Y-14023031D01*
X11036373Y-14023031D02*
X11026849Y-13994460D01*
X11026849Y-13994460D02*
X11017325Y-13946841D01*
X11017325Y-13946841D02*
X11017325Y-13908746D01*
X11017325Y-13908746D02*
X11026849Y-13861127D01*
X11026849Y-13861127D02*
X11036373Y-13832555D01*
X11036373Y-13832555D02*
X11045896Y-13813508D01*
X11045896Y-13813508D02*
X11064944Y-13784936D01*
X11064944Y-13784936D02*
X11074468Y-13775412D01*
X11150658Y-13870650D02*
X11150658Y-14003984D01*
X11150658Y-13889698D02*
X11160182Y-13880174D01*
X11160182Y-13880174D02*
X11179230Y-13870650D01*
X11179230Y-13870650D02*
X11207801Y-13870650D01*
X11207801Y-13870650D02*
X11226849Y-13880174D01*
X11226849Y-13880174D02*
X11236372Y-13899222D01*
X11236372Y-13899222D02*
X11236372Y-14003984D01*
X11360182Y-14003984D02*
X11341134Y-13994460D01*
X11341134Y-13994460D02*
X11331611Y-13984936D01*
X11331611Y-13984936D02*
X11322087Y-13965888D01*
X11322087Y-13965888D02*
X11322087Y-13908746D01*
X11322087Y-13908746D02*
X11331611Y-13889698D01*
X11331611Y-13889698D02*
X11341134Y-13880174D01*
X11341134Y-13880174D02*
X11360182Y-13870650D01*
X11360182Y-13870650D02*
X11388753Y-13870650D01*
X11388753Y-13870650D02*
X11407801Y-13880174D01*
X11407801Y-13880174D02*
X11417325Y-13889698D01*
X11417325Y-13889698D02*
X11426849Y-13908746D01*
X11426849Y-13908746D02*
X11426849Y-13965888D01*
X11426849Y-13965888D02*
X11417325Y-13984936D01*
X11417325Y-13984936D02*
X11407801Y-13994460D01*
X11407801Y-13994460D02*
X11388753Y-14003984D01*
X11388753Y-14003984D02*
X11360182Y-14003984D01*
X11483992Y-13870650D02*
X11560182Y-13870650D01*
X11512563Y-13803984D02*
X11512563Y-13975412D01*
X11512563Y-13975412D02*
X11522087Y-13994460D01*
X11522087Y-13994460D02*
X11541134Y-14003984D01*
X11541134Y-14003984D02*
X11560182Y-14003984D01*
X11779230Y-13870650D02*
X11779230Y-14070650D01*
X11779230Y-13880174D02*
X11798277Y-13870650D01*
X11798277Y-13870650D02*
X11836373Y-13870650D01*
X11836373Y-13870650D02*
X11855420Y-13880174D01*
X11855420Y-13880174D02*
X11864944Y-13889698D01*
X11864944Y-13889698D02*
X11874468Y-13908746D01*
X11874468Y-13908746D02*
X11874468Y-13965888D01*
X11874468Y-13965888D02*
X11864944Y-13984936D01*
X11864944Y-13984936D02*
X11855420Y-13994460D01*
X11855420Y-13994460D02*
X11836373Y-14003984D01*
X11836373Y-14003984D02*
X11798277Y-14003984D01*
X11798277Y-14003984D02*
X11779230Y-13994460D01*
X11988753Y-14003984D02*
X11969706Y-13994460D01*
X11969706Y-13994460D02*
X11960182Y-13975412D01*
X11960182Y-13975412D02*
X11960182Y-13803984D01*
X12150658Y-14003984D02*
X12150658Y-13899222D01*
X12150658Y-13899222D02*
X12141134Y-13880174D01*
X12141134Y-13880174D02*
X12122087Y-13870650D01*
X12122087Y-13870650D02*
X12083992Y-13870650D01*
X12083992Y-13870650D02*
X12064944Y-13880174D01*
X12150658Y-13994460D02*
X12131611Y-14003984D01*
X12131611Y-14003984D02*
X12083992Y-14003984D01*
X12083992Y-14003984D02*
X12064944Y-13994460D01*
X12064944Y-13994460D02*
X12055420Y-13975412D01*
X12055420Y-13975412D02*
X12055420Y-13956365D01*
X12055420Y-13956365D02*
X12064944Y-13937317D01*
X12064944Y-13937317D02*
X12083992Y-13927793D01*
X12083992Y-13927793D02*
X12131611Y-13927793D01*
X12131611Y-13927793D02*
X12150658Y-13918269D01*
X12217325Y-13870650D02*
X12293515Y-13870650D01*
X12245896Y-13803984D02*
X12245896Y-13975412D01*
X12245896Y-13975412D02*
X12255420Y-13994460D01*
X12255420Y-13994460D02*
X12274468Y-14003984D01*
X12274468Y-14003984D02*
X12293515Y-14003984D01*
X12436373Y-13994460D02*
X12417325Y-14003984D01*
X12417325Y-14003984D02*
X12379230Y-14003984D01*
X12379230Y-14003984D02*
X12360182Y-13994460D01*
X12360182Y-13994460D02*
X12350658Y-13975412D01*
X12350658Y-13975412D02*
X12350658Y-13899222D01*
X12350658Y-13899222D02*
X12360182Y-13880174D01*
X12360182Y-13880174D02*
X12379230Y-13870650D01*
X12379230Y-13870650D02*
X12417325Y-13870650D01*
X12417325Y-13870650D02*
X12436373Y-13880174D01*
X12436373Y-13880174D02*
X12445896Y-13899222D01*
X12445896Y-13899222D02*
X12445896Y-13918269D01*
X12445896Y-13918269D02*
X12350658Y-13937317D01*
X12617325Y-14003984D02*
X12617325Y-13803984D01*
X12617325Y-13994460D02*
X12598277Y-14003984D01*
X12598277Y-14003984D02*
X12560182Y-14003984D01*
X12560182Y-14003984D02*
X12541134Y-13994460D01*
X12541134Y-13994460D02*
X12531611Y-13984936D01*
X12531611Y-13984936D02*
X12522087Y-13965888D01*
X12522087Y-13965888D02*
X12522087Y-13908746D01*
X12522087Y-13908746D02*
X12531611Y-13889698D01*
X12531611Y-13889698D02*
X12541134Y-13880174D01*
X12541134Y-13880174D02*
X12560182Y-13870650D01*
X12560182Y-13870650D02*
X12598277Y-13870650D01*
X12598277Y-13870650D02*
X12617325Y-13880174D01*
X12693515Y-14080174D02*
X12703039Y-14070650D01*
X12703039Y-14070650D02*
X12722087Y-14042079D01*
X12722087Y-14042079D02*
X12731611Y-14023031D01*
X12731611Y-14023031D02*
X12741134Y-13994460D01*
X12741134Y-13994460D02*
X12750658Y-13946841D01*
X12750658Y-13946841D02*
X12750658Y-13908746D01*
X12750658Y-13908746D02*
X12741134Y-13861127D01*
X12741134Y-13861127D02*
X12731611Y-13832555D01*
X12731611Y-13832555D02*
X12722087Y-13813508D01*
X12722087Y-13813508D02*
X12703039Y-13784936D01*
X12703039Y-13784936D02*
X12693515Y-13775412D01*
M02*
