M48
; DRILL file {KiCad 9.0.3} date 2025-11-20T17:32:18-0600
; FORMAT={-:-/ absolute / metric / decimal}
; #@! TF.CreationDate,2025-11-20T17:32:18-06:00
; #@! TF.GenerationSoftware,Kicad,Pcbnew,9.0.3
; #@! TF.FileFunction,Plated,1,4,PTH
FMAT,2
METRIC
; #@! TA.AperFunction,Plated,PTH,ViaDrill
T1C0.300
; #@! TA.AperFunction,Plated,PTH,ViaDrill
T2C0.400
; #@! TA.AperFunction,Plated,PTH,ComponentDrill
T3C1.000
%
G90
G05
T1
X166.2Y-112.2
X166.9Y-91.6
X169.1Y-78.7
X169.1Y-81.6
X169.1Y-84.5
X169.1Y-87.4
X169.2Y-67.1
X169.2Y-70.0
X169.2Y-72.945
X169.2Y-75.8
X173.3Y-81.6
X173.45Y-84.65
X173.5Y-70.5
X173.6Y-72.9
X173.6Y-78.8
X173.7Y-75.8
X173.7Y-87.45
X174.2Y-107.6
X179.9Y-95.6
X183.2Y-79.9
X183.675Y-88.4
X184.6Y-69.7
X185.3Y-101.4
X185.3Y-108.9
X185.3Y-114.4
X189.0Y-79.9
X189.2Y-103.4
X189.6Y-107.1
X189.7Y-114.6
X189.8Y-101.2
X190.1Y-109.3
T2
X173.5Y-103.1
X173.5Y-119.1
X175.5Y-103.1
X175.5Y-119.1
X177.5Y-103.1
X177.5Y-111.1
X177.5Y-119.1
X179.5Y-103.1
X179.5Y-111.1
X179.5Y-119.1
X181.5Y-119.1
X189.5Y-95.1
X189.5Y-119.1
X191.5Y-73.1
X191.5Y-75.1
X191.5Y-77.1
X191.5Y-79.1
X191.5Y-81.1
X191.5Y-83.1
X191.5Y-85.1
X193.5Y-73.1
X193.5Y-75.1
X193.5Y-77.1
X193.5Y-79.1
X193.5Y-81.1
X193.5Y-83.1
X193.5Y-85.1
X193.5Y-115.1
T3
X163.4Y-68.175
X163.4Y-70.715
X163.4Y-73.255
X163.4Y-75.795
X163.4Y-78.335
X163.4Y-80.875
X163.4Y-83.415
X163.4Y-85.955
X163.4Y-88.495
X163.4Y-91.035
X163.4Y-93.575
X163.4Y-96.115
X163.4Y-98.655
X163.4Y-101.195
X163.4Y-103.735
X163.4Y-106.275
X163.4Y-108.815
X163.4Y-111.355
X163.4Y-113.895
X163.4Y-116.435
X193.9Y-88.5
X193.9Y-91.04
X193.9Y-93.58
X193.9Y-96.12
X193.9Y-98.66
X193.9Y-101.2
X193.9Y-103.74
X193.9Y-106.28
X193.9Y-108.82
X193.9Y-111.36
M30
