G04 #@! TF.GenerationSoftware,KiCad,Pcbnew,9.0.3*
G04 #@! TF.CreationDate,2025-11-20T17:31:48-06:00*
G04 #@! TF.ProjectId,DAQ_module,4441515f-6d6f-4647-956c-652e6b696361,rev?*
G04 #@! TF.SameCoordinates,Original*
G04 #@! TF.FileFunction,Legend,Bot*
G04 #@! TF.FilePolarity,Positive*
%FSLAX46Y46*%
G04 Gerber Fmt 4.6, Leading zero omitted, Abs format (unit mm)*
G04 Created by KiCad (PCBNEW 9.0.3) date 2025-11-20 17:31:48*
%MOMM*%
%LPD*%
G01*
G04 APERTURE LIST*
G04 Aperture macros list*
%AMRoundRect*
0 Rectangle with rounded corners*
0 $1 Rounding radius*
0 $2 $3 $4 $5 $6 $7 $8 $9 X,Y pos of 4 corners*
0 Add a 4 corners polygon primitive as box body*
4,1,4,$2,$3,$4,$5,$6,$7,$8,$9,$2,$3,0*
0 Add four circle primitives for the rounded corners*
1,1,$1+$1,$2,$3*
1,1,$1+$1,$4,$5*
1,1,$1+$1,$6,$7*
1,1,$1+$1,$8,$9*
0 Add four rect primitives between the rounded corners*
20,1,$1+$1,$2,$3,$4,$5,0*
20,1,$1+$1,$4,$5,$6,$7,0*
20,1,$1+$1,$6,$7,$8,$9,0*
20,1,$1+$1,$8,$9,$2,$3,0*%
G04 Aperture macros list end*
%ADD10C,0.150000*%
%ADD11C,0.120000*%
%ADD12C,2.200000*%
%ADD13R,1.700000X1.700000*%
%ADD14C,1.700000*%
%ADD15RoundRect,0.225000X0.225000X0.250000X-0.225000X0.250000X-0.225000X-0.250000X0.225000X-0.250000X0*%
%ADD16RoundRect,0.225000X0.250000X-0.225000X0.250000X0.225000X-0.250000X0.225000X-0.250000X-0.225000X0*%
%ADD17RoundRect,0.250000X-0.475000X0.250000X-0.475000X-0.250000X0.475000X-0.250000X0.475000X0.250000X0*%
%ADD18RoundRect,0.225000X-0.225000X-0.250000X0.225000X-0.250000X0.225000X0.250000X-0.225000X0.250000X0*%
%ADD19RoundRect,0.250000X1.100000X-0.325000X1.100000X0.325000X-1.100000X0.325000X-1.100000X-0.325000X0*%
%ADD20RoundRect,0.225000X-0.250000X0.225000X-0.250000X-0.225000X0.250000X-0.225000X0.250000X0.225000X0*%
%ADD21RoundRect,0.200000X0.275000X-0.200000X0.275000X0.200000X-0.275000X0.200000X-0.275000X-0.200000X0*%
G04 APERTURE END LIST*
D10*
X171842857Y-80529580D02*
X171890476Y-80577200D01*
X171890476Y-80577200D02*
X172033333Y-80624819D01*
X172033333Y-80624819D02*
X172128571Y-80624819D01*
X172128571Y-80624819D02*
X172271428Y-80577200D01*
X172271428Y-80577200D02*
X172366666Y-80481961D01*
X172366666Y-80481961D02*
X172414285Y-80386723D01*
X172414285Y-80386723D02*
X172461904Y-80196247D01*
X172461904Y-80196247D02*
X172461904Y-80053390D01*
X172461904Y-80053390D02*
X172414285Y-79862914D01*
X172414285Y-79862914D02*
X172366666Y-79767676D01*
X172366666Y-79767676D02*
X172271428Y-79672438D01*
X172271428Y-79672438D02*
X172128571Y-79624819D01*
X172128571Y-79624819D02*
X172033333Y-79624819D01*
X172033333Y-79624819D02*
X171890476Y-79672438D01*
X171890476Y-79672438D02*
X171842857Y-79720057D01*
X171461904Y-79720057D02*
X171414285Y-79672438D01*
X171414285Y-79672438D02*
X171319047Y-79624819D01*
X171319047Y-79624819D02*
X171080952Y-79624819D01*
X171080952Y-79624819D02*
X170985714Y-79672438D01*
X170985714Y-79672438D02*
X170938095Y-79720057D01*
X170938095Y-79720057D02*
X170890476Y-79815295D01*
X170890476Y-79815295D02*
X170890476Y-79910533D01*
X170890476Y-79910533D02*
X170938095Y-80053390D01*
X170938095Y-80053390D02*
X171509523Y-80624819D01*
X171509523Y-80624819D02*
X170890476Y-80624819D01*
X170033333Y-79958152D02*
X170033333Y-80624819D01*
X170271428Y-79577200D02*
X170509523Y-80291485D01*
X170509523Y-80291485D02*
X169890476Y-80291485D01*
X187014580Y-98182142D02*
X187062200Y-98134523D01*
X187062200Y-98134523D02*
X187109819Y-97991666D01*
X187109819Y-97991666D02*
X187109819Y-97896428D01*
X187109819Y-97896428D02*
X187062200Y-97753571D01*
X187062200Y-97753571D02*
X186966961Y-97658333D01*
X186966961Y-97658333D02*
X186871723Y-97610714D01*
X186871723Y-97610714D02*
X186681247Y-97563095D01*
X186681247Y-97563095D02*
X186538390Y-97563095D01*
X186538390Y-97563095D02*
X186347914Y-97610714D01*
X186347914Y-97610714D02*
X186252676Y-97658333D01*
X186252676Y-97658333D02*
X186157438Y-97753571D01*
X186157438Y-97753571D02*
X186109819Y-97896428D01*
X186109819Y-97896428D02*
X186109819Y-97991666D01*
X186109819Y-97991666D02*
X186157438Y-98134523D01*
X186157438Y-98134523D02*
X186205057Y-98182142D01*
X186205057Y-98563095D02*
X186157438Y-98610714D01*
X186157438Y-98610714D02*
X186109819Y-98705952D01*
X186109819Y-98705952D02*
X186109819Y-98944047D01*
X186109819Y-98944047D02*
X186157438Y-99039285D01*
X186157438Y-99039285D02*
X186205057Y-99086904D01*
X186205057Y-99086904D02*
X186300295Y-99134523D01*
X186300295Y-99134523D02*
X186395533Y-99134523D01*
X186395533Y-99134523D02*
X186538390Y-99086904D01*
X186538390Y-99086904D02*
X187109819Y-98515476D01*
X187109819Y-98515476D02*
X187109819Y-99134523D01*
X186109819Y-99753571D02*
X186109819Y-99848809D01*
X186109819Y-99848809D02*
X186157438Y-99944047D01*
X186157438Y-99944047D02*
X186205057Y-99991666D01*
X186205057Y-99991666D02*
X186300295Y-100039285D01*
X186300295Y-100039285D02*
X186490771Y-100086904D01*
X186490771Y-100086904D02*
X186728866Y-100086904D01*
X186728866Y-100086904D02*
X186919342Y-100039285D01*
X186919342Y-100039285D02*
X187014580Y-99991666D01*
X187014580Y-99991666D02*
X187062200Y-99944047D01*
X187062200Y-99944047D02*
X187109819Y-99848809D01*
X187109819Y-99848809D02*
X187109819Y-99753571D01*
X187109819Y-99753571D02*
X187062200Y-99658333D01*
X187062200Y-99658333D02*
X187014580Y-99610714D01*
X187014580Y-99610714D02*
X186919342Y-99563095D01*
X186919342Y-99563095D02*
X186728866Y-99515476D01*
X186728866Y-99515476D02*
X186490771Y-99515476D01*
X186490771Y-99515476D02*
X186300295Y-99563095D01*
X186300295Y-99563095D02*
X186205057Y-99610714D01*
X186205057Y-99610714D02*
X186157438Y-99658333D01*
X186157438Y-99658333D02*
X186109819Y-99753571D01*
X188116666Y-80319580D02*
X188164285Y-80367200D01*
X188164285Y-80367200D02*
X188307142Y-80414819D01*
X188307142Y-80414819D02*
X188402380Y-80414819D01*
X188402380Y-80414819D02*
X188545237Y-80367200D01*
X188545237Y-80367200D02*
X188640475Y-80271961D01*
X188640475Y-80271961D02*
X188688094Y-80176723D01*
X188688094Y-80176723D02*
X188735713Y-79986247D01*
X188735713Y-79986247D02*
X188735713Y-79843390D01*
X188735713Y-79843390D02*
X188688094Y-79652914D01*
X188688094Y-79652914D02*
X188640475Y-79557676D01*
X188640475Y-79557676D02*
X188545237Y-79462438D01*
X188545237Y-79462438D02*
X188402380Y-79414819D01*
X188402380Y-79414819D02*
X188307142Y-79414819D01*
X188307142Y-79414819D02*
X188164285Y-79462438D01*
X188164285Y-79462438D02*
X188116666Y-79510057D01*
X187259523Y-79414819D02*
X187449999Y-79414819D01*
X187449999Y-79414819D02*
X187545237Y-79462438D01*
X187545237Y-79462438D02*
X187592856Y-79510057D01*
X187592856Y-79510057D02*
X187688094Y-79652914D01*
X187688094Y-79652914D02*
X187735713Y-79843390D01*
X187735713Y-79843390D02*
X187735713Y-80224342D01*
X187735713Y-80224342D02*
X187688094Y-80319580D01*
X187688094Y-80319580D02*
X187640475Y-80367200D01*
X187640475Y-80367200D02*
X187545237Y-80414819D01*
X187545237Y-80414819D02*
X187354761Y-80414819D01*
X187354761Y-80414819D02*
X187259523Y-80367200D01*
X187259523Y-80367200D02*
X187211904Y-80319580D01*
X187211904Y-80319580D02*
X187164285Y-80224342D01*
X187164285Y-80224342D02*
X187164285Y-79986247D01*
X187164285Y-79986247D02*
X187211904Y-79891009D01*
X187211904Y-79891009D02*
X187259523Y-79843390D01*
X187259523Y-79843390D02*
X187354761Y-79795771D01*
X187354761Y-79795771D02*
X187545237Y-79795771D01*
X187545237Y-79795771D02*
X187640475Y-79843390D01*
X187640475Y-79843390D02*
X187688094Y-79891009D01*
X187688094Y-79891009D02*
X187735713Y-79986247D01*
X171942857Y-68974580D02*
X171990476Y-69022200D01*
X171990476Y-69022200D02*
X172133333Y-69069819D01*
X172133333Y-69069819D02*
X172228571Y-69069819D01*
X172228571Y-69069819D02*
X172371428Y-69022200D01*
X172371428Y-69022200D02*
X172466666Y-68926961D01*
X172466666Y-68926961D02*
X172514285Y-68831723D01*
X172514285Y-68831723D02*
X172561904Y-68641247D01*
X172561904Y-68641247D02*
X172561904Y-68498390D01*
X172561904Y-68498390D02*
X172514285Y-68307914D01*
X172514285Y-68307914D02*
X172466666Y-68212676D01*
X172466666Y-68212676D02*
X172371428Y-68117438D01*
X172371428Y-68117438D02*
X172228571Y-68069819D01*
X172228571Y-68069819D02*
X172133333Y-68069819D01*
X172133333Y-68069819D02*
X171990476Y-68117438D01*
X171990476Y-68117438D02*
X171942857Y-68165057D01*
X170990476Y-69069819D02*
X171561904Y-69069819D01*
X171276190Y-69069819D02*
X171276190Y-68069819D01*
X171276190Y-68069819D02*
X171371428Y-68212676D01*
X171371428Y-68212676D02*
X171466666Y-68307914D01*
X171466666Y-68307914D02*
X171561904Y-68355533D01*
X170657142Y-68069819D02*
X169990476Y-68069819D01*
X169990476Y-68069819D02*
X170419047Y-69069819D01*
X183654580Y-85657142D02*
X183702200Y-85609523D01*
X183702200Y-85609523D02*
X183749819Y-85466666D01*
X183749819Y-85466666D02*
X183749819Y-85371428D01*
X183749819Y-85371428D02*
X183702200Y-85228571D01*
X183702200Y-85228571D02*
X183606961Y-85133333D01*
X183606961Y-85133333D02*
X183511723Y-85085714D01*
X183511723Y-85085714D02*
X183321247Y-85038095D01*
X183321247Y-85038095D02*
X183178390Y-85038095D01*
X183178390Y-85038095D02*
X182987914Y-85085714D01*
X182987914Y-85085714D02*
X182892676Y-85133333D01*
X182892676Y-85133333D02*
X182797438Y-85228571D01*
X182797438Y-85228571D02*
X182749819Y-85371428D01*
X182749819Y-85371428D02*
X182749819Y-85466666D01*
X182749819Y-85466666D02*
X182797438Y-85609523D01*
X182797438Y-85609523D02*
X182845057Y-85657142D01*
X183749819Y-86609523D02*
X183749819Y-86038095D01*
X183749819Y-86323809D02*
X182749819Y-86323809D01*
X182749819Y-86323809D02*
X182892676Y-86228571D01*
X182892676Y-86228571D02*
X182987914Y-86133333D01*
X182987914Y-86133333D02*
X183035533Y-86038095D01*
X182845057Y-86990476D02*
X182797438Y-87038095D01*
X182797438Y-87038095D02*
X182749819Y-87133333D01*
X182749819Y-87133333D02*
X182749819Y-87371428D01*
X182749819Y-87371428D02*
X182797438Y-87466666D01*
X182797438Y-87466666D02*
X182845057Y-87514285D01*
X182845057Y-87514285D02*
X182940295Y-87561904D01*
X182940295Y-87561904D02*
X183035533Y-87561904D01*
X183035533Y-87561904D02*
X183178390Y-87514285D01*
X183178390Y-87514285D02*
X183749819Y-86942857D01*
X183749819Y-86942857D02*
X183749819Y-87561904D01*
X182091666Y-83189580D02*
X182139285Y-83237200D01*
X182139285Y-83237200D02*
X182282142Y-83284819D01*
X182282142Y-83284819D02*
X182377380Y-83284819D01*
X182377380Y-83284819D02*
X182520237Y-83237200D01*
X182520237Y-83237200D02*
X182615475Y-83141961D01*
X182615475Y-83141961D02*
X182663094Y-83046723D01*
X182663094Y-83046723D02*
X182710713Y-82856247D01*
X182710713Y-82856247D02*
X182710713Y-82713390D01*
X182710713Y-82713390D02*
X182663094Y-82522914D01*
X182663094Y-82522914D02*
X182615475Y-82427676D01*
X182615475Y-82427676D02*
X182520237Y-82332438D01*
X182520237Y-82332438D02*
X182377380Y-82284819D01*
X182377380Y-82284819D02*
X182282142Y-82284819D01*
X182282142Y-82284819D02*
X182139285Y-82332438D01*
X182139285Y-82332438D02*
X182091666Y-82380057D01*
X181758332Y-82284819D02*
X181139285Y-82284819D01*
X181139285Y-82284819D02*
X181472618Y-82665771D01*
X181472618Y-82665771D02*
X181329761Y-82665771D01*
X181329761Y-82665771D02*
X181234523Y-82713390D01*
X181234523Y-82713390D02*
X181186904Y-82761009D01*
X181186904Y-82761009D02*
X181139285Y-82856247D01*
X181139285Y-82856247D02*
X181139285Y-83094342D01*
X181139285Y-83094342D02*
X181186904Y-83189580D01*
X181186904Y-83189580D02*
X181234523Y-83237200D01*
X181234523Y-83237200D02*
X181329761Y-83284819D01*
X181329761Y-83284819D02*
X181615475Y-83284819D01*
X181615475Y-83284819D02*
X181710713Y-83237200D01*
X181710713Y-83237200D02*
X181758332Y-83189580D01*
X174842857Y-66959580D02*
X174890476Y-67007200D01*
X174890476Y-67007200D02*
X175033333Y-67054819D01*
X175033333Y-67054819D02*
X175128571Y-67054819D01*
X175128571Y-67054819D02*
X175271428Y-67007200D01*
X175271428Y-67007200D02*
X175366666Y-66911961D01*
X175366666Y-66911961D02*
X175414285Y-66816723D01*
X175414285Y-66816723D02*
X175461904Y-66626247D01*
X175461904Y-66626247D02*
X175461904Y-66483390D01*
X175461904Y-66483390D02*
X175414285Y-66292914D01*
X175414285Y-66292914D02*
X175366666Y-66197676D01*
X175366666Y-66197676D02*
X175271428Y-66102438D01*
X175271428Y-66102438D02*
X175128571Y-66054819D01*
X175128571Y-66054819D02*
X175033333Y-66054819D01*
X175033333Y-66054819D02*
X174890476Y-66102438D01*
X174890476Y-66102438D02*
X174842857Y-66150057D01*
X173890476Y-67054819D02*
X174461904Y-67054819D01*
X174176190Y-67054819D02*
X174176190Y-66054819D01*
X174176190Y-66054819D02*
X174271428Y-66197676D01*
X174271428Y-66197676D02*
X174366666Y-66292914D01*
X174366666Y-66292914D02*
X174461904Y-66340533D01*
X172938095Y-67054819D02*
X173509523Y-67054819D01*
X173223809Y-67054819D02*
X173223809Y-66054819D01*
X173223809Y-66054819D02*
X173319047Y-66197676D01*
X173319047Y-66197676D02*
X173414285Y-66292914D01*
X173414285Y-66292914D02*
X173509523Y-66340533D01*
X171917857Y-71874580D02*
X171965476Y-71922200D01*
X171965476Y-71922200D02*
X172108333Y-71969819D01*
X172108333Y-71969819D02*
X172203571Y-71969819D01*
X172203571Y-71969819D02*
X172346428Y-71922200D01*
X172346428Y-71922200D02*
X172441666Y-71826961D01*
X172441666Y-71826961D02*
X172489285Y-71731723D01*
X172489285Y-71731723D02*
X172536904Y-71541247D01*
X172536904Y-71541247D02*
X172536904Y-71398390D01*
X172536904Y-71398390D02*
X172489285Y-71207914D01*
X172489285Y-71207914D02*
X172441666Y-71112676D01*
X172441666Y-71112676D02*
X172346428Y-71017438D01*
X172346428Y-71017438D02*
X172203571Y-70969819D01*
X172203571Y-70969819D02*
X172108333Y-70969819D01*
X172108333Y-70969819D02*
X171965476Y-71017438D01*
X171965476Y-71017438D02*
X171917857Y-71065057D01*
X171536904Y-71065057D02*
X171489285Y-71017438D01*
X171489285Y-71017438D02*
X171394047Y-70969819D01*
X171394047Y-70969819D02*
X171155952Y-70969819D01*
X171155952Y-70969819D02*
X171060714Y-71017438D01*
X171060714Y-71017438D02*
X171013095Y-71065057D01*
X171013095Y-71065057D02*
X170965476Y-71160295D01*
X170965476Y-71160295D02*
X170965476Y-71255533D01*
X170965476Y-71255533D02*
X171013095Y-71398390D01*
X171013095Y-71398390D02*
X171584523Y-71969819D01*
X171584523Y-71969819D02*
X170965476Y-71969819D01*
X170013095Y-71969819D02*
X170584523Y-71969819D01*
X170298809Y-71969819D02*
X170298809Y-70969819D01*
X170298809Y-70969819D02*
X170394047Y-71112676D01*
X170394047Y-71112676D02*
X170489285Y-71207914D01*
X170489285Y-71207914D02*
X170584523Y-71255533D01*
X189159580Y-72857142D02*
X189207200Y-72809523D01*
X189207200Y-72809523D02*
X189254819Y-72666666D01*
X189254819Y-72666666D02*
X189254819Y-72571428D01*
X189254819Y-72571428D02*
X189207200Y-72428571D01*
X189207200Y-72428571D02*
X189111961Y-72333333D01*
X189111961Y-72333333D02*
X189016723Y-72285714D01*
X189016723Y-72285714D02*
X188826247Y-72238095D01*
X188826247Y-72238095D02*
X188683390Y-72238095D01*
X188683390Y-72238095D02*
X188492914Y-72285714D01*
X188492914Y-72285714D02*
X188397676Y-72333333D01*
X188397676Y-72333333D02*
X188302438Y-72428571D01*
X188302438Y-72428571D02*
X188254819Y-72571428D01*
X188254819Y-72571428D02*
X188254819Y-72666666D01*
X188254819Y-72666666D02*
X188302438Y-72809523D01*
X188302438Y-72809523D02*
X188350057Y-72857142D01*
X189254819Y-73809523D02*
X189254819Y-73238095D01*
X189254819Y-73523809D02*
X188254819Y-73523809D01*
X188254819Y-73523809D02*
X188397676Y-73428571D01*
X188397676Y-73428571D02*
X188492914Y-73333333D01*
X188492914Y-73333333D02*
X188540533Y-73238095D01*
X188683390Y-74380952D02*
X188635771Y-74285714D01*
X188635771Y-74285714D02*
X188588152Y-74238095D01*
X188588152Y-74238095D02*
X188492914Y-74190476D01*
X188492914Y-74190476D02*
X188445295Y-74190476D01*
X188445295Y-74190476D02*
X188350057Y-74238095D01*
X188350057Y-74238095D02*
X188302438Y-74285714D01*
X188302438Y-74285714D02*
X188254819Y-74380952D01*
X188254819Y-74380952D02*
X188254819Y-74571428D01*
X188254819Y-74571428D02*
X188302438Y-74666666D01*
X188302438Y-74666666D02*
X188350057Y-74714285D01*
X188350057Y-74714285D02*
X188445295Y-74761904D01*
X188445295Y-74761904D02*
X188492914Y-74761904D01*
X188492914Y-74761904D02*
X188588152Y-74714285D01*
X188588152Y-74714285D02*
X188635771Y-74666666D01*
X188635771Y-74666666D02*
X188683390Y-74571428D01*
X188683390Y-74571428D02*
X188683390Y-74380952D01*
X188683390Y-74380952D02*
X188731009Y-74285714D01*
X188731009Y-74285714D02*
X188778628Y-74238095D01*
X188778628Y-74238095D02*
X188873866Y-74190476D01*
X188873866Y-74190476D02*
X189064342Y-74190476D01*
X189064342Y-74190476D02*
X189159580Y-74238095D01*
X189159580Y-74238095D02*
X189207200Y-74285714D01*
X189207200Y-74285714D02*
X189254819Y-74380952D01*
X189254819Y-74380952D02*
X189254819Y-74571428D01*
X189254819Y-74571428D02*
X189207200Y-74666666D01*
X189207200Y-74666666D02*
X189159580Y-74714285D01*
X189159580Y-74714285D02*
X189064342Y-74761904D01*
X189064342Y-74761904D02*
X188873866Y-74761904D01*
X188873866Y-74761904D02*
X188778628Y-74714285D01*
X188778628Y-74714285D02*
X188731009Y-74666666D01*
X188731009Y-74666666D02*
X188683390Y-74571428D01*
X171842857Y-74729580D02*
X171890476Y-74777200D01*
X171890476Y-74777200D02*
X172033333Y-74824819D01*
X172033333Y-74824819D02*
X172128571Y-74824819D01*
X172128571Y-74824819D02*
X172271428Y-74777200D01*
X172271428Y-74777200D02*
X172366666Y-74681961D01*
X172366666Y-74681961D02*
X172414285Y-74586723D01*
X172414285Y-74586723D02*
X172461904Y-74396247D01*
X172461904Y-74396247D02*
X172461904Y-74253390D01*
X172461904Y-74253390D02*
X172414285Y-74062914D01*
X172414285Y-74062914D02*
X172366666Y-73967676D01*
X172366666Y-73967676D02*
X172271428Y-73872438D01*
X172271428Y-73872438D02*
X172128571Y-73824819D01*
X172128571Y-73824819D02*
X172033333Y-73824819D01*
X172033333Y-73824819D02*
X171890476Y-73872438D01*
X171890476Y-73872438D02*
X171842857Y-73920057D01*
X171461904Y-73920057D02*
X171414285Y-73872438D01*
X171414285Y-73872438D02*
X171319047Y-73824819D01*
X171319047Y-73824819D02*
X171080952Y-73824819D01*
X171080952Y-73824819D02*
X170985714Y-73872438D01*
X170985714Y-73872438D02*
X170938095Y-73920057D01*
X170938095Y-73920057D02*
X170890476Y-74015295D01*
X170890476Y-74015295D02*
X170890476Y-74110533D01*
X170890476Y-74110533D02*
X170938095Y-74253390D01*
X170938095Y-74253390D02*
X171509523Y-74824819D01*
X171509523Y-74824819D02*
X170890476Y-74824819D01*
X170509523Y-73920057D02*
X170461904Y-73872438D01*
X170461904Y-73872438D02*
X170366666Y-73824819D01*
X170366666Y-73824819D02*
X170128571Y-73824819D01*
X170128571Y-73824819D02*
X170033333Y-73872438D01*
X170033333Y-73872438D02*
X169985714Y-73920057D01*
X169985714Y-73920057D02*
X169938095Y-74015295D01*
X169938095Y-74015295D02*
X169938095Y-74110533D01*
X169938095Y-74110533D02*
X169985714Y-74253390D01*
X169985714Y-74253390D02*
X170557142Y-74824819D01*
X170557142Y-74824819D02*
X169938095Y-74824819D01*
X171817857Y-86329580D02*
X171865476Y-86377200D01*
X171865476Y-86377200D02*
X172008333Y-86424819D01*
X172008333Y-86424819D02*
X172103571Y-86424819D01*
X172103571Y-86424819D02*
X172246428Y-86377200D01*
X172246428Y-86377200D02*
X172341666Y-86281961D01*
X172341666Y-86281961D02*
X172389285Y-86186723D01*
X172389285Y-86186723D02*
X172436904Y-85996247D01*
X172436904Y-85996247D02*
X172436904Y-85853390D01*
X172436904Y-85853390D02*
X172389285Y-85662914D01*
X172389285Y-85662914D02*
X172341666Y-85567676D01*
X172341666Y-85567676D02*
X172246428Y-85472438D01*
X172246428Y-85472438D02*
X172103571Y-85424819D01*
X172103571Y-85424819D02*
X172008333Y-85424819D01*
X172008333Y-85424819D02*
X171865476Y-85472438D01*
X171865476Y-85472438D02*
X171817857Y-85520057D01*
X171436904Y-85520057D02*
X171389285Y-85472438D01*
X171389285Y-85472438D02*
X171294047Y-85424819D01*
X171294047Y-85424819D02*
X171055952Y-85424819D01*
X171055952Y-85424819D02*
X170960714Y-85472438D01*
X170960714Y-85472438D02*
X170913095Y-85520057D01*
X170913095Y-85520057D02*
X170865476Y-85615295D01*
X170865476Y-85615295D02*
X170865476Y-85710533D01*
X170865476Y-85710533D02*
X170913095Y-85853390D01*
X170913095Y-85853390D02*
X171484523Y-86424819D01*
X171484523Y-86424819D02*
X170865476Y-86424819D01*
X170008333Y-85424819D02*
X170198809Y-85424819D01*
X170198809Y-85424819D02*
X170294047Y-85472438D01*
X170294047Y-85472438D02*
X170341666Y-85520057D01*
X170341666Y-85520057D02*
X170436904Y-85662914D01*
X170436904Y-85662914D02*
X170484523Y-85853390D01*
X170484523Y-85853390D02*
X170484523Y-86234342D01*
X170484523Y-86234342D02*
X170436904Y-86329580D01*
X170436904Y-86329580D02*
X170389285Y-86377200D01*
X170389285Y-86377200D02*
X170294047Y-86424819D01*
X170294047Y-86424819D02*
X170103571Y-86424819D01*
X170103571Y-86424819D02*
X170008333Y-86377200D01*
X170008333Y-86377200D02*
X169960714Y-86329580D01*
X169960714Y-86329580D02*
X169913095Y-86234342D01*
X169913095Y-86234342D02*
X169913095Y-85996247D01*
X169913095Y-85996247D02*
X169960714Y-85901009D01*
X169960714Y-85901009D02*
X170008333Y-85853390D01*
X170008333Y-85853390D02*
X170103571Y-85805771D01*
X170103571Y-85805771D02*
X170294047Y-85805771D01*
X170294047Y-85805771D02*
X170389285Y-85853390D01*
X170389285Y-85853390D02*
X170436904Y-85901009D01*
X170436904Y-85901009D02*
X170484523Y-85996247D01*
X171817857Y-83429580D02*
X171865476Y-83477200D01*
X171865476Y-83477200D02*
X172008333Y-83524819D01*
X172008333Y-83524819D02*
X172103571Y-83524819D01*
X172103571Y-83524819D02*
X172246428Y-83477200D01*
X172246428Y-83477200D02*
X172341666Y-83381961D01*
X172341666Y-83381961D02*
X172389285Y-83286723D01*
X172389285Y-83286723D02*
X172436904Y-83096247D01*
X172436904Y-83096247D02*
X172436904Y-82953390D01*
X172436904Y-82953390D02*
X172389285Y-82762914D01*
X172389285Y-82762914D02*
X172341666Y-82667676D01*
X172341666Y-82667676D02*
X172246428Y-82572438D01*
X172246428Y-82572438D02*
X172103571Y-82524819D01*
X172103571Y-82524819D02*
X172008333Y-82524819D01*
X172008333Y-82524819D02*
X171865476Y-82572438D01*
X171865476Y-82572438D02*
X171817857Y-82620057D01*
X171436904Y-82620057D02*
X171389285Y-82572438D01*
X171389285Y-82572438D02*
X171294047Y-82524819D01*
X171294047Y-82524819D02*
X171055952Y-82524819D01*
X171055952Y-82524819D02*
X170960714Y-82572438D01*
X170960714Y-82572438D02*
X170913095Y-82620057D01*
X170913095Y-82620057D02*
X170865476Y-82715295D01*
X170865476Y-82715295D02*
X170865476Y-82810533D01*
X170865476Y-82810533D02*
X170913095Y-82953390D01*
X170913095Y-82953390D02*
X171484523Y-83524819D01*
X171484523Y-83524819D02*
X170865476Y-83524819D01*
X169960714Y-82524819D02*
X170436904Y-82524819D01*
X170436904Y-82524819D02*
X170484523Y-83001009D01*
X170484523Y-83001009D02*
X170436904Y-82953390D01*
X170436904Y-82953390D02*
X170341666Y-82905771D01*
X170341666Y-82905771D02*
X170103571Y-82905771D01*
X170103571Y-82905771D02*
X170008333Y-82953390D01*
X170008333Y-82953390D02*
X169960714Y-83001009D01*
X169960714Y-83001009D02*
X169913095Y-83096247D01*
X169913095Y-83096247D02*
X169913095Y-83334342D01*
X169913095Y-83334342D02*
X169960714Y-83429580D01*
X169960714Y-83429580D02*
X170008333Y-83477200D01*
X170008333Y-83477200D02*
X170103571Y-83524819D01*
X170103571Y-83524819D02*
X170341666Y-83524819D01*
X170341666Y-83524819D02*
X170436904Y-83477200D01*
X170436904Y-83477200D02*
X170484523Y-83429580D01*
X186914580Y-105632142D02*
X186962200Y-105584523D01*
X186962200Y-105584523D02*
X187009819Y-105441666D01*
X187009819Y-105441666D02*
X187009819Y-105346428D01*
X187009819Y-105346428D02*
X186962200Y-105203571D01*
X186962200Y-105203571D02*
X186866961Y-105108333D01*
X186866961Y-105108333D02*
X186771723Y-105060714D01*
X186771723Y-105060714D02*
X186581247Y-105013095D01*
X186581247Y-105013095D02*
X186438390Y-105013095D01*
X186438390Y-105013095D02*
X186247914Y-105060714D01*
X186247914Y-105060714D02*
X186152676Y-105108333D01*
X186152676Y-105108333D02*
X186057438Y-105203571D01*
X186057438Y-105203571D02*
X186009819Y-105346428D01*
X186009819Y-105346428D02*
X186009819Y-105441666D01*
X186009819Y-105441666D02*
X186057438Y-105584523D01*
X186057438Y-105584523D02*
X186105057Y-105632142D01*
X187009819Y-106584523D02*
X187009819Y-106013095D01*
X187009819Y-106298809D02*
X186009819Y-106298809D01*
X186009819Y-106298809D02*
X186152676Y-106203571D01*
X186152676Y-106203571D02*
X186247914Y-106108333D01*
X186247914Y-106108333D02*
X186295533Y-106013095D01*
X186009819Y-107203571D02*
X186009819Y-107298809D01*
X186009819Y-107298809D02*
X186057438Y-107394047D01*
X186057438Y-107394047D02*
X186105057Y-107441666D01*
X186105057Y-107441666D02*
X186200295Y-107489285D01*
X186200295Y-107489285D02*
X186390771Y-107536904D01*
X186390771Y-107536904D02*
X186628866Y-107536904D01*
X186628866Y-107536904D02*
X186819342Y-107489285D01*
X186819342Y-107489285D02*
X186914580Y-107441666D01*
X186914580Y-107441666D02*
X186962200Y-107394047D01*
X186962200Y-107394047D02*
X187009819Y-107298809D01*
X187009819Y-107298809D02*
X187009819Y-107203571D01*
X187009819Y-107203571D02*
X186962200Y-107108333D01*
X186962200Y-107108333D02*
X186914580Y-107060714D01*
X186914580Y-107060714D02*
X186819342Y-107013095D01*
X186819342Y-107013095D02*
X186628866Y-106965476D01*
X186628866Y-106965476D02*
X186390771Y-106965476D01*
X186390771Y-106965476D02*
X186200295Y-107013095D01*
X186200295Y-107013095D02*
X186105057Y-107060714D01*
X186105057Y-107060714D02*
X186057438Y-107108333D01*
X186057438Y-107108333D02*
X186009819Y-107203571D01*
X184129580Y-116533333D02*
X184177200Y-116485714D01*
X184177200Y-116485714D02*
X184224819Y-116342857D01*
X184224819Y-116342857D02*
X184224819Y-116247619D01*
X184224819Y-116247619D02*
X184177200Y-116104762D01*
X184177200Y-116104762D02*
X184081961Y-116009524D01*
X184081961Y-116009524D02*
X183986723Y-115961905D01*
X183986723Y-115961905D02*
X183796247Y-115914286D01*
X183796247Y-115914286D02*
X183653390Y-115914286D01*
X183653390Y-115914286D02*
X183462914Y-115961905D01*
X183462914Y-115961905D02*
X183367676Y-116009524D01*
X183367676Y-116009524D02*
X183272438Y-116104762D01*
X183272438Y-116104762D02*
X183224819Y-116247619D01*
X183224819Y-116247619D02*
X183224819Y-116342857D01*
X183224819Y-116342857D02*
X183272438Y-116485714D01*
X183272438Y-116485714D02*
X183320057Y-116533333D01*
X184224819Y-117009524D02*
X184224819Y-117200000D01*
X184224819Y-117200000D02*
X184177200Y-117295238D01*
X184177200Y-117295238D02*
X184129580Y-117342857D01*
X184129580Y-117342857D02*
X183986723Y-117438095D01*
X183986723Y-117438095D02*
X183796247Y-117485714D01*
X183796247Y-117485714D02*
X183415295Y-117485714D01*
X183415295Y-117485714D02*
X183320057Y-117438095D01*
X183320057Y-117438095D02*
X183272438Y-117390476D01*
X183272438Y-117390476D02*
X183224819Y-117295238D01*
X183224819Y-117295238D02*
X183224819Y-117104762D01*
X183224819Y-117104762D02*
X183272438Y-117009524D01*
X183272438Y-117009524D02*
X183320057Y-116961905D01*
X183320057Y-116961905D02*
X183415295Y-116914286D01*
X183415295Y-116914286D02*
X183653390Y-116914286D01*
X183653390Y-116914286D02*
X183748628Y-116961905D01*
X183748628Y-116961905D02*
X183796247Y-117009524D01*
X183796247Y-117009524D02*
X183843866Y-117104762D01*
X183843866Y-117104762D02*
X183843866Y-117295238D01*
X183843866Y-117295238D02*
X183796247Y-117390476D01*
X183796247Y-117390476D02*
X183748628Y-117438095D01*
X183748628Y-117438095D02*
X183653390Y-117485714D01*
X171842857Y-77629580D02*
X171890476Y-77677200D01*
X171890476Y-77677200D02*
X172033333Y-77724819D01*
X172033333Y-77724819D02*
X172128571Y-77724819D01*
X172128571Y-77724819D02*
X172271428Y-77677200D01*
X172271428Y-77677200D02*
X172366666Y-77581961D01*
X172366666Y-77581961D02*
X172414285Y-77486723D01*
X172414285Y-77486723D02*
X172461904Y-77296247D01*
X172461904Y-77296247D02*
X172461904Y-77153390D01*
X172461904Y-77153390D02*
X172414285Y-76962914D01*
X172414285Y-76962914D02*
X172366666Y-76867676D01*
X172366666Y-76867676D02*
X172271428Y-76772438D01*
X172271428Y-76772438D02*
X172128571Y-76724819D01*
X172128571Y-76724819D02*
X172033333Y-76724819D01*
X172033333Y-76724819D02*
X171890476Y-76772438D01*
X171890476Y-76772438D02*
X171842857Y-76820057D01*
X171461904Y-76820057D02*
X171414285Y-76772438D01*
X171414285Y-76772438D02*
X171319047Y-76724819D01*
X171319047Y-76724819D02*
X171080952Y-76724819D01*
X171080952Y-76724819D02*
X170985714Y-76772438D01*
X170985714Y-76772438D02*
X170938095Y-76820057D01*
X170938095Y-76820057D02*
X170890476Y-76915295D01*
X170890476Y-76915295D02*
X170890476Y-77010533D01*
X170890476Y-77010533D02*
X170938095Y-77153390D01*
X170938095Y-77153390D02*
X171509523Y-77724819D01*
X171509523Y-77724819D02*
X170890476Y-77724819D01*
X170557142Y-76724819D02*
X169938095Y-76724819D01*
X169938095Y-76724819D02*
X170271428Y-77105771D01*
X170271428Y-77105771D02*
X170128571Y-77105771D01*
X170128571Y-77105771D02*
X170033333Y-77153390D01*
X170033333Y-77153390D02*
X169985714Y-77201009D01*
X169985714Y-77201009D02*
X169938095Y-77296247D01*
X169938095Y-77296247D02*
X169938095Y-77534342D01*
X169938095Y-77534342D02*
X169985714Y-77629580D01*
X169985714Y-77629580D02*
X170033333Y-77677200D01*
X170033333Y-77677200D02*
X170128571Y-77724819D01*
X170128571Y-77724819D02*
X170414285Y-77724819D01*
X170414285Y-77724819D02*
X170509523Y-77677200D01*
X170509523Y-77677200D02*
X170557142Y-77629580D01*
X187884819Y-77008333D02*
X187408628Y-76675000D01*
X187884819Y-76436905D02*
X186884819Y-76436905D01*
X186884819Y-76436905D02*
X186884819Y-76817857D01*
X186884819Y-76817857D02*
X186932438Y-76913095D01*
X186932438Y-76913095D02*
X186980057Y-76960714D01*
X186980057Y-76960714D02*
X187075295Y-77008333D01*
X187075295Y-77008333D02*
X187218152Y-77008333D01*
X187218152Y-77008333D02*
X187313390Y-76960714D01*
X187313390Y-76960714D02*
X187361009Y-76913095D01*
X187361009Y-76913095D02*
X187408628Y-76817857D01*
X187408628Y-76817857D02*
X187408628Y-76436905D01*
X187884819Y-77960714D02*
X187884819Y-77389286D01*
X187884819Y-77675000D02*
X186884819Y-77675000D01*
X186884819Y-77675000D02*
X187027676Y-77579762D01*
X187027676Y-77579762D02*
X187122914Y-77484524D01*
X187122914Y-77484524D02*
X187170533Y-77389286D01*
D11*
X171340580Y-81090000D02*
X171059420Y-81090000D01*
X171340580Y-82110000D02*
X171059420Y-82110000D01*
X184715000Y-98965580D02*
X184715000Y-98684420D01*
X185735000Y-98965580D02*
X185735000Y-98684420D01*
X188090580Y-80880000D02*
X187809420Y-80880000D01*
X188090580Y-81900000D02*
X187809420Y-81900000D01*
X171440580Y-69535000D02*
X171159420Y-69535000D01*
X171440580Y-70555000D02*
X171159420Y-70555000D01*
X184240000Y-86038748D02*
X184240000Y-86561252D01*
X185710000Y-86038748D02*
X185710000Y-86561252D01*
X181784420Y-80890000D02*
X182065580Y-80890000D01*
X181784420Y-81910000D02*
X182065580Y-81910000D01*
X171440580Y-66615000D02*
X171159420Y-66615000D01*
X171440580Y-67635000D02*
X171159420Y-67635000D01*
X171415580Y-72435000D02*
X171134420Y-72435000D01*
X171415580Y-73455000D02*
X171134420Y-73455000D01*
X185140000Y-74211252D02*
X185140000Y-72788748D01*
X187860000Y-74211252D02*
X187860000Y-72788748D01*
X171340580Y-75290000D02*
X171059420Y-75290000D01*
X171340580Y-76310000D02*
X171059420Y-76310000D01*
X171315580Y-86890000D02*
X171034420Y-86890000D01*
X171315580Y-87910000D02*
X171034420Y-87910000D01*
X171315580Y-83990000D02*
X171034420Y-83990000D01*
X171315580Y-85010000D02*
X171034420Y-85010000D01*
X184615000Y-106415580D02*
X184615000Y-106134420D01*
X185635000Y-106415580D02*
X185635000Y-106134420D01*
X184690000Y-116559420D02*
X184690000Y-116840580D01*
X185710000Y-116559420D02*
X185710000Y-116840580D01*
X171340580Y-78190000D02*
X171059420Y-78190000D01*
X171340580Y-79210000D02*
X171059420Y-79210000D01*
X185477500Y-77912258D02*
X185477500Y-77437742D01*
X186522500Y-77912258D02*
X186522500Y-77437742D01*
%LPC*%
D12*
X194100000Y-118800000D03*
X170400000Y-118400000D03*
X194100000Y-68700000D03*
D13*
X193900000Y-88500000D03*
D14*
X193900000Y-91040000D03*
X193900000Y-93580000D03*
X193900000Y-96120000D03*
X193900000Y-98660000D03*
X193900000Y-101200000D03*
X193900000Y-103740000D03*
X193900000Y-106280000D03*
X193900000Y-108820000D03*
X193900000Y-111360000D03*
D13*
X163400000Y-68175000D03*
D14*
X163400000Y-70715000D03*
X163400000Y-73255000D03*
X163400000Y-75795000D03*
X163400000Y-78335000D03*
X163400000Y-80875000D03*
X163400000Y-83415000D03*
X163400000Y-85955000D03*
X163400000Y-88495000D03*
X163400000Y-91035000D03*
X163400000Y-93575000D03*
X163400000Y-96115000D03*
X163400000Y-98655000D03*
X163400000Y-101195000D03*
X163400000Y-103735000D03*
X163400000Y-106275000D03*
X163400000Y-108815000D03*
X163400000Y-111355000D03*
X163400000Y-113895000D03*
X163400000Y-116435000D03*
D15*
X171975000Y-81600000D03*
X170425000Y-81600000D03*
D16*
X185225000Y-99600000D03*
X185225000Y-98050000D03*
D15*
X188725000Y-81390000D03*
X187175000Y-81390000D03*
X172075000Y-70045000D03*
X170525000Y-70045000D03*
D17*
X184975000Y-85350000D03*
X184975000Y-87250000D03*
D18*
X181150000Y-81400000D03*
X182700000Y-81400000D03*
D15*
X172075000Y-67125000D03*
X170525000Y-67125000D03*
X172050000Y-72945000D03*
X170500000Y-72945000D03*
D19*
X186500000Y-74975000D03*
X186500000Y-72025000D03*
D15*
X171975000Y-75800000D03*
X170425000Y-75800000D03*
X171950000Y-87400000D03*
X170400000Y-87400000D03*
X171950000Y-84500000D03*
X170400000Y-84500000D03*
D16*
X185125000Y-107050000D03*
X185125000Y-105500000D03*
D20*
X185200000Y-115925000D03*
X185200000Y-117475000D03*
D15*
X171975000Y-78700000D03*
X170425000Y-78700000D03*
D21*
X186000000Y-78500000D03*
X186000000Y-76850000D03*
%LPD*%
M02*
