M48
; DRILL file {KiCad 7.0.8} date Tue Feb 11 22:03:48 2025
; FORMAT={-:-/ absolute / metric / decimal}
; #@! TF.CreationDate,2025-02-11T22:03:48-06:00
; #@! TF.GenerationSoftware,Kicad,Pcbnew,7.0.8
; #@! TF.FileFunction,Plated,1,2,PTH
FMAT,2
METRIC
; #@! TA.AperFunction,Plated,PTH,ViaDrill
T1C0.400
; #@! TA.AperFunction,Plated,PTH,ComponentDrill
T2C1.000
; #@! TA.AperFunction,Plated,PTH,ComponentDrill
T3C1.020
; #@! TA.AperFunction,Plated,PTH,ComponentDrill
T4C1.100
; #@! TA.AperFunction,Plated,PTH,ComponentDrill
T5C1.143
; #@! TA.AperFunction,Plated,PTH,ComponentDrill
T6C1.800
%
G90
G05
T1
X117.818Y-95.17
X117.818Y-100.25
X122.898Y-85.01
X122.898Y-90.09
X122.898Y-95.17
X127.978Y-79.93
X127.978Y-85.01
X127.978Y-95.17
X127.978Y-100.25
X133.058Y-59.61
X133.058Y-69.77
X133.058Y-74.85
X133.058Y-79.93
X133.058Y-85.01
X133.058Y-100.25
X138.138Y-59.61
X138.138Y-64.69
X138.138Y-69.77
X138.138Y-74.85
X138.138Y-79.93
X138.138Y-100.25
X143.218Y-59.61
X143.218Y-69.77
X143.218Y-74.85
X143.218Y-79.93
X143.218Y-95.17
X143.218Y-100.25
X148.298Y-64.69
X148.298Y-69.77
X148.298Y-79.93
X148.298Y-85.01
X148.298Y-95.17
X148.298Y-100.25
X153.378Y-79.93
X153.378Y-85.01
X153.378Y-95.17
X153.378Y-100.25
X158.458Y-85.01
X158.458Y-90.09
X158.458Y-95.17
T2
X122.425Y-56.3
X122.425Y-58.84
X122.425Y-61.38
X122.425Y-63.92
X122.425Y-66.46
X122.425Y-69.0
X122.425Y-71.54
X122.425Y-74.08
X122.425Y-76.62
X122.425Y-79.16
X134.48Y-83.4
X137.02Y-83.4
X139.56Y-83.4
X142.1Y-83.4
X144.64Y-83.4
X156.775Y-56.3
X156.775Y-58.84
X156.775Y-61.38
X156.775Y-63.92
X156.775Y-66.46
X156.775Y-69.0
X156.775Y-71.54
X156.775Y-74.08
X156.775Y-76.62
X156.775Y-79.16
T3
X128.4Y-55.254
X128.4Y-57.26
X128.4Y-59.267
X128.4Y-61.274
X128.4Y-63.28
X128.4Y-65.287
X128.4Y-67.293
X128.4Y-69.3
X128.4Y-71.307
X128.4Y-73.313
X150.396Y-55.254
X150.396Y-57.26
X150.396Y-59.267
X150.396Y-61.274
X150.396Y-63.28
X150.396Y-65.287
X150.396Y-67.293
X150.396Y-69.3
X150.396Y-71.307
X150.396Y-73.313
T4
X118.74Y-91.2
X128.9Y-91.2
T5
X140.0Y-91.56
X140.0Y-94.1
X140.0Y-96.64
T6
X149.6Y-91.8
X154.6Y-91.8
T0
M30
