%TF.GenerationSoftware,KiCad,Pcbnew,7.0.8*%
%TF.CreationDate,2025-02-11T22:04:22-06:00*%
%TF.ProjectId,XBeeBreakoutBoard,58426565-4272-4656-916b-6f7574426f61,rev?*%
%TF.SameCoordinates,Original*%
%TF.FileFunction,Drillmap*%
%TF.FilePolarity,Positive*%
%FSLAX45Y45*%
G04 Gerber Fmt 4.5, Leading zero omitted, Abs format (unit mm)*
G04 Created by KiCad (PCBNEW 7.0.8) date 2025-02-11 22:04:22*
%MOMM*%
%LPD*%
G01*
G04 APERTURE LIST*
%ADD10C,0.100000*%
%ADD11C,0.200000*%
%ADD12C,0.040000*%
%ADD13C,0.102000*%
%ADD14C,0.110000*%
%ADD15C,0.114300*%
%ADD16C,0.180000*%
G04 APERTURE END LIST*
D10*
X14740000Y-4540000D02*
X14740000Y-5290000D01*
X16336863Y-4533137D02*
G75*
G03*
X16176863Y-4373137I-160003J-3D01*
G01*
X14580000Y-5450000D02*
G75*
G03*
X14740000Y-5290000I0J160000D01*
G01*
X14580000Y-5450000D02*
X13260000Y-5450000D01*
X16176863Y-10656863D02*
X11743137Y-10656863D01*
X11583137Y-10496863D02*
X11583137Y-4533137D01*
X11743137Y-4373137D02*
G75*
G03*
X11583137Y-4533137I3J-160003D01*
G01*
X16336863Y-4533137D02*
X16336863Y-10496863D01*
X13260000Y-5290000D02*
G75*
G03*
X13260000Y-5290000I0J0D01*
G01*
X13100000Y-5290000D02*
G75*
G03*
X13260000Y-5450000I160000J0D01*
G01*
X14900000Y-4369688D02*
G75*
G03*
X14740000Y-4540000I0J-160312D01*
G01*
X13100000Y-4530000D02*
X13100000Y-5290000D01*
X14900000Y-4369688D02*
X16176863Y-4373137D01*
X13100000Y-4530000D02*
G75*
G03*
X12940000Y-4370000I-160000J0D01*
G01*
X11583137Y-10496863D02*
G75*
G03*
X11743137Y-10656863I160003J3D01*
G01*
X16176863Y-10656863D02*
G75*
G03*
X16336863Y-10496863I-3J160003D01*
G01*
X11743137Y-4373137D02*
X12940000Y-4370000D01*
D11*
D12*
X11761820Y-9496980D02*
X11801820Y-9536980D01*
X11801820Y-9496980D02*
X11761820Y-9536980D01*
X11761820Y-10004980D02*
X11801820Y-10044980D01*
X11801820Y-10004980D02*
X11761820Y-10044980D01*
X12269820Y-8480980D02*
X12309820Y-8520980D01*
X12309820Y-8480980D02*
X12269820Y-8520980D01*
X12269820Y-8988980D02*
X12309820Y-9028980D01*
X12309820Y-8988980D02*
X12269820Y-9028980D01*
X12269820Y-9496980D02*
X12309820Y-9536980D01*
X12309820Y-9496980D02*
X12269820Y-9536980D01*
X12777820Y-7972980D02*
X12817820Y-8012980D01*
X12817820Y-7972980D02*
X12777820Y-8012980D01*
X12777820Y-8480980D02*
X12817820Y-8520980D01*
X12817820Y-8480980D02*
X12777820Y-8520980D01*
X12777820Y-9496980D02*
X12817820Y-9536980D01*
X12817820Y-9496980D02*
X12777820Y-9536980D01*
X12777820Y-10004980D02*
X12817820Y-10044980D01*
X12817820Y-10004980D02*
X12777820Y-10044980D01*
X13285820Y-5940980D02*
X13325820Y-5980980D01*
X13325820Y-5940980D02*
X13285820Y-5980980D01*
X13285820Y-6956980D02*
X13325820Y-6996980D01*
X13325820Y-6956980D02*
X13285820Y-6996980D01*
X13285820Y-7464980D02*
X13325820Y-7504980D01*
X13325820Y-7464980D02*
X13285820Y-7504980D01*
X13285820Y-7972980D02*
X13325820Y-8012980D01*
X13325820Y-7972980D02*
X13285820Y-8012980D01*
X13285820Y-8480980D02*
X13325820Y-8520980D01*
X13325820Y-8480980D02*
X13285820Y-8520980D01*
X13285820Y-10004980D02*
X13325820Y-10044980D01*
X13325820Y-10004980D02*
X13285820Y-10044980D01*
X13793820Y-5940980D02*
X13833820Y-5980980D01*
X13833820Y-5940980D02*
X13793820Y-5980980D01*
X13793820Y-6448980D02*
X13833820Y-6488980D01*
X13833820Y-6448980D02*
X13793820Y-6488980D01*
X13793820Y-6956980D02*
X13833820Y-6996980D01*
X13833820Y-6956980D02*
X13793820Y-6996980D01*
X13793820Y-7464980D02*
X13833820Y-7504980D01*
X13833820Y-7464980D02*
X13793820Y-7504980D01*
X13793820Y-7972980D02*
X13833820Y-8012980D01*
X13833820Y-7972980D02*
X13793820Y-8012980D01*
X13793820Y-10004980D02*
X13833820Y-10044980D01*
X13833820Y-10004980D02*
X13793820Y-10044980D01*
X14301820Y-5940980D02*
X14341820Y-5980980D01*
X14341820Y-5940980D02*
X14301820Y-5980980D01*
X14301820Y-6956980D02*
X14341820Y-6996980D01*
X14341820Y-6956980D02*
X14301820Y-6996980D01*
X14301820Y-7464980D02*
X14341820Y-7504980D01*
X14341820Y-7464980D02*
X14301820Y-7504980D01*
X14301820Y-7972980D02*
X14341820Y-8012980D01*
X14341820Y-7972980D02*
X14301820Y-8012980D01*
X14301820Y-9496980D02*
X14341820Y-9536980D01*
X14341820Y-9496980D02*
X14301820Y-9536980D01*
X14301820Y-10004980D02*
X14341820Y-10044980D01*
X14341820Y-10004980D02*
X14301820Y-10044980D01*
X14809820Y-6448980D02*
X14849820Y-6488980D01*
X14849820Y-6448980D02*
X14809820Y-6488980D01*
X14809820Y-6956980D02*
X14849820Y-6996980D01*
X14849820Y-6956980D02*
X14809820Y-6996980D01*
X14809820Y-7972980D02*
X14849820Y-8012980D01*
X14849820Y-7972980D02*
X14809820Y-8012980D01*
X14809820Y-8480980D02*
X14849820Y-8520980D01*
X14849820Y-8480980D02*
X14809820Y-8520980D01*
X14809820Y-9496980D02*
X14849820Y-9536980D01*
X14849820Y-9496980D02*
X14809820Y-9536980D01*
X14809820Y-10004980D02*
X14849820Y-10044980D01*
X14849820Y-10004980D02*
X14809820Y-10044980D01*
X15317820Y-7972980D02*
X15357820Y-8012980D01*
X15357820Y-7972980D02*
X15317820Y-8012980D01*
X15317820Y-8480980D02*
X15357820Y-8520980D01*
X15357820Y-8480980D02*
X15317820Y-8520980D01*
X15317820Y-9496980D02*
X15357820Y-9536980D01*
X15357820Y-9496980D02*
X15317820Y-9536980D01*
X15317820Y-10004980D02*
X15357820Y-10044980D01*
X15357820Y-10004980D02*
X15317820Y-10044980D01*
X15825820Y-8480980D02*
X15865820Y-8520980D01*
X15865820Y-8480980D02*
X15825820Y-8520980D01*
X15825820Y-8988980D02*
X15865820Y-9028980D01*
X15865820Y-8988980D02*
X15825820Y-9028980D01*
X15825820Y-9496980D02*
X15865820Y-9536980D01*
X15865820Y-9496980D02*
X15825820Y-9536980D01*
D10*
X12292500Y-5630000D02*
G75*
G03*
X12292500Y-5630000I-50000J0D01*
G01*
X12292500Y-5884000D02*
G75*
G03*
X12292500Y-5884000I-50000J0D01*
G01*
X12292500Y-6138000D02*
G75*
G03*
X12292500Y-6138000I-50000J0D01*
G01*
X12292500Y-6392000D02*
G75*
G03*
X12292500Y-6392000I-50000J0D01*
G01*
X12292500Y-6646000D02*
G75*
G03*
X12292500Y-6646000I-50000J0D01*
G01*
X12292500Y-6900000D02*
G75*
G03*
X12292500Y-6900000I-50000J0D01*
G01*
X12292500Y-7154000D02*
G75*
G03*
X12292500Y-7154000I-50000J0D01*
G01*
X12292500Y-7408000D02*
G75*
G03*
X12292500Y-7408000I-50000J0D01*
G01*
X12292500Y-7662000D02*
G75*
G03*
X12292500Y-7662000I-50000J0D01*
G01*
X12292500Y-7916000D02*
G75*
G03*
X12292500Y-7916000I-50000J0D01*
G01*
X13498000Y-8340000D02*
G75*
G03*
X13498000Y-8340000I-50000J0D01*
G01*
X13752000Y-8340000D02*
G75*
G03*
X13752000Y-8340000I-50000J0D01*
G01*
X14006000Y-8340000D02*
G75*
G03*
X14006000Y-8340000I-50000J0D01*
G01*
X14260000Y-8340000D02*
G75*
G03*
X14260000Y-8340000I-50000J0D01*
G01*
X14514000Y-8340000D02*
G75*
G03*
X14514000Y-8340000I-50000J0D01*
G01*
X15727500Y-5630000D02*
G75*
G03*
X15727500Y-5630000I-50000J0D01*
G01*
X15727500Y-5884000D02*
G75*
G03*
X15727500Y-5884000I-50000J0D01*
G01*
X15727500Y-6138000D02*
G75*
G03*
X15727500Y-6138000I-50000J0D01*
G01*
X15727500Y-6392000D02*
G75*
G03*
X15727500Y-6392000I-50000J0D01*
G01*
X15727500Y-6646000D02*
G75*
G03*
X15727500Y-6646000I-50000J0D01*
G01*
X15727500Y-6900000D02*
G75*
G03*
X15727500Y-6900000I-50000J0D01*
G01*
X15727500Y-7154000D02*
G75*
G03*
X15727500Y-7154000I-50000J0D01*
G01*
X15727500Y-7408000D02*
G75*
G03*
X15727500Y-7408000I-50000J0D01*
G01*
X15727500Y-7662000D02*
G75*
G03*
X15727500Y-7662000I-50000J0D01*
G01*
X15727500Y-7916000D02*
G75*
G03*
X15727500Y-7916000I-50000J0D01*
G01*
D13*
X12840000Y-5474380D02*
X12840000Y-5576380D01*
X12789000Y-5525380D02*
X12891000Y-5525380D01*
X12840000Y-5675040D02*
X12840000Y-5777040D01*
X12789000Y-5726040D02*
X12891000Y-5726040D01*
X12840000Y-5875700D02*
X12840000Y-5977700D01*
X12789000Y-5926700D02*
X12891000Y-5926700D01*
X12840000Y-6076360D02*
X12840000Y-6178360D01*
X12789000Y-6127360D02*
X12891000Y-6127360D01*
X12840000Y-6277020D02*
X12840000Y-6379020D01*
X12789000Y-6328020D02*
X12891000Y-6328020D01*
X12840000Y-6477680D02*
X12840000Y-6579680D01*
X12789000Y-6528680D02*
X12891000Y-6528680D01*
X12840000Y-6678340D02*
X12840000Y-6780340D01*
X12789000Y-6729340D02*
X12891000Y-6729340D01*
X12840000Y-6879000D02*
X12840000Y-6981000D01*
X12789000Y-6930000D02*
X12891000Y-6930000D01*
X12840000Y-7079660D02*
X12840000Y-7181660D01*
X12789000Y-7130660D02*
X12891000Y-7130660D01*
X12840000Y-7280320D02*
X12840000Y-7382320D01*
X12789000Y-7331320D02*
X12891000Y-7331320D01*
X15039640Y-5474380D02*
X15039640Y-5576380D01*
X14988640Y-5525380D02*
X15090640Y-5525380D01*
X15039640Y-5675040D02*
X15039640Y-5777040D01*
X14988640Y-5726040D02*
X15090640Y-5726040D01*
X15039640Y-5875700D02*
X15039640Y-5977700D01*
X14988640Y-5926700D02*
X15090640Y-5926700D01*
X15039640Y-6076360D02*
X15039640Y-6178360D01*
X14988640Y-6127360D02*
X15090640Y-6127360D01*
X15039640Y-6277020D02*
X15039640Y-6379020D01*
X14988640Y-6328020D02*
X15090640Y-6328020D01*
X15039640Y-6477680D02*
X15039640Y-6579680D01*
X14988640Y-6528680D02*
X15090640Y-6528680D01*
X15039640Y-6678340D02*
X15039640Y-6780340D01*
X14988640Y-6729340D02*
X15090640Y-6729340D01*
X15039640Y-6879000D02*
X15039640Y-6981000D01*
X14988640Y-6930000D02*
X15090640Y-6930000D01*
X15039640Y-7079660D02*
X15039640Y-7181660D01*
X14988640Y-7130660D02*
X15090640Y-7130660D01*
X15039640Y-7280320D02*
X15039640Y-7382320D01*
X14988640Y-7331320D02*
X15090640Y-7331320D01*
D14*
X11912891Y-9158891D02*
X11912891Y-9081109D01*
X11835109Y-9081109D01*
X11835109Y-9158891D01*
X11912891Y-9158891D01*
X12928891Y-9158891D02*
X12928891Y-9081109D01*
X12851109Y-9081109D01*
X12851109Y-9158891D01*
X12928891Y-9158891D01*
D15*
X14000000Y-9213150D02*
X14057150Y-9156000D01*
X14000000Y-9098850D01*
X13942850Y-9156000D01*
X14000000Y-9213150D01*
X14000000Y-9467150D02*
X14057150Y-9410000D01*
X14000000Y-9352850D01*
X13942850Y-9410000D01*
X14000000Y-9467150D01*
X14000000Y-9721150D02*
X14057150Y-9664000D01*
X14000000Y-9606850D01*
X13942850Y-9664000D01*
X14000000Y-9721150D01*
D16*
X14870000Y-9090000D02*
X15050000Y-9270000D01*
X15050000Y-9090000D02*
X14870000Y-9270000D01*
X15050000Y-9180000D02*
G75*
G03*
X15050000Y-9180000I-90000J0D01*
G01*
X15370000Y-9090000D02*
X15550000Y-9270000D01*
X15550000Y-9090000D02*
X15370000Y-9270000D01*
X15550000Y-9180000D02*
G75*
G03*
X15550000Y-9180000I-90000J0D01*
G01*
D11*
X11838914Y-10973347D02*
X11838914Y-10773347D01*
X11838914Y-10773347D02*
X11886533Y-10773347D01*
X11886533Y-10773347D02*
X11915104Y-10782871D01*
X11915104Y-10782871D02*
X11934152Y-10801918D01*
X11934152Y-10801918D02*
X11943676Y-10820966D01*
X11943676Y-10820966D02*
X11953200Y-10859061D01*
X11953200Y-10859061D02*
X11953200Y-10887632D01*
X11953200Y-10887632D02*
X11943676Y-10925728D01*
X11943676Y-10925728D02*
X11934152Y-10944775D01*
X11934152Y-10944775D02*
X11915104Y-10963823D01*
X11915104Y-10963823D02*
X11886533Y-10973347D01*
X11886533Y-10973347D02*
X11838914Y-10973347D01*
X12038914Y-10973347D02*
X12038914Y-10840013D01*
X12038914Y-10878109D02*
X12048438Y-10859061D01*
X12048438Y-10859061D02*
X12057961Y-10849537D01*
X12057961Y-10849537D02*
X12077009Y-10840013D01*
X12077009Y-10840013D02*
X12096057Y-10840013D01*
X12162723Y-10973347D02*
X12162723Y-10840013D01*
X12162723Y-10773347D02*
X12153200Y-10782871D01*
X12153200Y-10782871D02*
X12162723Y-10792394D01*
X12162723Y-10792394D02*
X12172247Y-10782871D01*
X12172247Y-10782871D02*
X12162723Y-10773347D01*
X12162723Y-10773347D02*
X12162723Y-10792394D01*
X12286533Y-10973347D02*
X12267485Y-10963823D01*
X12267485Y-10963823D02*
X12257961Y-10944775D01*
X12257961Y-10944775D02*
X12257961Y-10773347D01*
X12391295Y-10973347D02*
X12372247Y-10963823D01*
X12372247Y-10963823D02*
X12362723Y-10944775D01*
X12362723Y-10944775D02*
X12362723Y-10773347D01*
X12619866Y-10973347D02*
X12619866Y-10773347D01*
X12619866Y-10773347D02*
X12686533Y-10916204D01*
X12686533Y-10916204D02*
X12753200Y-10773347D01*
X12753200Y-10773347D02*
X12753200Y-10973347D01*
X12934152Y-10973347D02*
X12934152Y-10868585D01*
X12934152Y-10868585D02*
X12924628Y-10849537D01*
X12924628Y-10849537D02*
X12905581Y-10840013D01*
X12905581Y-10840013D02*
X12867485Y-10840013D01*
X12867485Y-10840013D02*
X12848438Y-10849537D01*
X12934152Y-10963823D02*
X12915104Y-10973347D01*
X12915104Y-10973347D02*
X12867485Y-10973347D01*
X12867485Y-10973347D02*
X12848438Y-10963823D01*
X12848438Y-10963823D02*
X12838914Y-10944775D01*
X12838914Y-10944775D02*
X12838914Y-10925728D01*
X12838914Y-10925728D02*
X12848438Y-10906680D01*
X12848438Y-10906680D02*
X12867485Y-10897156D01*
X12867485Y-10897156D02*
X12915104Y-10897156D01*
X12915104Y-10897156D02*
X12934152Y-10887632D01*
X13029390Y-10840013D02*
X13029390Y-11040013D01*
X13029390Y-10849537D02*
X13048438Y-10840013D01*
X13048438Y-10840013D02*
X13086533Y-10840013D01*
X13086533Y-10840013D02*
X13105581Y-10849537D01*
X13105581Y-10849537D02*
X13115104Y-10859061D01*
X13115104Y-10859061D02*
X13124628Y-10878109D01*
X13124628Y-10878109D02*
X13124628Y-10935251D01*
X13124628Y-10935251D02*
X13115104Y-10954299D01*
X13115104Y-10954299D02*
X13105581Y-10963823D01*
X13105581Y-10963823D02*
X13086533Y-10973347D01*
X13086533Y-10973347D02*
X13048438Y-10973347D01*
X13048438Y-10973347D02*
X13029390Y-10963823D01*
X13210342Y-10954299D02*
X13219866Y-10963823D01*
X13219866Y-10963823D02*
X13210342Y-10973347D01*
X13210342Y-10973347D02*
X13200819Y-10963823D01*
X13200819Y-10963823D02*
X13210342Y-10954299D01*
X13210342Y-10954299D02*
X13210342Y-10973347D01*
X13210342Y-10849537D02*
X13219866Y-10859061D01*
X13219866Y-10859061D02*
X13210342Y-10868585D01*
X13210342Y-10868585D02*
X13200819Y-10859061D01*
X13200819Y-10859061D02*
X13210342Y-10849537D01*
X13210342Y-10849537D02*
X13210342Y-10868585D01*
D12*
X11538137Y-11281863D02*
X11578137Y-11321863D01*
X11578137Y-11281863D02*
X11538137Y-11321863D01*
D11*
X11877009Y-11193347D02*
X11896057Y-11193347D01*
X11896057Y-11193347D02*
X11915104Y-11202870D01*
X11915104Y-11202870D02*
X11924628Y-11212394D01*
X11924628Y-11212394D02*
X11934152Y-11231442D01*
X11934152Y-11231442D02*
X11943676Y-11269537D01*
X11943676Y-11269537D02*
X11943676Y-11317156D01*
X11943676Y-11317156D02*
X11934152Y-11355251D01*
X11934152Y-11355251D02*
X11924628Y-11374299D01*
X11924628Y-11374299D02*
X11915104Y-11383823D01*
X11915104Y-11383823D02*
X11896057Y-11393347D01*
X11896057Y-11393347D02*
X11877009Y-11393347D01*
X11877009Y-11393347D02*
X11857961Y-11383823D01*
X11857961Y-11383823D02*
X11848438Y-11374299D01*
X11848438Y-11374299D02*
X11838914Y-11355251D01*
X11838914Y-11355251D02*
X11829390Y-11317156D01*
X11829390Y-11317156D02*
X11829390Y-11269537D01*
X11829390Y-11269537D02*
X11838914Y-11231442D01*
X11838914Y-11231442D02*
X11848438Y-11212394D01*
X11848438Y-11212394D02*
X11857961Y-11202870D01*
X11857961Y-11202870D02*
X11877009Y-11193347D01*
X12029390Y-11374299D02*
X12038914Y-11383823D01*
X12038914Y-11383823D02*
X12029390Y-11393347D01*
X12029390Y-11393347D02*
X12019866Y-11383823D01*
X12019866Y-11383823D02*
X12029390Y-11374299D01*
X12029390Y-11374299D02*
X12029390Y-11393347D01*
X12210342Y-11260013D02*
X12210342Y-11393347D01*
X12162723Y-11183823D02*
X12115104Y-11326680D01*
X12115104Y-11326680D02*
X12238914Y-11326680D01*
X12353200Y-11193347D02*
X12372247Y-11193347D01*
X12372247Y-11193347D02*
X12391295Y-11202870D01*
X12391295Y-11202870D02*
X12400819Y-11212394D01*
X12400819Y-11212394D02*
X12410342Y-11231442D01*
X12410342Y-11231442D02*
X12419866Y-11269537D01*
X12419866Y-11269537D02*
X12419866Y-11317156D01*
X12419866Y-11317156D02*
X12410342Y-11355251D01*
X12410342Y-11355251D02*
X12400819Y-11374299D01*
X12400819Y-11374299D02*
X12391295Y-11383823D01*
X12391295Y-11383823D02*
X12372247Y-11393347D01*
X12372247Y-11393347D02*
X12353200Y-11393347D01*
X12353200Y-11393347D02*
X12334152Y-11383823D01*
X12334152Y-11383823D02*
X12324628Y-11374299D01*
X12324628Y-11374299D02*
X12315104Y-11355251D01*
X12315104Y-11355251D02*
X12305581Y-11317156D01*
X12305581Y-11317156D02*
X12305581Y-11269537D01*
X12305581Y-11269537D02*
X12315104Y-11231442D01*
X12315104Y-11231442D02*
X12324628Y-11212394D01*
X12324628Y-11212394D02*
X12334152Y-11202870D01*
X12334152Y-11202870D02*
X12353200Y-11193347D01*
X12543676Y-11193347D02*
X12562723Y-11193347D01*
X12562723Y-11193347D02*
X12581771Y-11202870D01*
X12581771Y-11202870D02*
X12591295Y-11212394D01*
X12591295Y-11212394D02*
X12600819Y-11231442D01*
X12600819Y-11231442D02*
X12610342Y-11269537D01*
X12610342Y-11269537D02*
X12610342Y-11317156D01*
X12610342Y-11317156D02*
X12600819Y-11355251D01*
X12600819Y-11355251D02*
X12591295Y-11374299D01*
X12591295Y-11374299D02*
X12581771Y-11383823D01*
X12581771Y-11383823D02*
X12562723Y-11393347D01*
X12562723Y-11393347D02*
X12543676Y-11393347D01*
X12543676Y-11393347D02*
X12524628Y-11383823D01*
X12524628Y-11383823D02*
X12515104Y-11374299D01*
X12515104Y-11374299D02*
X12505581Y-11355251D01*
X12505581Y-11355251D02*
X12496057Y-11317156D01*
X12496057Y-11317156D02*
X12496057Y-11269537D01*
X12496057Y-11269537D02*
X12505581Y-11231442D01*
X12505581Y-11231442D02*
X12515104Y-11212394D01*
X12515104Y-11212394D02*
X12524628Y-11202870D01*
X12524628Y-11202870D02*
X12543676Y-11193347D01*
X12696057Y-11393347D02*
X12696057Y-11260013D01*
X12696057Y-11279061D02*
X12705581Y-11269537D01*
X12705581Y-11269537D02*
X12724628Y-11260013D01*
X12724628Y-11260013D02*
X12753200Y-11260013D01*
X12753200Y-11260013D02*
X12772247Y-11269537D01*
X12772247Y-11269537D02*
X12781771Y-11288585D01*
X12781771Y-11288585D02*
X12781771Y-11393347D01*
X12781771Y-11288585D02*
X12791295Y-11269537D01*
X12791295Y-11269537D02*
X12810342Y-11260013D01*
X12810342Y-11260013D02*
X12838914Y-11260013D01*
X12838914Y-11260013D02*
X12857962Y-11269537D01*
X12857962Y-11269537D02*
X12867485Y-11288585D01*
X12867485Y-11288585D02*
X12867485Y-11393347D01*
X12962723Y-11393347D02*
X12962723Y-11260013D01*
X12962723Y-11279061D02*
X12972247Y-11269537D01*
X12972247Y-11269537D02*
X12991295Y-11260013D01*
X12991295Y-11260013D02*
X13019866Y-11260013D01*
X13019866Y-11260013D02*
X13038914Y-11269537D01*
X13038914Y-11269537D02*
X13048438Y-11288585D01*
X13048438Y-11288585D02*
X13048438Y-11393347D01*
X13048438Y-11288585D02*
X13057962Y-11269537D01*
X13057962Y-11269537D02*
X13077009Y-11260013D01*
X13077009Y-11260013D02*
X13105581Y-11260013D01*
X13105581Y-11260013D02*
X13124628Y-11269537D01*
X13124628Y-11269537D02*
X13134152Y-11288585D01*
X13134152Y-11288585D02*
X13134152Y-11393347D01*
X13524628Y-11183823D02*
X13353200Y-11440966D01*
X13781771Y-11193347D02*
X13800819Y-11193347D01*
X13800819Y-11193347D02*
X13819866Y-11202870D01*
X13819866Y-11202870D02*
X13829390Y-11212394D01*
X13829390Y-11212394D02*
X13838914Y-11231442D01*
X13838914Y-11231442D02*
X13848438Y-11269537D01*
X13848438Y-11269537D02*
X13848438Y-11317156D01*
X13848438Y-11317156D02*
X13838914Y-11355251D01*
X13838914Y-11355251D02*
X13829390Y-11374299D01*
X13829390Y-11374299D02*
X13819866Y-11383823D01*
X13819866Y-11383823D02*
X13800819Y-11393347D01*
X13800819Y-11393347D02*
X13781771Y-11393347D01*
X13781771Y-11393347D02*
X13762724Y-11383823D01*
X13762724Y-11383823D02*
X13753200Y-11374299D01*
X13753200Y-11374299D02*
X13743676Y-11355251D01*
X13743676Y-11355251D02*
X13734152Y-11317156D01*
X13734152Y-11317156D02*
X13734152Y-11269537D01*
X13734152Y-11269537D02*
X13743676Y-11231442D01*
X13743676Y-11231442D02*
X13753200Y-11212394D01*
X13753200Y-11212394D02*
X13762724Y-11202870D01*
X13762724Y-11202870D02*
X13781771Y-11193347D01*
X13934152Y-11374299D02*
X13943676Y-11383823D01*
X13943676Y-11383823D02*
X13934152Y-11393347D01*
X13934152Y-11393347D02*
X13924628Y-11383823D01*
X13924628Y-11383823D02*
X13934152Y-11374299D01*
X13934152Y-11374299D02*
X13934152Y-11393347D01*
X14067485Y-11193347D02*
X14086533Y-11193347D01*
X14086533Y-11193347D02*
X14105581Y-11202870D01*
X14105581Y-11202870D02*
X14115105Y-11212394D01*
X14115105Y-11212394D02*
X14124628Y-11231442D01*
X14124628Y-11231442D02*
X14134152Y-11269537D01*
X14134152Y-11269537D02*
X14134152Y-11317156D01*
X14134152Y-11317156D02*
X14124628Y-11355251D01*
X14124628Y-11355251D02*
X14115105Y-11374299D01*
X14115105Y-11374299D02*
X14105581Y-11383823D01*
X14105581Y-11383823D02*
X14086533Y-11393347D01*
X14086533Y-11393347D02*
X14067485Y-11393347D01*
X14067485Y-11393347D02*
X14048438Y-11383823D01*
X14048438Y-11383823D02*
X14038914Y-11374299D01*
X14038914Y-11374299D02*
X14029390Y-11355251D01*
X14029390Y-11355251D02*
X14019866Y-11317156D01*
X14019866Y-11317156D02*
X14019866Y-11269537D01*
X14019866Y-11269537D02*
X14029390Y-11231442D01*
X14029390Y-11231442D02*
X14038914Y-11212394D01*
X14038914Y-11212394D02*
X14048438Y-11202870D01*
X14048438Y-11202870D02*
X14067485Y-11193347D01*
X14324628Y-11393347D02*
X14210343Y-11393347D01*
X14267485Y-11393347D02*
X14267485Y-11193347D01*
X14267485Y-11193347D02*
X14248438Y-11221918D01*
X14248438Y-11221918D02*
X14229390Y-11240966D01*
X14229390Y-11240966D02*
X14210343Y-11250489D01*
X14505581Y-11193347D02*
X14410343Y-11193347D01*
X14410343Y-11193347D02*
X14400819Y-11288585D01*
X14400819Y-11288585D02*
X14410343Y-11279061D01*
X14410343Y-11279061D02*
X14429390Y-11269537D01*
X14429390Y-11269537D02*
X14477009Y-11269537D01*
X14477009Y-11269537D02*
X14496057Y-11279061D01*
X14496057Y-11279061D02*
X14505581Y-11288585D01*
X14505581Y-11288585D02*
X14515105Y-11307632D01*
X14515105Y-11307632D02*
X14515105Y-11355251D01*
X14515105Y-11355251D02*
X14505581Y-11374299D01*
X14505581Y-11374299D02*
X14496057Y-11383823D01*
X14496057Y-11383823D02*
X14477009Y-11393347D01*
X14477009Y-11393347D02*
X14429390Y-11393347D01*
X14429390Y-11393347D02*
X14410343Y-11383823D01*
X14410343Y-11383823D02*
X14400819Y-11374299D01*
X14581771Y-11193347D02*
X14715105Y-11193347D01*
X14715105Y-11193347D02*
X14629390Y-11393347D01*
X14781771Y-11193347D02*
X14781771Y-11231442D01*
X14857962Y-11193347D02*
X14857962Y-11231442D01*
X15153200Y-11469537D02*
X15143676Y-11460013D01*
X15143676Y-11460013D02*
X15124628Y-11431442D01*
X15124628Y-11431442D02*
X15115105Y-11412394D01*
X15115105Y-11412394D02*
X15105581Y-11383823D01*
X15105581Y-11383823D02*
X15096057Y-11336204D01*
X15096057Y-11336204D02*
X15096057Y-11298109D01*
X15096057Y-11298109D02*
X15105581Y-11250489D01*
X15105581Y-11250489D02*
X15115105Y-11221918D01*
X15115105Y-11221918D02*
X15124628Y-11202870D01*
X15124628Y-11202870D02*
X15143676Y-11174299D01*
X15143676Y-11174299D02*
X15153200Y-11164775D01*
X15315105Y-11260013D02*
X15315105Y-11393347D01*
X15267486Y-11183823D02*
X15219867Y-11326680D01*
X15219867Y-11326680D02*
X15343676Y-11326680D01*
X15457962Y-11193347D02*
X15477009Y-11193347D01*
X15477009Y-11193347D02*
X15496057Y-11202870D01*
X15496057Y-11202870D02*
X15505581Y-11212394D01*
X15505581Y-11212394D02*
X15515105Y-11231442D01*
X15515105Y-11231442D02*
X15524628Y-11269537D01*
X15524628Y-11269537D02*
X15524628Y-11317156D01*
X15524628Y-11317156D02*
X15515105Y-11355251D01*
X15515105Y-11355251D02*
X15505581Y-11374299D01*
X15505581Y-11374299D02*
X15496057Y-11383823D01*
X15496057Y-11383823D02*
X15477009Y-11393347D01*
X15477009Y-11393347D02*
X15457962Y-11393347D01*
X15457962Y-11393347D02*
X15438914Y-11383823D01*
X15438914Y-11383823D02*
X15429390Y-11374299D01*
X15429390Y-11374299D02*
X15419867Y-11355251D01*
X15419867Y-11355251D02*
X15410343Y-11317156D01*
X15410343Y-11317156D02*
X15410343Y-11269537D01*
X15410343Y-11269537D02*
X15419867Y-11231442D01*
X15419867Y-11231442D02*
X15429390Y-11212394D01*
X15429390Y-11212394D02*
X15438914Y-11202870D01*
X15438914Y-11202870D02*
X15457962Y-11193347D01*
X15762724Y-11393347D02*
X15762724Y-11193347D01*
X15848438Y-11393347D02*
X15848438Y-11288585D01*
X15848438Y-11288585D02*
X15838914Y-11269537D01*
X15838914Y-11269537D02*
X15819867Y-11260013D01*
X15819867Y-11260013D02*
X15791295Y-11260013D01*
X15791295Y-11260013D02*
X15772248Y-11269537D01*
X15772248Y-11269537D02*
X15762724Y-11279061D01*
X15972248Y-11393347D02*
X15953200Y-11383823D01*
X15953200Y-11383823D02*
X15943676Y-11374299D01*
X15943676Y-11374299D02*
X15934152Y-11355251D01*
X15934152Y-11355251D02*
X15934152Y-11298109D01*
X15934152Y-11298109D02*
X15943676Y-11279061D01*
X15943676Y-11279061D02*
X15953200Y-11269537D01*
X15953200Y-11269537D02*
X15972248Y-11260013D01*
X15972248Y-11260013D02*
X16000819Y-11260013D01*
X16000819Y-11260013D02*
X16019867Y-11269537D01*
X16019867Y-11269537D02*
X16029390Y-11279061D01*
X16029390Y-11279061D02*
X16038914Y-11298109D01*
X16038914Y-11298109D02*
X16038914Y-11355251D01*
X16038914Y-11355251D02*
X16029390Y-11374299D01*
X16029390Y-11374299D02*
X16019867Y-11383823D01*
X16019867Y-11383823D02*
X16000819Y-11393347D01*
X16000819Y-11393347D02*
X15972248Y-11393347D01*
X16153200Y-11393347D02*
X16134152Y-11383823D01*
X16134152Y-11383823D02*
X16124629Y-11364775D01*
X16124629Y-11364775D02*
X16124629Y-11193347D01*
X16305581Y-11383823D02*
X16286533Y-11393347D01*
X16286533Y-11393347D02*
X16248438Y-11393347D01*
X16248438Y-11393347D02*
X16229390Y-11383823D01*
X16229390Y-11383823D02*
X16219867Y-11364775D01*
X16219867Y-11364775D02*
X16219867Y-11288585D01*
X16219867Y-11288585D02*
X16229390Y-11269537D01*
X16229390Y-11269537D02*
X16248438Y-11260013D01*
X16248438Y-11260013D02*
X16286533Y-11260013D01*
X16286533Y-11260013D02*
X16305581Y-11269537D01*
X16305581Y-11269537D02*
X16315105Y-11288585D01*
X16315105Y-11288585D02*
X16315105Y-11307632D01*
X16315105Y-11307632D02*
X16219867Y-11326680D01*
X16391295Y-11383823D02*
X16410343Y-11393347D01*
X16410343Y-11393347D02*
X16448438Y-11393347D01*
X16448438Y-11393347D02*
X16467486Y-11383823D01*
X16467486Y-11383823D02*
X16477010Y-11364775D01*
X16477010Y-11364775D02*
X16477010Y-11355251D01*
X16477010Y-11355251D02*
X16467486Y-11336204D01*
X16467486Y-11336204D02*
X16448438Y-11326680D01*
X16448438Y-11326680D02*
X16419867Y-11326680D01*
X16419867Y-11326680D02*
X16400819Y-11317156D01*
X16400819Y-11317156D02*
X16391295Y-11298109D01*
X16391295Y-11298109D02*
X16391295Y-11288585D01*
X16391295Y-11288585D02*
X16400819Y-11269537D01*
X16400819Y-11269537D02*
X16419867Y-11260013D01*
X16419867Y-11260013D02*
X16448438Y-11260013D01*
X16448438Y-11260013D02*
X16467486Y-11269537D01*
X16543676Y-11469537D02*
X16553200Y-11460013D01*
X16553200Y-11460013D02*
X16572248Y-11431442D01*
X16572248Y-11431442D02*
X16581771Y-11412394D01*
X16581771Y-11412394D02*
X16591295Y-11383823D01*
X16591295Y-11383823D02*
X16600819Y-11336204D01*
X16600819Y-11336204D02*
X16600819Y-11298109D01*
X16600819Y-11298109D02*
X16591295Y-11250489D01*
X16591295Y-11250489D02*
X16581771Y-11221918D01*
X16581771Y-11221918D02*
X16572248Y-11202870D01*
X16572248Y-11202870D02*
X16553200Y-11174299D01*
X16553200Y-11174299D02*
X16543676Y-11164775D01*
D10*
X11578137Y-11565863D02*
G75*
G03*
X11578137Y-11565863I-50000J0D01*
G01*
D11*
X11943676Y-11657347D02*
X11829390Y-11657347D01*
X11886533Y-11657347D02*
X11886533Y-11457347D01*
X11886533Y-11457347D02*
X11867485Y-11485918D01*
X11867485Y-11485918D02*
X11848438Y-11504966D01*
X11848438Y-11504966D02*
X11829390Y-11514489D01*
X12029390Y-11638299D02*
X12038914Y-11647823D01*
X12038914Y-11647823D02*
X12029390Y-11657347D01*
X12029390Y-11657347D02*
X12019866Y-11647823D01*
X12019866Y-11647823D02*
X12029390Y-11638299D01*
X12029390Y-11638299D02*
X12029390Y-11657347D01*
X12162723Y-11457347D02*
X12181771Y-11457347D01*
X12181771Y-11457347D02*
X12200819Y-11466870D01*
X12200819Y-11466870D02*
X12210342Y-11476394D01*
X12210342Y-11476394D02*
X12219866Y-11495442D01*
X12219866Y-11495442D02*
X12229390Y-11533537D01*
X12229390Y-11533537D02*
X12229390Y-11581156D01*
X12229390Y-11581156D02*
X12219866Y-11619251D01*
X12219866Y-11619251D02*
X12210342Y-11638299D01*
X12210342Y-11638299D02*
X12200819Y-11647823D01*
X12200819Y-11647823D02*
X12181771Y-11657347D01*
X12181771Y-11657347D02*
X12162723Y-11657347D01*
X12162723Y-11657347D02*
X12143676Y-11647823D01*
X12143676Y-11647823D02*
X12134152Y-11638299D01*
X12134152Y-11638299D02*
X12124628Y-11619251D01*
X12124628Y-11619251D02*
X12115104Y-11581156D01*
X12115104Y-11581156D02*
X12115104Y-11533537D01*
X12115104Y-11533537D02*
X12124628Y-11495442D01*
X12124628Y-11495442D02*
X12134152Y-11476394D01*
X12134152Y-11476394D02*
X12143676Y-11466870D01*
X12143676Y-11466870D02*
X12162723Y-11457347D01*
X12353200Y-11457347D02*
X12372247Y-11457347D01*
X12372247Y-11457347D02*
X12391295Y-11466870D01*
X12391295Y-11466870D02*
X12400819Y-11476394D01*
X12400819Y-11476394D02*
X12410342Y-11495442D01*
X12410342Y-11495442D02*
X12419866Y-11533537D01*
X12419866Y-11533537D02*
X12419866Y-11581156D01*
X12419866Y-11581156D02*
X12410342Y-11619251D01*
X12410342Y-11619251D02*
X12400819Y-11638299D01*
X12400819Y-11638299D02*
X12391295Y-11647823D01*
X12391295Y-11647823D02*
X12372247Y-11657347D01*
X12372247Y-11657347D02*
X12353200Y-11657347D01*
X12353200Y-11657347D02*
X12334152Y-11647823D01*
X12334152Y-11647823D02*
X12324628Y-11638299D01*
X12324628Y-11638299D02*
X12315104Y-11619251D01*
X12315104Y-11619251D02*
X12305581Y-11581156D01*
X12305581Y-11581156D02*
X12305581Y-11533537D01*
X12305581Y-11533537D02*
X12315104Y-11495442D01*
X12315104Y-11495442D02*
X12324628Y-11476394D01*
X12324628Y-11476394D02*
X12334152Y-11466870D01*
X12334152Y-11466870D02*
X12353200Y-11457347D01*
X12543676Y-11457347D02*
X12562723Y-11457347D01*
X12562723Y-11457347D02*
X12581771Y-11466870D01*
X12581771Y-11466870D02*
X12591295Y-11476394D01*
X12591295Y-11476394D02*
X12600819Y-11495442D01*
X12600819Y-11495442D02*
X12610342Y-11533537D01*
X12610342Y-11533537D02*
X12610342Y-11581156D01*
X12610342Y-11581156D02*
X12600819Y-11619251D01*
X12600819Y-11619251D02*
X12591295Y-11638299D01*
X12591295Y-11638299D02*
X12581771Y-11647823D01*
X12581771Y-11647823D02*
X12562723Y-11657347D01*
X12562723Y-11657347D02*
X12543676Y-11657347D01*
X12543676Y-11657347D02*
X12524628Y-11647823D01*
X12524628Y-11647823D02*
X12515104Y-11638299D01*
X12515104Y-11638299D02*
X12505581Y-11619251D01*
X12505581Y-11619251D02*
X12496057Y-11581156D01*
X12496057Y-11581156D02*
X12496057Y-11533537D01*
X12496057Y-11533537D02*
X12505581Y-11495442D01*
X12505581Y-11495442D02*
X12515104Y-11476394D01*
X12515104Y-11476394D02*
X12524628Y-11466870D01*
X12524628Y-11466870D02*
X12543676Y-11457347D01*
X12696057Y-11657347D02*
X12696057Y-11524013D01*
X12696057Y-11543061D02*
X12705581Y-11533537D01*
X12705581Y-11533537D02*
X12724628Y-11524013D01*
X12724628Y-11524013D02*
X12753200Y-11524013D01*
X12753200Y-11524013D02*
X12772247Y-11533537D01*
X12772247Y-11533537D02*
X12781771Y-11552585D01*
X12781771Y-11552585D02*
X12781771Y-11657347D01*
X12781771Y-11552585D02*
X12791295Y-11533537D01*
X12791295Y-11533537D02*
X12810342Y-11524013D01*
X12810342Y-11524013D02*
X12838914Y-11524013D01*
X12838914Y-11524013D02*
X12857962Y-11533537D01*
X12857962Y-11533537D02*
X12867485Y-11552585D01*
X12867485Y-11552585D02*
X12867485Y-11657347D01*
X12962723Y-11657347D02*
X12962723Y-11524013D01*
X12962723Y-11543061D02*
X12972247Y-11533537D01*
X12972247Y-11533537D02*
X12991295Y-11524013D01*
X12991295Y-11524013D02*
X13019866Y-11524013D01*
X13019866Y-11524013D02*
X13038914Y-11533537D01*
X13038914Y-11533537D02*
X13048438Y-11552585D01*
X13048438Y-11552585D02*
X13048438Y-11657347D01*
X13048438Y-11552585D02*
X13057962Y-11533537D01*
X13057962Y-11533537D02*
X13077009Y-11524013D01*
X13077009Y-11524013D02*
X13105581Y-11524013D01*
X13105581Y-11524013D02*
X13124628Y-11533537D01*
X13124628Y-11533537D02*
X13134152Y-11552585D01*
X13134152Y-11552585D02*
X13134152Y-11657347D01*
X13524628Y-11447823D02*
X13353200Y-11704966D01*
X13781771Y-11457347D02*
X13800819Y-11457347D01*
X13800819Y-11457347D02*
X13819866Y-11466870D01*
X13819866Y-11466870D02*
X13829390Y-11476394D01*
X13829390Y-11476394D02*
X13838914Y-11495442D01*
X13838914Y-11495442D02*
X13848438Y-11533537D01*
X13848438Y-11533537D02*
X13848438Y-11581156D01*
X13848438Y-11581156D02*
X13838914Y-11619251D01*
X13838914Y-11619251D02*
X13829390Y-11638299D01*
X13829390Y-11638299D02*
X13819866Y-11647823D01*
X13819866Y-11647823D02*
X13800819Y-11657347D01*
X13800819Y-11657347D02*
X13781771Y-11657347D01*
X13781771Y-11657347D02*
X13762724Y-11647823D01*
X13762724Y-11647823D02*
X13753200Y-11638299D01*
X13753200Y-11638299D02*
X13743676Y-11619251D01*
X13743676Y-11619251D02*
X13734152Y-11581156D01*
X13734152Y-11581156D02*
X13734152Y-11533537D01*
X13734152Y-11533537D02*
X13743676Y-11495442D01*
X13743676Y-11495442D02*
X13753200Y-11476394D01*
X13753200Y-11476394D02*
X13762724Y-11466870D01*
X13762724Y-11466870D02*
X13781771Y-11457347D01*
X13934152Y-11638299D02*
X13943676Y-11647823D01*
X13943676Y-11647823D02*
X13934152Y-11657347D01*
X13934152Y-11657347D02*
X13924628Y-11647823D01*
X13924628Y-11647823D02*
X13934152Y-11638299D01*
X13934152Y-11638299D02*
X13934152Y-11657347D01*
X14067485Y-11457347D02*
X14086533Y-11457347D01*
X14086533Y-11457347D02*
X14105581Y-11466870D01*
X14105581Y-11466870D02*
X14115105Y-11476394D01*
X14115105Y-11476394D02*
X14124628Y-11495442D01*
X14124628Y-11495442D02*
X14134152Y-11533537D01*
X14134152Y-11533537D02*
X14134152Y-11581156D01*
X14134152Y-11581156D02*
X14124628Y-11619251D01*
X14124628Y-11619251D02*
X14115105Y-11638299D01*
X14115105Y-11638299D02*
X14105581Y-11647823D01*
X14105581Y-11647823D02*
X14086533Y-11657347D01*
X14086533Y-11657347D02*
X14067485Y-11657347D01*
X14067485Y-11657347D02*
X14048438Y-11647823D01*
X14048438Y-11647823D02*
X14038914Y-11638299D01*
X14038914Y-11638299D02*
X14029390Y-11619251D01*
X14029390Y-11619251D02*
X14019866Y-11581156D01*
X14019866Y-11581156D02*
X14019866Y-11533537D01*
X14019866Y-11533537D02*
X14029390Y-11495442D01*
X14029390Y-11495442D02*
X14038914Y-11476394D01*
X14038914Y-11476394D02*
X14048438Y-11466870D01*
X14048438Y-11466870D02*
X14067485Y-11457347D01*
X14200819Y-11457347D02*
X14324628Y-11457347D01*
X14324628Y-11457347D02*
X14257962Y-11533537D01*
X14257962Y-11533537D02*
X14286533Y-11533537D01*
X14286533Y-11533537D02*
X14305581Y-11543061D01*
X14305581Y-11543061D02*
X14315105Y-11552585D01*
X14315105Y-11552585D02*
X14324628Y-11571632D01*
X14324628Y-11571632D02*
X14324628Y-11619251D01*
X14324628Y-11619251D02*
X14315105Y-11638299D01*
X14315105Y-11638299D02*
X14305581Y-11647823D01*
X14305581Y-11647823D02*
X14286533Y-11657347D01*
X14286533Y-11657347D02*
X14229390Y-11657347D01*
X14229390Y-11657347D02*
X14210343Y-11647823D01*
X14210343Y-11647823D02*
X14200819Y-11638299D01*
X14419866Y-11657347D02*
X14457962Y-11657347D01*
X14457962Y-11657347D02*
X14477009Y-11647823D01*
X14477009Y-11647823D02*
X14486533Y-11638299D01*
X14486533Y-11638299D02*
X14505581Y-11609728D01*
X14505581Y-11609728D02*
X14515105Y-11571632D01*
X14515105Y-11571632D02*
X14515105Y-11495442D01*
X14515105Y-11495442D02*
X14505581Y-11476394D01*
X14505581Y-11476394D02*
X14496057Y-11466870D01*
X14496057Y-11466870D02*
X14477009Y-11457347D01*
X14477009Y-11457347D02*
X14438914Y-11457347D01*
X14438914Y-11457347D02*
X14419866Y-11466870D01*
X14419866Y-11466870D02*
X14410343Y-11476394D01*
X14410343Y-11476394D02*
X14400819Y-11495442D01*
X14400819Y-11495442D02*
X14400819Y-11543061D01*
X14400819Y-11543061D02*
X14410343Y-11562109D01*
X14410343Y-11562109D02*
X14419866Y-11571632D01*
X14419866Y-11571632D02*
X14438914Y-11581156D01*
X14438914Y-11581156D02*
X14477009Y-11581156D01*
X14477009Y-11581156D02*
X14496057Y-11571632D01*
X14496057Y-11571632D02*
X14505581Y-11562109D01*
X14505581Y-11562109D02*
X14515105Y-11543061D01*
X14686533Y-11524013D02*
X14686533Y-11657347D01*
X14638914Y-11447823D02*
X14591295Y-11590680D01*
X14591295Y-11590680D02*
X14715105Y-11590680D01*
X14781771Y-11457347D02*
X14781771Y-11495442D01*
X14857962Y-11457347D02*
X14857962Y-11495442D01*
X15153200Y-11733537D02*
X15143676Y-11724013D01*
X15143676Y-11724013D02*
X15124628Y-11695442D01*
X15124628Y-11695442D02*
X15115105Y-11676394D01*
X15115105Y-11676394D02*
X15105581Y-11647823D01*
X15105581Y-11647823D02*
X15096057Y-11600204D01*
X15096057Y-11600204D02*
X15096057Y-11562109D01*
X15096057Y-11562109D02*
X15105581Y-11514489D01*
X15105581Y-11514489D02*
X15115105Y-11485918D01*
X15115105Y-11485918D02*
X15124628Y-11466870D01*
X15124628Y-11466870D02*
X15143676Y-11438299D01*
X15143676Y-11438299D02*
X15153200Y-11428775D01*
X15219867Y-11476394D02*
X15229390Y-11466870D01*
X15229390Y-11466870D02*
X15248438Y-11457347D01*
X15248438Y-11457347D02*
X15296057Y-11457347D01*
X15296057Y-11457347D02*
X15315105Y-11466870D01*
X15315105Y-11466870D02*
X15324628Y-11476394D01*
X15324628Y-11476394D02*
X15334152Y-11495442D01*
X15334152Y-11495442D02*
X15334152Y-11514489D01*
X15334152Y-11514489D02*
X15324628Y-11543061D01*
X15324628Y-11543061D02*
X15210343Y-11657347D01*
X15210343Y-11657347D02*
X15334152Y-11657347D01*
X15515105Y-11457347D02*
X15419867Y-11457347D01*
X15419867Y-11457347D02*
X15410343Y-11552585D01*
X15410343Y-11552585D02*
X15419867Y-11543061D01*
X15419867Y-11543061D02*
X15438914Y-11533537D01*
X15438914Y-11533537D02*
X15486533Y-11533537D01*
X15486533Y-11533537D02*
X15505581Y-11543061D01*
X15505581Y-11543061D02*
X15515105Y-11552585D01*
X15515105Y-11552585D02*
X15524628Y-11571632D01*
X15524628Y-11571632D02*
X15524628Y-11619251D01*
X15524628Y-11619251D02*
X15515105Y-11638299D01*
X15515105Y-11638299D02*
X15505581Y-11647823D01*
X15505581Y-11647823D02*
X15486533Y-11657347D01*
X15486533Y-11657347D02*
X15438914Y-11657347D01*
X15438914Y-11657347D02*
X15419867Y-11647823D01*
X15419867Y-11647823D02*
X15410343Y-11638299D01*
X15762724Y-11657347D02*
X15762724Y-11457347D01*
X15848438Y-11657347D02*
X15848438Y-11552585D01*
X15848438Y-11552585D02*
X15838914Y-11533537D01*
X15838914Y-11533537D02*
X15819867Y-11524013D01*
X15819867Y-11524013D02*
X15791295Y-11524013D01*
X15791295Y-11524013D02*
X15772248Y-11533537D01*
X15772248Y-11533537D02*
X15762724Y-11543061D01*
X15972248Y-11657347D02*
X15953200Y-11647823D01*
X15953200Y-11647823D02*
X15943676Y-11638299D01*
X15943676Y-11638299D02*
X15934152Y-11619251D01*
X15934152Y-11619251D02*
X15934152Y-11562109D01*
X15934152Y-11562109D02*
X15943676Y-11543061D01*
X15943676Y-11543061D02*
X15953200Y-11533537D01*
X15953200Y-11533537D02*
X15972248Y-11524013D01*
X15972248Y-11524013D02*
X16000819Y-11524013D01*
X16000819Y-11524013D02*
X16019867Y-11533537D01*
X16019867Y-11533537D02*
X16029390Y-11543061D01*
X16029390Y-11543061D02*
X16038914Y-11562109D01*
X16038914Y-11562109D02*
X16038914Y-11619251D01*
X16038914Y-11619251D02*
X16029390Y-11638299D01*
X16029390Y-11638299D02*
X16019867Y-11647823D01*
X16019867Y-11647823D02*
X16000819Y-11657347D01*
X16000819Y-11657347D02*
X15972248Y-11657347D01*
X16153200Y-11657347D02*
X16134152Y-11647823D01*
X16134152Y-11647823D02*
X16124629Y-11628775D01*
X16124629Y-11628775D02*
X16124629Y-11457347D01*
X16305581Y-11647823D02*
X16286533Y-11657347D01*
X16286533Y-11657347D02*
X16248438Y-11657347D01*
X16248438Y-11657347D02*
X16229390Y-11647823D01*
X16229390Y-11647823D02*
X16219867Y-11628775D01*
X16219867Y-11628775D02*
X16219867Y-11552585D01*
X16219867Y-11552585D02*
X16229390Y-11533537D01*
X16229390Y-11533537D02*
X16248438Y-11524013D01*
X16248438Y-11524013D02*
X16286533Y-11524013D01*
X16286533Y-11524013D02*
X16305581Y-11533537D01*
X16305581Y-11533537D02*
X16315105Y-11552585D01*
X16315105Y-11552585D02*
X16315105Y-11571632D01*
X16315105Y-11571632D02*
X16219867Y-11590680D01*
X16391295Y-11647823D02*
X16410343Y-11657347D01*
X16410343Y-11657347D02*
X16448438Y-11657347D01*
X16448438Y-11657347D02*
X16467486Y-11647823D01*
X16467486Y-11647823D02*
X16477010Y-11628775D01*
X16477010Y-11628775D02*
X16477010Y-11619251D01*
X16477010Y-11619251D02*
X16467486Y-11600204D01*
X16467486Y-11600204D02*
X16448438Y-11590680D01*
X16448438Y-11590680D02*
X16419867Y-11590680D01*
X16419867Y-11590680D02*
X16400819Y-11581156D01*
X16400819Y-11581156D02*
X16391295Y-11562109D01*
X16391295Y-11562109D02*
X16391295Y-11552585D01*
X16391295Y-11552585D02*
X16400819Y-11533537D01*
X16400819Y-11533537D02*
X16419867Y-11524013D01*
X16419867Y-11524013D02*
X16448438Y-11524013D01*
X16448438Y-11524013D02*
X16467486Y-11533537D01*
X16543676Y-11733537D02*
X16553200Y-11724013D01*
X16553200Y-11724013D02*
X16572248Y-11695442D01*
X16572248Y-11695442D02*
X16581771Y-11676394D01*
X16581771Y-11676394D02*
X16591295Y-11647823D01*
X16591295Y-11647823D02*
X16600819Y-11600204D01*
X16600819Y-11600204D02*
X16600819Y-11562109D01*
X16600819Y-11562109D02*
X16591295Y-11514489D01*
X16591295Y-11514489D02*
X16581771Y-11485918D01*
X16581771Y-11485918D02*
X16572248Y-11466870D01*
X16572248Y-11466870D02*
X16553200Y-11438299D01*
X16553200Y-11438299D02*
X16543676Y-11428775D01*
D13*
X11527137Y-11778863D02*
X11527137Y-11880863D01*
X11476137Y-11829863D02*
X11578137Y-11829863D01*
D11*
X11943676Y-11921347D02*
X11829390Y-11921347D01*
X11886533Y-11921347D02*
X11886533Y-11721347D01*
X11886533Y-11721347D02*
X11867485Y-11749918D01*
X11867485Y-11749918D02*
X11848438Y-11768966D01*
X11848438Y-11768966D02*
X11829390Y-11778489D01*
X12029390Y-11902299D02*
X12038914Y-11911823D01*
X12038914Y-11911823D02*
X12029390Y-11921347D01*
X12029390Y-11921347D02*
X12019866Y-11911823D01*
X12019866Y-11911823D02*
X12029390Y-11902299D01*
X12029390Y-11902299D02*
X12029390Y-11921347D01*
X12162723Y-11721347D02*
X12181771Y-11721347D01*
X12181771Y-11721347D02*
X12200819Y-11730870D01*
X12200819Y-11730870D02*
X12210342Y-11740394D01*
X12210342Y-11740394D02*
X12219866Y-11759442D01*
X12219866Y-11759442D02*
X12229390Y-11797537D01*
X12229390Y-11797537D02*
X12229390Y-11845156D01*
X12229390Y-11845156D02*
X12219866Y-11883251D01*
X12219866Y-11883251D02*
X12210342Y-11902299D01*
X12210342Y-11902299D02*
X12200819Y-11911823D01*
X12200819Y-11911823D02*
X12181771Y-11921347D01*
X12181771Y-11921347D02*
X12162723Y-11921347D01*
X12162723Y-11921347D02*
X12143676Y-11911823D01*
X12143676Y-11911823D02*
X12134152Y-11902299D01*
X12134152Y-11902299D02*
X12124628Y-11883251D01*
X12124628Y-11883251D02*
X12115104Y-11845156D01*
X12115104Y-11845156D02*
X12115104Y-11797537D01*
X12115104Y-11797537D02*
X12124628Y-11759442D01*
X12124628Y-11759442D02*
X12134152Y-11740394D01*
X12134152Y-11740394D02*
X12143676Y-11730870D01*
X12143676Y-11730870D02*
X12162723Y-11721347D01*
X12305581Y-11740394D02*
X12315104Y-11730870D01*
X12315104Y-11730870D02*
X12334152Y-11721347D01*
X12334152Y-11721347D02*
X12381771Y-11721347D01*
X12381771Y-11721347D02*
X12400819Y-11730870D01*
X12400819Y-11730870D02*
X12410342Y-11740394D01*
X12410342Y-11740394D02*
X12419866Y-11759442D01*
X12419866Y-11759442D02*
X12419866Y-11778489D01*
X12419866Y-11778489D02*
X12410342Y-11807061D01*
X12410342Y-11807061D02*
X12296057Y-11921347D01*
X12296057Y-11921347D02*
X12419866Y-11921347D01*
X12543676Y-11721347D02*
X12562723Y-11721347D01*
X12562723Y-11721347D02*
X12581771Y-11730870D01*
X12581771Y-11730870D02*
X12591295Y-11740394D01*
X12591295Y-11740394D02*
X12600819Y-11759442D01*
X12600819Y-11759442D02*
X12610342Y-11797537D01*
X12610342Y-11797537D02*
X12610342Y-11845156D01*
X12610342Y-11845156D02*
X12600819Y-11883251D01*
X12600819Y-11883251D02*
X12591295Y-11902299D01*
X12591295Y-11902299D02*
X12581771Y-11911823D01*
X12581771Y-11911823D02*
X12562723Y-11921347D01*
X12562723Y-11921347D02*
X12543676Y-11921347D01*
X12543676Y-11921347D02*
X12524628Y-11911823D01*
X12524628Y-11911823D02*
X12515104Y-11902299D01*
X12515104Y-11902299D02*
X12505581Y-11883251D01*
X12505581Y-11883251D02*
X12496057Y-11845156D01*
X12496057Y-11845156D02*
X12496057Y-11797537D01*
X12496057Y-11797537D02*
X12505581Y-11759442D01*
X12505581Y-11759442D02*
X12515104Y-11740394D01*
X12515104Y-11740394D02*
X12524628Y-11730870D01*
X12524628Y-11730870D02*
X12543676Y-11721347D01*
X12696057Y-11921347D02*
X12696057Y-11788013D01*
X12696057Y-11807061D02*
X12705581Y-11797537D01*
X12705581Y-11797537D02*
X12724628Y-11788013D01*
X12724628Y-11788013D02*
X12753200Y-11788013D01*
X12753200Y-11788013D02*
X12772247Y-11797537D01*
X12772247Y-11797537D02*
X12781771Y-11816585D01*
X12781771Y-11816585D02*
X12781771Y-11921347D01*
X12781771Y-11816585D02*
X12791295Y-11797537D01*
X12791295Y-11797537D02*
X12810342Y-11788013D01*
X12810342Y-11788013D02*
X12838914Y-11788013D01*
X12838914Y-11788013D02*
X12857962Y-11797537D01*
X12857962Y-11797537D02*
X12867485Y-11816585D01*
X12867485Y-11816585D02*
X12867485Y-11921347D01*
X12962723Y-11921347D02*
X12962723Y-11788013D01*
X12962723Y-11807061D02*
X12972247Y-11797537D01*
X12972247Y-11797537D02*
X12991295Y-11788013D01*
X12991295Y-11788013D02*
X13019866Y-11788013D01*
X13019866Y-11788013D02*
X13038914Y-11797537D01*
X13038914Y-11797537D02*
X13048438Y-11816585D01*
X13048438Y-11816585D02*
X13048438Y-11921347D01*
X13048438Y-11816585D02*
X13057962Y-11797537D01*
X13057962Y-11797537D02*
X13077009Y-11788013D01*
X13077009Y-11788013D02*
X13105581Y-11788013D01*
X13105581Y-11788013D02*
X13124628Y-11797537D01*
X13124628Y-11797537D02*
X13134152Y-11816585D01*
X13134152Y-11816585D02*
X13134152Y-11921347D01*
X13524628Y-11711823D02*
X13353200Y-11968966D01*
X13781771Y-11721347D02*
X13800819Y-11721347D01*
X13800819Y-11721347D02*
X13819866Y-11730870D01*
X13819866Y-11730870D02*
X13829390Y-11740394D01*
X13829390Y-11740394D02*
X13838914Y-11759442D01*
X13838914Y-11759442D02*
X13848438Y-11797537D01*
X13848438Y-11797537D02*
X13848438Y-11845156D01*
X13848438Y-11845156D02*
X13838914Y-11883251D01*
X13838914Y-11883251D02*
X13829390Y-11902299D01*
X13829390Y-11902299D02*
X13819866Y-11911823D01*
X13819866Y-11911823D02*
X13800819Y-11921347D01*
X13800819Y-11921347D02*
X13781771Y-11921347D01*
X13781771Y-11921347D02*
X13762724Y-11911823D01*
X13762724Y-11911823D02*
X13753200Y-11902299D01*
X13753200Y-11902299D02*
X13743676Y-11883251D01*
X13743676Y-11883251D02*
X13734152Y-11845156D01*
X13734152Y-11845156D02*
X13734152Y-11797537D01*
X13734152Y-11797537D02*
X13743676Y-11759442D01*
X13743676Y-11759442D02*
X13753200Y-11740394D01*
X13753200Y-11740394D02*
X13762724Y-11730870D01*
X13762724Y-11730870D02*
X13781771Y-11721347D01*
X13934152Y-11902299D02*
X13943676Y-11911823D01*
X13943676Y-11911823D02*
X13934152Y-11921347D01*
X13934152Y-11921347D02*
X13924628Y-11911823D01*
X13924628Y-11911823D02*
X13934152Y-11902299D01*
X13934152Y-11902299D02*
X13934152Y-11921347D01*
X14067485Y-11721347D02*
X14086533Y-11721347D01*
X14086533Y-11721347D02*
X14105581Y-11730870D01*
X14105581Y-11730870D02*
X14115105Y-11740394D01*
X14115105Y-11740394D02*
X14124628Y-11759442D01*
X14124628Y-11759442D02*
X14134152Y-11797537D01*
X14134152Y-11797537D02*
X14134152Y-11845156D01*
X14134152Y-11845156D02*
X14124628Y-11883251D01*
X14124628Y-11883251D02*
X14115105Y-11902299D01*
X14115105Y-11902299D02*
X14105581Y-11911823D01*
X14105581Y-11911823D02*
X14086533Y-11921347D01*
X14086533Y-11921347D02*
X14067485Y-11921347D01*
X14067485Y-11921347D02*
X14048438Y-11911823D01*
X14048438Y-11911823D02*
X14038914Y-11902299D01*
X14038914Y-11902299D02*
X14029390Y-11883251D01*
X14029390Y-11883251D02*
X14019866Y-11845156D01*
X14019866Y-11845156D02*
X14019866Y-11797537D01*
X14019866Y-11797537D02*
X14029390Y-11759442D01*
X14029390Y-11759442D02*
X14038914Y-11740394D01*
X14038914Y-11740394D02*
X14048438Y-11730870D01*
X14048438Y-11730870D02*
X14067485Y-11721347D01*
X14305581Y-11788013D02*
X14305581Y-11921347D01*
X14257962Y-11711823D02*
X14210343Y-11854680D01*
X14210343Y-11854680D02*
X14334152Y-11854680D01*
X14448438Y-11721347D02*
X14467486Y-11721347D01*
X14467486Y-11721347D02*
X14486533Y-11730870D01*
X14486533Y-11730870D02*
X14496057Y-11740394D01*
X14496057Y-11740394D02*
X14505581Y-11759442D01*
X14505581Y-11759442D02*
X14515105Y-11797537D01*
X14515105Y-11797537D02*
X14515105Y-11845156D01*
X14515105Y-11845156D02*
X14505581Y-11883251D01*
X14505581Y-11883251D02*
X14496057Y-11902299D01*
X14496057Y-11902299D02*
X14486533Y-11911823D01*
X14486533Y-11911823D02*
X14467486Y-11921347D01*
X14467486Y-11921347D02*
X14448438Y-11921347D01*
X14448438Y-11921347D02*
X14429390Y-11911823D01*
X14429390Y-11911823D02*
X14419866Y-11902299D01*
X14419866Y-11902299D02*
X14410343Y-11883251D01*
X14410343Y-11883251D02*
X14400819Y-11845156D01*
X14400819Y-11845156D02*
X14400819Y-11797537D01*
X14400819Y-11797537D02*
X14410343Y-11759442D01*
X14410343Y-11759442D02*
X14419866Y-11740394D01*
X14419866Y-11740394D02*
X14429390Y-11730870D01*
X14429390Y-11730870D02*
X14448438Y-11721347D01*
X14591295Y-11740394D02*
X14600819Y-11730870D01*
X14600819Y-11730870D02*
X14619866Y-11721347D01*
X14619866Y-11721347D02*
X14667486Y-11721347D01*
X14667486Y-11721347D02*
X14686533Y-11730870D01*
X14686533Y-11730870D02*
X14696057Y-11740394D01*
X14696057Y-11740394D02*
X14705581Y-11759442D01*
X14705581Y-11759442D02*
X14705581Y-11778489D01*
X14705581Y-11778489D02*
X14696057Y-11807061D01*
X14696057Y-11807061D02*
X14581771Y-11921347D01*
X14581771Y-11921347D02*
X14705581Y-11921347D01*
X14781771Y-11721347D02*
X14781771Y-11759442D01*
X14857962Y-11721347D02*
X14857962Y-11759442D01*
X15153200Y-11997537D02*
X15143676Y-11988013D01*
X15143676Y-11988013D02*
X15124628Y-11959442D01*
X15124628Y-11959442D02*
X15115105Y-11940394D01*
X15115105Y-11940394D02*
X15105581Y-11911823D01*
X15105581Y-11911823D02*
X15096057Y-11864204D01*
X15096057Y-11864204D02*
X15096057Y-11826109D01*
X15096057Y-11826109D02*
X15105581Y-11778489D01*
X15105581Y-11778489D02*
X15115105Y-11749918D01*
X15115105Y-11749918D02*
X15124628Y-11730870D01*
X15124628Y-11730870D02*
X15143676Y-11702299D01*
X15143676Y-11702299D02*
X15153200Y-11692775D01*
X15219867Y-11740394D02*
X15229390Y-11730870D01*
X15229390Y-11730870D02*
X15248438Y-11721347D01*
X15248438Y-11721347D02*
X15296057Y-11721347D01*
X15296057Y-11721347D02*
X15315105Y-11730870D01*
X15315105Y-11730870D02*
X15324628Y-11740394D01*
X15324628Y-11740394D02*
X15334152Y-11759442D01*
X15334152Y-11759442D02*
X15334152Y-11778489D01*
X15334152Y-11778489D02*
X15324628Y-11807061D01*
X15324628Y-11807061D02*
X15210343Y-11921347D01*
X15210343Y-11921347D02*
X15334152Y-11921347D01*
X15457962Y-11721347D02*
X15477009Y-11721347D01*
X15477009Y-11721347D02*
X15496057Y-11730870D01*
X15496057Y-11730870D02*
X15505581Y-11740394D01*
X15505581Y-11740394D02*
X15515105Y-11759442D01*
X15515105Y-11759442D02*
X15524628Y-11797537D01*
X15524628Y-11797537D02*
X15524628Y-11845156D01*
X15524628Y-11845156D02*
X15515105Y-11883251D01*
X15515105Y-11883251D02*
X15505581Y-11902299D01*
X15505581Y-11902299D02*
X15496057Y-11911823D01*
X15496057Y-11911823D02*
X15477009Y-11921347D01*
X15477009Y-11921347D02*
X15457962Y-11921347D01*
X15457962Y-11921347D02*
X15438914Y-11911823D01*
X15438914Y-11911823D02*
X15429390Y-11902299D01*
X15429390Y-11902299D02*
X15419867Y-11883251D01*
X15419867Y-11883251D02*
X15410343Y-11845156D01*
X15410343Y-11845156D02*
X15410343Y-11797537D01*
X15410343Y-11797537D02*
X15419867Y-11759442D01*
X15419867Y-11759442D02*
X15429390Y-11740394D01*
X15429390Y-11740394D02*
X15438914Y-11730870D01*
X15438914Y-11730870D02*
X15457962Y-11721347D01*
X15762724Y-11921347D02*
X15762724Y-11721347D01*
X15848438Y-11921347D02*
X15848438Y-11816585D01*
X15848438Y-11816585D02*
X15838914Y-11797537D01*
X15838914Y-11797537D02*
X15819867Y-11788013D01*
X15819867Y-11788013D02*
X15791295Y-11788013D01*
X15791295Y-11788013D02*
X15772248Y-11797537D01*
X15772248Y-11797537D02*
X15762724Y-11807061D01*
X15972248Y-11921347D02*
X15953200Y-11911823D01*
X15953200Y-11911823D02*
X15943676Y-11902299D01*
X15943676Y-11902299D02*
X15934152Y-11883251D01*
X15934152Y-11883251D02*
X15934152Y-11826109D01*
X15934152Y-11826109D02*
X15943676Y-11807061D01*
X15943676Y-11807061D02*
X15953200Y-11797537D01*
X15953200Y-11797537D02*
X15972248Y-11788013D01*
X15972248Y-11788013D02*
X16000819Y-11788013D01*
X16000819Y-11788013D02*
X16019867Y-11797537D01*
X16019867Y-11797537D02*
X16029390Y-11807061D01*
X16029390Y-11807061D02*
X16038914Y-11826109D01*
X16038914Y-11826109D02*
X16038914Y-11883251D01*
X16038914Y-11883251D02*
X16029390Y-11902299D01*
X16029390Y-11902299D02*
X16019867Y-11911823D01*
X16019867Y-11911823D02*
X16000819Y-11921347D01*
X16000819Y-11921347D02*
X15972248Y-11921347D01*
X16153200Y-11921347D02*
X16134152Y-11911823D01*
X16134152Y-11911823D02*
X16124629Y-11892775D01*
X16124629Y-11892775D02*
X16124629Y-11721347D01*
X16305581Y-11911823D02*
X16286533Y-11921347D01*
X16286533Y-11921347D02*
X16248438Y-11921347D01*
X16248438Y-11921347D02*
X16229390Y-11911823D01*
X16229390Y-11911823D02*
X16219867Y-11892775D01*
X16219867Y-11892775D02*
X16219867Y-11816585D01*
X16219867Y-11816585D02*
X16229390Y-11797537D01*
X16229390Y-11797537D02*
X16248438Y-11788013D01*
X16248438Y-11788013D02*
X16286533Y-11788013D01*
X16286533Y-11788013D02*
X16305581Y-11797537D01*
X16305581Y-11797537D02*
X16315105Y-11816585D01*
X16315105Y-11816585D02*
X16315105Y-11835632D01*
X16315105Y-11835632D02*
X16219867Y-11854680D01*
X16391295Y-11911823D02*
X16410343Y-11921347D01*
X16410343Y-11921347D02*
X16448438Y-11921347D01*
X16448438Y-11921347D02*
X16467486Y-11911823D01*
X16467486Y-11911823D02*
X16477010Y-11892775D01*
X16477010Y-11892775D02*
X16477010Y-11883251D01*
X16477010Y-11883251D02*
X16467486Y-11864204D01*
X16467486Y-11864204D02*
X16448438Y-11854680D01*
X16448438Y-11854680D02*
X16419867Y-11854680D01*
X16419867Y-11854680D02*
X16400819Y-11845156D01*
X16400819Y-11845156D02*
X16391295Y-11826109D01*
X16391295Y-11826109D02*
X16391295Y-11816585D01*
X16391295Y-11816585D02*
X16400819Y-11797537D01*
X16400819Y-11797537D02*
X16419867Y-11788013D01*
X16419867Y-11788013D02*
X16448438Y-11788013D01*
X16448438Y-11788013D02*
X16467486Y-11797537D01*
X16543676Y-11997537D02*
X16553200Y-11988013D01*
X16553200Y-11988013D02*
X16572248Y-11959442D01*
X16572248Y-11959442D02*
X16581771Y-11940394D01*
X16581771Y-11940394D02*
X16591295Y-11911823D01*
X16591295Y-11911823D02*
X16600819Y-11864204D01*
X16600819Y-11864204D02*
X16600819Y-11826109D01*
X16600819Y-11826109D02*
X16591295Y-11778489D01*
X16591295Y-11778489D02*
X16581771Y-11749918D01*
X16581771Y-11749918D02*
X16572248Y-11730870D01*
X16572248Y-11730870D02*
X16553200Y-11702299D01*
X16553200Y-11702299D02*
X16543676Y-11692775D01*
D14*
X11562028Y-12132754D02*
X11562028Y-12054972D01*
X11484246Y-12054972D01*
X11484246Y-12132754D01*
X11562028Y-12132754D01*
D11*
X11943676Y-12185347D02*
X11829390Y-12185347D01*
X11886533Y-12185347D02*
X11886533Y-11985347D01*
X11886533Y-11985347D02*
X11867485Y-12013918D01*
X11867485Y-12013918D02*
X11848438Y-12032966D01*
X11848438Y-12032966D02*
X11829390Y-12042489D01*
X12029390Y-12166299D02*
X12038914Y-12175823D01*
X12038914Y-12175823D02*
X12029390Y-12185347D01*
X12029390Y-12185347D02*
X12019866Y-12175823D01*
X12019866Y-12175823D02*
X12029390Y-12166299D01*
X12029390Y-12166299D02*
X12029390Y-12185347D01*
X12229390Y-12185347D02*
X12115104Y-12185347D01*
X12172247Y-12185347D02*
X12172247Y-11985347D01*
X12172247Y-11985347D02*
X12153200Y-12013918D01*
X12153200Y-12013918D02*
X12134152Y-12032966D01*
X12134152Y-12032966D02*
X12115104Y-12042489D01*
X12353200Y-11985347D02*
X12372247Y-11985347D01*
X12372247Y-11985347D02*
X12391295Y-11994870D01*
X12391295Y-11994870D02*
X12400819Y-12004394D01*
X12400819Y-12004394D02*
X12410342Y-12023442D01*
X12410342Y-12023442D02*
X12419866Y-12061537D01*
X12419866Y-12061537D02*
X12419866Y-12109156D01*
X12419866Y-12109156D02*
X12410342Y-12147251D01*
X12410342Y-12147251D02*
X12400819Y-12166299D01*
X12400819Y-12166299D02*
X12391295Y-12175823D01*
X12391295Y-12175823D02*
X12372247Y-12185347D01*
X12372247Y-12185347D02*
X12353200Y-12185347D01*
X12353200Y-12185347D02*
X12334152Y-12175823D01*
X12334152Y-12175823D02*
X12324628Y-12166299D01*
X12324628Y-12166299D02*
X12315104Y-12147251D01*
X12315104Y-12147251D02*
X12305581Y-12109156D01*
X12305581Y-12109156D02*
X12305581Y-12061537D01*
X12305581Y-12061537D02*
X12315104Y-12023442D01*
X12315104Y-12023442D02*
X12324628Y-12004394D01*
X12324628Y-12004394D02*
X12334152Y-11994870D01*
X12334152Y-11994870D02*
X12353200Y-11985347D01*
X12543676Y-11985347D02*
X12562723Y-11985347D01*
X12562723Y-11985347D02*
X12581771Y-11994870D01*
X12581771Y-11994870D02*
X12591295Y-12004394D01*
X12591295Y-12004394D02*
X12600819Y-12023442D01*
X12600819Y-12023442D02*
X12610342Y-12061537D01*
X12610342Y-12061537D02*
X12610342Y-12109156D01*
X12610342Y-12109156D02*
X12600819Y-12147251D01*
X12600819Y-12147251D02*
X12591295Y-12166299D01*
X12591295Y-12166299D02*
X12581771Y-12175823D01*
X12581771Y-12175823D02*
X12562723Y-12185347D01*
X12562723Y-12185347D02*
X12543676Y-12185347D01*
X12543676Y-12185347D02*
X12524628Y-12175823D01*
X12524628Y-12175823D02*
X12515104Y-12166299D01*
X12515104Y-12166299D02*
X12505581Y-12147251D01*
X12505581Y-12147251D02*
X12496057Y-12109156D01*
X12496057Y-12109156D02*
X12496057Y-12061537D01*
X12496057Y-12061537D02*
X12505581Y-12023442D01*
X12505581Y-12023442D02*
X12515104Y-12004394D01*
X12515104Y-12004394D02*
X12524628Y-11994870D01*
X12524628Y-11994870D02*
X12543676Y-11985347D01*
X12696057Y-12185347D02*
X12696057Y-12052013D01*
X12696057Y-12071061D02*
X12705581Y-12061537D01*
X12705581Y-12061537D02*
X12724628Y-12052013D01*
X12724628Y-12052013D02*
X12753200Y-12052013D01*
X12753200Y-12052013D02*
X12772247Y-12061537D01*
X12772247Y-12061537D02*
X12781771Y-12080585D01*
X12781771Y-12080585D02*
X12781771Y-12185347D01*
X12781771Y-12080585D02*
X12791295Y-12061537D01*
X12791295Y-12061537D02*
X12810342Y-12052013D01*
X12810342Y-12052013D02*
X12838914Y-12052013D01*
X12838914Y-12052013D02*
X12857962Y-12061537D01*
X12857962Y-12061537D02*
X12867485Y-12080585D01*
X12867485Y-12080585D02*
X12867485Y-12185347D01*
X12962723Y-12185347D02*
X12962723Y-12052013D01*
X12962723Y-12071061D02*
X12972247Y-12061537D01*
X12972247Y-12061537D02*
X12991295Y-12052013D01*
X12991295Y-12052013D02*
X13019866Y-12052013D01*
X13019866Y-12052013D02*
X13038914Y-12061537D01*
X13038914Y-12061537D02*
X13048438Y-12080585D01*
X13048438Y-12080585D02*
X13048438Y-12185347D01*
X13048438Y-12080585D02*
X13057962Y-12061537D01*
X13057962Y-12061537D02*
X13077009Y-12052013D01*
X13077009Y-12052013D02*
X13105581Y-12052013D01*
X13105581Y-12052013D02*
X13124628Y-12061537D01*
X13124628Y-12061537D02*
X13134152Y-12080585D01*
X13134152Y-12080585D02*
X13134152Y-12185347D01*
X13524628Y-11975823D02*
X13353200Y-12232966D01*
X13781771Y-11985347D02*
X13800819Y-11985347D01*
X13800819Y-11985347D02*
X13819866Y-11994870D01*
X13819866Y-11994870D02*
X13829390Y-12004394D01*
X13829390Y-12004394D02*
X13838914Y-12023442D01*
X13838914Y-12023442D02*
X13848438Y-12061537D01*
X13848438Y-12061537D02*
X13848438Y-12109156D01*
X13848438Y-12109156D02*
X13838914Y-12147251D01*
X13838914Y-12147251D02*
X13829390Y-12166299D01*
X13829390Y-12166299D02*
X13819866Y-12175823D01*
X13819866Y-12175823D02*
X13800819Y-12185347D01*
X13800819Y-12185347D02*
X13781771Y-12185347D01*
X13781771Y-12185347D02*
X13762724Y-12175823D01*
X13762724Y-12175823D02*
X13753200Y-12166299D01*
X13753200Y-12166299D02*
X13743676Y-12147251D01*
X13743676Y-12147251D02*
X13734152Y-12109156D01*
X13734152Y-12109156D02*
X13734152Y-12061537D01*
X13734152Y-12061537D02*
X13743676Y-12023442D01*
X13743676Y-12023442D02*
X13753200Y-12004394D01*
X13753200Y-12004394D02*
X13762724Y-11994870D01*
X13762724Y-11994870D02*
X13781771Y-11985347D01*
X13934152Y-12166299D02*
X13943676Y-12175823D01*
X13943676Y-12175823D02*
X13934152Y-12185347D01*
X13934152Y-12185347D02*
X13924628Y-12175823D01*
X13924628Y-12175823D02*
X13934152Y-12166299D01*
X13934152Y-12166299D02*
X13934152Y-12185347D01*
X14067485Y-11985347D02*
X14086533Y-11985347D01*
X14086533Y-11985347D02*
X14105581Y-11994870D01*
X14105581Y-11994870D02*
X14115105Y-12004394D01*
X14115105Y-12004394D02*
X14124628Y-12023442D01*
X14124628Y-12023442D02*
X14134152Y-12061537D01*
X14134152Y-12061537D02*
X14134152Y-12109156D01*
X14134152Y-12109156D02*
X14124628Y-12147251D01*
X14124628Y-12147251D02*
X14115105Y-12166299D01*
X14115105Y-12166299D02*
X14105581Y-12175823D01*
X14105581Y-12175823D02*
X14086533Y-12185347D01*
X14086533Y-12185347D02*
X14067485Y-12185347D01*
X14067485Y-12185347D02*
X14048438Y-12175823D01*
X14048438Y-12175823D02*
X14038914Y-12166299D01*
X14038914Y-12166299D02*
X14029390Y-12147251D01*
X14029390Y-12147251D02*
X14019866Y-12109156D01*
X14019866Y-12109156D02*
X14019866Y-12061537D01*
X14019866Y-12061537D02*
X14029390Y-12023442D01*
X14029390Y-12023442D02*
X14038914Y-12004394D01*
X14038914Y-12004394D02*
X14048438Y-11994870D01*
X14048438Y-11994870D02*
X14067485Y-11985347D01*
X14305581Y-12052013D02*
X14305581Y-12185347D01*
X14257962Y-11975823D02*
X14210343Y-12118680D01*
X14210343Y-12118680D02*
X14334152Y-12118680D01*
X14391295Y-11985347D02*
X14515105Y-11985347D01*
X14515105Y-11985347D02*
X14448438Y-12061537D01*
X14448438Y-12061537D02*
X14477009Y-12061537D01*
X14477009Y-12061537D02*
X14496057Y-12071061D01*
X14496057Y-12071061D02*
X14505581Y-12080585D01*
X14505581Y-12080585D02*
X14515105Y-12099632D01*
X14515105Y-12099632D02*
X14515105Y-12147251D01*
X14515105Y-12147251D02*
X14505581Y-12166299D01*
X14505581Y-12166299D02*
X14496057Y-12175823D01*
X14496057Y-12175823D02*
X14477009Y-12185347D01*
X14477009Y-12185347D02*
X14419866Y-12185347D01*
X14419866Y-12185347D02*
X14400819Y-12175823D01*
X14400819Y-12175823D02*
X14391295Y-12166299D01*
X14581771Y-11985347D02*
X14705581Y-11985347D01*
X14705581Y-11985347D02*
X14638914Y-12061537D01*
X14638914Y-12061537D02*
X14667486Y-12061537D01*
X14667486Y-12061537D02*
X14686533Y-12071061D01*
X14686533Y-12071061D02*
X14696057Y-12080585D01*
X14696057Y-12080585D02*
X14705581Y-12099632D01*
X14705581Y-12099632D02*
X14705581Y-12147251D01*
X14705581Y-12147251D02*
X14696057Y-12166299D01*
X14696057Y-12166299D02*
X14686533Y-12175823D01*
X14686533Y-12175823D02*
X14667486Y-12185347D01*
X14667486Y-12185347D02*
X14610343Y-12185347D01*
X14610343Y-12185347D02*
X14591295Y-12175823D01*
X14591295Y-12175823D02*
X14581771Y-12166299D01*
X14781771Y-11985347D02*
X14781771Y-12023442D01*
X14857962Y-11985347D02*
X14857962Y-12023442D01*
X15153200Y-12261537D02*
X15143676Y-12252013D01*
X15143676Y-12252013D02*
X15124628Y-12223442D01*
X15124628Y-12223442D02*
X15115105Y-12204394D01*
X15115105Y-12204394D02*
X15105581Y-12175823D01*
X15105581Y-12175823D02*
X15096057Y-12128204D01*
X15096057Y-12128204D02*
X15096057Y-12090109D01*
X15096057Y-12090109D02*
X15105581Y-12042489D01*
X15105581Y-12042489D02*
X15115105Y-12013918D01*
X15115105Y-12013918D02*
X15124628Y-11994870D01*
X15124628Y-11994870D02*
X15143676Y-11966299D01*
X15143676Y-11966299D02*
X15153200Y-11956775D01*
X15219867Y-12004394D02*
X15229390Y-11994870D01*
X15229390Y-11994870D02*
X15248438Y-11985347D01*
X15248438Y-11985347D02*
X15296057Y-11985347D01*
X15296057Y-11985347D02*
X15315105Y-11994870D01*
X15315105Y-11994870D02*
X15324628Y-12004394D01*
X15324628Y-12004394D02*
X15334152Y-12023442D01*
X15334152Y-12023442D02*
X15334152Y-12042489D01*
X15334152Y-12042489D02*
X15324628Y-12071061D01*
X15324628Y-12071061D02*
X15210343Y-12185347D01*
X15210343Y-12185347D02*
X15334152Y-12185347D01*
X15572248Y-12185347D02*
X15572248Y-11985347D01*
X15657962Y-12185347D02*
X15657962Y-12080585D01*
X15657962Y-12080585D02*
X15648438Y-12061537D01*
X15648438Y-12061537D02*
X15629390Y-12052013D01*
X15629390Y-12052013D02*
X15600819Y-12052013D01*
X15600819Y-12052013D02*
X15581771Y-12061537D01*
X15581771Y-12061537D02*
X15572248Y-12071061D01*
X15781771Y-12185347D02*
X15762724Y-12175823D01*
X15762724Y-12175823D02*
X15753200Y-12166299D01*
X15753200Y-12166299D02*
X15743676Y-12147251D01*
X15743676Y-12147251D02*
X15743676Y-12090109D01*
X15743676Y-12090109D02*
X15753200Y-12071061D01*
X15753200Y-12071061D02*
X15762724Y-12061537D01*
X15762724Y-12061537D02*
X15781771Y-12052013D01*
X15781771Y-12052013D02*
X15810343Y-12052013D01*
X15810343Y-12052013D02*
X15829390Y-12061537D01*
X15829390Y-12061537D02*
X15838914Y-12071061D01*
X15838914Y-12071061D02*
X15848438Y-12090109D01*
X15848438Y-12090109D02*
X15848438Y-12147251D01*
X15848438Y-12147251D02*
X15838914Y-12166299D01*
X15838914Y-12166299D02*
X15829390Y-12175823D01*
X15829390Y-12175823D02*
X15810343Y-12185347D01*
X15810343Y-12185347D02*
X15781771Y-12185347D01*
X15962724Y-12185347D02*
X15943676Y-12175823D01*
X15943676Y-12175823D02*
X15934152Y-12156775D01*
X15934152Y-12156775D02*
X15934152Y-11985347D01*
X16115105Y-12175823D02*
X16096057Y-12185347D01*
X16096057Y-12185347D02*
X16057962Y-12185347D01*
X16057962Y-12185347D02*
X16038914Y-12175823D01*
X16038914Y-12175823D02*
X16029390Y-12156775D01*
X16029390Y-12156775D02*
X16029390Y-12080585D01*
X16029390Y-12080585D02*
X16038914Y-12061537D01*
X16038914Y-12061537D02*
X16057962Y-12052013D01*
X16057962Y-12052013D02*
X16096057Y-12052013D01*
X16096057Y-12052013D02*
X16115105Y-12061537D01*
X16115105Y-12061537D02*
X16124629Y-12080585D01*
X16124629Y-12080585D02*
X16124629Y-12099632D01*
X16124629Y-12099632D02*
X16029390Y-12118680D01*
X16200819Y-12175823D02*
X16219867Y-12185347D01*
X16219867Y-12185347D02*
X16257962Y-12185347D01*
X16257962Y-12185347D02*
X16277010Y-12175823D01*
X16277010Y-12175823D02*
X16286533Y-12156775D01*
X16286533Y-12156775D02*
X16286533Y-12147251D01*
X16286533Y-12147251D02*
X16277010Y-12128204D01*
X16277010Y-12128204D02*
X16257962Y-12118680D01*
X16257962Y-12118680D02*
X16229390Y-12118680D01*
X16229390Y-12118680D02*
X16210343Y-12109156D01*
X16210343Y-12109156D02*
X16200819Y-12090109D01*
X16200819Y-12090109D02*
X16200819Y-12080585D01*
X16200819Y-12080585D02*
X16210343Y-12061537D01*
X16210343Y-12061537D02*
X16229390Y-12052013D01*
X16229390Y-12052013D02*
X16257962Y-12052013D01*
X16257962Y-12052013D02*
X16277010Y-12061537D01*
X16353200Y-12261537D02*
X16362724Y-12252013D01*
X16362724Y-12252013D02*
X16381771Y-12223442D01*
X16381771Y-12223442D02*
X16391295Y-12204394D01*
X16391295Y-12204394D02*
X16400819Y-12175823D01*
X16400819Y-12175823D02*
X16410343Y-12128204D01*
X16410343Y-12128204D02*
X16410343Y-12090109D01*
X16410343Y-12090109D02*
X16400819Y-12042489D01*
X16400819Y-12042489D02*
X16391295Y-12013918D01*
X16391295Y-12013918D02*
X16381771Y-11994870D01*
X16381771Y-11994870D02*
X16362724Y-11966299D01*
X16362724Y-11966299D02*
X16353200Y-11956775D01*
D15*
X11520987Y-12415013D02*
X11578137Y-12357863D01*
X11520987Y-12300713D01*
X11463837Y-12357863D01*
X11520987Y-12415013D01*
D11*
X11943676Y-12449347D02*
X11829390Y-12449347D01*
X11886533Y-12449347D02*
X11886533Y-12249347D01*
X11886533Y-12249347D02*
X11867485Y-12277918D01*
X11867485Y-12277918D02*
X11848438Y-12296966D01*
X11848438Y-12296966D02*
X11829390Y-12306489D01*
X12029390Y-12430299D02*
X12038914Y-12439823D01*
X12038914Y-12439823D02*
X12029390Y-12449347D01*
X12029390Y-12449347D02*
X12019866Y-12439823D01*
X12019866Y-12439823D02*
X12029390Y-12430299D01*
X12029390Y-12430299D02*
X12029390Y-12449347D01*
X12229390Y-12449347D02*
X12115104Y-12449347D01*
X12172247Y-12449347D02*
X12172247Y-12249347D01*
X12172247Y-12249347D02*
X12153200Y-12277918D01*
X12153200Y-12277918D02*
X12134152Y-12296966D01*
X12134152Y-12296966D02*
X12115104Y-12306489D01*
X12400819Y-12316013D02*
X12400819Y-12449347D01*
X12353200Y-12239823D02*
X12305581Y-12382680D01*
X12305581Y-12382680D02*
X12429390Y-12382680D01*
X12486533Y-12249347D02*
X12610342Y-12249347D01*
X12610342Y-12249347D02*
X12543676Y-12325537D01*
X12543676Y-12325537D02*
X12572247Y-12325537D01*
X12572247Y-12325537D02*
X12591295Y-12335061D01*
X12591295Y-12335061D02*
X12600819Y-12344585D01*
X12600819Y-12344585D02*
X12610342Y-12363632D01*
X12610342Y-12363632D02*
X12610342Y-12411251D01*
X12610342Y-12411251D02*
X12600819Y-12430299D01*
X12600819Y-12430299D02*
X12591295Y-12439823D01*
X12591295Y-12439823D02*
X12572247Y-12449347D01*
X12572247Y-12449347D02*
X12515104Y-12449347D01*
X12515104Y-12449347D02*
X12496057Y-12439823D01*
X12496057Y-12439823D02*
X12486533Y-12430299D01*
X12696057Y-12449347D02*
X12696057Y-12316013D01*
X12696057Y-12335061D02*
X12705581Y-12325537D01*
X12705581Y-12325537D02*
X12724628Y-12316013D01*
X12724628Y-12316013D02*
X12753200Y-12316013D01*
X12753200Y-12316013D02*
X12772247Y-12325537D01*
X12772247Y-12325537D02*
X12781771Y-12344585D01*
X12781771Y-12344585D02*
X12781771Y-12449347D01*
X12781771Y-12344585D02*
X12791295Y-12325537D01*
X12791295Y-12325537D02*
X12810342Y-12316013D01*
X12810342Y-12316013D02*
X12838914Y-12316013D01*
X12838914Y-12316013D02*
X12857962Y-12325537D01*
X12857962Y-12325537D02*
X12867485Y-12344585D01*
X12867485Y-12344585D02*
X12867485Y-12449347D01*
X12962723Y-12449347D02*
X12962723Y-12316013D01*
X12962723Y-12335061D02*
X12972247Y-12325537D01*
X12972247Y-12325537D02*
X12991295Y-12316013D01*
X12991295Y-12316013D02*
X13019866Y-12316013D01*
X13019866Y-12316013D02*
X13038914Y-12325537D01*
X13038914Y-12325537D02*
X13048438Y-12344585D01*
X13048438Y-12344585D02*
X13048438Y-12449347D01*
X13048438Y-12344585D02*
X13057962Y-12325537D01*
X13057962Y-12325537D02*
X13077009Y-12316013D01*
X13077009Y-12316013D02*
X13105581Y-12316013D01*
X13105581Y-12316013D02*
X13124628Y-12325537D01*
X13124628Y-12325537D02*
X13134152Y-12344585D01*
X13134152Y-12344585D02*
X13134152Y-12449347D01*
X13524628Y-12239823D02*
X13353200Y-12496966D01*
X13781771Y-12249347D02*
X13800819Y-12249347D01*
X13800819Y-12249347D02*
X13819866Y-12258870D01*
X13819866Y-12258870D02*
X13829390Y-12268394D01*
X13829390Y-12268394D02*
X13838914Y-12287442D01*
X13838914Y-12287442D02*
X13848438Y-12325537D01*
X13848438Y-12325537D02*
X13848438Y-12373156D01*
X13848438Y-12373156D02*
X13838914Y-12411251D01*
X13838914Y-12411251D02*
X13829390Y-12430299D01*
X13829390Y-12430299D02*
X13819866Y-12439823D01*
X13819866Y-12439823D02*
X13800819Y-12449347D01*
X13800819Y-12449347D02*
X13781771Y-12449347D01*
X13781771Y-12449347D02*
X13762724Y-12439823D01*
X13762724Y-12439823D02*
X13753200Y-12430299D01*
X13753200Y-12430299D02*
X13743676Y-12411251D01*
X13743676Y-12411251D02*
X13734152Y-12373156D01*
X13734152Y-12373156D02*
X13734152Y-12325537D01*
X13734152Y-12325537D02*
X13743676Y-12287442D01*
X13743676Y-12287442D02*
X13753200Y-12268394D01*
X13753200Y-12268394D02*
X13762724Y-12258870D01*
X13762724Y-12258870D02*
X13781771Y-12249347D01*
X13934152Y-12430299D02*
X13943676Y-12439823D01*
X13943676Y-12439823D02*
X13934152Y-12449347D01*
X13934152Y-12449347D02*
X13924628Y-12439823D01*
X13924628Y-12439823D02*
X13934152Y-12430299D01*
X13934152Y-12430299D02*
X13934152Y-12449347D01*
X14067485Y-12249347D02*
X14086533Y-12249347D01*
X14086533Y-12249347D02*
X14105581Y-12258870D01*
X14105581Y-12258870D02*
X14115105Y-12268394D01*
X14115105Y-12268394D02*
X14124628Y-12287442D01*
X14124628Y-12287442D02*
X14134152Y-12325537D01*
X14134152Y-12325537D02*
X14134152Y-12373156D01*
X14134152Y-12373156D02*
X14124628Y-12411251D01*
X14124628Y-12411251D02*
X14115105Y-12430299D01*
X14115105Y-12430299D02*
X14105581Y-12439823D01*
X14105581Y-12439823D02*
X14086533Y-12449347D01*
X14086533Y-12449347D02*
X14067485Y-12449347D01*
X14067485Y-12449347D02*
X14048438Y-12439823D01*
X14048438Y-12439823D02*
X14038914Y-12430299D01*
X14038914Y-12430299D02*
X14029390Y-12411251D01*
X14029390Y-12411251D02*
X14019866Y-12373156D01*
X14019866Y-12373156D02*
X14019866Y-12325537D01*
X14019866Y-12325537D02*
X14029390Y-12287442D01*
X14029390Y-12287442D02*
X14038914Y-12268394D01*
X14038914Y-12268394D02*
X14048438Y-12258870D01*
X14048438Y-12258870D02*
X14067485Y-12249347D01*
X14305581Y-12316013D02*
X14305581Y-12449347D01*
X14257962Y-12239823D02*
X14210343Y-12382680D01*
X14210343Y-12382680D02*
X14334152Y-12382680D01*
X14505581Y-12249347D02*
X14410343Y-12249347D01*
X14410343Y-12249347D02*
X14400819Y-12344585D01*
X14400819Y-12344585D02*
X14410343Y-12335061D01*
X14410343Y-12335061D02*
X14429390Y-12325537D01*
X14429390Y-12325537D02*
X14477009Y-12325537D01*
X14477009Y-12325537D02*
X14496057Y-12335061D01*
X14496057Y-12335061D02*
X14505581Y-12344585D01*
X14505581Y-12344585D02*
X14515105Y-12363632D01*
X14515105Y-12363632D02*
X14515105Y-12411251D01*
X14515105Y-12411251D02*
X14505581Y-12430299D01*
X14505581Y-12430299D02*
X14496057Y-12439823D01*
X14496057Y-12439823D02*
X14477009Y-12449347D01*
X14477009Y-12449347D02*
X14429390Y-12449347D01*
X14429390Y-12449347D02*
X14410343Y-12439823D01*
X14410343Y-12439823D02*
X14400819Y-12430299D01*
X14638914Y-12249347D02*
X14657962Y-12249347D01*
X14657962Y-12249347D02*
X14677009Y-12258870D01*
X14677009Y-12258870D02*
X14686533Y-12268394D01*
X14686533Y-12268394D02*
X14696057Y-12287442D01*
X14696057Y-12287442D02*
X14705581Y-12325537D01*
X14705581Y-12325537D02*
X14705581Y-12373156D01*
X14705581Y-12373156D02*
X14696057Y-12411251D01*
X14696057Y-12411251D02*
X14686533Y-12430299D01*
X14686533Y-12430299D02*
X14677009Y-12439823D01*
X14677009Y-12439823D02*
X14657962Y-12449347D01*
X14657962Y-12449347D02*
X14638914Y-12449347D01*
X14638914Y-12449347D02*
X14619866Y-12439823D01*
X14619866Y-12439823D02*
X14610343Y-12430299D01*
X14610343Y-12430299D02*
X14600819Y-12411251D01*
X14600819Y-12411251D02*
X14591295Y-12373156D01*
X14591295Y-12373156D02*
X14591295Y-12325537D01*
X14591295Y-12325537D02*
X14600819Y-12287442D01*
X14600819Y-12287442D02*
X14610343Y-12268394D01*
X14610343Y-12268394D02*
X14619866Y-12258870D01*
X14619866Y-12258870D02*
X14638914Y-12249347D01*
X14781771Y-12249347D02*
X14781771Y-12287442D01*
X14857962Y-12249347D02*
X14857962Y-12287442D01*
X15153200Y-12525537D02*
X15143676Y-12516013D01*
X15143676Y-12516013D02*
X15124628Y-12487442D01*
X15124628Y-12487442D02*
X15115105Y-12468394D01*
X15115105Y-12468394D02*
X15105581Y-12439823D01*
X15105581Y-12439823D02*
X15096057Y-12392204D01*
X15096057Y-12392204D02*
X15096057Y-12354109D01*
X15096057Y-12354109D02*
X15105581Y-12306489D01*
X15105581Y-12306489D02*
X15115105Y-12277918D01*
X15115105Y-12277918D02*
X15124628Y-12258870D01*
X15124628Y-12258870D02*
X15143676Y-12230299D01*
X15143676Y-12230299D02*
X15153200Y-12220775D01*
X15210343Y-12249347D02*
X15334152Y-12249347D01*
X15334152Y-12249347D02*
X15267486Y-12325537D01*
X15267486Y-12325537D02*
X15296057Y-12325537D01*
X15296057Y-12325537D02*
X15315105Y-12335061D01*
X15315105Y-12335061D02*
X15324628Y-12344585D01*
X15324628Y-12344585D02*
X15334152Y-12363632D01*
X15334152Y-12363632D02*
X15334152Y-12411251D01*
X15334152Y-12411251D02*
X15324628Y-12430299D01*
X15324628Y-12430299D02*
X15315105Y-12439823D01*
X15315105Y-12439823D02*
X15296057Y-12449347D01*
X15296057Y-12449347D02*
X15238914Y-12449347D01*
X15238914Y-12449347D02*
X15219867Y-12439823D01*
X15219867Y-12439823D02*
X15210343Y-12430299D01*
X15572248Y-12449347D02*
X15572248Y-12249347D01*
X15657962Y-12449347D02*
X15657962Y-12344585D01*
X15657962Y-12344585D02*
X15648438Y-12325537D01*
X15648438Y-12325537D02*
X15629390Y-12316013D01*
X15629390Y-12316013D02*
X15600819Y-12316013D01*
X15600819Y-12316013D02*
X15581771Y-12325537D01*
X15581771Y-12325537D02*
X15572248Y-12335061D01*
X15781771Y-12449347D02*
X15762724Y-12439823D01*
X15762724Y-12439823D02*
X15753200Y-12430299D01*
X15753200Y-12430299D02*
X15743676Y-12411251D01*
X15743676Y-12411251D02*
X15743676Y-12354109D01*
X15743676Y-12354109D02*
X15753200Y-12335061D01*
X15753200Y-12335061D02*
X15762724Y-12325537D01*
X15762724Y-12325537D02*
X15781771Y-12316013D01*
X15781771Y-12316013D02*
X15810343Y-12316013D01*
X15810343Y-12316013D02*
X15829390Y-12325537D01*
X15829390Y-12325537D02*
X15838914Y-12335061D01*
X15838914Y-12335061D02*
X15848438Y-12354109D01*
X15848438Y-12354109D02*
X15848438Y-12411251D01*
X15848438Y-12411251D02*
X15838914Y-12430299D01*
X15838914Y-12430299D02*
X15829390Y-12439823D01*
X15829390Y-12439823D02*
X15810343Y-12449347D01*
X15810343Y-12449347D02*
X15781771Y-12449347D01*
X15962724Y-12449347D02*
X15943676Y-12439823D01*
X15943676Y-12439823D02*
X15934152Y-12420775D01*
X15934152Y-12420775D02*
X15934152Y-12249347D01*
X16115105Y-12439823D02*
X16096057Y-12449347D01*
X16096057Y-12449347D02*
X16057962Y-12449347D01*
X16057962Y-12449347D02*
X16038914Y-12439823D01*
X16038914Y-12439823D02*
X16029390Y-12420775D01*
X16029390Y-12420775D02*
X16029390Y-12344585D01*
X16029390Y-12344585D02*
X16038914Y-12325537D01*
X16038914Y-12325537D02*
X16057962Y-12316013D01*
X16057962Y-12316013D02*
X16096057Y-12316013D01*
X16096057Y-12316013D02*
X16115105Y-12325537D01*
X16115105Y-12325537D02*
X16124629Y-12344585D01*
X16124629Y-12344585D02*
X16124629Y-12363632D01*
X16124629Y-12363632D02*
X16029390Y-12382680D01*
X16200819Y-12439823D02*
X16219867Y-12449347D01*
X16219867Y-12449347D02*
X16257962Y-12449347D01*
X16257962Y-12449347D02*
X16277010Y-12439823D01*
X16277010Y-12439823D02*
X16286533Y-12420775D01*
X16286533Y-12420775D02*
X16286533Y-12411251D01*
X16286533Y-12411251D02*
X16277010Y-12392204D01*
X16277010Y-12392204D02*
X16257962Y-12382680D01*
X16257962Y-12382680D02*
X16229390Y-12382680D01*
X16229390Y-12382680D02*
X16210343Y-12373156D01*
X16210343Y-12373156D02*
X16200819Y-12354109D01*
X16200819Y-12354109D02*
X16200819Y-12344585D01*
X16200819Y-12344585D02*
X16210343Y-12325537D01*
X16210343Y-12325537D02*
X16229390Y-12316013D01*
X16229390Y-12316013D02*
X16257962Y-12316013D01*
X16257962Y-12316013D02*
X16277010Y-12325537D01*
X16353200Y-12525537D02*
X16362724Y-12516013D01*
X16362724Y-12516013D02*
X16381771Y-12487442D01*
X16381771Y-12487442D02*
X16391295Y-12468394D01*
X16391295Y-12468394D02*
X16400819Y-12439823D01*
X16400819Y-12439823D02*
X16410343Y-12392204D01*
X16410343Y-12392204D02*
X16410343Y-12354109D01*
X16410343Y-12354109D02*
X16400819Y-12306489D01*
X16400819Y-12306489D02*
X16391295Y-12277918D01*
X16391295Y-12277918D02*
X16381771Y-12258870D01*
X16381771Y-12258870D02*
X16362724Y-12230299D01*
X16362724Y-12230299D02*
X16353200Y-12220775D01*
D16*
X11398137Y-12531863D02*
X11578137Y-12711863D01*
X11578137Y-12531863D02*
X11398137Y-12711863D01*
X11578137Y-12621863D02*
G75*
G03*
X11578137Y-12621863I-90000J0D01*
G01*
D11*
X11943676Y-12713347D02*
X11829390Y-12713347D01*
X11886533Y-12713347D02*
X11886533Y-12513347D01*
X11886533Y-12513347D02*
X11867485Y-12541918D01*
X11867485Y-12541918D02*
X11848438Y-12560966D01*
X11848438Y-12560966D02*
X11829390Y-12570489D01*
X12029390Y-12694299D02*
X12038914Y-12703823D01*
X12038914Y-12703823D02*
X12029390Y-12713347D01*
X12029390Y-12713347D02*
X12019866Y-12703823D01*
X12019866Y-12703823D02*
X12029390Y-12694299D01*
X12029390Y-12694299D02*
X12029390Y-12713347D01*
X12153200Y-12599061D02*
X12134152Y-12589537D01*
X12134152Y-12589537D02*
X12124628Y-12580013D01*
X12124628Y-12580013D02*
X12115104Y-12560966D01*
X12115104Y-12560966D02*
X12115104Y-12551442D01*
X12115104Y-12551442D02*
X12124628Y-12532394D01*
X12124628Y-12532394D02*
X12134152Y-12522870D01*
X12134152Y-12522870D02*
X12153200Y-12513347D01*
X12153200Y-12513347D02*
X12191295Y-12513347D01*
X12191295Y-12513347D02*
X12210342Y-12522870D01*
X12210342Y-12522870D02*
X12219866Y-12532394D01*
X12219866Y-12532394D02*
X12229390Y-12551442D01*
X12229390Y-12551442D02*
X12229390Y-12560966D01*
X12229390Y-12560966D02*
X12219866Y-12580013D01*
X12219866Y-12580013D02*
X12210342Y-12589537D01*
X12210342Y-12589537D02*
X12191295Y-12599061D01*
X12191295Y-12599061D02*
X12153200Y-12599061D01*
X12153200Y-12599061D02*
X12134152Y-12608585D01*
X12134152Y-12608585D02*
X12124628Y-12618109D01*
X12124628Y-12618109D02*
X12115104Y-12637156D01*
X12115104Y-12637156D02*
X12115104Y-12675251D01*
X12115104Y-12675251D02*
X12124628Y-12694299D01*
X12124628Y-12694299D02*
X12134152Y-12703823D01*
X12134152Y-12703823D02*
X12153200Y-12713347D01*
X12153200Y-12713347D02*
X12191295Y-12713347D01*
X12191295Y-12713347D02*
X12210342Y-12703823D01*
X12210342Y-12703823D02*
X12219866Y-12694299D01*
X12219866Y-12694299D02*
X12229390Y-12675251D01*
X12229390Y-12675251D02*
X12229390Y-12637156D01*
X12229390Y-12637156D02*
X12219866Y-12618109D01*
X12219866Y-12618109D02*
X12210342Y-12608585D01*
X12210342Y-12608585D02*
X12191295Y-12599061D01*
X12353200Y-12513347D02*
X12372247Y-12513347D01*
X12372247Y-12513347D02*
X12391295Y-12522870D01*
X12391295Y-12522870D02*
X12400819Y-12532394D01*
X12400819Y-12532394D02*
X12410342Y-12551442D01*
X12410342Y-12551442D02*
X12419866Y-12589537D01*
X12419866Y-12589537D02*
X12419866Y-12637156D01*
X12419866Y-12637156D02*
X12410342Y-12675251D01*
X12410342Y-12675251D02*
X12400819Y-12694299D01*
X12400819Y-12694299D02*
X12391295Y-12703823D01*
X12391295Y-12703823D02*
X12372247Y-12713347D01*
X12372247Y-12713347D02*
X12353200Y-12713347D01*
X12353200Y-12713347D02*
X12334152Y-12703823D01*
X12334152Y-12703823D02*
X12324628Y-12694299D01*
X12324628Y-12694299D02*
X12315104Y-12675251D01*
X12315104Y-12675251D02*
X12305581Y-12637156D01*
X12305581Y-12637156D02*
X12305581Y-12589537D01*
X12305581Y-12589537D02*
X12315104Y-12551442D01*
X12315104Y-12551442D02*
X12324628Y-12532394D01*
X12324628Y-12532394D02*
X12334152Y-12522870D01*
X12334152Y-12522870D02*
X12353200Y-12513347D01*
X12543676Y-12513347D02*
X12562723Y-12513347D01*
X12562723Y-12513347D02*
X12581771Y-12522870D01*
X12581771Y-12522870D02*
X12591295Y-12532394D01*
X12591295Y-12532394D02*
X12600819Y-12551442D01*
X12600819Y-12551442D02*
X12610342Y-12589537D01*
X12610342Y-12589537D02*
X12610342Y-12637156D01*
X12610342Y-12637156D02*
X12600819Y-12675251D01*
X12600819Y-12675251D02*
X12591295Y-12694299D01*
X12591295Y-12694299D02*
X12581771Y-12703823D01*
X12581771Y-12703823D02*
X12562723Y-12713347D01*
X12562723Y-12713347D02*
X12543676Y-12713347D01*
X12543676Y-12713347D02*
X12524628Y-12703823D01*
X12524628Y-12703823D02*
X12515104Y-12694299D01*
X12515104Y-12694299D02*
X12505581Y-12675251D01*
X12505581Y-12675251D02*
X12496057Y-12637156D01*
X12496057Y-12637156D02*
X12496057Y-12589537D01*
X12496057Y-12589537D02*
X12505581Y-12551442D01*
X12505581Y-12551442D02*
X12515104Y-12532394D01*
X12515104Y-12532394D02*
X12524628Y-12522870D01*
X12524628Y-12522870D02*
X12543676Y-12513347D01*
X12696057Y-12713347D02*
X12696057Y-12580013D01*
X12696057Y-12599061D02*
X12705581Y-12589537D01*
X12705581Y-12589537D02*
X12724628Y-12580013D01*
X12724628Y-12580013D02*
X12753200Y-12580013D01*
X12753200Y-12580013D02*
X12772247Y-12589537D01*
X12772247Y-12589537D02*
X12781771Y-12608585D01*
X12781771Y-12608585D02*
X12781771Y-12713347D01*
X12781771Y-12608585D02*
X12791295Y-12589537D01*
X12791295Y-12589537D02*
X12810342Y-12580013D01*
X12810342Y-12580013D02*
X12838914Y-12580013D01*
X12838914Y-12580013D02*
X12857962Y-12589537D01*
X12857962Y-12589537D02*
X12867485Y-12608585D01*
X12867485Y-12608585D02*
X12867485Y-12713347D01*
X12962723Y-12713347D02*
X12962723Y-12580013D01*
X12962723Y-12599061D02*
X12972247Y-12589537D01*
X12972247Y-12589537D02*
X12991295Y-12580013D01*
X12991295Y-12580013D02*
X13019866Y-12580013D01*
X13019866Y-12580013D02*
X13038914Y-12589537D01*
X13038914Y-12589537D02*
X13048438Y-12608585D01*
X13048438Y-12608585D02*
X13048438Y-12713347D01*
X13048438Y-12608585D02*
X13057962Y-12589537D01*
X13057962Y-12589537D02*
X13077009Y-12580013D01*
X13077009Y-12580013D02*
X13105581Y-12580013D01*
X13105581Y-12580013D02*
X13124628Y-12589537D01*
X13124628Y-12589537D02*
X13134152Y-12608585D01*
X13134152Y-12608585D02*
X13134152Y-12713347D01*
X13524628Y-12503823D02*
X13353200Y-12760966D01*
X13781771Y-12513347D02*
X13800819Y-12513347D01*
X13800819Y-12513347D02*
X13819866Y-12522870D01*
X13819866Y-12522870D02*
X13829390Y-12532394D01*
X13829390Y-12532394D02*
X13838914Y-12551442D01*
X13838914Y-12551442D02*
X13848438Y-12589537D01*
X13848438Y-12589537D02*
X13848438Y-12637156D01*
X13848438Y-12637156D02*
X13838914Y-12675251D01*
X13838914Y-12675251D02*
X13829390Y-12694299D01*
X13829390Y-12694299D02*
X13819866Y-12703823D01*
X13819866Y-12703823D02*
X13800819Y-12713347D01*
X13800819Y-12713347D02*
X13781771Y-12713347D01*
X13781771Y-12713347D02*
X13762724Y-12703823D01*
X13762724Y-12703823D02*
X13753200Y-12694299D01*
X13753200Y-12694299D02*
X13743676Y-12675251D01*
X13743676Y-12675251D02*
X13734152Y-12637156D01*
X13734152Y-12637156D02*
X13734152Y-12589537D01*
X13734152Y-12589537D02*
X13743676Y-12551442D01*
X13743676Y-12551442D02*
X13753200Y-12532394D01*
X13753200Y-12532394D02*
X13762724Y-12522870D01*
X13762724Y-12522870D02*
X13781771Y-12513347D01*
X13934152Y-12694299D02*
X13943676Y-12703823D01*
X13943676Y-12703823D02*
X13934152Y-12713347D01*
X13934152Y-12713347D02*
X13924628Y-12703823D01*
X13924628Y-12703823D02*
X13934152Y-12694299D01*
X13934152Y-12694299D02*
X13934152Y-12713347D01*
X14067485Y-12513347D02*
X14086533Y-12513347D01*
X14086533Y-12513347D02*
X14105581Y-12522870D01*
X14105581Y-12522870D02*
X14115105Y-12532394D01*
X14115105Y-12532394D02*
X14124628Y-12551442D01*
X14124628Y-12551442D02*
X14134152Y-12589537D01*
X14134152Y-12589537D02*
X14134152Y-12637156D01*
X14134152Y-12637156D02*
X14124628Y-12675251D01*
X14124628Y-12675251D02*
X14115105Y-12694299D01*
X14115105Y-12694299D02*
X14105581Y-12703823D01*
X14105581Y-12703823D02*
X14086533Y-12713347D01*
X14086533Y-12713347D02*
X14067485Y-12713347D01*
X14067485Y-12713347D02*
X14048438Y-12703823D01*
X14048438Y-12703823D02*
X14038914Y-12694299D01*
X14038914Y-12694299D02*
X14029390Y-12675251D01*
X14029390Y-12675251D02*
X14019866Y-12637156D01*
X14019866Y-12637156D02*
X14019866Y-12589537D01*
X14019866Y-12589537D02*
X14029390Y-12551442D01*
X14029390Y-12551442D02*
X14038914Y-12532394D01*
X14038914Y-12532394D02*
X14048438Y-12522870D01*
X14048438Y-12522870D02*
X14067485Y-12513347D01*
X14200819Y-12513347D02*
X14334152Y-12513347D01*
X14334152Y-12513347D02*
X14248438Y-12713347D01*
X14448438Y-12513347D02*
X14467486Y-12513347D01*
X14467486Y-12513347D02*
X14486533Y-12522870D01*
X14486533Y-12522870D02*
X14496057Y-12532394D01*
X14496057Y-12532394D02*
X14505581Y-12551442D01*
X14505581Y-12551442D02*
X14515105Y-12589537D01*
X14515105Y-12589537D02*
X14515105Y-12637156D01*
X14515105Y-12637156D02*
X14505581Y-12675251D01*
X14505581Y-12675251D02*
X14496057Y-12694299D01*
X14496057Y-12694299D02*
X14486533Y-12703823D01*
X14486533Y-12703823D02*
X14467486Y-12713347D01*
X14467486Y-12713347D02*
X14448438Y-12713347D01*
X14448438Y-12713347D02*
X14429390Y-12703823D01*
X14429390Y-12703823D02*
X14419866Y-12694299D01*
X14419866Y-12694299D02*
X14410343Y-12675251D01*
X14410343Y-12675251D02*
X14400819Y-12637156D01*
X14400819Y-12637156D02*
X14400819Y-12589537D01*
X14400819Y-12589537D02*
X14410343Y-12551442D01*
X14410343Y-12551442D02*
X14419866Y-12532394D01*
X14419866Y-12532394D02*
X14429390Y-12522870D01*
X14429390Y-12522870D02*
X14448438Y-12513347D01*
X14610343Y-12713347D02*
X14648438Y-12713347D01*
X14648438Y-12713347D02*
X14667486Y-12703823D01*
X14667486Y-12703823D02*
X14677009Y-12694299D01*
X14677009Y-12694299D02*
X14696057Y-12665728D01*
X14696057Y-12665728D02*
X14705581Y-12627632D01*
X14705581Y-12627632D02*
X14705581Y-12551442D01*
X14705581Y-12551442D02*
X14696057Y-12532394D01*
X14696057Y-12532394D02*
X14686533Y-12522870D01*
X14686533Y-12522870D02*
X14667486Y-12513347D01*
X14667486Y-12513347D02*
X14629390Y-12513347D01*
X14629390Y-12513347D02*
X14610343Y-12522870D01*
X14610343Y-12522870D02*
X14600819Y-12532394D01*
X14600819Y-12532394D02*
X14591295Y-12551442D01*
X14591295Y-12551442D02*
X14591295Y-12599061D01*
X14591295Y-12599061D02*
X14600819Y-12618109D01*
X14600819Y-12618109D02*
X14610343Y-12627632D01*
X14610343Y-12627632D02*
X14629390Y-12637156D01*
X14629390Y-12637156D02*
X14667486Y-12637156D01*
X14667486Y-12637156D02*
X14686533Y-12627632D01*
X14686533Y-12627632D02*
X14696057Y-12618109D01*
X14696057Y-12618109D02*
X14705581Y-12599061D01*
X14781771Y-12513347D02*
X14781771Y-12551442D01*
X14857962Y-12513347D02*
X14857962Y-12551442D01*
X15153200Y-12789537D02*
X15143676Y-12780013D01*
X15143676Y-12780013D02*
X15124628Y-12751442D01*
X15124628Y-12751442D02*
X15115105Y-12732394D01*
X15115105Y-12732394D02*
X15105581Y-12703823D01*
X15105581Y-12703823D02*
X15096057Y-12656204D01*
X15096057Y-12656204D02*
X15096057Y-12618109D01*
X15096057Y-12618109D02*
X15105581Y-12570489D01*
X15105581Y-12570489D02*
X15115105Y-12541918D01*
X15115105Y-12541918D02*
X15124628Y-12522870D01*
X15124628Y-12522870D02*
X15143676Y-12494299D01*
X15143676Y-12494299D02*
X15153200Y-12484775D01*
X15219867Y-12532394D02*
X15229390Y-12522870D01*
X15229390Y-12522870D02*
X15248438Y-12513347D01*
X15248438Y-12513347D02*
X15296057Y-12513347D01*
X15296057Y-12513347D02*
X15315105Y-12522870D01*
X15315105Y-12522870D02*
X15324628Y-12532394D01*
X15324628Y-12532394D02*
X15334152Y-12551442D01*
X15334152Y-12551442D02*
X15334152Y-12570489D01*
X15334152Y-12570489D02*
X15324628Y-12599061D01*
X15324628Y-12599061D02*
X15210343Y-12713347D01*
X15210343Y-12713347D02*
X15334152Y-12713347D01*
X15572248Y-12713347D02*
X15572248Y-12513347D01*
X15657962Y-12713347D02*
X15657962Y-12608585D01*
X15657962Y-12608585D02*
X15648438Y-12589537D01*
X15648438Y-12589537D02*
X15629390Y-12580013D01*
X15629390Y-12580013D02*
X15600819Y-12580013D01*
X15600819Y-12580013D02*
X15581771Y-12589537D01*
X15581771Y-12589537D02*
X15572248Y-12599061D01*
X15781771Y-12713347D02*
X15762724Y-12703823D01*
X15762724Y-12703823D02*
X15753200Y-12694299D01*
X15753200Y-12694299D02*
X15743676Y-12675251D01*
X15743676Y-12675251D02*
X15743676Y-12618109D01*
X15743676Y-12618109D02*
X15753200Y-12599061D01*
X15753200Y-12599061D02*
X15762724Y-12589537D01*
X15762724Y-12589537D02*
X15781771Y-12580013D01*
X15781771Y-12580013D02*
X15810343Y-12580013D01*
X15810343Y-12580013D02*
X15829390Y-12589537D01*
X15829390Y-12589537D02*
X15838914Y-12599061D01*
X15838914Y-12599061D02*
X15848438Y-12618109D01*
X15848438Y-12618109D02*
X15848438Y-12675251D01*
X15848438Y-12675251D02*
X15838914Y-12694299D01*
X15838914Y-12694299D02*
X15829390Y-12703823D01*
X15829390Y-12703823D02*
X15810343Y-12713347D01*
X15810343Y-12713347D02*
X15781771Y-12713347D01*
X15962724Y-12713347D02*
X15943676Y-12703823D01*
X15943676Y-12703823D02*
X15934152Y-12684775D01*
X15934152Y-12684775D02*
X15934152Y-12513347D01*
X16115105Y-12703823D02*
X16096057Y-12713347D01*
X16096057Y-12713347D02*
X16057962Y-12713347D01*
X16057962Y-12713347D02*
X16038914Y-12703823D01*
X16038914Y-12703823D02*
X16029390Y-12684775D01*
X16029390Y-12684775D02*
X16029390Y-12608585D01*
X16029390Y-12608585D02*
X16038914Y-12589537D01*
X16038914Y-12589537D02*
X16057962Y-12580013D01*
X16057962Y-12580013D02*
X16096057Y-12580013D01*
X16096057Y-12580013D02*
X16115105Y-12589537D01*
X16115105Y-12589537D02*
X16124629Y-12608585D01*
X16124629Y-12608585D02*
X16124629Y-12627632D01*
X16124629Y-12627632D02*
X16029390Y-12646680D01*
X16200819Y-12703823D02*
X16219867Y-12713347D01*
X16219867Y-12713347D02*
X16257962Y-12713347D01*
X16257962Y-12713347D02*
X16277010Y-12703823D01*
X16277010Y-12703823D02*
X16286533Y-12684775D01*
X16286533Y-12684775D02*
X16286533Y-12675251D01*
X16286533Y-12675251D02*
X16277010Y-12656204D01*
X16277010Y-12656204D02*
X16257962Y-12646680D01*
X16257962Y-12646680D02*
X16229390Y-12646680D01*
X16229390Y-12646680D02*
X16210343Y-12637156D01*
X16210343Y-12637156D02*
X16200819Y-12618109D01*
X16200819Y-12618109D02*
X16200819Y-12608585D01*
X16200819Y-12608585D02*
X16210343Y-12589537D01*
X16210343Y-12589537D02*
X16229390Y-12580013D01*
X16229390Y-12580013D02*
X16257962Y-12580013D01*
X16257962Y-12580013D02*
X16277010Y-12589537D01*
X16353200Y-12789537D02*
X16362724Y-12780013D01*
X16362724Y-12780013D02*
X16381771Y-12751442D01*
X16381771Y-12751442D02*
X16391295Y-12732394D01*
X16391295Y-12732394D02*
X16400819Y-12703823D01*
X16400819Y-12703823D02*
X16410343Y-12656204D01*
X16410343Y-12656204D02*
X16410343Y-12618109D01*
X16410343Y-12618109D02*
X16400819Y-12570489D01*
X16400819Y-12570489D02*
X16391295Y-12541918D01*
X16391295Y-12541918D02*
X16381771Y-12522870D01*
X16381771Y-12522870D02*
X16362724Y-12494299D01*
X16362724Y-12494299D02*
X16353200Y-12484775D01*
M02*
