M48
; DRILL file {KiCad 9.0.3} date 2026-01-25T15:38:30-0600
; FORMAT={-:-/ absolute / metric / decimal}
; #@! TF.CreationDate,2026-01-25T15:38:30-06:00
; #@! TF.GenerationSoftware,Kicad,Pcbnew,9.0.3
; #@! TF.FileFunction,Plated,1,2,PTH
FMAT,2
METRIC
; #@! TA.AperFunction,Plated,PTH,ViaDrill
T1C0.300
; #@! TA.AperFunction,Plated,PTH,ComponentDrill
T2C1.000
%
G90
G05
T1
X150.45Y-125.65
X150.825Y-118.2
X151.125Y-114.625
X151.175Y-110.325
X153.4Y-103.8
X153.4Y-103.8
X153.4Y-131.8
X153.4Y-131.8
X153.4Y-135.8
X153.4Y-135.8
X154.975Y-99.875
X157.4Y-91.8
X157.4Y-91.8
X157.4Y-95.8
X157.4Y-95.8
X157.4Y-103.8
X157.4Y-103.8
X157.4Y-107.8
X157.4Y-107.8
X157.4Y-111.8
X157.4Y-111.8
X157.4Y-115.8
X157.4Y-115.8
X157.4Y-131.8
X157.4Y-131.8
X157.4Y-135.8
X157.4Y-135.8
X157.4Y-139.8
X157.4Y-139.8
X161.4Y-85.4
X161.4Y-91.8
X161.4Y-91.8
X161.4Y-95.8
X161.4Y-95.8
X161.4Y-99.8
X161.4Y-99.8
X161.4Y-103.8
X161.4Y-103.8
X161.4Y-107.8
X161.4Y-107.8
X161.4Y-111.8
X161.4Y-111.8
X161.4Y-115.8
X161.4Y-115.8
X161.4Y-119.8
X161.4Y-119.8
X161.4Y-123.8
X161.4Y-123.8
X161.4Y-127.8
X161.4Y-127.8
X161.4Y-131.8
X161.4Y-131.8
X161.4Y-135.8
X161.4Y-135.8
X161.4Y-139.8
X161.4Y-139.8
X161.4Y-143.8
X161.4Y-143.8
X161.4Y-147.8
X161.4Y-147.8
X161.4Y-151.8
X161.4Y-151.8
X161.4Y-155.8
X161.4Y-155.8
X165.4Y-79.8
X165.4Y-79.8
X165.4Y-91.8
X165.4Y-91.8
X165.4Y-95.8
X165.4Y-95.8
X165.4Y-99.8
X165.4Y-99.8
X165.4Y-103.8
X165.4Y-103.8
X165.4Y-163.8
X165.4Y-163.8
X169.4Y-75.8
X169.4Y-75.8
X169.4Y-79.8
X169.4Y-79.8
X169.4Y-83.8
X169.4Y-83.8
X169.4Y-87.8
X169.4Y-87.8
X169.4Y-91.8
X169.4Y-91.8
X169.4Y-95.8
X169.4Y-95.8
X169.4Y-99.8
X169.4Y-99.8
X169.4Y-167.8
X169.4Y-167.8
X173.4Y-71.8
X173.4Y-71.8
X173.4Y-75.8
X173.4Y-75.8
X173.4Y-79.8
X173.4Y-79.8
X173.4Y-83.8
X173.4Y-83.8
X173.4Y-87.8
X173.4Y-87.8
X173.4Y-91.8
X173.4Y-91.8
X173.4Y-95.8
X173.4Y-95.8
X173.4Y-111.8
X173.4Y-111.8
X173.4Y-115.8
X173.4Y-115.8
X173.4Y-119.8
X173.4Y-119.8
X173.4Y-123.8
X173.4Y-123.8
X173.4Y-131.8
X173.4Y-131.8
X173.4Y-135.8
X173.4Y-135.8
X173.4Y-139.8
X173.4Y-139.8
X173.4Y-143.8
X173.4Y-143.8
X173.4Y-147.8
X173.4Y-147.8
X173.4Y-155.8
X173.4Y-155.8
X173.4Y-171.8
X173.4Y-171.8
X177.4Y-67.8
X177.4Y-67.8
X177.4Y-71.8
X177.4Y-71.8
X177.4Y-75.8
X177.4Y-75.8
X177.4Y-79.8
X177.4Y-79.8
X177.4Y-83.8
X177.4Y-83.8
X177.4Y-87.8
X177.4Y-87.8
X177.4Y-91.8
X177.4Y-91.8
X177.4Y-107.8
X177.4Y-107.8
X177.4Y-111.8
X177.4Y-111.8
X177.4Y-115.8
X177.4Y-115.8
X177.4Y-119.8
X177.4Y-119.8
X177.4Y-123.8
X177.4Y-123.8
X177.4Y-131.8
X177.4Y-131.8
X177.4Y-135.8
X177.4Y-135.8
X177.4Y-139.8
X177.4Y-139.8
X177.4Y-143.8
X177.4Y-143.8
X177.4Y-155.8
X177.4Y-155.8
X177.4Y-159.8
X177.4Y-159.8
X177.4Y-175.8
X177.4Y-175.8
X181.4Y-71.8
X181.4Y-71.8
X181.4Y-75.8
X181.4Y-75.8
X181.4Y-79.8
X181.4Y-79.8
X181.4Y-91.8
X181.4Y-91.8
X181.4Y-107.8
X181.4Y-107.8
X181.4Y-111.8
X181.4Y-111.8
X181.4Y-115.8
X181.4Y-115.8
X181.4Y-119.8
X181.4Y-119.8
X181.4Y-131.8
X181.4Y-131.8
X181.4Y-135.8
X181.4Y-135.8
X181.4Y-139.8
X181.4Y-139.8
X181.4Y-143.8
X181.4Y-143.8
X181.4Y-155.8
X181.4Y-155.8
X181.4Y-159.8
X181.4Y-159.8
X181.4Y-163.8
X181.4Y-163.8
X181.4Y-175.8
X181.4Y-175.8
X181.4Y-179.8
X181.4Y-179.8
X181.425Y-65.425
X185.4Y-63.8
X185.4Y-63.8
X185.4Y-67.8
X185.4Y-67.8
X185.4Y-71.8
X185.4Y-71.8
X185.4Y-107.8
X185.4Y-107.8
X185.4Y-111.8
X185.4Y-111.8
X185.4Y-131.8
X185.4Y-131.8
X185.4Y-135.8
X185.4Y-135.8
X185.4Y-139.8
X185.4Y-139.8
X185.4Y-155.8
X185.4Y-155.8
X185.4Y-159.8
X185.4Y-159.8
X185.4Y-163.8
X185.4Y-163.8
X185.4Y-167.8
X185.4Y-167.8
X185.4Y-175.8
X185.4Y-175.8
X185.4Y-179.8
X185.4Y-179.8
X189.35Y-61.725
X189.4Y-99.8
X189.4Y-99.8
X189.4Y-107.8
X189.4Y-107.8
X189.4Y-151.8
X189.4Y-151.8
X189.4Y-155.8
X189.4Y-155.8
X189.4Y-159.8
X189.4Y-159.8
X189.4Y-163.8
X189.4Y-163.8
X189.4Y-167.8
X189.4Y-167.8
X189.4Y-179.8
X189.4Y-179.8
X189.4Y-183.8
X189.4Y-183.8
X193.4Y-59.8
X193.4Y-59.8
X193.4Y-147.8
X193.4Y-147.8
X193.4Y-151.8
X193.4Y-151.8
X193.4Y-155.8
X193.4Y-155.8
X193.4Y-159.8
X193.4Y-159.8
X193.4Y-163.8
X193.4Y-163.8
X193.4Y-167.8
X193.4Y-167.8
X193.4Y-179.8
X193.4Y-179.8
X193.4Y-183.8
X193.4Y-183.8
X194.325Y-125.5
X195.075Y-135.7
X197.4Y-57.35
X197.4Y-63.8
X197.4Y-63.8
X197.4Y-95.8
X197.4Y-95.8
X197.4Y-147.8
X197.4Y-147.8
X197.4Y-151.8
X197.4Y-151.8
X197.4Y-155.8
X197.4Y-155.8
X197.4Y-159.8
X197.4Y-159.8
X197.4Y-163.8
X197.4Y-163.8
X197.4Y-179.8
X197.4Y-179.8
X197.4Y-183.8
X197.4Y-183.8
X197.4Y-187.8
X197.4Y-187.8
X201.4Y-55.8
X201.4Y-55.8
X201.4Y-59.8
X201.4Y-59.8
X201.4Y-63.8
X201.4Y-63.8
X201.4Y-67.8
X201.4Y-67.8
X201.4Y-127.8
X201.4Y-127.8
X201.4Y-175.8
X201.4Y-175.8
X201.4Y-179.8
X201.4Y-179.8
X201.4Y-183.8
X201.4Y-183.8
X205.4Y-55.8
X205.4Y-55.8
X205.4Y-59.8
X205.4Y-59.8
X205.4Y-63.8
X205.4Y-63.8
X205.4Y-67.8
X205.4Y-67.8
X205.4Y-71.8
X205.4Y-71.8
X205.4Y-75.8
X205.4Y-75.8
X205.4Y-79.8
X205.4Y-79.8
X205.4Y-83.8
X205.4Y-83.8
X205.4Y-87.8
X205.4Y-87.8
X205.4Y-91.8
X205.4Y-91.8
X205.4Y-107.8
X205.4Y-107.8
X205.4Y-111.8
X205.4Y-111.8
X205.4Y-115.8
X205.4Y-115.8
X209.4Y-55.8
X209.4Y-55.8
X209.4Y-59.8
X209.4Y-59.8
X209.4Y-63.8
X209.4Y-63.8
X209.4Y-67.8
X209.4Y-67.8
X209.4Y-115.8
X209.4Y-115.8
X213.4Y-55.8
X213.4Y-55.8
X213.4Y-59.8
X213.4Y-59.8
X213.4Y-63.8
X213.4Y-63.8
X213.4Y-67.8
X213.4Y-67.8
X213.4Y-71.8
X213.4Y-71.8
X213.4Y-87.8
X213.4Y-87.8
X213.4Y-91.8
X213.4Y-91.8
X213.4Y-95.8
X213.4Y-95.8
X213.4Y-99.8
X213.4Y-99.8
X213.4Y-115.8
X213.5Y-53.175
X217.4Y-67.8
X217.4Y-67.8
X217.4Y-115.8
X218.725Y-52.5
X221.4Y-87.8
X221.4Y-87.8
X221.4Y-91.8
X221.4Y-91.8
X221.4Y-115.8
X222.65Y-52.675
X225.4Y-115.8
X226.475Y-52.6
X226.8Y-90.55
X227.125Y-82.375
X229.175Y-96.175
X229.4Y-55.8
X229.4Y-55.8
X229.4Y-59.8
X229.4Y-59.8
X229.4Y-107.8
X229.4Y-107.8
X229.4Y-115.8
X233.4Y-55.8
X233.4Y-55.8
X233.4Y-59.8
X233.4Y-59.8
X235.075Y-95.925
X235.625Y-87.45
X236.15Y-101.175
X236.925Y-85.0
X237.4Y-55.8
X237.4Y-55.8
X237.4Y-59.8
X237.4Y-59.8
X238.325Y-87.6
X239.4Y-97.675
X241.375Y-83.54
X241.4Y-55.8
X241.4Y-55.8
X241.4Y-59.8
X241.4Y-59.8
X241.4Y-86.3
X241.4Y-135.8
X241.4Y-139.8
X241.4Y-139.8
X241.4Y-143.8
X241.4Y-143.8
X241.4Y-147.8
X241.4Y-147.8
X241.4Y-155.8
X241.4Y-155.8
X241.4Y-159.8
X241.4Y-159.8
X241.4Y-163.8
X241.4Y-163.8
X241.4Y-167.8
X241.4Y-167.8
X241.4Y-175.8
X241.4Y-175.8
X241.4Y-179.8
X241.4Y-179.8
X241.4Y-183.8
X241.4Y-183.8
X242.6Y-91.375
X242.65Y-82.275
X243.65Y-86.075
X243.65Y-93.95
X244.05Y-79.075
X244.45Y-155.3
X244.55Y-190.5
X244.775Y-168.7
X245.375Y-56.95
X245.4Y-59.8
X245.4Y-59.8
X245.4Y-115.8
X245.4Y-115.8
X245.4Y-123.8
X245.4Y-127.8
X245.4Y-139.8
X245.4Y-139.8
X245.4Y-143.8
X245.4Y-143.8
X245.4Y-147.8
X245.4Y-147.8
X245.4Y-175.8
X245.4Y-175.8
X245.4Y-179.8
X245.4Y-179.8
X245.4Y-183.8
X245.4Y-183.8
X245.4Y-187.8
X245.4Y-187.8
X249.4Y-111.8
X249.4Y-111.8
X249.4Y-115.8
X249.4Y-115.8
X249.4Y-123.8
X249.4Y-127.8
X249.4Y-127.8
X249.4Y-139.8
X249.4Y-139.8
X249.4Y-143.8
X249.4Y-143.8
X249.4Y-147.8
X249.4Y-147.8
X249.4Y-151.8
X249.4Y-151.8
X249.4Y-171.8
X249.4Y-171.8
X249.4Y-175.8
X249.4Y-175.8
X249.4Y-179.8
X249.4Y-179.8
X249.4Y-183.8
X249.4Y-183.8
X249.4Y-187.8
X249.4Y-187.8
X251.9Y-59.85
X252.575Y-186.45
X253.325Y-172.6
X253.35Y-150.75
X253.4Y-67.8
X253.4Y-67.8
X253.4Y-111.8
X253.4Y-111.8
X253.4Y-115.8
X253.4Y-115.8
X253.4Y-123.8
X253.4Y-127.8
X253.4Y-127.8
X253.4Y-139.8
X253.4Y-139.8
X253.4Y-143.8
X253.4Y-143.8
X253.4Y-147.8
X253.4Y-147.8
X253.4Y-175.8
X253.4Y-175.8
X253.4Y-179.8
X253.4Y-179.8
X253.4Y-183.8
X253.4Y-183.8
X253.775Y-94.1
X255.65Y-84.6
X257.4Y-63.8
X257.4Y-63.8
X257.4Y-67.8
X257.4Y-67.8
X257.4Y-107.8
X257.4Y-107.8
X257.4Y-111.8
X257.4Y-111.8
X257.4Y-115.8
X257.4Y-115.8
X257.4Y-123.8
X257.4Y-127.8
X257.4Y-127.8
X257.4Y-139.8
X257.4Y-139.8
X257.4Y-143.8
X257.4Y-143.8
X257.4Y-147.8
X257.4Y-147.8
X257.4Y-151.8
X257.4Y-151.8
X257.4Y-175.8
X257.4Y-175.8
X257.4Y-179.8
X257.4Y-179.8
X257.4Y-183.8
X257.4Y-183.8
X257.75Y-172.75
X257.8Y-79.9
X258.275Y-95.475
X259.05Y-88.55
X259.25Y-82.325
X259.875Y-92.45
X260.725Y-182.675
X261.4Y-71.8
X261.4Y-71.8
X261.4Y-95.8
X261.4Y-95.8
X261.4Y-111.8
X261.4Y-111.8
X261.4Y-115.8
X261.4Y-115.8
X261.4Y-123.8
X261.4Y-127.8
X261.4Y-127.8
X261.4Y-139.8
X261.4Y-139.8
X261.4Y-143.8
X261.4Y-143.8
X261.4Y-147.8
X261.4Y-147.8
X261.4Y-175.8
X261.4Y-175.8
X261.4Y-179.8
X261.4Y-179.8
X261.425Y-65.325
X262.275Y-154.975
X263.8Y-84.2
X264.275Y-80.425
X264.275Y-87.25
X265.325Y-69.15
X265.4Y-71.8
X265.4Y-71.8
X265.4Y-95.8
X265.4Y-95.8
X265.4Y-99.8
X265.4Y-99.8
X265.4Y-115.8
X265.4Y-115.8
X265.4Y-139.8
X265.4Y-139.8
X265.4Y-143.8
X265.4Y-143.8
X265.4Y-147.8
X265.4Y-147.8
X265.4Y-155.8
X265.4Y-155.8
X265.4Y-159.8
X265.4Y-159.8
X265.4Y-163.8
X265.4Y-163.8
X265.4Y-167.8
X265.4Y-167.8
X265.4Y-175.8
X265.4Y-175.8
X265.4Y-179.8
X265.4Y-179.8
X265.625Y-89.425
X269.4Y-71.8
X269.4Y-71.8
X269.4Y-95.8
X269.4Y-95.8
X269.4Y-99.8
X269.4Y-99.8
X269.4Y-103.8
X269.4Y-103.8
X269.4Y-135.8
X269.4Y-135.8
X269.4Y-139.8
X269.4Y-139.8
X269.4Y-143.8
X269.4Y-143.8
X269.4Y-147.8
X269.4Y-147.8
X269.4Y-151.8
X269.4Y-151.8
X269.4Y-155.8
X269.4Y-155.8
X269.4Y-159.8
X269.4Y-159.8
X269.4Y-163.8
X269.4Y-163.8
X269.4Y-167.8
X269.4Y-167.8
X269.4Y-171.8
X269.4Y-171.8
X269.4Y-175.8
X269.4Y-175.8
X273.4Y-75.8
X273.4Y-75.8
X273.4Y-83.8
X273.4Y-83.8
X273.4Y-87.8
X273.4Y-87.8
X273.4Y-91.8
X273.4Y-91.8
X273.4Y-95.8
X273.4Y-95.8
X273.4Y-99.8
X273.4Y-99.8
X273.4Y-103.8
X273.4Y-103.8
X273.4Y-107.8
X273.4Y-107.8
X273.4Y-131.8
X273.4Y-131.8
X273.4Y-135.8
X273.4Y-135.8
X273.4Y-139.8
X273.4Y-139.8
X273.4Y-143.8
X273.4Y-143.8
X273.4Y-147.8
X273.4Y-147.8
X273.4Y-151.8
X273.4Y-151.8
X273.4Y-155.8
X273.4Y-155.8
X273.4Y-159.8
X273.4Y-159.8
X273.4Y-163.8
X273.4Y-163.8
X273.4Y-167.8
X273.4Y-167.8
X273.4Y-171.8
X273.4Y-171.8
X276.475Y-167.125
X277.4Y-83.8
X277.4Y-83.8
X277.4Y-87.8
X277.4Y-87.8
X277.4Y-91.8
X277.4Y-91.8
X277.4Y-95.8
X277.4Y-95.8
X277.4Y-99.8
X277.4Y-99.8
X277.4Y-103.8
X277.4Y-103.8
X277.4Y-107.8
X277.4Y-107.8
X277.4Y-111.8
X277.4Y-111.8
X277.4Y-115.8
X277.4Y-115.8
X277.4Y-119.8
X277.4Y-119.8
X277.4Y-123.8
X277.4Y-123.8
X277.4Y-127.8
X277.4Y-127.8
X277.4Y-131.8
X277.4Y-131.8
X277.4Y-135.8
X277.4Y-135.8
X277.4Y-139.8
X277.4Y-139.8
X277.4Y-143.8
X277.4Y-143.8
X277.4Y-147.8
X277.4Y-147.8
X277.4Y-151.8
X277.4Y-151.8
X277.4Y-155.8
X277.4Y-155.8
X277.4Y-159.8
X277.4Y-159.8
X277.4Y-163.8
X277.4Y-163.8
X277.425Y-81.125
X280.325Y-163.025
X281.4Y-87.8
X281.4Y-87.8
X281.4Y-91.8
X281.4Y-91.8
X281.4Y-95.8
X281.4Y-95.8
X281.4Y-99.8
X281.4Y-99.8
X281.4Y-103.8
X281.4Y-103.8
X281.4Y-107.8
X281.4Y-107.8
X281.4Y-111.8
X281.4Y-111.8
X281.4Y-115.8
X281.4Y-115.8
X281.4Y-131.8
X281.4Y-131.8
X281.4Y-135.8
X281.4Y-135.8
X281.4Y-139.8
X281.4Y-139.8
X281.4Y-143.8
X281.4Y-143.8
X281.4Y-147.8
X281.4Y-147.8
X281.4Y-151.8
X281.4Y-151.8
X281.4Y-159.8
X281.4Y-159.8
X284.0Y-155.075
X284.9Y-93.0
X285.4Y-95.8
X285.4Y-95.8
X285.4Y-99.8
X285.4Y-99.8
X285.4Y-103.8
X285.4Y-103.8
X285.4Y-107.8
X285.4Y-107.8
X285.4Y-111.8
X285.4Y-111.8
X285.4Y-115.8
X285.4Y-115.8
X285.4Y-131.8
X285.4Y-131.8
X285.4Y-135.8
X285.4Y-135.8
X285.4Y-139.8
X285.4Y-139.8
X285.4Y-143.8
X285.4Y-143.8
X285.4Y-147.8
X285.4Y-147.8
X285.4Y-151.8
X285.4Y-151.8
X288.175Y-143.775
X289.4Y-103.8
X289.4Y-103.8
X289.4Y-107.8
X289.4Y-107.8
X289.4Y-111.8
X289.4Y-111.8
X289.4Y-115.8
X289.4Y-115.8
X289.4Y-131.8
X289.4Y-131.8
X289.4Y-135.8
X289.4Y-135.8
X289.4Y-139.8
X289.4Y-139.8
X291.85Y-123.8
T2
X178.25Y-151.85
X178.885Y-149.82
X180.225Y-127.15
X180.86Y-125.12
X180.915Y-149.82
X181.0Y-102.76
X181.55Y-151.85
X181.635Y-100.73
X182.8Y-85.95
X182.89Y-125.12
X183.525Y-127.15
X183.665Y-100.73
X184.3Y-102.76
X185.34Y-85.95
X186.5Y-76.225
X189.04Y-76.225
X190.135Y-66.85
X191.95Y-173.35
X192.585Y-171.32
X192.675Y-66.85
X194.615Y-171.32
X195.25Y-173.35
X202.225Y-76.16
X202.225Y-78.7
X202.225Y-81.24
X202.225Y-83.78
X202.225Y-86.32
X202.225Y-88.86
X202.225Y-91.4
X202.225Y-93.94
X202.225Y-96.48
X202.225Y-99.02
X202.225Y-101.56
X202.225Y-104.1
X202.225Y-106.64
X202.225Y-109.18
X202.225Y-111.72
X202.225Y-114.26
X202.225Y-116.8
X202.225Y-119.34
X202.225Y-121.88
X202.225Y-124.42
X232.725Y-81.235
X232.725Y-83.775
X232.725Y-86.315
X232.725Y-88.855
X232.725Y-91.395
X232.725Y-93.935
X232.725Y-96.475
X232.725Y-99.015
X232.725Y-101.555
X232.725Y-104.095
X246.21Y-134.195
X246.845Y-136.225
X248.05Y-73.38
X248.05Y-75.92
X248.05Y-78.46
X248.05Y-81.0
X248.05Y-83.54
X248.05Y-86.08
X248.05Y-88.62
X248.875Y-136.225
X249.4Y-103.305
X249.51Y-134.195
X250.035Y-105.335
X250.59Y-73.38
X250.59Y-75.92
X250.59Y-78.46
X250.59Y-81.0
X250.59Y-83.54
X250.59Y-86.08
X250.59Y-88.62
X252.065Y-105.335
X252.7Y-103.305
X264.36Y-119.87
X264.995Y-121.9
X265.81Y-92.575
X267.025Y-121.9
X267.66Y-119.87
X268.35Y-92.575
M30
