G04 #@! TF.GenerationSoftware,KiCad,Pcbnew,9.0.3*
G04 #@! TF.CreationDate,2026-01-25T15:38:05-06:00*
G04 #@! TF.ProjectId,DAQ_HAT,4441515f-4841-4542-9e6b-696361645f70,rev?*
G04 #@! TF.SameCoordinates,Original*
G04 #@! TF.FileFunction,Soldermask,Bot*
G04 #@! TF.FilePolarity,Negative*
%FSLAX46Y46*%
G04 Gerber Fmt 4.6, Leading zero omitted, Abs format (unit mm)*
G04 Created by KiCad (PCBNEW 9.0.3) date 2026-01-25 15:38:05*
%MOMM*%
%LPD*%
G01*
G04 APERTURE LIST*
G04 Aperture macros list*
%AMRoundRect*
0 Rectangle with rounded corners*
0 $1 Rounding radius*
0 $2 $3 $4 $5 $6 $7 $8 $9 X,Y pos of 4 corners*
0 Add a 4 corners polygon primitive as box body*
4,1,4,$2,$3,$4,$5,$6,$7,$8,$9,$2,$3,0*
0 Add four circle primitives for the rounded corners*
1,1,$1+$1,$2,$3*
1,1,$1+$1,$4,$5*
1,1,$1+$1,$6,$7*
1,1,$1+$1,$8,$9*
0 Add four rect primitives between the rounded corners*
20,1,$1+$1,$2,$3,$4,$5,0*
20,1,$1+$1,$4,$5,$6,$7,0*
20,1,$1+$1,$6,$7,$8,$9,0*
20,1,$1+$1,$8,$9,$2,$3,0*%
G04 Aperture macros list end*
%ADD10C,2.200000*%
%ADD11C,5.300000*%
%ADD12R,1.700000X1.700000*%
%ADD13C,1.700000*%
%ADD14RoundRect,0.102000X0.754000X0.754000X-0.754000X0.754000X-0.754000X-0.754000X0.754000X-0.754000X0*%
%ADD15C,1.712000*%
%ADD16RoundRect,0.102000X-0.754000X-0.754000X0.754000X-0.754000X0.754000X0.754000X-0.754000X0.754000X0*%
G04 APERTURE END LIST*
D10*
X156900000Y-145195000D03*
D11*
X220898944Y-59395000D03*
D10*
X201925000Y-188395000D03*
X253125000Y-63745000D03*
D11*
X156375000Y-123920000D03*
X285425000Y-123920000D03*
D10*
X197925000Y-140845000D03*
D12*
X248050000Y-73380000D03*
D13*
X250590000Y-73380000D03*
X248050000Y-75920000D03*
X250590000Y-75920000D03*
X248050000Y-78460000D03*
X250590000Y-78460000D03*
X248050000Y-81000000D03*
X250590000Y-81000000D03*
X248050000Y-83540000D03*
X250590000Y-83540000D03*
X248050000Y-86080000D03*
X250590000Y-86080000D03*
X248050000Y-88620000D03*
X250590000Y-88620000D03*
D10*
X238750000Y-188670000D03*
X165150000Y-84420000D03*
D14*
X178250000Y-151850000D03*
D15*
X178885000Y-149820000D03*
X181550000Y-151850000D03*
X180915000Y-149820000D03*
D14*
X191950000Y-173350000D03*
D15*
X192585000Y-171320000D03*
X195250000Y-173350000D03*
X194615000Y-171320000D03*
D14*
X180225000Y-127150000D03*
D15*
X180860000Y-125120000D03*
X183525000Y-127150000D03*
X182890000Y-125120000D03*
D16*
X252700000Y-103305000D03*
D15*
X252065000Y-105335000D03*
X249400000Y-103305000D03*
X250035000Y-105335000D03*
D16*
X249510000Y-134195000D03*
D15*
X248875000Y-136225000D03*
X246210000Y-134195000D03*
X246845000Y-136225000D03*
D10*
X244005000Y-171925000D03*
X264005000Y-171925000D03*
X244005000Y-151925000D03*
X264005000Y-151925000D03*
D12*
X190135000Y-66850000D03*
D13*
X192675000Y-66850000D03*
D16*
X267660000Y-119870000D03*
D15*
X267025000Y-121900000D03*
X264360000Y-119870000D03*
X264995000Y-121900000D03*
D10*
X209225000Y-74195000D03*
X232925000Y-73795000D03*
X232925000Y-123895000D03*
D12*
X202225000Y-124420000D03*
D13*
X202225000Y-121880000D03*
X202225000Y-119340000D03*
X202225000Y-116800000D03*
X202225000Y-114260000D03*
X202225000Y-111720000D03*
X202225000Y-109180000D03*
X202225000Y-106640000D03*
X202225000Y-104100000D03*
X202225000Y-101560000D03*
X202225000Y-99020000D03*
X202225000Y-96480000D03*
X202225000Y-93940000D03*
X202225000Y-91400000D03*
X202225000Y-88860000D03*
X202225000Y-86320000D03*
X202225000Y-83780000D03*
X202225000Y-81240000D03*
X202225000Y-78700000D03*
X202225000Y-76160000D03*
D12*
X232725000Y-104095000D03*
D13*
X232725000Y-101555000D03*
X232725000Y-99015000D03*
X232725000Y-96475000D03*
X232725000Y-93935000D03*
X232725000Y-91395000D03*
X232725000Y-88855000D03*
X232725000Y-86315000D03*
X232725000Y-83775000D03*
X232725000Y-81235000D03*
D12*
X186500000Y-76225000D03*
D13*
X189040000Y-76225000D03*
D14*
X181000000Y-102760000D03*
D15*
X181635000Y-100730000D03*
X184300000Y-102760000D03*
X183665000Y-100730000D03*
D12*
X182800000Y-85950000D03*
D13*
X185340000Y-85950000D03*
D12*
X265810000Y-92575000D03*
D13*
X268350000Y-92575000D03*
M02*
