%TF.GenerationSoftware,KiCad,Pcbnew,9.0.3*%
%TF.CreationDate,2026-01-25T15:38:30-06:00*%
%TF.ProjectId,DAQ_HAT,4441515f-4841-4542-9e6b-696361645f70,rev?*%
%TF.SameCoordinates,Original*%
%TF.FileFunction,Drillmap*%
%TF.FilePolarity,Positive*%
%FSLAX45Y45*%
G04 Gerber Fmt 4.5, Leading zero omitted, Abs format (unit mm)*
G04 Created by KiCad (PCBNEW 9.0.3) date 2026-01-25 15:38:30*
%MOMM*%
%LPD*%
G01*
G04 APERTURE LIST*
%ADD10C,0.050000*%
%ADD11C,0.120000*%
%ADD12C,0.200000*%
%ADD13C,0.220000*%
%ADD14C,0.530000*%
G04 APERTURE END LIST*
D10*
X20820000Y-19583217D02*
G75*
G02*
X23360208Y-19583181I1270001J7191217D01*
G01*
X20920000Y-12962000D02*
X23260000Y-12962000D01*
X20820000Y-13062000D02*
X20820000Y-13702000D01*
X23360208Y-19583181D02*
X23360000Y-13702000D01*
X23260000Y-12962000D02*
G75*
G02*
X23360000Y-13062000I0J-100000D01*
G01*
X23360000Y-13062000D02*
X23360000Y-13702000D01*
X20820000Y-13062000D02*
G75*
G02*
X20920000Y-12962000I100000J0D01*
G01*
X20820000Y-13702000D02*
X20820000Y-19583217D01*
D11*
X26300500Y-16192500D02*
G75*
G02*
X24500500Y-16192500I-900000J0D01*
G01*
X24500500Y-16192500D02*
G75*
G02*
X26300500Y-16192500I900000J0D01*
G01*
D12*
D13*
X15580000Y-14409500D02*
X15800000Y-14629500D01*
X15800000Y-14409500D02*
X15580000Y-14629500D01*
X16405000Y-8332000D02*
X16625000Y-8552000D01*
X16625000Y-8332000D02*
X16405000Y-8552000D01*
X19682500Y-13974500D02*
X19902500Y-14194500D01*
X19902500Y-13974500D02*
X19682500Y-14194500D01*
X20082500Y-18729500D02*
X20302500Y-18949500D01*
X20302500Y-18729500D02*
X20082500Y-18949500D01*
X20812500Y-7309500D02*
X21032500Y-7529500D01*
X21032500Y-7309500D02*
X20812500Y-7529500D01*
X23182500Y-7269500D02*
X23402500Y-7489500D01*
X23402500Y-7269500D02*
X23182500Y-7489500D01*
X23182500Y-12279500D02*
X23402500Y-12499500D01*
X23402500Y-12279500D02*
X23182500Y-12499500D01*
X23765000Y-18757000D02*
X23985000Y-18977000D01*
X23985000Y-18757000D02*
X23765000Y-18977000D01*
X24290500Y-15082500D02*
X24510500Y-15302500D01*
X24510500Y-15082500D02*
X24290500Y-15302500D01*
X24290500Y-17082500D02*
X24510500Y-17302500D01*
X24510500Y-17082500D02*
X24290500Y-17302500D01*
X25202500Y-6264500D02*
X25422500Y-6484500D01*
X25422500Y-6264500D02*
X25202500Y-6484500D01*
X26290500Y-15082500D02*
X26510500Y-15302500D01*
X26510500Y-15082500D02*
X26290500Y-15302500D01*
X26290500Y-17082500D02*
X26510500Y-17302500D01*
X26510500Y-17082500D02*
X26290500Y-17302500D01*
D14*
X15902500Y-12392000D02*
G75*
G02*
X15372500Y-12392000I-265000J0D01*
G01*
X15372500Y-12392000D02*
G75*
G02*
X15902500Y-12392000I265000J0D01*
G01*
X22354894Y-5939500D02*
G75*
G02*
X21824894Y-5939500I-265000J0D01*
G01*
X21824894Y-5939500D02*
G75*
G02*
X22354894Y-5939500I265000J0D01*
G01*
X28807500Y-12392000D02*
G75*
G02*
X28277500Y-12392000I-265000J0D01*
G01*
X28277500Y-12392000D02*
G75*
G02*
X28807500Y-12392000I265000J0D01*
G01*
D12*
X15045777Y-19897201D02*
X15045777Y-19697201D01*
X15045777Y-19697201D02*
X15093396Y-19697201D01*
X15093396Y-19697201D02*
X15121967Y-19706725D01*
X15121967Y-19706725D02*
X15141015Y-19725772D01*
X15141015Y-19725772D02*
X15150539Y-19744820D01*
X15150539Y-19744820D02*
X15160062Y-19782915D01*
X15160062Y-19782915D02*
X15160062Y-19811487D01*
X15160062Y-19811487D02*
X15150539Y-19849582D01*
X15150539Y-19849582D02*
X15141015Y-19868630D01*
X15141015Y-19868630D02*
X15121967Y-19887677D01*
X15121967Y-19887677D02*
X15093396Y-19897201D01*
X15093396Y-19897201D02*
X15045777Y-19897201D01*
X15245777Y-19897201D02*
X15245777Y-19763868D01*
X15245777Y-19801963D02*
X15255301Y-19782915D01*
X15255301Y-19782915D02*
X15264824Y-19773391D01*
X15264824Y-19773391D02*
X15283872Y-19763868D01*
X15283872Y-19763868D02*
X15302920Y-19763868D01*
X15369586Y-19897201D02*
X15369586Y-19763868D01*
X15369586Y-19697201D02*
X15360062Y-19706725D01*
X15360062Y-19706725D02*
X15369586Y-19716249D01*
X15369586Y-19716249D02*
X15379110Y-19706725D01*
X15379110Y-19706725D02*
X15369586Y-19697201D01*
X15369586Y-19697201D02*
X15369586Y-19716249D01*
X15493396Y-19897201D02*
X15474348Y-19887677D01*
X15474348Y-19887677D02*
X15464824Y-19868630D01*
X15464824Y-19868630D02*
X15464824Y-19697201D01*
X15598158Y-19897201D02*
X15579110Y-19887677D01*
X15579110Y-19887677D02*
X15569586Y-19868630D01*
X15569586Y-19868630D02*
X15569586Y-19697201D01*
X15826729Y-19897201D02*
X15826729Y-19697201D01*
X15826729Y-19697201D02*
X15893396Y-19840058D01*
X15893396Y-19840058D02*
X15960062Y-19697201D01*
X15960062Y-19697201D02*
X15960062Y-19897201D01*
X16141015Y-19897201D02*
X16141015Y-19792439D01*
X16141015Y-19792439D02*
X16131491Y-19773391D01*
X16131491Y-19773391D02*
X16112443Y-19763868D01*
X16112443Y-19763868D02*
X16074348Y-19763868D01*
X16074348Y-19763868D02*
X16055301Y-19773391D01*
X16141015Y-19887677D02*
X16121967Y-19897201D01*
X16121967Y-19897201D02*
X16074348Y-19897201D01*
X16074348Y-19897201D02*
X16055301Y-19887677D01*
X16055301Y-19887677D02*
X16045777Y-19868630D01*
X16045777Y-19868630D02*
X16045777Y-19849582D01*
X16045777Y-19849582D02*
X16055301Y-19830534D01*
X16055301Y-19830534D02*
X16074348Y-19821011D01*
X16074348Y-19821011D02*
X16121967Y-19821011D01*
X16121967Y-19821011D02*
X16141015Y-19811487D01*
X16236253Y-19763868D02*
X16236253Y-19963868D01*
X16236253Y-19773391D02*
X16255301Y-19763868D01*
X16255301Y-19763868D02*
X16293396Y-19763868D01*
X16293396Y-19763868D02*
X16312443Y-19773391D01*
X16312443Y-19773391D02*
X16321967Y-19782915D01*
X16321967Y-19782915D02*
X16331491Y-19801963D01*
X16331491Y-19801963D02*
X16331491Y-19859106D01*
X16331491Y-19859106D02*
X16321967Y-19878153D01*
X16321967Y-19878153D02*
X16312443Y-19887677D01*
X16312443Y-19887677D02*
X16293396Y-19897201D01*
X16293396Y-19897201D02*
X16255301Y-19897201D01*
X16255301Y-19897201D02*
X16236253Y-19887677D01*
X16417205Y-19878153D02*
X16426729Y-19887677D01*
X16426729Y-19887677D02*
X16417205Y-19897201D01*
X16417205Y-19897201D02*
X16407682Y-19887677D01*
X16407682Y-19887677D02*
X16417205Y-19878153D01*
X16417205Y-19878153D02*
X16417205Y-19897201D01*
X16417205Y-19773391D02*
X16426729Y-19782915D01*
X16426729Y-19782915D02*
X16417205Y-19792439D01*
X16417205Y-19792439D02*
X16407682Y-19782915D01*
X16407682Y-19782915D02*
X16417205Y-19773391D01*
X16417205Y-19773391D02*
X16417205Y-19792439D01*
X14585000Y-20125717D02*
X14785000Y-20325717D01*
X14785000Y-20125717D02*
X14585000Y-20325717D01*
X15036253Y-20136249D02*
X15045777Y-20126725D01*
X15045777Y-20126725D02*
X15064824Y-20117201D01*
X15064824Y-20117201D02*
X15112443Y-20117201D01*
X15112443Y-20117201D02*
X15131491Y-20126725D01*
X15131491Y-20126725D02*
X15141015Y-20136249D01*
X15141015Y-20136249D02*
X15150539Y-20155296D01*
X15150539Y-20155296D02*
X15150539Y-20174344D01*
X15150539Y-20174344D02*
X15141015Y-20202915D01*
X15141015Y-20202915D02*
X15026729Y-20317201D01*
X15026729Y-20317201D02*
X15150539Y-20317201D01*
X15236253Y-20298153D02*
X15245777Y-20307677D01*
X15245777Y-20307677D02*
X15236253Y-20317201D01*
X15236253Y-20317201D02*
X15226729Y-20307677D01*
X15226729Y-20307677D02*
X15236253Y-20298153D01*
X15236253Y-20298153D02*
X15236253Y-20317201D01*
X15321967Y-20136249D02*
X15331491Y-20126725D01*
X15331491Y-20126725D02*
X15350539Y-20117201D01*
X15350539Y-20117201D02*
X15398158Y-20117201D01*
X15398158Y-20117201D02*
X15417205Y-20126725D01*
X15417205Y-20126725D02*
X15426729Y-20136249D01*
X15426729Y-20136249D02*
X15436253Y-20155296D01*
X15436253Y-20155296D02*
X15436253Y-20174344D01*
X15436253Y-20174344D02*
X15426729Y-20202915D01*
X15426729Y-20202915D02*
X15312443Y-20317201D01*
X15312443Y-20317201D02*
X15436253Y-20317201D01*
X15560062Y-20117201D02*
X15579110Y-20117201D01*
X15579110Y-20117201D02*
X15598158Y-20126725D01*
X15598158Y-20126725D02*
X15607682Y-20136249D01*
X15607682Y-20136249D02*
X15617205Y-20155296D01*
X15617205Y-20155296D02*
X15626729Y-20193391D01*
X15626729Y-20193391D02*
X15626729Y-20241011D01*
X15626729Y-20241011D02*
X15617205Y-20279106D01*
X15617205Y-20279106D02*
X15607682Y-20298153D01*
X15607682Y-20298153D02*
X15598158Y-20307677D01*
X15598158Y-20307677D02*
X15579110Y-20317201D01*
X15579110Y-20317201D02*
X15560062Y-20317201D01*
X15560062Y-20317201D02*
X15541015Y-20307677D01*
X15541015Y-20307677D02*
X15531491Y-20298153D01*
X15531491Y-20298153D02*
X15521967Y-20279106D01*
X15521967Y-20279106D02*
X15512443Y-20241011D01*
X15512443Y-20241011D02*
X15512443Y-20193391D01*
X15512443Y-20193391D02*
X15521967Y-20155296D01*
X15521967Y-20155296D02*
X15531491Y-20136249D01*
X15531491Y-20136249D02*
X15541015Y-20126725D01*
X15541015Y-20126725D02*
X15560062Y-20117201D01*
X15750539Y-20117201D02*
X15769586Y-20117201D01*
X15769586Y-20117201D02*
X15788634Y-20126725D01*
X15788634Y-20126725D02*
X15798158Y-20136249D01*
X15798158Y-20136249D02*
X15807682Y-20155296D01*
X15807682Y-20155296D02*
X15817205Y-20193391D01*
X15817205Y-20193391D02*
X15817205Y-20241011D01*
X15817205Y-20241011D02*
X15807682Y-20279106D01*
X15807682Y-20279106D02*
X15798158Y-20298153D01*
X15798158Y-20298153D02*
X15788634Y-20307677D01*
X15788634Y-20307677D02*
X15769586Y-20317201D01*
X15769586Y-20317201D02*
X15750539Y-20317201D01*
X15750539Y-20317201D02*
X15731491Y-20307677D01*
X15731491Y-20307677D02*
X15721967Y-20298153D01*
X15721967Y-20298153D02*
X15712443Y-20279106D01*
X15712443Y-20279106D02*
X15702920Y-20241011D01*
X15702920Y-20241011D02*
X15702920Y-20193391D01*
X15702920Y-20193391D02*
X15712443Y-20155296D01*
X15712443Y-20155296D02*
X15721967Y-20136249D01*
X15721967Y-20136249D02*
X15731491Y-20126725D01*
X15731491Y-20126725D02*
X15750539Y-20117201D01*
X15902920Y-20317201D02*
X15902920Y-20183868D01*
X15902920Y-20202915D02*
X15912443Y-20193391D01*
X15912443Y-20193391D02*
X15931491Y-20183868D01*
X15931491Y-20183868D02*
X15960063Y-20183868D01*
X15960063Y-20183868D02*
X15979110Y-20193391D01*
X15979110Y-20193391D02*
X15988634Y-20212439D01*
X15988634Y-20212439D02*
X15988634Y-20317201D01*
X15988634Y-20212439D02*
X15998158Y-20193391D01*
X15998158Y-20193391D02*
X16017205Y-20183868D01*
X16017205Y-20183868D02*
X16045777Y-20183868D01*
X16045777Y-20183868D02*
X16064824Y-20193391D01*
X16064824Y-20193391D02*
X16074348Y-20212439D01*
X16074348Y-20212439D02*
X16074348Y-20317201D01*
X16169586Y-20317201D02*
X16169586Y-20183868D01*
X16169586Y-20202915D02*
X16179110Y-20193391D01*
X16179110Y-20193391D02*
X16198158Y-20183868D01*
X16198158Y-20183868D02*
X16226729Y-20183868D01*
X16226729Y-20183868D02*
X16245777Y-20193391D01*
X16245777Y-20193391D02*
X16255301Y-20212439D01*
X16255301Y-20212439D02*
X16255301Y-20317201D01*
X16255301Y-20212439D02*
X16264824Y-20193391D01*
X16264824Y-20193391D02*
X16283872Y-20183868D01*
X16283872Y-20183868D02*
X16312443Y-20183868D01*
X16312443Y-20183868D02*
X16331491Y-20193391D01*
X16331491Y-20193391D02*
X16341015Y-20212439D01*
X16341015Y-20212439D02*
X16341015Y-20317201D01*
X16731491Y-20107677D02*
X16560063Y-20364820D01*
X16988634Y-20117201D02*
X17007682Y-20117201D01*
X17007682Y-20117201D02*
X17026729Y-20126725D01*
X17026729Y-20126725D02*
X17036253Y-20136249D01*
X17036253Y-20136249D02*
X17045777Y-20155296D01*
X17045777Y-20155296D02*
X17055301Y-20193391D01*
X17055301Y-20193391D02*
X17055301Y-20241011D01*
X17055301Y-20241011D02*
X17045777Y-20279106D01*
X17045777Y-20279106D02*
X17036253Y-20298153D01*
X17036253Y-20298153D02*
X17026729Y-20307677D01*
X17026729Y-20307677D02*
X17007682Y-20317201D01*
X17007682Y-20317201D02*
X16988634Y-20317201D01*
X16988634Y-20317201D02*
X16969587Y-20307677D01*
X16969587Y-20307677D02*
X16960063Y-20298153D01*
X16960063Y-20298153D02*
X16950539Y-20279106D01*
X16950539Y-20279106D02*
X16941015Y-20241011D01*
X16941015Y-20241011D02*
X16941015Y-20193391D01*
X16941015Y-20193391D02*
X16950539Y-20155296D01*
X16950539Y-20155296D02*
X16960063Y-20136249D01*
X16960063Y-20136249D02*
X16969587Y-20126725D01*
X16969587Y-20126725D02*
X16988634Y-20117201D01*
X17141015Y-20298153D02*
X17150539Y-20307677D01*
X17150539Y-20307677D02*
X17141015Y-20317201D01*
X17141015Y-20317201D02*
X17131491Y-20307677D01*
X17131491Y-20307677D02*
X17141015Y-20298153D01*
X17141015Y-20298153D02*
X17141015Y-20317201D01*
X17274348Y-20117201D02*
X17293396Y-20117201D01*
X17293396Y-20117201D02*
X17312444Y-20126725D01*
X17312444Y-20126725D02*
X17321968Y-20136249D01*
X17321968Y-20136249D02*
X17331491Y-20155296D01*
X17331491Y-20155296D02*
X17341015Y-20193391D01*
X17341015Y-20193391D02*
X17341015Y-20241011D01*
X17341015Y-20241011D02*
X17331491Y-20279106D01*
X17331491Y-20279106D02*
X17321968Y-20298153D01*
X17321968Y-20298153D02*
X17312444Y-20307677D01*
X17312444Y-20307677D02*
X17293396Y-20317201D01*
X17293396Y-20317201D02*
X17274348Y-20317201D01*
X17274348Y-20317201D02*
X17255301Y-20307677D01*
X17255301Y-20307677D02*
X17245777Y-20298153D01*
X17245777Y-20298153D02*
X17236253Y-20279106D01*
X17236253Y-20279106D02*
X17226729Y-20241011D01*
X17226729Y-20241011D02*
X17226729Y-20193391D01*
X17226729Y-20193391D02*
X17236253Y-20155296D01*
X17236253Y-20155296D02*
X17245777Y-20136249D01*
X17245777Y-20136249D02*
X17255301Y-20126725D01*
X17255301Y-20126725D02*
X17274348Y-20117201D01*
X17455301Y-20202915D02*
X17436253Y-20193391D01*
X17436253Y-20193391D02*
X17426729Y-20183868D01*
X17426729Y-20183868D02*
X17417206Y-20164820D01*
X17417206Y-20164820D02*
X17417206Y-20155296D01*
X17417206Y-20155296D02*
X17426729Y-20136249D01*
X17426729Y-20136249D02*
X17436253Y-20126725D01*
X17436253Y-20126725D02*
X17455301Y-20117201D01*
X17455301Y-20117201D02*
X17493396Y-20117201D01*
X17493396Y-20117201D02*
X17512444Y-20126725D01*
X17512444Y-20126725D02*
X17521968Y-20136249D01*
X17521968Y-20136249D02*
X17531491Y-20155296D01*
X17531491Y-20155296D02*
X17531491Y-20164820D01*
X17531491Y-20164820D02*
X17521968Y-20183868D01*
X17521968Y-20183868D02*
X17512444Y-20193391D01*
X17512444Y-20193391D02*
X17493396Y-20202915D01*
X17493396Y-20202915D02*
X17455301Y-20202915D01*
X17455301Y-20202915D02*
X17436253Y-20212439D01*
X17436253Y-20212439D02*
X17426729Y-20221963D01*
X17426729Y-20221963D02*
X17417206Y-20241011D01*
X17417206Y-20241011D02*
X17417206Y-20279106D01*
X17417206Y-20279106D02*
X17426729Y-20298153D01*
X17426729Y-20298153D02*
X17436253Y-20307677D01*
X17436253Y-20307677D02*
X17455301Y-20317201D01*
X17455301Y-20317201D02*
X17493396Y-20317201D01*
X17493396Y-20317201D02*
X17512444Y-20307677D01*
X17512444Y-20307677D02*
X17521968Y-20298153D01*
X17521968Y-20298153D02*
X17531491Y-20279106D01*
X17531491Y-20279106D02*
X17531491Y-20241011D01*
X17531491Y-20241011D02*
X17521968Y-20221963D01*
X17521968Y-20221963D02*
X17512444Y-20212439D01*
X17512444Y-20212439D02*
X17493396Y-20202915D01*
X17702920Y-20117201D02*
X17664825Y-20117201D01*
X17664825Y-20117201D02*
X17645777Y-20126725D01*
X17645777Y-20126725D02*
X17636253Y-20136249D01*
X17636253Y-20136249D02*
X17617206Y-20164820D01*
X17617206Y-20164820D02*
X17607682Y-20202915D01*
X17607682Y-20202915D02*
X17607682Y-20279106D01*
X17607682Y-20279106D02*
X17617206Y-20298153D01*
X17617206Y-20298153D02*
X17626729Y-20307677D01*
X17626729Y-20307677D02*
X17645777Y-20317201D01*
X17645777Y-20317201D02*
X17683872Y-20317201D01*
X17683872Y-20317201D02*
X17702920Y-20307677D01*
X17702920Y-20307677D02*
X17712444Y-20298153D01*
X17712444Y-20298153D02*
X17721968Y-20279106D01*
X17721968Y-20279106D02*
X17721968Y-20231487D01*
X17721968Y-20231487D02*
X17712444Y-20212439D01*
X17712444Y-20212439D02*
X17702920Y-20202915D01*
X17702920Y-20202915D02*
X17683872Y-20193391D01*
X17683872Y-20193391D02*
X17645777Y-20193391D01*
X17645777Y-20193391D02*
X17626729Y-20202915D01*
X17626729Y-20202915D02*
X17617206Y-20212439D01*
X17617206Y-20212439D02*
X17607682Y-20231487D01*
X17893396Y-20117201D02*
X17855301Y-20117201D01*
X17855301Y-20117201D02*
X17836253Y-20126725D01*
X17836253Y-20126725D02*
X17826729Y-20136249D01*
X17826729Y-20136249D02*
X17807682Y-20164820D01*
X17807682Y-20164820D02*
X17798158Y-20202915D01*
X17798158Y-20202915D02*
X17798158Y-20279106D01*
X17798158Y-20279106D02*
X17807682Y-20298153D01*
X17807682Y-20298153D02*
X17817206Y-20307677D01*
X17817206Y-20307677D02*
X17836253Y-20317201D01*
X17836253Y-20317201D02*
X17874349Y-20317201D01*
X17874349Y-20317201D02*
X17893396Y-20307677D01*
X17893396Y-20307677D02*
X17902920Y-20298153D01*
X17902920Y-20298153D02*
X17912444Y-20279106D01*
X17912444Y-20279106D02*
X17912444Y-20231487D01*
X17912444Y-20231487D02*
X17902920Y-20212439D01*
X17902920Y-20212439D02*
X17893396Y-20202915D01*
X17893396Y-20202915D02*
X17874349Y-20193391D01*
X17874349Y-20193391D02*
X17836253Y-20193391D01*
X17836253Y-20193391D02*
X17817206Y-20202915D01*
X17817206Y-20202915D02*
X17807682Y-20212439D01*
X17807682Y-20212439D02*
X17798158Y-20231487D01*
X17988634Y-20117201D02*
X17988634Y-20155296D01*
X18064825Y-20117201D02*
X18064825Y-20155296D01*
X18360063Y-20393391D02*
X18350539Y-20383868D01*
X18350539Y-20383868D02*
X18331491Y-20355296D01*
X18331491Y-20355296D02*
X18321968Y-20336249D01*
X18321968Y-20336249D02*
X18312444Y-20307677D01*
X18312444Y-20307677D02*
X18302920Y-20260058D01*
X18302920Y-20260058D02*
X18302920Y-20221963D01*
X18302920Y-20221963D02*
X18312444Y-20174344D01*
X18312444Y-20174344D02*
X18321968Y-20145772D01*
X18321968Y-20145772D02*
X18331491Y-20126725D01*
X18331491Y-20126725D02*
X18350539Y-20098153D01*
X18350539Y-20098153D02*
X18360063Y-20088630D01*
X18541015Y-20317201D02*
X18426730Y-20317201D01*
X18483872Y-20317201D02*
X18483872Y-20117201D01*
X18483872Y-20117201D02*
X18464825Y-20145772D01*
X18464825Y-20145772D02*
X18445777Y-20164820D01*
X18445777Y-20164820D02*
X18426730Y-20174344D01*
X18607682Y-20117201D02*
X18731491Y-20117201D01*
X18731491Y-20117201D02*
X18664825Y-20193391D01*
X18664825Y-20193391D02*
X18693396Y-20193391D01*
X18693396Y-20193391D02*
X18712444Y-20202915D01*
X18712444Y-20202915D02*
X18721968Y-20212439D01*
X18721968Y-20212439D02*
X18731491Y-20231487D01*
X18731491Y-20231487D02*
X18731491Y-20279106D01*
X18731491Y-20279106D02*
X18721968Y-20298153D01*
X18721968Y-20298153D02*
X18712444Y-20307677D01*
X18712444Y-20307677D02*
X18693396Y-20317201D01*
X18693396Y-20317201D02*
X18636253Y-20317201D01*
X18636253Y-20317201D02*
X18617206Y-20307677D01*
X18617206Y-20307677D02*
X18607682Y-20298153D01*
X18969587Y-20317201D02*
X18969587Y-20117201D01*
X19055301Y-20317201D02*
X19055301Y-20212439D01*
X19055301Y-20212439D02*
X19045777Y-20193391D01*
X19045777Y-20193391D02*
X19026730Y-20183868D01*
X19026730Y-20183868D02*
X18998158Y-20183868D01*
X18998158Y-20183868D02*
X18979111Y-20193391D01*
X18979111Y-20193391D02*
X18969587Y-20202915D01*
X19179111Y-20317201D02*
X19160063Y-20307677D01*
X19160063Y-20307677D02*
X19150539Y-20298153D01*
X19150539Y-20298153D02*
X19141015Y-20279106D01*
X19141015Y-20279106D02*
X19141015Y-20221963D01*
X19141015Y-20221963D02*
X19150539Y-20202915D01*
X19150539Y-20202915D02*
X19160063Y-20193391D01*
X19160063Y-20193391D02*
X19179111Y-20183868D01*
X19179111Y-20183868D02*
X19207682Y-20183868D01*
X19207682Y-20183868D02*
X19226730Y-20193391D01*
X19226730Y-20193391D02*
X19236253Y-20202915D01*
X19236253Y-20202915D02*
X19245777Y-20221963D01*
X19245777Y-20221963D02*
X19245777Y-20279106D01*
X19245777Y-20279106D02*
X19236253Y-20298153D01*
X19236253Y-20298153D02*
X19226730Y-20307677D01*
X19226730Y-20307677D02*
X19207682Y-20317201D01*
X19207682Y-20317201D02*
X19179111Y-20317201D01*
X19360063Y-20317201D02*
X19341015Y-20307677D01*
X19341015Y-20307677D02*
X19331492Y-20288630D01*
X19331492Y-20288630D02*
X19331492Y-20117201D01*
X19512444Y-20307677D02*
X19493396Y-20317201D01*
X19493396Y-20317201D02*
X19455301Y-20317201D01*
X19455301Y-20317201D02*
X19436253Y-20307677D01*
X19436253Y-20307677D02*
X19426730Y-20288630D01*
X19426730Y-20288630D02*
X19426730Y-20212439D01*
X19426730Y-20212439D02*
X19436253Y-20193391D01*
X19436253Y-20193391D02*
X19455301Y-20183868D01*
X19455301Y-20183868D02*
X19493396Y-20183868D01*
X19493396Y-20183868D02*
X19512444Y-20193391D01*
X19512444Y-20193391D02*
X19521968Y-20212439D01*
X19521968Y-20212439D02*
X19521968Y-20231487D01*
X19521968Y-20231487D02*
X19426730Y-20250534D01*
X19598158Y-20307677D02*
X19617206Y-20317201D01*
X19617206Y-20317201D02*
X19655301Y-20317201D01*
X19655301Y-20317201D02*
X19674349Y-20307677D01*
X19674349Y-20307677D02*
X19683873Y-20288630D01*
X19683873Y-20288630D02*
X19683873Y-20279106D01*
X19683873Y-20279106D02*
X19674349Y-20260058D01*
X19674349Y-20260058D02*
X19655301Y-20250534D01*
X19655301Y-20250534D02*
X19626730Y-20250534D01*
X19626730Y-20250534D02*
X19607682Y-20241011D01*
X19607682Y-20241011D02*
X19598158Y-20221963D01*
X19598158Y-20221963D02*
X19598158Y-20212439D01*
X19598158Y-20212439D02*
X19607682Y-20193391D01*
X19607682Y-20193391D02*
X19626730Y-20183868D01*
X19626730Y-20183868D02*
X19655301Y-20183868D01*
X19655301Y-20183868D02*
X19674349Y-20193391D01*
X19750539Y-20393391D02*
X19760063Y-20383868D01*
X19760063Y-20383868D02*
X19779111Y-20355296D01*
X19779111Y-20355296D02*
X19788634Y-20336249D01*
X19788634Y-20336249D02*
X19798158Y-20307677D01*
X19798158Y-20307677D02*
X19807682Y-20260058D01*
X19807682Y-20260058D02*
X19807682Y-20221963D01*
X19807682Y-20221963D02*
X19798158Y-20174344D01*
X19798158Y-20174344D02*
X19788634Y-20145772D01*
X19788634Y-20145772D02*
X19779111Y-20126725D01*
X19779111Y-20126725D02*
X19760063Y-20098153D01*
X19760063Y-20098153D02*
X19750539Y-20088630D01*
X20112444Y-20393391D02*
X20102920Y-20383868D01*
X20102920Y-20383868D02*
X20083873Y-20355296D01*
X20083873Y-20355296D02*
X20074349Y-20336249D01*
X20074349Y-20336249D02*
X20064825Y-20307677D01*
X20064825Y-20307677D02*
X20055301Y-20260058D01*
X20055301Y-20260058D02*
X20055301Y-20221963D01*
X20055301Y-20221963D02*
X20064825Y-20174344D01*
X20064825Y-20174344D02*
X20074349Y-20145772D01*
X20074349Y-20145772D02*
X20083873Y-20126725D01*
X20083873Y-20126725D02*
X20102920Y-20098153D01*
X20102920Y-20098153D02*
X20112444Y-20088630D01*
X20188634Y-20183868D02*
X20188634Y-20317201D01*
X20188634Y-20202915D02*
X20198158Y-20193391D01*
X20198158Y-20193391D02*
X20217206Y-20183868D01*
X20217206Y-20183868D02*
X20245777Y-20183868D01*
X20245777Y-20183868D02*
X20264825Y-20193391D01*
X20264825Y-20193391D02*
X20274349Y-20212439D01*
X20274349Y-20212439D02*
X20274349Y-20317201D01*
X20398158Y-20317201D02*
X20379111Y-20307677D01*
X20379111Y-20307677D02*
X20369587Y-20298153D01*
X20369587Y-20298153D02*
X20360063Y-20279106D01*
X20360063Y-20279106D02*
X20360063Y-20221963D01*
X20360063Y-20221963D02*
X20369587Y-20202915D01*
X20369587Y-20202915D02*
X20379111Y-20193391D01*
X20379111Y-20193391D02*
X20398158Y-20183868D01*
X20398158Y-20183868D02*
X20426730Y-20183868D01*
X20426730Y-20183868D02*
X20445777Y-20193391D01*
X20445777Y-20193391D02*
X20455301Y-20202915D01*
X20455301Y-20202915D02*
X20464825Y-20221963D01*
X20464825Y-20221963D02*
X20464825Y-20279106D01*
X20464825Y-20279106D02*
X20455301Y-20298153D01*
X20455301Y-20298153D02*
X20445777Y-20307677D01*
X20445777Y-20307677D02*
X20426730Y-20317201D01*
X20426730Y-20317201D02*
X20398158Y-20317201D01*
X20521968Y-20183868D02*
X20598158Y-20183868D01*
X20550539Y-20117201D02*
X20550539Y-20288630D01*
X20550539Y-20288630D02*
X20560063Y-20307677D01*
X20560063Y-20307677D02*
X20579111Y-20317201D01*
X20579111Y-20317201D02*
X20598158Y-20317201D01*
X20817206Y-20183868D02*
X20817206Y-20383868D01*
X20817206Y-20193391D02*
X20836254Y-20183868D01*
X20836254Y-20183868D02*
X20874349Y-20183868D01*
X20874349Y-20183868D02*
X20893396Y-20193391D01*
X20893396Y-20193391D02*
X20902920Y-20202915D01*
X20902920Y-20202915D02*
X20912444Y-20221963D01*
X20912444Y-20221963D02*
X20912444Y-20279106D01*
X20912444Y-20279106D02*
X20902920Y-20298153D01*
X20902920Y-20298153D02*
X20893396Y-20307677D01*
X20893396Y-20307677D02*
X20874349Y-20317201D01*
X20874349Y-20317201D02*
X20836254Y-20317201D01*
X20836254Y-20317201D02*
X20817206Y-20307677D01*
X21026730Y-20317201D02*
X21007682Y-20307677D01*
X21007682Y-20307677D02*
X20998158Y-20288630D01*
X20998158Y-20288630D02*
X20998158Y-20117201D01*
X21188635Y-20317201D02*
X21188635Y-20212439D01*
X21188635Y-20212439D02*
X21179111Y-20193391D01*
X21179111Y-20193391D02*
X21160063Y-20183868D01*
X21160063Y-20183868D02*
X21121968Y-20183868D01*
X21121968Y-20183868D02*
X21102920Y-20193391D01*
X21188635Y-20307677D02*
X21169587Y-20317201D01*
X21169587Y-20317201D02*
X21121968Y-20317201D01*
X21121968Y-20317201D02*
X21102920Y-20307677D01*
X21102920Y-20307677D02*
X21093396Y-20288630D01*
X21093396Y-20288630D02*
X21093396Y-20269582D01*
X21093396Y-20269582D02*
X21102920Y-20250534D01*
X21102920Y-20250534D02*
X21121968Y-20241011D01*
X21121968Y-20241011D02*
X21169587Y-20241011D01*
X21169587Y-20241011D02*
X21188635Y-20231487D01*
X21255301Y-20183868D02*
X21331492Y-20183868D01*
X21283873Y-20117201D02*
X21283873Y-20288630D01*
X21283873Y-20288630D02*
X21293396Y-20307677D01*
X21293396Y-20307677D02*
X21312444Y-20317201D01*
X21312444Y-20317201D02*
X21331492Y-20317201D01*
X21474349Y-20307677D02*
X21455301Y-20317201D01*
X21455301Y-20317201D02*
X21417206Y-20317201D01*
X21417206Y-20317201D02*
X21398158Y-20307677D01*
X21398158Y-20307677D02*
X21388635Y-20288630D01*
X21388635Y-20288630D02*
X21388635Y-20212439D01*
X21388635Y-20212439D02*
X21398158Y-20193391D01*
X21398158Y-20193391D02*
X21417206Y-20183868D01*
X21417206Y-20183868D02*
X21455301Y-20183868D01*
X21455301Y-20183868D02*
X21474349Y-20193391D01*
X21474349Y-20193391D02*
X21483873Y-20212439D01*
X21483873Y-20212439D02*
X21483873Y-20231487D01*
X21483873Y-20231487D02*
X21388635Y-20250534D01*
X21655301Y-20317201D02*
X21655301Y-20117201D01*
X21655301Y-20307677D02*
X21636254Y-20317201D01*
X21636254Y-20317201D02*
X21598158Y-20317201D01*
X21598158Y-20317201D02*
X21579111Y-20307677D01*
X21579111Y-20307677D02*
X21569587Y-20298153D01*
X21569587Y-20298153D02*
X21560063Y-20279106D01*
X21560063Y-20279106D02*
X21560063Y-20221963D01*
X21560063Y-20221963D02*
X21569587Y-20202915D01*
X21569587Y-20202915D02*
X21579111Y-20193391D01*
X21579111Y-20193391D02*
X21598158Y-20183868D01*
X21598158Y-20183868D02*
X21636254Y-20183868D01*
X21636254Y-20183868D02*
X21655301Y-20193391D01*
X21731492Y-20393391D02*
X21741016Y-20383868D01*
X21741016Y-20383868D02*
X21760063Y-20355296D01*
X21760063Y-20355296D02*
X21769587Y-20336249D01*
X21769587Y-20336249D02*
X21779111Y-20307677D01*
X21779111Y-20307677D02*
X21788635Y-20260058D01*
X21788635Y-20260058D02*
X21788635Y-20221963D01*
X21788635Y-20221963D02*
X21779111Y-20174344D01*
X21779111Y-20174344D02*
X21769587Y-20145772D01*
X21769587Y-20145772D02*
X21760063Y-20126725D01*
X21760063Y-20126725D02*
X21741016Y-20098153D01*
X21741016Y-20098153D02*
X21731492Y-20088630D01*
X14785000Y-20545717D02*
G75*
G02*
X14585000Y-20545717I-100000J0D01*
G01*
X14585000Y-20545717D02*
G75*
G02*
X14785000Y-20545717I100000J0D01*
G01*
X15141015Y-20437201D02*
X15045777Y-20437201D01*
X15045777Y-20437201D02*
X15036253Y-20532439D01*
X15036253Y-20532439D02*
X15045777Y-20522915D01*
X15045777Y-20522915D02*
X15064824Y-20513391D01*
X15064824Y-20513391D02*
X15112443Y-20513391D01*
X15112443Y-20513391D02*
X15131491Y-20522915D01*
X15131491Y-20522915D02*
X15141015Y-20532439D01*
X15141015Y-20532439D02*
X15150539Y-20551487D01*
X15150539Y-20551487D02*
X15150539Y-20599106D01*
X15150539Y-20599106D02*
X15141015Y-20618153D01*
X15141015Y-20618153D02*
X15131491Y-20627677D01*
X15131491Y-20627677D02*
X15112443Y-20637201D01*
X15112443Y-20637201D02*
X15064824Y-20637201D01*
X15064824Y-20637201D02*
X15045777Y-20627677D01*
X15045777Y-20627677D02*
X15036253Y-20618153D01*
X15236253Y-20618153D02*
X15245777Y-20627677D01*
X15245777Y-20627677D02*
X15236253Y-20637201D01*
X15236253Y-20637201D02*
X15226729Y-20627677D01*
X15226729Y-20627677D02*
X15236253Y-20618153D01*
X15236253Y-20618153D02*
X15236253Y-20637201D01*
X15312443Y-20437201D02*
X15436253Y-20437201D01*
X15436253Y-20437201D02*
X15369586Y-20513391D01*
X15369586Y-20513391D02*
X15398158Y-20513391D01*
X15398158Y-20513391D02*
X15417205Y-20522915D01*
X15417205Y-20522915D02*
X15426729Y-20532439D01*
X15426729Y-20532439D02*
X15436253Y-20551487D01*
X15436253Y-20551487D02*
X15436253Y-20599106D01*
X15436253Y-20599106D02*
X15426729Y-20618153D01*
X15426729Y-20618153D02*
X15417205Y-20627677D01*
X15417205Y-20627677D02*
X15398158Y-20637201D01*
X15398158Y-20637201D02*
X15341015Y-20637201D01*
X15341015Y-20637201D02*
X15321967Y-20627677D01*
X15321967Y-20627677D02*
X15312443Y-20618153D01*
X15560062Y-20437201D02*
X15579110Y-20437201D01*
X15579110Y-20437201D02*
X15598158Y-20446725D01*
X15598158Y-20446725D02*
X15607682Y-20456249D01*
X15607682Y-20456249D02*
X15617205Y-20475296D01*
X15617205Y-20475296D02*
X15626729Y-20513391D01*
X15626729Y-20513391D02*
X15626729Y-20561011D01*
X15626729Y-20561011D02*
X15617205Y-20599106D01*
X15617205Y-20599106D02*
X15607682Y-20618153D01*
X15607682Y-20618153D02*
X15598158Y-20627677D01*
X15598158Y-20627677D02*
X15579110Y-20637201D01*
X15579110Y-20637201D02*
X15560062Y-20637201D01*
X15560062Y-20637201D02*
X15541015Y-20627677D01*
X15541015Y-20627677D02*
X15531491Y-20618153D01*
X15531491Y-20618153D02*
X15521967Y-20599106D01*
X15521967Y-20599106D02*
X15512443Y-20561011D01*
X15512443Y-20561011D02*
X15512443Y-20513391D01*
X15512443Y-20513391D02*
X15521967Y-20475296D01*
X15521967Y-20475296D02*
X15531491Y-20456249D01*
X15531491Y-20456249D02*
X15541015Y-20446725D01*
X15541015Y-20446725D02*
X15560062Y-20437201D01*
X15750539Y-20437201D02*
X15769586Y-20437201D01*
X15769586Y-20437201D02*
X15788634Y-20446725D01*
X15788634Y-20446725D02*
X15798158Y-20456249D01*
X15798158Y-20456249D02*
X15807682Y-20475296D01*
X15807682Y-20475296D02*
X15817205Y-20513391D01*
X15817205Y-20513391D02*
X15817205Y-20561011D01*
X15817205Y-20561011D02*
X15807682Y-20599106D01*
X15807682Y-20599106D02*
X15798158Y-20618153D01*
X15798158Y-20618153D02*
X15788634Y-20627677D01*
X15788634Y-20627677D02*
X15769586Y-20637201D01*
X15769586Y-20637201D02*
X15750539Y-20637201D01*
X15750539Y-20637201D02*
X15731491Y-20627677D01*
X15731491Y-20627677D02*
X15721967Y-20618153D01*
X15721967Y-20618153D02*
X15712443Y-20599106D01*
X15712443Y-20599106D02*
X15702920Y-20561011D01*
X15702920Y-20561011D02*
X15702920Y-20513391D01*
X15702920Y-20513391D02*
X15712443Y-20475296D01*
X15712443Y-20475296D02*
X15721967Y-20456249D01*
X15721967Y-20456249D02*
X15731491Y-20446725D01*
X15731491Y-20446725D02*
X15750539Y-20437201D01*
X15902920Y-20637201D02*
X15902920Y-20503868D01*
X15902920Y-20522915D02*
X15912443Y-20513391D01*
X15912443Y-20513391D02*
X15931491Y-20503868D01*
X15931491Y-20503868D02*
X15960063Y-20503868D01*
X15960063Y-20503868D02*
X15979110Y-20513391D01*
X15979110Y-20513391D02*
X15988634Y-20532439D01*
X15988634Y-20532439D02*
X15988634Y-20637201D01*
X15988634Y-20532439D02*
X15998158Y-20513391D01*
X15998158Y-20513391D02*
X16017205Y-20503868D01*
X16017205Y-20503868D02*
X16045777Y-20503868D01*
X16045777Y-20503868D02*
X16064824Y-20513391D01*
X16064824Y-20513391D02*
X16074348Y-20532439D01*
X16074348Y-20532439D02*
X16074348Y-20637201D01*
X16169586Y-20637201D02*
X16169586Y-20503868D01*
X16169586Y-20522915D02*
X16179110Y-20513391D01*
X16179110Y-20513391D02*
X16198158Y-20503868D01*
X16198158Y-20503868D02*
X16226729Y-20503868D01*
X16226729Y-20503868D02*
X16245777Y-20513391D01*
X16245777Y-20513391D02*
X16255301Y-20532439D01*
X16255301Y-20532439D02*
X16255301Y-20637201D01*
X16255301Y-20532439D02*
X16264824Y-20513391D01*
X16264824Y-20513391D02*
X16283872Y-20503868D01*
X16283872Y-20503868D02*
X16312443Y-20503868D01*
X16312443Y-20503868D02*
X16331491Y-20513391D01*
X16331491Y-20513391D02*
X16341015Y-20532439D01*
X16341015Y-20532439D02*
X16341015Y-20637201D01*
X16731491Y-20427677D02*
X16560063Y-20684820D01*
X16988634Y-20437201D02*
X17007682Y-20437201D01*
X17007682Y-20437201D02*
X17026729Y-20446725D01*
X17026729Y-20446725D02*
X17036253Y-20456249D01*
X17036253Y-20456249D02*
X17045777Y-20475296D01*
X17045777Y-20475296D02*
X17055301Y-20513391D01*
X17055301Y-20513391D02*
X17055301Y-20561011D01*
X17055301Y-20561011D02*
X17045777Y-20599106D01*
X17045777Y-20599106D02*
X17036253Y-20618153D01*
X17036253Y-20618153D02*
X17026729Y-20627677D01*
X17026729Y-20627677D02*
X17007682Y-20637201D01*
X17007682Y-20637201D02*
X16988634Y-20637201D01*
X16988634Y-20637201D02*
X16969587Y-20627677D01*
X16969587Y-20627677D02*
X16960063Y-20618153D01*
X16960063Y-20618153D02*
X16950539Y-20599106D01*
X16950539Y-20599106D02*
X16941015Y-20561011D01*
X16941015Y-20561011D02*
X16941015Y-20513391D01*
X16941015Y-20513391D02*
X16950539Y-20475296D01*
X16950539Y-20475296D02*
X16960063Y-20456249D01*
X16960063Y-20456249D02*
X16969587Y-20446725D01*
X16969587Y-20446725D02*
X16988634Y-20437201D01*
X17141015Y-20618153D02*
X17150539Y-20627677D01*
X17150539Y-20627677D02*
X17141015Y-20637201D01*
X17141015Y-20637201D02*
X17131491Y-20627677D01*
X17131491Y-20627677D02*
X17141015Y-20618153D01*
X17141015Y-20618153D02*
X17141015Y-20637201D01*
X17226729Y-20456249D02*
X17236253Y-20446725D01*
X17236253Y-20446725D02*
X17255301Y-20437201D01*
X17255301Y-20437201D02*
X17302920Y-20437201D01*
X17302920Y-20437201D02*
X17321968Y-20446725D01*
X17321968Y-20446725D02*
X17331491Y-20456249D01*
X17331491Y-20456249D02*
X17341015Y-20475296D01*
X17341015Y-20475296D02*
X17341015Y-20494344D01*
X17341015Y-20494344D02*
X17331491Y-20522915D01*
X17331491Y-20522915D02*
X17217206Y-20637201D01*
X17217206Y-20637201D02*
X17341015Y-20637201D01*
X17464825Y-20437201D02*
X17483872Y-20437201D01*
X17483872Y-20437201D02*
X17502920Y-20446725D01*
X17502920Y-20446725D02*
X17512444Y-20456249D01*
X17512444Y-20456249D02*
X17521968Y-20475296D01*
X17521968Y-20475296D02*
X17531491Y-20513391D01*
X17531491Y-20513391D02*
X17531491Y-20561011D01*
X17531491Y-20561011D02*
X17521968Y-20599106D01*
X17521968Y-20599106D02*
X17512444Y-20618153D01*
X17512444Y-20618153D02*
X17502920Y-20627677D01*
X17502920Y-20627677D02*
X17483872Y-20637201D01*
X17483872Y-20637201D02*
X17464825Y-20637201D01*
X17464825Y-20637201D02*
X17445777Y-20627677D01*
X17445777Y-20627677D02*
X17436253Y-20618153D01*
X17436253Y-20618153D02*
X17426729Y-20599106D01*
X17426729Y-20599106D02*
X17417206Y-20561011D01*
X17417206Y-20561011D02*
X17417206Y-20513391D01*
X17417206Y-20513391D02*
X17426729Y-20475296D01*
X17426729Y-20475296D02*
X17436253Y-20456249D01*
X17436253Y-20456249D02*
X17445777Y-20446725D01*
X17445777Y-20446725D02*
X17464825Y-20437201D01*
X17645777Y-20522915D02*
X17626729Y-20513391D01*
X17626729Y-20513391D02*
X17617206Y-20503868D01*
X17617206Y-20503868D02*
X17607682Y-20484820D01*
X17607682Y-20484820D02*
X17607682Y-20475296D01*
X17607682Y-20475296D02*
X17617206Y-20456249D01*
X17617206Y-20456249D02*
X17626729Y-20446725D01*
X17626729Y-20446725D02*
X17645777Y-20437201D01*
X17645777Y-20437201D02*
X17683872Y-20437201D01*
X17683872Y-20437201D02*
X17702920Y-20446725D01*
X17702920Y-20446725D02*
X17712444Y-20456249D01*
X17712444Y-20456249D02*
X17721968Y-20475296D01*
X17721968Y-20475296D02*
X17721968Y-20484820D01*
X17721968Y-20484820D02*
X17712444Y-20503868D01*
X17712444Y-20503868D02*
X17702920Y-20513391D01*
X17702920Y-20513391D02*
X17683872Y-20522915D01*
X17683872Y-20522915D02*
X17645777Y-20522915D01*
X17645777Y-20522915D02*
X17626729Y-20532439D01*
X17626729Y-20532439D02*
X17617206Y-20541963D01*
X17617206Y-20541963D02*
X17607682Y-20561011D01*
X17607682Y-20561011D02*
X17607682Y-20599106D01*
X17607682Y-20599106D02*
X17617206Y-20618153D01*
X17617206Y-20618153D02*
X17626729Y-20627677D01*
X17626729Y-20627677D02*
X17645777Y-20637201D01*
X17645777Y-20637201D02*
X17683872Y-20637201D01*
X17683872Y-20637201D02*
X17702920Y-20627677D01*
X17702920Y-20627677D02*
X17712444Y-20618153D01*
X17712444Y-20618153D02*
X17721968Y-20599106D01*
X17721968Y-20599106D02*
X17721968Y-20561011D01*
X17721968Y-20561011D02*
X17712444Y-20541963D01*
X17712444Y-20541963D02*
X17702920Y-20532439D01*
X17702920Y-20532439D02*
X17683872Y-20522915D01*
X17788634Y-20437201D02*
X17921968Y-20437201D01*
X17921968Y-20437201D02*
X17836253Y-20637201D01*
X17988634Y-20437201D02*
X17988634Y-20475296D01*
X18064825Y-20437201D02*
X18064825Y-20475296D01*
X18360063Y-20713391D02*
X18350539Y-20703868D01*
X18350539Y-20703868D02*
X18331491Y-20675296D01*
X18331491Y-20675296D02*
X18321968Y-20656249D01*
X18321968Y-20656249D02*
X18312444Y-20627677D01*
X18312444Y-20627677D02*
X18302920Y-20580058D01*
X18302920Y-20580058D02*
X18302920Y-20541963D01*
X18302920Y-20541963D02*
X18312444Y-20494344D01*
X18312444Y-20494344D02*
X18321968Y-20465772D01*
X18321968Y-20465772D02*
X18331491Y-20446725D01*
X18331491Y-20446725D02*
X18350539Y-20418153D01*
X18350539Y-20418153D02*
X18360063Y-20408630D01*
X18417206Y-20437201D02*
X18541015Y-20437201D01*
X18541015Y-20437201D02*
X18474349Y-20513391D01*
X18474349Y-20513391D02*
X18502920Y-20513391D01*
X18502920Y-20513391D02*
X18521968Y-20522915D01*
X18521968Y-20522915D02*
X18531491Y-20532439D01*
X18531491Y-20532439D02*
X18541015Y-20551487D01*
X18541015Y-20551487D02*
X18541015Y-20599106D01*
X18541015Y-20599106D02*
X18531491Y-20618153D01*
X18531491Y-20618153D02*
X18521968Y-20627677D01*
X18521968Y-20627677D02*
X18502920Y-20637201D01*
X18502920Y-20637201D02*
X18445777Y-20637201D01*
X18445777Y-20637201D02*
X18426730Y-20627677D01*
X18426730Y-20627677D02*
X18417206Y-20618153D01*
X18779111Y-20637201D02*
X18779111Y-20437201D01*
X18864825Y-20637201D02*
X18864825Y-20532439D01*
X18864825Y-20532439D02*
X18855301Y-20513391D01*
X18855301Y-20513391D02*
X18836253Y-20503868D01*
X18836253Y-20503868D02*
X18807682Y-20503868D01*
X18807682Y-20503868D02*
X18788634Y-20513391D01*
X18788634Y-20513391D02*
X18779111Y-20522915D01*
X18988634Y-20637201D02*
X18969587Y-20627677D01*
X18969587Y-20627677D02*
X18960063Y-20618153D01*
X18960063Y-20618153D02*
X18950539Y-20599106D01*
X18950539Y-20599106D02*
X18950539Y-20541963D01*
X18950539Y-20541963D02*
X18960063Y-20522915D01*
X18960063Y-20522915D02*
X18969587Y-20513391D01*
X18969587Y-20513391D02*
X18988634Y-20503868D01*
X18988634Y-20503868D02*
X19017206Y-20503868D01*
X19017206Y-20503868D02*
X19036253Y-20513391D01*
X19036253Y-20513391D02*
X19045777Y-20522915D01*
X19045777Y-20522915D02*
X19055301Y-20541963D01*
X19055301Y-20541963D02*
X19055301Y-20599106D01*
X19055301Y-20599106D02*
X19045777Y-20618153D01*
X19045777Y-20618153D02*
X19036253Y-20627677D01*
X19036253Y-20627677D02*
X19017206Y-20637201D01*
X19017206Y-20637201D02*
X18988634Y-20637201D01*
X19169587Y-20637201D02*
X19150539Y-20627677D01*
X19150539Y-20627677D02*
X19141015Y-20608630D01*
X19141015Y-20608630D02*
X19141015Y-20437201D01*
X19321968Y-20627677D02*
X19302920Y-20637201D01*
X19302920Y-20637201D02*
X19264825Y-20637201D01*
X19264825Y-20637201D02*
X19245777Y-20627677D01*
X19245777Y-20627677D02*
X19236253Y-20608630D01*
X19236253Y-20608630D02*
X19236253Y-20532439D01*
X19236253Y-20532439D02*
X19245777Y-20513391D01*
X19245777Y-20513391D02*
X19264825Y-20503868D01*
X19264825Y-20503868D02*
X19302920Y-20503868D01*
X19302920Y-20503868D02*
X19321968Y-20513391D01*
X19321968Y-20513391D02*
X19331492Y-20532439D01*
X19331492Y-20532439D02*
X19331492Y-20551487D01*
X19331492Y-20551487D02*
X19236253Y-20570534D01*
X19407682Y-20627677D02*
X19426730Y-20637201D01*
X19426730Y-20637201D02*
X19464825Y-20637201D01*
X19464825Y-20637201D02*
X19483873Y-20627677D01*
X19483873Y-20627677D02*
X19493396Y-20608630D01*
X19493396Y-20608630D02*
X19493396Y-20599106D01*
X19493396Y-20599106D02*
X19483873Y-20580058D01*
X19483873Y-20580058D02*
X19464825Y-20570534D01*
X19464825Y-20570534D02*
X19436253Y-20570534D01*
X19436253Y-20570534D02*
X19417206Y-20561011D01*
X19417206Y-20561011D02*
X19407682Y-20541963D01*
X19407682Y-20541963D02*
X19407682Y-20532439D01*
X19407682Y-20532439D02*
X19417206Y-20513391D01*
X19417206Y-20513391D02*
X19436253Y-20503868D01*
X19436253Y-20503868D02*
X19464825Y-20503868D01*
X19464825Y-20503868D02*
X19483873Y-20513391D01*
X19560063Y-20713391D02*
X19569587Y-20703868D01*
X19569587Y-20703868D02*
X19588634Y-20675296D01*
X19588634Y-20675296D02*
X19598158Y-20656249D01*
X19598158Y-20656249D02*
X19607682Y-20627677D01*
X19607682Y-20627677D02*
X19617206Y-20580058D01*
X19617206Y-20580058D02*
X19617206Y-20541963D01*
X19617206Y-20541963D02*
X19607682Y-20494344D01*
X19607682Y-20494344D02*
X19598158Y-20465772D01*
X19598158Y-20465772D02*
X19588634Y-20446725D01*
X19588634Y-20446725D02*
X19569587Y-20418153D01*
X19569587Y-20418153D02*
X19560063Y-20408630D01*
X19921968Y-20713391D02*
X19912444Y-20703868D01*
X19912444Y-20703868D02*
X19893396Y-20675296D01*
X19893396Y-20675296D02*
X19883873Y-20656249D01*
X19883873Y-20656249D02*
X19874349Y-20627677D01*
X19874349Y-20627677D02*
X19864825Y-20580058D01*
X19864825Y-20580058D02*
X19864825Y-20541963D01*
X19864825Y-20541963D02*
X19874349Y-20494344D01*
X19874349Y-20494344D02*
X19883873Y-20465772D01*
X19883873Y-20465772D02*
X19893396Y-20446725D01*
X19893396Y-20446725D02*
X19912444Y-20418153D01*
X19912444Y-20418153D02*
X19921968Y-20408630D01*
X19998158Y-20503868D02*
X19998158Y-20637201D01*
X19998158Y-20522915D02*
X20007682Y-20513391D01*
X20007682Y-20513391D02*
X20026730Y-20503868D01*
X20026730Y-20503868D02*
X20055301Y-20503868D01*
X20055301Y-20503868D02*
X20074349Y-20513391D01*
X20074349Y-20513391D02*
X20083873Y-20532439D01*
X20083873Y-20532439D02*
X20083873Y-20637201D01*
X20207682Y-20637201D02*
X20188634Y-20627677D01*
X20188634Y-20627677D02*
X20179111Y-20618153D01*
X20179111Y-20618153D02*
X20169587Y-20599106D01*
X20169587Y-20599106D02*
X20169587Y-20541963D01*
X20169587Y-20541963D02*
X20179111Y-20522915D01*
X20179111Y-20522915D02*
X20188634Y-20513391D01*
X20188634Y-20513391D02*
X20207682Y-20503868D01*
X20207682Y-20503868D02*
X20236254Y-20503868D01*
X20236254Y-20503868D02*
X20255301Y-20513391D01*
X20255301Y-20513391D02*
X20264825Y-20522915D01*
X20264825Y-20522915D02*
X20274349Y-20541963D01*
X20274349Y-20541963D02*
X20274349Y-20599106D01*
X20274349Y-20599106D02*
X20264825Y-20618153D01*
X20264825Y-20618153D02*
X20255301Y-20627677D01*
X20255301Y-20627677D02*
X20236254Y-20637201D01*
X20236254Y-20637201D02*
X20207682Y-20637201D01*
X20331492Y-20503868D02*
X20407682Y-20503868D01*
X20360063Y-20437201D02*
X20360063Y-20608630D01*
X20360063Y-20608630D02*
X20369587Y-20627677D01*
X20369587Y-20627677D02*
X20388634Y-20637201D01*
X20388634Y-20637201D02*
X20407682Y-20637201D01*
X20626730Y-20503868D02*
X20626730Y-20703868D01*
X20626730Y-20513391D02*
X20645777Y-20503868D01*
X20645777Y-20503868D02*
X20683873Y-20503868D01*
X20683873Y-20503868D02*
X20702920Y-20513391D01*
X20702920Y-20513391D02*
X20712444Y-20522915D01*
X20712444Y-20522915D02*
X20721968Y-20541963D01*
X20721968Y-20541963D02*
X20721968Y-20599106D01*
X20721968Y-20599106D02*
X20712444Y-20618153D01*
X20712444Y-20618153D02*
X20702920Y-20627677D01*
X20702920Y-20627677D02*
X20683873Y-20637201D01*
X20683873Y-20637201D02*
X20645777Y-20637201D01*
X20645777Y-20637201D02*
X20626730Y-20627677D01*
X20836254Y-20637201D02*
X20817206Y-20627677D01*
X20817206Y-20627677D02*
X20807682Y-20608630D01*
X20807682Y-20608630D02*
X20807682Y-20437201D01*
X20998158Y-20637201D02*
X20998158Y-20532439D01*
X20998158Y-20532439D02*
X20988635Y-20513391D01*
X20988635Y-20513391D02*
X20969587Y-20503868D01*
X20969587Y-20503868D02*
X20931492Y-20503868D01*
X20931492Y-20503868D02*
X20912444Y-20513391D01*
X20998158Y-20627677D02*
X20979111Y-20637201D01*
X20979111Y-20637201D02*
X20931492Y-20637201D01*
X20931492Y-20637201D02*
X20912444Y-20627677D01*
X20912444Y-20627677D02*
X20902920Y-20608630D01*
X20902920Y-20608630D02*
X20902920Y-20589582D01*
X20902920Y-20589582D02*
X20912444Y-20570534D01*
X20912444Y-20570534D02*
X20931492Y-20561011D01*
X20931492Y-20561011D02*
X20979111Y-20561011D01*
X20979111Y-20561011D02*
X20998158Y-20551487D01*
X21064825Y-20503868D02*
X21141015Y-20503868D01*
X21093396Y-20437201D02*
X21093396Y-20608630D01*
X21093396Y-20608630D02*
X21102920Y-20627677D01*
X21102920Y-20627677D02*
X21121968Y-20637201D01*
X21121968Y-20637201D02*
X21141015Y-20637201D01*
X21283873Y-20627677D02*
X21264825Y-20637201D01*
X21264825Y-20637201D02*
X21226730Y-20637201D01*
X21226730Y-20637201D02*
X21207682Y-20627677D01*
X21207682Y-20627677D02*
X21198158Y-20608630D01*
X21198158Y-20608630D02*
X21198158Y-20532439D01*
X21198158Y-20532439D02*
X21207682Y-20513391D01*
X21207682Y-20513391D02*
X21226730Y-20503868D01*
X21226730Y-20503868D02*
X21264825Y-20503868D01*
X21264825Y-20503868D02*
X21283873Y-20513391D01*
X21283873Y-20513391D02*
X21293396Y-20532439D01*
X21293396Y-20532439D02*
X21293396Y-20551487D01*
X21293396Y-20551487D02*
X21198158Y-20570534D01*
X21464825Y-20637201D02*
X21464825Y-20437201D01*
X21464825Y-20627677D02*
X21445777Y-20637201D01*
X21445777Y-20637201D02*
X21407682Y-20637201D01*
X21407682Y-20637201D02*
X21388635Y-20627677D01*
X21388635Y-20627677D02*
X21379111Y-20618153D01*
X21379111Y-20618153D02*
X21369587Y-20599106D01*
X21369587Y-20599106D02*
X21369587Y-20541963D01*
X21369587Y-20541963D02*
X21379111Y-20522915D01*
X21379111Y-20522915D02*
X21388635Y-20513391D01*
X21388635Y-20513391D02*
X21407682Y-20503868D01*
X21407682Y-20503868D02*
X21445777Y-20503868D01*
X21445777Y-20503868D02*
X21464825Y-20513391D01*
X21541016Y-20713391D02*
X21550539Y-20703868D01*
X21550539Y-20703868D02*
X21569587Y-20675296D01*
X21569587Y-20675296D02*
X21579111Y-20656249D01*
X21579111Y-20656249D02*
X21588635Y-20627677D01*
X21588635Y-20627677D02*
X21598158Y-20580058D01*
X21598158Y-20580058D02*
X21598158Y-20541963D01*
X21598158Y-20541963D02*
X21588635Y-20494344D01*
X21588635Y-20494344D02*
X21579111Y-20465772D01*
X21579111Y-20465772D02*
X21569587Y-20446725D01*
X21569587Y-20446725D02*
X21550539Y-20418153D01*
X21550539Y-20418153D02*
X21541016Y-20408630D01*
M02*
