%TF.GenerationSoftware,KiCad,Pcbnew,9.0.3*%
%TF.CreationDate,2025-11-20T17:32:18-06:00*%
%TF.ProjectId,DAQ_module,4441515f-6d6f-4647-956c-652e6b696361,rev?*%
%TF.SameCoordinates,Original*%
%TF.FileFunction,Drillmap*%
%TF.FilePolarity,Positive*%
%FSLAX45Y45*%
G04 Gerber Fmt 4.5, Leading zero omitted, Abs format (unit mm)*
G04 Created by KiCad (PCBNEW 9.0.3) date 2025-11-20 17:32:18*
%MOMM*%
%LPD*%
G01*
G04 APERTURE LIST*
%ADD10C,0.050000*%
%ADD11C,0.200000*%
%ADD12C,0.220000*%
G04 APERTURE END LIST*
D10*
X16300000Y-6470000D02*
X19500000Y-6470000D01*
X19500000Y-6470000D02*
G75*
G02*
X19800000Y-6770000I0J-300000D01*
G01*
X16300000Y-12320000D02*
G75*
G02*
X16000000Y-12020000I0J300000D01*
G01*
X19800000Y-12020000D02*
G75*
G02*
X19500000Y-12320000I-300000J0D01*
G01*
X19800000Y-6770000D02*
X19800000Y-12020000D01*
X16000000Y-6770000D02*
G75*
G02*
X16300000Y-6470000I300000J0D01*
G01*
X16000000Y-12020000D02*
X16000000Y-6770000D01*
X19500000Y-12320000D02*
X16300000Y-12320000D01*
D11*
D12*
X16930000Y-11730000D02*
X17150000Y-11950000D01*
X17150000Y-11730000D02*
X16930000Y-11950000D01*
X19300000Y-6760000D02*
X19520000Y-6980000D01*
X19520000Y-6760000D02*
X19300000Y-6980000D01*
X19300000Y-11770000D02*
X19520000Y-11990000D01*
X19520000Y-11770000D02*
X19300000Y-11990000D01*
D11*
X16258277Y-12633984D02*
X16258277Y-12433984D01*
X16258277Y-12433984D02*
X16305896Y-12433984D01*
X16305896Y-12433984D02*
X16334467Y-12443508D01*
X16334467Y-12443508D02*
X16353515Y-12462555D01*
X16353515Y-12462555D02*
X16363039Y-12481603D01*
X16363039Y-12481603D02*
X16372562Y-12519698D01*
X16372562Y-12519698D02*
X16372562Y-12548269D01*
X16372562Y-12548269D02*
X16363039Y-12586365D01*
X16363039Y-12586365D02*
X16353515Y-12605412D01*
X16353515Y-12605412D02*
X16334467Y-12624460D01*
X16334467Y-12624460D02*
X16305896Y-12633984D01*
X16305896Y-12633984D02*
X16258277Y-12633984D01*
X16458277Y-12633984D02*
X16458277Y-12500650D01*
X16458277Y-12538746D02*
X16467801Y-12519698D01*
X16467801Y-12519698D02*
X16477324Y-12510174D01*
X16477324Y-12510174D02*
X16496372Y-12500650D01*
X16496372Y-12500650D02*
X16515420Y-12500650D01*
X16582086Y-12633984D02*
X16582086Y-12500650D01*
X16582086Y-12433984D02*
X16572562Y-12443508D01*
X16572562Y-12443508D02*
X16582086Y-12453031D01*
X16582086Y-12453031D02*
X16591610Y-12443508D01*
X16591610Y-12443508D02*
X16582086Y-12433984D01*
X16582086Y-12433984D02*
X16582086Y-12453031D01*
X16705896Y-12633984D02*
X16686848Y-12624460D01*
X16686848Y-12624460D02*
X16677324Y-12605412D01*
X16677324Y-12605412D02*
X16677324Y-12433984D01*
X16810658Y-12633984D02*
X16791610Y-12624460D01*
X16791610Y-12624460D02*
X16782086Y-12605412D01*
X16782086Y-12605412D02*
X16782086Y-12433984D01*
X17039229Y-12633984D02*
X17039229Y-12433984D01*
X17039229Y-12433984D02*
X17105896Y-12576841D01*
X17105896Y-12576841D02*
X17172563Y-12433984D01*
X17172563Y-12433984D02*
X17172563Y-12633984D01*
X17353515Y-12633984D02*
X17353515Y-12529222D01*
X17353515Y-12529222D02*
X17343991Y-12510174D01*
X17343991Y-12510174D02*
X17324944Y-12500650D01*
X17324944Y-12500650D02*
X17286848Y-12500650D01*
X17286848Y-12500650D02*
X17267801Y-12510174D01*
X17353515Y-12624460D02*
X17334467Y-12633984D01*
X17334467Y-12633984D02*
X17286848Y-12633984D01*
X17286848Y-12633984D02*
X17267801Y-12624460D01*
X17267801Y-12624460D02*
X17258277Y-12605412D01*
X17258277Y-12605412D02*
X17258277Y-12586365D01*
X17258277Y-12586365D02*
X17267801Y-12567317D01*
X17267801Y-12567317D02*
X17286848Y-12557793D01*
X17286848Y-12557793D02*
X17334467Y-12557793D01*
X17334467Y-12557793D02*
X17353515Y-12548269D01*
X17448753Y-12500650D02*
X17448753Y-12700650D01*
X17448753Y-12510174D02*
X17467801Y-12500650D01*
X17467801Y-12500650D02*
X17505896Y-12500650D01*
X17505896Y-12500650D02*
X17524944Y-12510174D01*
X17524944Y-12510174D02*
X17534467Y-12519698D01*
X17534467Y-12519698D02*
X17543991Y-12538746D01*
X17543991Y-12538746D02*
X17543991Y-12595888D01*
X17543991Y-12595888D02*
X17534467Y-12614936D01*
X17534467Y-12614936D02*
X17524944Y-12624460D01*
X17524944Y-12624460D02*
X17505896Y-12633984D01*
X17505896Y-12633984D02*
X17467801Y-12633984D01*
X17467801Y-12633984D02*
X17448753Y-12624460D01*
X17629705Y-12614936D02*
X17639229Y-12624460D01*
X17639229Y-12624460D02*
X17629705Y-12633984D01*
X17629705Y-12633984D02*
X17620182Y-12624460D01*
X17620182Y-12624460D02*
X17629705Y-12614936D01*
X17629705Y-12614936D02*
X17629705Y-12633984D01*
X17629705Y-12510174D02*
X17639229Y-12519698D01*
X17639229Y-12519698D02*
X17629705Y-12529222D01*
X17629705Y-12529222D02*
X17620182Y-12519698D01*
X17620182Y-12519698D02*
X17629705Y-12510174D01*
X17629705Y-12510174D02*
X17629705Y-12529222D01*
X15797500Y-12862500D02*
X15997500Y-13062500D01*
X15997500Y-12862500D02*
X15797500Y-13062500D01*
X16248753Y-12873031D02*
X16258277Y-12863508D01*
X16258277Y-12863508D02*
X16277324Y-12853984D01*
X16277324Y-12853984D02*
X16324943Y-12853984D01*
X16324943Y-12853984D02*
X16343991Y-12863508D01*
X16343991Y-12863508D02*
X16353515Y-12873031D01*
X16353515Y-12873031D02*
X16363039Y-12892079D01*
X16363039Y-12892079D02*
X16363039Y-12911127D01*
X16363039Y-12911127D02*
X16353515Y-12939698D01*
X16353515Y-12939698D02*
X16239229Y-13053984D01*
X16239229Y-13053984D02*
X16363039Y-13053984D01*
X16448753Y-13034936D02*
X16458277Y-13044460D01*
X16458277Y-13044460D02*
X16448753Y-13053984D01*
X16448753Y-13053984D02*
X16439229Y-13044460D01*
X16439229Y-13044460D02*
X16448753Y-13034936D01*
X16448753Y-13034936D02*
X16448753Y-13053984D01*
X16534467Y-12873031D02*
X16543991Y-12863508D01*
X16543991Y-12863508D02*
X16563039Y-12853984D01*
X16563039Y-12853984D02*
X16610658Y-12853984D01*
X16610658Y-12853984D02*
X16629705Y-12863508D01*
X16629705Y-12863508D02*
X16639229Y-12873031D01*
X16639229Y-12873031D02*
X16648753Y-12892079D01*
X16648753Y-12892079D02*
X16648753Y-12911127D01*
X16648753Y-12911127D02*
X16639229Y-12939698D01*
X16639229Y-12939698D02*
X16524943Y-13053984D01*
X16524943Y-13053984D02*
X16648753Y-13053984D01*
X16772562Y-12853984D02*
X16791610Y-12853984D01*
X16791610Y-12853984D02*
X16810658Y-12863508D01*
X16810658Y-12863508D02*
X16820182Y-12873031D01*
X16820182Y-12873031D02*
X16829705Y-12892079D01*
X16829705Y-12892079D02*
X16839229Y-12930174D01*
X16839229Y-12930174D02*
X16839229Y-12977793D01*
X16839229Y-12977793D02*
X16829705Y-13015888D01*
X16829705Y-13015888D02*
X16820182Y-13034936D01*
X16820182Y-13034936D02*
X16810658Y-13044460D01*
X16810658Y-13044460D02*
X16791610Y-13053984D01*
X16791610Y-13053984D02*
X16772562Y-13053984D01*
X16772562Y-13053984D02*
X16753515Y-13044460D01*
X16753515Y-13044460D02*
X16743991Y-13034936D01*
X16743991Y-13034936D02*
X16734467Y-13015888D01*
X16734467Y-13015888D02*
X16724943Y-12977793D01*
X16724943Y-12977793D02*
X16724943Y-12930174D01*
X16724943Y-12930174D02*
X16734467Y-12892079D01*
X16734467Y-12892079D02*
X16743991Y-12873031D01*
X16743991Y-12873031D02*
X16753515Y-12863508D01*
X16753515Y-12863508D02*
X16772562Y-12853984D01*
X16963039Y-12853984D02*
X16982086Y-12853984D01*
X16982086Y-12853984D02*
X17001134Y-12863508D01*
X17001134Y-12863508D02*
X17010658Y-12873031D01*
X17010658Y-12873031D02*
X17020182Y-12892079D01*
X17020182Y-12892079D02*
X17029705Y-12930174D01*
X17029705Y-12930174D02*
X17029705Y-12977793D01*
X17029705Y-12977793D02*
X17020182Y-13015888D01*
X17020182Y-13015888D02*
X17010658Y-13034936D01*
X17010658Y-13034936D02*
X17001134Y-13044460D01*
X17001134Y-13044460D02*
X16982086Y-13053984D01*
X16982086Y-13053984D02*
X16963039Y-13053984D01*
X16963039Y-13053984D02*
X16943991Y-13044460D01*
X16943991Y-13044460D02*
X16934467Y-13034936D01*
X16934467Y-13034936D02*
X16924944Y-13015888D01*
X16924944Y-13015888D02*
X16915420Y-12977793D01*
X16915420Y-12977793D02*
X16915420Y-12930174D01*
X16915420Y-12930174D02*
X16924944Y-12892079D01*
X16924944Y-12892079D02*
X16934467Y-12873031D01*
X16934467Y-12873031D02*
X16943991Y-12863508D01*
X16943991Y-12863508D02*
X16963039Y-12853984D01*
X17115420Y-13053984D02*
X17115420Y-12920650D01*
X17115420Y-12939698D02*
X17124944Y-12930174D01*
X17124944Y-12930174D02*
X17143991Y-12920650D01*
X17143991Y-12920650D02*
X17172563Y-12920650D01*
X17172563Y-12920650D02*
X17191610Y-12930174D01*
X17191610Y-12930174D02*
X17201134Y-12949222D01*
X17201134Y-12949222D02*
X17201134Y-13053984D01*
X17201134Y-12949222D02*
X17210658Y-12930174D01*
X17210658Y-12930174D02*
X17229705Y-12920650D01*
X17229705Y-12920650D02*
X17258277Y-12920650D01*
X17258277Y-12920650D02*
X17277325Y-12930174D01*
X17277325Y-12930174D02*
X17286848Y-12949222D01*
X17286848Y-12949222D02*
X17286848Y-13053984D01*
X17382086Y-13053984D02*
X17382086Y-12920650D01*
X17382086Y-12939698D02*
X17391610Y-12930174D01*
X17391610Y-12930174D02*
X17410658Y-12920650D01*
X17410658Y-12920650D02*
X17439229Y-12920650D01*
X17439229Y-12920650D02*
X17458277Y-12930174D01*
X17458277Y-12930174D02*
X17467801Y-12949222D01*
X17467801Y-12949222D02*
X17467801Y-13053984D01*
X17467801Y-12949222D02*
X17477325Y-12930174D01*
X17477325Y-12930174D02*
X17496372Y-12920650D01*
X17496372Y-12920650D02*
X17524944Y-12920650D01*
X17524944Y-12920650D02*
X17543991Y-12930174D01*
X17543991Y-12930174D02*
X17553515Y-12949222D01*
X17553515Y-12949222D02*
X17553515Y-13053984D01*
X17943991Y-12844460D02*
X17772563Y-13101603D01*
X18201134Y-12853984D02*
X18220182Y-12853984D01*
X18220182Y-12853984D02*
X18239229Y-12863508D01*
X18239229Y-12863508D02*
X18248753Y-12873031D01*
X18248753Y-12873031D02*
X18258277Y-12892079D01*
X18258277Y-12892079D02*
X18267801Y-12930174D01*
X18267801Y-12930174D02*
X18267801Y-12977793D01*
X18267801Y-12977793D02*
X18258277Y-13015888D01*
X18258277Y-13015888D02*
X18248753Y-13034936D01*
X18248753Y-13034936D02*
X18239229Y-13044460D01*
X18239229Y-13044460D02*
X18220182Y-13053984D01*
X18220182Y-13053984D02*
X18201134Y-13053984D01*
X18201134Y-13053984D02*
X18182087Y-13044460D01*
X18182087Y-13044460D02*
X18172563Y-13034936D01*
X18172563Y-13034936D02*
X18163039Y-13015888D01*
X18163039Y-13015888D02*
X18153515Y-12977793D01*
X18153515Y-12977793D02*
X18153515Y-12930174D01*
X18153515Y-12930174D02*
X18163039Y-12892079D01*
X18163039Y-12892079D02*
X18172563Y-12873031D01*
X18172563Y-12873031D02*
X18182087Y-12863508D01*
X18182087Y-12863508D02*
X18201134Y-12853984D01*
X18353515Y-13034936D02*
X18363039Y-13044460D01*
X18363039Y-13044460D02*
X18353515Y-13053984D01*
X18353515Y-13053984D02*
X18343991Y-13044460D01*
X18343991Y-13044460D02*
X18353515Y-13034936D01*
X18353515Y-13034936D02*
X18353515Y-13053984D01*
X18486848Y-12853984D02*
X18505896Y-12853984D01*
X18505896Y-12853984D02*
X18524944Y-12863508D01*
X18524944Y-12863508D02*
X18534468Y-12873031D01*
X18534468Y-12873031D02*
X18543991Y-12892079D01*
X18543991Y-12892079D02*
X18553515Y-12930174D01*
X18553515Y-12930174D02*
X18553515Y-12977793D01*
X18553515Y-12977793D02*
X18543991Y-13015888D01*
X18543991Y-13015888D02*
X18534468Y-13034936D01*
X18534468Y-13034936D02*
X18524944Y-13044460D01*
X18524944Y-13044460D02*
X18505896Y-13053984D01*
X18505896Y-13053984D02*
X18486848Y-13053984D01*
X18486848Y-13053984D02*
X18467801Y-13044460D01*
X18467801Y-13044460D02*
X18458277Y-13034936D01*
X18458277Y-13034936D02*
X18448753Y-13015888D01*
X18448753Y-13015888D02*
X18439229Y-12977793D01*
X18439229Y-12977793D02*
X18439229Y-12930174D01*
X18439229Y-12930174D02*
X18448753Y-12892079D01*
X18448753Y-12892079D02*
X18458277Y-12873031D01*
X18458277Y-12873031D02*
X18467801Y-12863508D01*
X18467801Y-12863508D02*
X18486848Y-12853984D01*
X18667801Y-12939698D02*
X18648753Y-12930174D01*
X18648753Y-12930174D02*
X18639229Y-12920650D01*
X18639229Y-12920650D02*
X18629706Y-12901603D01*
X18629706Y-12901603D02*
X18629706Y-12892079D01*
X18629706Y-12892079D02*
X18639229Y-12873031D01*
X18639229Y-12873031D02*
X18648753Y-12863508D01*
X18648753Y-12863508D02*
X18667801Y-12853984D01*
X18667801Y-12853984D02*
X18705896Y-12853984D01*
X18705896Y-12853984D02*
X18724944Y-12863508D01*
X18724944Y-12863508D02*
X18734468Y-12873031D01*
X18734468Y-12873031D02*
X18743991Y-12892079D01*
X18743991Y-12892079D02*
X18743991Y-12901603D01*
X18743991Y-12901603D02*
X18734468Y-12920650D01*
X18734468Y-12920650D02*
X18724944Y-12930174D01*
X18724944Y-12930174D02*
X18705896Y-12939698D01*
X18705896Y-12939698D02*
X18667801Y-12939698D01*
X18667801Y-12939698D02*
X18648753Y-12949222D01*
X18648753Y-12949222D02*
X18639229Y-12958746D01*
X18639229Y-12958746D02*
X18629706Y-12977793D01*
X18629706Y-12977793D02*
X18629706Y-13015888D01*
X18629706Y-13015888D02*
X18639229Y-13034936D01*
X18639229Y-13034936D02*
X18648753Y-13044460D01*
X18648753Y-13044460D02*
X18667801Y-13053984D01*
X18667801Y-13053984D02*
X18705896Y-13053984D01*
X18705896Y-13053984D02*
X18724944Y-13044460D01*
X18724944Y-13044460D02*
X18734468Y-13034936D01*
X18734468Y-13034936D02*
X18743991Y-13015888D01*
X18743991Y-13015888D02*
X18743991Y-12977793D01*
X18743991Y-12977793D02*
X18734468Y-12958746D01*
X18734468Y-12958746D02*
X18724944Y-12949222D01*
X18724944Y-12949222D02*
X18705896Y-12939698D01*
X18915420Y-12853984D02*
X18877325Y-12853984D01*
X18877325Y-12853984D02*
X18858277Y-12863508D01*
X18858277Y-12863508D02*
X18848753Y-12873031D01*
X18848753Y-12873031D02*
X18829706Y-12901603D01*
X18829706Y-12901603D02*
X18820182Y-12939698D01*
X18820182Y-12939698D02*
X18820182Y-13015888D01*
X18820182Y-13015888D02*
X18829706Y-13034936D01*
X18829706Y-13034936D02*
X18839229Y-13044460D01*
X18839229Y-13044460D02*
X18858277Y-13053984D01*
X18858277Y-13053984D02*
X18896372Y-13053984D01*
X18896372Y-13053984D02*
X18915420Y-13044460D01*
X18915420Y-13044460D02*
X18924944Y-13034936D01*
X18924944Y-13034936D02*
X18934468Y-13015888D01*
X18934468Y-13015888D02*
X18934468Y-12968269D01*
X18934468Y-12968269D02*
X18924944Y-12949222D01*
X18924944Y-12949222D02*
X18915420Y-12939698D01*
X18915420Y-12939698D02*
X18896372Y-12930174D01*
X18896372Y-12930174D02*
X18858277Y-12930174D01*
X18858277Y-12930174D02*
X18839229Y-12939698D01*
X18839229Y-12939698D02*
X18829706Y-12949222D01*
X18829706Y-12949222D02*
X18820182Y-12968269D01*
X19105896Y-12853984D02*
X19067801Y-12853984D01*
X19067801Y-12853984D02*
X19048753Y-12863508D01*
X19048753Y-12863508D02*
X19039229Y-12873031D01*
X19039229Y-12873031D02*
X19020182Y-12901603D01*
X19020182Y-12901603D02*
X19010658Y-12939698D01*
X19010658Y-12939698D02*
X19010658Y-13015888D01*
X19010658Y-13015888D02*
X19020182Y-13034936D01*
X19020182Y-13034936D02*
X19029706Y-13044460D01*
X19029706Y-13044460D02*
X19048753Y-13053984D01*
X19048753Y-13053984D02*
X19086849Y-13053984D01*
X19086849Y-13053984D02*
X19105896Y-13044460D01*
X19105896Y-13044460D02*
X19115420Y-13034936D01*
X19115420Y-13034936D02*
X19124944Y-13015888D01*
X19124944Y-13015888D02*
X19124944Y-12968269D01*
X19124944Y-12968269D02*
X19115420Y-12949222D01*
X19115420Y-12949222D02*
X19105896Y-12939698D01*
X19105896Y-12939698D02*
X19086849Y-12930174D01*
X19086849Y-12930174D02*
X19048753Y-12930174D01*
X19048753Y-12930174D02*
X19029706Y-12939698D01*
X19029706Y-12939698D02*
X19020182Y-12949222D01*
X19020182Y-12949222D02*
X19010658Y-12968269D01*
X19201134Y-12853984D02*
X19201134Y-12892079D01*
X19277325Y-12853984D02*
X19277325Y-12892079D01*
X19572563Y-13130174D02*
X19563039Y-13120650D01*
X19563039Y-13120650D02*
X19543991Y-13092079D01*
X19543991Y-13092079D02*
X19534468Y-13073031D01*
X19534468Y-13073031D02*
X19524944Y-13044460D01*
X19524944Y-13044460D02*
X19515420Y-12996841D01*
X19515420Y-12996841D02*
X19515420Y-12958746D01*
X19515420Y-12958746D02*
X19524944Y-12911127D01*
X19524944Y-12911127D02*
X19534468Y-12882555D01*
X19534468Y-12882555D02*
X19543991Y-12863508D01*
X19543991Y-12863508D02*
X19563039Y-12834936D01*
X19563039Y-12834936D02*
X19572563Y-12825412D01*
X19629706Y-12853984D02*
X19753515Y-12853984D01*
X19753515Y-12853984D02*
X19686849Y-12930174D01*
X19686849Y-12930174D02*
X19715420Y-12930174D01*
X19715420Y-12930174D02*
X19734468Y-12939698D01*
X19734468Y-12939698D02*
X19743991Y-12949222D01*
X19743991Y-12949222D02*
X19753515Y-12968269D01*
X19753515Y-12968269D02*
X19753515Y-13015888D01*
X19753515Y-13015888D02*
X19743991Y-13034936D01*
X19743991Y-13034936D02*
X19734468Y-13044460D01*
X19734468Y-13044460D02*
X19715420Y-13053984D01*
X19715420Y-13053984D02*
X19658277Y-13053984D01*
X19658277Y-13053984D02*
X19639230Y-13044460D01*
X19639230Y-13044460D02*
X19629706Y-13034936D01*
X19991611Y-13053984D02*
X19991611Y-12853984D01*
X20077325Y-13053984D02*
X20077325Y-12949222D01*
X20077325Y-12949222D02*
X20067801Y-12930174D01*
X20067801Y-12930174D02*
X20048753Y-12920650D01*
X20048753Y-12920650D02*
X20020182Y-12920650D01*
X20020182Y-12920650D02*
X20001134Y-12930174D01*
X20001134Y-12930174D02*
X19991611Y-12939698D01*
X20201134Y-13053984D02*
X20182087Y-13044460D01*
X20182087Y-13044460D02*
X20172563Y-13034936D01*
X20172563Y-13034936D02*
X20163039Y-13015888D01*
X20163039Y-13015888D02*
X20163039Y-12958746D01*
X20163039Y-12958746D02*
X20172563Y-12939698D01*
X20172563Y-12939698D02*
X20182087Y-12930174D01*
X20182087Y-12930174D02*
X20201134Y-12920650D01*
X20201134Y-12920650D02*
X20229706Y-12920650D01*
X20229706Y-12920650D02*
X20248753Y-12930174D01*
X20248753Y-12930174D02*
X20258277Y-12939698D01*
X20258277Y-12939698D02*
X20267801Y-12958746D01*
X20267801Y-12958746D02*
X20267801Y-13015888D01*
X20267801Y-13015888D02*
X20258277Y-13034936D01*
X20258277Y-13034936D02*
X20248753Y-13044460D01*
X20248753Y-13044460D02*
X20229706Y-13053984D01*
X20229706Y-13053984D02*
X20201134Y-13053984D01*
X20382087Y-13053984D02*
X20363039Y-13044460D01*
X20363039Y-13044460D02*
X20353515Y-13025412D01*
X20353515Y-13025412D02*
X20353515Y-12853984D01*
X20534468Y-13044460D02*
X20515420Y-13053984D01*
X20515420Y-13053984D02*
X20477325Y-13053984D01*
X20477325Y-13053984D02*
X20458277Y-13044460D01*
X20458277Y-13044460D02*
X20448753Y-13025412D01*
X20448753Y-13025412D02*
X20448753Y-12949222D01*
X20448753Y-12949222D02*
X20458277Y-12930174D01*
X20458277Y-12930174D02*
X20477325Y-12920650D01*
X20477325Y-12920650D02*
X20515420Y-12920650D01*
X20515420Y-12920650D02*
X20534468Y-12930174D01*
X20534468Y-12930174D02*
X20543992Y-12949222D01*
X20543992Y-12949222D02*
X20543992Y-12968269D01*
X20543992Y-12968269D02*
X20448753Y-12987317D01*
X20620182Y-13044460D02*
X20639230Y-13053984D01*
X20639230Y-13053984D02*
X20677325Y-13053984D01*
X20677325Y-13053984D02*
X20696373Y-13044460D01*
X20696373Y-13044460D02*
X20705896Y-13025412D01*
X20705896Y-13025412D02*
X20705896Y-13015888D01*
X20705896Y-13015888D02*
X20696373Y-12996841D01*
X20696373Y-12996841D02*
X20677325Y-12987317D01*
X20677325Y-12987317D02*
X20648753Y-12987317D01*
X20648753Y-12987317D02*
X20629706Y-12977793D01*
X20629706Y-12977793D02*
X20620182Y-12958746D01*
X20620182Y-12958746D02*
X20620182Y-12949222D01*
X20620182Y-12949222D02*
X20629706Y-12930174D01*
X20629706Y-12930174D02*
X20648753Y-12920650D01*
X20648753Y-12920650D02*
X20677325Y-12920650D01*
X20677325Y-12920650D02*
X20696373Y-12930174D01*
X20772563Y-13130174D02*
X20782087Y-13120650D01*
X20782087Y-13120650D02*
X20801134Y-13092079D01*
X20801134Y-13092079D02*
X20810658Y-13073031D01*
X20810658Y-13073031D02*
X20820182Y-13044460D01*
X20820182Y-13044460D02*
X20829706Y-12996841D01*
X20829706Y-12996841D02*
X20829706Y-12958746D01*
X20829706Y-12958746D02*
X20820182Y-12911127D01*
X20820182Y-12911127D02*
X20810658Y-12882555D01*
X20810658Y-12882555D02*
X20801134Y-12863508D01*
X20801134Y-12863508D02*
X20782087Y-12834936D01*
X20782087Y-12834936D02*
X20772563Y-12825412D01*
X21134468Y-13130174D02*
X21124944Y-13120650D01*
X21124944Y-13120650D02*
X21105896Y-13092079D01*
X21105896Y-13092079D02*
X21096373Y-13073031D01*
X21096373Y-13073031D02*
X21086849Y-13044460D01*
X21086849Y-13044460D02*
X21077325Y-12996841D01*
X21077325Y-12996841D02*
X21077325Y-12958746D01*
X21077325Y-12958746D02*
X21086849Y-12911127D01*
X21086849Y-12911127D02*
X21096373Y-12882555D01*
X21096373Y-12882555D02*
X21105896Y-12863508D01*
X21105896Y-12863508D02*
X21124944Y-12834936D01*
X21124944Y-12834936D02*
X21134468Y-12825412D01*
X21210658Y-12920650D02*
X21210658Y-13053984D01*
X21210658Y-12939698D02*
X21220182Y-12930174D01*
X21220182Y-12930174D02*
X21239230Y-12920650D01*
X21239230Y-12920650D02*
X21267801Y-12920650D01*
X21267801Y-12920650D02*
X21286849Y-12930174D01*
X21286849Y-12930174D02*
X21296373Y-12949222D01*
X21296373Y-12949222D02*
X21296373Y-13053984D01*
X21420182Y-13053984D02*
X21401134Y-13044460D01*
X21401134Y-13044460D02*
X21391611Y-13034936D01*
X21391611Y-13034936D02*
X21382087Y-13015888D01*
X21382087Y-13015888D02*
X21382087Y-12958746D01*
X21382087Y-12958746D02*
X21391611Y-12939698D01*
X21391611Y-12939698D02*
X21401134Y-12930174D01*
X21401134Y-12930174D02*
X21420182Y-12920650D01*
X21420182Y-12920650D02*
X21448754Y-12920650D01*
X21448754Y-12920650D02*
X21467801Y-12930174D01*
X21467801Y-12930174D02*
X21477325Y-12939698D01*
X21477325Y-12939698D02*
X21486849Y-12958746D01*
X21486849Y-12958746D02*
X21486849Y-13015888D01*
X21486849Y-13015888D02*
X21477325Y-13034936D01*
X21477325Y-13034936D02*
X21467801Y-13044460D01*
X21467801Y-13044460D02*
X21448754Y-13053984D01*
X21448754Y-13053984D02*
X21420182Y-13053984D01*
X21543992Y-12920650D02*
X21620182Y-12920650D01*
X21572563Y-12853984D02*
X21572563Y-13025412D01*
X21572563Y-13025412D02*
X21582087Y-13044460D01*
X21582087Y-13044460D02*
X21601134Y-13053984D01*
X21601134Y-13053984D02*
X21620182Y-13053984D01*
X21839230Y-12920650D02*
X21839230Y-13120650D01*
X21839230Y-12930174D02*
X21858277Y-12920650D01*
X21858277Y-12920650D02*
X21896373Y-12920650D01*
X21896373Y-12920650D02*
X21915420Y-12930174D01*
X21915420Y-12930174D02*
X21924944Y-12939698D01*
X21924944Y-12939698D02*
X21934468Y-12958746D01*
X21934468Y-12958746D02*
X21934468Y-13015888D01*
X21934468Y-13015888D02*
X21924944Y-13034936D01*
X21924944Y-13034936D02*
X21915420Y-13044460D01*
X21915420Y-13044460D02*
X21896373Y-13053984D01*
X21896373Y-13053984D02*
X21858277Y-13053984D01*
X21858277Y-13053984D02*
X21839230Y-13044460D01*
X22048754Y-13053984D02*
X22029706Y-13044460D01*
X22029706Y-13044460D02*
X22020182Y-13025412D01*
X22020182Y-13025412D02*
X22020182Y-12853984D01*
X22210658Y-13053984D02*
X22210658Y-12949222D01*
X22210658Y-12949222D02*
X22201135Y-12930174D01*
X22201135Y-12930174D02*
X22182087Y-12920650D01*
X22182087Y-12920650D02*
X22143992Y-12920650D01*
X22143992Y-12920650D02*
X22124944Y-12930174D01*
X22210658Y-13044460D02*
X22191611Y-13053984D01*
X22191611Y-13053984D02*
X22143992Y-13053984D01*
X22143992Y-13053984D02*
X22124944Y-13044460D01*
X22124944Y-13044460D02*
X22115420Y-13025412D01*
X22115420Y-13025412D02*
X22115420Y-13006365D01*
X22115420Y-13006365D02*
X22124944Y-12987317D01*
X22124944Y-12987317D02*
X22143992Y-12977793D01*
X22143992Y-12977793D02*
X22191611Y-12977793D01*
X22191611Y-12977793D02*
X22210658Y-12968269D01*
X22277325Y-12920650D02*
X22353515Y-12920650D01*
X22305896Y-12853984D02*
X22305896Y-13025412D01*
X22305896Y-13025412D02*
X22315420Y-13044460D01*
X22315420Y-13044460D02*
X22334468Y-13053984D01*
X22334468Y-13053984D02*
X22353515Y-13053984D01*
X22496373Y-13044460D02*
X22477325Y-13053984D01*
X22477325Y-13053984D02*
X22439230Y-13053984D01*
X22439230Y-13053984D02*
X22420182Y-13044460D01*
X22420182Y-13044460D02*
X22410658Y-13025412D01*
X22410658Y-13025412D02*
X22410658Y-12949222D01*
X22410658Y-12949222D02*
X22420182Y-12930174D01*
X22420182Y-12930174D02*
X22439230Y-12920650D01*
X22439230Y-12920650D02*
X22477325Y-12920650D01*
X22477325Y-12920650D02*
X22496373Y-12930174D01*
X22496373Y-12930174D02*
X22505896Y-12949222D01*
X22505896Y-12949222D02*
X22505896Y-12968269D01*
X22505896Y-12968269D02*
X22410658Y-12987317D01*
X22677325Y-13053984D02*
X22677325Y-12853984D01*
X22677325Y-13044460D02*
X22658277Y-13053984D01*
X22658277Y-13053984D02*
X22620182Y-13053984D01*
X22620182Y-13053984D02*
X22601134Y-13044460D01*
X22601134Y-13044460D02*
X22591611Y-13034936D01*
X22591611Y-13034936D02*
X22582087Y-13015888D01*
X22582087Y-13015888D02*
X22582087Y-12958746D01*
X22582087Y-12958746D02*
X22591611Y-12939698D01*
X22591611Y-12939698D02*
X22601134Y-12930174D01*
X22601134Y-12930174D02*
X22620182Y-12920650D01*
X22620182Y-12920650D02*
X22658277Y-12920650D01*
X22658277Y-12920650D02*
X22677325Y-12930174D01*
X22753515Y-13130174D02*
X22763039Y-13120650D01*
X22763039Y-13120650D02*
X22782087Y-13092079D01*
X22782087Y-13092079D02*
X22791611Y-13073031D01*
X22791611Y-13073031D02*
X22801134Y-13044460D01*
X22801134Y-13044460D02*
X22810658Y-12996841D01*
X22810658Y-12996841D02*
X22810658Y-12958746D01*
X22810658Y-12958746D02*
X22801134Y-12911127D01*
X22801134Y-12911127D02*
X22791611Y-12882555D01*
X22791611Y-12882555D02*
X22782087Y-12863508D01*
X22782087Y-12863508D02*
X22763039Y-12834936D01*
X22763039Y-12834936D02*
X22753515Y-12825412D01*
M02*
