G04 #@! TF.GenerationSoftware,KiCad,Pcbnew,9.0.3*
G04 #@! TF.CreationDate,2025-11-20T17:31:48-06:00*
G04 #@! TF.ProjectId,DAQ_module,4441515f-6d6f-4647-956c-652e6b696361,rev?*
G04 #@! TF.SameCoordinates,Original*
G04 #@! TF.FileFunction,Copper,L3,Inr*
G04 #@! TF.FilePolarity,Positive*
%FSLAX46Y46*%
G04 Gerber Fmt 4.6, Leading zero omitted, Abs format (unit mm)*
G04 Created by KiCad (PCBNEW 9.0.3) date 2025-11-20 17:31:48*
%MOMM*%
%LPD*%
G01*
G04 APERTURE LIST*
G04 #@! TA.AperFunction,ComponentPad*
%ADD10R,1.700000X1.700000*%
G04 #@! TD*
G04 #@! TA.AperFunction,ComponentPad*
%ADD11C,1.700000*%
G04 #@! TD*
G04 #@! TA.AperFunction,ViaPad*
%ADD12C,0.700000*%
G04 #@! TD*
G04 #@! TA.AperFunction,ViaPad*
%ADD13C,0.600000*%
G04 #@! TD*
G04 #@! TA.AperFunction,Conductor*
%ADD14C,0.500000*%
G04 #@! TD*
G04 APERTURE END LIST*
D10*
X193900000Y-88500000D03*
D11*
X193900000Y-91040000D03*
X193900000Y-93580000D03*
X193900000Y-96120000D03*
X193900000Y-98660000D03*
X193900000Y-101200000D03*
X193900000Y-103740000D03*
X193900000Y-106280000D03*
X193900000Y-108820000D03*
X193900000Y-111360000D03*
D10*
X163400000Y-68175000D03*
D11*
X163400000Y-70715000D03*
X163400000Y-73255000D03*
X163400000Y-75795000D03*
X163400000Y-78335000D03*
X163400000Y-80875000D03*
X163400000Y-83415000D03*
X163400000Y-85955000D03*
X163400000Y-88495000D03*
X163400000Y-91035000D03*
X163400000Y-93575000D03*
X163400000Y-96115000D03*
X163400000Y-98655000D03*
X163400000Y-101195000D03*
X163400000Y-103735000D03*
X163400000Y-106275000D03*
X163400000Y-108815000D03*
X163400000Y-111355000D03*
X163400000Y-113895000D03*
X163400000Y-116435000D03*
D12*
X191500000Y-83100000D03*
D13*
X174200000Y-107600000D03*
X173600000Y-72900000D03*
D12*
X189500000Y-119100000D03*
X177500000Y-103100000D03*
X179500000Y-103100000D03*
X177500000Y-111100000D03*
D13*
X166200000Y-112200000D03*
D12*
X193500000Y-81100000D03*
D13*
X173700000Y-75800000D03*
D12*
X175500000Y-119100000D03*
X193500000Y-77100000D03*
X177500000Y-119100000D03*
X179500000Y-111100000D03*
X191500000Y-85100000D03*
X191500000Y-73100000D03*
D13*
X173700000Y-87450000D03*
D12*
X193500000Y-115100000D03*
X191500000Y-77100000D03*
X191500000Y-79100000D03*
X193500000Y-75100000D03*
X181500000Y-119100000D03*
X193500000Y-73100000D03*
X191500000Y-75100000D03*
X189500000Y-95100000D03*
X193500000Y-83100000D03*
X173500000Y-103100000D03*
X193500000Y-79100000D03*
X179500000Y-119100000D03*
D13*
X173500000Y-70500000D03*
X173300000Y-81600000D03*
D12*
X193500000Y-85100000D03*
X175500000Y-103100000D03*
D13*
X173450000Y-84650000D03*
D12*
X173500000Y-119100000D03*
D13*
X173600000Y-78800000D03*
D12*
X191500000Y-81100000D03*
D13*
X183200000Y-79900000D03*
X166900000Y-91600000D03*
X184600000Y-69700000D03*
X189000000Y-79900000D03*
X179900000Y-95600000D03*
X185300000Y-114400000D03*
X185300000Y-101400000D03*
X185300000Y-108900000D03*
X183675000Y-88400000D03*
X189800000Y-101200000D03*
X189700000Y-114600000D03*
X189600000Y-107100000D03*
X190100000Y-109300000D03*
X189200000Y-103400000D03*
X169200000Y-67100000D03*
X169200000Y-70000000D03*
X169200000Y-72945000D03*
X169200000Y-75800000D03*
X169100000Y-78700000D03*
X169100000Y-81600000D03*
X169100000Y-84500000D03*
X169100000Y-87400000D03*
D14*
X172400000Y-91600000D02*
X166900000Y-91600000D01*
X176050000Y-87950000D02*
X172400000Y-91600000D01*
X176050000Y-72000000D02*
X176050000Y-87950000D01*
X178150000Y-69900000D02*
X176050000Y-72000000D01*
X184400000Y-69900000D02*
X178150000Y-69900000D01*
X184600000Y-69700000D02*
X184400000Y-69900000D01*
X185300000Y-96800000D02*
X184100000Y-95600000D01*
X185300000Y-101400000D02*
X185300000Y-96800000D01*
X185300000Y-108900000D02*
X185300000Y-101400000D01*
X184100000Y-95600000D02*
X179900000Y-95600000D01*
X185300000Y-114400000D02*
X185300000Y-108900000D01*
G04 #@! TA.AperFunction,Conductor*
G36*
X195003736Y-65200726D02*
G01*
X195293796Y-65218271D01*
X195308659Y-65220076D01*
X195590798Y-65271780D01*
X195605335Y-65275363D01*
X195879172Y-65360695D01*
X195893163Y-65366000D01*
X196154743Y-65483727D01*
X196167989Y-65490680D01*
X196413465Y-65639075D01*
X196425776Y-65647573D01*
X196651573Y-65824473D01*
X196662781Y-65834403D01*
X196865596Y-66037218D01*
X196875526Y-66048426D01*
X196995481Y-66201538D01*
X197052422Y-66274217D01*
X197060926Y-66286537D01*
X197123838Y-66390606D01*
X197209316Y-66532004D01*
X197216275Y-66545263D01*
X197333997Y-66806831D01*
X197339306Y-66820832D01*
X197424635Y-67094663D01*
X197428219Y-67109201D01*
X197479923Y-67391340D01*
X197481728Y-67406205D01*
X197499274Y-67696263D01*
X197499500Y-67703750D01*
X197499500Y-120196249D01*
X197499274Y-120203736D01*
X197481728Y-120493794D01*
X197479923Y-120508659D01*
X197428219Y-120790798D01*
X197424635Y-120805336D01*
X197339306Y-121079167D01*
X197333997Y-121093168D01*
X197216275Y-121354736D01*
X197209316Y-121367995D01*
X197060928Y-121613459D01*
X197052422Y-121625782D01*
X196875526Y-121851573D01*
X196865596Y-121862781D01*
X196662781Y-122065596D01*
X196651573Y-122075526D01*
X196425782Y-122252422D01*
X196413459Y-122260928D01*
X196167995Y-122409316D01*
X196154736Y-122416275D01*
X195893168Y-122533997D01*
X195879167Y-122539306D01*
X195605336Y-122624635D01*
X195590798Y-122628219D01*
X195308659Y-122679923D01*
X195293794Y-122681728D01*
X195003736Y-122699274D01*
X194996249Y-122699500D01*
X163003751Y-122699500D01*
X162996264Y-122699274D01*
X162706205Y-122681728D01*
X162691340Y-122679923D01*
X162409201Y-122628219D01*
X162394663Y-122624635D01*
X162120832Y-122539306D01*
X162106831Y-122533997D01*
X161845263Y-122416275D01*
X161832004Y-122409316D01*
X161586540Y-122260928D01*
X161574217Y-122252422D01*
X161348426Y-122075526D01*
X161337218Y-122065596D01*
X161134403Y-121862781D01*
X161124473Y-121851573D01*
X160947573Y-121625776D01*
X160939075Y-121613465D01*
X160790680Y-121367989D01*
X160783727Y-121354743D01*
X160666000Y-121093163D01*
X160660693Y-121079167D01*
X160575364Y-120805336D01*
X160571780Y-120790798D01*
X160520076Y-120508659D01*
X160518271Y-120493794D01*
X160500726Y-120203736D01*
X160500500Y-120196249D01*
X160500500Y-118293713D01*
X169049500Y-118293713D01*
X169049500Y-118506286D01*
X169082753Y-118716239D01*
X169082753Y-118716241D01*
X169082754Y-118716243D01*
X169144503Y-118906287D01*
X169148444Y-118918414D01*
X169244951Y-119107820D01*
X169369890Y-119279786D01*
X169520213Y-119430109D01*
X169692179Y-119555048D01*
X169692181Y-119555049D01*
X169692184Y-119555051D01*
X169881588Y-119651557D01*
X170083757Y-119717246D01*
X170293713Y-119750500D01*
X170293714Y-119750500D01*
X170506286Y-119750500D01*
X170506287Y-119750500D01*
X170716243Y-119717246D01*
X170918412Y-119651557D01*
X171107816Y-119555051D01*
X171129789Y-119539086D01*
X171279786Y-119430109D01*
X171279788Y-119430106D01*
X171279792Y-119430104D01*
X171430104Y-119279792D01*
X171430106Y-119279788D01*
X171430109Y-119279786D01*
X171555048Y-119107820D01*
X171555047Y-119107820D01*
X171555051Y-119107816D01*
X171651557Y-118918412D01*
X171717246Y-118716243D01*
X171720814Y-118693713D01*
X192749500Y-118693713D01*
X192749500Y-118906287D01*
X192751421Y-118918414D01*
X192782753Y-119116239D01*
X192848444Y-119318414D01*
X192944951Y-119507820D01*
X193069890Y-119679786D01*
X193220213Y-119830109D01*
X193392179Y-119955048D01*
X193392181Y-119955049D01*
X193392184Y-119955051D01*
X193581588Y-120051557D01*
X193783757Y-120117246D01*
X193993713Y-120150500D01*
X193993714Y-120150500D01*
X194206286Y-120150500D01*
X194206287Y-120150500D01*
X194416243Y-120117246D01*
X194618412Y-120051557D01*
X194807816Y-119955051D01*
X194829789Y-119939086D01*
X194979786Y-119830109D01*
X194979788Y-119830106D01*
X194979792Y-119830104D01*
X195130104Y-119679792D01*
X195130106Y-119679788D01*
X195130109Y-119679786D01*
X195255048Y-119507820D01*
X195255047Y-119507820D01*
X195255051Y-119507816D01*
X195351557Y-119318412D01*
X195417246Y-119116243D01*
X195450500Y-118906287D01*
X195450500Y-118693713D01*
X195417246Y-118483757D01*
X195351557Y-118281588D01*
X195255051Y-118092184D01*
X195255049Y-118092181D01*
X195255048Y-118092179D01*
X195130109Y-117920213D01*
X194979786Y-117769890D01*
X194807820Y-117644951D01*
X194618414Y-117548444D01*
X194618413Y-117548443D01*
X194618412Y-117548443D01*
X194416243Y-117482754D01*
X194416241Y-117482753D01*
X194416240Y-117482753D01*
X194254957Y-117457208D01*
X194206287Y-117449500D01*
X193993713Y-117449500D01*
X193945042Y-117457208D01*
X193783760Y-117482753D01*
X193581585Y-117548444D01*
X193392179Y-117644951D01*
X193220213Y-117769890D01*
X193069890Y-117920213D01*
X192944951Y-118092179D01*
X192848444Y-118281585D01*
X192782753Y-118483760D01*
X192753344Y-118669441D01*
X192749500Y-118693713D01*
X171720814Y-118693713D01*
X171750500Y-118506287D01*
X171750500Y-118293713D01*
X171717246Y-118083757D01*
X171651557Y-117881588D01*
X171555051Y-117692184D01*
X171555049Y-117692181D01*
X171555048Y-117692179D01*
X171430109Y-117520213D01*
X171279786Y-117369890D01*
X171107820Y-117244951D01*
X170918414Y-117148444D01*
X170918413Y-117148443D01*
X170918412Y-117148443D01*
X170716243Y-117082754D01*
X170716241Y-117082753D01*
X170716240Y-117082753D01*
X170554957Y-117057208D01*
X170506287Y-117049500D01*
X170293713Y-117049500D01*
X170245042Y-117057208D01*
X170083760Y-117082753D01*
X169881585Y-117148444D01*
X169692179Y-117244951D01*
X169520213Y-117369890D01*
X169369890Y-117520213D01*
X169244951Y-117692179D01*
X169148444Y-117881585D01*
X169082753Y-118083760D01*
X169049500Y-118293713D01*
X160500500Y-118293713D01*
X160500500Y-67703750D01*
X160500726Y-67696263D01*
X160505926Y-67610289D01*
X160518271Y-67406201D01*
X160520076Y-67391340D01*
X160541005Y-67277135D01*
X162049500Y-67277135D01*
X162049500Y-69072870D01*
X162049501Y-69072876D01*
X162055908Y-69132483D01*
X162106202Y-69267328D01*
X162106206Y-69267335D01*
X162192452Y-69382544D01*
X162192455Y-69382547D01*
X162307664Y-69468793D01*
X162307671Y-69468797D01*
X162439082Y-69517810D01*
X162495016Y-69559681D01*
X162519433Y-69625145D01*
X162504582Y-69693418D01*
X162483431Y-69721673D01*
X162369889Y-69835215D01*
X162244951Y-70007179D01*
X162148444Y-70196585D01*
X162082753Y-70398760D01*
X162049500Y-70608713D01*
X162049500Y-70821286D01*
X162082753Y-71031239D01*
X162148444Y-71233414D01*
X162244951Y-71422820D01*
X162369890Y-71594786D01*
X162520213Y-71745109D01*
X162692182Y-71870050D01*
X162700946Y-71874516D01*
X162751742Y-71922491D01*
X162768536Y-71990312D01*
X162745998Y-72056447D01*
X162700946Y-72095484D01*
X162692182Y-72099949D01*
X162520213Y-72224890D01*
X162369890Y-72375213D01*
X162244951Y-72547179D01*
X162148444Y-72736585D01*
X162082753Y-72938760D01*
X162049500Y-73148713D01*
X162049500Y-73361286D01*
X162082048Y-73566789D01*
X162082754Y-73571243D01*
X162139373Y-73745499D01*
X162148444Y-73773414D01*
X162244951Y-73962820D01*
X162369890Y-74134786D01*
X162520213Y-74285109D01*
X162692182Y-74410050D01*
X162700946Y-74414516D01*
X162751742Y-74462491D01*
X162768536Y-74530312D01*
X162745998Y-74596447D01*
X162700946Y-74635484D01*
X162692182Y-74639949D01*
X162520213Y-74764890D01*
X162369890Y-74915213D01*
X162244951Y-75087179D01*
X162148444Y-75276585D01*
X162082753Y-75478760D01*
X162068857Y-75566498D01*
X162049500Y-75688713D01*
X162049500Y-75901287D01*
X162082754Y-76111243D01*
X162147429Y-76310292D01*
X162148444Y-76313414D01*
X162244951Y-76502820D01*
X162369890Y-76674786D01*
X162520213Y-76825109D01*
X162692182Y-76950050D01*
X162700946Y-76954516D01*
X162751742Y-77002491D01*
X162768536Y-77070312D01*
X162745998Y-77136447D01*
X162700946Y-77175484D01*
X162692182Y-77179949D01*
X162520213Y-77304890D01*
X162369890Y-77455213D01*
X162244951Y-77627179D01*
X162148444Y-77816585D01*
X162082753Y-78018760D01*
X162049500Y-78228713D01*
X162049500Y-78441286D01*
X162073951Y-78595668D01*
X162082754Y-78651243D01*
X162124214Y-78778844D01*
X162148444Y-78853414D01*
X162244951Y-79042820D01*
X162369890Y-79214786D01*
X162520213Y-79365109D01*
X162692182Y-79490050D01*
X162700946Y-79494516D01*
X162751742Y-79542491D01*
X162768536Y-79610312D01*
X162745998Y-79676447D01*
X162700946Y-79715484D01*
X162692182Y-79719949D01*
X162520213Y-79844890D01*
X162369890Y-79995213D01*
X162244951Y-80167179D01*
X162148444Y-80356585D01*
X162082753Y-80558760D01*
X162065176Y-80669737D01*
X162049500Y-80768713D01*
X162049500Y-80981287D01*
X162082754Y-81191243D01*
X162092366Y-81220827D01*
X162148444Y-81393414D01*
X162244951Y-81582820D01*
X162369890Y-81754786D01*
X162520213Y-81905109D01*
X162692182Y-82030050D01*
X162700946Y-82034516D01*
X162751742Y-82082491D01*
X162768536Y-82150312D01*
X162745998Y-82216447D01*
X162700946Y-82255484D01*
X162692182Y-82259949D01*
X162520213Y-82384890D01*
X162369890Y-82535213D01*
X162244951Y-82707179D01*
X162148444Y-82896585D01*
X162082753Y-83098760D01*
X162049500Y-83308713D01*
X162049500Y-83521286D01*
X162082598Y-83730263D01*
X162082754Y-83731243D01*
X162102043Y-83790609D01*
X162148444Y-83933414D01*
X162244951Y-84122820D01*
X162369890Y-84294786D01*
X162520213Y-84445109D01*
X162692182Y-84570050D01*
X162700946Y-84574516D01*
X162751742Y-84622491D01*
X162768536Y-84690312D01*
X162745998Y-84756447D01*
X162700946Y-84795484D01*
X162692182Y-84799949D01*
X162520213Y-84924890D01*
X162369890Y-85075213D01*
X162244951Y-85247179D01*
X162148444Y-85436585D01*
X162082753Y-85638760D01*
X162049500Y-85848713D01*
X162049500Y-86061286D01*
X162082753Y-86271239D01*
X162148444Y-86473414D01*
X162244951Y-86662820D01*
X162369890Y-86834786D01*
X162520213Y-86985109D01*
X162692179Y-87110048D01*
X162692181Y-87110049D01*
X162692184Y-87110051D01*
X162701493Y-87114794D01*
X162752290Y-87162766D01*
X162769087Y-87230587D01*
X162746552Y-87296722D01*
X162701505Y-87335760D01*
X162692446Y-87340376D01*
X162692440Y-87340380D01*
X162638282Y-87379727D01*
X162638282Y-87379728D01*
X163270591Y-88012037D01*
X163207007Y-88029075D01*
X163092993Y-88094901D01*
X162999901Y-88187993D01*
X162934075Y-88302007D01*
X162917037Y-88365591D01*
X162284728Y-87733282D01*
X162284727Y-87733282D01*
X162245380Y-87787439D01*
X162148904Y-87976782D01*
X162083242Y-88178869D01*
X162083242Y-88178872D01*
X162050000Y-88388753D01*
X162050000Y-88601246D01*
X162083242Y-88811127D01*
X162083242Y-88811130D01*
X162148904Y-89013217D01*
X162245375Y-89202550D01*
X162284728Y-89256716D01*
X162917037Y-88624408D01*
X162934075Y-88687993D01*
X162999901Y-88802007D01*
X163092993Y-88895099D01*
X163207007Y-88960925D01*
X163270591Y-88977962D01*
X162669971Y-89578581D01*
X162748711Y-89695895D01*
X162749920Y-89699729D01*
X162752844Y-89702491D01*
X162760343Y-89732778D01*
X162769727Y-89762529D01*
X162768671Y-89766408D01*
X162769638Y-89770312D01*
X162759573Y-89799844D01*
X162751383Y-89829947D01*
X162748397Y-89832640D01*
X162747100Y-89836447D01*
X162702051Y-89875483D01*
X162692440Y-89880380D01*
X162638282Y-89919727D01*
X162638282Y-89919728D01*
X163270591Y-90552037D01*
X163207007Y-90569075D01*
X163092993Y-90634901D01*
X162999901Y-90727993D01*
X162934075Y-90842007D01*
X162917037Y-90905591D01*
X162284728Y-90273282D01*
X162284727Y-90273282D01*
X162245380Y-90327439D01*
X162148904Y-90516782D01*
X162083242Y-90718869D01*
X162083242Y-90718872D01*
X162050000Y-90928753D01*
X162050000Y-91141246D01*
X162083242Y-91351127D01*
X162083242Y-91351130D01*
X162148904Y-91553217D01*
X162245375Y-91742550D01*
X162284728Y-91796716D01*
X162917037Y-91164408D01*
X162934075Y-91227993D01*
X162999901Y-91342007D01*
X163092993Y-91435099D01*
X163207007Y-91500925D01*
X163270590Y-91517962D01*
X162638282Y-92150269D01*
X162638282Y-92150270D01*
X162692452Y-92189626D01*
X162692451Y-92189626D01*
X162701495Y-92194234D01*
X162752292Y-92242208D01*
X162769087Y-92310029D01*
X162746550Y-92376164D01*
X162701499Y-92415202D01*
X162692182Y-92419949D01*
X162520213Y-92544890D01*
X162369890Y-92695213D01*
X162244951Y-92867179D01*
X162148444Y-93056585D01*
X162082753Y-93258760D01*
X162049500Y-93468713D01*
X162049500Y-93681287D01*
X162082754Y-93891243D01*
X162084377Y-93896239D01*
X162148444Y-94093414D01*
X162244951Y-94282820D01*
X162369890Y-94454786D01*
X162520213Y-94605109D01*
X162692179Y-94730048D01*
X162692181Y-94730049D01*
X162692184Y-94730051D01*
X162701493Y-94734794D01*
X162752290Y-94782766D01*
X162769087Y-94850587D01*
X162746552Y-94916722D01*
X162701505Y-94955760D01*
X162692446Y-94960376D01*
X162692440Y-94960380D01*
X162638282Y-94999727D01*
X162638282Y-94999728D01*
X163270591Y-95632037D01*
X163207007Y-95649075D01*
X163092993Y-95714901D01*
X162999901Y-95807993D01*
X162934075Y-95922007D01*
X162917037Y-95985591D01*
X162284728Y-95353282D01*
X162284727Y-95353282D01*
X162245380Y-95407439D01*
X162148904Y-95596782D01*
X162083242Y-95798869D01*
X162083242Y-95798872D01*
X162050000Y-96008753D01*
X162050000Y-96221246D01*
X162083242Y-96431127D01*
X162083242Y-96431130D01*
X162148904Y-96633217D01*
X162245375Y-96822550D01*
X162284728Y-96876716D01*
X162917037Y-96244408D01*
X162934075Y-96307993D01*
X162999901Y-96422007D01*
X163092993Y-96515099D01*
X163207007Y-96580925D01*
X163270591Y-96597962D01*
X162669971Y-97198581D01*
X162748711Y-97315895D01*
X162749920Y-97319729D01*
X162752844Y-97322491D01*
X162760343Y-97352778D01*
X162769727Y-97382529D01*
X162768671Y-97386408D01*
X162769638Y-97390312D01*
X162759573Y-97419844D01*
X162751383Y-97449947D01*
X162748397Y-97452640D01*
X162747100Y-97456447D01*
X162702051Y-97495483D01*
X162692440Y-97500380D01*
X162638282Y-97539727D01*
X162638282Y-97539728D01*
X163270591Y-98172037D01*
X163207007Y-98189075D01*
X163092993Y-98254901D01*
X162999901Y-98347993D01*
X162934075Y-98462007D01*
X162917037Y-98525591D01*
X162284728Y-97893282D01*
X162284727Y-97893282D01*
X162245380Y-97947439D01*
X162148904Y-98136782D01*
X162083242Y-98338869D01*
X162083242Y-98338872D01*
X162050000Y-98548753D01*
X162050000Y-98761246D01*
X162083242Y-98971127D01*
X162083242Y-98971130D01*
X162148904Y-99173217D01*
X162245375Y-99362550D01*
X162284728Y-99416716D01*
X162917037Y-98784408D01*
X162934075Y-98847993D01*
X162999901Y-98962007D01*
X163092993Y-99055099D01*
X163207007Y-99120925D01*
X163270590Y-99137962D01*
X162638282Y-99770269D01*
X162638282Y-99770270D01*
X162692452Y-99809626D01*
X162692451Y-99809626D01*
X162701495Y-99814234D01*
X162752292Y-99862208D01*
X162769087Y-99930029D01*
X162746550Y-99996164D01*
X162701499Y-100035202D01*
X162692182Y-100039949D01*
X162520213Y-100164890D01*
X162369890Y-100315213D01*
X162244951Y-100487179D01*
X162148444Y-100676585D01*
X162082753Y-100878760D01*
X162068857Y-100966498D01*
X162049500Y-101088713D01*
X162049500Y-101301287D01*
X162052647Y-101321155D01*
X162077622Y-101478846D01*
X162082754Y-101511243D01*
X162147429Y-101710292D01*
X162148444Y-101713414D01*
X162244951Y-101902820D01*
X162369890Y-102074786D01*
X162520213Y-102225109D01*
X162692182Y-102350050D01*
X162700946Y-102354516D01*
X162751742Y-102402491D01*
X162768536Y-102470312D01*
X162745998Y-102536447D01*
X162700946Y-102575484D01*
X162692182Y-102579949D01*
X162520213Y-102704890D01*
X162369890Y-102855213D01*
X162244951Y-103027179D01*
X162148444Y-103216585D01*
X162082753Y-103418760D01*
X162049500Y-103628713D01*
X162049500Y-103841287D01*
X162082754Y-104051243D01*
X162131250Y-104200499D01*
X162148444Y-104253414D01*
X162244951Y-104442820D01*
X162369890Y-104614786D01*
X162520213Y-104765109D01*
X162692182Y-104890050D01*
X162700946Y-104894516D01*
X162751742Y-104942491D01*
X162768536Y-105010312D01*
X162745998Y-105076447D01*
X162700946Y-105115484D01*
X162692182Y-105119949D01*
X162520213Y-105244890D01*
X162369890Y-105395213D01*
X162244951Y-105567179D01*
X162148444Y-105756585D01*
X162082753Y-105958760D01*
X162049500Y-106168713D01*
X162049500Y-106381287D01*
X162059534Y-106444644D01*
X162082510Y-106589707D01*
X162082754Y-106591243D01*
X162124854Y-106720814D01*
X162148444Y-106793414D01*
X162244951Y-106982820D01*
X162369890Y-107154786D01*
X162520213Y-107305109D01*
X162692182Y-107430050D01*
X162700946Y-107434516D01*
X162751742Y-107482491D01*
X162768536Y-107550312D01*
X162745998Y-107616447D01*
X162700946Y-107655484D01*
X162692182Y-107659949D01*
X162520213Y-107784890D01*
X162369890Y-107935213D01*
X162244951Y-108107179D01*
X162148444Y-108296585D01*
X162082753Y-108498760D01*
X162063541Y-108620060D01*
X162049500Y-108708713D01*
X162049500Y-108921287D01*
X162082754Y-109131243D01*
X162111969Y-109221158D01*
X162148444Y-109333414D01*
X162244951Y-109522820D01*
X162369890Y-109694786D01*
X162520213Y-109845109D01*
X162692182Y-109970050D01*
X162700946Y-109974516D01*
X162751742Y-110022491D01*
X162768536Y-110090312D01*
X162745998Y-110156447D01*
X162700946Y-110195484D01*
X162692182Y-110199949D01*
X162520213Y-110324890D01*
X162369890Y-110475213D01*
X162244951Y-110647179D01*
X162148444Y-110836585D01*
X162082753Y-111038760D01*
X162080499Y-111052993D01*
X162049500Y-111248713D01*
X162049500Y-111461287D01*
X162082754Y-111671243D01*
X162144085Y-111860000D01*
X162148444Y-111873414D01*
X162244951Y-112062820D01*
X162369890Y-112234786D01*
X162520213Y-112385109D01*
X162692182Y-112510050D01*
X162700946Y-112514516D01*
X162751742Y-112562491D01*
X162768536Y-112630312D01*
X162745998Y-112696447D01*
X162700946Y-112735484D01*
X162692182Y-112739949D01*
X162520213Y-112864890D01*
X162369890Y-113015213D01*
X162244951Y-113187179D01*
X162148444Y-113376585D01*
X162082753Y-113578760D01*
X162049500Y-113788713D01*
X162049500Y-114001286D01*
X162064405Y-114095396D01*
X162082754Y-114211243D01*
X162133201Y-114366503D01*
X162148444Y-114413414D01*
X162244951Y-114602820D01*
X162369890Y-114774786D01*
X162520213Y-114925109D01*
X162692179Y-115050048D01*
X162692181Y-115050049D01*
X162692184Y-115050051D01*
X162701493Y-115054794D01*
X162752290Y-115102766D01*
X162769087Y-115170587D01*
X162746552Y-115236722D01*
X162701505Y-115275760D01*
X162692446Y-115280376D01*
X162692440Y-115280380D01*
X162638282Y-115319727D01*
X162638282Y-115319728D01*
X163270591Y-115952037D01*
X163207007Y-115969075D01*
X163092993Y-116034901D01*
X162999901Y-116127993D01*
X162934075Y-116242007D01*
X162917037Y-116305591D01*
X162284728Y-115673282D01*
X162284727Y-115673282D01*
X162245380Y-115727439D01*
X162148904Y-115916782D01*
X162083242Y-116118869D01*
X162083242Y-116118872D01*
X162050000Y-116328753D01*
X162050000Y-116541246D01*
X162083242Y-116751127D01*
X162083242Y-116751130D01*
X162148904Y-116953217D01*
X162245375Y-117142550D01*
X162284728Y-117196716D01*
X162917037Y-116564408D01*
X162934075Y-116627993D01*
X162999901Y-116742007D01*
X163092993Y-116835099D01*
X163207007Y-116900925D01*
X163270590Y-116917962D01*
X162638282Y-117550269D01*
X162638282Y-117550270D01*
X162692449Y-117589624D01*
X162881782Y-117686095D01*
X163083870Y-117751757D01*
X163293754Y-117785000D01*
X163506246Y-117785000D01*
X163716127Y-117751757D01*
X163716130Y-117751757D01*
X163918217Y-117686095D01*
X164107554Y-117589622D01*
X164161716Y-117550270D01*
X164161717Y-117550270D01*
X163529408Y-116917962D01*
X163592993Y-116900925D01*
X163707007Y-116835099D01*
X163800099Y-116742007D01*
X163865925Y-116627993D01*
X163882962Y-116564408D01*
X164515270Y-117196717D01*
X164515270Y-117196716D01*
X164554622Y-117142554D01*
X164651095Y-116953217D01*
X164716757Y-116751130D01*
X164716757Y-116751127D01*
X164750000Y-116541246D01*
X164750000Y-116328753D01*
X164716757Y-116118872D01*
X164716757Y-116118869D01*
X164651095Y-115916782D01*
X164554624Y-115727449D01*
X164515270Y-115673282D01*
X164515269Y-115673282D01*
X163882962Y-116305590D01*
X163865925Y-116242007D01*
X163800099Y-116127993D01*
X163707007Y-116034901D01*
X163592993Y-115969075D01*
X163529409Y-115952037D01*
X164161716Y-115319728D01*
X164107547Y-115280373D01*
X164107547Y-115280372D01*
X164098500Y-115275763D01*
X164047706Y-115227788D01*
X164030912Y-115159966D01*
X164053451Y-115093832D01*
X164098508Y-115054793D01*
X164107816Y-115050051D01*
X164187007Y-114992515D01*
X164279786Y-114925109D01*
X164279788Y-114925106D01*
X164279792Y-114925104D01*
X164430104Y-114774792D01*
X164430106Y-114774788D01*
X164430109Y-114774786D01*
X164555048Y-114602820D01*
X164555047Y-114602820D01*
X164555051Y-114602816D01*
X164651557Y-114413412D01*
X164717246Y-114211243D01*
X164750500Y-114001287D01*
X164750500Y-113788713D01*
X164717246Y-113578757D01*
X164651557Y-113376588D01*
X164555051Y-113187184D01*
X164555049Y-113187181D01*
X164555048Y-113187179D01*
X164430109Y-113015213D01*
X164279786Y-112864890D01*
X164107820Y-112739951D01*
X164107115Y-112739591D01*
X164099054Y-112735485D01*
X164048259Y-112687512D01*
X164031463Y-112619692D01*
X164053999Y-112553556D01*
X164099054Y-112514515D01*
X164107816Y-112510051D01*
X164155690Y-112475269D01*
X164279786Y-112385109D01*
X164279788Y-112385106D01*
X164279792Y-112385104D01*
X164430104Y-112234792D01*
X164430106Y-112234788D01*
X164430109Y-112234786D01*
X164551609Y-112067554D01*
X164555051Y-112062816D01*
X164651557Y-111873412D01*
X164717246Y-111671243D01*
X164750500Y-111461287D01*
X164750500Y-111248713D01*
X164717246Y-111038757D01*
X164651557Y-110836588D01*
X164555051Y-110647184D01*
X164555049Y-110647181D01*
X164555048Y-110647179D01*
X164430109Y-110475213D01*
X164279786Y-110324890D01*
X164107820Y-110199951D01*
X164107115Y-110199591D01*
X164099054Y-110195485D01*
X164048259Y-110147512D01*
X164031463Y-110079692D01*
X164053999Y-110013556D01*
X164099054Y-109974515D01*
X164107816Y-109970051D01*
X164129789Y-109954086D01*
X164279786Y-109845109D01*
X164279788Y-109845106D01*
X164279792Y-109845104D01*
X164430104Y-109694792D01*
X164430106Y-109694788D01*
X164430109Y-109694786D01*
X164555048Y-109522820D01*
X164555047Y-109522820D01*
X164555051Y-109522816D01*
X164651557Y-109333412D01*
X164717246Y-109131243D01*
X164750500Y-108921287D01*
X164750500Y-108708713D01*
X164717246Y-108498757D01*
X164651557Y-108296588D01*
X164555051Y-108107184D01*
X164555049Y-108107181D01*
X164555048Y-108107179D01*
X164430109Y-107935213D01*
X164279786Y-107784890D01*
X164107820Y-107659951D01*
X164107115Y-107659591D01*
X164099054Y-107655485D01*
X164048259Y-107607512D01*
X164031463Y-107539692D01*
X164053999Y-107473556D01*
X164099054Y-107434515D01*
X164107816Y-107430051D01*
X164240707Y-107333501D01*
X164279786Y-107305109D01*
X164279788Y-107305106D01*
X164279792Y-107305104D01*
X164430104Y-107154792D01*
X164430106Y-107154788D01*
X164430109Y-107154786D01*
X164555048Y-106982820D01*
X164555047Y-106982820D01*
X164555051Y-106982816D01*
X164651557Y-106793412D01*
X164717246Y-106591243D01*
X164750500Y-106381287D01*
X164750500Y-106168713D01*
X164717246Y-105958757D01*
X164651557Y-105756588D01*
X164555051Y-105567184D01*
X164555049Y-105567181D01*
X164555048Y-105567179D01*
X164430109Y-105395213D01*
X164279786Y-105244890D01*
X164107820Y-105119951D01*
X164107115Y-105119591D01*
X164099054Y-105115485D01*
X164048259Y-105067512D01*
X164031463Y-104999692D01*
X164053999Y-104933556D01*
X164099054Y-104894515D01*
X164107816Y-104890051D01*
X164129789Y-104874086D01*
X164279786Y-104765109D01*
X164279788Y-104765106D01*
X164279792Y-104765104D01*
X164430104Y-104614792D01*
X164430106Y-104614788D01*
X164430109Y-104614786D01*
X164555048Y-104442820D01*
X164555047Y-104442820D01*
X164555051Y-104442816D01*
X164651557Y-104253412D01*
X164717246Y-104051243D01*
X164750500Y-103841287D01*
X164750500Y-103628713D01*
X164717246Y-103418757D01*
X164651557Y-103216588D01*
X164555051Y-103027184D01*
X164555049Y-103027181D01*
X164555048Y-103027179D01*
X164430109Y-102855213D01*
X164279786Y-102704890D01*
X164107820Y-102579951D01*
X164107115Y-102579591D01*
X164099054Y-102575485D01*
X164048259Y-102527512D01*
X164031463Y-102459692D01*
X164053999Y-102393556D01*
X164099054Y-102354515D01*
X164107816Y-102350051D01*
X164129789Y-102334086D01*
X164279786Y-102225109D01*
X164279788Y-102225106D01*
X164279792Y-102225104D01*
X164430104Y-102074792D01*
X164430106Y-102074788D01*
X164430109Y-102074786D01*
X164555048Y-101902820D01*
X164555047Y-101902820D01*
X164555051Y-101902816D01*
X164651557Y-101713412D01*
X164717246Y-101511243D01*
X164750500Y-101301287D01*
X164750500Y-101088713D01*
X164717246Y-100878757D01*
X164651557Y-100676588D01*
X164555051Y-100487184D01*
X164555049Y-100487181D01*
X164555048Y-100487179D01*
X164430109Y-100315213D01*
X164279786Y-100164890D01*
X164107817Y-100039949D01*
X164098504Y-100035204D01*
X164047707Y-99987230D01*
X164030912Y-99919409D01*
X164053449Y-99853274D01*
X164098507Y-99814232D01*
X164107555Y-99809622D01*
X164161716Y-99770270D01*
X164161717Y-99770270D01*
X163529408Y-99137962D01*
X163592993Y-99120925D01*
X163707007Y-99055099D01*
X163800099Y-98962007D01*
X163865925Y-98847993D01*
X163882962Y-98784408D01*
X164515270Y-99416717D01*
X164515270Y-99416716D01*
X164554622Y-99362554D01*
X164651095Y-99173217D01*
X164716757Y-98971130D01*
X164716757Y-98971127D01*
X164750000Y-98761246D01*
X164750000Y-98548753D01*
X164716757Y-98338872D01*
X164716757Y-98338869D01*
X164651095Y-98136782D01*
X164554624Y-97947449D01*
X164515270Y-97893282D01*
X164515269Y-97893282D01*
X163882962Y-98525590D01*
X163865925Y-98462007D01*
X163800099Y-98347993D01*
X163707007Y-98254901D01*
X163592993Y-98189075D01*
X163529409Y-98172037D01*
X164161716Y-97539728D01*
X164107550Y-97500375D01*
X164097954Y-97495486D01*
X164047157Y-97447512D01*
X164030361Y-97379692D01*
X164052897Y-97313556D01*
X164097954Y-97274514D01*
X164107554Y-97269622D01*
X164161716Y-97230270D01*
X164161717Y-97230270D01*
X163529408Y-96597962D01*
X163592993Y-96580925D01*
X163707007Y-96515099D01*
X163800099Y-96422007D01*
X163865925Y-96307993D01*
X163882962Y-96244408D01*
X164515270Y-96876717D01*
X164515270Y-96876716D01*
X164554622Y-96822554D01*
X164651095Y-96633217D01*
X164716757Y-96431130D01*
X164716757Y-96431127D01*
X164750000Y-96221246D01*
X164750000Y-96008753D01*
X164716757Y-95798872D01*
X164716757Y-95798869D01*
X164651094Y-95596780D01*
X164638143Y-95571362D01*
X164638142Y-95571361D01*
X164612560Y-95521153D01*
X179099500Y-95521153D01*
X179099500Y-95678846D01*
X179130261Y-95833489D01*
X179130264Y-95833501D01*
X179190602Y-95979172D01*
X179190609Y-95979185D01*
X179278210Y-96110288D01*
X179278213Y-96110292D01*
X179389707Y-96221786D01*
X179389711Y-96221789D01*
X179520814Y-96309390D01*
X179520827Y-96309397D01*
X179620060Y-96350500D01*
X179666503Y-96369737D01*
X179821153Y-96400499D01*
X179821156Y-96400500D01*
X179821158Y-96400500D01*
X179978844Y-96400500D01*
X179978845Y-96400499D01*
X180055152Y-96385320D01*
X180133488Y-96369739D01*
X180133489Y-96369738D01*
X180133497Y-96369737D01*
X180157155Y-96359937D01*
X180204604Y-96350500D01*
X183737770Y-96350500D01*
X183804809Y-96370185D01*
X183825451Y-96386819D01*
X184513181Y-97074548D01*
X184546666Y-97135871D01*
X184549500Y-97162229D01*
X184549500Y-101095396D01*
X184540062Y-101142844D01*
X184531913Y-101162520D01*
X184530262Y-101166506D01*
X184530260Y-101166511D01*
X184499500Y-101321153D01*
X184499500Y-101478846D01*
X184530261Y-101633489D01*
X184530263Y-101633497D01*
X184540061Y-101657151D01*
X184549500Y-101704604D01*
X184549500Y-108595396D01*
X184540062Y-108642844D01*
X184530263Y-108666503D01*
X184530262Y-108666506D01*
X184530260Y-108666511D01*
X184499500Y-108821153D01*
X184499500Y-108978846D01*
X184530261Y-109133489D01*
X184530263Y-109133497D01*
X184540061Y-109157151D01*
X184549500Y-109204604D01*
X184549500Y-114095396D01*
X184540062Y-114142844D01*
X184530263Y-114166503D01*
X184530262Y-114166506D01*
X184530260Y-114166511D01*
X184499500Y-114321153D01*
X184499500Y-114478846D01*
X184530261Y-114633489D01*
X184530264Y-114633501D01*
X184590602Y-114779172D01*
X184590609Y-114779185D01*
X184678210Y-114910288D01*
X184678213Y-114910292D01*
X184789707Y-115021786D01*
X184789711Y-115021789D01*
X184920814Y-115109390D01*
X184920827Y-115109397D01*
X185066498Y-115169735D01*
X185066503Y-115169737D01*
X185221153Y-115200499D01*
X185221156Y-115200500D01*
X185221158Y-115200500D01*
X185378844Y-115200500D01*
X185378845Y-115200499D01*
X185533497Y-115169737D01*
X185679179Y-115109394D01*
X185810289Y-115021789D01*
X185921789Y-114910289D01*
X186009394Y-114779179D01*
X186069737Y-114633497D01*
X186092083Y-114521158D01*
X186092084Y-114521153D01*
X188899500Y-114521153D01*
X188899500Y-114678846D01*
X188930261Y-114833489D01*
X188930264Y-114833501D01*
X188990602Y-114979172D01*
X188990609Y-114979185D01*
X189078210Y-115110288D01*
X189078213Y-115110292D01*
X189189707Y-115221786D01*
X189189711Y-115221789D01*
X189320814Y-115309390D01*
X189320827Y-115309397D01*
X189466498Y-115369735D01*
X189466503Y-115369737D01*
X189621153Y-115400499D01*
X189621156Y-115400500D01*
X189621158Y-115400500D01*
X189778844Y-115400500D01*
X189778845Y-115400499D01*
X189933497Y-115369737D01*
X190079179Y-115309394D01*
X190210289Y-115221789D01*
X190321789Y-115110289D01*
X190409394Y-114979179D01*
X190469737Y-114833497D01*
X190500500Y-114678842D01*
X190500500Y-114521158D01*
X190500500Y-114521155D01*
X190500499Y-114521153D01*
X190494476Y-114490874D01*
X190469737Y-114366503D01*
X190450955Y-114321158D01*
X190409397Y-114220827D01*
X190409390Y-114220814D01*
X190321789Y-114089711D01*
X190321786Y-114089707D01*
X190210292Y-113978213D01*
X190210288Y-113978210D01*
X190079185Y-113890609D01*
X190079172Y-113890602D01*
X189933501Y-113830264D01*
X189933489Y-113830261D01*
X189778845Y-113799500D01*
X189778842Y-113799500D01*
X189621158Y-113799500D01*
X189621155Y-113799500D01*
X189466510Y-113830261D01*
X189466498Y-113830264D01*
X189320827Y-113890602D01*
X189320814Y-113890609D01*
X189189711Y-113978210D01*
X189189707Y-113978213D01*
X189078213Y-114089707D01*
X189078210Y-114089711D01*
X188990609Y-114220814D01*
X188990602Y-114220827D01*
X188930264Y-114366498D01*
X188930261Y-114366510D01*
X188899500Y-114521153D01*
X186092084Y-114521153D01*
X186098107Y-114490875D01*
X186098107Y-114490874D01*
X186100500Y-114478844D01*
X186100500Y-114321155D01*
X186100499Y-114321153D01*
X186069739Y-114166511D01*
X186069738Y-114166508D01*
X186069737Y-114166503D01*
X186059937Y-114142844D01*
X186050500Y-114095396D01*
X186050500Y-109221153D01*
X189299500Y-109221153D01*
X189299500Y-109378846D01*
X189330261Y-109533489D01*
X189330264Y-109533501D01*
X189390602Y-109679172D01*
X189390609Y-109679185D01*
X189478210Y-109810288D01*
X189478213Y-109810292D01*
X189589707Y-109921786D01*
X189589711Y-109921789D01*
X189720814Y-110009390D01*
X189720827Y-110009397D01*
X189858826Y-110066557D01*
X189866503Y-110069737D01*
X189969940Y-110090312D01*
X190021153Y-110100499D01*
X190021156Y-110100500D01*
X190021158Y-110100500D01*
X190178844Y-110100500D01*
X190178845Y-110100499D01*
X190333497Y-110069737D01*
X190447560Y-110022491D01*
X190479172Y-110009397D01*
X190479172Y-110009396D01*
X190479179Y-110009394D01*
X190610289Y-109921789D01*
X190721789Y-109810289D01*
X190809394Y-109679179D01*
X190869737Y-109533497D01*
X190900500Y-109378842D01*
X190900500Y-109221158D01*
X190900500Y-109221155D01*
X190900499Y-109221153D01*
X190883061Y-109133489D01*
X190869737Y-109066503D01*
X190833427Y-108978842D01*
X190809397Y-108920827D01*
X190809390Y-108920814D01*
X190721789Y-108789711D01*
X190721786Y-108789707D01*
X190610292Y-108678213D01*
X190610288Y-108678210D01*
X190479185Y-108590609D01*
X190479172Y-108590602D01*
X190333501Y-108530264D01*
X190333489Y-108530261D01*
X190178845Y-108499500D01*
X190178842Y-108499500D01*
X190021158Y-108499500D01*
X190021155Y-108499500D01*
X189866510Y-108530261D01*
X189866498Y-108530264D01*
X189720827Y-108590602D01*
X189720814Y-108590609D01*
X189589711Y-108678210D01*
X189589707Y-108678213D01*
X189478213Y-108789707D01*
X189478210Y-108789711D01*
X189390609Y-108920814D01*
X189390602Y-108920827D01*
X189330264Y-109066498D01*
X189330261Y-109066510D01*
X189299500Y-109221153D01*
X186050500Y-109221153D01*
X186050500Y-109204604D01*
X186059939Y-109157151D01*
X186069737Y-109133497D01*
X186100500Y-108978842D01*
X186100500Y-108821158D01*
X186100500Y-108821155D01*
X186100499Y-108821153D01*
X186069739Y-108666511D01*
X186069738Y-108666508D01*
X186069737Y-108666503D01*
X186059937Y-108642844D01*
X186050500Y-108595396D01*
X186050500Y-107021153D01*
X188799500Y-107021153D01*
X188799500Y-107178846D01*
X188830261Y-107333489D01*
X188830264Y-107333501D01*
X188890602Y-107479172D01*
X188890609Y-107479185D01*
X188978210Y-107610288D01*
X188978213Y-107610292D01*
X189089707Y-107721786D01*
X189089711Y-107721789D01*
X189220814Y-107809390D01*
X189220827Y-107809397D01*
X189366498Y-107869735D01*
X189366503Y-107869737D01*
X189521153Y-107900499D01*
X189521156Y-107900500D01*
X189521158Y-107900500D01*
X189678844Y-107900500D01*
X189678845Y-107900499D01*
X189833497Y-107869737D01*
X189979179Y-107809394D01*
X190110289Y-107721789D01*
X190221789Y-107610289D01*
X190309394Y-107479179D01*
X190369737Y-107333497D01*
X190400500Y-107178842D01*
X190400500Y-107021158D01*
X190400500Y-107021155D01*
X190400499Y-107021153D01*
X190369738Y-106866510D01*
X190369737Y-106866503D01*
X190339462Y-106793412D01*
X190309397Y-106720827D01*
X190309390Y-106720814D01*
X190221789Y-106589711D01*
X190221786Y-106589707D01*
X190110292Y-106478213D01*
X190110288Y-106478210D01*
X189979185Y-106390609D01*
X189979172Y-106390602D01*
X189833501Y-106330264D01*
X189833489Y-106330261D01*
X189678845Y-106299500D01*
X189678842Y-106299500D01*
X189521158Y-106299500D01*
X189521155Y-106299500D01*
X189366510Y-106330261D01*
X189366498Y-106330264D01*
X189220827Y-106390602D01*
X189220814Y-106390609D01*
X189089711Y-106478210D01*
X189089707Y-106478213D01*
X188978213Y-106589707D01*
X188978210Y-106589711D01*
X188890609Y-106720814D01*
X188890602Y-106720827D01*
X188830264Y-106866498D01*
X188830261Y-106866510D01*
X188799500Y-107021153D01*
X186050500Y-107021153D01*
X186050500Y-103321153D01*
X188399500Y-103321153D01*
X188399500Y-103478846D01*
X188430261Y-103633489D01*
X188430264Y-103633501D01*
X188490602Y-103779172D01*
X188490609Y-103779185D01*
X188578210Y-103910288D01*
X188578213Y-103910292D01*
X188689707Y-104021786D01*
X188689711Y-104021789D01*
X188820814Y-104109390D01*
X188820827Y-104109397D01*
X188966498Y-104169735D01*
X188966503Y-104169737D01*
X189121153Y-104200499D01*
X189121156Y-104200500D01*
X189121158Y-104200500D01*
X189278844Y-104200500D01*
X189278845Y-104200499D01*
X189433497Y-104169737D01*
X189579179Y-104109394D01*
X189710289Y-104021789D01*
X189821789Y-103910289D01*
X189909394Y-103779179D01*
X189969737Y-103633497D01*
X190000500Y-103478842D01*
X190000500Y-103321158D01*
X190000500Y-103321155D01*
X190000499Y-103321153D01*
X189980694Y-103221588D01*
X189969737Y-103166503D01*
X189912028Y-103027179D01*
X189909397Y-103020827D01*
X189909390Y-103020814D01*
X189821789Y-102889711D01*
X189821786Y-102889707D01*
X189710292Y-102778213D01*
X189710288Y-102778210D01*
X189579185Y-102690609D01*
X189579172Y-102690602D01*
X189433501Y-102630264D01*
X189433489Y-102630261D01*
X189278845Y-102599500D01*
X189278842Y-102599500D01*
X189121158Y-102599500D01*
X189121155Y-102599500D01*
X188966510Y-102630261D01*
X188966498Y-102630264D01*
X188820827Y-102690602D01*
X188820814Y-102690609D01*
X188689711Y-102778210D01*
X188689707Y-102778213D01*
X188578213Y-102889707D01*
X188578210Y-102889711D01*
X188490609Y-103020814D01*
X188490602Y-103020827D01*
X188430264Y-103166498D01*
X188430261Y-103166510D01*
X188399500Y-103321153D01*
X186050500Y-103321153D01*
X186050500Y-101704604D01*
X186059939Y-101657151D01*
X186069737Y-101633497D01*
X186100500Y-101478842D01*
X186100500Y-101321158D01*
X186100500Y-101321155D01*
X186100499Y-101321153D01*
X186069739Y-101166511D01*
X186069737Y-101166506D01*
X186069737Y-101166503D01*
X186059937Y-101142845D01*
X186055623Y-101121153D01*
X188999500Y-101121153D01*
X188999500Y-101278846D01*
X189030261Y-101433489D01*
X189030264Y-101433501D01*
X189090602Y-101579172D01*
X189090609Y-101579185D01*
X189178210Y-101710288D01*
X189178213Y-101710292D01*
X189289707Y-101821786D01*
X189289711Y-101821789D01*
X189420814Y-101909390D01*
X189420827Y-101909397D01*
X189566498Y-101969735D01*
X189566503Y-101969737D01*
X189721153Y-102000499D01*
X189721156Y-102000500D01*
X189721158Y-102000500D01*
X189878844Y-102000500D01*
X189878845Y-102000499D01*
X190033497Y-101969737D01*
X190179179Y-101909394D01*
X190310289Y-101821789D01*
X190421789Y-101710289D01*
X190509394Y-101579179D01*
X190569737Y-101433497D01*
X190600500Y-101278842D01*
X190600500Y-101121158D01*
X190600500Y-101121155D01*
X190600499Y-101121153D01*
X190569738Y-100966510D01*
X190569737Y-100966503D01*
X190533392Y-100878757D01*
X190509397Y-100820827D01*
X190509390Y-100820814D01*
X190421789Y-100689711D01*
X190421786Y-100689707D01*
X190310292Y-100578213D01*
X190310288Y-100578210D01*
X190179185Y-100490609D01*
X190179172Y-100490602D01*
X190033501Y-100430264D01*
X190033489Y-100430261D01*
X189878845Y-100399500D01*
X189878842Y-100399500D01*
X189721158Y-100399500D01*
X189721155Y-100399500D01*
X189566510Y-100430261D01*
X189566498Y-100430264D01*
X189420827Y-100490602D01*
X189420814Y-100490609D01*
X189289711Y-100578210D01*
X189289707Y-100578213D01*
X189178213Y-100689707D01*
X189178210Y-100689711D01*
X189090609Y-100820814D01*
X189090602Y-100820827D01*
X189030264Y-100966498D01*
X189030261Y-100966510D01*
X188999500Y-101121153D01*
X186055623Y-101121153D01*
X186050500Y-101095396D01*
X186050500Y-96726079D01*
X186021659Y-96581092D01*
X186021658Y-96581091D01*
X186021658Y-96581087D01*
X185994325Y-96515099D01*
X185965087Y-96444511D01*
X185965080Y-96444498D01*
X185882952Y-96321585D01*
X185869360Y-96307993D01*
X185778416Y-96217049D01*
X185483374Y-95922007D01*
X184578421Y-95017052D01*
X184578418Y-95017049D01*
X184500443Y-94964949D01*
X184455495Y-94934916D01*
X184455492Y-94934914D01*
X184455491Y-94934914D01*
X184318917Y-94878343D01*
X184318907Y-94878340D01*
X184173920Y-94849500D01*
X184173918Y-94849500D01*
X180204604Y-94849500D01*
X180157155Y-94840062D01*
X180133497Y-94830263D01*
X180133493Y-94830262D01*
X180133488Y-94830260D01*
X179978845Y-94799500D01*
X179978842Y-94799500D01*
X179821158Y-94799500D01*
X179821155Y-94799500D01*
X179666510Y-94830261D01*
X179666498Y-94830264D01*
X179520827Y-94890602D01*
X179520814Y-94890609D01*
X179389711Y-94978210D01*
X179389707Y-94978213D01*
X179278213Y-95089707D01*
X179278210Y-95089711D01*
X179190609Y-95220814D01*
X179190602Y-95220827D01*
X179130264Y-95366498D01*
X179130261Y-95366510D01*
X179099500Y-95521153D01*
X164612560Y-95521153D01*
X164554624Y-95407449D01*
X164515270Y-95353282D01*
X164515269Y-95353282D01*
X163882962Y-95985590D01*
X163865925Y-95922007D01*
X163800099Y-95807993D01*
X163707007Y-95714901D01*
X163592993Y-95649075D01*
X163529409Y-95632037D01*
X164161716Y-94999728D01*
X164107547Y-94960373D01*
X164107547Y-94960372D01*
X164098500Y-94955763D01*
X164047706Y-94907788D01*
X164030912Y-94839966D01*
X164053451Y-94773832D01*
X164098508Y-94734793D01*
X164107816Y-94730051D01*
X164187007Y-94672515D01*
X164279786Y-94605109D01*
X164279788Y-94605106D01*
X164279792Y-94605104D01*
X164430104Y-94454792D01*
X164430106Y-94454788D01*
X164430109Y-94454786D01*
X164555048Y-94282820D01*
X164555047Y-94282820D01*
X164555051Y-94282816D01*
X164651557Y-94093412D01*
X164717246Y-93891243D01*
X164750500Y-93681287D01*
X164750500Y-93468713D01*
X164717246Y-93258757D01*
X164651557Y-93056588D01*
X164555051Y-92867184D01*
X164555049Y-92867181D01*
X164555048Y-92867179D01*
X164430109Y-92695213D01*
X164279786Y-92544890D01*
X164107817Y-92419949D01*
X164098504Y-92415204D01*
X164047707Y-92367230D01*
X164030912Y-92299409D01*
X164053449Y-92233274D01*
X164098507Y-92194232D01*
X164107555Y-92189622D01*
X164161716Y-92150270D01*
X164161717Y-92150270D01*
X163529408Y-91517962D01*
X163592993Y-91500925D01*
X163707007Y-91435099D01*
X163800099Y-91342007D01*
X163865925Y-91227993D01*
X163882962Y-91164408D01*
X164515270Y-91796717D01*
X164515270Y-91796716D01*
X164554622Y-91742554D01*
X164651095Y-91553217D01*
X164661514Y-91521153D01*
X166099500Y-91521153D01*
X166099500Y-91678846D01*
X166130261Y-91833489D01*
X166130264Y-91833501D01*
X166190602Y-91979172D01*
X166190609Y-91979185D01*
X166278210Y-92110288D01*
X166278213Y-92110292D01*
X166389707Y-92221786D01*
X166389711Y-92221789D01*
X166520814Y-92309390D01*
X166520827Y-92309397D01*
X166666498Y-92369735D01*
X166666503Y-92369737D01*
X166821153Y-92400499D01*
X166821156Y-92400500D01*
X166821158Y-92400500D01*
X166978844Y-92400500D01*
X166978845Y-92400499D01*
X167055152Y-92385320D01*
X167133488Y-92369739D01*
X167133489Y-92369738D01*
X167133497Y-92369737D01*
X167157155Y-92359937D01*
X167204604Y-92350500D01*
X172473920Y-92350500D01*
X172609939Y-92323443D01*
X172618913Y-92321658D01*
X172755495Y-92265084D01*
X172814735Y-92225501D01*
X172878416Y-92182952D01*
X176632952Y-88428415D01*
X176704618Y-88321158D01*
X176704620Y-88321155D01*
X182874500Y-88321155D01*
X182874500Y-88478846D01*
X182905261Y-88633489D01*
X182905264Y-88633501D01*
X182965602Y-88779172D01*
X182965609Y-88779185D01*
X183053210Y-88910288D01*
X183053213Y-88910292D01*
X183164707Y-89021786D01*
X183164711Y-89021789D01*
X183295814Y-89109390D01*
X183295827Y-89109397D01*
X183441498Y-89169735D01*
X183441503Y-89169737D01*
X183596153Y-89200499D01*
X183596156Y-89200500D01*
X183596158Y-89200500D01*
X183753844Y-89200500D01*
X183753845Y-89200499D01*
X183908497Y-89169737D01*
X184054179Y-89109394D01*
X184185289Y-89021789D01*
X184296789Y-88910289D01*
X184384394Y-88779179D01*
X184444737Y-88633497D01*
X184475500Y-88478842D01*
X184475500Y-88321158D01*
X184475500Y-88321155D01*
X184475499Y-88321149D01*
X184451499Y-88200499D01*
X184444737Y-88166503D01*
X184387813Y-88029075D01*
X184384397Y-88020827D01*
X184384390Y-88020814D01*
X184296789Y-87889711D01*
X184296786Y-87889707D01*
X184185292Y-87778213D01*
X184185288Y-87778210D01*
X184071095Y-87701908D01*
X184054183Y-87690608D01*
X184054172Y-87690602D01*
X183908501Y-87630264D01*
X183908489Y-87630261D01*
X183767092Y-87602135D01*
X192549500Y-87602135D01*
X192549500Y-89397870D01*
X192549501Y-89397876D01*
X192555908Y-89457483D01*
X192606202Y-89592328D01*
X192606206Y-89592335D01*
X192692452Y-89707544D01*
X192692455Y-89707547D01*
X192807664Y-89793793D01*
X192807671Y-89793797D01*
X192939082Y-89842810D01*
X192995016Y-89884681D01*
X193019433Y-89950145D01*
X193004582Y-90018418D01*
X192983431Y-90046673D01*
X192869889Y-90160215D01*
X192744951Y-90332179D01*
X192648444Y-90521585D01*
X192582753Y-90723760D01*
X192549500Y-90933713D01*
X192549500Y-91146286D01*
X192581943Y-91351127D01*
X192582754Y-91356243D01*
X192636338Y-91521158D01*
X192648444Y-91558414D01*
X192744951Y-91747820D01*
X192869890Y-91919786D01*
X193020213Y-92070109D01*
X193192182Y-92195050D01*
X193200946Y-92199516D01*
X193251742Y-92247491D01*
X193268536Y-92315312D01*
X193245998Y-92381447D01*
X193200946Y-92420484D01*
X193192182Y-92424949D01*
X193020213Y-92549890D01*
X192869890Y-92700213D01*
X192744951Y-92872179D01*
X192648444Y-93061585D01*
X192582753Y-93263760D01*
X192550292Y-93468713D01*
X192549500Y-93473713D01*
X192549500Y-93686287D01*
X192582754Y-93896243D01*
X192646818Y-94093412D01*
X192648444Y-94098414D01*
X192744951Y-94287820D01*
X192869890Y-94459786D01*
X193020213Y-94610109D01*
X193192182Y-94735050D01*
X193200946Y-94739516D01*
X193251742Y-94787491D01*
X193268536Y-94855312D01*
X193245998Y-94921447D01*
X193200946Y-94960484D01*
X193192182Y-94964949D01*
X193020213Y-95089890D01*
X192869890Y-95240213D01*
X192744951Y-95412179D01*
X192648444Y-95601585D01*
X192582753Y-95803760D01*
X192549500Y-96013713D01*
X192549500Y-96226286D01*
X192581943Y-96431127D01*
X192582754Y-96436243D01*
X192629815Y-96581082D01*
X192648444Y-96638414D01*
X192744951Y-96827820D01*
X192869890Y-96999786D01*
X193020213Y-97150109D01*
X193192182Y-97275050D01*
X193200946Y-97279516D01*
X193251742Y-97327491D01*
X193268536Y-97395312D01*
X193245998Y-97461447D01*
X193200946Y-97500484D01*
X193192182Y-97504949D01*
X193020213Y-97629890D01*
X192869890Y-97780213D01*
X192744951Y-97952179D01*
X192648444Y-98141585D01*
X192582753Y-98343760D01*
X192549500Y-98553713D01*
X192549500Y-98766286D01*
X192581943Y-98971127D01*
X192582754Y-98976243D01*
X192629764Y-99120925D01*
X192648444Y-99178414D01*
X192744951Y-99367820D01*
X192869890Y-99539786D01*
X193020213Y-99690109D01*
X193192182Y-99815050D01*
X193200946Y-99819516D01*
X193251742Y-99867491D01*
X193268536Y-99935312D01*
X193245998Y-100001447D01*
X193200946Y-100040484D01*
X193192182Y-100044949D01*
X193020213Y-100169890D01*
X192869890Y-100320213D01*
X192744951Y-100492179D01*
X192648444Y-100681585D01*
X192582753Y-100883760D01*
X192549500Y-101093713D01*
X192549500Y-101306286D01*
X192576830Y-101478844D01*
X192582754Y-101516243D01*
X192646818Y-101713412D01*
X192648444Y-101718414D01*
X192744951Y-101907820D01*
X192869890Y-102079786D01*
X193020213Y-102230109D01*
X193192182Y-102355050D01*
X193200946Y-102359516D01*
X193251742Y-102407491D01*
X193268536Y-102475312D01*
X193245998Y-102541447D01*
X193200946Y-102580484D01*
X193192182Y-102584949D01*
X193020213Y-102709890D01*
X192869890Y-102860213D01*
X192744951Y-103032179D01*
X192648444Y-103221585D01*
X192582753Y-103423760D01*
X192549500Y-103633713D01*
X192549500Y-103846286D01*
X192577296Y-104021786D01*
X192582754Y-104056243D01*
X192646818Y-104253412D01*
X192648444Y-104258414D01*
X192744951Y-104447820D01*
X192869890Y-104619786D01*
X193020213Y-104770109D01*
X193192182Y-104895050D01*
X193200946Y-104899516D01*
X193251742Y-104947491D01*
X193268536Y-105015312D01*
X193245998Y-105081447D01*
X193200946Y-105120484D01*
X193192182Y-105124949D01*
X193020213Y-105249890D01*
X192869890Y-105400213D01*
X192744951Y-105572179D01*
X192648444Y-105761585D01*
X192582753Y-105963760D01*
X192550292Y-106168713D01*
X192549500Y-106173713D01*
X192549500Y-106386287D01*
X192550184Y-106390606D01*
X192581718Y-106589707D01*
X192582754Y-106596243D01*
X192646818Y-106793412D01*
X192648444Y-106798414D01*
X192744951Y-106987820D01*
X192869890Y-107159786D01*
X193020213Y-107310109D01*
X193192182Y-107435050D01*
X193200946Y-107439516D01*
X193251742Y-107487491D01*
X193268536Y-107555312D01*
X193245998Y-107621447D01*
X193200946Y-107660484D01*
X193192182Y-107664949D01*
X193020213Y-107789890D01*
X192869890Y-107940213D01*
X192744951Y-108112179D01*
X192648444Y-108301585D01*
X192582753Y-108503760D01*
X192549500Y-108713713D01*
X192549500Y-108926286D01*
X192582317Y-109133489D01*
X192582754Y-109136243D01*
X192646818Y-109333412D01*
X192648444Y-109338414D01*
X192744951Y-109527820D01*
X192869890Y-109699786D01*
X193020213Y-109850109D01*
X193192179Y-109975048D01*
X193192181Y-109975049D01*
X193192184Y-109975051D01*
X193201493Y-109979794D01*
X193252290Y-110027766D01*
X193269087Y-110095587D01*
X193246552Y-110161722D01*
X193201505Y-110200760D01*
X193192446Y-110205376D01*
X193192440Y-110205380D01*
X193138282Y-110244727D01*
X193138282Y-110244728D01*
X193770591Y-110877037D01*
X193707007Y-110894075D01*
X193592993Y-110959901D01*
X193499901Y-111052993D01*
X193434075Y-111167007D01*
X193417037Y-111230591D01*
X192784728Y-110598282D01*
X192784727Y-110598282D01*
X192745380Y-110652439D01*
X192648904Y-110841782D01*
X192583242Y-111043869D01*
X192583242Y-111043872D01*
X192550000Y-111253753D01*
X192550000Y-111466246D01*
X192583242Y-111676127D01*
X192583242Y-111676130D01*
X192648904Y-111878217D01*
X192745375Y-112067550D01*
X192784728Y-112121716D01*
X193417037Y-111489408D01*
X193434075Y-111552993D01*
X193499901Y-111667007D01*
X193592993Y-111760099D01*
X193707007Y-111825925D01*
X193770590Y-111842962D01*
X193138282Y-112475269D01*
X193138282Y-112475270D01*
X193192449Y-112514624D01*
X193381782Y-112611095D01*
X193583870Y-112676757D01*
X193793754Y-112710000D01*
X194006246Y-112710000D01*
X194216127Y-112676757D01*
X194216130Y-112676757D01*
X194418217Y-112611095D01*
X194607554Y-112514622D01*
X194661716Y-112475270D01*
X194661717Y-112475270D01*
X194029408Y-111842962D01*
X194092993Y-111825925D01*
X194207007Y-111760099D01*
X194300099Y-111667007D01*
X194365925Y-111552993D01*
X194382962Y-111489408D01*
X195015270Y-112121717D01*
X195015270Y-112121716D01*
X195054622Y-112067554D01*
X195151095Y-111878217D01*
X195216757Y-111676130D01*
X195216757Y-111676127D01*
X195250000Y-111466246D01*
X195250000Y-111253753D01*
X195216757Y-111043872D01*
X195216757Y-111043869D01*
X195151095Y-110841782D01*
X195054624Y-110652449D01*
X195015270Y-110598282D01*
X195015269Y-110598282D01*
X194382962Y-111230590D01*
X194365925Y-111167007D01*
X194300099Y-111052993D01*
X194207007Y-110959901D01*
X194092993Y-110894075D01*
X194029409Y-110877037D01*
X194661716Y-110244728D01*
X194607547Y-110205373D01*
X194607547Y-110205372D01*
X194598500Y-110200763D01*
X194547706Y-110152788D01*
X194530912Y-110084966D01*
X194553451Y-110018832D01*
X194598508Y-109979793D01*
X194607816Y-109975051D01*
X194687007Y-109917515D01*
X194779786Y-109850109D01*
X194779788Y-109850106D01*
X194779792Y-109850104D01*
X194930104Y-109699792D01*
X194930106Y-109699788D01*
X194930109Y-109699786D01*
X195050921Y-109533501D01*
X195055051Y-109527816D01*
X195151557Y-109338412D01*
X195217246Y-109136243D01*
X195250500Y-108926287D01*
X195250500Y-108713713D01*
X195217246Y-108503757D01*
X195151557Y-108301588D01*
X195055051Y-108112184D01*
X195055049Y-108112181D01*
X195055048Y-108112179D01*
X194930109Y-107940213D01*
X194779786Y-107789890D01*
X194607820Y-107664951D01*
X194607115Y-107664591D01*
X194599054Y-107660485D01*
X194548259Y-107612512D01*
X194531463Y-107544692D01*
X194553999Y-107478556D01*
X194599054Y-107439515D01*
X194607816Y-107435051D01*
X194747589Y-107333501D01*
X194779786Y-107310109D01*
X194779788Y-107310106D01*
X194779792Y-107310104D01*
X194930104Y-107159792D01*
X194930106Y-107159788D01*
X194930109Y-107159786D01*
X195055048Y-106987820D01*
X195055047Y-106987820D01*
X195055051Y-106987816D01*
X195151557Y-106798412D01*
X195217246Y-106596243D01*
X195250500Y-106386287D01*
X195250500Y-106173713D01*
X195217246Y-105963757D01*
X195151557Y-105761588D01*
X195055051Y-105572184D01*
X195055049Y-105572181D01*
X195055048Y-105572179D01*
X194930109Y-105400213D01*
X194779786Y-105249890D01*
X194607820Y-105124951D01*
X194607115Y-105124591D01*
X194599054Y-105120485D01*
X194548259Y-105072512D01*
X194531463Y-105004692D01*
X194553999Y-104938556D01*
X194599054Y-104899515D01*
X194607816Y-104895051D01*
X194629789Y-104879086D01*
X194779786Y-104770109D01*
X194779788Y-104770106D01*
X194779792Y-104770104D01*
X194930104Y-104619792D01*
X194930106Y-104619788D01*
X194930109Y-104619786D01*
X195055048Y-104447820D01*
X195055047Y-104447820D01*
X195055051Y-104447816D01*
X195151557Y-104258412D01*
X195217246Y-104056243D01*
X195250500Y-103846287D01*
X195250500Y-103633713D01*
X195217246Y-103423757D01*
X195151557Y-103221588D01*
X195055051Y-103032184D01*
X195055049Y-103032181D01*
X195055048Y-103032179D01*
X194930109Y-102860213D01*
X194779786Y-102709890D01*
X194607820Y-102584951D01*
X194607115Y-102584591D01*
X194599054Y-102580485D01*
X194548259Y-102532512D01*
X194531463Y-102464692D01*
X194553999Y-102398556D01*
X194599054Y-102359515D01*
X194607816Y-102355051D01*
X194629789Y-102339086D01*
X194779786Y-102230109D01*
X194779788Y-102230106D01*
X194779792Y-102230104D01*
X194930104Y-102079792D01*
X194930106Y-102079788D01*
X194930109Y-102079786D01*
X195053902Y-101909397D01*
X195055051Y-101907816D01*
X195151557Y-101718412D01*
X195217246Y-101516243D01*
X195250500Y-101306287D01*
X195250500Y-101093713D01*
X195217246Y-100883757D01*
X195151557Y-100681588D01*
X195055051Y-100492184D01*
X195055049Y-100492181D01*
X195055048Y-100492179D01*
X194930109Y-100320213D01*
X194779786Y-100169890D01*
X194607820Y-100044951D01*
X194607115Y-100044591D01*
X194599054Y-100040485D01*
X194548259Y-99992512D01*
X194531463Y-99924692D01*
X194553999Y-99858556D01*
X194599054Y-99819515D01*
X194607816Y-99815051D01*
X194669454Y-99770269D01*
X194779786Y-99690109D01*
X194779788Y-99690106D01*
X194779792Y-99690104D01*
X194930104Y-99539792D01*
X194930106Y-99539788D01*
X194930109Y-99539786D01*
X195055048Y-99367820D01*
X195055047Y-99367820D01*
X195055051Y-99367816D01*
X195151557Y-99178412D01*
X195217246Y-98976243D01*
X195250500Y-98766287D01*
X195250500Y-98553713D01*
X195217246Y-98343757D01*
X195151557Y-98141588D01*
X195055051Y-97952184D01*
X195055049Y-97952181D01*
X195055048Y-97952179D01*
X194930109Y-97780213D01*
X194779786Y-97629890D01*
X194607820Y-97504951D01*
X194607115Y-97504591D01*
X194599054Y-97500485D01*
X194548259Y-97452512D01*
X194531463Y-97384692D01*
X194553999Y-97318556D01*
X194599054Y-97279515D01*
X194607816Y-97275051D01*
X194713069Y-97198581D01*
X194779786Y-97150109D01*
X194779788Y-97150106D01*
X194779792Y-97150104D01*
X194930104Y-96999792D01*
X194930106Y-96999788D01*
X194930109Y-96999786D01*
X195055048Y-96827820D01*
X195055047Y-96827820D01*
X195055051Y-96827816D01*
X195151557Y-96638412D01*
X195217246Y-96436243D01*
X195250500Y-96226287D01*
X195250500Y-96013713D01*
X195217246Y-95803757D01*
X195151557Y-95601588D01*
X195055051Y-95412184D01*
X195055049Y-95412181D01*
X195055048Y-95412179D01*
X194930109Y-95240213D01*
X194779786Y-95089890D01*
X194607820Y-94964951D01*
X194607115Y-94964591D01*
X194599054Y-94960485D01*
X194548259Y-94912512D01*
X194531463Y-94844692D01*
X194553999Y-94778556D01*
X194599054Y-94739515D01*
X194607816Y-94735051D01*
X194629789Y-94719086D01*
X194779786Y-94610109D01*
X194779788Y-94610106D01*
X194779792Y-94610104D01*
X194930104Y-94459792D01*
X194930106Y-94459788D01*
X194930109Y-94459786D01*
X195055048Y-94287820D01*
X195055047Y-94287820D01*
X195055051Y-94287816D01*
X195151557Y-94098412D01*
X195217246Y-93896243D01*
X195250500Y-93686287D01*
X195250500Y-93473713D01*
X195217246Y-93263757D01*
X195151557Y-93061588D01*
X195055051Y-92872184D01*
X195055049Y-92872181D01*
X195055048Y-92872179D01*
X194930109Y-92700213D01*
X194779786Y-92549890D01*
X194607820Y-92424951D01*
X194607115Y-92424591D01*
X194599054Y-92420485D01*
X194548259Y-92372512D01*
X194531463Y-92304692D01*
X194553999Y-92238556D01*
X194599054Y-92199515D01*
X194607816Y-92195051D01*
X194724482Y-92110289D01*
X194779786Y-92070109D01*
X194779788Y-92070106D01*
X194779792Y-92070104D01*
X194930104Y-91919792D01*
X194930106Y-91919788D01*
X194930109Y-91919786D01*
X195055048Y-91747820D01*
X195055047Y-91747820D01*
X195055051Y-91747816D01*
X195151557Y-91558412D01*
X195217246Y-91356243D01*
X195250500Y-91146287D01*
X195250500Y-90933713D01*
X195217246Y-90723757D01*
X195151557Y-90521588D01*
X195055051Y-90332184D01*
X195055049Y-90332181D01*
X195055048Y-90332179D01*
X194930109Y-90160213D01*
X194816569Y-90046673D01*
X194783084Y-89985350D01*
X194788068Y-89915658D01*
X194829940Y-89859725D01*
X194860915Y-89842810D01*
X194992331Y-89793796D01*
X195107546Y-89707546D01*
X195193796Y-89592331D01*
X195244091Y-89457483D01*
X195250500Y-89397873D01*
X195250499Y-87602128D01*
X195244091Y-87542517D01*
X195220343Y-87478846D01*
X195193797Y-87407671D01*
X195193793Y-87407664D01*
X195107547Y-87292455D01*
X195107544Y-87292452D01*
X194992335Y-87206206D01*
X194992328Y-87206202D01*
X194857482Y-87155908D01*
X194857483Y-87155908D01*
X194797883Y-87149501D01*
X194797881Y-87149500D01*
X194797873Y-87149500D01*
X194797864Y-87149500D01*
X193002129Y-87149500D01*
X193002123Y-87149501D01*
X192942516Y-87155908D01*
X192807671Y-87206202D01*
X192807664Y-87206206D01*
X192692455Y-87292452D01*
X192692452Y-87292455D01*
X192606206Y-87407664D01*
X192606202Y-87407671D01*
X192555908Y-87542517D01*
X192549782Y-87599500D01*
X192549501Y-87602123D01*
X192549500Y-87602135D01*
X183767092Y-87602135D01*
X183753845Y-87599500D01*
X183753842Y-87599500D01*
X183596158Y-87599500D01*
X183596155Y-87599500D01*
X183441510Y-87630261D01*
X183441498Y-87630264D01*
X183295827Y-87690602D01*
X183295814Y-87690609D01*
X183164711Y-87778210D01*
X183164707Y-87778213D01*
X183053213Y-87889707D01*
X183053210Y-87889711D01*
X182965609Y-88020814D01*
X182965602Y-88020827D01*
X182905264Y-88166498D01*
X182905261Y-88166510D01*
X182874501Y-88321149D01*
X182874500Y-88321155D01*
X176704620Y-88321155D01*
X176715084Y-88305495D01*
X176754533Y-88210256D01*
X176771659Y-88168912D01*
X176800500Y-88023917D01*
X176800500Y-87876082D01*
X176800500Y-79821153D01*
X182399500Y-79821153D01*
X182399500Y-79978846D01*
X182430261Y-80133489D01*
X182430264Y-80133501D01*
X182490602Y-80279172D01*
X182490609Y-80279185D01*
X182578210Y-80410288D01*
X182578213Y-80410292D01*
X182689707Y-80521786D01*
X182689711Y-80521789D01*
X182820814Y-80609390D01*
X182820827Y-80609397D01*
X182966498Y-80669735D01*
X182966503Y-80669737D01*
X183121153Y-80700499D01*
X183121156Y-80700500D01*
X183121158Y-80700500D01*
X183278844Y-80700500D01*
X183278845Y-80700499D01*
X183433497Y-80669737D01*
X183579179Y-80609394D01*
X183710289Y-80521789D01*
X183821789Y-80410289D01*
X183909394Y-80279179D01*
X183969737Y-80133497D01*
X184000500Y-79978842D01*
X184000500Y-79821158D01*
X184000500Y-79821155D01*
X184000499Y-79821153D01*
X188199500Y-79821153D01*
X188199500Y-79978846D01*
X188230261Y-80133489D01*
X188230264Y-80133501D01*
X188290602Y-80279172D01*
X188290609Y-80279185D01*
X188378210Y-80410288D01*
X188378213Y-80410292D01*
X188489707Y-80521786D01*
X188489711Y-80521789D01*
X188620814Y-80609390D01*
X188620827Y-80609397D01*
X188766498Y-80669735D01*
X188766503Y-80669737D01*
X188921153Y-80700499D01*
X188921156Y-80700500D01*
X188921158Y-80700500D01*
X189078844Y-80700500D01*
X189078845Y-80700499D01*
X189233497Y-80669737D01*
X189379179Y-80609394D01*
X189510289Y-80521789D01*
X189621789Y-80410289D01*
X189709394Y-80279179D01*
X189769737Y-80133497D01*
X189800500Y-79978842D01*
X189800500Y-79821158D01*
X189800500Y-79821155D01*
X189800499Y-79821153D01*
X189769737Y-79666503D01*
X189714669Y-79533556D01*
X189709397Y-79520827D01*
X189709390Y-79520814D01*
X189621789Y-79389711D01*
X189621786Y-79389707D01*
X189510292Y-79278213D01*
X189510288Y-79278210D01*
X189379185Y-79190609D01*
X189379172Y-79190602D01*
X189233501Y-79130264D01*
X189233489Y-79130261D01*
X189078845Y-79099500D01*
X189078842Y-79099500D01*
X188921158Y-79099500D01*
X188921155Y-79099500D01*
X188766510Y-79130261D01*
X188766498Y-79130264D01*
X188620827Y-79190602D01*
X188620814Y-79190609D01*
X188489711Y-79278210D01*
X188489707Y-79278213D01*
X188378213Y-79389707D01*
X188378210Y-79389711D01*
X188290609Y-79520814D01*
X188290602Y-79520827D01*
X188230264Y-79666498D01*
X188230261Y-79666510D01*
X188199500Y-79821153D01*
X184000499Y-79821153D01*
X183969737Y-79666503D01*
X183914669Y-79533556D01*
X183909397Y-79520827D01*
X183909390Y-79520814D01*
X183821789Y-79389711D01*
X183821786Y-79389707D01*
X183710292Y-79278213D01*
X183710288Y-79278210D01*
X183579185Y-79190609D01*
X183579172Y-79190602D01*
X183433501Y-79130264D01*
X183433489Y-79130261D01*
X183278845Y-79099500D01*
X183278842Y-79099500D01*
X183121158Y-79099500D01*
X183121155Y-79099500D01*
X182966510Y-79130261D01*
X182966498Y-79130264D01*
X182820827Y-79190602D01*
X182820814Y-79190609D01*
X182689711Y-79278210D01*
X182689707Y-79278213D01*
X182578213Y-79389707D01*
X182578210Y-79389711D01*
X182490609Y-79520814D01*
X182490602Y-79520827D01*
X182430264Y-79666498D01*
X182430261Y-79666510D01*
X182399500Y-79821153D01*
X176800500Y-79821153D01*
X176800500Y-72362229D01*
X176820185Y-72295190D01*
X176836819Y-72274548D01*
X178424548Y-70686819D01*
X178485871Y-70653334D01*
X178512229Y-70650500D01*
X184473920Y-70650500D01*
X184571462Y-70631096D01*
X184618913Y-70621658D01*
X184755495Y-70565084D01*
X184837502Y-70510289D01*
X184878416Y-70482952D01*
X184919508Y-70441859D01*
X184924089Y-70438082D01*
X184932871Y-70434328D01*
X184955524Y-70419191D01*
X184979179Y-70409394D01*
X185110289Y-70321789D01*
X185221789Y-70210289D01*
X185309394Y-70079179D01*
X185369737Y-69933497D01*
X185400500Y-69778842D01*
X185400500Y-69621158D01*
X185400500Y-69621155D01*
X185400499Y-69621153D01*
X185392272Y-69579792D01*
X185369737Y-69466503D01*
X185334961Y-69382546D01*
X185309397Y-69320827D01*
X185309390Y-69320814D01*
X185221789Y-69189711D01*
X185221786Y-69189707D01*
X185110292Y-69078213D01*
X185110288Y-69078210D01*
X184979185Y-68990609D01*
X184979172Y-68990602D01*
X184833501Y-68930264D01*
X184833489Y-68930261D01*
X184678845Y-68899500D01*
X184678842Y-68899500D01*
X184521158Y-68899500D01*
X184521155Y-68899500D01*
X184366510Y-68930261D01*
X184366498Y-68930264D01*
X184220827Y-68990602D01*
X184220814Y-68990609D01*
X184089711Y-69078210D01*
X184089707Y-69078213D01*
X184054742Y-69113180D01*
X183993420Y-69146666D01*
X183967060Y-69149500D01*
X178076080Y-69149500D01*
X177931092Y-69178340D01*
X177931082Y-69178343D01*
X177794511Y-69234912D01*
X177794498Y-69234919D01*
X177671584Y-69317048D01*
X177671580Y-69317051D01*
X175467052Y-71521578D01*
X175467046Y-71521585D01*
X175418132Y-71594791D01*
X175418133Y-71594792D01*
X175384913Y-71644508D01*
X175328343Y-71781082D01*
X175328340Y-71781092D01*
X175299500Y-71926079D01*
X175299500Y-87587770D01*
X175279815Y-87654809D01*
X175263181Y-87675451D01*
X172125451Y-90813181D01*
X172064128Y-90846666D01*
X172037770Y-90849500D01*
X167204604Y-90849500D01*
X167157155Y-90840062D01*
X167133497Y-90830263D01*
X167133493Y-90830262D01*
X167133488Y-90830260D01*
X166978845Y-90799500D01*
X166978842Y-90799500D01*
X166821158Y-90799500D01*
X166821155Y-90799500D01*
X166666510Y-90830261D01*
X166666498Y-90830264D01*
X166520827Y-90890602D01*
X166520814Y-90890609D01*
X166389711Y-90978210D01*
X166389707Y-90978213D01*
X166278213Y-91089707D01*
X166278210Y-91089711D01*
X166190609Y-91220814D01*
X166190602Y-91220827D01*
X166130264Y-91366498D01*
X166130261Y-91366510D01*
X166099500Y-91521153D01*
X164661514Y-91521153D01*
X164675942Y-91476748D01*
X164716757Y-91351130D01*
X164716757Y-91351127D01*
X164750000Y-91141246D01*
X164750000Y-90928753D01*
X164716757Y-90718872D01*
X164716757Y-90718869D01*
X164651095Y-90516782D01*
X164554624Y-90327449D01*
X164515270Y-90273282D01*
X164515269Y-90273282D01*
X163882962Y-90905590D01*
X163865925Y-90842007D01*
X163800099Y-90727993D01*
X163707007Y-90634901D01*
X163592993Y-90569075D01*
X163529409Y-90552037D01*
X164161716Y-89919728D01*
X164107550Y-89880375D01*
X164097954Y-89875486D01*
X164047157Y-89827512D01*
X164030361Y-89759692D01*
X164052897Y-89693556D01*
X164097954Y-89654514D01*
X164107554Y-89649622D01*
X164161716Y-89610270D01*
X164161717Y-89610270D01*
X163529408Y-88977962D01*
X163592993Y-88960925D01*
X163707007Y-88895099D01*
X163800099Y-88802007D01*
X163865925Y-88687993D01*
X163882962Y-88624408D01*
X164515270Y-89256717D01*
X164515270Y-89256716D01*
X164554622Y-89202554D01*
X164651095Y-89013217D01*
X164716757Y-88811130D01*
X164716757Y-88811127D01*
X164750000Y-88601246D01*
X164750000Y-88388753D01*
X164716757Y-88178872D01*
X164716757Y-88178869D01*
X164651095Y-87976782D01*
X164554624Y-87787449D01*
X164515270Y-87733282D01*
X164515269Y-87733282D01*
X163882962Y-88365590D01*
X163865925Y-88302007D01*
X163800099Y-88187993D01*
X163707007Y-88094901D01*
X163592993Y-88029075D01*
X163529409Y-88012037D01*
X164160169Y-87381275D01*
X164082919Y-87326321D01*
X164078851Y-87321153D01*
X168299500Y-87321153D01*
X168299500Y-87478846D01*
X168330261Y-87633489D01*
X168330264Y-87633501D01*
X168390602Y-87779172D01*
X168390609Y-87779185D01*
X168478210Y-87910288D01*
X168478213Y-87910292D01*
X168589707Y-88021786D01*
X168589711Y-88021789D01*
X168720814Y-88109390D01*
X168720827Y-88109397D01*
X168858683Y-88166498D01*
X168866503Y-88169737D01*
X169021153Y-88200499D01*
X169021156Y-88200500D01*
X169021158Y-88200500D01*
X169178844Y-88200500D01*
X169178845Y-88200499D01*
X169333497Y-88169737D01*
X169479179Y-88109394D01*
X169610289Y-88021789D01*
X169721789Y-87910289D01*
X169809394Y-87779179D01*
X169869737Y-87633497D01*
X169900500Y-87478842D01*
X169900500Y-87321158D01*
X169900500Y-87321155D01*
X169900499Y-87321153D01*
X169869737Y-87166503D01*
X169865349Y-87155909D01*
X169809397Y-87020827D01*
X169809390Y-87020814D01*
X169721789Y-86889711D01*
X169721786Y-86889707D01*
X169610292Y-86778213D01*
X169610288Y-86778210D01*
X169479185Y-86690609D01*
X169479172Y-86690602D01*
X169333501Y-86630264D01*
X169333489Y-86630261D01*
X169178845Y-86599500D01*
X169178842Y-86599500D01*
X169021158Y-86599500D01*
X169021155Y-86599500D01*
X168866510Y-86630261D01*
X168866498Y-86630264D01*
X168720827Y-86690602D01*
X168720814Y-86690609D01*
X168589711Y-86778210D01*
X168589707Y-86778213D01*
X168478213Y-86889707D01*
X168478210Y-86889711D01*
X168390609Y-87020814D01*
X168390602Y-87020827D01*
X168330264Y-87166498D01*
X168330261Y-87166510D01*
X168299500Y-87321153D01*
X164078851Y-87321153D01*
X164066731Y-87305757D01*
X164047706Y-87287788D01*
X164045466Y-87278743D01*
X164039702Y-87271421D01*
X164037201Y-87245367D01*
X164030912Y-87219966D01*
X164033918Y-87211145D01*
X164033028Y-87201870D01*
X164045007Y-87178605D01*
X164053451Y-87153832D01*
X164061240Y-87147083D01*
X164065015Y-87139753D01*
X164079090Y-87131617D01*
X164098508Y-87114793D01*
X164107816Y-87110051D01*
X164187007Y-87052515D01*
X164279786Y-86985109D01*
X164279788Y-86985106D01*
X164279792Y-86985104D01*
X164430104Y-86834792D01*
X164430106Y-86834788D01*
X164430109Y-86834786D01*
X164555048Y-86662820D01*
X164555047Y-86662820D01*
X164555051Y-86662816D01*
X164651557Y-86473412D01*
X164717246Y-86271243D01*
X164750500Y-86061287D01*
X164750500Y-85848713D01*
X164717246Y-85638757D01*
X164651557Y-85436588D01*
X164555051Y-85247184D01*
X164555049Y-85247181D01*
X164555048Y-85247179D01*
X164430109Y-85075213D01*
X164279786Y-84924890D01*
X164107820Y-84799951D01*
X164107115Y-84799591D01*
X164099054Y-84795485D01*
X164048259Y-84747512D01*
X164031463Y-84679692D01*
X164053999Y-84613556D01*
X164099054Y-84574515D01*
X164107816Y-84570051D01*
X164129789Y-84554086D01*
X164279786Y-84445109D01*
X164279788Y-84445106D01*
X164279792Y-84445104D01*
X164303743Y-84421153D01*
X168299500Y-84421153D01*
X168299500Y-84578846D01*
X168330261Y-84733489D01*
X168330264Y-84733501D01*
X168390602Y-84879172D01*
X168390609Y-84879185D01*
X168478210Y-85010288D01*
X168478213Y-85010292D01*
X168589707Y-85121786D01*
X168589711Y-85121789D01*
X168720814Y-85209390D01*
X168720827Y-85209397D01*
X168866498Y-85269735D01*
X168866503Y-85269737D01*
X169021153Y-85300499D01*
X169021156Y-85300500D01*
X169021158Y-85300500D01*
X169178844Y-85300500D01*
X169178845Y-85300499D01*
X169333497Y-85269737D01*
X169479179Y-85209394D01*
X169610289Y-85121789D01*
X169721789Y-85010289D01*
X169809394Y-84879179D01*
X169869737Y-84733497D01*
X169900500Y-84578842D01*
X169900500Y-84421158D01*
X169900500Y-84421155D01*
X169900499Y-84421153D01*
X169875364Y-84294792D01*
X169869737Y-84266503D01*
X169869735Y-84266498D01*
X169809397Y-84120827D01*
X169809390Y-84120814D01*
X169721789Y-83989711D01*
X169721786Y-83989707D01*
X169610292Y-83878213D01*
X169610288Y-83878210D01*
X169479185Y-83790609D01*
X169479172Y-83790602D01*
X169333501Y-83730264D01*
X169333489Y-83730261D01*
X169178845Y-83699500D01*
X169178842Y-83699500D01*
X169021158Y-83699500D01*
X169021155Y-83699500D01*
X168866510Y-83730261D01*
X168866498Y-83730264D01*
X168720827Y-83790602D01*
X168720814Y-83790609D01*
X168589711Y-83878210D01*
X168589707Y-83878213D01*
X168478213Y-83989707D01*
X168478210Y-83989711D01*
X168390609Y-84120814D01*
X168390602Y-84120827D01*
X168330264Y-84266498D01*
X168330261Y-84266510D01*
X168299500Y-84421153D01*
X164303743Y-84421153D01*
X164430104Y-84294792D01*
X164430106Y-84294788D01*
X164430109Y-84294786D01*
X164555048Y-84122820D01*
X164555047Y-84122820D01*
X164555051Y-84122816D01*
X164651557Y-83933412D01*
X164717246Y-83731243D01*
X164750500Y-83521287D01*
X164750500Y-83308713D01*
X164717246Y-83098757D01*
X164651557Y-82896588D01*
X164555051Y-82707184D01*
X164555049Y-82707181D01*
X164555048Y-82707179D01*
X164430109Y-82535213D01*
X164279786Y-82384890D01*
X164107820Y-82259951D01*
X164107115Y-82259591D01*
X164099054Y-82255485D01*
X164048259Y-82207512D01*
X164031463Y-82139692D01*
X164053999Y-82073556D01*
X164099054Y-82034515D01*
X164107816Y-82030051D01*
X164177836Y-81979179D01*
X164279786Y-81905109D01*
X164279788Y-81905106D01*
X164279792Y-81905104D01*
X164430104Y-81754792D01*
X164430106Y-81754788D01*
X164430109Y-81754786D01*
X164555048Y-81582820D01*
X164555047Y-81582820D01*
X164555051Y-81582816D01*
X164586470Y-81521153D01*
X168299500Y-81521153D01*
X168299500Y-81678846D01*
X168330261Y-81833489D01*
X168330264Y-81833501D01*
X168390602Y-81979172D01*
X168390609Y-81979185D01*
X168478210Y-82110288D01*
X168478213Y-82110292D01*
X168589707Y-82221786D01*
X168589711Y-82221789D01*
X168720814Y-82309390D01*
X168720827Y-82309397D01*
X168866498Y-82369735D01*
X168866503Y-82369737D01*
X169021153Y-82400499D01*
X169021156Y-82400500D01*
X169021158Y-82400500D01*
X169178844Y-82400500D01*
X169178845Y-82400499D01*
X169333497Y-82369737D01*
X169479179Y-82309394D01*
X169610289Y-82221789D01*
X169721789Y-82110289D01*
X169809394Y-81979179D01*
X169869737Y-81833497D01*
X169900500Y-81678842D01*
X169900500Y-81521158D01*
X169900500Y-81521155D01*
X169900499Y-81521153D01*
X169875090Y-81393414D01*
X169869737Y-81366503D01*
X169869735Y-81366498D01*
X169809397Y-81220827D01*
X169809390Y-81220814D01*
X169721789Y-81089711D01*
X169721786Y-81089707D01*
X169610292Y-80978213D01*
X169610288Y-80978210D01*
X169479185Y-80890609D01*
X169479172Y-80890602D01*
X169333501Y-80830264D01*
X169333489Y-80830261D01*
X169178845Y-80799500D01*
X169178842Y-80799500D01*
X169021158Y-80799500D01*
X169021155Y-80799500D01*
X168866510Y-80830261D01*
X168866498Y-80830264D01*
X168720827Y-80890602D01*
X168720814Y-80890609D01*
X168589711Y-80978210D01*
X168589707Y-80978213D01*
X168478213Y-81089707D01*
X168478210Y-81089711D01*
X168390609Y-81220814D01*
X168390602Y-81220827D01*
X168330264Y-81366498D01*
X168330261Y-81366510D01*
X168299500Y-81521153D01*
X164586470Y-81521153D01*
X164651557Y-81393412D01*
X164717246Y-81191243D01*
X164750500Y-80981287D01*
X164750500Y-80768713D01*
X164717246Y-80558757D01*
X164651557Y-80356588D01*
X164555051Y-80167184D01*
X164555049Y-80167181D01*
X164555048Y-80167179D01*
X164430109Y-79995213D01*
X164279786Y-79844890D01*
X164107820Y-79719951D01*
X164107115Y-79719591D01*
X164099054Y-79715485D01*
X164048259Y-79667512D01*
X164031463Y-79599692D01*
X164053999Y-79533556D01*
X164099054Y-79494515D01*
X164107816Y-79490051D01*
X164135779Y-79469735D01*
X164279786Y-79365109D01*
X164279788Y-79365106D01*
X164279792Y-79365104D01*
X164430104Y-79214792D01*
X164430106Y-79214788D01*
X164430109Y-79214786D01*
X164555048Y-79042820D01*
X164555047Y-79042820D01*
X164555051Y-79042816D01*
X164651557Y-78853412D01*
X164717246Y-78651243D01*
X164722012Y-78621153D01*
X168299500Y-78621153D01*
X168299500Y-78778846D01*
X168330261Y-78933489D01*
X168330264Y-78933501D01*
X168390602Y-79079172D01*
X168390609Y-79079185D01*
X168478210Y-79210288D01*
X168478213Y-79210292D01*
X168589707Y-79321786D01*
X168589711Y-79321789D01*
X168720814Y-79409390D01*
X168720827Y-79409397D01*
X168866498Y-79469735D01*
X168866503Y-79469737D01*
X168968613Y-79490048D01*
X169021153Y-79500499D01*
X169021156Y-79500500D01*
X169021158Y-79500500D01*
X169178844Y-79500500D01*
X169178845Y-79500499D01*
X169333497Y-79469737D01*
X169479179Y-79409394D01*
X169610289Y-79321789D01*
X169721789Y-79210289D01*
X169809394Y-79079179D01*
X169869737Y-78933497D01*
X169900500Y-78778842D01*
X169900500Y-78621158D01*
X169900500Y-78621155D01*
X169900499Y-78621153D01*
X169869738Y-78466510D01*
X169869737Y-78466503D01*
X169859292Y-78441286D01*
X169809397Y-78320827D01*
X169809390Y-78320814D01*
X169721789Y-78189711D01*
X169721786Y-78189707D01*
X169610292Y-78078213D01*
X169610288Y-78078210D01*
X169479185Y-77990609D01*
X169479172Y-77990602D01*
X169333501Y-77930264D01*
X169333489Y-77930261D01*
X169178845Y-77899500D01*
X169178842Y-77899500D01*
X169021158Y-77899500D01*
X169021155Y-77899500D01*
X168866510Y-77930261D01*
X168866498Y-77930264D01*
X168720827Y-77990602D01*
X168720814Y-77990609D01*
X168589711Y-78078210D01*
X168589707Y-78078213D01*
X168478213Y-78189707D01*
X168478210Y-78189711D01*
X168390609Y-78320814D01*
X168390602Y-78320827D01*
X168330264Y-78466498D01*
X168330261Y-78466510D01*
X168299500Y-78621153D01*
X164722012Y-78621153D01*
X164750500Y-78441287D01*
X164750500Y-78228713D01*
X164717246Y-78018757D01*
X164651557Y-77816588D01*
X164555051Y-77627184D01*
X164555049Y-77627181D01*
X164555048Y-77627179D01*
X164430109Y-77455213D01*
X164279786Y-77304890D01*
X164107820Y-77179951D01*
X164107115Y-77179591D01*
X164099054Y-77175485D01*
X164048259Y-77127512D01*
X164031463Y-77059692D01*
X164053999Y-76993556D01*
X164099054Y-76954515D01*
X164107816Y-76950051D01*
X164129789Y-76934086D01*
X164279786Y-76825109D01*
X164279788Y-76825106D01*
X164279792Y-76825104D01*
X164430104Y-76674792D01*
X164430106Y-76674788D01*
X164430109Y-76674786D01*
X164555048Y-76502820D01*
X164555047Y-76502820D01*
X164555051Y-76502816D01*
X164651557Y-76313412D01*
X164717246Y-76111243D01*
X164750500Y-75901287D01*
X164750500Y-75721153D01*
X168399500Y-75721153D01*
X168399500Y-75878846D01*
X168430261Y-76033489D01*
X168430264Y-76033501D01*
X168490602Y-76179172D01*
X168490609Y-76179185D01*
X168578210Y-76310288D01*
X168578213Y-76310292D01*
X168689707Y-76421786D01*
X168689711Y-76421789D01*
X168820814Y-76509390D01*
X168820827Y-76509397D01*
X168966498Y-76569735D01*
X168966503Y-76569737D01*
X169121153Y-76600499D01*
X169121156Y-76600500D01*
X169121158Y-76600500D01*
X169278844Y-76600500D01*
X169278845Y-76600499D01*
X169433497Y-76569737D01*
X169579179Y-76509394D01*
X169710289Y-76421789D01*
X169821789Y-76310289D01*
X169909394Y-76179179D01*
X169969737Y-76033497D01*
X170000500Y-75878842D01*
X170000500Y-75721158D01*
X170000500Y-75721155D01*
X170000499Y-75721153D01*
X169969738Y-75566510D01*
X169969737Y-75566503D01*
X169933392Y-75478757D01*
X169909397Y-75420827D01*
X169909390Y-75420814D01*
X169821789Y-75289711D01*
X169821786Y-75289707D01*
X169710292Y-75178213D01*
X169710288Y-75178210D01*
X169579185Y-75090609D01*
X169579172Y-75090602D01*
X169433501Y-75030264D01*
X169433489Y-75030261D01*
X169278845Y-74999500D01*
X169278842Y-74999500D01*
X169121158Y-74999500D01*
X169121155Y-74999500D01*
X168966510Y-75030261D01*
X168966498Y-75030264D01*
X168820827Y-75090602D01*
X168820814Y-75090609D01*
X168689711Y-75178210D01*
X168689707Y-75178213D01*
X168578213Y-75289707D01*
X168578210Y-75289711D01*
X168490609Y-75420814D01*
X168490602Y-75420827D01*
X168430264Y-75566498D01*
X168430261Y-75566510D01*
X168399500Y-75721153D01*
X164750500Y-75721153D01*
X164750500Y-75688713D01*
X164717246Y-75478757D01*
X164651557Y-75276588D01*
X164555051Y-75087184D01*
X164555049Y-75087181D01*
X164555048Y-75087179D01*
X164430109Y-74915213D01*
X164279786Y-74764890D01*
X164107820Y-74639951D01*
X164107115Y-74639591D01*
X164099054Y-74635485D01*
X164048259Y-74587512D01*
X164031463Y-74519692D01*
X164053999Y-74453556D01*
X164099054Y-74414515D01*
X164107816Y-74410051D01*
X164129789Y-74394086D01*
X164279786Y-74285109D01*
X164279788Y-74285106D01*
X164279792Y-74285104D01*
X164430104Y-74134792D01*
X164430106Y-74134788D01*
X164430109Y-74134786D01*
X164555048Y-73962820D01*
X164555047Y-73962820D01*
X164555051Y-73962816D01*
X164651557Y-73773412D01*
X164717246Y-73571243D01*
X164750500Y-73361287D01*
X164750500Y-73148713D01*
X164717246Y-72938757D01*
X164693655Y-72866153D01*
X168399500Y-72866153D01*
X168399500Y-73023846D01*
X168430261Y-73178489D01*
X168430264Y-73178501D01*
X168490602Y-73324172D01*
X168490609Y-73324185D01*
X168578210Y-73455288D01*
X168578213Y-73455292D01*
X168689707Y-73566786D01*
X168689711Y-73566789D01*
X168820814Y-73654390D01*
X168820827Y-73654397D01*
X168966498Y-73714735D01*
X168966503Y-73714737D01*
X169121153Y-73745499D01*
X169121156Y-73745500D01*
X169121158Y-73745500D01*
X169278844Y-73745500D01*
X169278845Y-73745499D01*
X169433497Y-73714737D01*
X169579179Y-73654394D01*
X169710289Y-73566789D01*
X169821789Y-73455289D01*
X169909394Y-73324179D01*
X169969737Y-73178497D01*
X170000500Y-73023842D01*
X170000500Y-72866158D01*
X170000500Y-72866155D01*
X170000499Y-72866153D01*
X169969737Y-72711503D01*
X169969735Y-72711498D01*
X169909397Y-72565827D01*
X169909390Y-72565814D01*
X169821789Y-72434711D01*
X169821786Y-72434707D01*
X169710292Y-72323213D01*
X169710288Y-72323210D01*
X169579185Y-72235609D01*
X169579172Y-72235602D01*
X169433501Y-72175264D01*
X169433489Y-72175261D01*
X169278845Y-72144500D01*
X169278842Y-72144500D01*
X169121158Y-72144500D01*
X169121155Y-72144500D01*
X168966510Y-72175261D01*
X168966498Y-72175264D01*
X168820827Y-72235602D01*
X168820814Y-72235609D01*
X168689711Y-72323210D01*
X168689707Y-72323213D01*
X168578213Y-72434707D01*
X168578210Y-72434711D01*
X168490609Y-72565814D01*
X168490602Y-72565827D01*
X168430264Y-72711498D01*
X168430261Y-72711510D01*
X168399500Y-72866153D01*
X164693655Y-72866153D01*
X164651557Y-72736588D01*
X164651555Y-72736585D01*
X164651555Y-72736583D01*
X164555048Y-72547179D01*
X164430109Y-72375213D01*
X164279786Y-72224890D01*
X164107820Y-72099951D01*
X164107115Y-72099591D01*
X164099054Y-72095485D01*
X164048259Y-72047512D01*
X164031463Y-71979692D01*
X164053999Y-71913556D01*
X164099054Y-71874515D01*
X164107816Y-71870051D01*
X164129789Y-71854086D01*
X164279786Y-71745109D01*
X164279788Y-71745106D01*
X164279792Y-71745104D01*
X164430104Y-71594792D01*
X164430106Y-71594788D01*
X164430109Y-71594786D01*
X164555048Y-71422820D01*
X164555047Y-71422820D01*
X164555051Y-71422816D01*
X164651557Y-71233412D01*
X164717246Y-71031243D01*
X164750500Y-70821287D01*
X164750500Y-70608713D01*
X164717246Y-70398757D01*
X164651557Y-70196588D01*
X164555051Y-70007184D01*
X164492546Y-69921153D01*
X168399500Y-69921153D01*
X168399500Y-70078846D01*
X168430261Y-70233489D01*
X168430264Y-70233501D01*
X168490602Y-70379172D01*
X168490609Y-70379185D01*
X168578210Y-70510288D01*
X168578213Y-70510292D01*
X168689707Y-70621786D01*
X168689711Y-70621789D01*
X168820814Y-70709390D01*
X168820827Y-70709397D01*
X168966498Y-70769735D01*
X168966503Y-70769737D01*
X169121153Y-70800499D01*
X169121156Y-70800500D01*
X169121158Y-70800500D01*
X169278844Y-70800500D01*
X169278845Y-70800499D01*
X169433497Y-70769737D01*
X169579179Y-70709394D01*
X169710289Y-70621789D01*
X169821789Y-70510289D01*
X169909394Y-70379179D01*
X169969737Y-70233497D01*
X170000500Y-70078842D01*
X170000500Y-69921158D01*
X170000500Y-69921155D01*
X170000499Y-69921153D01*
X169972192Y-69778846D01*
X169969737Y-69766503D01*
X169951168Y-69721673D01*
X169909397Y-69620827D01*
X169909390Y-69620814D01*
X169821789Y-69489711D01*
X169821786Y-69489707D01*
X169710292Y-69378213D01*
X169710288Y-69378210D01*
X169579185Y-69290609D01*
X169579172Y-69290602D01*
X169433501Y-69230264D01*
X169433489Y-69230261D01*
X169278845Y-69199500D01*
X169278842Y-69199500D01*
X169121158Y-69199500D01*
X169121155Y-69199500D01*
X168966510Y-69230261D01*
X168966498Y-69230264D01*
X168820827Y-69290602D01*
X168820814Y-69290609D01*
X168689711Y-69378210D01*
X168689707Y-69378213D01*
X168578213Y-69489707D01*
X168578210Y-69489711D01*
X168490609Y-69620814D01*
X168490602Y-69620827D01*
X168430264Y-69766498D01*
X168430261Y-69766510D01*
X168399500Y-69921153D01*
X164492546Y-69921153D01*
X164430104Y-69835208D01*
X164316569Y-69721673D01*
X164283084Y-69660350D01*
X164288068Y-69590658D01*
X164329940Y-69534725D01*
X164360915Y-69517810D01*
X164492331Y-69468796D01*
X164607546Y-69382546D01*
X164693796Y-69267331D01*
X164744091Y-69132483D01*
X164750500Y-69072873D01*
X164750500Y-68593713D01*
X192749500Y-68593713D01*
X192749500Y-68806287D01*
X192782754Y-69016243D01*
X192839117Y-69189711D01*
X192848444Y-69218414D01*
X192944951Y-69407820D01*
X193069890Y-69579786D01*
X193220213Y-69730109D01*
X193392179Y-69855048D01*
X193392181Y-69855049D01*
X193392184Y-69855051D01*
X193581588Y-69951557D01*
X193783757Y-70017246D01*
X193993713Y-70050500D01*
X193993714Y-70050500D01*
X194206286Y-70050500D01*
X194206287Y-70050500D01*
X194416243Y-70017246D01*
X194618412Y-69951557D01*
X194807816Y-69855051D01*
X194912707Y-69778844D01*
X194979786Y-69730109D01*
X194979788Y-69730106D01*
X194979792Y-69730104D01*
X195130104Y-69579792D01*
X195130106Y-69579788D01*
X195130109Y-69579786D01*
X195255048Y-69407820D01*
X195255047Y-69407820D01*
X195255051Y-69407816D01*
X195351557Y-69218412D01*
X195417246Y-69016243D01*
X195450500Y-68806287D01*
X195450500Y-68593713D01*
X195417246Y-68383757D01*
X195351557Y-68181588D01*
X195255051Y-67992184D01*
X195255049Y-67992181D01*
X195255048Y-67992179D01*
X195130109Y-67820213D01*
X194979786Y-67669890D01*
X194807820Y-67544951D01*
X194618414Y-67448444D01*
X194618413Y-67448443D01*
X194618412Y-67448443D01*
X194416243Y-67382754D01*
X194416241Y-67382753D01*
X194416240Y-67382753D01*
X194254957Y-67357208D01*
X194206287Y-67349500D01*
X193993713Y-67349500D01*
X193945042Y-67357208D01*
X193783760Y-67382753D01*
X193581585Y-67448444D01*
X193392179Y-67544951D01*
X193220213Y-67669890D01*
X193069890Y-67820213D01*
X192944951Y-67992179D01*
X192848444Y-68181585D01*
X192782753Y-68383760D01*
X192750272Y-68588841D01*
X192749500Y-68593713D01*
X164750500Y-68593713D01*
X164750499Y-67992184D01*
X164750499Y-67277129D01*
X164750498Y-67277123D01*
X164750497Y-67277116D01*
X164744091Y-67217517D01*
X164729666Y-67178842D01*
X164693797Y-67082671D01*
X164693794Y-67082665D01*
X164647746Y-67021153D01*
X168399500Y-67021153D01*
X168399500Y-67178846D01*
X168430261Y-67333489D01*
X168430264Y-67333501D01*
X168490602Y-67479172D01*
X168490609Y-67479185D01*
X168578210Y-67610288D01*
X168578213Y-67610292D01*
X168689707Y-67721786D01*
X168689711Y-67721789D01*
X168820814Y-67809390D01*
X168820827Y-67809397D01*
X168966498Y-67869735D01*
X168966503Y-67869737D01*
X169121153Y-67900499D01*
X169121156Y-67900500D01*
X169121158Y-67900500D01*
X169278844Y-67900500D01*
X169278845Y-67900499D01*
X169433497Y-67869737D01*
X169553059Y-67820213D01*
X169579172Y-67809397D01*
X169579172Y-67809396D01*
X169579179Y-67809394D01*
X169710289Y-67721789D01*
X169821789Y-67610289D01*
X169909394Y-67479179D01*
X169969737Y-67333497D01*
X170000500Y-67178842D01*
X170000500Y-67021158D01*
X170000500Y-67021155D01*
X170000499Y-67021153D01*
X169989818Y-66967455D01*
X169969737Y-66866503D01*
X169954993Y-66830908D01*
X169909397Y-66720827D01*
X169909390Y-66720814D01*
X169821789Y-66589711D01*
X169821786Y-66589707D01*
X169710292Y-66478213D01*
X169710288Y-66478210D01*
X169579185Y-66390609D01*
X169579172Y-66390602D01*
X169433501Y-66330264D01*
X169433489Y-66330261D01*
X169278845Y-66299500D01*
X169278842Y-66299500D01*
X169121158Y-66299500D01*
X169121155Y-66299500D01*
X168966510Y-66330261D01*
X168966498Y-66330264D01*
X168820827Y-66390602D01*
X168820814Y-66390609D01*
X168689711Y-66478210D01*
X168689707Y-66478213D01*
X168578213Y-66589707D01*
X168578210Y-66589711D01*
X168490609Y-66720814D01*
X168490602Y-66720827D01*
X168430264Y-66866498D01*
X168430261Y-66866510D01*
X168399500Y-67021153D01*
X164647746Y-67021153D01*
X164636509Y-67006143D01*
X164607546Y-66967454D01*
X164607544Y-66967453D01*
X164607544Y-66967452D01*
X164492335Y-66881206D01*
X164492328Y-66881202D01*
X164357482Y-66830908D01*
X164357483Y-66830908D01*
X164297883Y-66824501D01*
X164297881Y-66824500D01*
X164297873Y-66824500D01*
X164297864Y-66824500D01*
X162502129Y-66824500D01*
X162502123Y-66824501D01*
X162442516Y-66830908D01*
X162307671Y-66881202D01*
X162307664Y-66881206D01*
X162192455Y-66967452D01*
X162192452Y-66967455D01*
X162106206Y-67082664D01*
X162106202Y-67082671D01*
X162055908Y-67217517D01*
X162052260Y-67251454D01*
X162049501Y-67277123D01*
X162049500Y-67277135D01*
X160541005Y-67277135D01*
X160571780Y-67109197D01*
X160575364Y-67094663D01*
X160579101Y-67082671D01*
X160660696Y-66820822D01*
X160665998Y-66806841D01*
X160783731Y-66545249D01*
X160790676Y-66532016D01*
X160939080Y-66286526D01*
X160947567Y-66274230D01*
X161124480Y-66048417D01*
X161134395Y-66037226D01*
X161337226Y-65834395D01*
X161348417Y-65824480D01*
X161574230Y-65647567D01*
X161586526Y-65639080D01*
X161832016Y-65490676D01*
X161845249Y-65483731D01*
X162106841Y-65365998D01*
X162120822Y-65360696D01*
X162394668Y-65275362D01*
X162409197Y-65271780D01*
X162691344Y-65220075D01*
X162706201Y-65218271D01*
X162996264Y-65200726D01*
X163003751Y-65200500D01*
X163065892Y-65200500D01*
X194934108Y-65200500D01*
X194996249Y-65200500D01*
X195003736Y-65200726D01*
G37*
G04 #@! TD.AperFunction*
M02*
