G04 #@! TF.GenerationSoftware,KiCad,Pcbnew,9.0.3*
G04 #@! TF.CreationDate,2025-11-20T17:31:48-06:00*
G04 #@! TF.ProjectId,DAQ_module,4441515f-6d6f-4647-956c-652e6b696361,rev?*
G04 #@! TF.SameCoordinates,Original*
G04 #@! TF.FileFunction,Copper,L4,Bot*
G04 #@! TF.FilePolarity,Positive*
%FSLAX46Y46*%
G04 Gerber Fmt 4.6, Leading zero omitted, Abs format (unit mm)*
G04 Created by KiCad (PCBNEW 9.0.3) date 2025-11-20 17:31:48*
%MOMM*%
%LPD*%
G01*
G04 APERTURE LIST*
G04 Aperture macros list*
%AMRoundRect*
0 Rectangle with rounded corners*
0 $1 Rounding radius*
0 $2 $3 $4 $5 $6 $7 $8 $9 X,Y pos of 4 corners*
0 Add a 4 corners polygon primitive as box body*
4,1,4,$2,$3,$4,$5,$6,$7,$8,$9,$2,$3,0*
0 Add four circle primitives for the rounded corners*
1,1,$1+$1,$2,$3*
1,1,$1+$1,$4,$5*
1,1,$1+$1,$6,$7*
1,1,$1+$1,$8,$9*
0 Add four rect primitives between the rounded corners*
20,1,$1+$1,$2,$3,$4,$5,0*
20,1,$1+$1,$4,$5,$6,$7,0*
20,1,$1+$1,$6,$7,$8,$9,0*
20,1,$1+$1,$8,$9,$2,$3,0*%
G04 Aperture macros list end*
G04 #@! TA.AperFunction,ComponentPad*
%ADD10R,1.700000X1.700000*%
G04 #@! TD*
G04 #@! TA.AperFunction,ComponentPad*
%ADD11C,1.700000*%
G04 #@! TD*
G04 #@! TA.AperFunction,SMDPad,CuDef*
%ADD12RoundRect,0.225000X0.225000X0.250000X-0.225000X0.250000X-0.225000X-0.250000X0.225000X-0.250000X0*%
G04 #@! TD*
G04 #@! TA.AperFunction,SMDPad,CuDef*
%ADD13RoundRect,0.225000X0.250000X-0.225000X0.250000X0.225000X-0.250000X0.225000X-0.250000X-0.225000X0*%
G04 #@! TD*
G04 #@! TA.AperFunction,SMDPad,CuDef*
%ADD14RoundRect,0.250000X-0.475000X0.250000X-0.475000X-0.250000X0.475000X-0.250000X0.475000X0.250000X0*%
G04 #@! TD*
G04 #@! TA.AperFunction,SMDPad,CuDef*
%ADD15RoundRect,0.225000X-0.225000X-0.250000X0.225000X-0.250000X0.225000X0.250000X-0.225000X0.250000X0*%
G04 #@! TD*
G04 #@! TA.AperFunction,SMDPad,CuDef*
%ADD16RoundRect,0.250000X1.100000X-0.325000X1.100000X0.325000X-1.100000X0.325000X-1.100000X-0.325000X0*%
G04 #@! TD*
G04 #@! TA.AperFunction,SMDPad,CuDef*
%ADD17RoundRect,0.225000X-0.250000X0.225000X-0.250000X-0.225000X0.250000X-0.225000X0.250000X0.225000X0*%
G04 #@! TD*
G04 #@! TA.AperFunction,SMDPad,CuDef*
%ADD18RoundRect,0.200000X0.275000X-0.200000X0.275000X0.200000X-0.275000X0.200000X-0.275000X-0.200000X0*%
G04 #@! TD*
G04 #@! TA.AperFunction,ViaPad*
%ADD19C,0.700000*%
G04 #@! TD*
G04 #@! TA.AperFunction,ViaPad*
%ADD20C,0.600000*%
G04 #@! TD*
G04 #@! TA.AperFunction,Conductor*
%ADD21C,0.300000*%
G04 #@! TD*
G04 #@! TA.AperFunction,Conductor*
%ADD22C,0.200000*%
G04 #@! TD*
G04 APERTURE END LIST*
D10*
X193900000Y-88500000D03*
D11*
X193900000Y-91040000D03*
X193900000Y-93580000D03*
X193900000Y-96120000D03*
X193900000Y-98660000D03*
X193900000Y-101200000D03*
X193900000Y-103740000D03*
X193900000Y-106280000D03*
X193900000Y-108820000D03*
X193900000Y-111360000D03*
D10*
X163400000Y-68175000D03*
D11*
X163400000Y-70715000D03*
X163400000Y-73255000D03*
X163400000Y-75795000D03*
X163400000Y-78335000D03*
X163400000Y-80875000D03*
X163400000Y-83415000D03*
X163400000Y-85955000D03*
X163400000Y-88495000D03*
X163400000Y-91035000D03*
X163400000Y-93575000D03*
X163400000Y-96115000D03*
X163400000Y-98655000D03*
X163400000Y-101195000D03*
X163400000Y-103735000D03*
X163400000Y-106275000D03*
X163400000Y-108815000D03*
X163400000Y-111355000D03*
X163400000Y-113895000D03*
X163400000Y-116435000D03*
D12*
X171975000Y-81600000D03*
X170425000Y-81600000D03*
D13*
X185225000Y-99600000D03*
X185225000Y-98050000D03*
D12*
X188725000Y-81390000D03*
X187175000Y-81390000D03*
X172075000Y-70045000D03*
X170525000Y-70045000D03*
D14*
X184975000Y-85350000D03*
X184975000Y-87250000D03*
D15*
X181150000Y-81400000D03*
X182700000Y-81400000D03*
D12*
X172075000Y-67125000D03*
X170525000Y-67125000D03*
X172050000Y-72945000D03*
X170500000Y-72945000D03*
D16*
X186500000Y-74975000D03*
X186500000Y-72025000D03*
D12*
X171975000Y-75800000D03*
X170425000Y-75800000D03*
X171950000Y-87400000D03*
X170400000Y-87400000D03*
X171950000Y-84500000D03*
X170400000Y-84500000D03*
D13*
X185125000Y-107050000D03*
X185125000Y-105500000D03*
D17*
X185200000Y-115925000D03*
X185200000Y-117475000D03*
D12*
X171975000Y-78700000D03*
X170425000Y-78700000D03*
D18*
X186000000Y-78500000D03*
X186000000Y-76850000D03*
D19*
X191500000Y-83100000D03*
D20*
X174200000Y-107600000D03*
X173600000Y-72900000D03*
D19*
X189500000Y-119100000D03*
X177500000Y-103100000D03*
X179500000Y-103100000D03*
X177500000Y-111100000D03*
D20*
X166200000Y-112200000D03*
D19*
X193500000Y-81100000D03*
D20*
X173700000Y-75800000D03*
D19*
X175500000Y-119100000D03*
X193500000Y-77100000D03*
X177500000Y-119100000D03*
X179500000Y-111100000D03*
X191500000Y-85100000D03*
X191500000Y-73100000D03*
D20*
X173700000Y-87450000D03*
D19*
X193500000Y-115100000D03*
X191500000Y-77100000D03*
X191500000Y-79100000D03*
X193500000Y-75100000D03*
X181500000Y-119100000D03*
X193500000Y-73100000D03*
X191500000Y-75100000D03*
X189500000Y-95100000D03*
X193500000Y-83100000D03*
X173500000Y-103100000D03*
X193500000Y-79100000D03*
X179500000Y-119100000D03*
D20*
X173500000Y-70500000D03*
X173300000Y-81600000D03*
D19*
X193500000Y-85100000D03*
X175500000Y-103100000D03*
D20*
X173450000Y-84650000D03*
D19*
X173500000Y-119100000D03*
D20*
X173600000Y-78800000D03*
D19*
X191500000Y-81100000D03*
D20*
X183200000Y-79900000D03*
X166900000Y-91600000D03*
X184600000Y-69700000D03*
X189000000Y-79900000D03*
X179900000Y-95600000D03*
X185300000Y-114400000D03*
X185300000Y-101400000D03*
X185300000Y-108900000D03*
X183675000Y-88400000D03*
X189800000Y-101200000D03*
X189700000Y-114600000D03*
X189600000Y-107100000D03*
X190100000Y-109300000D03*
X189200000Y-103400000D03*
X169200000Y-67100000D03*
X169200000Y-70000000D03*
X169200000Y-72945000D03*
X169200000Y-75800000D03*
X169100000Y-78700000D03*
X169100000Y-81600000D03*
X169100000Y-84500000D03*
X169100000Y-87400000D03*
D21*
X183200000Y-79900000D02*
X183200000Y-80900000D01*
X183200000Y-80900000D02*
X182700000Y-81400000D01*
X189000000Y-81115000D02*
X188725000Y-81390000D01*
X186400000Y-78500000D02*
X187800000Y-79900000D01*
X187800000Y-79900000D02*
X189000000Y-79900000D01*
X189000000Y-79900000D02*
X189000000Y-81115000D01*
X186000000Y-78500000D02*
X186400000Y-78500000D01*
D22*
X185300000Y-108600000D02*
X185300000Y-108900000D01*
X185200000Y-114500000D02*
X185300000Y-114400000D01*
X185125000Y-108425000D02*
X185125000Y-107050000D01*
X185200000Y-115925000D02*
X185200000Y-114500000D01*
X185225000Y-101325000D02*
X185300000Y-101400000D01*
X185225000Y-99600000D02*
X185225000Y-101325000D01*
X185125000Y-108425000D02*
X185300000Y-108600000D01*
X184975000Y-87250000D02*
X184825000Y-87250000D01*
X184825000Y-87250000D02*
X183675000Y-88400000D01*
D21*
X186500000Y-76350000D02*
X186000000Y-76850000D01*
X186500000Y-74975000D02*
X186500000Y-76350000D01*
D22*
X189800000Y-101200000D02*
X193900000Y-101200000D01*
X193900000Y-108820000D02*
X189700000Y-113020000D01*
X189700000Y-113020000D02*
X189700000Y-114600000D01*
X193560000Y-103740000D02*
X193900000Y-103740000D01*
X191500000Y-105800000D02*
X193560000Y-103740000D01*
X190100000Y-109300000D02*
X191500000Y-107900000D01*
X191500000Y-107900000D02*
X191500000Y-105800000D01*
X189200000Y-103400000D02*
X189540000Y-103740000D01*
X189540000Y-103740000D02*
X193900000Y-103740000D01*
X170500000Y-67100000D02*
X170525000Y-67125000D01*
X169200000Y-67100000D02*
X170500000Y-67100000D01*
X170480000Y-70000000D02*
X170525000Y-70045000D01*
X169200000Y-70000000D02*
X170480000Y-70000000D01*
X169200000Y-72945000D02*
X170500000Y-72945000D01*
X170455000Y-72900000D02*
X170500000Y-72945000D01*
X170325000Y-75900000D02*
X170425000Y-75800000D01*
X169200000Y-75800000D02*
X170425000Y-75800000D01*
X169100000Y-78700000D02*
X170425000Y-78700000D01*
X169100000Y-81600000D02*
X170425000Y-81600000D01*
X169100000Y-84500000D02*
X170400000Y-84500000D01*
X169100000Y-87400000D02*
X170400000Y-87400000D01*
G04 #@! TA.AperFunction,Conductor*
G36*
X195003736Y-65200726D02*
G01*
X195293796Y-65218271D01*
X195308659Y-65220076D01*
X195590798Y-65271780D01*
X195605335Y-65275363D01*
X195879172Y-65360695D01*
X195893163Y-65366000D01*
X196154743Y-65483727D01*
X196167989Y-65490680D01*
X196413465Y-65639075D01*
X196425776Y-65647573D01*
X196651573Y-65824473D01*
X196662781Y-65834403D01*
X196865596Y-66037218D01*
X196875526Y-66048426D01*
X197004819Y-66213457D01*
X197052422Y-66274217D01*
X197060926Y-66286537D01*
X197171660Y-66469714D01*
X197209316Y-66532004D01*
X197216275Y-66545263D01*
X197333997Y-66806831D01*
X197339306Y-66820832D01*
X197424635Y-67094663D01*
X197428219Y-67109201D01*
X197479923Y-67391340D01*
X197481728Y-67406205D01*
X197499274Y-67696263D01*
X197499500Y-67703750D01*
X197499500Y-120196249D01*
X197499274Y-120203736D01*
X197481728Y-120493794D01*
X197479923Y-120508659D01*
X197428219Y-120790798D01*
X197424635Y-120805336D01*
X197339306Y-121079167D01*
X197333997Y-121093168D01*
X197216275Y-121354736D01*
X197209316Y-121367995D01*
X197060928Y-121613459D01*
X197052422Y-121625782D01*
X196875526Y-121851573D01*
X196865596Y-121862781D01*
X196662781Y-122065596D01*
X196651573Y-122075526D01*
X196425782Y-122252422D01*
X196413459Y-122260928D01*
X196167995Y-122409316D01*
X196154736Y-122416275D01*
X195893168Y-122533997D01*
X195879167Y-122539306D01*
X195605336Y-122624635D01*
X195590798Y-122628219D01*
X195308659Y-122679923D01*
X195293794Y-122681728D01*
X195003736Y-122699274D01*
X194996249Y-122699500D01*
X163003751Y-122699500D01*
X162996264Y-122699274D01*
X162706205Y-122681728D01*
X162691340Y-122679923D01*
X162409201Y-122628219D01*
X162394663Y-122624635D01*
X162120832Y-122539306D01*
X162106831Y-122533997D01*
X161845263Y-122416275D01*
X161832004Y-122409316D01*
X161586540Y-122260928D01*
X161574217Y-122252422D01*
X161348426Y-122075526D01*
X161337218Y-122065596D01*
X161134403Y-121862781D01*
X161124473Y-121851573D01*
X160947573Y-121625776D01*
X160939075Y-121613465D01*
X160790680Y-121367989D01*
X160783727Y-121354743D01*
X160666000Y-121093163D01*
X160660693Y-121079167D01*
X160575364Y-120805336D01*
X160571780Y-120790798D01*
X160520076Y-120508659D01*
X160518271Y-120493794D01*
X160500726Y-120203736D01*
X160500500Y-120196249D01*
X160500500Y-118293713D01*
X169049500Y-118293713D01*
X169049500Y-118506286D01*
X169082753Y-118716239D01*
X169082753Y-118716241D01*
X169082754Y-118716243D01*
X169144503Y-118906287D01*
X169148444Y-118918414D01*
X169244951Y-119107820D01*
X169369890Y-119279786D01*
X169520213Y-119430109D01*
X169692179Y-119555048D01*
X169692181Y-119555049D01*
X169692184Y-119555051D01*
X169881588Y-119651557D01*
X170083757Y-119717246D01*
X170293713Y-119750500D01*
X170293714Y-119750500D01*
X170506286Y-119750500D01*
X170506287Y-119750500D01*
X170716243Y-119717246D01*
X170918412Y-119651557D01*
X171107816Y-119555051D01*
X171129789Y-119539086D01*
X171279786Y-119430109D01*
X171279788Y-119430106D01*
X171279792Y-119430104D01*
X171430104Y-119279792D01*
X171430106Y-119279788D01*
X171430109Y-119279786D01*
X171555048Y-119107820D01*
X171555047Y-119107820D01*
X171555051Y-119107816D01*
X171651557Y-118918412D01*
X171717246Y-118716243D01*
X171720814Y-118693713D01*
X192749500Y-118693713D01*
X192749500Y-118906287D01*
X192751421Y-118918414D01*
X192782753Y-119116239D01*
X192848444Y-119318414D01*
X192944951Y-119507820D01*
X193069890Y-119679786D01*
X193220213Y-119830109D01*
X193392179Y-119955048D01*
X193392181Y-119955049D01*
X193392184Y-119955051D01*
X193581588Y-120051557D01*
X193783757Y-120117246D01*
X193993713Y-120150500D01*
X193993714Y-120150500D01*
X194206286Y-120150500D01*
X194206287Y-120150500D01*
X194416243Y-120117246D01*
X194618412Y-120051557D01*
X194807816Y-119955051D01*
X194829789Y-119939086D01*
X194979786Y-119830109D01*
X194979788Y-119830106D01*
X194979792Y-119830104D01*
X195130104Y-119679792D01*
X195130106Y-119679788D01*
X195130109Y-119679786D01*
X195255048Y-119507820D01*
X195255047Y-119507820D01*
X195255051Y-119507816D01*
X195351557Y-119318412D01*
X195417246Y-119116243D01*
X195450500Y-118906287D01*
X195450500Y-118693713D01*
X195417246Y-118483757D01*
X195351557Y-118281588D01*
X195255051Y-118092184D01*
X195255049Y-118092181D01*
X195255048Y-118092179D01*
X195130109Y-117920213D01*
X194979786Y-117769890D01*
X194807820Y-117644951D01*
X194618414Y-117548444D01*
X194618413Y-117548443D01*
X194618412Y-117548443D01*
X194416243Y-117482754D01*
X194416241Y-117482753D01*
X194416240Y-117482753D01*
X194254957Y-117457208D01*
X194206287Y-117449500D01*
X193993713Y-117449500D01*
X193945042Y-117457208D01*
X193783760Y-117482753D01*
X193581585Y-117548444D01*
X193392179Y-117644951D01*
X193220213Y-117769890D01*
X193069890Y-117920213D01*
X192944951Y-118092179D01*
X192848444Y-118281585D01*
X192782753Y-118483760D01*
X192753344Y-118669441D01*
X192749500Y-118693713D01*
X171720814Y-118693713D01*
X171750500Y-118506287D01*
X171750500Y-118293713D01*
X171717246Y-118083757D01*
X171651557Y-117881588D01*
X171583655Y-117748322D01*
X184225001Y-117748322D01*
X184235144Y-117847607D01*
X184288452Y-118008481D01*
X184288457Y-118008492D01*
X184377424Y-118152728D01*
X184377427Y-118152732D01*
X184497267Y-118272572D01*
X184497271Y-118272575D01*
X184641507Y-118361542D01*
X184641518Y-118361547D01*
X184802393Y-118414855D01*
X184901683Y-118424999D01*
X185450000Y-118424999D01*
X185498308Y-118424999D01*
X185498322Y-118424998D01*
X185597607Y-118414855D01*
X185758481Y-118361547D01*
X185758492Y-118361542D01*
X185902728Y-118272575D01*
X185902732Y-118272572D01*
X186022572Y-118152732D01*
X186022575Y-118152728D01*
X186111542Y-118008492D01*
X186111547Y-118008481D01*
X186164855Y-117847606D01*
X186174999Y-117748322D01*
X186175000Y-117748309D01*
X186175000Y-117725000D01*
X185450000Y-117725000D01*
X185450000Y-118424999D01*
X184901683Y-118424999D01*
X184949999Y-118424998D01*
X184950000Y-118424998D01*
X184950000Y-117725000D01*
X184225001Y-117725000D01*
X184225001Y-117748322D01*
X171583655Y-117748322D01*
X171555051Y-117692184D01*
X171547023Y-117681134D01*
X171430109Y-117520213D01*
X171279786Y-117369890D01*
X171107820Y-117244951D01*
X170918414Y-117148444D01*
X170918413Y-117148443D01*
X170918412Y-117148443D01*
X170716243Y-117082754D01*
X170716241Y-117082753D01*
X170716240Y-117082753D01*
X170554957Y-117057208D01*
X170506287Y-117049500D01*
X170293713Y-117049500D01*
X170245042Y-117057208D01*
X170083760Y-117082753D01*
X169881585Y-117148444D01*
X169692179Y-117244951D01*
X169520213Y-117369890D01*
X169369890Y-117520213D01*
X169244951Y-117692179D01*
X169148444Y-117881585D01*
X169082753Y-118083760D01*
X169049500Y-118293713D01*
X160500500Y-118293713D01*
X160500500Y-67703750D01*
X160500726Y-67696263D01*
X160501486Y-67683697D01*
X160518271Y-67406201D01*
X160520076Y-67391340D01*
X160541005Y-67277135D01*
X162049500Y-67277135D01*
X162049500Y-69072870D01*
X162049501Y-69072876D01*
X162055908Y-69132483D01*
X162106202Y-69267328D01*
X162106206Y-69267335D01*
X162192452Y-69382544D01*
X162192455Y-69382547D01*
X162307664Y-69468793D01*
X162307671Y-69468797D01*
X162439082Y-69517810D01*
X162495016Y-69559681D01*
X162519433Y-69625145D01*
X162504582Y-69693418D01*
X162483431Y-69721673D01*
X162369889Y-69835215D01*
X162244951Y-70007179D01*
X162148444Y-70196585D01*
X162082753Y-70398760D01*
X162066639Y-70500500D01*
X162049500Y-70608713D01*
X162049500Y-70821287D01*
X162056831Y-70867572D01*
X162079444Y-71010349D01*
X162082754Y-71031243D01*
X162107591Y-71107684D01*
X162148444Y-71233414D01*
X162244951Y-71422820D01*
X162369890Y-71594786D01*
X162520213Y-71745109D01*
X162692182Y-71870050D01*
X162700946Y-71874516D01*
X162751742Y-71922491D01*
X162768536Y-71990312D01*
X162745998Y-72056447D01*
X162700946Y-72095484D01*
X162692182Y-72099949D01*
X162520213Y-72224890D01*
X162369890Y-72375213D01*
X162244951Y-72547179D01*
X162148444Y-72736585D01*
X162082753Y-72938760D01*
X162049500Y-73148713D01*
X162049500Y-73361286D01*
X162082048Y-73566789D01*
X162082754Y-73571243D01*
X162146546Y-73767575D01*
X162148444Y-73773414D01*
X162244951Y-73962820D01*
X162369890Y-74134786D01*
X162520213Y-74285109D01*
X162692182Y-74410050D01*
X162700946Y-74414516D01*
X162751742Y-74462491D01*
X162768536Y-74530312D01*
X162745998Y-74596447D01*
X162700946Y-74635484D01*
X162692182Y-74639949D01*
X162520213Y-74764890D01*
X162369890Y-74915213D01*
X162244951Y-75087179D01*
X162148444Y-75276585D01*
X162082753Y-75478760D01*
X162049500Y-75688713D01*
X162049500Y-75901286D01*
X162082154Y-76107460D01*
X162082754Y-76111243D01*
X162147429Y-76310292D01*
X162148444Y-76313414D01*
X162244951Y-76502820D01*
X162369890Y-76674786D01*
X162520213Y-76825109D01*
X162692182Y-76950050D01*
X162700946Y-76954516D01*
X162751742Y-77002491D01*
X162768536Y-77070312D01*
X162745998Y-77136447D01*
X162700946Y-77175484D01*
X162692182Y-77179949D01*
X162520213Y-77304890D01*
X162369890Y-77455213D01*
X162244951Y-77627179D01*
X162148444Y-77816585D01*
X162082753Y-78018760D01*
X162049500Y-78228713D01*
X162049500Y-78441286D01*
X162082753Y-78651239D01*
X162148444Y-78853414D01*
X162244951Y-79042820D01*
X162369890Y-79214786D01*
X162520213Y-79365109D01*
X162692182Y-79490050D01*
X162700946Y-79494516D01*
X162751742Y-79542491D01*
X162768536Y-79610312D01*
X162745998Y-79676447D01*
X162700946Y-79715484D01*
X162692182Y-79719949D01*
X162520213Y-79844890D01*
X162369890Y-79995213D01*
X162244951Y-80167179D01*
X162148444Y-80356585D01*
X162082753Y-80558760D01*
X162049500Y-80768713D01*
X162049500Y-80981286D01*
X162076221Y-81150000D01*
X162082754Y-81191243D01*
X162128854Y-81333125D01*
X162148444Y-81393414D01*
X162244951Y-81582820D01*
X162369890Y-81754786D01*
X162520213Y-81905109D01*
X162692182Y-82030050D01*
X162700946Y-82034516D01*
X162751742Y-82082491D01*
X162768536Y-82150312D01*
X162745998Y-82216447D01*
X162700946Y-82255484D01*
X162692182Y-82259949D01*
X162520213Y-82384890D01*
X162369890Y-82535213D01*
X162244951Y-82707179D01*
X162148444Y-82896585D01*
X162082753Y-83098760D01*
X162049500Y-83308713D01*
X162049500Y-83521286D01*
X162082598Y-83730263D01*
X162082754Y-83731243D01*
X162102579Y-83792259D01*
X162148444Y-83933414D01*
X162244951Y-84122820D01*
X162369890Y-84294786D01*
X162520213Y-84445109D01*
X162692182Y-84570050D01*
X162700946Y-84574516D01*
X162751742Y-84622491D01*
X162768536Y-84690312D01*
X162745998Y-84756447D01*
X162700946Y-84795484D01*
X162692182Y-84799949D01*
X162520213Y-84924890D01*
X162369890Y-85075213D01*
X162244951Y-85247179D01*
X162148444Y-85436585D01*
X162082753Y-85638760D01*
X162049500Y-85848713D01*
X162049500Y-86061286D01*
X162070253Y-86192319D01*
X162082754Y-86271243D01*
X162135848Y-86434650D01*
X162148444Y-86473414D01*
X162244951Y-86662820D01*
X162369890Y-86834786D01*
X162520213Y-86985109D01*
X162692179Y-87110048D01*
X162692181Y-87110049D01*
X162692184Y-87110051D01*
X162701493Y-87114794D01*
X162752290Y-87162766D01*
X162769087Y-87230587D01*
X162746552Y-87296722D01*
X162701505Y-87335760D01*
X162692446Y-87340376D01*
X162692440Y-87340380D01*
X162638282Y-87379727D01*
X162638282Y-87379728D01*
X163270591Y-88012037D01*
X163207007Y-88029075D01*
X163092993Y-88094901D01*
X162999901Y-88187993D01*
X162934075Y-88302007D01*
X162917037Y-88365591D01*
X162284728Y-87733282D01*
X162284727Y-87733282D01*
X162245380Y-87787439D01*
X162148904Y-87976782D01*
X162083242Y-88178869D01*
X162083242Y-88178872D01*
X162050000Y-88388753D01*
X162050000Y-88601246D01*
X162083242Y-88811127D01*
X162083242Y-88811130D01*
X162148904Y-89013217D01*
X162245375Y-89202550D01*
X162284728Y-89256716D01*
X162917037Y-88624408D01*
X162934075Y-88687993D01*
X162999901Y-88802007D01*
X163092993Y-88895099D01*
X163207007Y-88960925D01*
X163270591Y-88977962D01*
X162669971Y-89578581D01*
X162748711Y-89695895D01*
X162749920Y-89699729D01*
X162752844Y-89702491D01*
X162760343Y-89732778D01*
X162769727Y-89762529D01*
X162768671Y-89766408D01*
X162769638Y-89770312D01*
X162759573Y-89799844D01*
X162751383Y-89829947D01*
X162748397Y-89832640D01*
X162747100Y-89836447D01*
X162702051Y-89875483D01*
X162692440Y-89880380D01*
X162638282Y-89919727D01*
X162638282Y-89919728D01*
X163270591Y-90552037D01*
X163207007Y-90569075D01*
X163092993Y-90634901D01*
X162999901Y-90727993D01*
X162934075Y-90842007D01*
X162917037Y-90905591D01*
X162284728Y-90273282D01*
X162284727Y-90273282D01*
X162245380Y-90327439D01*
X162148904Y-90516782D01*
X162083242Y-90718869D01*
X162083242Y-90718872D01*
X162050000Y-90928753D01*
X162050000Y-91141246D01*
X162083242Y-91351127D01*
X162083242Y-91351130D01*
X162148904Y-91553217D01*
X162245375Y-91742550D01*
X162284728Y-91796716D01*
X162917037Y-91164408D01*
X162934075Y-91227993D01*
X162999901Y-91342007D01*
X163092993Y-91435099D01*
X163207007Y-91500925D01*
X163270590Y-91517962D01*
X162638282Y-92150269D01*
X162638282Y-92150270D01*
X162692452Y-92189626D01*
X162692451Y-92189626D01*
X162701495Y-92194234D01*
X162752292Y-92242208D01*
X162769087Y-92310029D01*
X162746550Y-92376164D01*
X162701499Y-92415202D01*
X162692182Y-92419949D01*
X162520213Y-92544890D01*
X162369890Y-92695213D01*
X162244951Y-92867179D01*
X162148444Y-93056585D01*
X162082753Y-93258760D01*
X162049500Y-93468713D01*
X162049500Y-93681287D01*
X162082754Y-93891243D01*
X162084377Y-93896239D01*
X162148444Y-94093414D01*
X162244951Y-94282820D01*
X162369890Y-94454786D01*
X162520213Y-94605109D01*
X162692179Y-94730048D01*
X162692181Y-94730049D01*
X162692184Y-94730051D01*
X162701493Y-94734794D01*
X162752290Y-94782766D01*
X162769087Y-94850587D01*
X162746552Y-94916722D01*
X162701505Y-94955760D01*
X162692446Y-94960376D01*
X162692440Y-94960380D01*
X162638282Y-94999727D01*
X162638282Y-94999728D01*
X163270591Y-95632037D01*
X163207007Y-95649075D01*
X163092993Y-95714901D01*
X162999901Y-95807993D01*
X162934075Y-95922007D01*
X162917037Y-95985591D01*
X162284728Y-95353282D01*
X162284727Y-95353282D01*
X162245380Y-95407439D01*
X162148904Y-95596782D01*
X162083242Y-95798869D01*
X162083242Y-95798872D01*
X162050000Y-96008753D01*
X162050000Y-96221246D01*
X162083242Y-96431127D01*
X162083242Y-96431130D01*
X162148904Y-96633217D01*
X162245375Y-96822550D01*
X162284728Y-96876716D01*
X162917037Y-96244408D01*
X162934075Y-96307993D01*
X162999901Y-96422007D01*
X163092993Y-96515099D01*
X163207007Y-96580925D01*
X163270591Y-96597962D01*
X162669971Y-97198581D01*
X162748711Y-97315895D01*
X162749920Y-97319729D01*
X162752844Y-97322491D01*
X162760343Y-97352778D01*
X162769727Y-97382529D01*
X162768671Y-97386408D01*
X162769638Y-97390312D01*
X162759573Y-97419844D01*
X162751383Y-97449947D01*
X162748397Y-97452640D01*
X162747100Y-97456447D01*
X162702051Y-97495483D01*
X162692440Y-97500380D01*
X162638282Y-97539727D01*
X162638282Y-97539728D01*
X163270591Y-98172037D01*
X163207007Y-98189075D01*
X163092993Y-98254901D01*
X162999901Y-98347993D01*
X162934075Y-98462007D01*
X162917037Y-98525591D01*
X162284728Y-97893282D01*
X162284727Y-97893282D01*
X162245380Y-97947439D01*
X162148904Y-98136782D01*
X162083242Y-98338869D01*
X162083242Y-98338872D01*
X162050000Y-98548753D01*
X162050000Y-98761246D01*
X162083242Y-98971127D01*
X162083242Y-98971130D01*
X162148904Y-99173217D01*
X162245375Y-99362550D01*
X162284728Y-99416716D01*
X162917037Y-98784408D01*
X162934075Y-98847993D01*
X162999901Y-98962007D01*
X163092993Y-99055099D01*
X163207007Y-99120925D01*
X163270590Y-99137962D01*
X162638282Y-99770269D01*
X162638282Y-99770270D01*
X162692452Y-99809626D01*
X162692451Y-99809626D01*
X162701495Y-99814234D01*
X162752292Y-99862208D01*
X162769087Y-99930029D01*
X162746550Y-99996164D01*
X162701499Y-100035202D01*
X162692182Y-100039949D01*
X162520213Y-100164890D01*
X162369890Y-100315213D01*
X162244951Y-100487179D01*
X162148444Y-100676585D01*
X162082753Y-100878760D01*
X162081019Y-100889711D01*
X162049500Y-101088713D01*
X162049500Y-101301287D01*
X162052647Y-101321155D01*
X162077622Y-101478846D01*
X162082754Y-101511243D01*
X162147429Y-101710292D01*
X162148444Y-101713414D01*
X162244951Y-101902820D01*
X162369890Y-102074786D01*
X162520213Y-102225109D01*
X162692182Y-102350050D01*
X162700946Y-102354516D01*
X162751742Y-102402491D01*
X162768536Y-102470312D01*
X162745998Y-102536447D01*
X162700946Y-102575484D01*
X162692182Y-102579949D01*
X162520213Y-102704890D01*
X162369890Y-102855213D01*
X162244951Y-103027179D01*
X162148444Y-103216585D01*
X162082753Y-103418760D01*
X162049500Y-103628713D01*
X162049500Y-103841287D01*
X162082754Y-104051243D01*
X162131515Y-104201314D01*
X162148444Y-104253414D01*
X162244951Y-104442820D01*
X162369890Y-104614786D01*
X162520213Y-104765109D01*
X162692182Y-104890050D01*
X162700946Y-104894516D01*
X162751742Y-104942491D01*
X162768536Y-105010312D01*
X162745998Y-105076447D01*
X162700946Y-105115484D01*
X162692182Y-105119949D01*
X162520213Y-105244890D01*
X162369890Y-105395213D01*
X162244951Y-105567179D01*
X162148444Y-105756585D01*
X162082753Y-105958760D01*
X162050405Y-106162997D01*
X162049500Y-106168713D01*
X162049500Y-106381287D01*
X162059534Y-106444644D01*
X162082510Y-106589707D01*
X162082754Y-106591243D01*
X162142998Y-106776655D01*
X162148444Y-106793414D01*
X162244951Y-106982820D01*
X162369890Y-107154786D01*
X162520213Y-107305109D01*
X162692182Y-107430050D01*
X162700946Y-107434516D01*
X162751742Y-107482491D01*
X162768536Y-107550312D01*
X162745998Y-107616447D01*
X162700946Y-107655484D01*
X162692182Y-107659949D01*
X162520213Y-107784890D01*
X162369890Y-107935213D01*
X162244951Y-108107179D01*
X162148444Y-108296585D01*
X162082753Y-108498760D01*
X162060330Y-108640337D01*
X162049500Y-108708713D01*
X162049500Y-108921287D01*
X162082754Y-109131243D01*
X162130823Y-109279185D01*
X162148444Y-109333414D01*
X162244951Y-109522820D01*
X162369890Y-109694786D01*
X162520213Y-109845109D01*
X162692182Y-109970050D01*
X162700946Y-109974516D01*
X162751742Y-110022491D01*
X162768536Y-110090312D01*
X162745998Y-110156447D01*
X162700946Y-110195484D01*
X162692182Y-110199949D01*
X162520213Y-110324890D01*
X162369890Y-110475213D01*
X162244951Y-110647179D01*
X162148444Y-110836585D01*
X162082753Y-111038760D01*
X162080499Y-111052993D01*
X162049500Y-111248713D01*
X162049500Y-111461287D01*
X162082754Y-111671243D01*
X162144085Y-111860000D01*
X162148444Y-111873414D01*
X162244951Y-112062820D01*
X162369890Y-112234786D01*
X162520213Y-112385109D01*
X162692182Y-112510050D01*
X162700946Y-112514516D01*
X162751742Y-112562491D01*
X162768536Y-112630312D01*
X162745998Y-112696447D01*
X162700946Y-112735484D01*
X162692182Y-112739949D01*
X162520213Y-112864890D01*
X162369890Y-113015213D01*
X162244951Y-113187179D01*
X162148444Y-113376585D01*
X162082753Y-113578760D01*
X162051163Y-113778211D01*
X162049500Y-113788713D01*
X162049500Y-114001287D01*
X162082754Y-114211243D01*
X162133201Y-114366503D01*
X162148444Y-114413414D01*
X162244951Y-114602820D01*
X162369890Y-114774786D01*
X162520213Y-114925109D01*
X162692179Y-115050048D01*
X162692181Y-115050049D01*
X162692184Y-115050051D01*
X162701493Y-115054794D01*
X162752290Y-115102766D01*
X162769087Y-115170587D01*
X162746552Y-115236722D01*
X162701505Y-115275760D01*
X162692446Y-115280376D01*
X162692440Y-115280380D01*
X162638282Y-115319727D01*
X162638282Y-115319728D01*
X163270591Y-115952037D01*
X163207007Y-115969075D01*
X163092993Y-116034901D01*
X162999901Y-116127993D01*
X162934075Y-116242007D01*
X162917037Y-116305591D01*
X162284728Y-115673282D01*
X162284727Y-115673282D01*
X162245380Y-115727439D01*
X162148904Y-115916782D01*
X162083242Y-116118869D01*
X162083242Y-116118872D01*
X162050000Y-116328753D01*
X162050000Y-116541246D01*
X162083242Y-116751127D01*
X162083242Y-116751130D01*
X162148904Y-116953217D01*
X162245375Y-117142550D01*
X162284728Y-117196716D01*
X162917037Y-116564408D01*
X162934075Y-116627993D01*
X162999901Y-116742007D01*
X163092993Y-116835099D01*
X163207007Y-116900925D01*
X163270590Y-116917962D01*
X162638282Y-117550269D01*
X162638282Y-117550270D01*
X162692449Y-117589624D01*
X162881782Y-117686095D01*
X163083870Y-117751757D01*
X163293754Y-117785000D01*
X163506246Y-117785000D01*
X163716127Y-117751757D01*
X163716130Y-117751757D01*
X163918217Y-117686095D01*
X164107554Y-117589622D01*
X164161716Y-117550270D01*
X164161717Y-117550270D01*
X163529408Y-116917962D01*
X163592993Y-116900925D01*
X163707007Y-116835099D01*
X163800099Y-116742007D01*
X163865925Y-116627993D01*
X163882962Y-116564408D01*
X164515270Y-117196717D01*
X164515270Y-117196716D01*
X164554622Y-117142554D01*
X164651095Y-116953217D01*
X164716757Y-116751130D01*
X164716757Y-116751127D01*
X164750000Y-116541246D01*
X164750000Y-116328753D01*
X164716757Y-116118872D01*
X164716757Y-116118869D01*
X164651095Y-115916782D01*
X164554623Y-115727447D01*
X164554621Y-115727443D01*
X164550220Y-115721386D01*
X164550217Y-115721383D01*
X164515270Y-115673282D01*
X164515269Y-115673282D01*
X163882962Y-116305590D01*
X163865925Y-116242007D01*
X163800099Y-116127993D01*
X163707007Y-116034901D01*
X163592993Y-115969075D01*
X163529409Y-115952037D01*
X163829798Y-115651647D01*
X184224500Y-115651647D01*
X184224500Y-116198337D01*
X184224501Y-116198355D01*
X184234650Y-116297707D01*
X184234651Y-116297710D01*
X184287996Y-116458694D01*
X184288001Y-116458705D01*
X184377029Y-116603040D01*
X184377032Y-116603044D01*
X184386660Y-116612672D01*
X184420145Y-116673995D01*
X184415161Y-116743687D01*
X184386663Y-116788031D01*
X184377428Y-116797265D01*
X184377424Y-116797271D01*
X184288457Y-116941507D01*
X184288452Y-116941518D01*
X184235144Y-117102393D01*
X184225000Y-117201677D01*
X184225000Y-117225000D01*
X186174999Y-117225000D01*
X186174999Y-117201692D01*
X186174998Y-117201677D01*
X186164855Y-117102392D01*
X186111547Y-116941518D01*
X186111542Y-116941507D01*
X186022575Y-116797271D01*
X186022572Y-116797267D01*
X186013339Y-116788034D01*
X185979854Y-116726711D01*
X185984838Y-116657019D01*
X186013343Y-116612668D01*
X186022968Y-116603044D01*
X186112003Y-116458697D01*
X186165349Y-116297708D01*
X186175500Y-116198345D01*
X186175499Y-115651656D01*
X186165349Y-115552292D01*
X186112003Y-115391303D01*
X186111999Y-115391297D01*
X186111998Y-115391294D01*
X186022970Y-115246959D01*
X186022969Y-115246958D01*
X186022968Y-115246956D01*
X185903044Y-115127032D01*
X185903043Y-115127031D01*
X185903036Y-115127024D01*
X185901765Y-115126019D01*
X185901120Y-115125108D01*
X185897937Y-115121925D01*
X185898481Y-115121380D01*
X185861392Y-115068995D01*
X185858258Y-114999195D01*
X185891002Y-114941076D01*
X185921786Y-114910292D01*
X185921789Y-114910289D01*
X186009394Y-114779179D01*
X186069737Y-114633497D01*
X186100500Y-114478842D01*
X186100500Y-114321158D01*
X186100500Y-114321155D01*
X186100499Y-114321153D01*
X186080543Y-114220827D01*
X186069737Y-114166503D01*
X186037929Y-114089711D01*
X186009397Y-114020827D01*
X186009390Y-114020814D01*
X185921789Y-113889711D01*
X185921786Y-113889707D01*
X185810292Y-113778213D01*
X185810288Y-113778210D01*
X185679185Y-113690609D01*
X185679172Y-113690602D01*
X185533501Y-113630264D01*
X185533489Y-113630261D01*
X185378845Y-113599500D01*
X185378842Y-113599500D01*
X185221158Y-113599500D01*
X185221155Y-113599500D01*
X185066510Y-113630261D01*
X185066498Y-113630264D01*
X184920827Y-113690602D01*
X184920814Y-113690609D01*
X184789711Y-113778210D01*
X184789707Y-113778213D01*
X184678213Y-113889707D01*
X184678210Y-113889711D01*
X184590609Y-114020814D01*
X184590602Y-114020827D01*
X184530264Y-114166498D01*
X184530261Y-114166510D01*
X184499500Y-114321153D01*
X184499500Y-114478846D01*
X184530261Y-114633489D01*
X184530264Y-114633501D01*
X184590061Y-114777864D01*
X184591687Y-114786040D01*
X184594477Y-114790381D01*
X184599500Y-114825316D01*
X184599500Y-114994574D01*
X184579815Y-115061613D01*
X184540598Y-115100112D01*
X184496957Y-115127030D01*
X184377029Y-115246959D01*
X184288001Y-115391294D01*
X184287996Y-115391305D01*
X184234651Y-115552290D01*
X184224500Y-115651647D01*
X163829798Y-115651647D01*
X164161716Y-115319728D01*
X164107547Y-115280373D01*
X164107547Y-115280372D01*
X164098500Y-115275763D01*
X164047706Y-115227788D01*
X164030912Y-115159966D01*
X164053451Y-115093832D01*
X164098508Y-115054793D01*
X164107816Y-115050051D01*
X164187007Y-114992515D01*
X164279786Y-114925109D01*
X164279788Y-114925106D01*
X164279792Y-114925104D01*
X164430104Y-114774792D01*
X164430106Y-114774788D01*
X164430109Y-114774786D01*
X164555048Y-114602820D01*
X164555047Y-114602820D01*
X164555051Y-114602816D01*
X164651557Y-114413412D01*
X164717246Y-114211243D01*
X164750500Y-114001287D01*
X164750500Y-113788713D01*
X164717246Y-113578757D01*
X164651557Y-113376588D01*
X164555051Y-113187184D01*
X164555049Y-113187181D01*
X164555048Y-113187179D01*
X164430109Y-113015213D01*
X164279786Y-112864890D01*
X164107820Y-112739951D01*
X164107115Y-112739591D01*
X164099054Y-112735485D01*
X164048259Y-112687512D01*
X164031463Y-112619692D01*
X164053999Y-112553556D01*
X164099054Y-112514515D01*
X164107816Y-112510051D01*
X164155690Y-112475269D01*
X164279786Y-112385109D01*
X164279788Y-112385106D01*
X164279792Y-112385104D01*
X164430104Y-112234792D01*
X164430106Y-112234788D01*
X164430109Y-112234786D01*
X164551609Y-112067554D01*
X164555051Y-112062816D01*
X164651557Y-111873412D01*
X164717246Y-111671243D01*
X164750500Y-111461287D01*
X164750500Y-111248713D01*
X164717246Y-111038757D01*
X164651557Y-110836588D01*
X164555051Y-110647184D01*
X164555049Y-110647181D01*
X164555048Y-110647179D01*
X164430109Y-110475213D01*
X164279786Y-110324890D01*
X164107820Y-110199951D01*
X164107115Y-110199591D01*
X164099054Y-110195485D01*
X164048259Y-110147512D01*
X164031463Y-110079692D01*
X164053999Y-110013556D01*
X164099054Y-109974515D01*
X164107816Y-109970051D01*
X164129789Y-109954086D01*
X164279786Y-109845109D01*
X164279788Y-109845106D01*
X164279792Y-109845104D01*
X164430104Y-109694792D01*
X164430106Y-109694788D01*
X164430109Y-109694786D01*
X164555048Y-109522820D01*
X164555047Y-109522820D01*
X164555051Y-109522816D01*
X164651557Y-109333412D01*
X164717246Y-109131243D01*
X164750500Y-108921287D01*
X164750500Y-108708713D01*
X164717246Y-108498757D01*
X164651557Y-108296588D01*
X164555051Y-108107184D01*
X164555049Y-108107181D01*
X164555048Y-108107179D01*
X164430109Y-107935213D01*
X164279786Y-107784890D01*
X164107820Y-107659951D01*
X164107115Y-107659591D01*
X164099054Y-107655485D01*
X164048259Y-107607512D01*
X164031463Y-107539692D01*
X164053999Y-107473556D01*
X164099054Y-107434515D01*
X164107816Y-107430051D01*
X164240707Y-107333501D01*
X164279786Y-107305109D01*
X164279788Y-107305106D01*
X164279792Y-107305104D01*
X164430104Y-107154792D01*
X164430106Y-107154788D01*
X164430109Y-107154786D01*
X164555048Y-106982820D01*
X164555047Y-106982820D01*
X164555051Y-106982816D01*
X164651557Y-106793412D01*
X164657004Y-106776647D01*
X184149500Y-106776647D01*
X184149500Y-107323337D01*
X184149501Y-107323355D01*
X184159650Y-107422707D01*
X184159651Y-107422710D01*
X184212996Y-107583694D01*
X184213001Y-107583705D01*
X184302029Y-107728040D01*
X184302032Y-107728044D01*
X184421956Y-107847968D01*
X184465597Y-107874886D01*
X184512321Y-107926832D01*
X184524500Y-107980424D01*
X184524500Y-108338330D01*
X184524499Y-108338348D01*
X184524499Y-108504058D01*
X184542298Y-108570487D01*
X184540635Y-108640337D01*
X184537086Y-108650027D01*
X184530264Y-108666498D01*
X184530261Y-108666505D01*
X184499500Y-108821153D01*
X184499500Y-108978846D01*
X184530261Y-109133489D01*
X184530264Y-109133501D01*
X184590602Y-109279172D01*
X184590609Y-109279185D01*
X184678210Y-109410288D01*
X184678213Y-109410292D01*
X184789707Y-109521786D01*
X184789711Y-109521789D01*
X184920814Y-109609390D01*
X184920827Y-109609397D01*
X185066498Y-109669735D01*
X185066503Y-109669737D01*
X185217569Y-109699786D01*
X185221153Y-109700499D01*
X185221156Y-109700500D01*
X185221158Y-109700500D01*
X185378844Y-109700500D01*
X185378845Y-109700499D01*
X185533497Y-109669737D01*
X185679179Y-109609394D01*
X185810289Y-109521789D01*
X185921789Y-109410289D01*
X186009394Y-109279179D01*
X186069737Y-109133497D01*
X186100500Y-108978842D01*
X186100500Y-108821158D01*
X186100500Y-108821155D01*
X186100499Y-108821153D01*
X186094244Y-108789707D01*
X186069737Y-108666503D01*
X186069735Y-108666498D01*
X186009397Y-108520827D01*
X186009390Y-108520814D01*
X185921789Y-108389711D01*
X185921786Y-108389707D01*
X185815500Y-108283421D01*
X185804352Y-108270632D01*
X185799669Y-108264453D01*
X185780520Y-108231284D01*
X185755805Y-108206569D01*
X185750671Y-108199794D01*
X185741165Y-108174758D01*
X185728334Y-108151260D01*
X185726789Y-108136897D01*
X185725870Y-108134475D01*
X185726307Y-108132407D01*
X185725500Y-108124902D01*
X185725500Y-107980424D01*
X185745185Y-107913385D01*
X185784402Y-107874886D01*
X185828044Y-107847968D01*
X185947968Y-107728044D01*
X186037003Y-107583697D01*
X186090349Y-107422708D01*
X186100500Y-107323345D01*
X186100499Y-107021153D01*
X188799500Y-107021153D01*
X188799500Y-107178846D01*
X188830261Y-107333489D01*
X188830264Y-107333501D01*
X188890602Y-107479172D01*
X188890609Y-107479185D01*
X188978210Y-107610288D01*
X188978213Y-107610292D01*
X189089707Y-107721786D01*
X189089711Y-107721789D01*
X189220814Y-107809390D01*
X189220827Y-107809397D01*
X189366498Y-107869735D01*
X189366503Y-107869737D01*
X189521153Y-107900499D01*
X189521156Y-107900500D01*
X189521158Y-107900500D01*
X189678844Y-107900500D01*
X189678845Y-107900499D01*
X189833497Y-107869737D01*
X189979179Y-107809394D01*
X190110289Y-107721789D01*
X190221789Y-107610289D01*
X190309394Y-107479179D01*
X190369737Y-107333497D01*
X190400500Y-107178842D01*
X190400500Y-107021158D01*
X190400500Y-107021155D01*
X190400499Y-107021153D01*
X190369738Y-106866510D01*
X190369737Y-106866503D01*
X190332524Y-106776662D01*
X190309397Y-106720827D01*
X190309390Y-106720814D01*
X190221789Y-106589711D01*
X190221786Y-106589707D01*
X190110292Y-106478213D01*
X190110288Y-106478210D01*
X189979185Y-106390609D01*
X189979172Y-106390602D01*
X189833501Y-106330264D01*
X189833489Y-106330261D01*
X189678845Y-106299500D01*
X189678842Y-106299500D01*
X189521158Y-106299500D01*
X189521155Y-106299500D01*
X189366510Y-106330261D01*
X189366498Y-106330264D01*
X189220827Y-106390602D01*
X189220814Y-106390609D01*
X189089711Y-106478210D01*
X189089707Y-106478213D01*
X188978213Y-106589707D01*
X188978210Y-106589711D01*
X188890609Y-106720814D01*
X188890602Y-106720827D01*
X188830264Y-106866498D01*
X188830261Y-106866510D01*
X188799500Y-107021153D01*
X186100499Y-107021153D01*
X186100499Y-106776656D01*
X186094795Y-106720821D01*
X186090349Y-106677292D01*
X186090348Y-106677289D01*
X186061833Y-106591237D01*
X186037003Y-106516303D01*
X186036999Y-106516297D01*
X186036998Y-106516294D01*
X185947970Y-106371959D01*
X185947967Y-106371955D01*
X185938339Y-106362327D01*
X185904854Y-106301004D01*
X185909838Y-106231312D01*
X185938345Y-106186959D01*
X185947573Y-106177731D01*
X186036542Y-106033492D01*
X186036547Y-106033481D01*
X186089855Y-105872606D01*
X186099999Y-105773322D01*
X186100000Y-105773309D01*
X186100000Y-105750000D01*
X184150001Y-105750000D01*
X184150001Y-105773322D01*
X184160144Y-105872607D01*
X184213452Y-106033481D01*
X184213457Y-106033492D01*
X184302424Y-106177728D01*
X184302427Y-106177732D01*
X184311660Y-106186965D01*
X184345145Y-106248288D01*
X184340161Y-106317980D01*
X184311663Y-106362324D01*
X184302033Y-106371953D01*
X184302029Y-106371959D01*
X184213001Y-106516294D01*
X184212996Y-106516305D01*
X184159651Y-106677290D01*
X184149500Y-106776647D01*
X164657004Y-106776647D01*
X164717246Y-106591243D01*
X164750500Y-106381287D01*
X164750500Y-106168713D01*
X164717246Y-105958757D01*
X164651557Y-105756588D01*
X164555051Y-105567184D01*
X164555049Y-105567181D01*
X164555048Y-105567179D01*
X164430109Y-105395213D01*
X164279786Y-105244890D01*
X164254718Y-105226677D01*
X184150000Y-105226677D01*
X184150000Y-105250000D01*
X184875000Y-105250000D01*
X185375000Y-105250000D01*
X186099999Y-105250000D01*
X186099999Y-105226692D01*
X186099998Y-105226677D01*
X186089855Y-105127392D01*
X186036547Y-104966518D01*
X186036542Y-104966507D01*
X185947575Y-104822271D01*
X185947572Y-104822267D01*
X185827732Y-104702427D01*
X185827728Y-104702424D01*
X185683492Y-104613457D01*
X185683481Y-104613452D01*
X185522606Y-104560144D01*
X185423322Y-104550000D01*
X185375000Y-104550000D01*
X185375000Y-105250000D01*
X184875000Y-105250000D01*
X184875000Y-104550000D01*
X184874999Y-104549999D01*
X184826693Y-104550000D01*
X184826675Y-104550001D01*
X184727392Y-104560144D01*
X184566518Y-104613452D01*
X184566507Y-104613457D01*
X184422271Y-104702424D01*
X184422267Y-104702427D01*
X184302427Y-104822267D01*
X184302424Y-104822271D01*
X184213457Y-104966507D01*
X184213452Y-104966518D01*
X184160144Y-105127393D01*
X184150000Y-105226677D01*
X164254718Y-105226677D01*
X164107820Y-105119951D01*
X164107115Y-105119591D01*
X164099054Y-105115485D01*
X164048259Y-105067512D01*
X164031463Y-104999692D01*
X164053999Y-104933556D01*
X164099054Y-104894515D01*
X164107816Y-104890051D01*
X164201108Y-104822271D01*
X164279786Y-104765109D01*
X164279788Y-104765106D01*
X164279792Y-104765104D01*
X164430104Y-104614792D01*
X164430106Y-104614788D01*
X164430109Y-104614786D01*
X164555048Y-104442820D01*
X164555047Y-104442820D01*
X164555051Y-104442816D01*
X164651557Y-104253412D01*
X164717246Y-104051243D01*
X164750500Y-103841287D01*
X164750500Y-103628713D01*
X164717246Y-103418757D01*
X164685532Y-103321153D01*
X188399500Y-103321153D01*
X188399500Y-103478846D01*
X188430261Y-103633489D01*
X188430264Y-103633501D01*
X188490602Y-103779172D01*
X188490609Y-103779185D01*
X188578210Y-103910288D01*
X188578213Y-103910292D01*
X188689707Y-104021786D01*
X188689711Y-104021789D01*
X188820814Y-104109390D01*
X188820827Y-104109397D01*
X188966498Y-104169735D01*
X188966503Y-104169737D01*
X189026736Y-104181718D01*
X189125247Y-104201314D01*
X189163089Y-104218458D01*
X189164245Y-104216457D01*
X189308209Y-104299573D01*
X189308216Y-104299577D01*
X189460943Y-104340501D01*
X189460945Y-104340501D01*
X189626654Y-104340501D01*
X189626670Y-104340500D01*
X191810903Y-104340500D01*
X191877942Y-104360185D01*
X191923697Y-104412989D01*
X191933641Y-104482147D01*
X191904616Y-104545703D01*
X191898586Y-104552177D01*
X191512208Y-104938556D01*
X191131286Y-105319478D01*
X191019481Y-105431282D01*
X191019479Y-105431285D01*
X190969361Y-105518094D01*
X190969359Y-105518096D01*
X190940425Y-105568209D01*
X190940424Y-105568210D01*
X190940423Y-105568215D01*
X190899499Y-105720943D01*
X190899499Y-105720945D01*
X190899499Y-105889046D01*
X190899500Y-105889059D01*
X190899500Y-107599903D01*
X190879815Y-107666942D01*
X190863181Y-107687584D01*
X190085339Y-108465425D01*
X190024016Y-108498910D01*
X190021850Y-108499361D01*
X189866508Y-108530261D01*
X189866498Y-108530264D01*
X189720827Y-108590602D01*
X189720814Y-108590609D01*
X189589711Y-108678210D01*
X189589707Y-108678213D01*
X189478213Y-108789707D01*
X189478210Y-108789711D01*
X189390609Y-108920814D01*
X189390602Y-108920827D01*
X189330264Y-109066498D01*
X189330261Y-109066510D01*
X189299500Y-109221153D01*
X189299500Y-109378846D01*
X189330261Y-109533489D01*
X189330264Y-109533501D01*
X189390602Y-109679172D01*
X189390609Y-109679185D01*
X189478210Y-109810288D01*
X189478213Y-109810292D01*
X189589707Y-109921786D01*
X189589711Y-109921789D01*
X189720814Y-110009390D01*
X189720827Y-110009397D01*
X189858826Y-110066557D01*
X189866503Y-110069737D01*
X189969940Y-110090312D01*
X190021153Y-110100499D01*
X190021156Y-110100500D01*
X190021158Y-110100500D01*
X190178844Y-110100500D01*
X190178845Y-110100499D01*
X190333497Y-110069737D01*
X190447560Y-110022491D01*
X190479172Y-110009397D01*
X190479172Y-110009396D01*
X190479179Y-110009394D01*
X190610289Y-109921789D01*
X190721789Y-109810289D01*
X190809394Y-109679179D01*
X190869737Y-109533497D01*
X190894245Y-109410288D01*
X190900638Y-109378150D01*
X190933023Y-109316239D01*
X190934520Y-109314714D01*
X191858506Y-108390727D01*
X191858511Y-108390724D01*
X191868714Y-108380520D01*
X191868716Y-108380520D01*
X191980520Y-108268716D01*
X192033346Y-108177218D01*
X192034767Y-108174758D01*
X192059574Y-108131790D01*
X192059575Y-108131789D01*
X192059575Y-108131787D01*
X192059577Y-108131785D01*
X192100501Y-107979057D01*
X192100501Y-107820943D01*
X192100501Y-107813348D01*
X192100500Y-107813330D01*
X192100500Y-106100096D01*
X192120185Y-106033057D01*
X192136814Y-106012419D01*
X192408750Y-105740483D01*
X192470070Y-105707001D01*
X192539761Y-105711985D01*
X192595695Y-105753856D01*
X192620112Y-105819321D01*
X192614359Y-105866484D01*
X192582754Y-105963755D01*
X192582753Y-105963759D01*
X192561254Y-106099500D01*
X192549500Y-106173713D01*
X192549500Y-106386287D01*
X192550184Y-106390606D01*
X192581718Y-106589707D01*
X192582754Y-106596243D01*
X192646818Y-106793412D01*
X192648444Y-106798414D01*
X192744951Y-106987820D01*
X192869890Y-107159786D01*
X193020213Y-107310109D01*
X193192182Y-107435050D01*
X193200946Y-107439516D01*
X193251742Y-107487491D01*
X193268536Y-107555312D01*
X193245998Y-107621447D01*
X193200946Y-107660484D01*
X193192182Y-107664949D01*
X193020213Y-107789890D01*
X192869890Y-107940213D01*
X192744951Y-108112179D01*
X192648444Y-108301585D01*
X192582753Y-108503760D01*
X192549500Y-108713713D01*
X192549500Y-108926286D01*
X192582754Y-109136244D01*
X192582754Y-109136247D01*
X192596491Y-109178523D01*
X192598486Y-109248364D01*
X192566241Y-109304522D01*
X190910863Y-110959901D01*
X189331286Y-112539478D01*
X189331284Y-112539480D01*
X189275382Y-112595381D01*
X189219481Y-112651282D01*
X189219480Y-112651284D01*
X189207378Y-112672246D01*
X189140423Y-112788215D01*
X189099499Y-112940943D01*
X189099499Y-112940945D01*
X189099499Y-113109046D01*
X189099500Y-113109059D01*
X189099500Y-114020234D01*
X189079815Y-114087273D01*
X189078602Y-114089125D01*
X188990609Y-114220814D01*
X188990602Y-114220827D01*
X188930264Y-114366498D01*
X188930261Y-114366510D01*
X188899500Y-114521153D01*
X188899500Y-114678846D01*
X188930261Y-114833489D01*
X188930264Y-114833501D01*
X188990602Y-114979172D01*
X188990609Y-114979185D01*
X189078210Y-115110288D01*
X189078213Y-115110292D01*
X189189707Y-115221786D01*
X189189711Y-115221789D01*
X189320814Y-115309390D01*
X189320827Y-115309397D01*
X189466498Y-115369735D01*
X189466503Y-115369737D01*
X189621153Y-115400499D01*
X189621156Y-115400500D01*
X189621158Y-115400500D01*
X189778844Y-115400500D01*
X189778845Y-115400499D01*
X189933497Y-115369737D01*
X190079179Y-115309394D01*
X190210289Y-115221789D01*
X190321789Y-115110289D01*
X190409394Y-114979179D01*
X190469737Y-114833497D01*
X190500500Y-114678842D01*
X190500500Y-114521158D01*
X190500500Y-114521155D01*
X190500499Y-114521153D01*
X190469737Y-114366503D01*
X190450955Y-114321158D01*
X190409397Y-114220827D01*
X190409390Y-114220814D01*
X190321398Y-114089125D01*
X190300520Y-114022447D01*
X190300500Y-114020234D01*
X190300500Y-113320096D01*
X190320185Y-113253057D01*
X190336814Y-113232420D01*
X192338321Y-111230912D01*
X192399642Y-111197429D01*
X192469334Y-111202413D01*
X192525267Y-111244285D01*
X192549684Y-111309749D01*
X192550000Y-111318595D01*
X192550000Y-111466246D01*
X192583242Y-111676127D01*
X192583242Y-111676130D01*
X192648904Y-111878217D01*
X192745375Y-112067550D01*
X192784728Y-112121716D01*
X193417037Y-111489408D01*
X193434075Y-111552993D01*
X193499901Y-111667007D01*
X193592993Y-111760099D01*
X193707007Y-111825925D01*
X193770590Y-111842962D01*
X193138282Y-112475269D01*
X193138282Y-112475270D01*
X193192449Y-112514624D01*
X193381782Y-112611095D01*
X193583870Y-112676757D01*
X193793754Y-112710000D01*
X194006246Y-112710000D01*
X194216127Y-112676757D01*
X194216130Y-112676757D01*
X194418217Y-112611095D01*
X194607554Y-112514622D01*
X194661716Y-112475270D01*
X194661717Y-112475270D01*
X194029408Y-111842962D01*
X194092993Y-111825925D01*
X194207007Y-111760099D01*
X194300099Y-111667007D01*
X194365925Y-111552993D01*
X194382962Y-111489408D01*
X195015270Y-112121717D01*
X195015270Y-112121716D01*
X195054622Y-112067554D01*
X195151095Y-111878217D01*
X195216757Y-111676130D01*
X195216757Y-111676127D01*
X195250000Y-111466246D01*
X195250000Y-111253753D01*
X195216757Y-111043872D01*
X195216757Y-111043869D01*
X195151095Y-110841782D01*
X195054624Y-110652449D01*
X195015270Y-110598282D01*
X195015269Y-110598282D01*
X194382962Y-111230590D01*
X194365925Y-111167007D01*
X194300099Y-111052993D01*
X194207007Y-110959901D01*
X194092993Y-110894075D01*
X194029408Y-110877037D01*
X194661716Y-110244728D01*
X194607547Y-110205373D01*
X194607547Y-110205372D01*
X194598500Y-110200763D01*
X194547706Y-110152788D01*
X194530912Y-110084966D01*
X194553451Y-110018832D01*
X194598508Y-109979793D01*
X194607816Y-109975051D01*
X194687007Y-109917515D01*
X194779786Y-109850109D01*
X194779788Y-109850106D01*
X194779792Y-109850104D01*
X194930104Y-109699792D01*
X194930106Y-109699788D01*
X194930109Y-109699786D01*
X195050921Y-109533501D01*
X195055051Y-109527816D01*
X195151557Y-109338412D01*
X195217246Y-109136243D01*
X195250500Y-108926287D01*
X195250500Y-108713713D01*
X195217246Y-108503757D01*
X195151557Y-108301588D01*
X195055051Y-108112184D01*
X195055049Y-108112181D01*
X195055048Y-108112179D01*
X194930109Y-107940213D01*
X194779786Y-107789890D01*
X194607820Y-107664951D01*
X194607115Y-107664591D01*
X194599054Y-107660485D01*
X194548259Y-107612512D01*
X194531463Y-107544692D01*
X194553999Y-107478556D01*
X194599054Y-107439515D01*
X194607816Y-107435051D01*
X194747589Y-107333501D01*
X194779786Y-107310109D01*
X194779788Y-107310106D01*
X194779792Y-107310104D01*
X194930104Y-107159792D01*
X194930106Y-107159788D01*
X194930109Y-107159786D01*
X195055048Y-106987820D01*
X195055047Y-106987820D01*
X195055051Y-106987816D01*
X195151557Y-106798412D01*
X195217246Y-106596243D01*
X195250500Y-106386287D01*
X195250500Y-106173713D01*
X195217246Y-105963757D01*
X195151557Y-105761588D01*
X195055051Y-105572184D01*
X195055049Y-105572181D01*
X195055048Y-105572179D01*
X194930109Y-105400213D01*
X194779786Y-105249890D01*
X194607820Y-105124951D01*
X194607115Y-105124591D01*
X194599054Y-105120485D01*
X194548259Y-105072512D01*
X194531463Y-105004692D01*
X194553999Y-104938556D01*
X194599054Y-104899515D01*
X194607816Y-104895051D01*
X194707990Y-104822271D01*
X194779786Y-104770109D01*
X194779788Y-104770106D01*
X194779792Y-104770104D01*
X194930104Y-104619792D01*
X194930106Y-104619788D01*
X194930109Y-104619786D01*
X195055048Y-104447820D01*
X195055047Y-104447820D01*
X195055051Y-104447816D01*
X195151557Y-104258412D01*
X195217246Y-104056243D01*
X195250500Y-103846287D01*
X195250500Y-103633713D01*
X195217246Y-103423757D01*
X195151557Y-103221588D01*
X195055051Y-103032184D01*
X195055049Y-103032181D01*
X195055048Y-103032179D01*
X194930109Y-102860213D01*
X194779786Y-102709890D01*
X194607820Y-102584951D01*
X194607115Y-102584591D01*
X194599054Y-102580485D01*
X194548259Y-102532512D01*
X194531463Y-102464692D01*
X194553999Y-102398556D01*
X194599054Y-102359515D01*
X194607816Y-102355051D01*
X194629789Y-102339086D01*
X194779786Y-102230109D01*
X194779788Y-102230106D01*
X194779792Y-102230104D01*
X194930104Y-102079792D01*
X194930106Y-102079788D01*
X194930109Y-102079786D01*
X195053902Y-101909397D01*
X195055051Y-101907816D01*
X195151557Y-101718412D01*
X195217246Y-101516243D01*
X195250500Y-101306287D01*
X195250500Y-101093713D01*
X195217246Y-100883757D01*
X195151557Y-100681588D01*
X195055051Y-100492184D01*
X195055049Y-100492181D01*
X195055048Y-100492179D01*
X194930109Y-100320213D01*
X194779786Y-100169890D01*
X194607820Y-100044951D01*
X194607115Y-100044591D01*
X194599054Y-100040485D01*
X194548259Y-99992512D01*
X194531463Y-99924692D01*
X194553999Y-99858556D01*
X194599054Y-99819515D01*
X194607816Y-99815051D01*
X194669454Y-99770269D01*
X194779786Y-99690109D01*
X194779788Y-99690106D01*
X194779792Y-99690104D01*
X194930104Y-99539792D01*
X194930106Y-99539788D01*
X194930109Y-99539786D01*
X195055048Y-99367820D01*
X195055047Y-99367820D01*
X195055051Y-99367816D01*
X195151557Y-99178412D01*
X195217246Y-98976243D01*
X195250500Y-98766287D01*
X195250500Y-98553713D01*
X195217246Y-98343757D01*
X195151557Y-98141588D01*
X195055051Y-97952184D01*
X195055049Y-97952181D01*
X195055048Y-97952179D01*
X194930109Y-97780213D01*
X194779786Y-97629890D01*
X194607820Y-97504951D01*
X194607115Y-97504591D01*
X194599054Y-97500485D01*
X194548259Y-97452512D01*
X194531463Y-97384692D01*
X194553999Y-97318556D01*
X194599054Y-97279515D01*
X194607816Y-97275051D01*
X194629789Y-97259086D01*
X194779786Y-97150109D01*
X194779788Y-97150106D01*
X194779792Y-97150104D01*
X194930104Y-96999792D01*
X194930106Y-96999788D01*
X194930109Y-96999786D01*
X195055048Y-96827820D01*
X195055047Y-96827820D01*
X195055051Y-96827816D01*
X195151557Y-96638412D01*
X195217246Y-96436243D01*
X195250500Y-96226287D01*
X195250500Y-96013713D01*
X195217246Y-95803757D01*
X195151557Y-95601588D01*
X195055051Y-95412184D01*
X195055049Y-95412181D01*
X195055048Y-95412179D01*
X194930109Y-95240213D01*
X194779786Y-95089890D01*
X194607820Y-94964951D01*
X194607115Y-94964591D01*
X194599054Y-94960485D01*
X194548259Y-94912512D01*
X194531463Y-94844692D01*
X194553999Y-94778556D01*
X194599054Y-94739515D01*
X194607816Y-94735051D01*
X194629789Y-94719086D01*
X194779786Y-94610109D01*
X194779788Y-94610106D01*
X194779792Y-94610104D01*
X194930104Y-94459792D01*
X194930106Y-94459788D01*
X194930109Y-94459786D01*
X195055048Y-94287820D01*
X195055047Y-94287820D01*
X195055051Y-94287816D01*
X195151557Y-94098412D01*
X195217246Y-93896243D01*
X195250500Y-93686287D01*
X195250500Y-93473713D01*
X195217246Y-93263757D01*
X195151557Y-93061588D01*
X195055051Y-92872184D01*
X195055049Y-92872181D01*
X195055048Y-92872179D01*
X194930109Y-92700213D01*
X194779786Y-92549890D01*
X194607820Y-92424951D01*
X194607115Y-92424591D01*
X194599054Y-92420485D01*
X194548259Y-92372512D01*
X194531463Y-92304692D01*
X194553999Y-92238556D01*
X194599054Y-92199515D01*
X194607816Y-92195051D01*
X194724482Y-92110289D01*
X194779786Y-92070109D01*
X194779788Y-92070106D01*
X194779792Y-92070104D01*
X194930104Y-91919792D01*
X194930106Y-91919788D01*
X194930109Y-91919786D01*
X195055048Y-91747820D01*
X195055047Y-91747820D01*
X195055051Y-91747816D01*
X195151557Y-91558412D01*
X195217246Y-91356243D01*
X195250500Y-91146287D01*
X195250500Y-90933713D01*
X195217246Y-90723757D01*
X195151557Y-90521588D01*
X195055051Y-90332184D01*
X195055049Y-90332181D01*
X195055048Y-90332179D01*
X194930109Y-90160213D01*
X194816569Y-90046673D01*
X194783084Y-89985350D01*
X194788068Y-89915658D01*
X194829940Y-89859725D01*
X194860915Y-89842810D01*
X194992331Y-89793796D01*
X195107546Y-89707546D01*
X195193796Y-89592331D01*
X195244091Y-89457483D01*
X195250500Y-89397873D01*
X195250499Y-87602128D01*
X195244091Y-87542517D01*
X195232925Y-87512580D01*
X195193797Y-87407671D01*
X195193793Y-87407664D01*
X195107547Y-87292455D01*
X195107544Y-87292452D01*
X194992335Y-87206206D01*
X194992328Y-87206202D01*
X194857482Y-87155908D01*
X194857483Y-87155908D01*
X194797883Y-87149501D01*
X194797881Y-87149500D01*
X194797873Y-87149500D01*
X194797864Y-87149500D01*
X193002129Y-87149500D01*
X193002123Y-87149501D01*
X192942516Y-87155908D01*
X192807671Y-87206202D01*
X192807664Y-87206206D01*
X192692455Y-87292452D01*
X192692452Y-87292455D01*
X192606206Y-87407664D01*
X192606202Y-87407671D01*
X192555908Y-87542517D01*
X192549846Y-87598911D01*
X192549501Y-87602123D01*
X192549500Y-87602135D01*
X192549500Y-89397870D01*
X192549501Y-89397876D01*
X192555908Y-89457483D01*
X192606202Y-89592328D01*
X192606206Y-89592335D01*
X192692452Y-89707544D01*
X192692455Y-89707547D01*
X192807664Y-89793793D01*
X192807671Y-89793797D01*
X192939082Y-89842810D01*
X192995016Y-89884681D01*
X193019433Y-89950145D01*
X193004582Y-90018418D01*
X192983431Y-90046673D01*
X192869889Y-90160215D01*
X192744951Y-90332179D01*
X192648444Y-90521585D01*
X192582753Y-90723760D01*
X192549500Y-90933713D01*
X192549500Y-91146286D01*
X192581943Y-91351127D01*
X192582754Y-91356243D01*
X192636338Y-91521158D01*
X192648444Y-91558414D01*
X192744951Y-91747820D01*
X192869890Y-91919786D01*
X193020213Y-92070109D01*
X193192182Y-92195050D01*
X193200946Y-92199516D01*
X193251742Y-92247491D01*
X193268536Y-92315312D01*
X193245998Y-92381447D01*
X193200946Y-92420484D01*
X193192182Y-92424949D01*
X193020213Y-92549890D01*
X192869890Y-92700213D01*
X192744951Y-92872179D01*
X192648444Y-93061585D01*
X192582753Y-93263760D01*
X192550292Y-93468713D01*
X192549500Y-93473713D01*
X192549500Y-93686287D01*
X192582754Y-93896243D01*
X192646818Y-94093412D01*
X192648444Y-94098414D01*
X192744951Y-94287820D01*
X192869890Y-94459786D01*
X193020213Y-94610109D01*
X193192182Y-94735050D01*
X193200946Y-94739516D01*
X193251742Y-94787491D01*
X193268536Y-94855312D01*
X193245998Y-94921447D01*
X193200946Y-94960484D01*
X193192182Y-94964949D01*
X193020213Y-95089890D01*
X192869890Y-95240213D01*
X192744951Y-95412179D01*
X192648444Y-95601585D01*
X192582753Y-95803760D01*
X192549500Y-96013713D01*
X192549500Y-96226286D01*
X192581943Y-96431127D01*
X192582754Y-96436243D01*
X192629764Y-96580925D01*
X192648444Y-96638414D01*
X192744951Y-96827820D01*
X192869890Y-96999786D01*
X193020213Y-97150109D01*
X193192182Y-97275050D01*
X193200946Y-97279516D01*
X193251742Y-97327491D01*
X193268536Y-97395312D01*
X193245998Y-97461447D01*
X193200946Y-97500484D01*
X193192182Y-97504949D01*
X193020213Y-97629890D01*
X192869890Y-97780213D01*
X192744951Y-97952179D01*
X192648444Y-98141585D01*
X192582753Y-98343760D01*
X192582083Y-98347993D01*
X192549500Y-98553713D01*
X192549500Y-98766287D01*
X192559534Y-98829644D01*
X192581943Y-98971127D01*
X192582754Y-98976243D01*
X192629764Y-99120925D01*
X192648444Y-99178414D01*
X192744951Y-99367820D01*
X192869890Y-99539786D01*
X193020213Y-99690109D01*
X193192182Y-99815050D01*
X193200946Y-99819516D01*
X193251742Y-99867491D01*
X193268536Y-99935312D01*
X193245998Y-100001447D01*
X193200946Y-100040484D01*
X193192182Y-100044949D01*
X193020213Y-100169890D01*
X192869890Y-100320213D01*
X192744948Y-100492184D01*
X192744947Y-100492185D01*
X192724765Y-100531795D01*
X192676791Y-100582591D01*
X192614281Y-100599500D01*
X190379766Y-100599500D01*
X190312727Y-100579815D01*
X190310875Y-100578602D01*
X190179185Y-100490609D01*
X190179172Y-100490602D01*
X190033501Y-100430264D01*
X190033489Y-100430261D01*
X189878845Y-100399500D01*
X189878842Y-100399500D01*
X189721158Y-100399500D01*
X189721155Y-100399500D01*
X189566510Y-100430261D01*
X189566498Y-100430264D01*
X189420827Y-100490602D01*
X189420814Y-100490609D01*
X189289711Y-100578210D01*
X189289707Y-100578213D01*
X189178213Y-100689707D01*
X189178210Y-100689711D01*
X189090609Y-100820814D01*
X189090602Y-100820827D01*
X189030264Y-100966498D01*
X189030261Y-100966510D01*
X188999500Y-101121153D01*
X188999500Y-101278846D01*
X189030261Y-101433489D01*
X189030264Y-101433501D01*
X189090602Y-101579172D01*
X189090609Y-101579185D01*
X189178210Y-101710288D01*
X189178213Y-101710292D01*
X189289707Y-101821786D01*
X189289711Y-101821789D01*
X189420814Y-101909390D01*
X189420827Y-101909397D01*
X189566498Y-101969735D01*
X189566503Y-101969737D01*
X189721153Y-102000499D01*
X189721156Y-102000500D01*
X189721158Y-102000500D01*
X189878844Y-102000500D01*
X189878845Y-102000499D01*
X190033497Y-101969737D01*
X190179179Y-101909394D01*
X190240823Y-101868205D01*
X190310875Y-101821398D01*
X190377553Y-101800520D01*
X190379766Y-101800500D01*
X192614281Y-101800500D01*
X192681320Y-101820185D01*
X192724765Y-101868205D01*
X192744947Y-101907814D01*
X192744948Y-101907815D01*
X192869890Y-102079786D01*
X193020213Y-102230109D01*
X193192182Y-102355050D01*
X193200946Y-102359516D01*
X193251742Y-102407491D01*
X193268536Y-102475312D01*
X193245998Y-102541447D01*
X193200946Y-102580484D01*
X193192182Y-102584949D01*
X193020213Y-102709890D01*
X192869890Y-102860213D01*
X192744948Y-103032184D01*
X192744947Y-103032185D01*
X192724765Y-103071795D01*
X192676791Y-103122591D01*
X192614281Y-103139500D01*
X190041406Y-103139500D01*
X189974367Y-103119815D01*
X189928612Y-103067011D01*
X189926857Y-103062981D01*
X189909394Y-103020821D01*
X189909390Y-103020814D01*
X189821789Y-102889711D01*
X189821786Y-102889707D01*
X189710292Y-102778213D01*
X189710288Y-102778210D01*
X189579185Y-102690609D01*
X189579172Y-102690602D01*
X189433501Y-102630264D01*
X189433489Y-102630261D01*
X189278845Y-102599500D01*
X189278842Y-102599500D01*
X189121158Y-102599500D01*
X189121155Y-102599500D01*
X188966510Y-102630261D01*
X188966498Y-102630264D01*
X188820827Y-102690602D01*
X188820814Y-102690609D01*
X188689711Y-102778210D01*
X188689707Y-102778213D01*
X188578213Y-102889707D01*
X188578210Y-102889711D01*
X188490609Y-103020814D01*
X188490602Y-103020827D01*
X188430264Y-103166498D01*
X188430261Y-103166510D01*
X188399500Y-103321153D01*
X164685532Y-103321153D01*
X164651557Y-103216588D01*
X164651555Y-103216585D01*
X164651555Y-103216583D01*
X164557599Y-103032185D01*
X164555051Y-103027184D01*
X164555049Y-103027181D01*
X164555048Y-103027179D01*
X164430109Y-102855213D01*
X164279786Y-102704890D01*
X164107820Y-102579951D01*
X164107115Y-102579591D01*
X164099054Y-102575485D01*
X164048259Y-102527512D01*
X164031463Y-102459692D01*
X164053999Y-102393556D01*
X164099054Y-102354515D01*
X164107816Y-102350051D01*
X164129789Y-102334086D01*
X164279786Y-102225109D01*
X164279788Y-102225106D01*
X164279792Y-102225104D01*
X164430104Y-102074792D01*
X164430106Y-102074788D01*
X164430109Y-102074786D01*
X164555048Y-101902820D01*
X164555047Y-101902820D01*
X164555051Y-101902816D01*
X164651557Y-101713412D01*
X164717246Y-101511243D01*
X164750500Y-101301287D01*
X164750500Y-101088713D01*
X164717246Y-100878757D01*
X164651557Y-100676588D01*
X164555051Y-100487184D01*
X164555049Y-100487181D01*
X164555048Y-100487179D01*
X164430109Y-100315213D01*
X164279786Y-100164890D01*
X164107817Y-100039949D01*
X164098504Y-100035204D01*
X164047707Y-99987230D01*
X164030912Y-99919409D01*
X164053449Y-99853274D01*
X164098507Y-99814232D01*
X164107555Y-99809622D01*
X164161716Y-99770270D01*
X164161717Y-99770270D01*
X163529408Y-99137962D01*
X163592993Y-99120925D01*
X163707007Y-99055099D01*
X163800099Y-98962007D01*
X163865925Y-98847993D01*
X163882962Y-98784408D01*
X164515270Y-99416717D01*
X164515270Y-99416716D01*
X164554622Y-99362554D01*
X164572918Y-99326647D01*
X184249500Y-99326647D01*
X184249500Y-99873337D01*
X184249501Y-99873355D01*
X184259650Y-99972707D01*
X184259651Y-99972710D01*
X184312996Y-100133694D01*
X184313001Y-100133705D01*
X184402029Y-100278040D01*
X184402032Y-100278044D01*
X184521956Y-100397968D01*
X184565597Y-100424886D01*
X184612321Y-100476832D01*
X184624500Y-100530424D01*
X184624500Y-100932479D01*
X184604815Y-100999518D01*
X184603602Y-101001370D01*
X184590609Y-101020814D01*
X184590602Y-101020827D01*
X184530264Y-101166498D01*
X184530261Y-101166510D01*
X184499500Y-101321153D01*
X184499500Y-101478846D01*
X184530261Y-101633489D01*
X184530264Y-101633501D01*
X184590602Y-101779172D01*
X184590609Y-101779185D01*
X184678210Y-101910288D01*
X184678213Y-101910292D01*
X184789707Y-102021786D01*
X184789711Y-102021789D01*
X184920814Y-102109390D01*
X184920827Y-102109397D01*
X185066498Y-102169735D01*
X185066503Y-102169737D01*
X185221153Y-102200499D01*
X185221156Y-102200500D01*
X185221158Y-102200500D01*
X185378844Y-102200500D01*
X185378845Y-102200499D01*
X185533497Y-102169737D01*
X185679179Y-102109394D01*
X185810289Y-102021789D01*
X185921789Y-101910289D01*
X186009394Y-101779179D01*
X186069737Y-101633497D01*
X186100500Y-101478842D01*
X186100500Y-101321158D01*
X186100500Y-101321155D01*
X186100499Y-101321153D01*
X186096547Y-101301286D01*
X186069737Y-101166503D01*
X186037516Y-101088713D01*
X186009397Y-101020827D01*
X186009390Y-101020814D01*
X185921789Y-100889711D01*
X185921786Y-100889707D01*
X185861819Y-100829740D01*
X185847115Y-100802812D01*
X185830523Y-100776994D01*
X185829631Y-100770793D01*
X185828334Y-100768417D01*
X185825500Y-100742059D01*
X185825500Y-100530424D01*
X185845185Y-100463385D01*
X185884402Y-100424886D01*
X185928044Y-100397968D01*
X186047968Y-100278044D01*
X186137003Y-100133697D01*
X186190349Y-99972708D01*
X186200500Y-99873345D01*
X186200499Y-99326656D01*
X186190349Y-99227292D01*
X186137003Y-99066303D01*
X186136999Y-99066297D01*
X186136998Y-99066294D01*
X186047970Y-98921959D01*
X186047967Y-98921955D01*
X186038339Y-98912327D01*
X186004854Y-98851004D01*
X186009838Y-98781312D01*
X186038345Y-98736959D01*
X186047573Y-98727731D01*
X186136542Y-98583492D01*
X186136547Y-98583481D01*
X186189855Y-98422606D01*
X186199999Y-98323322D01*
X186200000Y-98323309D01*
X186200000Y-98300000D01*
X184250001Y-98300000D01*
X184250001Y-98323322D01*
X184260144Y-98422607D01*
X184313452Y-98583481D01*
X184313457Y-98583492D01*
X184402424Y-98727728D01*
X184402427Y-98727732D01*
X184411660Y-98736965D01*
X184445145Y-98798288D01*
X184440161Y-98867980D01*
X184411663Y-98912324D01*
X184402033Y-98921953D01*
X184402029Y-98921959D01*
X184313001Y-99066294D01*
X184312996Y-99066305D01*
X184259651Y-99227290D01*
X184249500Y-99326647D01*
X164572918Y-99326647D01*
X164603207Y-99267203D01*
X164651095Y-99173217D01*
X164716757Y-98971130D01*
X164716757Y-98971127D01*
X164750000Y-98761246D01*
X164750000Y-98548753D01*
X164716757Y-98338872D01*
X164716757Y-98338869D01*
X164651095Y-98136782D01*
X164554624Y-97947449D01*
X164515270Y-97893282D01*
X164515269Y-97893282D01*
X163882962Y-98525590D01*
X163865925Y-98462007D01*
X163800099Y-98347993D01*
X163707007Y-98254901D01*
X163592993Y-98189075D01*
X163529409Y-98172037D01*
X163924768Y-97776677D01*
X184250000Y-97776677D01*
X184250000Y-97800000D01*
X184975000Y-97800000D01*
X185475000Y-97800000D01*
X186199999Y-97800000D01*
X186199999Y-97776692D01*
X186199998Y-97776677D01*
X186189855Y-97677392D01*
X186136547Y-97516518D01*
X186136542Y-97516507D01*
X186047575Y-97372271D01*
X186047572Y-97372267D01*
X185927732Y-97252427D01*
X185927728Y-97252424D01*
X185783492Y-97163457D01*
X185783481Y-97163452D01*
X185622606Y-97110144D01*
X185523322Y-97100000D01*
X185475000Y-97100000D01*
X185475000Y-97800000D01*
X184975000Y-97800000D01*
X184975000Y-97100000D01*
X184974999Y-97099999D01*
X184926693Y-97100000D01*
X184926675Y-97100001D01*
X184827392Y-97110144D01*
X184666518Y-97163452D01*
X184666507Y-97163457D01*
X184522271Y-97252424D01*
X184522267Y-97252427D01*
X184402427Y-97372267D01*
X184402424Y-97372271D01*
X184313457Y-97516507D01*
X184313452Y-97516518D01*
X184260144Y-97677393D01*
X184250000Y-97776677D01*
X163924768Y-97776677D01*
X164161716Y-97539728D01*
X164107550Y-97500375D01*
X164097954Y-97495486D01*
X164047157Y-97447512D01*
X164030361Y-97379692D01*
X164052897Y-97313556D01*
X164097954Y-97274514D01*
X164107554Y-97269622D01*
X164161716Y-97230270D01*
X164161717Y-97230270D01*
X163529408Y-96597962D01*
X163592993Y-96580925D01*
X163707007Y-96515099D01*
X163800099Y-96422007D01*
X163865925Y-96307993D01*
X163882962Y-96244408D01*
X164515270Y-96876717D01*
X164515270Y-96876716D01*
X164554622Y-96822554D01*
X164651095Y-96633217D01*
X164716757Y-96431130D01*
X164716757Y-96431127D01*
X164750000Y-96221246D01*
X164750000Y-96008753D01*
X164716757Y-95798872D01*
X164716757Y-95798869D01*
X164651094Y-95596780D01*
X164638143Y-95571362D01*
X164638142Y-95571361D01*
X164612560Y-95521153D01*
X179099500Y-95521153D01*
X179099500Y-95678846D01*
X179130261Y-95833489D01*
X179130264Y-95833501D01*
X179190602Y-95979172D01*
X179190609Y-95979185D01*
X179278210Y-96110288D01*
X179278213Y-96110292D01*
X179389707Y-96221786D01*
X179389711Y-96221789D01*
X179520814Y-96309390D01*
X179520827Y-96309397D01*
X179666498Y-96369735D01*
X179666503Y-96369737D01*
X179821153Y-96400499D01*
X179821156Y-96400500D01*
X179821158Y-96400500D01*
X179978844Y-96400500D01*
X179978845Y-96400499D01*
X180133497Y-96369737D01*
X180279179Y-96309394D01*
X180410289Y-96221789D01*
X180521789Y-96110289D01*
X180609394Y-95979179D01*
X180669737Y-95833497D01*
X180700500Y-95678842D01*
X180700500Y-95521158D01*
X180700500Y-95521155D01*
X180700499Y-95521153D01*
X180669737Y-95366503D01*
X180664261Y-95353282D01*
X180609397Y-95220827D01*
X180609390Y-95220814D01*
X180521789Y-95089711D01*
X180521786Y-95089707D01*
X180410292Y-94978213D01*
X180410288Y-94978210D01*
X180279185Y-94890609D01*
X180279172Y-94890602D01*
X180133501Y-94830264D01*
X180133489Y-94830261D01*
X179978845Y-94799500D01*
X179978842Y-94799500D01*
X179821158Y-94799500D01*
X179821155Y-94799500D01*
X179666510Y-94830261D01*
X179666498Y-94830264D01*
X179520827Y-94890602D01*
X179520814Y-94890609D01*
X179389711Y-94978210D01*
X179389707Y-94978213D01*
X179278213Y-95089707D01*
X179278210Y-95089711D01*
X179190609Y-95220814D01*
X179190602Y-95220827D01*
X179130264Y-95366498D01*
X179130261Y-95366510D01*
X179099500Y-95521153D01*
X164612560Y-95521153D01*
X164554624Y-95407449D01*
X164515270Y-95353282D01*
X164515269Y-95353282D01*
X163882962Y-95985590D01*
X163865925Y-95922007D01*
X163800099Y-95807993D01*
X163707007Y-95714901D01*
X163592993Y-95649075D01*
X163529409Y-95632037D01*
X164161716Y-94999728D01*
X164107547Y-94960373D01*
X164107547Y-94960372D01*
X164098500Y-94955763D01*
X164047706Y-94907788D01*
X164030912Y-94839966D01*
X164053451Y-94773832D01*
X164098508Y-94734793D01*
X164107816Y-94730051D01*
X164187007Y-94672515D01*
X164279786Y-94605109D01*
X164279788Y-94605106D01*
X164279792Y-94605104D01*
X164430104Y-94454792D01*
X164430106Y-94454788D01*
X164430109Y-94454786D01*
X164555048Y-94282820D01*
X164555047Y-94282820D01*
X164555051Y-94282816D01*
X164651557Y-94093412D01*
X164717246Y-93891243D01*
X164750500Y-93681287D01*
X164750500Y-93468713D01*
X164717246Y-93258757D01*
X164651557Y-93056588D01*
X164555051Y-92867184D01*
X164555049Y-92867181D01*
X164555048Y-92867179D01*
X164430109Y-92695213D01*
X164279786Y-92544890D01*
X164107817Y-92419949D01*
X164098504Y-92415204D01*
X164047707Y-92367230D01*
X164030912Y-92299409D01*
X164053449Y-92233274D01*
X164098507Y-92194232D01*
X164107555Y-92189622D01*
X164161716Y-92150270D01*
X164161717Y-92150270D01*
X163529408Y-91517962D01*
X163592993Y-91500925D01*
X163707007Y-91435099D01*
X163800099Y-91342007D01*
X163865925Y-91227993D01*
X163882962Y-91164408D01*
X164515270Y-91796717D01*
X164515270Y-91796716D01*
X164554622Y-91742554D01*
X164651095Y-91553217D01*
X164661514Y-91521153D01*
X166099500Y-91521153D01*
X166099500Y-91678846D01*
X166130261Y-91833489D01*
X166130264Y-91833501D01*
X166190602Y-91979172D01*
X166190609Y-91979185D01*
X166278210Y-92110288D01*
X166278213Y-92110292D01*
X166389707Y-92221786D01*
X166389711Y-92221789D01*
X166520814Y-92309390D01*
X166520827Y-92309397D01*
X166666498Y-92369735D01*
X166666503Y-92369737D01*
X166821153Y-92400499D01*
X166821156Y-92400500D01*
X166821158Y-92400500D01*
X166978844Y-92400500D01*
X166978845Y-92400499D01*
X167133497Y-92369737D01*
X167279179Y-92309394D01*
X167410289Y-92221789D01*
X167521789Y-92110289D01*
X167609394Y-91979179D01*
X167669737Y-91833497D01*
X167700500Y-91678842D01*
X167700500Y-91521158D01*
X167700500Y-91521155D01*
X167700499Y-91521153D01*
X167691666Y-91476748D01*
X167669737Y-91366503D01*
X167612365Y-91227993D01*
X167609397Y-91220827D01*
X167609390Y-91220814D01*
X167521789Y-91089711D01*
X167521786Y-91089707D01*
X167410292Y-90978213D01*
X167410288Y-90978210D01*
X167279185Y-90890609D01*
X167279172Y-90890602D01*
X167133501Y-90830264D01*
X167133489Y-90830261D01*
X166978845Y-90799500D01*
X166978842Y-90799500D01*
X166821158Y-90799500D01*
X166821155Y-90799500D01*
X166666510Y-90830261D01*
X166666498Y-90830264D01*
X166520827Y-90890602D01*
X166520814Y-90890609D01*
X166389711Y-90978210D01*
X166389707Y-90978213D01*
X166278213Y-91089707D01*
X166278210Y-91089711D01*
X166190609Y-91220814D01*
X166190602Y-91220827D01*
X166130264Y-91366498D01*
X166130261Y-91366510D01*
X166099500Y-91521153D01*
X164661514Y-91521153D01*
X164675942Y-91476748D01*
X164716757Y-91351130D01*
X164716757Y-91351127D01*
X164750000Y-91141246D01*
X164750000Y-90928753D01*
X164716757Y-90718872D01*
X164716757Y-90718869D01*
X164651095Y-90516782D01*
X164554624Y-90327449D01*
X164515270Y-90273282D01*
X164515269Y-90273282D01*
X163882962Y-90905590D01*
X163865925Y-90842007D01*
X163800099Y-90727993D01*
X163707007Y-90634901D01*
X163592993Y-90569075D01*
X163529409Y-90552037D01*
X164161716Y-89919728D01*
X164107550Y-89880375D01*
X164097954Y-89875486D01*
X164047157Y-89827512D01*
X164030361Y-89759692D01*
X164052897Y-89693556D01*
X164097954Y-89654514D01*
X164107554Y-89649622D01*
X164161716Y-89610270D01*
X164161717Y-89610270D01*
X163529408Y-88977962D01*
X163592993Y-88960925D01*
X163707007Y-88895099D01*
X163800099Y-88802007D01*
X163865925Y-88687993D01*
X163882962Y-88624408D01*
X164515270Y-89256717D01*
X164515270Y-89256716D01*
X164554622Y-89202554D01*
X164651095Y-89013217D01*
X164716757Y-88811130D01*
X164716757Y-88811127D01*
X164750000Y-88601246D01*
X164750000Y-88388753D01*
X164716757Y-88178872D01*
X164716757Y-88178869D01*
X164651095Y-87976782D01*
X164554624Y-87787449D01*
X164515270Y-87733282D01*
X164515269Y-87733282D01*
X163882962Y-88365590D01*
X163865925Y-88302007D01*
X163800099Y-88187993D01*
X163707007Y-88094901D01*
X163592993Y-88029075D01*
X163529409Y-88012037D01*
X164160169Y-87381275D01*
X164082919Y-87326321D01*
X164078851Y-87321153D01*
X168299500Y-87321153D01*
X168299500Y-87478846D01*
X168330261Y-87633489D01*
X168330264Y-87633501D01*
X168390602Y-87779172D01*
X168390609Y-87779185D01*
X168478210Y-87910288D01*
X168478213Y-87910292D01*
X168589707Y-88021786D01*
X168589711Y-88021789D01*
X168720814Y-88109390D01*
X168720827Y-88109397D01*
X168858683Y-88166498D01*
X168866503Y-88169737D01*
X169021153Y-88200499D01*
X169021156Y-88200500D01*
X169021158Y-88200500D01*
X169178844Y-88200500D01*
X169178845Y-88200499D01*
X169333497Y-88169737D01*
X169479179Y-88109394D01*
X169479189Y-88109386D01*
X169482252Y-88107750D01*
X169484058Y-88107373D01*
X169484808Y-88107063D01*
X169484866Y-88107205D01*
X169550652Y-88093496D01*
X169615900Y-88118485D01*
X169628405Y-88129417D01*
X169721955Y-88222967D01*
X169721959Y-88222970D01*
X169866294Y-88311998D01*
X169866297Y-88311999D01*
X169866303Y-88312003D01*
X170027292Y-88365349D01*
X170126655Y-88375500D01*
X170673344Y-88375499D01*
X170673352Y-88375498D01*
X170673355Y-88375498D01*
X170727760Y-88369940D01*
X170772708Y-88365349D01*
X170933697Y-88312003D01*
X171078044Y-88222968D01*
X171087668Y-88213343D01*
X171148987Y-88179856D01*
X171218679Y-88184835D01*
X171263034Y-88213339D01*
X171272267Y-88222572D01*
X171272271Y-88222575D01*
X171416507Y-88311542D01*
X171416518Y-88311547D01*
X171577393Y-88364855D01*
X171676683Y-88374999D01*
X172200000Y-88374999D01*
X172223308Y-88374999D01*
X172223322Y-88374998D01*
X172322607Y-88364855D01*
X172454492Y-88321153D01*
X182874500Y-88321153D01*
X182874500Y-88478846D01*
X182905261Y-88633489D01*
X182905264Y-88633501D01*
X182965602Y-88779172D01*
X182965609Y-88779185D01*
X183053210Y-88910288D01*
X183053213Y-88910292D01*
X183164707Y-89021786D01*
X183164711Y-89021789D01*
X183295814Y-89109390D01*
X183295827Y-89109397D01*
X183441498Y-89169735D01*
X183441503Y-89169737D01*
X183596153Y-89200499D01*
X183596156Y-89200500D01*
X183596158Y-89200500D01*
X183753844Y-89200500D01*
X183753845Y-89200499D01*
X183908497Y-89169737D01*
X184054179Y-89109394D01*
X184185289Y-89021789D01*
X184296789Y-88910289D01*
X184384394Y-88779179D01*
X184444737Y-88633497D01*
X184472286Y-88494999D01*
X184475638Y-88478150D01*
X184484402Y-88461393D01*
X184488423Y-88442914D01*
X184507167Y-88417875D01*
X184508023Y-88416239D01*
X184509528Y-88414706D01*
X184637416Y-88286817D01*
X184698739Y-88253333D01*
X184725097Y-88250499D01*
X185500002Y-88250499D01*
X185500008Y-88250499D01*
X185602797Y-88239999D01*
X185769334Y-88184814D01*
X185918656Y-88092712D01*
X186042712Y-87968656D01*
X186134814Y-87819334D01*
X186189999Y-87652797D01*
X186200500Y-87550009D01*
X186200499Y-86949992D01*
X186189999Y-86847203D01*
X186134814Y-86680666D01*
X186042712Y-86531344D01*
X185918656Y-86407288D01*
X185915342Y-86405243D01*
X185913546Y-86403248D01*
X185912989Y-86402807D01*
X185913064Y-86402711D01*
X185868618Y-86353297D01*
X185857397Y-86284334D01*
X185885240Y-86220252D01*
X185915348Y-86194165D01*
X185918342Y-86192318D01*
X186042315Y-86068345D01*
X186134356Y-85919124D01*
X186134358Y-85919119D01*
X186189505Y-85752697D01*
X186189506Y-85752690D01*
X186199999Y-85649986D01*
X186200000Y-85649973D01*
X186200000Y-85600000D01*
X183750001Y-85600000D01*
X183750001Y-85649986D01*
X183760494Y-85752697D01*
X183815641Y-85919119D01*
X183815643Y-85919124D01*
X183907684Y-86068345D01*
X184031655Y-86192316D01*
X184031659Y-86192319D01*
X184034656Y-86194168D01*
X184036279Y-86195972D01*
X184037323Y-86196798D01*
X184037181Y-86196976D01*
X184081381Y-86246116D01*
X184092602Y-86315079D01*
X184064759Y-86379161D01*
X184034661Y-86405241D01*
X184031349Y-86407283D01*
X184031343Y-86407288D01*
X183907289Y-86531342D01*
X183815187Y-86680663D01*
X183815185Y-86680668D01*
X183809084Y-86699081D01*
X183760001Y-86847203D01*
X183760001Y-86847204D01*
X183760000Y-86847204D01*
X183749500Y-86949983D01*
X183749500Y-87424900D01*
X183740856Y-87454336D01*
X183734333Y-87484326D01*
X183730577Y-87489342D01*
X183729815Y-87491939D01*
X183713182Y-87512580D01*
X183660338Y-87565425D01*
X183599015Y-87598911D01*
X183596848Y-87599362D01*
X183441508Y-87630261D01*
X183441498Y-87630264D01*
X183295827Y-87690602D01*
X183295814Y-87690609D01*
X183164711Y-87778210D01*
X183164707Y-87778213D01*
X183053213Y-87889707D01*
X183053210Y-87889711D01*
X182965609Y-88020814D01*
X182965602Y-88020827D01*
X182905264Y-88166498D01*
X182905261Y-88166510D01*
X182874500Y-88321153D01*
X172454492Y-88321153D01*
X172483481Y-88311547D01*
X172483492Y-88311542D01*
X172627728Y-88222575D01*
X172627732Y-88222572D01*
X172747572Y-88102732D01*
X172747575Y-88102728D01*
X172836542Y-87958492D01*
X172836547Y-87958481D01*
X172889855Y-87797606D01*
X172899999Y-87698322D01*
X172900000Y-87698309D01*
X172900000Y-87650000D01*
X172200000Y-87650000D01*
X172200000Y-88374999D01*
X171676683Y-88374999D01*
X171700000Y-88374998D01*
X171700000Y-87150000D01*
X172200000Y-87150000D01*
X172899999Y-87150000D01*
X172899999Y-87101692D01*
X172899998Y-87101677D01*
X172889855Y-87002392D01*
X172836547Y-86841518D01*
X172836542Y-86841507D01*
X172747575Y-86697271D01*
X172747572Y-86697267D01*
X172627732Y-86577427D01*
X172627728Y-86577424D01*
X172483492Y-86488457D01*
X172483481Y-86488452D01*
X172322606Y-86435144D01*
X172223322Y-86425000D01*
X172200000Y-86425000D01*
X172200000Y-87150000D01*
X171700000Y-87150000D01*
X171700000Y-86424999D01*
X171676693Y-86425000D01*
X171676674Y-86425001D01*
X171577392Y-86435144D01*
X171416518Y-86488452D01*
X171416507Y-86488457D01*
X171272271Y-86577424D01*
X171272265Y-86577428D01*
X171263031Y-86586663D01*
X171201707Y-86620146D01*
X171132015Y-86615159D01*
X171087672Y-86586660D01*
X171078044Y-86577032D01*
X171078040Y-86577029D01*
X170933705Y-86488001D01*
X170933699Y-86487998D01*
X170933697Y-86487997D01*
X170889682Y-86473412D01*
X170772709Y-86434651D01*
X170673346Y-86424500D01*
X170126662Y-86424500D01*
X170126644Y-86424501D01*
X170027292Y-86434650D01*
X170027289Y-86434651D01*
X169866305Y-86487996D01*
X169866294Y-86488001D01*
X169721959Y-86577029D01*
X169721955Y-86577032D01*
X169628404Y-86670582D01*
X169567081Y-86704066D01*
X169497389Y-86699081D01*
X169482272Y-86692259D01*
X169479175Y-86690604D01*
X169333501Y-86630264D01*
X169333489Y-86630261D01*
X169178845Y-86599500D01*
X169178842Y-86599500D01*
X169021158Y-86599500D01*
X169021155Y-86599500D01*
X168866510Y-86630261D01*
X168866498Y-86630264D01*
X168720827Y-86690602D01*
X168720814Y-86690609D01*
X168589711Y-86778210D01*
X168589707Y-86778213D01*
X168478213Y-86889707D01*
X168478210Y-86889711D01*
X168390609Y-87020814D01*
X168390602Y-87020827D01*
X168330264Y-87166498D01*
X168330261Y-87166510D01*
X168299500Y-87321153D01*
X164078851Y-87321153D01*
X164066731Y-87305757D01*
X164047706Y-87287788D01*
X164045466Y-87278743D01*
X164039702Y-87271421D01*
X164037201Y-87245367D01*
X164030912Y-87219966D01*
X164033918Y-87211145D01*
X164033028Y-87201870D01*
X164045007Y-87178605D01*
X164053451Y-87153832D01*
X164061240Y-87147083D01*
X164065015Y-87139753D01*
X164079090Y-87131617D01*
X164098508Y-87114793D01*
X164107816Y-87110051D01*
X164187007Y-87052515D01*
X164279786Y-86985109D01*
X164279788Y-86985106D01*
X164279792Y-86985104D01*
X164430104Y-86834792D01*
X164430106Y-86834788D01*
X164430109Y-86834786D01*
X164555048Y-86662820D01*
X164555047Y-86662820D01*
X164555051Y-86662816D01*
X164651557Y-86473412D01*
X164717246Y-86271243D01*
X164750500Y-86061287D01*
X164750500Y-85848713D01*
X164717246Y-85638757D01*
X164651557Y-85436588D01*
X164555051Y-85247184D01*
X164555049Y-85247181D01*
X164555048Y-85247179D01*
X164430109Y-85075213D01*
X164279786Y-84924890D01*
X164107820Y-84799951D01*
X164104597Y-84798309D01*
X164099054Y-84795485D01*
X164048259Y-84747512D01*
X164031463Y-84679692D01*
X164053999Y-84613556D01*
X164099054Y-84574515D01*
X164107816Y-84570051D01*
X164129789Y-84554086D01*
X164279786Y-84445109D01*
X164279788Y-84445106D01*
X164279792Y-84445104D01*
X164303743Y-84421153D01*
X168299500Y-84421153D01*
X168299500Y-84578846D01*
X168330261Y-84733489D01*
X168330264Y-84733501D01*
X168390602Y-84879172D01*
X168390609Y-84879185D01*
X168478210Y-85010288D01*
X168478213Y-85010292D01*
X168589707Y-85121786D01*
X168589711Y-85121789D01*
X168720814Y-85209390D01*
X168720827Y-85209397D01*
X168866498Y-85269735D01*
X168866503Y-85269737D01*
X169021153Y-85300499D01*
X169021156Y-85300500D01*
X169021158Y-85300500D01*
X169178844Y-85300500D01*
X169178845Y-85300499D01*
X169333497Y-85269737D01*
X169479179Y-85209394D01*
X169479189Y-85209386D01*
X169482252Y-85207750D01*
X169484058Y-85207373D01*
X169484808Y-85207063D01*
X169484866Y-85207205D01*
X169550652Y-85193496D01*
X169615900Y-85218485D01*
X169628405Y-85229417D01*
X169721955Y-85322967D01*
X169721959Y-85322970D01*
X169866294Y-85411998D01*
X169866297Y-85411999D01*
X169866303Y-85412003D01*
X170027292Y-85465349D01*
X170126655Y-85475500D01*
X170673344Y-85475499D01*
X170673352Y-85475498D01*
X170673355Y-85475498D01*
X170727760Y-85469940D01*
X170772708Y-85465349D01*
X170933697Y-85412003D01*
X171078044Y-85322968D01*
X171087668Y-85313343D01*
X171148987Y-85279856D01*
X171218679Y-85284835D01*
X171263034Y-85313339D01*
X171272267Y-85322572D01*
X171272271Y-85322575D01*
X171416507Y-85411542D01*
X171416518Y-85411547D01*
X171577393Y-85464855D01*
X171676683Y-85474999D01*
X172200000Y-85474999D01*
X172223308Y-85474999D01*
X172223322Y-85474998D01*
X172322607Y-85464855D01*
X172483481Y-85411547D01*
X172483492Y-85411542D01*
X172627728Y-85322575D01*
X172627732Y-85322572D01*
X172747572Y-85202732D01*
X172747575Y-85202728D01*
X172836542Y-85058492D01*
X172836546Y-85058483D01*
X172839353Y-85050013D01*
X183750000Y-85050013D01*
X183750000Y-85100000D01*
X184725000Y-85100000D01*
X185225000Y-85100000D01*
X186199999Y-85100000D01*
X186199999Y-85050028D01*
X186199998Y-85050013D01*
X186189505Y-84947302D01*
X186134358Y-84780880D01*
X186134356Y-84780875D01*
X186042315Y-84631654D01*
X185918345Y-84507684D01*
X185769124Y-84415643D01*
X185769119Y-84415641D01*
X185602697Y-84360494D01*
X185602690Y-84360493D01*
X185499986Y-84350000D01*
X185225000Y-84350000D01*
X185225000Y-85100000D01*
X184725000Y-85100000D01*
X184725000Y-84350000D01*
X184450029Y-84350000D01*
X184450012Y-84350001D01*
X184347302Y-84360494D01*
X184180880Y-84415641D01*
X184180875Y-84415643D01*
X184031654Y-84507684D01*
X183907684Y-84631654D01*
X183815643Y-84780875D01*
X183815641Y-84780880D01*
X183760494Y-84947302D01*
X183760493Y-84947309D01*
X183750000Y-85050013D01*
X172839353Y-85050013D01*
X172853322Y-85007859D01*
X172853322Y-85007858D01*
X172889855Y-84897607D01*
X172899999Y-84798322D01*
X172900000Y-84798309D01*
X172900000Y-84750000D01*
X172200000Y-84750000D01*
X172200000Y-85474999D01*
X171676683Y-85474999D01*
X171700000Y-85474998D01*
X171700000Y-84250000D01*
X172200000Y-84250000D01*
X172899999Y-84250000D01*
X172899999Y-84201692D01*
X172899998Y-84201677D01*
X172889855Y-84102392D01*
X172836547Y-83941518D01*
X172836542Y-83941507D01*
X172747575Y-83797271D01*
X172747572Y-83797267D01*
X172627732Y-83677427D01*
X172627728Y-83677424D01*
X172483492Y-83588457D01*
X172483481Y-83588452D01*
X172322606Y-83535144D01*
X172223322Y-83525000D01*
X172200000Y-83525000D01*
X172200000Y-84250000D01*
X171700000Y-84250000D01*
X171700000Y-83524999D01*
X171676693Y-83525000D01*
X171676674Y-83525001D01*
X171577392Y-83535144D01*
X171416518Y-83588452D01*
X171416507Y-83588457D01*
X171272271Y-83677424D01*
X171272265Y-83677428D01*
X171263031Y-83686663D01*
X171201707Y-83720146D01*
X171132015Y-83715159D01*
X171087672Y-83686660D01*
X171078044Y-83677032D01*
X171078040Y-83677029D01*
X170933705Y-83588001D01*
X170933699Y-83587998D01*
X170933697Y-83587997D01*
X170933694Y-83587996D01*
X170772709Y-83534651D01*
X170673346Y-83524500D01*
X170126662Y-83524500D01*
X170126644Y-83524501D01*
X170027292Y-83534650D01*
X170027289Y-83534651D01*
X169866305Y-83587996D01*
X169866294Y-83588001D01*
X169721959Y-83677029D01*
X169721955Y-83677032D01*
X169628404Y-83770582D01*
X169567081Y-83804066D01*
X169497389Y-83799081D01*
X169482272Y-83792259D01*
X169479175Y-83790604D01*
X169333501Y-83730264D01*
X169333489Y-83730261D01*
X169178845Y-83699500D01*
X169178842Y-83699500D01*
X169021158Y-83699500D01*
X169021155Y-83699500D01*
X168866510Y-83730261D01*
X168866498Y-83730264D01*
X168720827Y-83790602D01*
X168720814Y-83790609D01*
X168589711Y-83878210D01*
X168589707Y-83878213D01*
X168478213Y-83989707D01*
X168478210Y-83989711D01*
X168390609Y-84120814D01*
X168390602Y-84120827D01*
X168330264Y-84266498D01*
X168330261Y-84266510D01*
X168299500Y-84421153D01*
X164303743Y-84421153D01*
X164430104Y-84294792D01*
X164430106Y-84294788D01*
X164430109Y-84294786D01*
X164555048Y-84122820D01*
X164555047Y-84122820D01*
X164555051Y-84122816D01*
X164651557Y-83933412D01*
X164717246Y-83731243D01*
X164750500Y-83521287D01*
X164750500Y-83308713D01*
X164717246Y-83098757D01*
X164651557Y-82896588D01*
X164555051Y-82707184D01*
X164555049Y-82707181D01*
X164555048Y-82707179D01*
X164430109Y-82535213D01*
X164279786Y-82384890D01*
X164107820Y-82259951D01*
X164107115Y-82259591D01*
X164099054Y-82255485D01*
X164048259Y-82207512D01*
X164031463Y-82139692D01*
X164053999Y-82073556D01*
X164099054Y-82034515D01*
X164107816Y-82030051D01*
X164177836Y-81979179D01*
X164279786Y-81905109D01*
X164279788Y-81905106D01*
X164279792Y-81905104D01*
X164430104Y-81754792D01*
X164430106Y-81754788D01*
X164430109Y-81754786D01*
X164555048Y-81582820D01*
X164555047Y-81582820D01*
X164555051Y-81582816D01*
X164586470Y-81521153D01*
X168299500Y-81521153D01*
X168299500Y-81678846D01*
X168330261Y-81833489D01*
X168330264Y-81833501D01*
X168390602Y-81979172D01*
X168390609Y-81979185D01*
X168478210Y-82110288D01*
X168478213Y-82110292D01*
X168589707Y-82221786D01*
X168589711Y-82221789D01*
X168720814Y-82309390D01*
X168720827Y-82309397D01*
X168855062Y-82364998D01*
X168866503Y-82369737D01*
X169021153Y-82400499D01*
X169021156Y-82400500D01*
X169021158Y-82400500D01*
X169178844Y-82400500D01*
X169178845Y-82400499D01*
X169333497Y-82369737D01*
X169479179Y-82309394D01*
X169487001Y-82304167D01*
X169553676Y-82283288D01*
X169621057Y-82301771D01*
X169643574Y-82319586D01*
X169746956Y-82422968D01*
X169746958Y-82422969D01*
X169746959Y-82422970D01*
X169891294Y-82511998D01*
X169891297Y-82511999D01*
X169891303Y-82512003D01*
X170052292Y-82565349D01*
X170151655Y-82575500D01*
X170698344Y-82575499D01*
X170698352Y-82575498D01*
X170698355Y-82575498D01*
X170752760Y-82569940D01*
X170797708Y-82565349D01*
X170958697Y-82512003D01*
X171103044Y-82422968D01*
X171112668Y-82413343D01*
X171173987Y-82379856D01*
X171243679Y-82384835D01*
X171288034Y-82413339D01*
X171297267Y-82422572D01*
X171297271Y-82422575D01*
X171441507Y-82511542D01*
X171441518Y-82511547D01*
X171602393Y-82564855D01*
X171701683Y-82574999D01*
X172225000Y-82574999D01*
X172248308Y-82574999D01*
X172248322Y-82574998D01*
X172347607Y-82564855D01*
X172508481Y-82511547D01*
X172508492Y-82511542D01*
X172652728Y-82422575D01*
X172652732Y-82422572D01*
X172772572Y-82302732D01*
X172772575Y-82302728D01*
X172861542Y-82158492D01*
X172861547Y-82158481D01*
X172914855Y-81997606D01*
X172924999Y-81898322D01*
X172925000Y-81898309D01*
X172925000Y-81850000D01*
X172225000Y-81850000D01*
X172225000Y-82574999D01*
X171701683Y-82574999D01*
X171725000Y-82574998D01*
X171725000Y-81698322D01*
X180200001Y-81698322D01*
X180210144Y-81797607D01*
X180263452Y-81958481D01*
X180263457Y-81958492D01*
X180352424Y-82102728D01*
X180352427Y-82102732D01*
X180472267Y-82222572D01*
X180472271Y-82222575D01*
X180616507Y-82311542D01*
X180616518Y-82311547D01*
X180777393Y-82364855D01*
X180876683Y-82374999D01*
X180900000Y-82374998D01*
X180900000Y-81650000D01*
X180200001Y-81650000D01*
X180200001Y-81698322D01*
X171725000Y-81698322D01*
X171725000Y-81350000D01*
X172225000Y-81350000D01*
X172924999Y-81350000D01*
X172924999Y-81301692D01*
X172924998Y-81301677D01*
X172914855Y-81202392D01*
X172893363Y-81137532D01*
X172881482Y-81101677D01*
X180200000Y-81101677D01*
X180200000Y-81150000D01*
X180900000Y-81150000D01*
X180900000Y-80425000D01*
X181400000Y-80425000D01*
X181400000Y-82374999D01*
X181423308Y-82374999D01*
X181423322Y-82374998D01*
X181522607Y-82364855D01*
X181683481Y-82311547D01*
X181683492Y-82311542D01*
X181827731Y-82222573D01*
X181836959Y-82213345D01*
X181898279Y-82179856D01*
X181967971Y-82184835D01*
X182012327Y-82213339D01*
X182021955Y-82222967D01*
X182021959Y-82222970D01*
X182166294Y-82311998D01*
X182166297Y-82311999D01*
X182166303Y-82312003D01*
X182327292Y-82365349D01*
X182426655Y-82375500D01*
X182973344Y-82375499D01*
X182973352Y-82375498D01*
X182973355Y-82375498D01*
X183029771Y-82369735D01*
X183072708Y-82365349D01*
X183233697Y-82312003D01*
X183378044Y-82222968D01*
X183497968Y-82103044D01*
X183587003Y-81958697D01*
X183640349Y-81797708D01*
X183650500Y-81698345D01*
X183650500Y-81688322D01*
X186225001Y-81688322D01*
X186235144Y-81787607D01*
X186288452Y-81948481D01*
X186288457Y-81948492D01*
X186377424Y-82092728D01*
X186377427Y-82092732D01*
X186497267Y-82212572D01*
X186497271Y-82212575D01*
X186641507Y-82301542D01*
X186641518Y-82301547D01*
X186802393Y-82354855D01*
X186901683Y-82364999D01*
X186925000Y-82364998D01*
X186925000Y-81640000D01*
X186225001Y-81640000D01*
X186225001Y-81688322D01*
X183650500Y-81688322D01*
X183650499Y-81521158D01*
X183650499Y-81420809D01*
X183670183Y-81353769D01*
X183686817Y-81333128D01*
X183705277Y-81314669D01*
X183776465Y-81208127D01*
X183813184Y-81119480D01*
X183824700Y-81091677D01*
X186225000Y-81091677D01*
X186225000Y-81140000D01*
X186925000Y-81140000D01*
X186925000Y-80414999D01*
X186901693Y-80415000D01*
X186901674Y-80415001D01*
X186802392Y-80425144D01*
X186641518Y-80478452D01*
X186641507Y-80478457D01*
X186497271Y-80567424D01*
X186497267Y-80567427D01*
X186377427Y-80687267D01*
X186377424Y-80687271D01*
X186288457Y-80831507D01*
X186288452Y-80831518D01*
X186235144Y-80992393D01*
X186225000Y-81091677D01*
X183824700Y-81091677D01*
X183825501Y-81089744D01*
X183850500Y-80964069D01*
X183850500Y-80404935D01*
X183870185Y-80337896D01*
X183871366Y-80336090D01*
X183909394Y-80279179D01*
X183969737Y-80133497D01*
X184000500Y-79978842D01*
X184000500Y-79821158D01*
X184000500Y-79821155D01*
X184000499Y-79821153D01*
X183969737Y-79666503D01*
X183947163Y-79612003D01*
X183909397Y-79520827D01*
X183909390Y-79520814D01*
X183821789Y-79389711D01*
X183821786Y-79389707D01*
X183710292Y-79278213D01*
X183710288Y-79278210D01*
X183579185Y-79190609D01*
X183579172Y-79190602D01*
X183433501Y-79130264D01*
X183433489Y-79130261D01*
X183278845Y-79099500D01*
X183278842Y-79099500D01*
X183121158Y-79099500D01*
X183121155Y-79099500D01*
X182966510Y-79130261D01*
X182966498Y-79130264D01*
X182820827Y-79190602D01*
X182820814Y-79190609D01*
X182689711Y-79278210D01*
X182689707Y-79278213D01*
X182578213Y-79389707D01*
X182578210Y-79389711D01*
X182490609Y-79520814D01*
X182490602Y-79520827D01*
X182430264Y-79666498D01*
X182430261Y-79666510D01*
X182399500Y-79821153D01*
X182399500Y-79978846D01*
X182430261Y-80133489D01*
X182430264Y-80133501D01*
X182482019Y-80258450D01*
X182489488Y-80327919D01*
X182458212Y-80390398D01*
X182398123Y-80426050D01*
X182380061Y-80429260D01*
X182327291Y-80434651D01*
X182327289Y-80434651D01*
X182166305Y-80487996D01*
X182166294Y-80488001D01*
X182021959Y-80577029D01*
X182021953Y-80577033D01*
X182012324Y-80586663D01*
X181951000Y-80620146D01*
X181881308Y-80615159D01*
X181836965Y-80586660D01*
X181827732Y-80577427D01*
X181827728Y-80577424D01*
X181683492Y-80488457D01*
X181683481Y-80488452D01*
X181522606Y-80435144D01*
X181423322Y-80425000D01*
X181400000Y-80425000D01*
X180900000Y-80425000D01*
X180900000Y-80424999D01*
X180876693Y-80425000D01*
X180876674Y-80425001D01*
X180777392Y-80435144D01*
X180616518Y-80488452D01*
X180616507Y-80488457D01*
X180472271Y-80577424D01*
X180472267Y-80577427D01*
X180352427Y-80697267D01*
X180352424Y-80697271D01*
X180263457Y-80841507D01*
X180263452Y-80841518D01*
X180210144Y-81002393D01*
X180200000Y-81101677D01*
X172881482Y-81101677D01*
X172861547Y-81041518D01*
X172861542Y-81041507D01*
X172772575Y-80897271D01*
X172772572Y-80897267D01*
X172652732Y-80777427D01*
X172652728Y-80777424D01*
X172508492Y-80688457D01*
X172508481Y-80688452D01*
X172347606Y-80635144D01*
X172248322Y-80625000D01*
X172225000Y-80625000D01*
X172225000Y-81350000D01*
X171725000Y-81350000D01*
X171725000Y-80624999D01*
X171701693Y-80625000D01*
X171701674Y-80625001D01*
X171602392Y-80635144D01*
X171441518Y-80688452D01*
X171441507Y-80688457D01*
X171297271Y-80777424D01*
X171297265Y-80777428D01*
X171288031Y-80786663D01*
X171226707Y-80820146D01*
X171157015Y-80815159D01*
X171112672Y-80786660D01*
X171103044Y-80777032D01*
X171103040Y-80777029D01*
X170958705Y-80688001D01*
X170958699Y-80687998D01*
X170958697Y-80687997D01*
X170955555Y-80686956D01*
X170797709Y-80634651D01*
X170698346Y-80624500D01*
X170151662Y-80624500D01*
X170151644Y-80624501D01*
X170052292Y-80634650D01*
X170052289Y-80634651D01*
X169891305Y-80687996D01*
X169891294Y-80688001D01*
X169746959Y-80777029D01*
X169746955Y-80777032D01*
X169643573Y-80880413D01*
X169582250Y-80913897D01*
X169512558Y-80908912D01*
X169486999Y-80895831D01*
X169479183Y-80890608D01*
X169479172Y-80890602D01*
X169333501Y-80830264D01*
X169333489Y-80830261D01*
X169178845Y-80799500D01*
X169178842Y-80799500D01*
X169021158Y-80799500D01*
X169021155Y-80799500D01*
X168866510Y-80830261D01*
X168866498Y-80830264D01*
X168720827Y-80890602D01*
X168720814Y-80890609D01*
X168589711Y-80978210D01*
X168589707Y-80978213D01*
X168478213Y-81089707D01*
X168478210Y-81089711D01*
X168390609Y-81220814D01*
X168390602Y-81220827D01*
X168330264Y-81366498D01*
X168330261Y-81366510D01*
X168299500Y-81521153D01*
X164586470Y-81521153D01*
X164651557Y-81393412D01*
X164717246Y-81191243D01*
X164750500Y-80981287D01*
X164750500Y-80768713D01*
X164717246Y-80558757D01*
X164651557Y-80356588D01*
X164555051Y-80167184D01*
X164555049Y-80167181D01*
X164555048Y-80167179D01*
X164430109Y-79995213D01*
X164279786Y-79844890D01*
X164107820Y-79719951D01*
X164107115Y-79719591D01*
X164099054Y-79715485D01*
X164048259Y-79667512D01*
X164031463Y-79599692D01*
X164053999Y-79533556D01*
X164099054Y-79494515D01*
X164107816Y-79490051D01*
X164203979Y-79420185D01*
X164279786Y-79365109D01*
X164279788Y-79365106D01*
X164279792Y-79365104D01*
X164430104Y-79214792D01*
X164430106Y-79214788D01*
X164430109Y-79214786D01*
X164555048Y-79042820D01*
X164555047Y-79042820D01*
X164555051Y-79042816D01*
X164651557Y-78853412D01*
X164717246Y-78651243D01*
X164722012Y-78621153D01*
X168299500Y-78621153D01*
X168299500Y-78778846D01*
X168330261Y-78933489D01*
X168330264Y-78933501D01*
X168390602Y-79079172D01*
X168390609Y-79079185D01*
X168478210Y-79210288D01*
X168478213Y-79210292D01*
X168589707Y-79321786D01*
X168589711Y-79321789D01*
X168720814Y-79409390D01*
X168720827Y-79409397D01*
X168787031Y-79436819D01*
X168866503Y-79469737D01*
X168968613Y-79490048D01*
X169021153Y-79500499D01*
X169021156Y-79500500D01*
X169021158Y-79500500D01*
X169178844Y-79500500D01*
X169178845Y-79500499D01*
X169333497Y-79469737D01*
X169479179Y-79409394D01*
X169487001Y-79404167D01*
X169553676Y-79383288D01*
X169621057Y-79401771D01*
X169643574Y-79419586D01*
X169746956Y-79522968D01*
X169746958Y-79522969D01*
X169746959Y-79522970D01*
X169891294Y-79611998D01*
X169891297Y-79611999D01*
X169891303Y-79612003D01*
X170052292Y-79665349D01*
X170151655Y-79675500D01*
X170698344Y-79675499D01*
X170698352Y-79675498D01*
X170698355Y-79675498D01*
X170786342Y-79666510D01*
X170797708Y-79665349D01*
X170958697Y-79612003D01*
X171103044Y-79522968D01*
X171112668Y-79513343D01*
X171173987Y-79479856D01*
X171243679Y-79484835D01*
X171288034Y-79513339D01*
X171297267Y-79522572D01*
X171297271Y-79522575D01*
X171441507Y-79611542D01*
X171441518Y-79611547D01*
X171602393Y-79664855D01*
X171701683Y-79674999D01*
X172225000Y-79674999D01*
X172248308Y-79674999D01*
X172248322Y-79674998D01*
X172347607Y-79664855D01*
X172508481Y-79611547D01*
X172508492Y-79611542D01*
X172652728Y-79522575D01*
X172652732Y-79522572D01*
X172772572Y-79402732D01*
X172772575Y-79402728D01*
X172861542Y-79258492D01*
X172861547Y-79258481D01*
X172914855Y-79097606D01*
X172924999Y-78998322D01*
X172925000Y-78998309D01*
X172925000Y-78950000D01*
X172225000Y-78950000D01*
X172225000Y-79674999D01*
X171701683Y-79674999D01*
X171725000Y-79674998D01*
X171725000Y-78450000D01*
X172225000Y-78450000D01*
X172924999Y-78450000D01*
X172924999Y-78401692D01*
X172924998Y-78401677D01*
X172914855Y-78302392D01*
X172861547Y-78141518D01*
X172861542Y-78141507D01*
X172772575Y-77997271D01*
X172772572Y-77997267D01*
X172652732Y-77877427D01*
X172652728Y-77877424D01*
X172508492Y-77788457D01*
X172508481Y-77788452D01*
X172347606Y-77735144D01*
X172248322Y-77725000D01*
X172225000Y-77725000D01*
X172225000Y-78450000D01*
X171725000Y-78450000D01*
X171725000Y-77724999D01*
X171701693Y-77725000D01*
X171701674Y-77725001D01*
X171602392Y-77735144D01*
X171441518Y-77788452D01*
X171441507Y-77788457D01*
X171297271Y-77877424D01*
X171297265Y-77877428D01*
X171288031Y-77886663D01*
X171226707Y-77920146D01*
X171157015Y-77915159D01*
X171112672Y-77886660D01*
X171103044Y-77877032D01*
X171103040Y-77877029D01*
X170958705Y-77788001D01*
X170958699Y-77787998D01*
X170958697Y-77787997D01*
X170882298Y-77762681D01*
X170797709Y-77734651D01*
X170698346Y-77724500D01*
X170151662Y-77724500D01*
X170151644Y-77724501D01*
X170052292Y-77734650D01*
X170052289Y-77734651D01*
X169891305Y-77787996D01*
X169891294Y-77788001D01*
X169746959Y-77877029D01*
X169746955Y-77877032D01*
X169643573Y-77980413D01*
X169582250Y-78013897D01*
X169512558Y-78008912D01*
X169486999Y-77995831D01*
X169479183Y-77990608D01*
X169479172Y-77990602D01*
X169333501Y-77930264D01*
X169333489Y-77930261D01*
X169178845Y-77899500D01*
X169178842Y-77899500D01*
X169021158Y-77899500D01*
X169021155Y-77899500D01*
X168866510Y-77930261D01*
X168866498Y-77930264D01*
X168720827Y-77990602D01*
X168720814Y-77990609D01*
X168589711Y-78078210D01*
X168589707Y-78078213D01*
X168478213Y-78189707D01*
X168478210Y-78189711D01*
X168390609Y-78320814D01*
X168390602Y-78320827D01*
X168330264Y-78466498D01*
X168330261Y-78466510D01*
X168299500Y-78621153D01*
X164722012Y-78621153D01*
X164750500Y-78441287D01*
X164750500Y-78228713D01*
X164717246Y-78018757D01*
X164651557Y-77816588D01*
X164555051Y-77627184D01*
X164555049Y-77627181D01*
X164555048Y-77627179D01*
X164430109Y-77455213D01*
X164279786Y-77304890D01*
X164107820Y-77179951D01*
X164107115Y-77179591D01*
X164099054Y-77175485D01*
X164048259Y-77127512D01*
X164031463Y-77059692D01*
X164053999Y-76993556D01*
X164099054Y-76954515D01*
X164107816Y-76950051D01*
X164129789Y-76934086D01*
X164279786Y-76825109D01*
X164279788Y-76825106D01*
X164279792Y-76825104D01*
X164430104Y-76674792D01*
X164430106Y-76674788D01*
X164430109Y-76674786D01*
X164555048Y-76502820D01*
X164555047Y-76502820D01*
X164555051Y-76502816D01*
X164651557Y-76313412D01*
X164717246Y-76111243D01*
X164750500Y-75901287D01*
X164750500Y-75721153D01*
X168399500Y-75721153D01*
X168399500Y-75878846D01*
X168430261Y-76033489D01*
X168430264Y-76033501D01*
X168490602Y-76179172D01*
X168490609Y-76179185D01*
X168578210Y-76310288D01*
X168578213Y-76310292D01*
X168689707Y-76421786D01*
X168689711Y-76421789D01*
X168820814Y-76509390D01*
X168820827Y-76509397D01*
X168966498Y-76569735D01*
X168966503Y-76569737D01*
X169085384Y-76593384D01*
X169121153Y-76600499D01*
X169121156Y-76600500D01*
X169121158Y-76600500D01*
X169278844Y-76600500D01*
X169278845Y-76600499D01*
X169433497Y-76569737D01*
X169540959Y-76525224D01*
X169610428Y-76517756D01*
X169672907Y-76549031D01*
X169676092Y-76552104D01*
X169746956Y-76622968D01*
X169746958Y-76622969D01*
X169746959Y-76622970D01*
X169891294Y-76711998D01*
X169891297Y-76711999D01*
X169891303Y-76712003D01*
X170052292Y-76765349D01*
X170151655Y-76775500D01*
X170698344Y-76775499D01*
X170698352Y-76775498D01*
X170698355Y-76775498D01*
X170784893Y-76766658D01*
X170797708Y-76765349D01*
X170958697Y-76712003D01*
X171103044Y-76622968D01*
X171112668Y-76613343D01*
X171173987Y-76579856D01*
X171243679Y-76584835D01*
X171288034Y-76613339D01*
X171297267Y-76622572D01*
X171297271Y-76622575D01*
X171441507Y-76711542D01*
X171441518Y-76711547D01*
X171602393Y-76764855D01*
X171701683Y-76774999D01*
X172225000Y-76774999D01*
X172248308Y-76774999D01*
X172248322Y-76774998D01*
X172347607Y-76764855D01*
X172508481Y-76711547D01*
X172508492Y-76711542D01*
X172652728Y-76622575D01*
X172652732Y-76622572D01*
X172772572Y-76502732D01*
X172772575Y-76502728D01*
X172861542Y-76358492D01*
X172861547Y-76358481D01*
X172914855Y-76197606D01*
X172924999Y-76098322D01*
X172925000Y-76098309D01*
X172925000Y-76050000D01*
X172225000Y-76050000D01*
X172225000Y-76774999D01*
X171701683Y-76774999D01*
X171725000Y-76774998D01*
X171725000Y-75550000D01*
X172225000Y-75550000D01*
X172924999Y-75550000D01*
X172924999Y-75501692D01*
X172924998Y-75501677D01*
X172914855Y-75402392D01*
X172861547Y-75241518D01*
X172861542Y-75241507D01*
X172772575Y-75097271D01*
X172772572Y-75097267D01*
X172652732Y-74977427D01*
X172652728Y-74977424D01*
X172508492Y-74888457D01*
X172508481Y-74888452D01*
X172347606Y-74835144D01*
X172248322Y-74825000D01*
X172225000Y-74825000D01*
X172225000Y-75550000D01*
X171725000Y-75550000D01*
X171725000Y-74824999D01*
X171701693Y-74825000D01*
X171701674Y-74825001D01*
X171602392Y-74835144D01*
X171441518Y-74888452D01*
X171441507Y-74888457D01*
X171297271Y-74977424D01*
X171297265Y-74977428D01*
X171288031Y-74986663D01*
X171226707Y-75020146D01*
X171157015Y-75015159D01*
X171112672Y-74986660D01*
X171103044Y-74977032D01*
X171103040Y-74977029D01*
X170958705Y-74888001D01*
X170958699Y-74887998D01*
X170958697Y-74887997D01*
X170958694Y-74887996D01*
X170797709Y-74834651D01*
X170698346Y-74824500D01*
X170151662Y-74824500D01*
X170151644Y-74824501D01*
X170052292Y-74834650D01*
X170052289Y-74834651D01*
X169891305Y-74887996D01*
X169891294Y-74888001D01*
X169746959Y-74977029D01*
X169676092Y-75047896D01*
X169614768Y-75081380D01*
X169545077Y-75076395D01*
X169540983Y-75074785D01*
X169433497Y-75030263D01*
X169433489Y-75030261D01*
X169278845Y-74999500D01*
X169278842Y-74999500D01*
X169121158Y-74999500D01*
X169121155Y-74999500D01*
X168966510Y-75030261D01*
X168966498Y-75030264D01*
X168820827Y-75090602D01*
X168820814Y-75090609D01*
X168689711Y-75178210D01*
X168689707Y-75178213D01*
X168578213Y-75289707D01*
X168578210Y-75289711D01*
X168490609Y-75420814D01*
X168490602Y-75420827D01*
X168430264Y-75566498D01*
X168430261Y-75566510D01*
X168399500Y-75721153D01*
X164750500Y-75721153D01*
X164750500Y-75688713D01*
X164717246Y-75478757D01*
X164651557Y-75276588D01*
X164555051Y-75087184D01*
X164555049Y-75087181D01*
X164555048Y-75087179D01*
X164430109Y-74915213D01*
X164279790Y-74764894D01*
X164279785Y-74764890D01*
X164187789Y-74698052D01*
X164187778Y-74698044D01*
X164107816Y-74639949D01*
X164091701Y-74631738D01*
X164084917Y-74627056D01*
X164067902Y-74606063D01*
X164061464Y-74599983D01*
X184649500Y-74599983D01*
X184649500Y-75350001D01*
X184649501Y-75350019D01*
X184660000Y-75452796D01*
X184660001Y-75452799D01*
X184697682Y-75566510D01*
X184715186Y-75619334D01*
X184807288Y-75768656D01*
X184931344Y-75892712D01*
X185080666Y-75984814D01*
X185129337Y-76000942D01*
X185186781Y-76040713D01*
X185213604Y-76105229D01*
X185201289Y-76174005D01*
X185178016Y-76206325D01*
X185169532Y-76214808D01*
X185169530Y-76214811D01*
X185081522Y-76360393D01*
X185030913Y-76522807D01*
X185024500Y-76593386D01*
X185024500Y-77106613D01*
X185030913Y-77177192D01*
X185030913Y-77177194D01*
X185030914Y-77177196D01*
X185070704Y-77304890D01*
X185081522Y-77339606D01*
X185169530Y-77485188D01*
X185271661Y-77587319D01*
X185305146Y-77648642D01*
X185300162Y-77718334D01*
X185271661Y-77762681D01*
X185169531Y-77864810D01*
X185169530Y-77864811D01*
X185081522Y-78010393D01*
X185030913Y-78172807D01*
X185024500Y-78243386D01*
X185024500Y-78756613D01*
X185030913Y-78827192D01*
X185030913Y-78827194D01*
X185030914Y-78827196D01*
X185081522Y-78989606D01*
X185166551Y-79130261D01*
X185169530Y-79135188D01*
X185289811Y-79255469D01*
X185289813Y-79255470D01*
X185289815Y-79255472D01*
X185435394Y-79343478D01*
X185597804Y-79394086D01*
X185668384Y-79400500D01*
X185668387Y-79400500D01*
X186329192Y-79400500D01*
X186396231Y-79420185D01*
X186416873Y-79436819D01*
X187388681Y-80408627D01*
X187422166Y-80469950D01*
X187425000Y-80496308D01*
X187425000Y-82364999D01*
X187448308Y-82364999D01*
X187448322Y-82364998D01*
X187547607Y-82354855D01*
X187708481Y-82301547D01*
X187708492Y-82301542D01*
X187852731Y-82212573D01*
X187861959Y-82203345D01*
X187923279Y-82169856D01*
X187992971Y-82174835D01*
X188037327Y-82203339D01*
X188046955Y-82212967D01*
X188046959Y-82212970D01*
X188191294Y-82301998D01*
X188191297Y-82301999D01*
X188191303Y-82302003D01*
X188352292Y-82355349D01*
X188451655Y-82365500D01*
X188998344Y-82365499D01*
X188998352Y-82365498D01*
X188998355Y-82365498D01*
X189052760Y-82359940D01*
X189097708Y-82355349D01*
X189258697Y-82302003D01*
X189403044Y-82212968D01*
X189522968Y-82093044D01*
X189612003Y-81948697D01*
X189665349Y-81787708D01*
X189675500Y-81688345D01*
X189675499Y-81091656D01*
X189675300Y-81089711D01*
X189665349Y-80992292D01*
X189665348Y-80992289D01*
X189656794Y-80966474D01*
X189650500Y-80927470D01*
X189650500Y-80404935D01*
X189670185Y-80337896D01*
X189671366Y-80336090D01*
X189709394Y-80279179D01*
X189769737Y-80133497D01*
X189800500Y-79978842D01*
X189800500Y-79821158D01*
X189800500Y-79821155D01*
X189800499Y-79821153D01*
X189769737Y-79666503D01*
X189747163Y-79612003D01*
X189709397Y-79520827D01*
X189709390Y-79520814D01*
X189621789Y-79389711D01*
X189621786Y-79389707D01*
X189510292Y-79278213D01*
X189510288Y-79278210D01*
X189379185Y-79190609D01*
X189379172Y-79190602D01*
X189233501Y-79130264D01*
X189233489Y-79130261D01*
X189078845Y-79099500D01*
X189078842Y-79099500D01*
X188921158Y-79099500D01*
X188921155Y-79099500D01*
X188766510Y-79130261D01*
X188766498Y-79130264D01*
X188620827Y-79190602D01*
X188620820Y-79190606D01*
X188591928Y-79209911D01*
X188563955Y-79228602D01*
X188497279Y-79249480D01*
X188495065Y-79249500D01*
X188120808Y-79249500D01*
X188053769Y-79229815D01*
X188033127Y-79213181D01*
X186979986Y-78160040D01*
X186949281Y-78109248D01*
X186918478Y-78010394D01*
X186830472Y-77864815D01*
X186830470Y-77864813D01*
X186830469Y-77864811D01*
X186728339Y-77762681D01*
X186694854Y-77701358D01*
X186699838Y-77631666D01*
X186728339Y-77587319D01*
X186830468Y-77485189D01*
X186830469Y-77485188D01*
X186830472Y-77485185D01*
X186918478Y-77339606D01*
X186969086Y-77177196D01*
X186975500Y-77106616D01*
X186975500Y-76845320D01*
X186995185Y-76778281D01*
X187003645Y-76766658D01*
X187005272Y-76764675D01*
X187005274Y-76764671D01*
X187005277Y-76764669D01*
X187076465Y-76658127D01*
X187100335Y-76600500D01*
X187125501Y-76539744D01*
X187136411Y-76484898D01*
X187150500Y-76414071D01*
X187150500Y-76174499D01*
X187170185Y-76107460D01*
X187222989Y-76061705D01*
X187274500Y-76050499D01*
X187650002Y-76050499D01*
X187650008Y-76050499D01*
X187752797Y-76039999D01*
X187919334Y-75984814D01*
X188068656Y-75892712D01*
X188192712Y-75768656D01*
X188284814Y-75619334D01*
X188339999Y-75452797D01*
X188350500Y-75350009D01*
X188350499Y-74599992D01*
X188344722Y-74543443D01*
X188339999Y-74497203D01*
X188339998Y-74497200D01*
X188284814Y-74330666D01*
X188192712Y-74181344D01*
X188068656Y-74057288D01*
X187919334Y-73965186D01*
X187752797Y-73910001D01*
X187752795Y-73910000D01*
X187650010Y-73899500D01*
X185349998Y-73899500D01*
X185349981Y-73899501D01*
X185247203Y-73910000D01*
X185247200Y-73910001D01*
X185080668Y-73965185D01*
X185080663Y-73965187D01*
X184931342Y-74057289D01*
X184807289Y-74181342D01*
X184715187Y-74330663D01*
X184715186Y-74330666D01*
X184660001Y-74497203D01*
X184660001Y-74497204D01*
X184660000Y-74497204D01*
X184649500Y-74599983D01*
X164061464Y-74599983D01*
X164048259Y-74587512D01*
X164046232Y-74579327D01*
X164040922Y-74572776D01*
X164037958Y-74545918D01*
X164031463Y-74519692D01*
X164034182Y-74511709D01*
X164033258Y-74503328D01*
X164045283Y-74479134D01*
X164053999Y-74453556D01*
X164061020Y-74447471D01*
X164064356Y-74440761D01*
X164078540Y-74432290D01*
X164099054Y-74414515D01*
X164107816Y-74410051D01*
X164129789Y-74394086D01*
X164279786Y-74285109D01*
X164279788Y-74285106D01*
X164279792Y-74285104D01*
X164430104Y-74134792D01*
X164430106Y-74134788D01*
X164430109Y-74134786D01*
X164555048Y-73962820D01*
X164555047Y-73962820D01*
X164555051Y-73962816D01*
X164651557Y-73773412D01*
X164717246Y-73571243D01*
X164750500Y-73361287D01*
X164750500Y-73148713D01*
X164717246Y-72938757D01*
X164693655Y-72866153D01*
X168399500Y-72866153D01*
X168399500Y-73023846D01*
X168430261Y-73178489D01*
X168430264Y-73178501D01*
X168490602Y-73324172D01*
X168490609Y-73324185D01*
X168578210Y-73455288D01*
X168578213Y-73455292D01*
X168689707Y-73566786D01*
X168689711Y-73566789D01*
X168820814Y-73654390D01*
X168820827Y-73654397D01*
X168966498Y-73714735D01*
X168966503Y-73714737D01*
X169121153Y-73745499D01*
X169121156Y-73745500D01*
X169121158Y-73745500D01*
X169278844Y-73745500D01*
X169278845Y-73745499D01*
X169433497Y-73714737D01*
X169579179Y-73654394D01*
X169579189Y-73654386D01*
X169582252Y-73652750D01*
X169584058Y-73652373D01*
X169584808Y-73652063D01*
X169584866Y-73652205D01*
X169650652Y-73638496D01*
X169715900Y-73663485D01*
X169728405Y-73674417D01*
X169821955Y-73767967D01*
X169821959Y-73767970D01*
X169966294Y-73856998D01*
X169966297Y-73856999D01*
X169966303Y-73857003D01*
X170127292Y-73910349D01*
X170226655Y-73920500D01*
X170773344Y-73920499D01*
X170773352Y-73920498D01*
X170773355Y-73920498D01*
X170827760Y-73914940D01*
X170872708Y-73910349D01*
X171033697Y-73857003D01*
X171178044Y-73767968D01*
X171187668Y-73758343D01*
X171248987Y-73724856D01*
X171318679Y-73729835D01*
X171363034Y-73758339D01*
X171372267Y-73767572D01*
X171372271Y-73767575D01*
X171516507Y-73856542D01*
X171516518Y-73856547D01*
X171677393Y-73909855D01*
X171776683Y-73919999D01*
X172300000Y-73919999D01*
X172323308Y-73919999D01*
X172323322Y-73919998D01*
X172422607Y-73909855D01*
X172583481Y-73856547D01*
X172583492Y-73856542D01*
X172727728Y-73767575D01*
X172727732Y-73767572D01*
X172847572Y-73647732D01*
X172847575Y-73647728D01*
X172936542Y-73503492D01*
X172936547Y-73503481D01*
X172989855Y-73342606D01*
X172999999Y-73243322D01*
X173000000Y-73243309D01*
X173000000Y-73195000D01*
X172300000Y-73195000D01*
X172300000Y-73919999D01*
X171776683Y-73919999D01*
X171800000Y-73919998D01*
X171800000Y-72695000D01*
X172300000Y-72695000D01*
X172999999Y-72695000D01*
X172999999Y-72646692D01*
X172999998Y-72646677D01*
X172989855Y-72547392D01*
X172941010Y-72399986D01*
X184650001Y-72399986D01*
X184660494Y-72502697D01*
X184715641Y-72669119D01*
X184715643Y-72669124D01*
X184807684Y-72818345D01*
X184931654Y-72942315D01*
X185080875Y-73034356D01*
X185080880Y-73034358D01*
X185247302Y-73089505D01*
X185247309Y-73089506D01*
X185350019Y-73099999D01*
X186249999Y-73099999D01*
X186750000Y-73099999D01*
X187649972Y-73099999D01*
X187649986Y-73099998D01*
X187752697Y-73089505D01*
X187919119Y-73034358D01*
X187919124Y-73034356D01*
X188068345Y-72942315D01*
X188192315Y-72818345D01*
X188284356Y-72669124D01*
X188284358Y-72669119D01*
X188339505Y-72502697D01*
X188339506Y-72502690D01*
X188349999Y-72399986D01*
X188350000Y-72399973D01*
X188350000Y-72275000D01*
X186750000Y-72275000D01*
X186750000Y-73099999D01*
X186249999Y-73099999D01*
X186250000Y-73099998D01*
X186250000Y-72275000D01*
X184650001Y-72275000D01*
X184650001Y-72399986D01*
X172941010Y-72399986D01*
X172936547Y-72386518D01*
X172936542Y-72386507D01*
X172876235Y-72288735D01*
X172847575Y-72242271D01*
X172847572Y-72242267D01*
X172727732Y-72122427D01*
X172727728Y-72122424D01*
X172583492Y-72033457D01*
X172583481Y-72033452D01*
X172422606Y-71980144D01*
X172323322Y-71970000D01*
X172300000Y-71970000D01*
X172300000Y-72695000D01*
X171800000Y-72695000D01*
X171800000Y-71969999D01*
X171776693Y-71970000D01*
X171776674Y-71970001D01*
X171677392Y-71980144D01*
X171516518Y-72033452D01*
X171516507Y-72033457D01*
X171372271Y-72122424D01*
X171372265Y-72122428D01*
X171363031Y-72131663D01*
X171301707Y-72165146D01*
X171232015Y-72160159D01*
X171187672Y-72131660D01*
X171178044Y-72122032D01*
X171178040Y-72122029D01*
X171033705Y-72033001D01*
X171033699Y-72032998D01*
X171033697Y-72032997D01*
X171033694Y-72032996D01*
X170872709Y-71979651D01*
X170773346Y-71969500D01*
X170226662Y-71969500D01*
X170226644Y-71969501D01*
X170127292Y-71979650D01*
X170127289Y-71979651D01*
X169966305Y-72032996D01*
X169966294Y-72033001D01*
X169821959Y-72122029D01*
X169821955Y-72122032D01*
X169728404Y-72215582D01*
X169667081Y-72249066D01*
X169597389Y-72244081D01*
X169582272Y-72237259D01*
X169579175Y-72235604D01*
X169433501Y-72175264D01*
X169433489Y-72175261D01*
X169278845Y-72144500D01*
X169278842Y-72144500D01*
X169121158Y-72144500D01*
X169121155Y-72144500D01*
X168966510Y-72175261D01*
X168966498Y-72175264D01*
X168820827Y-72235602D01*
X168820814Y-72235609D01*
X168689711Y-72323210D01*
X168689707Y-72323213D01*
X168578213Y-72434707D01*
X168578210Y-72434711D01*
X168490609Y-72565814D01*
X168490602Y-72565827D01*
X168430264Y-72711498D01*
X168430261Y-72711510D01*
X168399500Y-72866153D01*
X164693655Y-72866153D01*
X164651557Y-72736588D01*
X164651555Y-72736585D01*
X164651555Y-72736583D01*
X164555048Y-72547179D01*
X164430109Y-72375213D01*
X164279786Y-72224890D01*
X164107820Y-72099951D01*
X164107115Y-72099591D01*
X164099054Y-72095485D01*
X164048259Y-72047512D01*
X164031463Y-71979692D01*
X164053999Y-71913556D01*
X164099054Y-71874515D01*
X164107816Y-71870051D01*
X164129789Y-71854086D01*
X164279786Y-71745109D01*
X164279788Y-71745106D01*
X164279792Y-71745104D01*
X164374883Y-71650013D01*
X184650000Y-71650013D01*
X184650000Y-71775000D01*
X186250000Y-71775000D01*
X186750000Y-71775000D01*
X188349999Y-71775000D01*
X188349999Y-71650028D01*
X188349998Y-71650013D01*
X188339505Y-71547302D01*
X188284358Y-71380880D01*
X188284356Y-71380875D01*
X188192315Y-71231654D01*
X188068345Y-71107684D01*
X187919124Y-71015643D01*
X187919119Y-71015641D01*
X187752697Y-70960494D01*
X187752690Y-70960493D01*
X187649986Y-70950000D01*
X186750000Y-70950000D01*
X186750000Y-71775000D01*
X186250000Y-71775000D01*
X186250000Y-70950000D01*
X185350028Y-70950000D01*
X185350012Y-70950001D01*
X185247302Y-70960494D01*
X185080880Y-71015641D01*
X185080875Y-71015643D01*
X184931654Y-71107684D01*
X184807684Y-71231654D01*
X184715643Y-71380875D01*
X184715641Y-71380880D01*
X184660494Y-71547302D01*
X184660493Y-71547309D01*
X184650000Y-71650013D01*
X164374883Y-71650013D01*
X164430104Y-71594792D01*
X164555051Y-71422816D01*
X164651557Y-71233412D01*
X164717246Y-71031243D01*
X164750500Y-70821287D01*
X164750500Y-70608713D01*
X164717246Y-70398757D01*
X164651557Y-70196588D01*
X164555051Y-70007184D01*
X164492546Y-69921153D01*
X168399500Y-69921153D01*
X168399500Y-70078846D01*
X168430261Y-70233489D01*
X168430264Y-70233501D01*
X168490602Y-70379172D01*
X168490609Y-70379185D01*
X168578210Y-70510288D01*
X168578213Y-70510292D01*
X168689707Y-70621786D01*
X168689711Y-70621789D01*
X168820814Y-70709390D01*
X168820827Y-70709397D01*
X168914131Y-70748044D01*
X168966503Y-70769737D01*
X169121153Y-70800499D01*
X169121156Y-70800500D01*
X169121158Y-70800500D01*
X169278844Y-70800500D01*
X169278845Y-70800499D01*
X169433497Y-70769737D01*
X169579179Y-70709394D01*
X169579182Y-70709391D01*
X169580944Y-70708662D01*
X169650413Y-70701193D01*
X169712893Y-70732468D01*
X169725666Y-70746315D01*
X169727028Y-70748037D01*
X169727032Y-70748044D01*
X169727037Y-70748049D01*
X169846955Y-70867967D01*
X169846959Y-70867970D01*
X169991294Y-70956998D01*
X169991297Y-70956999D01*
X169991303Y-70957003D01*
X170152292Y-71010349D01*
X170251655Y-71020500D01*
X170798344Y-71020499D01*
X170798352Y-71020498D01*
X170798355Y-71020498D01*
X170852760Y-71014940D01*
X170897708Y-71010349D01*
X171058697Y-70957003D01*
X171203044Y-70867968D01*
X171212668Y-70858343D01*
X171273987Y-70824856D01*
X171343679Y-70829835D01*
X171388034Y-70858339D01*
X171397267Y-70867572D01*
X171397271Y-70867575D01*
X171541507Y-70956542D01*
X171541518Y-70956547D01*
X171702393Y-71009855D01*
X171801683Y-71019999D01*
X172325000Y-71019999D01*
X172348308Y-71019999D01*
X172348322Y-71019998D01*
X172447607Y-71009855D01*
X172608481Y-70956547D01*
X172608492Y-70956542D01*
X172752728Y-70867575D01*
X172752732Y-70867572D01*
X172872572Y-70747732D01*
X172872575Y-70747728D01*
X172961542Y-70603492D01*
X172961547Y-70603481D01*
X173014855Y-70442606D01*
X173024999Y-70343322D01*
X173025000Y-70343309D01*
X173025000Y-70295000D01*
X172325000Y-70295000D01*
X172325000Y-71019999D01*
X171801683Y-71019999D01*
X171825000Y-71019998D01*
X171825000Y-69795000D01*
X172325000Y-69795000D01*
X173024999Y-69795000D01*
X173024999Y-69746692D01*
X173024998Y-69746677D01*
X173014856Y-69647395D01*
X173014855Y-69647390D01*
X173006161Y-69621153D01*
X183799500Y-69621153D01*
X183799500Y-69778846D01*
X183830261Y-69933489D01*
X183830264Y-69933501D01*
X183890602Y-70079172D01*
X183890609Y-70079185D01*
X183978210Y-70210288D01*
X183978213Y-70210292D01*
X184089707Y-70321786D01*
X184089711Y-70321789D01*
X184220814Y-70409390D01*
X184220827Y-70409397D01*
X184366498Y-70469735D01*
X184366503Y-70469737D01*
X184521153Y-70500499D01*
X184521156Y-70500500D01*
X184521158Y-70500500D01*
X184678844Y-70500500D01*
X184678845Y-70500499D01*
X184833497Y-70469737D01*
X184979179Y-70409394D01*
X185110289Y-70321789D01*
X185221789Y-70210289D01*
X185309394Y-70079179D01*
X185369737Y-69933497D01*
X185400500Y-69778842D01*
X185400500Y-69621158D01*
X185400500Y-69621155D01*
X185400499Y-69621153D01*
X185392272Y-69579792D01*
X185369737Y-69466503D01*
X185334961Y-69382546D01*
X185309397Y-69320827D01*
X185309390Y-69320814D01*
X185221789Y-69189711D01*
X185221786Y-69189707D01*
X185110292Y-69078213D01*
X185110288Y-69078210D01*
X184979185Y-68990609D01*
X184979172Y-68990602D01*
X184833501Y-68930264D01*
X184833489Y-68930261D01*
X184678845Y-68899500D01*
X184678842Y-68899500D01*
X184521158Y-68899500D01*
X184521155Y-68899500D01*
X184366510Y-68930261D01*
X184366498Y-68930264D01*
X184220827Y-68990602D01*
X184220814Y-68990609D01*
X184089711Y-69078210D01*
X184089707Y-69078213D01*
X183978213Y-69189707D01*
X183978210Y-69189711D01*
X183890609Y-69320814D01*
X183890602Y-69320827D01*
X183830264Y-69466498D01*
X183830261Y-69466510D01*
X183799500Y-69621153D01*
X173006161Y-69621153D01*
X172961547Y-69486518D01*
X172961542Y-69486507D01*
X172872575Y-69342271D01*
X172872572Y-69342267D01*
X172752732Y-69222427D01*
X172752728Y-69222424D01*
X172608492Y-69133457D01*
X172608481Y-69133452D01*
X172447606Y-69080144D01*
X172348322Y-69070000D01*
X172325000Y-69070000D01*
X172325000Y-69795000D01*
X171825000Y-69795000D01*
X171825000Y-69069999D01*
X171801693Y-69070000D01*
X171801674Y-69070001D01*
X171702392Y-69080144D01*
X171541518Y-69133452D01*
X171541507Y-69133457D01*
X171397271Y-69222424D01*
X171397265Y-69222428D01*
X171388031Y-69231663D01*
X171326707Y-69265146D01*
X171257015Y-69260159D01*
X171212672Y-69231660D01*
X171203044Y-69222032D01*
X171203040Y-69222029D01*
X171058705Y-69133001D01*
X171058699Y-69132998D01*
X171058697Y-69132997D01*
X171057143Y-69132482D01*
X170897709Y-69079651D01*
X170798346Y-69069500D01*
X170251662Y-69069500D01*
X170251644Y-69069501D01*
X170152292Y-69079650D01*
X170152289Y-69079651D01*
X169991305Y-69132996D01*
X169991294Y-69133001D01*
X169846959Y-69222029D01*
X169846955Y-69222032D01*
X169770549Y-69298437D01*
X169709226Y-69331922D01*
X169639534Y-69326936D01*
X169613979Y-69313858D01*
X169579183Y-69290608D01*
X169579172Y-69290602D01*
X169433501Y-69230264D01*
X169433489Y-69230261D01*
X169278845Y-69199500D01*
X169278842Y-69199500D01*
X169121158Y-69199500D01*
X169121155Y-69199500D01*
X168966510Y-69230261D01*
X168966498Y-69230264D01*
X168820827Y-69290602D01*
X168820814Y-69290609D01*
X168689711Y-69378210D01*
X168689707Y-69378213D01*
X168578213Y-69489707D01*
X168578210Y-69489711D01*
X168490609Y-69620814D01*
X168490602Y-69620827D01*
X168430264Y-69766498D01*
X168430261Y-69766510D01*
X168399500Y-69921153D01*
X164492546Y-69921153D01*
X164430104Y-69835208D01*
X164316569Y-69721673D01*
X164283084Y-69660350D01*
X164288068Y-69590658D01*
X164329940Y-69534725D01*
X164360915Y-69517810D01*
X164492331Y-69468796D01*
X164607546Y-69382546D01*
X164693796Y-69267331D01*
X164744091Y-69132483D01*
X164750500Y-69072873D01*
X164750500Y-68593713D01*
X192749500Y-68593713D01*
X192749500Y-68806287D01*
X192782754Y-69016243D01*
X192839117Y-69189711D01*
X192848444Y-69218414D01*
X192944951Y-69407820D01*
X193069890Y-69579786D01*
X193220213Y-69730109D01*
X193392179Y-69855048D01*
X193392181Y-69855049D01*
X193392184Y-69855051D01*
X193581588Y-69951557D01*
X193783757Y-70017246D01*
X193993713Y-70050500D01*
X193993714Y-70050500D01*
X194206286Y-70050500D01*
X194206287Y-70050500D01*
X194416243Y-70017246D01*
X194618412Y-69951557D01*
X194807816Y-69855051D01*
X194912707Y-69778844D01*
X194979786Y-69730109D01*
X194979788Y-69730106D01*
X194979792Y-69730104D01*
X195130104Y-69579792D01*
X195130106Y-69579788D01*
X195130109Y-69579786D01*
X195255048Y-69407820D01*
X195255047Y-69407820D01*
X195255051Y-69407816D01*
X195351557Y-69218412D01*
X195417246Y-69016243D01*
X195450500Y-68806287D01*
X195450500Y-68593713D01*
X195417246Y-68383757D01*
X195351557Y-68181588D01*
X195255051Y-67992184D01*
X195255049Y-67992181D01*
X195255048Y-67992179D01*
X195130109Y-67820213D01*
X194979786Y-67669890D01*
X194807820Y-67544951D01*
X194618414Y-67448444D01*
X194618413Y-67448443D01*
X194618412Y-67448443D01*
X194416243Y-67382754D01*
X194416241Y-67382753D01*
X194416240Y-67382753D01*
X194254957Y-67357208D01*
X194206287Y-67349500D01*
X193993713Y-67349500D01*
X193945042Y-67357208D01*
X193783760Y-67382753D01*
X193581585Y-67448444D01*
X193392179Y-67544951D01*
X193220213Y-67669890D01*
X193069890Y-67820213D01*
X192944951Y-67992179D01*
X192848444Y-68181585D01*
X192782753Y-68383760D01*
X192750272Y-68588841D01*
X192749500Y-68593713D01*
X164750500Y-68593713D01*
X164750499Y-68100500D01*
X164750499Y-67277129D01*
X164750498Y-67277123D01*
X164750497Y-67277116D01*
X164744091Y-67217517D01*
X164729666Y-67178842D01*
X164693797Y-67082671D01*
X164693794Y-67082665D01*
X164647746Y-67021153D01*
X168399500Y-67021153D01*
X168399500Y-67178846D01*
X168430261Y-67333489D01*
X168430264Y-67333501D01*
X168490602Y-67479172D01*
X168490609Y-67479185D01*
X168578210Y-67610288D01*
X168578213Y-67610292D01*
X168689707Y-67721786D01*
X168689711Y-67721789D01*
X168820814Y-67809390D01*
X168820827Y-67809397D01*
X168966498Y-67869735D01*
X168966503Y-67869737D01*
X169121153Y-67900499D01*
X169121156Y-67900500D01*
X169121158Y-67900500D01*
X169278844Y-67900500D01*
X169278845Y-67900499D01*
X169433497Y-67869737D01*
X169579179Y-67809394D01*
X169579189Y-67809386D01*
X169582252Y-67807750D01*
X169584058Y-67807373D01*
X169584808Y-67807063D01*
X169584866Y-67807205D01*
X169650652Y-67793496D01*
X169715900Y-67818485D01*
X169728405Y-67829417D01*
X169846955Y-67947967D01*
X169846959Y-67947970D01*
X169991294Y-68036998D01*
X169991297Y-68036999D01*
X169991303Y-68037003D01*
X170152292Y-68090349D01*
X170251655Y-68100500D01*
X170798344Y-68100499D01*
X170798352Y-68100498D01*
X170798355Y-68100498D01*
X170852760Y-68094940D01*
X170897708Y-68090349D01*
X171058697Y-68037003D01*
X171203044Y-67947968D01*
X171212668Y-67938343D01*
X171273987Y-67904856D01*
X171343679Y-67909835D01*
X171388034Y-67938339D01*
X171397267Y-67947572D01*
X171397271Y-67947575D01*
X171541507Y-68036542D01*
X171541518Y-68036547D01*
X171702393Y-68089855D01*
X171801683Y-68099999D01*
X172325000Y-68099999D01*
X172348308Y-68099999D01*
X172348322Y-68099998D01*
X172447607Y-68089855D01*
X172608481Y-68036547D01*
X172608492Y-68036542D01*
X172752728Y-67947575D01*
X172752732Y-67947572D01*
X172872572Y-67827732D01*
X172872575Y-67827728D01*
X172961542Y-67683492D01*
X172961547Y-67683481D01*
X173014855Y-67522606D01*
X173024999Y-67423322D01*
X173025000Y-67423309D01*
X173025000Y-67375000D01*
X172325000Y-67375000D01*
X172325000Y-68099999D01*
X171801683Y-68099999D01*
X171825000Y-68099998D01*
X171825000Y-66875000D01*
X172325000Y-66875000D01*
X173024999Y-66875000D01*
X173024999Y-66826692D01*
X173024998Y-66826677D01*
X173014855Y-66727392D01*
X172961547Y-66566518D01*
X172961542Y-66566507D01*
X172872575Y-66422271D01*
X172872572Y-66422267D01*
X172752732Y-66302427D01*
X172752728Y-66302424D01*
X172608492Y-66213457D01*
X172608481Y-66213452D01*
X172447606Y-66160144D01*
X172348322Y-66150000D01*
X172325000Y-66150000D01*
X172325000Y-66875000D01*
X171825000Y-66875000D01*
X171825000Y-66149999D01*
X171801693Y-66150000D01*
X171801674Y-66150001D01*
X171702392Y-66160144D01*
X171541518Y-66213452D01*
X171541507Y-66213457D01*
X171397271Y-66302424D01*
X171397265Y-66302428D01*
X171388031Y-66311663D01*
X171326707Y-66345146D01*
X171257015Y-66340159D01*
X171212672Y-66311660D01*
X171203044Y-66302032D01*
X171203040Y-66302029D01*
X171058705Y-66213001D01*
X171058699Y-66212998D01*
X171058697Y-66212997D01*
X171024116Y-66201538D01*
X170897709Y-66159651D01*
X170798346Y-66149500D01*
X170251662Y-66149500D01*
X170251644Y-66149501D01*
X170152292Y-66159650D01*
X170152289Y-66159651D01*
X169991305Y-66212996D01*
X169991294Y-66213001D01*
X169846959Y-66302029D01*
X169758561Y-66390427D01*
X169697237Y-66423911D01*
X169627546Y-66418927D01*
X169601990Y-66405847D01*
X169579189Y-66390612D01*
X169579182Y-66390608D01*
X169579179Y-66390606D01*
X169579175Y-66390604D01*
X169579171Y-66390602D01*
X169433501Y-66330264D01*
X169433489Y-66330261D01*
X169278845Y-66299500D01*
X169278842Y-66299500D01*
X169121158Y-66299500D01*
X169121155Y-66299500D01*
X168966510Y-66330261D01*
X168966498Y-66330264D01*
X168820827Y-66390602D01*
X168820814Y-66390609D01*
X168689711Y-66478210D01*
X168689707Y-66478213D01*
X168578213Y-66589707D01*
X168578210Y-66589711D01*
X168490609Y-66720814D01*
X168490602Y-66720827D01*
X168430264Y-66866498D01*
X168430261Y-66866510D01*
X168399500Y-67021153D01*
X164647746Y-67021153D01*
X164636509Y-67006143D01*
X164607546Y-66967454D01*
X164607544Y-66967453D01*
X164607544Y-66967452D01*
X164492335Y-66881206D01*
X164492328Y-66881202D01*
X164357482Y-66830908D01*
X164357483Y-66830908D01*
X164297883Y-66824501D01*
X164297881Y-66824500D01*
X164297873Y-66824500D01*
X164297864Y-66824500D01*
X162502129Y-66824500D01*
X162502123Y-66824501D01*
X162442516Y-66830908D01*
X162307671Y-66881202D01*
X162307664Y-66881206D01*
X162192455Y-66967452D01*
X162192452Y-66967455D01*
X162106206Y-67082664D01*
X162106202Y-67082671D01*
X162055908Y-67217517D01*
X162052260Y-67251454D01*
X162049501Y-67277123D01*
X162049500Y-67277135D01*
X160541005Y-67277135D01*
X160571780Y-67109197D01*
X160575364Y-67094663D01*
X160579101Y-67082671D01*
X160660696Y-66820822D01*
X160665998Y-66806841D01*
X160783731Y-66545249D01*
X160790676Y-66532016D01*
X160939080Y-66286526D01*
X160947567Y-66274230D01*
X161124480Y-66048417D01*
X161134395Y-66037226D01*
X161337226Y-65834395D01*
X161348417Y-65824480D01*
X161574230Y-65647567D01*
X161586526Y-65639080D01*
X161832016Y-65490676D01*
X161845249Y-65483731D01*
X162106841Y-65365998D01*
X162120822Y-65360696D01*
X162394668Y-65275362D01*
X162409197Y-65271780D01*
X162691344Y-65220075D01*
X162706201Y-65218271D01*
X162996264Y-65200726D01*
X163003751Y-65200500D01*
X163065892Y-65200500D01*
X194934108Y-65200500D01*
X194996249Y-65200500D01*
X195003736Y-65200726D01*
G37*
G04 #@! TD.AperFunction*
M02*
