G04 #@! TF.GenerationSoftware,KiCad,Pcbnew,9.0.3*
G04 #@! TF.CreationDate,2025-11-20T17:31:48-06:00*
G04 #@! TF.ProjectId,DAQ_module,4441515f-6d6f-4647-956c-652e6b696361,rev?*
G04 #@! TF.SameCoordinates,Original*
G04 #@! TF.FileFunction,Copper,L1,Top*
G04 #@! TF.FilePolarity,Positive*
%FSLAX46Y46*%
G04 Gerber Fmt 4.6, Leading zero omitted, Abs format (unit mm)*
G04 Created by KiCad (PCBNEW 9.0.3) date 2025-11-20 17:31:48*
%MOMM*%
%LPD*%
G01*
G04 APERTURE LIST*
G04 Aperture macros list*
%AMRoundRect*
0 Rectangle with rounded corners*
0 $1 Rounding radius*
0 $2 $3 $4 $5 $6 $7 $8 $9 X,Y pos of 4 corners*
0 Add a 4 corners polygon primitive as box body*
4,1,4,$2,$3,$4,$5,$6,$7,$8,$9,$2,$3,0*
0 Add four circle primitives for the rounded corners*
1,1,$1+$1,$2,$3*
1,1,$1+$1,$4,$5*
1,1,$1+$1,$6,$7*
1,1,$1+$1,$8,$9*
0 Add four rect primitives between the rounded corners*
20,1,$1+$1,$2,$3,$4,$5,0*
20,1,$1+$1,$4,$5,$6,$7,0*
20,1,$1+$1,$6,$7,$8,$9,0*
20,1,$1+$1,$8,$9,$2,$3,0*%
G04 Aperture macros list end*
G04 #@! TA.AperFunction,SMDPad,CuDef*
%ADD10RoundRect,0.225000X0.250000X-0.225000X0.250000X0.225000X-0.250000X0.225000X-0.250000X-0.225000X0*%
G04 #@! TD*
G04 #@! TA.AperFunction,SMDPad,CuDef*
%ADD11RoundRect,0.200000X-0.200000X-0.275000X0.200000X-0.275000X0.200000X0.275000X-0.200000X0.275000X0*%
G04 #@! TD*
G04 #@! TA.AperFunction,SMDPad,CuDef*
%ADD12RoundRect,0.225000X0.225000X0.250000X-0.225000X0.250000X-0.225000X-0.250000X0.225000X-0.250000X0*%
G04 #@! TD*
G04 #@! TA.AperFunction,SMDPad,CuDef*
%ADD13RoundRect,0.250000X0.250000X0.475000X-0.250000X0.475000X-0.250000X-0.475000X0.250000X-0.475000X0*%
G04 #@! TD*
G04 #@! TA.AperFunction,SMDPad,CuDef*
%ADD14RoundRect,0.250000X-0.250000X-0.475000X0.250000X-0.475000X0.250000X0.475000X-0.250000X0.475000X0*%
G04 #@! TD*
G04 #@! TA.AperFunction,SMDPad,CuDef*
%ADD15R,0.508000X0.977900*%
G04 #@! TD*
G04 #@! TA.AperFunction,SMDPad,CuDef*
%ADD16RoundRect,0.250000X0.325000X0.650000X-0.325000X0.650000X-0.325000X-0.650000X0.325000X-0.650000X0*%
G04 #@! TD*
G04 #@! TA.AperFunction,SMDPad,CuDef*
%ADD17RoundRect,0.150000X-0.825000X-0.150000X0.825000X-0.150000X0.825000X0.150000X-0.825000X0.150000X0*%
G04 #@! TD*
G04 #@! TA.AperFunction,SMDPad,CuDef*
%ADD18RoundRect,0.225000X-0.225000X-0.250000X0.225000X-0.250000X0.225000X0.250000X-0.225000X0.250000X0*%
G04 #@! TD*
G04 #@! TA.AperFunction,SMDPad,CuDef*
%ADD19RoundRect,0.250000X-0.229810X0.689429X-0.689429X0.229810X0.229810X-0.689429X0.689429X-0.229810X0*%
G04 #@! TD*
G04 #@! TA.AperFunction,ComponentPad*
%ADD20R,1.700000X1.700000*%
G04 #@! TD*
G04 #@! TA.AperFunction,ComponentPad*
%ADD21C,1.700000*%
G04 #@! TD*
G04 #@! TA.AperFunction,SMDPad,CuDef*
%ADD22R,1.308100X0.355600*%
G04 #@! TD*
G04 #@! TA.AperFunction,SMDPad,CuDef*
%ADD23RoundRect,0.250000X0.475000X-0.250000X0.475000X0.250000X-0.475000X0.250000X-0.475000X-0.250000X0*%
G04 #@! TD*
G04 #@! TA.AperFunction,SMDPad,CuDef*
%ADD24R,0.977900X0.508000*%
G04 #@! TD*
G04 #@! TA.AperFunction,ViaPad*
%ADD25C,0.700000*%
G04 #@! TD*
G04 #@! TA.AperFunction,ViaPad*
%ADD26C,0.600000*%
G04 #@! TD*
G04 #@! TA.AperFunction,Conductor*
%ADD27C,0.200000*%
G04 #@! TD*
G04 #@! TA.AperFunction,Conductor*
%ADD28C,0.300000*%
G04 #@! TD*
G04 #@! TA.AperFunction,Conductor*
%ADD29C,0.500000*%
G04 #@! TD*
G04 APERTURE END LIST*
D10*
X179425000Y-115905000D03*
X179425000Y-114355000D03*
D11*
X170450000Y-72945000D03*
X172100000Y-72945000D03*
X166275000Y-70045000D03*
X167925000Y-70045000D03*
D12*
X188725000Y-81400000D03*
X187175000Y-81400000D03*
D13*
X181950000Y-67600000D03*
X180050000Y-67600000D03*
D11*
X170475000Y-67125000D03*
X172125000Y-67125000D03*
D14*
X186750000Y-67600000D03*
X188650000Y-67600000D03*
D15*
X181925001Y-71634750D03*
X180975000Y-71634750D03*
X180024999Y-71634750D03*
X180024999Y-74365250D03*
X181925001Y-74365250D03*
D16*
X188975000Y-78100000D03*
X186025000Y-78100000D03*
D11*
X166350000Y-67125000D03*
X168000000Y-67125000D03*
X170400000Y-75800000D03*
X172050000Y-75800000D03*
D10*
X179025000Y-108205000D03*
X179025000Y-106655000D03*
D11*
X170375000Y-78700000D03*
X172025000Y-78700000D03*
D17*
X182650000Y-105500000D03*
X182650000Y-106770000D03*
X182650000Y-108040000D03*
X182650000Y-109310000D03*
X187600000Y-109310000D03*
X187600000Y-108040000D03*
X187600000Y-106770000D03*
X187600000Y-105500000D03*
D18*
X181125000Y-81400000D03*
X182675000Y-81400000D03*
D19*
X177442983Y-95657017D03*
X175357017Y-97742983D03*
D11*
X166275000Y-75800000D03*
X167925000Y-75800000D03*
X166275000Y-81600000D03*
X167925000Y-81600000D03*
X166250000Y-84500000D03*
X167900000Y-84500000D03*
D16*
X183200000Y-78100000D03*
X180250000Y-78100000D03*
D17*
X182650000Y-113100000D03*
X182650000Y-114370000D03*
X182650000Y-115640000D03*
X182650000Y-116910000D03*
X187600000Y-116910000D03*
X187600000Y-115640000D03*
X187600000Y-114370000D03*
X187600000Y-113100000D03*
D11*
X166250000Y-72945000D03*
X167900000Y-72945000D03*
D20*
X193900000Y-88500000D03*
D21*
X193900000Y-91040000D03*
X193900000Y-93580000D03*
X193900000Y-96120000D03*
X193900000Y-98660000D03*
X193900000Y-101200000D03*
X193900000Y-103740000D03*
X193900000Y-106280000D03*
X193900000Y-108820000D03*
X193900000Y-111360000D03*
D11*
X170350000Y-84500000D03*
X172000000Y-84500000D03*
X166275000Y-78700000D03*
X167925000Y-78700000D03*
X170375000Y-87400000D03*
X172025000Y-87400000D03*
D22*
X181973050Y-86675000D03*
X181973050Y-87325001D03*
X181973050Y-87974999D03*
X181973050Y-88625001D03*
X181973050Y-89274999D03*
X181973050Y-89924998D03*
X181973050Y-90574999D03*
X181973050Y-91224998D03*
X181973050Y-91874999D03*
X181973050Y-92524998D03*
X187776950Y-92525000D03*
X187776950Y-91875002D03*
X187776950Y-91225001D03*
X187776950Y-90575002D03*
X187776950Y-89925001D03*
X187776950Y-89275002D03*
X187776950Y-88625001D03*
X187776950Y-87975002D03*
X187776950Y-87325001D03*
X187776950Y-86675002D03*
D10*
X179125000Y-100580000D03*
X179125000Y-99030000D03*
D20*
X163400000Y-68175000D03*
D21*
X163400000Y-70715000D03*
X163400000Y-73255000D03*
X163400000Y-75795000D03*
X163400000Y-78335000D03*
X163400000Y-80875000D03*
X163400000Y-83415000D03*
X163400000Y-85955000D03*
X163400000Y-88495000D03*
X163400000Y-91035000D03*
X163400000Y-93575000D03*
X163400000Y-96115000D03*
X163400000Y-98655000D03*
X163400000Y-101195000D03*
X163400000Y-103735000D03*
X163400000Y-106275000D03*
X163400000Y-108815000D03*
X163400000Y-111355000D03*
X163400000Y-113895000D03*
X163400000Y-116435000D03*
D17*
X182750000Y-98100000D03*
X182750000Y-99370000D03*
X182750000Y-100640000D03*
X182750000Y-101910000D03*
X187700000Y-101910000D03*
X187700000Y-100640000D03*
X187700000Y-99370000D03*
X187700000Y-98100000D03*
D23*
X167934750Y-95049999D03*
X167934750Y-93149999D03*
D11*
X170375000Y-81600000D03*
X172025000Y-81600000D03*
D24*
X170769500Y-93099998D03*
X170769500Y-94049999D03*
X170769500Y-95000000D03*
X173500000Y-95000000D03*
X173500000Y-93099998D03*
D11*
X170475000Y-70045000D03*
X172125000Y-70045000D03*
D15*
X188825001Y-71700000D03*
X187875000Y-71700000D03*
X186924999Y-71700000D03*
X186924999Y-74430500D03*
X188825001Y-74430500D03*
D11*
X166275000Y-87400000D03*
X167925000Y-87400000D03*
D25*
X191500000Y-83100000D03*
D26*
X174200000Y-107600000D03*
X173600000Y-72900000D03*
D25*
X189500000Y-119100000D03*
X177500000Y-103100000D03*
X179500000Y-103100000D03*
X177500000Y-111100000D03*
D26*
X166200000Y-112200000D03*
D25*
X193500000Y-81100000D03*
D26*
X173700000Y-75800000D03*
D25*
X175500000Y-119100000D03*
X193500000Y-77100000D03*
X177500000Y-119100000D03*
X179500000Y-111100000D03*
X191500000Y-85100000D03*
X191500000Y-73100000D03*
D26*
X173700000Y-87450000D03*
D25*
X193500000Y-115100000D03*
X191500000Y-77100000D03*
X191500000Y-79100000D03*
X193500000Y-75100000D03*
X181500000Y-119100000D03*
X193500000Y-73100000D03*
X191500000Y-75100000D03*
X189500000Y-95100000D03*
X193500000Y-83100000D03*
X173500000Y-103100000D03*
X193500000Y-79100000D03*
X179500000Y-119100000D03*
D26*
X173500000Y-70500000D03*
X173300000Y-81600000D03*
D25*
X193500000Y-85100000D03*
X175500000Y-103100000D03*
D26*
X173450000Y-84650000D03*
D25*
X173500000Y-119100000D03*
D26*
X173600000Y-78800000D03*
D25*
X191500000Y-81100000D03*
D26*
X183200000Y-79900000D03*
X166900000Y-91600000D03*
X184600000Y-69700000D03*
X189000000Y-79900000D03*
X179900000Y-95600000D03*
X185300000Y-114400000D03*
X185300000Y-101400000D03*
X185300000Y-108900000D03*
X183675000Y-88400000D03*
X189800000Y-101200000D03*
X189700000Y-114600000D03*
X189600000Y-107100000D03*
X190100000Y-109300000D03*
X189200000Y-103400000D03*
X169200000Y-67100000D03*
X169200000Y-70000000D03*
X169200000Y-72945000D03*
X169200000Y-75800000D03*
X169100000Y-78700000D03*
X169100000Y-81600000D03*
X169100000Y-84500000D03*
X169100000Y-87400000D03*
D27*
X187175000Y-92525000D02*
X187776950Y-92525000D01*
X186200000Y-93500000D02*
X187175000Y-92525000D01*
X179700000Y-93500000D02*
X186200000Y-93500000D01*
X175200000Y-86500000D02*
X175200000Y-89000000D01*
X175200000Y-89000000D02*
X179700000Y-93500000D01*
X172900000Y-85900000D02*
X174600000Y-85900000D01*
X172896215Y-85903785D02*
X172900000Y-85900000D01*
X170003785Y-85903785D02*
X172896215Y-85903785D01*
X174600000Y-85900000D02*
X175200000Y-86500000D01*
X169100000Y-85000000D02*
X170003785Y-85903785D01*
X169100000Y-84500000D02*
X169100000Y-85000000D01*
X180574999Y-91874999D02*
X181973050Y-91874999D01*
X177100000Y-88400000D02*
X180574999Y-91874999D01*
X174450000Y-82750000D02*
X177100000Y-85400000D01*
X174450000Y-81150000D02*
X174450000Y-82750000D01*
X177100000Y-85400000D02*
X177100000Y-88400000D01*
X173500000Y-80200000D02*
X174450000Y-81150000D01*
X169900000Y-80200000D02*
X173500000Y-80200000D01*
X169100000Y-79400000D02*
X169900000Y-80200000D01*
X169100000Y-78700000D02*
X169100000Y-79400000D01*
X180824998Y-91224998D02*
X181973050Y-91224998D01*
X175250000Y-82300000D02*
X177800000Y-84850000D01*
X175250000Y-77900000D02*
X175250000Y-82300000D01*
X169900000Y-77100000D02*
X174450000Y-77100000D01*
X174450000Y-77100000D02*
X175250000Y-77900000D01*
X177800000Y-84850000D02*
X177800000Y-88200000D01*
X169200000Y-76400000D02*
X169900000Y-77100000D01*
X177800000Y-88200000D02*
X180824998Y-91224998D01*
X169200000Y-75800000D02*
X169200000Y-76400000D01*
X180874999Y-90574999D02*
X181973050Y-90574999D01*
X178300000Y-84100000D02*
X178300000Y-88000000D01*
X178300000Y-88000000D02*
X180874999Y-90574999D01*
X176000000Y-81800000D02*
X178300000Y-84100000D01*
X176000000Y-75200000D02*
X176000000Y-81800000D01*
X175200000Y-74400000D02*
X176000000Y-75200000D01*
X170100000Y-74400000D02*
X175200000Y-74400000D01*
X169200000Y-73500000D02*
X170100000Y-74400000D01*
X169200000Y-72945000D02*
X169200000Y-73500000D01*
X181189199Y-89924998D02*
X181973050Y-89924998D01*
X179000000Y-87735799D02*
X181189199Y-89924998D01*
X179000000Y-83550000D02*
X179000000Y-87735799D01*
X176850000Y-81400000D02*
X179000000Y-83550000D01*
X174950000Y-71500000D02*
X176850000Y-73400000D01*
X170000000Y-71500000D02*
X174950000Y-71500000D01*
X169200000Y-70700000D02*
X170000000Y-71500000D01*
X176850000Y-73400000D02*
X176850000Y-81400000D01*
X169200000Y-70000000D02*
X169200000Y-70700000D01*
X181189198Y-89274999D02*
X181973050Y-89274999D01*
X179600000Y-82550000D02*
X179600000Y-87685801D01*
X174300000Y-68600000D02*
X177750000Y-72050000D01*
X177750000Y-80700000D02*
X179600000Y-82550000D01*
X179600000Y-87685801D02*
X181189198Y-89274999D01*
X169200000Y-67600000D02*
X170200000Y-68600000D01*
X169200000Y-67100000D02*
X169200000Y-67600000D01*
X170200000Y-68600000D02*
X174300000Y-68600000D01*
X177750000Y-72050000D02*
X177750000Y-80700000D01*
X180124998Y-92524998D02*
X181973050Y-92524998D01*
X174049000Y-83516100D02*
X176100000Y-85567100D01*
X173550000Y-83000000D02*
X174049000Y-83499000D01*
X174049000Y-83499000D02*
X174049000Y-83516100D01*
X176100000Y-88500000D02*
X180124998Y-92524998D01*
X169100000Y-82000000D02*
X170100000Y-83000000D01*
X170100000Y-83000000D02*
X173550000Y-83000000D01*
X169100000Y-81600000D02*
X169100000Y-82000000D01*
X176100000Y-85567100D02*
X176100000Y-88500000D01*
X187776950Y-87325001D02*
X189274999Y-87325001D01*
X181973050Y-87325001D02*
X180825001Y-87325001D01*
X180825001Y-87325001D02*
X180700000Y-87200000D01*
X189274999Y-87325001D02*
X191500000Y-85100000D01*
X181973050Y-87974999D02*
X181973050Y-87325001D01*
D28*
X181925001Y-74825001D02*
X183200000Y-76100000D01*
X182675000Y-82825000D02*
X181973050Y-83526950D01*
X183200000Y-78100000D02*
X183200000Y-79900000D01*
X181973050Y-83526950D02*
X181973050Y-86675000D01*
X182675000Y-81400000D02*
X182675000Y-82825000D01*
X181925001Y-74365250D02*
X181925001Y-74825001D01*
X183200000Y-76100000D02*
X183200000Y-78100000D01*
X183200000Y-79900000D02*
X183200000Y-80875000D01*
X183200000Y-80875000D02*
X182675000Y-81400000D01*
D29*
X188600000Y-69700000D02*
X188800000Y-69900000D01*
X188800000Y-70300000D02*
X188825001Y-70325001D01*
X184600000Y-69700000D02*
X184200000Y-69700000D01*
X188800000Y-69800000D02*
X188675000Y-69675000D01*
X184600000Y-69700000D02*
X188600000Y-69700000D01*
X167900000Y-93115249D02*
X167934750Y-93149999D01*
X188800000Y-69900000D02*
X188800000Y-70300000D01*
X167934750Y-92634750D02*
X166900000Y-91600000D01*
X184600000Y-69700000D02*
X182665250Y-71634750D01*
X188800000Y-69900000D02*
X188800000Y-69800000D01*
X182665250Y-71634750D02*
X181925001Y-71634750D01*
X188675000Y-69675000D02*
X188675000Y-67625000D01*
X182100000Y-67600000D02*
X181950000Y-67600000D01*
X166900000Y-91600000D02*
X166000000Y-91600000D01*
X167934750Y-93149999D02*
X170719499Y-93149999D01*
X170719499Y-93149999D02*
X170769500Y-93099998D01*
X188675000Y-67625000D02*
X188650000Y-67600000D01*
X188825001Y-70325001D02*
X188825001Y-71700000D01*
X184200000Y-69700000D02*
X182100000Y-67600000D01*
X167934750Y-93149999D02*
X167934750Y-92634750D01*
X164025000Y-93575000D02*
X163400000Y-93575000D01*
X166000000Y-91600000D02*
X164025000Y-93575000D01*
D28*
X187776950Y-84723050D02*
X187776950Y-86675002D01*
X189000000Y-81125000D02*
X188725000Y-81400000D01*
X188725000Y-83775000D02*
X187776950Y-84723050D01*
X188825001Y-74430500D02*
X188825001Y-77950001D01*
X188975000Y-78100000D02*
X188975000Y-79875000D01*
X188975000Y-79875000D02*
X189000000Y-79900000D01*
X189000000Y-79900000D02*
X189000000Y-81125000D01*
X188725000Y-81400000D02*
X188725000Y-83775000D01*
X188825001Y-77950001D02*
X188975000Y-78100000D01*
D29*
X179842983Y-95657017D02*
X179900000Y-95600000D01*
X185300000Y-115600000D02*
X183990000Y-116910000D01*
X185300000Y-101400000D02*
X184800000Y-101900000D01*
X174885964Y-93099998D02*
X177442983Y-95657017D01*
X177442983Y-95657017D02*
X179842983Y-95657017D01*
X184800000Y-101900000D02*
X182760000Y-101900000D01*
X182760000Y-101900000D02*
X182750000Y-101910000D01*
X184900000Y-109300000D02*
X182660000Y-109300000D01*
X182660000Y-109300000D02*
X182650000Y-109310000D01*
X185300000Y-114400000D02*
X185300000Y-115600000D01*
X185300000Y-108900000D02*
X184900000Y-109300000D01*
X173500000Y-93099998D02*
X174885964Y-93099998D01*
X183990000Y-116910000D02*
X182650000Y-116910000D01*
D27*
X183675000Y-88400000D02*
X183449999Y-88625001D01*
X183449999Y-88625001D02*
X181973050Y-88625001D01*
X181470000Y-99370000D02*
X182750000Y-99370000D01*
X181130000Y-99030000D02*
X181470000Y-99370000D01*
X163400000Y-101195000D02*
X168495000Y-101195000D01*
X168500000Y-101200000D02*
X169600000Y-100100000D01*
X177770000Y-99030000D02*
X179125000Y-99030000D01*
X169600000Y-100100000D02*
X176700000Y-100100000D01*
X176700000Y-100100000D02*
X177770000Y-99030000D01*
X179125000Y-99030000D02*
X181130000Y-99030000D01*
X168495000Y-101195000D02*
X168500000Y-101200000D01*
X169400000Y-102000000D02*
X170400000Y-101000000D01*
X163400000Y-103735000D02*
X165135000Y-102000000D01*
X177400000Y-101000000D02*
X177820000Y-100580000D01*
X170400000Y-101000000D02*
X177400000Y-101000000D01*
X177820000Y-100580000D02*
X179125000Y-100580000D01*
X179440000Y-100640000D02*
X182750000Y-100640000D01*
X165135000Y-102000000D02*
X169400000Y-102000000D01*
X179380000Y-100580000D02*
X179440000Y-100640000D01*
X179125000Y-100580000D02*
X179380000Y-100580000D01*
X163895000Y-113400000D02*
X172500000Y-113400000D01*
X163400000Y-113895000D02*
X163895000Y-113400000D01*
X179595000Y-115905000D02*
X179860000Y-115640000D01*
X172500000Y-113400000D02*
X175005000Y-115905000D01*
X175005000Y-115905000D02*
X179425000Y-115905000D01*
X179425000Y-115905000D02*
X179595000Y-115905000D01*
X179860000Y-115640000D02*
X182650000Y-115640000D01*
X171900000Y-110800000D02*
X175455000Y-114355000D01*
X163400000Y-111355000D02*
X163955000Y-110800000D01*
X175455000Y-114355000D02*
X179425000Y-114355000D01*
X179425000Y-114355000D02*
X179645000Y-114355000D01*
X179660000Y-114370000D02*
X182650000Y-114370000D01*
X179645000Y-114355000D02*
X179660000Y-114370000D01*
X163955000Y-110800000D02*
X171900000Y-110800000D01*
X178645000Y-106275000D02*
X179025000Y-106655000D01*
X180755000Y-106655000D02*
X180870000Y-106770000D01*
X163400000Y-106275000D02*
X178645000Y-106275000D01*
X180870000Y-106770000D02*
X180930000Y-106770000D01*
X180930000Y-106770000D02*
X182650000Y-106770000D01*
X179025000Y-106655000D02*
X180755000Y-106655000D01*
X180695000Y-108205000D02*
X180860000Y-108040000D01*
X180860000Y-108040000D02*
X182650000Y-108040000D01*
X176100000Y-108200000D02*
X176105000Y-108205000D01*
X176105000Y-108205000D02*
X179025000Y-108205000D01*
X163400000Y-108815000D02*
X175485000Y-108815000D01*
X179025000Y-108205000D02*
X180695000Y-108205000D01*
X175485000Y-108815000D02*
X176100000Y-108200000D01*
X191500000Y-93100000D02*
X191500000Y-93720000D01*
X191500000Y-93720000D02*
X193900000Y-96120000D01*
X187776950Y-91225001D02*
X189625001Y-91225001D01*
X189625001Y-91225001D02*
X191500000Y-93100000D01*
X187600000Y-106770000D02*
X188574999Y-106770000D01*
X187700000Y-99370000D02*
X190700000Y-99370000D01*
X188574999Y-106770000D02*
X190700000Y-104644999D01*
X188574999Y-114370000D02*
X190700000Y-112244999D01*
X193190000Y-99370000D02*
X193900000Y-98660000D01*
X191000000Y-104344999D02*
X191000000Y-99370000D01*
X187600000Y-114370000D02*
X188574999Y-114370000D01*
X190700000Y-104644999D02*
X191000000Y-104344999D01*
X191000000Y-99370000D02*
X190700000Y-99370000D01*
X190700000Y-99370000D02*
X193190000Y-99370000D01*
X190700000Y-112244999D02*
X190700000Y-104644999D01*
X190500000Y-88500000D02*
X193900000Y-88500000D01*
X189724998Y-89275002D02*
X190500000Y-88500000D01*
X187776950Y-89275002D02*
X189724998Y-89275002D01*
X190895002Y-90575002D02*
X193900000Y-93580000D01*
X187776950Y-90575002D02*
X190895002Y-90575002D01*
X187776950Y-89925001D02*
X192785001Y-89925001D01*
X192785001Y-89925001D02*
X193900000Y-91040000D01*
X189240000Y-100640000D02*
X189800000Y-101200000D01*
X187700000Y-100640000D02*
X189240000Y-100640000D01*
X189700000Y-114600000D02*
X188660000Y-115640000D01*
X188660000Y-115640000D02*
X187600000Y-115640000D01*
X188660000Y-108040000D02*
X189600000Y-107100000D01*
X187600000Y-108040000D02*
X188660000Y-108040000D01*
X188574999Y-116910000D02*
X191400000Y-114084999D01*
X190100000Y-109300000D02*
X188800000Y-109300000D01*
X187600000Y-116910000D02*
X188574999Y-116910000D01*
X191400000Y-114084999D02*
X191400000Y-106240000D01*
X188790000Y-109310000D02*
X187600000Y-109310000D01*
X191400000Y-106240000D02*
X193900000Y-103740000D01*
X187700000Y-101910000D02*
X189190000Y-103400000D01*
X189190000Y-103400000D02*
X189200000Y-103400000D01*
X188800000Y-109300000D02*
X188790000Y-109310000D01*
X163400000Y-78335000D02*
X165910000Y-78335000D01*
X165910000Y-78335000D02*
X166275000Y-78700000D01*
X163400000Y-73255000D02*
X165940000Y-73255000D01*
X165940000Y-73255000D02*
X166250000Y-72945000D01*
X163400000Y-85955000D02*
X164845000Y-87400000D01*
X164845000Y-87400000D02*
X166275000Y-87400000D01*
X165550000Y-80875000D02*
X166275000Y-81600000D01*
X163400000Y-80875000D02*
X165550000Y-80875000D01*
X164485000Y-84500000D02*
X166250000Y-84500000D01*
X163400000Y-83415000D02*
X164485000Y-84500000D01*
X163400000Y-75795000D02*
X166270000Y-75795000D01*
X166270000Y-75795000D02*
X166275000Y-75800000D01*
X163400000Y-68175000D02*
X165300000Y-68175000D01*
X165300000Y-68175000D02*
X166350000Y-67125000D01*
X165605000Y-70715000D02*
X166275000Y-70045000D01*
X163400000Y-70715000D02*
X165605000Y-70715000D01*
X169175000Y-67125000D02*
X169200000Y-67100000D01*
X169225000Y-67125000D02*
X169200000Y-67100000D01*
X168000000Y-67125000D02*
X169175000Y-67125000D01*
X170475000Y-67125000D02*
X169225000Y-67125000D01*
X167925000Y-70045000D02*
X169155000Y-70045000D01*
X169155000Y-70045000D02*
X169200000Y-70000000D01*
X169245000Y-70045000D02*
X169200000Y-70000000D01*
X169200000Y-70000000D02*
X170430000Y-70000000D01*
X170430000Y-70000000D02*
X170475000Y-70045000D01*
X169200000Y-72945000D02*
X170450000Y-72945000D01*
X169200000Y-72945000D02*
X167900000Y-72945000D01*
X169200000Y-75800000D02*
X170400000Y-75800000D01*
X167925000Y-75800000D02*
X169200000Y-75800000D01*
X170375000Y-78700000D02*
X169100000Y-78700000D01*
X167925000Y-78700000D02*
X169100000Y-78700000D01*
X170375000Y-81600000D02*
X169100000Y-81600000D01*
X167925000Y-81600000D02*
X169100000Y-81600000D01*
X170350000Y-84500000D02*
X169100000Y-84500000D01*
X167900000Y-84500000D02*
X169100000Y-84500000D01*
X167925000Y-87400000D02*
X169100000Y-87400000D01*
X170000000Y-88900000D02*
X169100000Y-88000000D01*
X169100000Y-88000000D02*
X169100000Y-87400000D01*
X173700000Y-88900000D02*
X170000000Y-88900000D01*
X189400000Y-92600000D02*
X188675002Y-91875002D01*
X178900000Y-94100000D02*
X173700000Y-88900000D01*
X188500000Y-94100000D02*
X189400000Y-93200000D01*
X170375000Y-87400000D02*
X169100000Y-87400000D01*
X187751952Y-91900000D02*
X187776950Y-91875002D01*
X188675002Y-91875002D02*
X187776950Y-91875002D01*
X188500000Y-94100000D02*
X178900000Y-94100000D01*
X189400000Y-93200000D02*
X189400000Y-92600000D01*
G04 #@! TA.AperFunction,Conductor*
G36*
X181178271Y-108649151D02*
G01*
X181200968Y-108650774D01*
X181211251Y-108658471D01*
X181223611Y-108661964D01*
X181238685Y-108679006D01*
X181256903Y-108692643D01*
X181261392Y-108704678D01*
X181269902Y-108714299D01*
X181273369Y-108736785D01*
X181281323Y-108758107D01*
X181278592Y-108770659D01*
X181280550Y-108783352D01*
X181271310Y-108804142D01*
X181266474Y-108826380D01*
X181264372Y-108830078D01*
X181223254Y-108899605D01*
X181223254Y-108899606D01*
X181177402Y-109057426D01*
X181177401Y-109057432D01*
X181174500Y-109094298D01*
X181174500Y-109525701D01*
X181177401Y-109562567D01*
X181177402Y-109562573D01*
X181223254Y-109720393D01*
X181223255Y-109720396D01*
X181306917Y-109861862D01*
X181306923Y-109861870D01*
X181423129Y-109978076D01*
X181423133Y-109978079D01*
X181423135Y-109978081D01*
X181564602Y-110061744D01*
X181592107Y-110069735D01*
X181722426Y-110107597D01*
X181722429Y-110107597D01*
X181722431Y-110107598D01*
X181759306Y-110110500D01*
X181759314Y-110110500D01*
X183540686Y-110110500D01*
X183540694Y-110110500D01*
X183577569Y-110107598D01*
X183577571Y-110107597D01*
X183577573Y-110107597D01*
X183612000Y-110097594D01*
X183735398Y-110061744D01*
X183735403Y-110061740D01*
X183737818Y-110060697D01*
X183741943Y-110059842D01*
X183742889Y-110059568D01*
X183742910Y-110059642D01*
X183787061Y-110050500D01*
X184973920Y-110050500D01*
X185071462Y-110031096D01*
X185118913Y-110021658D01*
X185255495Y-109965084D01*
X185320291Y-109921789D01*
X185320294Y-109921786D01*
X185320296Y-109921786D01*
X185352153Y-109900500D01*
X185378416Y-109882952D01*
X185615297Y-109646068D01*
X185655525Y-109619190D01*
X185679179Y-109609394D01*
X185810289Y-109521789D01*
X185848873Y-109483205D01*
X185912819Y-109419260D01*
X185974142Y-109385775D01*
X186043834Y-109390759D01*
X186099767Y-109432631D01*
X186124184Y-109498095D01*
X186124500Y-109506941D01*
X186124500Y-109525701D01*
X186127401Y-109562567D01*
X186127402Y-109562573D01*
X186173254Y-109720393D01*
X186173255Y-109720396D01*
X186256917Y-109861862D01*
X186256923Y-109861870D01*
X186373129Y-109978076D01*
X186373133Y-109978079D01*
X186373135Y-109978081D01*
X186514602Y-110061744D01*
X186542107Y-110069735D01*
X186672426Y-110107597D01*
X186672429Y-110107597D01*
X186672431Y-110107598D01*
X186709306Y-110110500D01*
X186709314Y-110110500D01*
X188490686Y-110110500D01*
X188490694Y-110110500D01*
X188527569Y-110107598D01*
X188527571Y-110107597D01*
X188527573Y-110107597D01*
X188605468Y-110084966D01*
X188685398Y-110061744D01*
X188826865Y-109978081D01*
X188853715Y-109951230D01*
X188868127Y-109936819D01*
X188929450Y-109903334D01*
X188955808Y-109900500D01*
X189520234Y-109900500D01*
X189587273Y-109920185D01*
X189589125Y-109921398D01*
X189720814Y-110009390D01*
X189720827Y-110009397D01*
X189842131Y-110059642D01*
X189866503Y-110069737D01*
X189943064Y-110084966D01*
X189999691Y-110096230D01*
X190061602Y-110128615D01*
X190096176Y-110189330D01*
X190099500Y-110217847D01*
X190099500Y-111944902D01*
X190079815Y-112011941D01*
X190063181Y-112032583D01*
X189260420Y-112835343D01*
X189199097Y-112868828D01*
X189129405Y-112863844D01*
X189073472Y-112821972D01*
X189053663Y-112782259D01*
X189026744Y-112689602D01*
X188943081Y-112548135D01*
X188943079Y-112548133D01*
X188943076Y-112548129D01*
X188826870Y-112431923D01*
X188826862Y-112431917D01*
X188747705Y-112385104D01*
X188685398Y-112348256D01*
X188685397Y-112348255D01*
X188685396Y-112348255D01*
X188685393Y-112348254D01*
X188527573Y-112302402D01*
X188527567Y-112302401D01*
X188490701Y-112299500D01*
X188490694Y-112299500D01*
X186709306Y-112299500D01*
X186709298Y-112299500D01*
X186672432Y-112302401D01*
X186672426Y-112302402D01*
X186514606Y-112348254D01*
X186514603Y-112348255D01*
X186373137Y-112431917D01*
X186373129Y-112431923D01*
X186256923Y-112548129D01*
X186256917Y-112548137D01*
X186173255Y-112689603D01*
X186173254Y-112689606D01*
X186127402Y-112847426D01*
X186127401Y-112847432D01*
X186124500Y-112884298D01*
X186124500Y-113315701D01*
X186127401Y-113352563D01*
X186127402Y-113352573D01*
X186173254Y-113510393D01*
X186173255Y-113510396D01*
X186256917Y-113651862D01*
X186261702Y-113658031D01*
X186259256Y-113659927D01*
X186285857Y-113708642D01*
X186280873Y-113778334D01*
X186270612Y-113799472D01*
X186262881Y-113812172D01*
X186256919Y-113818135D01*
X186177073Y-113953147D01*
X186176634Y-113953869D01*
X186151366Y-113976868D01*
X186126376Y-114000202D01*
X186125569Y-114000348D01*
X186124964Y-114000900D01*
X186091260Y-114006588D01*
X186057634Y-114012705D01*
X186056876Y-114012392D01*
X186056069Y-114012529D01*
X186024657Y-113999101D01*
X185993045Y-113986060D01*
X185992333Y-113985283D01*
X185991823Y-113985065D01*
X185990938Y-113983759D01*
X185967611Y-113958288D01*
X185921789Y-113889711D01*
X185921786Y-113889707D01*
X185810292Y-113778213D01*
X185810288Y-113778210D01*
X185679185Y-113690609D01*
X185679172Y-113690602D01*
X185533501Y-113630264D01*
X185533489Y-113630261D01*
X185378845Y-113599500D01*
X185378842Y-113599500D01*
X185221158Y-113599500D01*
X185221155Y-113599500D01*
X185066510Y-113630261D01*
X185066498Y-113630264D01*
X184920827Y-113690602D01*
X184920814Y-113690609D01*
X184789711Y-113778210D01*
X184789707Y-113778213D01*
X184678213Y-113889707D01*
X184678210Y-113889711D01*
X184590609Y-114020814D01*
X184590602Y-114020827D01*
X184530264Y-114166498D01*
X184530261Y-114166510D01*
X184499500Y-114321153D01*
X184499500Y-114478846D01*
X184530261Y-114633489D01*
X184530263Y-114633497D01*
X184540061Y-114657151D01*
X184549500Y-114704604D01*
X184549500Y-115237770D01*
X184540855Y-115267210D01*
X184534332Y-115297197D01*
X184530577Y-115302212D01*
X184529815Y-115304809D01*
X184513181Y-115325451D01*
X184336767Y-115501864D01*
X184275444Y-115535349D01*
X184205752Y-115530365D01*
X184149819Y-115488493D01*
X184125468Y-115423910D01*
X184122598Y-115387431D01*
X184091494Y-115280373D01*
X184079117Y-115237770D01*
X184076744Y-115229602D01*
X183993081Y-115088135D01*
X183993078Y-115088132D01*
X183988298Y-115081969D01*
X183990750Y-115080066D01*
X183964155Y-115031421D01*
X183969104Y-114961726D01*
X183989940Y-114929304D01*
X183988298Y-114928031D01*
X183993075Y-114921870D01*
X183993081Y-114921865D01*
X184076744Y-114780398D01*
X184119423Y-114633497D01*
X184122597Y-114622573D01*
X184122598Y-114622567D01*
X184124152Y-114602820D01*
X184125500Y-114585694D01*
X184125500Y-114154306D01*
X184122598Y-114117431D01*
X184117103Y-114098518D01*
X184088582Y-114000348D01*
X184076744Y-113959602D01*
X183993081Y-113818135D01*
X183993078Y-113818132D01*
X183988298Y-113811969D01*
X183990635Y-113810155D01*
X183963798Y-113761050D01*
X183968756Y-113691356D01*
X183989554Y-113658998D01*
X183987903Y-113657717D01*
X183992686Y-113651550D01*
X184076281Y-113510198D01*
X184122100Y-113352486D01*
X184122295Y-113350001D01*
X184122295Y-113350000D01*
X181177705Y-113350000D01*
X181177704Y-113350001D01*
X181177899Y-113352486D01*
X181223718Y-113510198D01*
X181266406Y-113582379D01*
X181283589Y-113650103D01*
X181261429Y-113716365D01*
X181206963Y-113760129D01*
X181159674Y-113769500D01*
X180374256Y-113769500D01*
X180307217Y-113749815D01*
X180268717Y-113710596D01*
X180247968Y-113676956D01*
X180128044Y-113557032D01*
X180128040Y-113557029D01*
X179983705Y-113468001D01*
X179983699Y-113467998D01*
X179983697Y-113467997D01*
X179983694Y-113467996D01*
X179822709Y-113414651D01*
X179723346Y-113404500D01*
X179126662Y-113404500D01*
X179126644Y-113404501D01*
X179027292Y-113414650D01*
X179027289Y-113414651D01*
X178866305Y-113467996D01*
X178866294Y-113468001D01*
X178721959Y-113557029D01*
X178721955Y-113557032D01*
X178602031Y-113676956D01*
X178590535Y-113695596D01*
X178538588Y-113742321D01*
X178484996Y-113754500D01*
X175755097Y-113754500D01*
X175688058Y-113734815D01*
X175667416Y-113718181D01*
X174799233Y-112849998D01*
X181177704Y-112849998D01*
X181177705Y-112850000D01*
X182400000Y-112850000D01*
X182900000Y-112850000D01*
X184122295Y-112850000D01*
X184122295Y-112849998D01*
X184122100Y-112847513D01*
X184076281Y-112689801D01*
X183992685Y-112548447D01*
X183992678Y-112548438D01*
X183876561Y-112432321D01*
X183876552Y-112432314D01*
X183735196Y-112348717D01*
X183735193Y-112348716D01*
X183577495Y-112302900D01*
X183577489Y-112302899D01*
X183540649Y-112300000D01*
X182900000Y-112300000D01*
X182900000Y-112850000D01*
X182400000Y-112850000D01*
X182400000Y-112300000D01*
X181759350Y-112300000D01*
X181722510Y-112302899D01*
X181722504Y-112302900D01*
X181564806Y-112348716D01*
X181564803Y-112348717D01*
X181423447Y-112432314D01*
X181423438Y-112432321D01*
X181307321Y-112548438D01*
X181307314Y-112548447D01*
X181223718Y-112689801D01*
X181177899Y-112847513D01*
X181177704Y-112849998D01*
X174799233Y-112849998D01*
X172387590Y-110438355D01*
X172387588Y-110438352D01*
X172268717Y-110319481D01*
X172268716Y-110319480D01*
X172181904Y-110269360D01*
X172181904Y-110269359D01*
X172181900Y-110269358D01*
X172131785Y-110240423D01*
X171979057Y-110199499D01*
X171820943Y-110199499D01*
X171813347Y-110199499D01*
X171813331Y-110199500D01*
X164173060Y-110199500D01*
X164106021Y-110179815D01*
X164060266Y-110127011D01*
X164050322Y-110057853D01*
X164079347Y-109994297D01*
X164104138Y-109973277D01*
X164103875Y-109972915D01*
X164279786Y-109845109D01*
X164279788Y-109845106D01*
X164279792Y-109845104D01*
X164430104Y-109694792D01*
X164430106Y-109694788D01*
X164430109Y-109694786D01*
X164551418Y-109527816D01*
X164555051Y-109522816D01*
X164563140Y-109506941D01*
X164575235Y-109483205D01*
X164623209Y-109432409D01*
X164685719Y-109415500D01*
X175398331Y-109415500D01*
X175398347Y-109415501D01*
X175405943Y-109415501D01*
X175564054Y-109415501D01*
X175564057Y-109415501D01*
X175716785Y-109374577D01*
X175779424Y-109338412D01*
X175853716Y-109295520D01*
X175965520Y-109183716D01*
X175965520Y-109183714D01*
X175975721Y-109173514D01*
X175975724Y-109173509D01*
X176307417Y-108841816D01*
X176368739Y-108808334D01*
X176395097Y-108805500D01*
X178084996Y-108805500D01*
X178152035Y-108825185D01*
X178190535Y-108864404D01*
X178202031Y-108883043D01*
X178321955Y-109002967D01*
X178321959Y-109002970D01*
X178466294Y-109091998D01*
X178466297Y-109091999D01*
X178466303Y-109092003D01*
X178627292Y-109145349D01*
X178726655Y-109155500D01*
X179323344Y-109155499D01*
X179323352Y-109155498D01*
X179323355Y-109155498D01*
X179377760Y-109149940D01*
X179422708Y-109145349D01*
X179583697Y-109092003D01*
X179728044Y-109002968D01*
X179847968Y-108883044D01*
X179859465Y-108864403D01*
X179911412Y-108817679D01*
X179965004Y-108805500D01*
X180608331Y-108805500D01*
X180608347Y-108805501D01*
X180615943Y-108805501D01*
X180774054Y-108805501D01*
X180774057Y-108805501D01*
X180926785Y-108764577D01*
X181001467Y-108721459D01*
X181063716Y-108685520D01*
X181078936Y-108670299D01*
X181089539Y-108663332D01*
X181111305Y-108656698D01*
X181131276Y-108645793D01*
X181144086Y-108646708D01*
X181156374Y-108642964D01*
X181178271Y-108649151D01*
G37*
G04 #@! TD.AperFunction*
G04 #@! TA.AperFunction,Conductor*
G36*
X171666942Y-111420185D02*
G01*
X171687584Y-111436819D01*
X172916136Y-112665371D01*
X172949621Y-112726694D01*
X172944637Y-112796386D01*
X172902765Y-112852319D01*
X172837301Y-112876736D01*
X172769028Y-112861884D01*
X172766455Y-112860439D01*
X172731788Y-112840424D01*
X172731787Y-112840423D01*
X172662926Y-112821972D01*
X172579057Y-112799499D01*
X172420943Y-112799499D01*
X172413347Y-112799499D01*
X172413331Y-112799500D01*
X164230071Y-112799500D01*
X164211618Y-112794081D01*
X164192394Y-112793637D01*
X164167917Y-112781249D01*
X164163032Y-112779815D01*
X164160637Y-112778237D01*
X164158888Y-112777055D01*
X164107816Y-112739949D01*
X164092245Y-112732015D01*
X164085915Y-112727737D01*
X164068328Y-112706466D01*
X164048259Y-112687512D01*
X164046378Y-112679917D01*
X164041394Y-112673889D01*
X164038098Y-112646486D01*
X164031463Y-112619692D01*
X164033986Y-112612287D01*
X164033052Y-112604519D01*
X164045096Y-112579682D01*
X164053999Y-112553556D01*
X164060496Y-112547925D01*
X164063539Y-112541652D01*
X164077745Y-112532979D01*
X164099054Y-112514515D01*
X164107816Y-112510051D01*
X164215351Y-112431923D01*
X164279786Y-112385109D01*
X164279788Y-112385106D01*
X164279792Y-112385104D01*
X164430104Y-112234792D01*
X164430106Y-112234788D01*
X164430109Y-112234786D01*
X164551609Y-112067554D01*
X164555051Y-112062816D01*
X164651557Y-111873412D01*
X164717246Y-111671243D01*
X164743560Y-111505100D01*
X164773489Y-111441968D01*
X164832800Y-111405036D01*
X164866033Y-111400500D01*
X171599903Y-111400500D01*
X171666942Y-111420185D01*
G37*
G04 #@! TD.AperFunction*
G04 #@! TA.AperFunction,Conductor*
G36*
X178252035Y-101200185D02*
G01*
X178290534Y-101239403D01*
X178292959Y-101243334D01*
X178302031Y-101258043D01*
X178421955Y-101377967D01*
X178421959Y-101377970D01*
X178566294Y-101466998D01*
X178566297Y-101466999D01*
X178566303Y-101467003D01*
X178727292Y-101520349D01*
X178826655Y-101530500D01*
X179423344Y-101530499D01*
X179423352Y-101530498D01*
X179423355Y-101530498D01*
X179477760Y-101524940D01*
X179522708Y-101520349D01*
X179683697Y-101467003D01*
X179828044Y-101377968D01*
X179929193Y-101276819D01*
X179990516Y-101243334D01*
X180016874Y-101240500D01*
X181259093Y-101240500D01*
X181326132Y-101260185D01*
X181371887Y-101312989D01*
X181381831Y-101382147D01*
X181365825Y-101427620D01*
X181323257Y-101499599D01*
X181323254Y-101499606D01*
X181277402Y-101657426D01*
X181277401Y-101657432D01*
X181274500Y-101694298D01*
X181274500Y-102125701D01*
X181277401Y-102162567D01*
X181277402Y-102162573D01*
X181323254Y-102320393D01*
X181323255Y-102320396D01*
X181406917Y-102461862D01*
X181406923Y-102461870D01*
X181523129Y-102578076D01*
X181523133Y-102578079D01*
X181523135Y-102578081D01*
X181664602Y-102661744D01*
X181706224Y-102673836D01*
X181822426Y-102707597D01*
X181822429Y-102707597D01*
X181822431Y-102707598D01*
X181859306Y-102710500D01*
X181859314Y-102710500D01*
X183640686Y-102710500D01*
X183640694Y-102710500D01*
X183677569Y-102707598D01*
X183677571Y-102707597D01*
X183677573Y-102707597D01*
X183736069Y-102690602D01*
X183835398Y-102661744D01*
X183835403Y-102661740D01*
X183837818Y-102660697D01*
X183841943Y-102659842D01*
X183842889Y-102659568D01*
X183842910Y-102659642D01*
X183887061Y-102650500D01*
X184873920Y-102650500D01*
X184975664Y-102630261D01*
X185018913Y-102621658D01*
X185155495Y-102565084D01*
X185234573Y-102512246D01*
X185278416Y-102482952D01*
X185615299Y-102146067D01*
X185655524Y-102119191D01*
X185679179Y-102109394D01*
X185810289Y-102021789D01*
X185921789Y-101910289D01*
X185997398Y-101797133D01*
X186051010Y-101752328D01*
X186120335Y-101743621D01*
X186183363Y-101773775D01*
X186220082Y-101833219D01*
X186224500Y-101866024D01*
X186224500Y-102125701D01*
X186227401Y-102162567D01*
X186227402Y-102162573D01*
X186273254Y-102320393D01*
X186273255Y-102320396D01*
X186356917Y-102461862D01*
X186356923Y-102461870D01*
X186473129Y-102578076D01*
X186473133Y-102578079D01*
X186473135Y-102578081D01*
X186614602Y-102661744D01*
X186656224Y-102673836D01*
X186772426Y-102707597D01*
X186772429Y-102707597D01*
X186772431Y-102707598D01*
X186809306Y-102710500D01*
X187599903Y-102710500D01*
X187666942Y-102730185D01*
X187687584Y-102746819D01*
X188367908Y-103427143D01*
X188401393Y-103488466D01*
X188401844Y-103490632D01*
X188430261Y-103633491D01*
X188430264Y-103633501D01*
X188490602Y-103779172D01*
X188490609Y-103779185D01*
X188578210Y-103910288D01*
X188578213Y-103910292D01*
X188689707Y-104021786D01*
X188689711Y-104021789D01*
X188820814Y-104109390D01*
X188820827Y-104109397D01*
X188953809Y-104164479D01*
X188966503Y-104169737D01*
X189121153Y-104200499D01*
X189121156Y-104200500D01*
X189121158Y-104200500D01*
X189278844Y-104200500D01*
X189278845Y-104200499D01*
X189433497Y-104169737D01*
X189579179Y-104109394D01*
X189710289Y-104021789D01*
X189821789Y-103910289D01*
X189909394Y-103779179D01*
X189969737Y-103633497D01*
X190000500Y-103478842D01*
X190000500Y-103321158D01*
X190000500Y-103321155D01*
X190000499Y-103321153D01*
X189980694Y-103221588D01*
X189969737Y-103166503D01*
X189912028Y-103027179D01*
X189909397Y-103020827D01*
X189909390Y-103020814D01*
X189821789Y-102889711D01*
X189821786Y-102889707D01*
X189710292Y-102778213D01*
X189710288Y-102778210D01*
X189579185Y-102690609D01*
X189579172Y-102690602D01*
X189433501Y-102630264D01*
X189433489Y-102630261D01*
X189278834Y-102599497D01*
X189278491Y-102599464D01*
X189278322Y-102599396D01*
X189272868Y-102598311D01*
X189273073Y-102597275D01*
X189255482Y-102590170D01*
X189231233Y-102584895D01*
X189218119Y-102575078D01*
X189213707Y-102573296D01*
X189202979Y-102563744D01*
X189132654Y-102493419D01*
X189099169Y-102432096D01*
X189104153Y-102362404D01*
X189113604Y-102342616D01*
X189126744Y-102320398D01*
X189172598Y-102162569D01*
X189175500Y-102125694D01*
X189175500Y-101977463D01*
X189195185Y-101910424D01*
X189247989Y-101864669D01*
X189317147Y-101854725D01*
X189368392Y-101874362D01*
X189420812Y-101909389D01*
X189420827Y-101909397D01*
X189496280Y-101940650D01*
X189566503Y-101969737D01*
X189721153Y-102000499D01*
X189721156Y-102000500D01*
X189721158Y-102000500D01*
X189878844Y-102000500D01*
X189878845Y-102000499D01*
X190033497Y-101969737D01*
X190146166Y-101923067D01*
X190179172Y-101909397D01*
X190179172Y-101909396D01*
X190179179Y-101909394D01*
X190179184Y-101909390D01*
X190179187Y-101909389D01*
X190206608Y-101891067D01*
X190273285Y-101870188D01*
X190340666Y-101888672D01*
X190387356Y-101940650D01*
X190399500Y-101994168D01*
X190399500Y-104044900D01*
X190390855Y-104074339D01*
X190384333Y-104104325D01*
X190380577Y-104109341D01*
X190379815Y-104111939D01*
X190363183Y-104132580D01*
X190331286Y-104164477D01*
X190331284Y-104164478D01*
X190331283Y-104164479D01*
X190331284Y-104164479D01*
X189260420Y-105235343D01*
X189199097Y-105268828D01*
X189129405Y-105263844D01*
X189073472Y-105221972D01*
X189053663Y-105182259D01*
X189026744Y-105089602D01*
X188943081Y-104948135D01*
X188943079Y-104948133D01*
X188943076Y-104948129D01*
X188826870Y-104831923D01*
X188826862Y-104831917D01*
X188748681Y-104785681D01*
X188685398Y-104748256D01*
X188685397Y-104748255D01*
X188685396Y-104748255D01*
X188685393Y-104748254D01*
X188527573Y-104702402D01*
X188527567Y-104702401D01*
X188490701Y-104699500D01*
X188490694Y-104699500D01*
X186709306Y-104699500D01*
X186709298Y-104699500D01*
X186672432Y-104702401D01*
X186672426Y-104702402D01*
X186514606Y-104748254D01*
X186514603Y-104748255D01*
X186373137Y-104831917D01*
X186373129Y-104831923D01*
X186256923Y-104948129D01*
X186256917Y-104948137D01*
X186173255Y-105089603D01*
X186173254Y-105089606D01*
X186127402Y-105247426D01*
X186127401Y-105247432D01*
X186124500Y-105284298D01*
X186124500Y-105715701D01*
X186127401Y-105752567D01*
X186127402Y-105752573D01*
X186173254Y-105910393D01*
X186173255Y-105910396D01*
X186256917Y-106051862D01*
X186261702Y-106058031D01*
X186259256Y-106059927D01*
X186285857Y-106108642D01*
X186280873Y-106178334D01*
X186260069Y-106210703D01*
X186261702Y-106211969D01*
X186256917Y-106218137D01*
X186173255Y-106359603D01*
X186173254Y-106359606D01*
X186127402Y-106517426D01*
X186127401Y-106517432D01*
X186124500Y-106554298D01*
X186124500Y-106985701D01*
X186127401Y-107022567D01*
X186127402Y-107022573D01*
X186173254Y-107180393D01*
X186173255Y-107180396D01*
X186256917Y-107321862D01*
X186261702Y-107328031D01*
X186259256Y-107329927D01*
X186285857Y-107378642D01*
X186280873Y-107448334D01*
X186260069Y-107480703D01*
X186261702Y-107481969D01*
X186256917Y-107488137D01*
X186173255Y-107629603D01*
X186173254Y-107629606D01*
X186127402Y-107787426D01*
X186127401Y-107787432D01*
X186124500Y-107824298D01*
X186124500Y-108255704D01*
X186126893Y-108286107D01*
X186112528Y-108354484D01*
X186063476Y-108404240D01*
X185995310Y-108419578D01*
X185929674Y-108395628D01*
X185915594Y-108383515D01*
X185810292Y-108278213D01*
X185810288Y-108278210D01*
X185679185Y-108190609D01*
X185679172Y-108190602D01*
X185533501Y-108130264D01*
X185533489Y-108130261D01*
X185378845Y-108099500D01*
X185378842Y-108099500D01*
X185221158Y-108099500D01*
X185221155Y-108099500D01*
X185066510Y-108130261D01*
X185066498Y-108130264D01*
X184920827Y-108190602D01*
X184920814Y-108190609D01*
X184789711Y-108278210D01*
X184789707Y-108278213D01*
X184678210Y-108389710D01*
X184608266Y-108494391D01*
X184554654Y-108539196D01*
X184505164Y-108549500D01*
X184213105Y-108549500D01*
X184146066Y-108529815D01*
X184100311Y-108477011D01*
X184090367Y-108407853D01*
X184094029Y-108390905D01*
X184122597Y-108292573D01*
X184122598Y-108292567D01*
X184125500Y-108255694D01*
X184125500Y-107824306D01*
X184122598Y-107787431D01*
X184076744Y-107629602D01*
X183993081Y-107488135D01*
X183993078Y-107488132D01*
X183988298Y-107481969D01*
X183990750Y-107480066D01*
X183964155Y-107431421D01*
X183969104Y-107361726D01*
X183989940Y-107329304D01*
X183988298Y-107328031D01*
X183993075Y-107321870D01*
X183993081Y-107321865D01*
X184076744Y-107180398D01*
X184110505Y-107064191D01*
X184122597Y-107022573D01*
X184122598Y-107022567D01*
X184125500Y-106985694D01*
X184125500Y-106554306D01*
X184122598Y-106517431D01*
X184076744Y-106359602D01*
X183993081Y-106218135D01*
X183993078Y-106218132D01*
X183988298Y-106211969D01*
X183990635Y-106210155D01*
X183963798Y-106161050D01*
X183968756Y-106091356D01*
X183989554Y-106058998D01*
X183987903Y-106057717D01*
X183992686Y-106051550D01*
X184076281Y-105910198D01*
X184122100Y-105752486D01*
X184122295Y-105750001D01*
X184122295Y-105750000D01*
X181177705Y-105750000D01*
X181177704Y-105750001D01*
X181177899Y-105752486D01*
X181223718Y-105910198D01*
X181266406Y-105982379D01*
X181268061Y-105988903D01*
X181272468Y-105993989D01*
X181276543Y-106022335D01*
X181283589Y-106050103D01*
X181281454Y-106056486D01*
X181282412Y-106063147D01*
X181270513Y-106089201D01*
X181261429Y-106116365D01*
X181256183Y-106120579D01*
X181253387Y-106126703D01*
X181229289Y-106142189D01*
X181206963Y-106160129D01*
X181198883Y-106161730D01*
X181194609Y-106164477D01*
X181159674Y-106169500D01*
X181148315Y-106169500D01*
X181086315Y-106152887D01*
X181083765Y-106151415D01*
X180998036Y-106101919D01*
X180986785Y-106095423D01*
X180834057Y-106054499D01*
X180675943Y-106054499D01*
X180668347Y-106054499D01*
X180668331Y-106054500D01*
X179965004Y-106054500D01*
X179897965Y-106034815D01*
X179859465Y-105995596D01*
X179847968Y-105976956D01*
X179728044Y-105857032D01*
X179728040Y-105857029D01*
X179583705Y-105768001D01*
X179583699Y-105767998D01*
X179583697Y-105767997D01*
X179537132Y-105752567D01*
X179422709Y-105714651D01*
X179323352Y-105704500D01*
X179323345Y-105704500D01*
X178852348Y-105704500D01*
X178820255Y-105700275D01*
X178818424Y-105699784D01*
X178724057Y-105674499D01*
X178565943Y-105674499D01*
X178558347Y-105674499D01*
X178558331Y-105674500D01*
X164685719Y-105674500D01*
X164618680Y-105654815D01*
X164575235Y-105606795D01*
X164555052Y-105567185D01*
X164555051Y-105567184D01*
X164430109Y-105395213D01*
X164284894Y-105249998D01*
X181177704Y-105249998D01*
X181177705Y-105250000D01*
X182400000Y-105250000D01*
X182900000Y-105250000D01*
X184122295Y-105250000D01*
X184122295Y-105249998D01*
X184122100Y-105247513D01*
X184076281Y-105089801D01*
X183992685Y-104948447D01*
X183992678Y-104948438D01*
X183876561Y-104832321D01*
X183876552Y-104832314D01*
X183735196Y-104748717D01*
X183735193Y-104748716D01*
X183577495Y-104702900D01*
X183577489Y-104702899D01*
X183540649Y-104700000D01*
X182900000Y-104700000D01*
X182900000Y-105250000D01*
X182400000Y-105250000D01*
X182400000Y-104700000D01*
X181759350Y-104700000D01*
X181722510Y-104702899D01*
X181722504Y-104702900D01*
X181564806Y-104748716D01*
X181564803Y-104748717D01*
X181423447Y-104832314D01*
X181423438Y-104832321D01*
X181307321Y-104948438D01*
X181307314Y-104948447D01*
X181223718Y-105089801D01*
X181177899Y-105247513D01*
X181177704Y-105249998D01*
X164284894Y-105249998D01*
X164279786Y-105244890D01*
X164107820Y-105119951D01*
X164107115Y-105119591D01*
X164099054Y-105115485D01*
X164048259Y-105067512D01*
X164031463Y-104999692D01*
X164053999Y-104933556D01*
X164099054Y-104894515D01*
X164107816Y-104890051D01*
X164187823Y-104831923D01*
X164279786Y-104765109D01*
X164279788Y-104765106D01*
X164279792Y-104765104D01*
X164430104Y-104614792D01*
X164430106Y-104614788D01*
X164430109Y-104614786D01*
X164555048Y-104442820D01*
X164555047Y-104442820D01*
X164555051Y-104442816D01*
X164651557Y-104253412D01*
X164717246Y-104051243D01*
X164750500Y-103841287D01*
X164750500Y-103628713D01*
X164717246Y-103418757D01*
X164703506Y-103376473D01*
X164701512Y-103306635D01*
X164733755Y-103250478D01*
X165347417Y-102636819D01*
X165408740Y-102603334D01*
X165435098Y-102600500D01*
X169313331Y-102600500D01*
X169313347Y-102600501D01*
X169320943Y-102600501D01*
X169479054Y-102600501D01*
X169479057Y-102600501D01*
X169631785Y-102559577D01*
X169713764Y-102512246D01*
X169768716Y-102480520D01*
X169880520Y-102368716D01*
X169880520Y-102368714D01*
X169890724Y-102358511D01*
X169890727Y-102358506D01*
X170612417Y-101636819D01*
X170673740Y-101603334D01*
X170700098Y-101600500D01*
X177313331Y-101600500D01*
X177313347Y-101600501D01*
X177320943Y-101600501D01*
X177479054Y-101600501D01*
X177479057Y-101600501D01*
X177631785Y-101559577D01*
X177682149Y-101530499D01*
X177768716Y-101480520D01*
X177880520Y-101368716D01*
X177880521Y-101368714D01*
X178032418Y-101216817D01*
X178093741Y-101183334D01*
X178120098Y-101180500D01*
X178184996Y-101180500D01*
X178252035Y-101200185D01*
G37*
G04 #@! TD.AperFunction*
G04 #@! TA.AperFunction,Conductor*
G36*
X177999163Y-106895185D02*
G01*
X178044918Y-106947989D01*
X178055482Y-106986898D01*
X178059651Y-107027708D01*
X178059651Y-107027710D01*
X178112996Y-107188694D01*
X178113001Y-107188705D01*
X178202029Y-107333040D01*
X178202032Y-107333044D01*
X178211307Y-107342319D01*
X178211628Y-107342907D01*
X178212215Y-107343236D01*
X178228363Y-107373555D01*
X178244792Y-107403642D01*
X178244744Y-107404310D01*
X178245060Y-107404904D01*
X178242254Y-107439124D01*
X178239808Y-107473334D01*
X178239387Y-107474094D01*
X178239351Y-107474540D01*
X178237949Y-107476696D01*
X178222115Y-107505339D01*
X178217122Y-107511865D01*
X178202032Y-107526956D01*
X178187263Y-107550900D01*
X178183485Y-107555839D01*
X178160120Y-107572952D01*
X178138588Y-107592321D01*
X178131470Y-107593938D01*
X178127119Y-107597126D01*
X178113888Y-107597933D01*
X178084996Y-107604500D01*
X176214046Y-107604500D01*
X176181957Y-107600276D01*
X176179057Y-107599499D01*
X176020943Y-107599499D01*
X175908599Y-107629602D01*
X175868214Y-107640423D01*
X175731284Y-107719481D01*
X175731281Y-107719483D01*
X175272584Y-108178181D01*
X175211261Y-108211666D01*
X175184903Y-108214500D01*
X164685719Y-108214500D01*
X164618680Y-108194815D01*
X164575235Y-108146795D01*
X164555052Y-108107185D01*
X164555051Y-108107184D01*
X164430109Y-107935213D01*
X164279786Y-107784890D01*
X164107820Y-107659951D01*
X164107115Y-107659591D01*
X164099054Y-107655485D01*
X164048259Y-107607512D01*
X164031463Y-107539692D01*
X164053999Y-107473556D01*
X164099054Y-107434515D01*
X164107816Y-107430051D01*
X164189780Y-107370501D01*
X164279786Y-107305109D01*
X164279788Y-107305106D01*
X164279792Y-107305104D01*
X164430104Y-107154792D01*
X164430106Y-107154788D01*
X164430109Y-107154786D01*
X164488661Y-107074193D01*
X164555051Y-106982816D01*
X164555349Y-106982230D01*
X164575235Y-106943205D01*
X164623209Y-106892409D01*
X164685719Y-106875500D01*
X177932124Y-106875500D01*
X177999163Y-106895185D01*
G37*
G04 #@! TD.AperFunction*
G04 #@! TA.AperFunction,Conductor*
G36*
X165450324Y-88020185D02*
G01*
X165489401Y-88060349D01*
X165513273Y-88099838D01*
X165519530Y-88110188D01*
X165639811Y-88230469D01*
X165639813Y-88230470D01*
X165639815Y-88230472D01*
X165785394Y-88318478D01*
X165947804Y-88369086D01*
X166018384Y-88375500D01*
X166018387Y-88375500D01*
X166531613Y-88375500D01*
X166531616Y-88375500D01*
X166602196Y-88369086D01*
X166764606Y-88318478D01*
X166910185Y-88230472D01*
X166952664Y-88187993D01*
X167012319Y-88128339D01*
X167073642Y-88094854D01*
X167143334Y-88099838D01*
X167187681Y-88128339D01*
X167289811Y-88230469D01*
X167289813Y-88230470D01*
X167289815Y-88230472D01*
X167435394Y-88318478D01*
X167597804Y-88369086D01*
X167668384Y-88375500D01*
X167668387Y-88375500D01*
X168181613Y-88375500D01*
X168181616Y-88375500D01*
X168252196Y-88369086D01*
X168414606Y-88318478D01*
X168436696Y-88305123D01*
X168504249Y-88287286D01*
X168570724Y-88308802D01*
X168592404Y-88327612D01*
X168601495Y-88337565D01*
X168619480Y-88368716D01*
X168731284Y-88480520D01*
X168731286Y-88480521D01*
X168740342Y-88489577D01*
X169515139Y-89264374D01*
X169515149Y-89264385D01*
X169519479Y-89268715D01*
X169519480Y-89268716D01*
X169631284Y-89380520D01*
X169718095Y-89430639D01*
X169718097Y-89430641D01*
X169764588Y-89457483D01*
X169768215Y-89459577D01*
X169920942Y-89500500D01*
X169920943Y-89500500D01*
X173399903Y-89500500D01*
X173466942Y-89520185D01*
X173487583Y-89536818D01*
X178531284Y-94580520D01*
X178531286Y-94580521D01*
X178531290Y-94580524D01*
X178646953Y-94647301D01*
X178668216Y-94659577D01*
X178680031Y-94662743D01*
X178739690Y-94699107D01*
X178770219Y-94761954D01*
X178761924Y-94831330D01*
X178717439Y-94885208D01*
X178650887Y-94906482D01*
X178647936Y-94906517D01*
X178264831Y-94906517D01*
X178197792Y-94886832D01*
X178177150Y-94870198D01*
X177708502Y-94401551D01*
X177708495Y-94401544D01*
X177708487Y-94401537D01*
X177708481Y-94401532D01*
X177628395Y-94336291D01*
X177628382Y-94336282D01*
X177471607Y-94257547D01*
X177300901Y-94217088D01*
X177300896Y-94217087D01*
X177300894Y-94217087D01*
X177125452Y-94217087D01*
X177118230Y-94217087D01*
X177118230Y-94214419D01*
X177061559Y-94204734D01*
X177028358Y-94181024D01*
X175364385Y-92517050D01*
X175364378Y-92517044D01*
X175278469Y-92459642D01*
X175278370Y-92459577D01*
X175241459Y-92434914D01*
X175241458Y-92434913D01*
X175241456Y-92434912D01*
X175104881Y-92378341D01*
X175104871Y-92378338D01*
X174959884Y-92349498D01*
X174959882Y-92349498D01*
X174080670Y-92349498D01*
X174067431Y-92348788D01*
X174036823Y-92345498D01*
X174036813Y-92345498D01*
X172963179Y-92345498D01*
X172963173Y-92345499D01*
X172903566Y-92351906D01*
X172768721Y-92402200D01*
X172768714Y-92402204D01*
X172653505Y-92488450D01*
X172653502Y-92488453D01*
X172567256Y-92603662D01*
X172567252Y-92603669D01*
X172516960Y-92738511D01*
X172516959Y-92738515D01*
X172510550Y-92798125D01*
X172510550Y-92798132D01*
X172510550Y-92798133D01*
X172510550Y-93401868D01*
X172510551Y-93401874D01*
X172516958Y-93461481D01*
X172567252Y-93596326D01*
X172567256Y-93596333D01*
X172653502Y-93711542D01*
X172653505Y-93711545D01*
X172768714Y-93797791D01*
X172768721Y-93797795D01*
X172903567Y-93848089D01*
X172903566Y-93848089D01*
X172910494Y-93848833D01*
X172963177Y-93854498D01*
X174036822Y-93854497D01*
X174067419Y-93851207D01*
X174080671Y-93850498D01*
X174523734Y-93850498D01*
X174590773Y-93870183D01*
X174611415Y-93886817D01*
X175966990Y-95242392D01*
X176000475Y-95303715D01*
X176001873Y-95332264D01*
X176003053Y-95332264D01*
X176003053Y-95514924D01*
X176003054Y-95514935D01*
X176043513Y-95685641D01*
X176122249Y-95842417D01*
X176122253Y-95842424D01*
X176162895Y-95892314D01*
X176187509Y-95922529D01*
X177177471Y-96912490D01*
X177177479Y-96912496D01*
X177177484Y-96912501D01*
X177257570Y-96977742D01*
X177257574Y-96977744D01*
X177257578Y-96977748D01*
X177257580Y-96977749D01*
X177257583Y-96977751D01*
X177414358Y-97056486D01*
X177533035Y-97084613D01*
X177585072Y-97096947D01*
X177585075Y-97096947D01*
X177760511Y-97096947D01*
X177760514Y-97096947D01*
X177931226Y-97056486D01*
X178088007Y-96977748D01*
X178168115Y-96912491D01*
X178636769Y-96443835D01*
X178698092Y-96410351D01*
X178724450Y-96407517D01*
X179916902Y-96407517D01*
X179940197Y-96402883D01*
X179964390Y-96400500D01*
X179978844Y-96400500D01*
X179978845Y-96400499D01*
X180133497Y-96369737D01*
X180279179Y-96309394D01*
X180410289Y-96221789D01*
X180521789Y-96110289D01*
X180609394Y-95979179D01*
X180669737Y-95833497D01*
X180700500Y-95678842D01*
X180700500Y-95521158D01*
X180700500Y-95521155D01*
X180700499Y-95521153D01*
X180686882Y-95452696D01*
X180669737Y-95366503D01*
X180642966Y-95301872D01*
X180609397Y-95220827D01*
X180609390Y-95220814D01*
X180521789Y-95089711D01*
X180521786Y-95089707D01*
X180410292Y-94978213D01*
X180410288Y-94978210D01*
X180334548Y-94927602D01*
X180289743Y-94873990D01*
X180281036Y-94804665D01*
X180311190Y-94741637D01*
X180370634Y-94704918D01*
X180403439Y-94700500D01*
X188413331Y-94700500D01*
X188413347Y-94700501D01*
X188420943Y-94700501D01*
X188579054Y-94700501D01*
X188579057Y-94700501D01*
X188731785Y-94659577D01*
X188781904Y-94630639D01*
X188868716Y-94580520D01*
X188980520Y-94468716D01*
X188980520Y-94468714D01*
X188990728Y-94458507D01*
X188990730Y-94458504D01*
X189758506Y-93690728D01*
X189758511Y-93690724D01*
X189768714Y-93680520D01*
X189768716Y-93680520D01*
X189880520Y-93568716D01*
X189937084Y-93470743D01*
X189959577Y-93431785D01*
X190000500Y-93279058D01*
X190000500Y-93120943D01*
X190000500Y-92749097D01*
X190020185Y-92682058D01*
X190072989Y-92636303D01*
X190142147Y-92626359D01*
X190205703Y-92655384D01*
X190212181Y-92661416D01*
X190863181Y-93312416D01*
X190877884Y-93339343D01*
X190894477Y-93365162D01*
X190895368Y-93371362D01*
X190896666Y-93373739D01*
X190899500Y-93400097D01*
X190899500Y-93633330D01*
X190899499Y-93633348D01*
X190899499Y-93799054D01*
X190899498Y-93799054D01*
X190940423Y-93951785D01*
X190957339Y-93981085D01*
X190964052Y-93992711D01*
X190995221Y-94046698D01*
X191019479Y-94088714D01*
X191019481Y-94088717D01*
X191138349Y-94207585D01*
X191138355Y-94207590D01*
X192566241Y-95635476D01*
X192599726Y-95696799D01*
X192596492Y-95761473D01*
X192582753Y-95803757D01*
X192549500Y-96013713D01*
X192549500Y-96226286D01*
X192581944Y-96431134D01*
X192582754Y-96436243D01*
X192629764Y-96580925D01*
X192648444Y-96638414D01*
X192744951Y-96827820D01*
X192869890Y-96999786D01*
X193020213Y-97150109D01*
X193192182Y-97275050D01*
X193200946Y-97279516D01*
X193251742Y-97327491D01*
X193268536Y-97395312D01*
X193245998Y-97461447D01*
X193200946Y-97500484D01*
X193192182Y-97504949D01*
X193020213Y-97629890D01*
X192869890Y-97780213D01*
X192744951Y-97952179D01*
X192648444Y-98141585D01*
X192582753Y-98343760D01*
X192549500Y-98553713D01*
X192549500Y-98645500D01*
X192529815Y-98712539D01*
X192477011Y-98758294D01*
X192425500Y-98769500D01*
X189190907Y-98769500D01*
X189123868Y-98749815D01*
X189078113Y-98697011D01*
X189068169Y-98627853D01*
X189084175Y-98582380D01*
X189105973Y-98545518D01*
X189126744Y-98510398D01*
X189172598Y-98352569D01*
X189175500Y-98315694D01*
X189175500Y-97884306D01*
X189172598Y-97847431D01*
X189150519Y-97771437D01*
X189126745Y-97689606D01*
X189126744Y-97689603D01*
X189126744Y-97689602D01*
X189043081Y-97548135D01*
X189043079Y-97548133D01*
X189043076Y-97548129D01*
X188926870Y-97431923D01*
X188926862Y-97431917D01*
X188793044Y-97352778D01*
X188785398Y-97348256D01*
X188785397Y-97348255D01*
X188785396Y-97348255D01*
X188785393Y-97348254D01*
X188627573Y-97302402D01*
X188627567Y-97302401D01*
X188590701Y-97299500D01*
X188590694Y-97299500D01*
X186809306Y-97299500D01*
X186809298Y-97299500D01*
X186772432Y-97302401D01*
X186772426Y-97302402D01*
X186614606Y-97348254D01*
X186614603Y-97348255D01*
X186473137Y-97431917D01*
X186473129Y-97431923D01*
X186356923Y-97548129D01*
X186356917Y-97548137D01*
X186273255Y-97689603D01*
X186273254Y-97689606D01*
X186227402Y-97847426D01*
X186227401Y-97847432D01*
X186224500Y-97884298D01*
X186224500Y-98315701D01*
X186227401Y-98352567D01*
X186227402Y-98352573D01*
X186273254Y-98510393D01*
X186273255Y-98510396D01*
X186356917Y-98651862D01*
X186361702Y-98658031D01*
X186359256Y-98659927D01*
X186385857Y-98708642D01*
X186380873Y-98778334D01*
X186360069Y-98810703D01*
X186361702Y-98811969D01*
X186356917Y-98818137D01*
X186273255Y-98959603D01*
X186273254Y-98959606D01*
X186227402Y-99117426D01*
X186227401Y-99117432D01*
X186224500Y-99154298D01*
X186224500Y-99585701D01*
X186227401Y-99622567D01*
X186227402Y-99622573D01*
X186273254Y-99780393D01*
X186273255Y-99780396D01*
X186273256Y-99780398D01*
X186293748Y-99815048D01*
X186356917Y-99921862D01*
X186361702Y-99928031D01*
X186359256Y-99929927D01*
X186385857Y-99978642D01*
X186380873Y-100048334D01*
X186360069Y-100080703D01*
X186361702Y-100081969D01*
X186356917Y-100088137D01*
X186273255Y-100229603D01*
X186273254Y-100229606D01*
X186227402Y-100387426D01*
X186227401Y-100387432D01*
X186224500Y-100424298D01*
X186224500Y-100855701D01*
X186227401Y-100892567D01*
X186227402Y-100892570D01*
X186237392Y-100926957D01*
X186237191Y-100996826D01*
X186199248Y-101055496D01*
X186135610Y-101084338D01*
X186066480Y-101074196D01*
X186013808Y-101028290D01*
X186009731Y-101021324D01*
X185921789Y-100889711D01*
X185921786Y-100889707D01*
X185810292Y-100778213D01*
X185810288Y-100778210D01*
X185679185Y-100690609D01*
X185679172Y-100690602D01*
X185533501Y-100630264D01*
X185533489Y-100630261D01*
X185378845Y-100599500D01*
X185378842Y-100599500D01*
X185221158Y-100599500D01*
X185221155Y-100599500D01*
X185066510Y-100630261D01*
X185066498Y-100630264D01*
X184920827Y-100690602D01*
X184920814Y-100690609D01*
X184789711Y-100778210D01*
X184789707Y-100778213D01*
X184678213Y-100889707D01*
X184678207Y-100889715D01*
X184590607Y-101020818D01*
X184590604Y-101020823D01*
X184580806Y-101044477D01*
X184576176Y-101051405D01*
X184575081Y-101056443D01*
X184553931Y-101084698D01*
X184525453Y-101113178D01*
X184464131Y-101146665D01*
X184437769Y-101149500D01*
X184313105Y-101149500D01*
X184246066Y-101129815D01*
X184200311Y-101077011D01*
X184190367Y-101007853D01*
X184194029Y-100990905D01*
X184222597Y-100892573D01*
X184222597Y-100892571D01*
X184222598Y-100892569D01*
X184225500Y-100855694D01*
X184225500Y-100424306D01*
X184222598Y-100387431D01*
X184176744Y-100229602D01*
X184093081Y-100088135D01*
X184093078Y-100088132D01*
X184088298Y-100081969D01*
X184090750Y-100080066D01*
X184064155Y-100031421D01*
X184069104Y-99961726D01*
X184089940Y-99929304D01*
X184088298Y-99928031D01*
X184093075Y-99921870D01*
X184093081Y-99921865D01*
X184176744Y-99780398D01*
X184214575Y-99650185D01*
X184222597Y-99622573D01*
X184222598Y-99622567D01*
X184225499Y-99585701D01*
X184225500Y-99585694D01*
X184225500Y-99154306D01*
X184222598Y-99117431D01*
X184206870Y-99063297D01*
X184181579Y-98976243D01*
X184176744Y-98959602D01*
X184093081Y-98818135D01*
X184093078Y-98818132D01*
X184088298Y-98811969D01*
X184090635Y-98810155D01*
X184063798Y-98761050D01*
X184068756Y-98691356D01*
X184089554Y-98658998D01*
X184087903Y-98657717D01*
X184092686Y-98651550D01*
X184176281Y-98510198D01*
X184222100Y-98352486D01*
X184222295Y-98350001D01*
X184222295Y-98350000D01*
X181277704Y-98350000D01*
X181241032Y-98389671D01*
X181212702Y-98406616D01*
X181184913Y-98424476D01*
X181182190Y-98424867D01*
X181181071Y-98425537D01*
X181149978Y-98429499D01*
X181050943Y-98429499D01*
X181050939Y-98429499D01*
X181043332Y-98429500D01*
X181043331Y-98429499D01*
X181043331Y-98429500D01*
X180065004Y-98429500D01*
X179997965Y-98409815D01*
X179959465Y-98370596D01*
X179947968Y-98351956D01*
X179828044Y-98232032D01*
X179828040Y-98232029D01*
X179683705Y-98143001D01*
X179683699Y-98142998D01*
X179683697Y-98142997D01*
X179664941Y-98136782D01*
X179522709Y-98089651D01*
X179423346Y-98079500D01*
X178826662Y-98079500D01*
X178826644Y-98079501D01*
X178727292Y-98089650D01*
X178727289Y-98089651D01*
X178566305Y-98142996D01*
X178566294Y-98143001D01*
X178421959Y-98232029D01*
X178421955Y-98232032D01*
X178302031Y-98351956D01*
X178290535Y-98370596D01*
X178238588Y-98417321D01*
X178184996Y-98429500D01*
X177856670Y-98429500D01*
X177856654Y-98429499D01*
X177849058Y-98429499D01*
X177690943Y-98429499D01*
X177614579Y-98449961D01*
X177538214Y-98470423D01*
X177538209Y-98470426D01*
X177401290Y-98549475D01*
X177401282Y-98549481D01*
X176487584Y-99463181D01*
X176426261Y-99496666D01*
X176399903Y-99499500D01*
X169686669Y-99499500D01*
X169686653Y-99499499D01*
X169679057Y-99499499D01*
X169520943Y-99499499D01*
X169441010Y-99520917D01*
X169368216Y-99540422D01*
X169327902Y-99563698D01*
X169327901Y-99563697D01*
X169231287Y-99619477D01*
X169231282Y-99619481D01*
X169161360Y-99689404D01*
X169119480Y-99731284D01*
X169119478Y-99731286D01*
X168691285Y-100159480D01*
X168292584Y-100558181D01*
X168231261Y-100591666D01*
X168204903Y-100594500D01*
X164685719Y-100594500D01*
X164618680Y-100574815D01*
X164575235Y-100526795D01*
X164555052Y-100487185D01*
X164555051Y-100487184D01*
X164430109Y-100315213D01*
X164279786Y-100164890D01*
X164107817Y-100039949D01*
X164098504Y-100035204D01*
X164047707Y-99987230D01*
X164030912Y-99919409D01*
X164053449Y-99853274D01*
X164098507Y-99814232D01*
X164107555Y-99809622D01*
X164161716Y-99770270D01*
X164161717Y-99770270D01*
X163529408Y-99137962D01*
X163592993Y-99120925D01*
X163707007Y-99055099D01*
X163800099Y-98962007D01*
X163865925Y-98847993D01*
X163882962Y-98784408D01*
X164515270Y-99416717D01*
X164515270Y-99416716D01*
X164554622Y-99362554D01*
X164651095Y-99173217D01*
X164716757Y-98971130D01*
X164716757Y-98971127D01*
X164750000Y-98761246D01*
X164750000Y-98679898D01*
X174773654Y-98679898D01*
X175091829Y-98998073D01*
X175091850Y-98998092D01*
X175171881Y-99063288D01*
X175171894Y-99063297D01*
X175328562Y-99141978D01*
X175499167Y-99182413D01*
X175674487Y-99182413D01*
X175845091Y-99141978D01*
X176001758Y-99063297D01*
X176001765Y-99063292D01*
X176081812Y-98998085D01*
X176081816Y-98998082D01*
X176170189Y-98909707D01*
X175357016Y-98096536D01*
X174773654Y-98679898D01*
X164750000Y-98679898D01*
X164750000Y-98548753D01*
X164716757Y-98338872D01*
X164716757Y-98338869D01*
X164651095Y-98136782D01*
X164554624Y-97947449D01*
X164515270Y-97893282D01*
X164515269Y-97893282D01*
X163882962Y-98525590D01*
X163865925Y-98462007D01*
X163800099Y-98347993D01*
X163707007Y-98254901D01*
X163592993Y-98189075D01*
X163529409Y-98172037D01*
X164161716Y-97539728D01*
X164135276Y-97520518D01*
X164086733Y-97489009D01*
X164068028Y-97467223D01*
X164047157Y-97447512D01*
X164045556Y-97441050D01*
X164041219Y-97435998D01*
X164039760Y-97425512D01*
X173917587Y-97425512D01*
X173917587Y-97600833D01*
X173958021Y-97771437D01*
X174036706Y-97928113D01*
X174101907Y-98008151D01*
X174101923Y-98008169D01*
X174420100Y-98326346D01*
X175003463Y-97742983D01*
X175003463Y-97742982D01*
X175710570Y-97742982D01*
X176523741Y-98556155D01*
X176523742Y-98556155D01*
X176612107Y-98467789D01*
X176612126Y-98467768D01*
X176677322Y-98387737D01*
X176677331Y-98387724D01*
X176756012Y-98231057D01*
X176796447Y-98060453D01*
X176796447Y-97885132D01*
X176788120Y-97849998D01*
X181277704Y-97849998D01*
X181277705Y-97850000D01*
X182500000Y-97850000D01*
X183000000Y-97850000D01*
X184222295Y-97850000D01*
X184222295Y-97849998D01*
X184222100Y-97847513D01*
X184176281Y-97689801D01*
X184092685Y-97548447D01*
X184092678Y-97548438D01*
X183976561Y-97432321D01*
X183976552Y-97432314D01*
X183835196Y-97348717D01*
X183835193Y-97348716D01*
X183677495Y-97302900D01*
X183677489Y-97302899D01*
X183640649Y-97300000D01*
X183000000Y-97300000D01*
X183000000Y-97850000D01*
X182500000Y-97850000D01*
X182500000Y-97300000D01*
X181859350Y-97300000D01*
X181822510Y-97302899D01*
X181822504Y-97302900D01*
X181664806Y-97348716D01*
X181664803Y-97348717D01*
X181523447Y-97432314D01*
X181523438Y-97432321D01*
X181407321Y-97548438D01*
X181407314Y-97548447D01*
X181323718Y-97689801D01*
X181277899Y-97847513D01*
X181277704Y-97849998D01*
X176788120Y-97849998D01*
X176756012Y-97714528D01*
X176677327Y-97557852D01*
X176612126Y-97477814D01*
X176612110Y-97477796D01*
X176293933Y-97159619D01*
X175710570Y-97742982D01*
X175003463Y-97742982D01*
X174190291Y-96929810D01*
X174190290Y-96929810D01*
X174101921Y-97018180D01*
X174101920Y-97018181D01*
X174036711Y-97098228D01*
X174036702Y-97098241D01*
X173958021Y-97254908D01*
X173917587Y-97425512D01*
X164039760Y-97425512D01*
X164037262Y-97407558D01*
X164030361Y-97379692D01*
X164032508Y-97373389D01*
X164031591Y-97366795D01*
X164043635Y-97340736D01*
X164052897Y-97313556D01*
X164058403Y-97308784D01*
X164060905Y-97303372D01*
X164074999Y-97294404D01*
X164097954Y-97274514D01*
X164107554Y-97269622D01*
X164161716Y-97230270D01*
X164161717Y-97230270D01*
X163529408Y-96597962D01*
X163592993Y-96580925D01*
X163707007Y-96515099D01*
X163800099Y-96422007D01*
X163865925Y-96307993D01*
X163882962Y-96244408D01*
X164515270Y-96876717D01*
X164515270Y-96876716D01*
X164554622Y-96822554D01*
X164651095Y-96633217D01*
X164669603Y-96576257D01*
X174543844Y-96576257D01*
X175357016Y-97389429D01*
X175940379Y-96806067D01*
X175622204Y-96487892D01*
X175622183Y-96487873D01*
X175542152Y-96422677D01*
X175542139Y-96422668D01*
X175385471Y-96343987D01*
X175214867Y-96303553D01*
X175039547Y-96303553D01*
X174868942Y-96343987D01*
X174712275Y-96422668D01*
X174712268Y-96422673D01*
X174632226Y-96487875D01*
X174632211Y-96487889D01*
X174543844Y-96576257D01*
X164669603Y-96576257D01*
X164698742Y-96486577D01*
X164698742Y-96486576D01*
X164716756Y-96431134D01*
X164716757Y-96431127D01*
X164750000Y-96221246D01*
X164750000Y-96008753D01*
X164716757Y-95798872D01*
X164716757Y-95798869D01*
X164651095Y-95596782D01*
X164554623Y-95407447D01*
X164554621Y-95407443D01*
X164515271Y-95353282D01*
X164515269Y-95353282D01*
X163882962Y-95985590D01*
X163865925Y-95922007D01*
X163800099Y-95807993D01*
X163707007Y-95714901D01*
X163592993Y-95649075D01*
X163529409Y-95632037D01*
X163811460Y-95349985D01*
X166709751Y-95349985D01*
X166720244Y-95452696D01*
X166775391Y-95619118D01*
X166775393Y-95619123D01*
X166867434Y-95768344D01*
X166991404Y-95892314D01*
X167140625Y-95984355D01*
X167140630Y-95984357D01*
X167307052Y-96039504D01*
X167307059Y-96039505D01*
X167409769Y-96049998D01*
X167684749Y-96049998D01*
X168184750Y-96049998D01*
X168459722Y-96049998D01*
X168459736Y-96049997D01*
X168562447Y-96039504D01*
X168728869Y-95984357D01*
X168728874Y-95984355D01*
X168878095Y-95892314D01*
X169002065Y-95768344D01*
X169094106Y-95619123D01*
X169094108Y-95619118D01*
X169149255Y-95452696D01*
X169149256Y-95452689D01*
X169159749Y-95349985D01*
X169159750Y-95349972D01*
X169159750Y-95299999D01*
X168184750Y-95299999D01*
X168184750Y-96049998D01*
X167684749Y-96049998D01*
X167684750Y-96049997D01*
X167684750Y-95299999D01*
X166709751Y-95299999D01*
X166709751Y-95349985D01*
X163811460Y-95349985D01*
X164161716Y-94999728D01*
X164107547Y-94960373D01*
X164107547Y-94960372D01*
X164098500Y-94955763D01*
X164047706Y-94907788D01*
X164030912Y-94839966D01*
X164053451Y-94773832D01*
X164098508Y-94734793D01*
X164107816Y-94730051D01*
X164221703Y-94647308D01*
X164279786Y-94605109D01*
X164279788Y-94605106D01*
X164279792Y-94605104D01*
X164430104Y-94454792D01*
X164430106Y-94454788D01*
X164430109Y-94454786D01*
X164555048Y-94282820D01*
X164555047Y-94282820D01*
X164555051Y-94282816D01*
X164651557Y-94093412D01*
X164682595Y-93997882D01*
X164712842Y-93948524D01*
X166274549Y-92386819D01*
X166301476Y-92372115D01*
X166327295Y-92355523D01*
X166333495Y-92354631D01*
X166335872Y-92353334D01*
X166362230Y-92350500D01*
X166537770Y-92350500D01*
X166604809Y-92370185D01*
X166625451Y-92386819D01*
X166731893Y-92493261D01*
X166765378Y-92554584D01*
X166761918Y-92619944D01*
X166719752Y-92747196D01*
X166719750Y-92747203D01*
X166709250Y-92849982D01*
X166709250Y-93450000D01*
X166709251Y-93450018D01*
X166719750Y-93552795D01*
X166719751Y-93552798D01*
X166774935Y-93719330D01*
X166774937Y-93719335D01*
X166792713Y-93748154D01*
X166867038Y-93868655D01*
X166991094Y-93992711D01*
X166994378Y-93994736D01*
X166994403Y-93994752D01*
X166996195Y-93996745D01*
X166996761Y-93997192D01*
X166996684Y-93997288D01*
X167041129Y-94046698D01*
X167052353Y-94115660D01*
X167024511Y-94179743D01*
X166994415Y-94205825D01*
X166991410Y-94207678D01*
X166991405Y-94207682D01*
X166867434Y-94331653D01*
X166775393Y-94480874D01*
X166775391Y-94480879D01*
X166720244Y-94647301D01*
X166720243Y-94647308D01*
X166709750Y-94750012D01*
X166709750Y-94799999D01*
X169159749Y-94799999D01*
X169159749Y-94750027D01*
X169159748Y-94750012D01*
X169155396Y-94707408D01*
X169154448Y-94698127D01*
X169780050Y-94698127D01*
X169780050Y-94709387D01*
X169780050Y-94709388D01*
X169780050Y-95301870D01*
X169780051Y-95301876D01*
X169786458Y-95361483D01*
X169836752Y-95496328D01*
X169836756Y-95496335D01*
X169923002Y-95611544D01*
X169923005Y-95611547D01*
X170038214Y-95697793D01*
X170038221Y-95697797D01*
X170173067Y-95748091D01*
X170173066Y-95748091D01*
X170179994Y-95748835D01*
X170232677Y-95754500D01*
X171306322Y-95754499D01*
X171365933Y-95748091D01*
X171500781Y-95697796D01*
X171615996Y-95611546D01*
X171702246Y-95496331D01*
X171752541Y-95361483D01*
X171758950Y-95301873D01*
X171758949Y-94698128D01*
X171758949Y-94698127D01*
X172510550Y-94698127D01*
X172510550Y-94698134D01*
X172510550Y-94698135D01*
X172510550Y-95301870D01*
X172510551Y-95301876D01*
X172516958Y-95361483D01*
X172567252Y-95496328D01*
X172567256Y-95496335D01*
X172653502Y-95611544D01*
X172653505Y-95611547D01*
X172768714Y-95697793D01*
X172768721Y-95697797D01*
X172903567Y-95748091D01*
X172903566Y-95748091D01*
X172910494Y-95748835D01*
X172963177Y-95754500D01*
X174036822Y-95754499D01*
X174096433Y-95748091D01*
X174231281Y-95697796D01*
X174346496Y-95611546D01*
X174432746Y-95496331D01*
X174483041Y-95361483D01*
X174489450Y-95301873D01*
X174489449Y-94698128D01*
X174483041Y-94638517D01*
X174451164Y-94553051D01*
X174432747Y-94503671D01*
X174432743Y-94503664D01*
X174346497Y-94388455D01*
X174346494Y-94388452D01*
X174231285Y-94302206D01*
X174231278Y-94302202D01*
X174096432Y-94251908D01*
X174096433Y-94251908D01*
X174036833Y-94245501D01*
X174036831Y-94245500D01*
X174036823Y-94245500D01*
X174036814Y-94245500D01*
X172963179Y-94245500D01*
X172963173Y-94245501D01*
X172903566Y-94251908D01*
X172768721Y-94302202D01*
X172768714Y-94302206D01*
X172653505Y-94388452D01*
X172653502Y-94388455D01*
X172567256Y-94503664D01*
X172567252Y-94503671D01*
X172529421Y-94605104D01*
X172516959Y-94638517D01*
X172510550Y-94698127D01*
X171758949Y-94698127D01*
X171752541Y-94638517D01*
X171726096Y-94567616D01*
X171721113Y-94497926D01*
X171726098Y-94480949D01*
X171752047Y-94411378D01*
X171752047Y-94411376D01*
X171758449Y-94351843D01*
X171758450Y-94351826D01*
X171758450Y-94299999D01*
X171517241Y-94299999D01*
X171473908Y-94292181D01*
X171365932Y-94251908D01*
X171365933Y-94251908D01*
X171306333Y-94245501D01*
X171306331Y-94245500D01*
X171306323Y-94245500D01*
X171306315Y-94245500D01*
X170232679Y-94245500D01*
X170232673Y-94245501D01*
X170173066Y-94251908D01*
X170065092Y-94292181D01*
X170021759Y-94299999D01*
X169780550Y-94299999D01*
X169780550Y-94351843D01*
X169786951Y-94411371D01*
X169786953Y-94411378D01*
X169812902Y-94480951D01*
X169814259Y-94499938D01*
X169820556Y-94517904D01*
X169817741Y-94548629D01*
X169817886Y-94550643D01*
X169817408Y-94552268D01*
X169817337Y-94553051D01*
X169815565Y-94560478D01*
X169786459Y-94638517D01*
X169780050Y-94698127D01*
X169154448Y-94698127D01*
X169149255Y-94647301D01*
X169094108Y-94480879D01*
X169094106Y-94480874D01*
X169002065Y-94331653D01*
X168878094Y-94207682D01*
X168878091Y-94207680D01*
X168875089Y-94205828D01*
X168873463Y-94204020D01*
X168872427Y-94203201D01*
X168872567Y-94203023D01*
X168828367Y-94153879D01*
X168817147Y-94084916D01*
X168844993Y-94020835D01*
X168855907Y-94009340D01*
X168864786Y-94001111D01*
X168878406Y-93992711D01*
X168935964Y-93935152D01*
X168937697Y-93933547D01*
X168966947Y-93918990D01*
X168995622Y-93903333D01*
X168999178Y-93902950D01*
X169000249Y-93902418D01*
X169002169Y-93902629D01*
X169021980Y-93900499D01*
X170793419Y-93900499D01*
X170938407Y-93871658D01*
X170938407Y-93871657D01*
X170938412Y-93871657D01*
X170957052Y-93863935D01*
X171004505Y-93854497D01*
X171306321Y-93854497D01*
X171306322Y-93854497D01*
X171365933Y-93848089D01*
X171473908Y-93807817D01*
X171517241Y-93799999D01*
X171758450Y-93799999D01*
X171758450Y-93748171D01*
X171758449Y-93748154D01*
X171752048Y-93688626D01*
X171752047Y-93688622D01*
X171726097Y-93619047D01*
X171721113Y-93549355D01*
X171726098Y-93532379D01*
X171752538Y-93461489D01*
X171752539Y-93461486D01*
X171752538Y-93461486D01*
X171752541Y-93461481D01*
X171758950Y-93401871D01*
X171758949Y-92798126D01*
X171752541Y-92738515D01*
X171738255Y-92700213D01*
X171702247Y-92603669D01*
X171702243Y-92603662D01*
X171615997Y-92488453D01*
X171615994Y-92488450D01*
X171500785Y-92402204D01*
X171500778Y-92402200D01*
X171365932Y-92351906D01*
X171365933Y-92351906D01*
X171306333Y-92345499D01*
X171306331Y-92345498D01*
X171306323Y-92345498D01*
X171306314Y-92345498D01*
X170232679Y-92345498D01*
X170232673Y-92345499D01*
X170173066Y-92351906D01*
X170066427Y-92391681D01*
X170023094Y-92399499D01*
X169021980Y-92399499D01*
X168954941Y-92379814D01*
X168934299Y-92363180D01*
X168878407Y-92307288D01*
X168878406Y-92307287D01*
X168755731Y-92231621D01*
X168729086Y-92215186D01*
X168729081Y-92215184D01*
X168562548Y-92160000D01*
X168562534Y-92159997D01*
X168560559Y-92159796D01*
X168559419Y-92159330D01*
X168555922Y-92158582D01*
X168556055Y-92157958D01*
X168537780Y-92150500D01*
X168513741Y-92145271D01*
X168500288Y-92135200D01*
X168495869Y-92133397D01*
X168485487Y-92124120D01*
X168413166Y-92051799D01*
X167646071Y-91284703D01*
X167619191Y-91244475D01*
X167609394Y-91220821D01*
X167578521Y-91174616D01*
X167521789Y-91089710D01*
X167410292Y-90978213D01*
X167410288Y-90978210D01*
X167279185Y-90890609D01*
X167279172Y-90890602D01*
X167133501Y-90830264D01*
X167133489Y-90830261D01*
X166978845Y-90799500D01*
X166978842Y-90799500D01*
X166821158Y-90799500D01*
X166821155Y-90799500D01*
X166666511Y-90830260D01*
X166666506Y-90830262D01*
X166666504Y-90830262D01*
X166666503Y-90830263D01*
X166642844Y-90840062D01*
X166595396Y-90849500D01*
X165926080Y-90849500D01*
X165781092Y-90878340D01*
X165781082Y-90878343D01*
X165644511Y-90934912D01*
X165644499Y-90934919D01*
X165605554Y-90960942D01*
X165605553Y-90960943D01*
X165521582Y-91017049D01*
X164855404Y-91683227D01*
X164794081Y-91716712D01*
X164724389Y-91711728D01*
X164668456Y-91669856D01*
X164644039Y-91604392D01*
X164649792Y-91557228D01*
X164716757Y-91351130D01*
X164716757Y-91351127D01*
X164750000Y-91141246D01*
X164750000Y-90928753D01*
X164716757Y-90718872D01*
X164716757Y-90718869D01*
X164651095Y-90516782D01*
X164554624Y-90327449D01*
X164515270Y-90273282D01*
X164515269Y-90273282D01*
X163882962Y-90905590D01*
X163865925Y-90842007D01*
X163800099Y-90727993D01*
X163707007Y-90634901D01*
X163592993Y-90569075D01*
X163529409Y-90552037D01*
X164161716Y-89919728D01*
X164107550Y-89880375D01*
X164097954Y-89875486D01*
X164047157Y-89827512D01*
X164030361Y-89759692D01*
X164052897Y-89693556D01*
X164097954Y-89654514D01*
X164107554Y-89649622D01*
X164161716Y-89610270D01*
X164161717Y-89610270D01*
X163529408Y-88977962D01*
X163592993Y-88960925D01*
X163707007Y-88895099D01*
X163800099Y-88802007D01*
X163865925Y-88687993D01*
X163882962Y-88624408D01*
X164515270Y-89256717D01*
X164515270Y-89256716D01*
X164554622Y-89202554D01*
X164651095Y-89013217D01*
X164716757Y-88811130D01*
X164716757Y-88811127D01*
X164750000Y-88601246D01*
X164750000Y-88388753D01*
X164716757Y-88178872D01*
X164716757Y-88178869D01*
X164711542Y-88162819D01*
X164710738Y-88134700D01*
X164706735Y-88106855D01*
X164709754Y-88100242D01*
X164709547Y-88092978D01*
X164724072Y-88068889D01*
X164735759Y-88043299D01*
X164741873Y-88039369D01*
X164745627Y-88033145D01*
X164770871Y-88020732D01*
X164794537Y-88005524D01*
X164804809Y-88004047D01*
X164808328Y-88002317D01*
X164829472Y-88000501D01*
X164924058Y-88000501D01*
X164924061Y-88000500D01*
X164931669Y-88000500D01*
X165383285Y-88000500D01*
X165450324Y-88020185D01*
G37*
G04 #@! TD.AperFunction*
G04 #@! TA.AperFunction,Conductor*
G36*
X174366942Y-86520185D02*
G01*
X174387584Y-86536819D01*
X174563181Y-86712416D01*
X174596666Y-86773739D01*
X174599500Y-86800097D01*
X174599500Y-88650902D01*
X174579815Y-88717941D01*
X174527011Y-88763696D01*
X174457853Y-88773640D01*
X174394297Y-88744615D01*
X174387819Y-88738583D01*
X174187590Y-88538355D01*
X174187588Y-88538352D01*
X174068717Y-88419481D01*
X174068709Y-88419475D01*
X173980789Y-88368715D01*
X173980788Y-88368715D01*
X173960077Y-88356757D01*
X173931785Y-88340423D01*
X173779057Y-88299499D01*
X173620943Y-88299499D01*
X173613347Y-88299499D01*
X173613331Y-88299500D01*
X172885299Y-88299500D01*
X172818260Y-88279815D01*
X172772505Y-88227011D01*
X172762561Y-88157853D01*
X172779182Y-88111350D01*
X172868019Y-87964395D01*
X172918590Y-87802106D01*
X172925000Y-87731572D01*
X172925000Y-87650000D01*
X172149000Y-87650000D01*
X172081961Y-87630315D01*
X172036206Y-87577511D01*
X172025000Y-87526000D01*
X172025000Y-87274000D01*
X172044685Y-87206961D01*
X172097489Y-87161206D01*
X172149000Y-87150000D01*
X172924999Y-87150000D01*
X172924999Y-87068417D01*
X172918591Y-86997897D01*
X172918590Y-86997892D01*
X172868018Y-86835603D01*
X172781471Y-86692436D01*
X172780112Y-86687291D01*
X172776501Y-86683384D01*
X172771286Y-86653861D01*
X172763635Y-86624881D01*
X172765273Y-86619819D01*
X172764348Y-86614579D01*
X172775922Y-86586922D01*
X172785153Y-86558408D01*
X172789267Y-86555035D01*
X172791322Y-86550127D01*
X172816010Y-86533119D01*
X172839193Y-86514120D01*
X172845650Y-86512699D01*
X172848860Y-86510489D01*
X172874041Y-86506455D01*
X172883616Y-86504350D01*
X172885613Y-86504286D01*
X172975272Y-86504286D01*
X172987451Y-86501022D01*
X173001754Y-86500564D01*
X173002928Y-86500868D01*
X173005726Y-86500500D01*
X174299903Y-86500500D01*
X174366942Y-86520185D01*
G37*
G04 #@! TD.AperFunction*
G04 #@! TA.AperFunction,Conductor*
G36*
X173316942Y-83620185D02*
G01*
X173337584Y-83636819D01*
X173533575Y-83832810D01*
X173538066Y-83837543D01*
X173546774Y-83847219D01*
X173568480Y-83884816D01*
X173680284Y-83996620D01*
X173680286Y-83996621D01*
X173689669Y-84006004D01*
X174771483Y-85087818D01*
X174804968Y-85149141D01*
X174799984Y-85218833D01*
X174758112Y-85274766D01*
X174692648Y-85299183D01*
X174683802Y-85299499D01*
X174513347Y-85299499D01*
X174513331Y-85299500D01*
X172986668Y-85299500D01*
X172979061Y-85299499D01*
X172979058Y-85299499D01*
X172920750Y-85299499D01*
X172881380Y-85287938D01*
X172853713Y-85279814D01*
X172853712Y-85279813D01*
X172853711Y-85279813D01*
X172807957Y-85227009D01*
X172798014Y-85157850D01*
X172798017Y-85157842D01*
X172814635Y-85111349D01*
X172843019Y-85064395D01*
X172893590Y-84902106D01*
X172900000Y-84831572D01*
X172900000Y-84750000D01*
X172124000Y-84750000D01*
X172056961Y-84730315D01*
X172011206Y-84677511D01*
X172000000Y-84626000D01*
X172000000Y-84374000D01*
X172019685Y-84306961D01*
X172072489Y-84261206D01*
X172124000Y-84250000D01*
X172899999Y-84250000D01*
X172899999Y-84168417D01*
X172893591Y-84097897D01*
X172893590Y-84097892D01*
X172843018Y-83935603D01*
X172754182Y-83788650D01*
X172736346Y-83721096D01*
X172757863Y-83654622D01*
X172811904Y-83610334D01*
X172860299Y-83600500D01*
X173249903Y-83600500D01*
X173316942Y-83620185D01*
G37*
G04 #@! TD.AperFunction*
G04 #@! TA.AperFunction,Conductor*
G36*
X173266942Y-80820185D02*
G01*
X173287584Y-80836819D01*
X173813181Y-81362416D01*
X173846666Y-81423739D01*
X173849500Y-81450097D01*
X173849500Y-82296967D01*
X173829815Y-82364006D01*
X173777011Y-82409761D01*
X173707853Y-82419705D01*
X173693413Y-82416743D01*
X173629057Y-82399499D01*
X173470943Y-82399499D01*
X173463347Y-82399499D01*
X173463331Y-82399500D01*
X172945752Y-82399500D01*
X172878713Y-82379815D01*
X172832958Y-82327011D01*
X172823014Y-82257853D01*
X172839635Y-82211351D01*
X172868017Y-82164400D01*
X172868019Y-82164396D01*
X172918590Y-82002106D01*
X172925000Y-81931572D01*
X172925000Y-81850000D01*
X172149000Y-81850000D01*
X172081961Y-81830315D01*
X172036206Y-81777511D01*
X172025000Y-81726000D01*
X172025000Y-81474000D01*
X172044685Y-81406961D01*
X172097489Y-81361206D01*
X172149000Y-81350000D01*
X172924999Y-81350000D01*
X172924999Y-81268417D01*
X172918591Y-81197897D01*
X172918590Y-81197892D01*
X172868018Y-81035601D01*
X172868017Y-81035599D01*
X172839635Y-80988649D01*
X172821799Y-80921095D01*
X172843317Y-80854621D01*
X172897358Y-80810334D01*
X172945752Y-80800500D01*
X173199903Y-80800500D01*
X173266942Y-80820185D01*
G37*
G04 #@! TD.AperFunction*
G04 #@! TA.AperFunction,Conductor*
G36*
X174216942Y-77720185D02*
G01*
X174237584Y-77736819D01*
X174613181Y-78112416D01*
X174646666Y-78173739D01*
X174649500Y-78200097D01*
X174649500Y-80200903D01*
X174629815Y-80267942D01*
X174577011Y-80313697D01*
X174507853Y-80323641D01*
X174444297Y-80294616D01*
X174437819Y-80288584D01*
X173987590Y-79838355D01*
X173987588Y-79838352D01*
X173868717Y-79719481D01*
X173868716Y-79719480D01*
X173776956Y-79666503D01*
X173776955Y-79666502D01*
X173731783Y-79640422D01*
X173649886Y-79618478D01*
X173579057Y-79599499D01*
X173420943Y-79599499D01*
X173413347Y-79599499D01*
X173413331Y-79599500D01*
X172885299Y-79599500D01*
X172818260Y-79579815D01*
X172772505Y-79527011D01*
X172762561Y-79457853D01*
X172779182Y-79411350D01*
X172868019Y-79264395D01*
X172918590Y-79102106D01*
X172925000Y-79031572D01*
X172925000Y-78950000D01*
X172149000Y-78950000D01*
X172081961Y-78930315D01*
X172036206Y-78877511D01*
X172025000Y-78826000D01*
X172025000Y-78574000D01*
X172044685Y-78506961D01*
X172097489Y-78461206D01*
X172149000Y-78450000D01*
X172924999Y-78450000D01*
X172924999Y-78368417D01*
X172918591Y-78297897D01*
X172918590Y-78297892D01*
X172868018Y-78135603D01*
X172780072Y-77990122D01*
X172702131Y-77912181D01*
X172668646Y-77850858D01*
X172673630Y-77781166D01*
X172715502Y-77725233D01*
X172780966Y-77700816D01*
X172789812Y-77700500D01*
X174149903Y-77700500D01*
X174216942Y-77720185D01*
G37*
G04 #@! TD.AperFunction*
G04 #@! TA.AperFunction,Conductor*
G36*
X174966942Y-75020185D02*
G01*
X174987584Y-75036819D01*
X175363181Y-75412416D01*
X175396666Y-75473739D01*
X175399500Y-75500097D01*
X175399500Y-76900903D01*
X175379815Y-76967942D01*
X175327011Y-77013697D01*
X175257853Y-77023641D01*
X175194297Y-76994616D01*
X175187819Y-76988584D01*
X174937590Y-76738355D01*
X174937588Y-76738352D01*
X174818717Y-76619481D01*
X174818716Y-76619480D01*
X174731904Y-76569360D01*
X174731904Y-76569359D01*
X174731900Y-76569358D01*
X174681785Y-76540423D01*
X174529057Y-76499499D01*
X174370943Y-76499499D01*
X174363347Y-76499499D01*
X174363331Y-76499500D01*
X173019440Y-76499500D01*
X172952401Y-76479815D01*
X172906646Y-76427011D01*
X172896702Y-76357853D01*
X172901054Y-76338610D01*
X172943591Y-76202101D01*
X172950000Y-76131572D01*
X172950000Y-76050000D01*
X172174000Y-76050000D01*
X172106961Y-76030315D01*
X172061206Y-75977511D01*
X172050000Y-75926000D01*
X172050000Y-75674000D01*
X172069685Y-75606961D01*
X172122489Y-75561206D01*
X172174000Y-75550000D01*
X172949999Y-75550000D01*
X172949999Y-75468417D01*
X172943591Y-75397897D01*
X172943590Y-75397892D01*
X172893018Y-75235601D01*
X172893017Y-75235599D01*
X172864635Y-75188649D01*
X172846799Y-75121095D01*
X172868317Y-75054621D01*
X172922358Y-75010334D01*
X172970752Y-75000500D01*
X174899903Y-75000500D01*
X174966942Y-75020185D01*
G37*
G04 #@! TD.AperFunction*
G04 #@! TA.AperFunction,Conductor*
G36*
X174716942Y-72120185D02*
G01*
X174737584Y-72136819D01*
X176213181Y-73612416D01*
X176246666Y-73673739D01*
X176249500Y-73700097D01*
X176249500Y-74300903D01*
X176229815Y-74367942D01*
X176177011Y-74413697D01*
X176107853Y-74423641D01*
X176044297Y-74394616D01*
X176037819Y-74388584D01*
X175687590Y-74038355D01*
X175687588Y-74038352D01*
X175568717Y-73919481D01*
X175568709Y-73919475D01*
X175465649Y-73859974D01*
X175465646Y-73859973D01*
X175431787Y-73840424D01*
X175431786Y-73840423D01*
X175431785Y-73840423D01*
X175279057Y-73799499D01*
X175120943Y-73799499D01*
X175113347Y-73799499D01*
X175113331Y-73799500D01*
X172987503Y-73799500D01*
X172920464Y-73779815D01*
X172874709Y-73727011D01*
X172864765Y-73657853D01*
X172881386Y-73611350D01*
X172943019Y-73509396D01*
X172993590Y-73347106D01*
X173000000Y-73276572D01*
X173000000Y-73195000D01*
X172224000Y-73195000D01*
X172156961Y-73175315D01*
X172111206Y-73122511D01*
X172100000Y-73071000D01*
X172100000Y-72819000D01*
X172119685Y-72751961D01*
X172172489Y-72706206D01*
X172224000Y-72695000D01*
X172999999Y-72695000D01*
X172999999Y-72613417D01*
X172993591Y-72542897D01*
X172993590Y-72542892D01*
X172943018Y-72380603D01*
X172887431Y-72288650D01*
X172869595Y-72221095D01*
X172891113Y-72154622D01*
X172945153Y-72110334D01*
X172993548Y-72100500D01*
X174649903Y-72100500D01*
X174716942Y-72120185D01*
G37*
G04 #@! TD.AperFunction*
G04 #@! TA.AperFunction,Conductor*
G36*
X174066942Y-69220185D02*
G01*
X174087584Y-69236819D01*
X177113181Y-72262416D01*
X177127884Y-72289343D01*
X177144477Y-72315162D01*
X177145368Y-72321362D01*
X177146666Y-72323739D01*
X177149500Y-72350097D01*
X177149500Y-72550902D01*
X177129815Y-72617941D01*
X177077011Y-72663696D01*
X177007853Y-72673640D01*
X176944297Y-72644615D01*
X176937819Y-72638583D01*
X175437590Y-71138355D01*
X175437588Y-71138352D01*
X175318717Y-71019481D01*
X175318709Y-71019475D01*
X175230796Y-70968719D01*
X175230795Y-70968719D01*
X175181785Y-70940423D01*
X175029057Y-70899499D01*
X174870943Y-70899499D01*
X174863347Y-70899499D01*
X174863331Y-70899500D01*
X173012503Y-70899500D01*
X172945464Y-70879815D01*
X172899709Y-70827011D01*
X172889765Y-70757853D01*
X172906386Y-70711350D01*
X172968019Y-70609396D01*
X173018590Y-70447106D01*
X173025000Y-70376572D01*
X173025000Y-70295000D01*
X172249000Y-70295000D01*
X172181961Y-70275315D01*
X172136206Y-70222511D01*
X172125000Y-70171000D01*
X172125000Y-69919000D01*
X172144685Y-69851961D01*
X172197489Y-69806206D01*
X172249000Y-69795000D01*
X173024999Y-69795000D01*
X173024999Y-69713417D01*
X173018591Y-69642897D01*
X173018590Y-69642892D01*
X172968018Y-69480603D01*
X172912431Y-69388650D01*
X172894595Y-69321095D01*
X172916113Y-69254622D01*
X172970153Y-69210334D01*
X173018548Y-69200500D01*
X173999903Y-69200500D01*
X174066942Y-69220185D01*
G37*
G04 #@! TD.AperFunction*
G04 #@! TA.AperFunction,Conductor*
G36*
X195003736Y-65200726D02*
G01*
X195293796Y-65218271D01*
X195308659Y-65220076D01*
X195590798Y-65271780D01*
X195605335Y-65275363D01*
X195879172Y-65360695D01*
X195893163Y-65366000D01*
X196154743Y-65483727D01*
X196167989Y-65490680D01*
X196413465Y-65639075D01*
X196425776Y-65647573D01*
X196651573Y-65824473D01*
X196662781Y-65834403D01*
X196865596Y-66037218D01*
X196875526Y-66048426D01*
X196995481Y-66201538D01*
X197052422Y-66274217D01*
X197060926Y-66286537D01*
X197153810Y-66440186D01*
X197209316Y-66532004D01*
X197216275Y-66545263D01*
X197333997Y-66806831D01*
X197339306Y-66820832D01*
X197424635Y-67094663D01*
X197428219Y-67109201D01*
X197479923Y-67391340D01*
X197481728Y-67406205D01*
X197499274Y-67696263D01*
X197499500Y-67703750D01*
X197499500Y-120196249D01*
X197499274Y-120203736D01*
X197481728Y-120493794D01*
X197479923Y-120508659D01*
X197428219Y-120790798D01*
X197424635Y-120805336D01*
X197339306Y-121079167D01*
X197333997Y-121093168D01*
X197216275Y-121354736D01*
X197209316Y-121367995D01*
X197060928Y-121613459D01*
X197052422Y-121625782D01*
X196875526Y-121851573D01*
X196865596Y-121862781D01*
X196662781Y-122065596D01*
X196651573Y-122075526D01*
X196425782Y-122252422D01*
X196413459Y-122260928D01*
X196167995Y-122409316D01*
X196154736Y-122416275D01*
X195893168Y-122533997D01*
X195879167Y-122539306D01*
X195605336Y-122624635D01*
X195590798Y-122628219D01*
X195308659Y-122679923D01*
X195293794Y-122681728D01*
X195003736Y-122699274D01*
X194996249Y-122699500D01*
X163003751Y-122699500D01*
X162996264Y-122699274D01*
X162706205Y-122681728D01*
X162691340Y-122679923D01*
X162409201Y-122628219D01*
X162394663Y-122624635D01*
X162120832Y-122539306D01*
X162106831Y-122533997D01*
X161845263Y-122416275D01*
X161832004Y-122409316D01*
X161586540Y-122260928D01*
X161574217Y-122252422D01*
X161348426Y-122075526D01*
X161337218Y-122065596D01*
X161134403Y-121862781D01*
X161124473Y-121851573D01*
X160947573Y-121625776D01*
X160939075Y-121613465D01*
X160790680Y-121367989D01*
X160783727Y-121354743D01*
X160666000Y-121093163D01*
X160660693Y-121079167D01*
X160575364Y-120805336D01*
X160571780Y-120790798D01*
X160520076Y-120508659D01*
X160518271Y-120493794D01*
X160500726Y-120203736D01*
X160500500Y-120196249D01*
X160500500Y-118293713D01*
X169049500Y-118293713D01*
X169049500Y-118506286D01*
X169082753Y-118716239D01*
X169082753Y-118716241D01*
X169082754Y-118716243D01*
X169144503Y-118906287D01*
X169148444Y-118918414D01*
X169244951Y-119107820D01*
X169369890Y-119279786D01*
X169520213Y-119430109D01*
X169692179Y-119555048D01*
X169692181Y-119555049D01*
X169692184Y-119555051D01*
X169881588Y-119651557D01*
X170083757Y-119717246D01*
X170293713Y-119750500D01*
X170293714Y-119750500D01*
X170506286Y-119750500D01*
X170506287Y-119750500D01*
X170716243Y-119717246D01*
X170918412Y-119651557D01*
X171107816Y-119555051D01*
X171129789Y-119539086D01*
X171279786Y-119430109D01*
X171279788Y-119430106D01*
X171279792Y-119430104D01*
X171430104Y-119279792D01*
X171430106Y-119279788D01*
X171430109Y-119279786D01*
X171555048Y-119107820D01*
X171555047Y-119107820D01*
X171555051Y-119107816D01*
X171651557Y-118918412D01*
X171717246Y-118716243D01*
X171720814Y-118693713D01*
X192749500Y-118693713D01*
X192749500Y-118906287D01*
X192751421Y-118918414D01*
X192782753Y-119116239D01*
X192848444Y-119318414D01*
X192944951Y-119507820D01*
X193069890Y-119679786D01*
X193220213Y-119830109D01*
X193392179Y-119955048D01*
X193392181Y-119955049D01*
X193392184Y-119955051D01*
X193581588Y-120051557D01*
X193783757Y-120117246D01*
X193993713Y-120150500D01*
X193993714Y-120150500D01*
X194206286Y-120150500D01*
X194206287Y-120150500D01*
X194416243Y-120117246D01*
X194618412Y-120051557D01*
X194807816Y-119955051D01*
X194829789Y-119939086D01*
X194979786Y-119830109D01*
X194979788Y-119830106D01*
X194979792Y-119830104D01*
X195130104Y-119679792D01*
X195130106Y-119679788D01*
X195130109Y-119679786D01*
X195255048Y-119507820D01*
X195255047Y-119507820D01*
X195255051Y-119507816D01*
X195351557Y-119318412D01*
X195417246Y-119116243D01*
X195450500Y-118906287D01*
X195450500Y-118693713D01*
X195417246Y-118483757D01*
X195351557Y-118281588D01*
X195255051Y-118092184D01*
X195255049Y-118092181D01*
X195255048Y-118092179D01*
X195130109Y-117920213D01*
X194979786Y-117769890D01*
X194807820Y-117644951D01*
X194618414Y-117548444D01*
X194618413Y-117548443D01*
X194618412Y-117548443D01*
X194416243Y-117482754D01*
X194416241Y-117482753D01*
X194416240Y-117482753D01*
X194254957Y-117457208D01*
X194206287Y-117449500D01*
X193993713Y-117449500D01*
X193945042Y-117457208D01*
X193783760Y-117482753D01*
X193581585Y-117548444D01*
X193392179Y-117644951D01*
X193220213Y-117769890D01*
X193069890Y-117920213D01*
X192944951Y-118092179D01*
X192848444Y-118281585D01*
X192782753Y-118483760D01*
X192753344Y-118669441D01*
X192749500Y-118693713D01*
X171720814Y-118693713D01*
X171750500Y-118506287D01*
X171750500Y-118293713D01*
X171717246Y-118083757D01*
X171651557Y-117881588D01*
X171555051Y-117692184D01*
X171555049Y-117692181D01*
X171555048Y-117692179D01*
X171430109Y-117520213D01*
X171279786Y-117369890D01*
X171107820Y-117244951D01*
X170918414Y-117148444D01*
X170918413Y-117148443D01*
X170918412Y-117148443D01*
X170716243Y-117082754D01*
X170716241Y-117082753D01*
X170716240Y-117082753D01*
X170554957Y-117057208D01*
X170506287Y-117049500D01*
X170293713Y-117049500D01*
X170245042Y-117057208D01*
X170083760Y-117082753D01*
X169881585Y-117148444D01*
X169692179Y-117244951D01*
X169520213Y-117369890D01*
X169369890Y-117520213D01*
X169244951Y-117692179D01*
X169148444Y-117881585D01*
X169082753Y-118083760D01*
X169049500Y-118293713D01*
X160500500Y-118293713D01*
X160500500Y-67703750D01*
X160500726Y-67696263D01*
X160515222Y-67456616D01*
X160518271Y-67406201D01*
X160520076Y-67391340D01*
X160520481Y-67389131D01*
X160541005Y-67277135D01*
X162049500Y-67277135D01*
X162049500Y-69072870D01*
X162049501Y-69072876D01*
X162055908Y-69132483D01*
X162106202Y-69267328D01*
X162106206Y-69267335D01*
X162192452Y-69382544D01*
X162192455Y-69382547D01*
X162307664Y-69468793D01*
X162307671Y-69468797D01*
X162439082Y-69517810D01*
X162495016Y-69559681D01*
X162519433Y-69625145D01*
X162504582Y-69693418D01*
X162483431Y-69721673D01*
X162369889Y-69835215D01*
X162244951Y-70007179D01*
X162148444Y-70196585D01*
X162082753Y-70398760D01*
X162068806Y-70486819D01*
X162049500Y-70608713D01*
X162049500Y-70821287D01*
X162058082Y-70875469D01*
X162080036Y-71014086D01*
X162082754Y-71031243D01*
X162133554Y-71187590D01*
X162148444Y-71233414D01*
X162244951Y-71422820D01*
X162369890Y-71594786D01*
X162520213Y-71745109D01*
X162692182Y-71870050D01*
X162700946Y-71874516D01*
X162751742Y-71922491D01*
X162768536Y-71990312D01*
X162745998Y-72056447D01*
X162700946Y-72095484D01*
X162692182Y-72099949D01*
X162520213Y-72224890D01*
X162369890Y-72375213D01*
X162244951Y-72547179D01*
X162148444Y-72736585D01*
X162082753Y-72938760D01*
X162049500Y-73148713D01*
X162049500Y-73361286D01*
X162074440Y-73518755D01*
X162082754Y-73571243D01*
X162133366Y-73727011D01*
X162148444Y-73773414D01*
X162244951Y-73962820D01*
X162369890Y-74134786D01*
X162520213Y-74285109D01*
X162692182Y-74410050D01*
X162700946Y-74414516D01*
X162751742Y-74462491D01*
X162768536Y-74530312D01*
X162745998Y-74596447D01*
X162700946Y-74635484D01*
X162692182Y-74639949D01*
X162520213Y-74764890D01*
X162369890Y-74915213D01*
X162244951Y-75087179D01*
X162148444Y-75276585D01*
X162148443Y-75276587D01*
X162148443Y-75276588D01*
X162125746Y-75346442D01*
X162082753Y-75478760D01*
X162079374Y-75500097D01*
X162049500Y-75688713D01*
X162049500Y-75901287D01*
X162050921Y-75910256D01*
X162070825Y-76035931D01*
X162082754Y-76111243D01*
X162089359Y-76131572D01*
X162148444Y-76313414D01*
X162244951Y-76502820D01*
X162369890Y-76674786D01*
X162520213Y-76825109D01*
X162692182Y-76950050D01*
X162700946Y-76954516D01*
X162751742Y-77002491D01*
X162768536Y-77070312D01*
X162745998Y-77136447D01*
X162700946Y-77175484D01*
X162692182Y-77179949D01*
X162520213Y-77304890D01*
X162369890Y-77455213D01*
X162244951Y-77627179D01*
X162148444Y-77816585D01*
X162082753Y-78018760D01*
X162064280Y-78135394D01*
X162049500Y-78228713D01*
X162049500Y-78441287D01*
X162082754Y-78651243D01*
X162139536Y-78826000D01*
X162148444Y-78853414D01*
X162244951Y-79042820D01*
X162369890Y-79214786D01*
X162520213Y-79365109D01*
X162692182Y-79490050D01*
X162700946Y-79494516D01*
X162751742Y-79542491D01*
X162768536Y-79610312D01*
X162745998Y-79676447D01*
X162700946Y-79715484D01*
X162692182Y-79719949D01*
X162520213Y-79844890D01*
X162369890Y-79995213D01*
X162244951Y-80167179D01*
X162148444Y-80356585D01*
X162082753Y-80558760D01*
X162063468Y-80680520D01*
X162049500Y-80768713D01*
X162049500Y-80981287D01*
X162058070Y-81035394D01*
X162081468Y-81183127D01*
X162082754Y-81191243D01*
X162135562Y-81353770D01*
X162148444Y-81393414D01*
X162244951Y-81582820D01*
X162369890Y-81754786D01*
X162520213Y-81905109D01*
X162692182Y-82030050D01*
X162700946Y-82034516D01*
X162751742Y-82082491D01*
X162768536Y-82150312D01*
X162745998Y-82216447D01*
X162700946Y-82255484D01*
X162692182Y-82259949D01*
X162520213Y-82384890D01*
X162369890Y-82535213D01*
X162244951Y-82707179D01*
X162148444Y-82896585D01*
X162082753Y-83098760D01*
X162049500Y-83308713D01*
X162049500Y-83521286D01*
X162082753Y-83731239D01*
X162082753Y-83731241D01*
X162082754Y-83731243D01*
X162145233Y-83923534D01*
X162148444Y-83933414D01*
X162244951Y-84122820D01*
X162369890Y-84294786D01*
X162520213Y-84445109D01*
X162692182Y-84570050D01*
X162700946Y-84574516D01*
X162751742Y-84622491D01*
X162768536Y-84690312D01*
X162745998Y-84756447D01*
X162700946Y-84795484D01*
X162692182Y-84799949D01*
X162520213Y-84924890D01*
X162369890Y-85075213D01*
X162244951Y-85247179D01*
X162148444Y-85436585D01*
X162082753Y-85638760D01*
X162049500Y-85848713D01*
X162049500Y-86061286D01*
X162082753Y-86271239D01*
X162082753Y-86271241D01*
X162082754Y-86271243D01*
X162140618Y-86449330D01*
X162148444Y-86473414D01*
X162244951Y-86662820D01*
X162369890Y-86834786D01*
X162520213Y-86985109D01*
X162692179Y-87110048D01*
X162692181Y-87110049D01*
X162692184Y-87110051D01*
X162701493Y-87114794D01*
X162752290Y-87162766D01*
X162769087Y-87230587D01*
X162746552Y-87296722D01*
X162701505Y-87335760D01*
X162692446Y-87340376D01*
X162692440Y-87340380D01*
X162638282Y-87379727D01*
X162638282Y-87379728D01*
X163270591Y-88012037D01*
X163207007Y-88029075D01*
X163092993Y-88094901D01*
X162999901Y-88187993D01*
X162934075Y-88302007D01*
X162917037Y-88365591D01*
X162284728Y-87733282D01*
X162284727Y-87733282D01*
X162245380Y-87787439D01*
X162148904Y-87976782D01*
X162083242Y-88178869D01*
X162083242Y-88178872D01*
X162050000Y-88388753D01*
X162050000Y-88601246D01*
X162083242Y-88811127D01*
X162083242Y-88811130D01*
X162148904Y-89013217D01*
X162245375Y-89202550D01*
X162284728Y-89256716D01*
X162917037Y-88624408D01*
X162934075Y-88687993D01*
X162999901Y-88802007D01*
X163092993Y-88895099D01*
X163207007Y-88960925D01*
X163270591Y-88977962D01*
X162669971Y-89578581D01*
X162748711Y-89695895D01*
X162749920Y-89699729D01*
X162752844Y-89702491D01*
X162760343Y-89732778D01*
X162769727Y-89762529D01*
X162768671Y-89766408D01*
X162769638Y-89770312D01*
X162759573Y-89799844D01*
X162751383Y-89829947D01*
X162748397Y-89832640D01*
X162747100Y-89836447D01*
X162702051Y-89875483D01*
X162692440Y-89880380D01*
X162638282Y-89919727D01*
X162638282Y-89919728D01*
X163270591Y-90552037D01*
X163207007Y-90569075D01*
X163092993Y-90634901D01*
X162999901Y-90727993D01*
X162934075Y-90842007D01*
X162917037Y-90905591D01*
X162284728Y-90273282D01*
X162284727Y-90273282D01*
X162245380Y-90327439D01*
X162148904Y-90516782D01*
X162083242Y-90718869D01*
X162083242Y-90718872D01*
X162050000Y-90928753D01*
X162050000Y-91141246D01*
X162083242Y-91351127D01*
X162083242Y-91351130D01*
X162148904Y-91553217D01*
X162245375Y-91742550D01*
X162284728Y-91796716D01*
X162917037Y-91164408D01*
X162934075Y-91227993D01*
X162999901Y-91342007D01*
X163092993Y-91435099D01*
X163207007Y-91500925D01*
X163270590Y-91517962D01*
X162638282Y-92150269D01*
X162638282Y-92150270D01*
X162692452Y-92189626D01*
X162692451Y-92189626D01*
X162701495Y-92194234D01*
X162752292Y-92242208D01*
X162769087Y-92310029D01*
X162746550Y-92376164D01*
X162701499Y-92415202D01*
X162692182Y-92419949D01*
X162520213Y-92544890D01*
X162369890Y-92695213D01*
X162244951Y-92867179D01*
X162148444Y-93056585D01*
X162082753Y-93258760D01*
X162057231Y-93419902D01*
X162049500Y-93468713D01*
X162049500Y-93681287D01*
X162055526Y-93719333D01*
X162079176Y-93868656D01*
X162082754Y-93891243D01*
X162146917Y-94088717D01*
X162148444Y-94093414D01*
X162244951Y-94282820D01*
X162369890Y-94454786D01*
X162520213Y-94605109D01*
X162692179Y-94730048D01*
X162692181Y-94730049D01*
X162692184Y-94730051D01*
X162701493Y-94734794D01*
X162752290Y-94782766D01*
X162769087Y-94850587D01*
X162746552Y-94916722D01*
X162701505Y-94955760D01*
X162692446Y-94960376D01*
X162692440Y-94960380D01*
X162638282Y-94999727D01*
X162638282Y-94999728D01*
X163270591Y-95632037D01*
X163207007Y-95649075D01*
X163092993Y-95714901D01*
X162999901Y-95807993D01*
X162934075Y-95922007D01*
X162917037Y-95985591D01*
X162284728Y-95353282D01*
X162284727Y-95353282D01*
X162245380Y-95407439D01*
X162148904Y-95596782D01*
X162083242Y-95798869D01*
X162083242Y-95798872D01*
X162050000Y-96008753D01*
X162050000Y-96221246D01*
X162083242Y-96431127D01*
X162083242Y-96431130D01*
X162148904Y-96633217D01*
X162245375Y-96822550D01*
X162284728Y-96876716D01*
X162917037Y-96244408D01*
X162934075Y-96307993D01*
X162999901Y-96422007D01*
X163092993Y-96515099D01*
X163207007Y-96580925D01*
X163270591Y-96597962D01*
X162669971Y-97198581D01*
X162748711Y-97315895D01*
X162749920Y-97319729D01*
X162752844Y-97322491D01*
X162760343Y-97352778D01*
X162769727Y-97382529D01*
X162768671Y-97386408D01*
X162769638Y-97390312D01*
X162759573Y-97419844D01*
X162751383Y-97449947D01*
X162748397Y-97452640D01*
X162747100Y-97456447D01*
X162702051Y-97495483D01*
X162692440Y-97500380D01*
X162638282Y-97539727D01*
X162638282Y-97539728D01*
X163270591Y-98172037D01*
X163207007Y-98189075D01*
X163092993Y-98254901D01*
X162999901Y-98347993D01*
X162934075Y-98462007D01*
X162917037Y-98525591D01*
X162284728Y-97893282D01*
X162284727Y-97893282D01*
X162245380Y-97947439D01*
X162148904Y-98136782D01*
X162083242Y-98338869D01*
X162083242Y-98338872D01*
X162050000Y-98548753D01*
X162050000Y-98761246D01*
X162083242Y-98971127D01*
X162083242Y-98971130D01*
X162148904Y-99173217D01*
X162245375Y-99362550D01*
X162284728Y-99416716D01*
X162917037Y-98784408D01*
X162934075Y-98847993D01*
X162999901Y-98962007D01*
X163092993Y-99055099D01*
X163207007Y-99120925D01*
X163270590Y-99137962D01*
X162638282Y-99770269D01*
X162638282Y-99770270D01*
X162692452Y-99809626D01*
X162692451Y-99809626D01*
X162701495Y-99814234D01*
X162752292Y-99862208D01*
X162769087Y-99930029D01*
X162746550Y-99996164D01*
X162701499Y-100035202D01*
X162692182Y-100039949D01*
X162520213Y-100164890D01*
X162369890Y-100315213D01*
X162244951Y-100487179D01*
X162148444Y-100676585D01*
X162148443Y-100676587D01*
X162148443Y-100676588D01*
X162115598Y-100777672D01*
X162082753Y-100878760D01*
X162051799Y-101074196D01*
X162049500Y-101088713D01*
X162049500Y-101301287D01*
X162052647Y-101321158D01*
X162080909Y-101499599D01*
X162082754Y-101511243D01*
X162147428Y-101710289D01*
X162148444Y-101713414D01*
X162244951Y-101902820D01*
X162369890Y-102074786D01*
X162520213Y-102225109D01*
X162692182Y-102350050D01*
X162700946Y-102354516D01*
X162751742Y-102402491D01*
X162768536Y-102470312D01*
X162745998Y-102536447D01*
X162700946Y-102575484D01*
X162692182Y-102579949D01*
X162520213Y-102704890D01*
X162369890Y-102855213D01*
X162244951Y-103027179D01*
X162148444Y-103216585D01*
X162082753Y-103418760D01*
X162071713Y-103488466D01*
X162049500Y-103628713D01*
X162049500Y-103841287D01*
X162082754Y-104051243D01*
X162131250Y-104200499D01*
X162148444Y-104253414D01*
X162244951Y-104442820D01*
X162369890Y-104614786D01*
X162520213Y-104765109D01*
X162692182Y-104890050D01*
X162700946Y-104894516D01*
X162751742Y-104942491D01*
X162768536Y-105010312D01*
X162745998Y-105076447D01*
X162700946Y-105115484D01*
X162692182Y-105119949D01*
X162520213Y-105244890D01*
X162369890Y-105395213D01*
X162244951Y-105567179D01*
X162148444Y-105756585D01*
X162082753Y-105958760D01*
X162049500Y-106168713D01*
X162049500Y-106381286D01*
X162076903Y-106554306D01*
X162082754Y-106591243D01*
X162084377Y-106596239D01*
X162148444Y-106793414D01*
X162244951Y-106982820D01*
X162369890Y-107154786D01*
X162520213Y-107305109D01*
X162692182Y-107430050D01*
X162700946Y-107434516D01*
X162751742Y-107482491D01*
X162768536Y-107550312D01*
X162745998Y-107616447D01*
X162700946Y-107655484D01*
X162692182Y-107659949D01*
X162520213Y-107784890D01*
X162369890Y-107935213D01*
X162244951Y-108107179D01*
X162148444Y-108296585D01*
X162082753Y-108498760D01*
X162049500Y-108708713D01*
X162049500Y-108921286D01*
X162076903Y-109094306D01*
X162082754Y-109131243D01*
X162136130Y-109295518D01*
X162148444Y-109333414D01*
X162244951Y-109522820D01*
X162369890Y-109694786D01*
X162520213Y-109845109D01*
X162692182Y-109970050D01*
X162700946Y-109974516D01*
X162751742Y-110022491D01*
X162768536Y-110090312D01*
X162745998Y-110156447D01*
X162700946Y-110195484D01*
X162692182Y-110199949D01*
X162520213Y-110324890D01*
X162369890Y-110475213D01*
X162244951Y-110647179D01*
X162148444Y-110836585D01*
X162082753Y-111038760D01*
X162080499Y-111052993D01*
X162049500Y-111248713D01*
X162049500Y-111461287D01*
X162056440Y-111505102D01*
X162082753Y-111671239D01*
X162082753Y-111671241D01*
X162082754Y-111671243D01*
X162144085Y-111860000D01*
X162148444Y-111873414D01*
X162244951Y-112062820D01*
X162369890Y-112234786D01*
X162520213Y-112385109D01*
X162692182Y-112510050D01*
X162700946Y-112514516D01*
X162751742Y-112562491D01*
X162768536Y-112630312D01*
X162745998Y-112696447D01*
X162700946Y-112735484D01*
X162692182Y-112739949D01*
X162520213Y-112864890D01*
X162369890Y-113015213D01*
X162244951Y-113187179D01*
X162148444Y-113376585D01*
X162082753Y-113578760D01*
X162051163Y-113778211D01*
X162049500Y-113788713D01*
X162049500Y-114001287D01*
X162052493Y-114020185D01*
X162082753Y-114211239D01*
X162082753Y-114211241D01*
X162082754Y-114211243D01*
X162117046Y-114316783D01*
X162148444Y-114413414D01*
X162244951Y-114602820D01*
X162369890Y-114774786D01*
X162520213Y-114925109D01*
X162692179Y-115050048D01*
X162692181Y-115050049D01*
X162692184Y-115050051D01*
X162701493Y-115054794D01*
X162752290Y-115102766D01*
X162769087Y-115170587D01*
X162746552Y-115236722D01*
X162701505Y-115275760D01*
X162692446Y-115280376D01*
X162692440Y-115280380D01*
X162638282Y-115319727D01*
X162638282Y-115319728D01*
X163270591Y-115952037D01*
X163207007Y-115969075D01*
X163092993Y-116034901D01*
X162999901Y-116127993D01*
X162934075Y-116242007D01*
X162917037Y-116305591D01*
X162284728Y-115673282D01*
X162284727Y-115673282D01*
X162245380Y-115727439D01*
X162148904Y-115916782D01*
X162083242Y-116118869D01*
X162083242Y-116118872D01*
X162050000Y-116328753D01*
X162050000Y-116541246D01*
X162083242Y-116751127D01*
X162083242Y-116751130D01*
X162148904Y-116953217D01*
X162245375Y-117142550D01*
X162284728Y-117196716D01*
X162917037Y-116564408D01*
X162934075Y-116627993D01*
X162999901Y-116742007D01*
X163092993Y-116835099D01*
X163207007Y-116900925D01*
X163270590Y-116917962D01*
X162638282Y-117550269D01*
X162638282Y-117550270D01*
X162692449Y-117589624D01*
X162881782Y-117686095D01*
X163083870Y-117751757D01*
X163293754Y-117785000D01*
X163506246Y-117785000D01*
X163716127Y-117751757D01*
X163716130Y-117751757D01*
X163918217Y-117686095D01*
X164107554Y-117589622D01*
X164161716Y-117550270D01*
X164161717Y-117550270D01*
X163529408Y-116917962D01*
X163592993Y-116900925D01*
X163707007Y-116835099D01*
X163800099Y-116742007D01*
X163865925Y-116627993D01*
X163882962Y-116564408D01*
X164515270Y-117196717D01*
X164515270Y-117196716D01*
X164554622Y-117142554D01*
X164651095Y-116953217D01*
X164716757Y-116751130D01*
X164716757Y-116751127D01*
X164750000Y-116541246D01*
X164750000Y-116328753D01*
X164716757Y-116118872D01*
X164716757Y-116118869D01*
X164651095Y-115916782D01*
X164554624Y-115727449D01*
X164515270Y-115673282D01*
X164515269Y-115673282D01*
X163882962Y-116305590D01*
X163865925Y-116242007D01*
X163800099Y-116127993D01*
X163707007Y-116034901D01*
X163592993Y-115969075D01*
X163529409Y-115952037D01*
X164161716Y-115319728D01*
X164107547Y-115280373D01*
X164107547Y-115280372D01*
X164098500Y-115275763D01*
X164047706Y-115227788D01*
X164030912Y-115159966D01*
X164053451Y-115093832D01*
X164098508Y-115054793D01*
X164107816Y-115050051D01*
X164210861Y-114975185D01*
X164279786Y-114925109D01*
X164279788Y-114925106D01*
X164279792Y-114925104D01*
X164430104Y-114774792D01*
X164430106Y-114774788D01*
X164430109Y-114774786D01*
X164555048Y-114602820D01*
X164555047Y-114602820D01*
X164555051Y-114602816D01*
X164651557Y-114413412D01*
X164717246Y-114211243D01*
X164734057Y-114105101D01*
X164763986Y-114041968D01*
X164823297Y-114005036D01*
X164856530Y-114000500D01*
X172199903Y-114000500D01*
X172266942Y-114020185D01*
X172287584Y-114036819D01*
X174520139Y-116269374D01*
X174520149Y-116269385D01*
X174524479Y-116273715D01*
X174524480Y-116273716D01*
X174636284Y-116385520D01*
X174712426Y-116429480D01*
X174773215Y-116464577D01*
X174925943Y-116505501D01*
X174925946Y-116505501D01*
X175091653Y-116505501D01*
X175091669Y-116505500D01*
X178484996Y-116505500D01*
X178552035Y-116525185D01*
X178590535Y-116564404D01*
X178602031Y-116583043D01*
X178721955Y-116702967D01*
X178721959Y-116702970D01*
X178866294Y-116791998D01*
X178866297Y-116791999D01*
X178866303Y-116792003D01*
X179027292Y-116845349D01*
X179126655Y-116855500D01*
X179723344Y-116855499D01*
X179723352Y-116855498D01*
X179723355Y-116855498D01*
X179777760Y-116849940D01*
X179822708Y-116845349D01*
X179983697Y-116792003D01*
X180128044Y-116702968D01*
X180247968Y-116583044D01*
X180337003Y-116438697D01*
X180374514Y-116325496D01*
X180414287Y-116268051D01*
X180478803Y-116241228D01*
X180492220Y-116240500D01*
X181159093Y-116240500D01*
X181226132Y-116260185D01*
X181271887Y-116312989D01*
X181281831Y-116382147D01*
X181265825Y-116427620D01*
X181223257Y-116499599D01*
X181223254Y-116499606D01*
X181177402Y-116657426D01*
X181177401Y-116657432D01*
X181174500Y-116694298D01*
X181174500Y-117125701D01*
X181177401Y-117162567D01*
X181177402Y-117162573D01*
X181223254Y-117320393D01*
X181223255Y-117320396D01*
X181306917Y-117461862D01*
X181306923Y-117461870D01*
X181423129Y-117578076D01*
X181423133Y-117578079D01*
X181423135Y-117578081D01*
X181564602Y-117661744D01*
X181577269Y-117665424D01*
X181722426Y-117707597D01*
X181722429Y-117707597D01*
X181722431Y-117707598D01*
X181759306Y-117710500D01*
X181759314Y-117710500D01*
X183540686Y-117710500D01*
X183540694Y-117710500D01*
X183577569Y-117707598D01*
X183577571Y-117707597D01*
X183577573Y-117707597D01*
X183722733Y-117665424D01*
X183757328Y-117660500D01*
X184063920Y-117660500D01*
X184161462Y-117641096D01*
X184208913Y-117631658D01*
X184345495Y-117575084D01*
X184394729Y-117542186D01*
X184468416Y-117492952D01*
X185882952Y-116078416D01*
X185932186Y-116004729D01*
X185943051Y-115988467D01*
X185996661Y-115943665D01*
X186065986Y-115934958D01*
X186129014Y-115965113D01*
X186165227Y-116022764D01*
X186173255Y-116050396D01*
X186256917Y-116191862D01*
X186261702Y-116198031D01*
X186259256Y-116199927D01*
X186285857Y-116248642D01*
X186280873Y-116318334D01*
X186260069Y-116350703D01*
X186261702Y-116351969D01*
X186256917Y-116358137D01*
X186173255Y-116499603D01*
X186173254Y-116499606D01*
X186127402Y-116657426D01*
X186127401Y-116657432D01*
X186124500Y-116694298D01*
X186124500Y-117125701D01*
X186127401Y-117162567D01*
X186127402Y-117162573D01*
X186173254Y-117320393D01*
X186173255Y-117320396D01*
X186256917Y-117461862D01*
X186256923Y-117461870D01*
X186373129Y-117578076D01*
X186373133Y-117578079D01*
X186373135Y-117578081D01*
X186514602Y-117661744D01*
X186527269Y-117665424D01*
X186672426Y-117707597D01*
X186672429Y-117707597D01*
X186672431Y-117707598D01*
X186709306Y-117710500D01*
X186709314Y-117710500D01*
X188490686Y-117710500D01*
X188490694Y-117710500D01*
X188527569Y-117707598D01*
X188527571Y-117707597D01*
X188527573Y-117707597D01*
X188601582Y-117686095D01*
X188685398Y-117661744D01*
X188826865Y-117578081D01*
X188943081Y-117461865D01*
X189026744Y-117320398D01*
X189026747Y-117320384D01*
X189027189Y-117319367D01*
X189028461Y-117317494D01*
X189030716Y-117313682D01*
X189030955Y-117313823D01*
X189031242Y-117313401D01*
X189032160Y-117309181D01*
X189053274Y-117280975D01*
X189053306Y-117280928D01*
X189055519Y-117278716D01*
X189055519Y-117278713D01*
X189059499Y-117274733D01*
X191880520Y-114453715D01*
X191959577Y-114316783D01*
X192000501Y-114164056D01*
X192000501Y-114005941D01*
X192000501Y-113998346D01*
X192000500Y-113998328D01*
X192000500Y-106540096D01*
X192020185Y-106473057D01*
X192036815Y-106452419D01*
X192337819Y-106151414D01*
X192399142Y-106117930D01*
X192468834Y-106122914D01*
X192524767Y-106164786D01*
X192549184Y-106230250D01*
X192549500Y-106239096D01*
X192549500Y-106386286D01*
X192576110Y-106554298D01*
X192582754Y-106596243D01*
X192646818Y-106793412D01*
X192648444Y-106798414D01*
X192744951Y-106987820D01*
X192869890Y-107159786D01*
X193020213Y-107310109D01*
X193192182Y-107435050D01*
X193200946Y-107439516D01*
X193251742Y-107487491D01*
X193268536Y-107555312D01*
X193245998Y-107621447D01*
X193200946Y-107660484D01*
X193192182Y-107664949D01*
X193020213Y-107789890D01*
X192869890Y-107940213D01*
X192744951Y-108112179D01*
X192648444Y-108301585D01*
X192582753Y-108503760D01*
X192549500Y-108713713D01*
X192549500Y-108926286D01*
X192576110Y-109094298D01*
X192582754Y-109136243D01*
X192646818Y-109333412D01*
X192648443Y-109338412D01*
X192744951Y-109527820D01*
X192869890Y-109699786D01*
X193020213Y-109850109D01*
X193192179Y-109975048D01*
X193192181Y-109975049D01*
X193192184Y-109975051D01*
X193201493Y-109979794D01*
X193252290Y-110027766D01*
X193269087Y-110095587D01*
X193246552Y-110161722D01*
X193201505Y-110200760D01*
X193192446Y-110205376D01*
X193192440Y-110205380D01*
X193138282Y-110244727D01*
X193138282Y-110244728D01*
X193770591Y-110877037D01*
X193707007Y-110894075D01*
X193592993Y-110959901D01*
X193499901Y-111052993D01*
X193434075Y-111167007D01*
X193417037Y-111230591D01*
X192784728Y-110598282D01*
X192784727Y-110598282D01*
X192745380Y-110652439D01*
X192648904Y-110841782D01*
X192583242Y-111043869D01*
X192583242Y-111043872D01*
X192550000Y-111253753D01*
X192550000Y-111466246D01*
X192583242Y-111676127D01*
X192583242Y-111676130D01*
X192648904Y-111878217D01*
X192745375Y-112067550D01*
X192784728Y-112121716D01*
X193417037Y-111489408D01*
X193434075Y-111552993D01*
X193499901Y-111667007D01*
X193592993Y-111760099D01*
X193707007Y-111825925D01*
X193770590Y-111842962D01*
X193138282Y-112475269D01*
X193138282Y-112475270D01*
X193192449Y-112514624D01*
X193381782Y-112611095D01*
X193583870Y-112676757D01*
X193793754Y-112710000D01*
X194006246Y-112710000D01*
X194216127Y-112676757D01*
X194216130Y-112676757D01*
X194418217Y-112611095D01*
X194607554Y-112514622D01*
X194661716Y-112475270D01*
X194661717Y-112475270D01*
X194029408Y-111842962D01*
X194092993Y-111825925D01*
X194207007Y-111760099D01*
X194300099Y-111667007D01*
X194365925Y-111552993D01*
X194382962Y-111489408D01*
X195015270Y-112121717D01*
X195015270Y-112121716D01*
X195054622Y-112067554D01*
X195151095Y-111878217D01*
X195216757Y-111676130D01*
X195216757Y-111676127D01*
X195250000Y-111466246D01*
X195250000Y-111253753D01*
X195216757Y-111043872D01*
X195216757Y-111043869D01*
X195151095Y-110841782D01*
X195054624Y-110652449D01*
X195015270Y-110598282D01*
X195015269Y-110598282D01*
X194382962Y-111230590D01*
X194365925Y-111167007D01*
X194300099Y-111052993D01*
X194207007Y-110959901D01*
X194092993Y-110894075D01*
X194029409Y-110877037D01*
X194661716Y-110244728D01*
X194607547Y-110205373D01*
X194607547Y-110205372D01*
X194598500Y-110200763D01*
X194547706Y-110152788D01*
X194530912Y-110084966D01*
X194553451Y-110018832D01*
X194598508Y-109979793D01*
X194607816Y-109975051D01*
X194709453Y-109901208D01*
X194779786Y-109850109D01*
X194779788Y-109850106D01*
X194779792Y-109850104D01*
X194930104Y-109699792D01*
X194930106Y-109699788D01*
X194930109Y-109699786D01*
X195055048Y-109527820D01*
X195055047Y-109527820D01*
X195055051Y-109527816D01*
X195151557Y-109338412D01*
X195217246Y-109136243D01*
X195250500Y-108926287D01*
X195250500Y-108713713D01*
X195217246Y-108503757D01*
X195151557Y-108301588D01*
X195055051Y-108112184D01*
X195055049Y-108112181D01*
X195055048Y-108112179D01*
X194930109Y-107940213D01*
X194779786Y-107789890D01*
X194607820Y-107664951D01*
X194607115Y-107664591D01*
X194599054Y-107660485D01*
X194548259Y-107612512D01*
X194531463Y-107544692D01*
X194553999Y-107478556D01*
X194599054Y-107439515D01*
X194607816Y-107435051D01*
X194696662Y-107370501D01*
X194779786Y-107310109D01*
X194779788Y-107310106D01*
X194779792Y-107310104D01*
X194930104Y-107159792D01*
X194930106Y-107159788D01*
X194930109Y-107159786D01*
X195055048Y-106987820D01*
X195055047Y-106987820D01*
X195055051Y-106987816D01*
X195151557Y-106798412D01*
X195217246Y-106596243D01*
X195250500Y-106386287D01*
X195250500Y-106173713D01*
X195217246Y-105963757D01*
X195151557Y-105761588D01*
X195055051Y-105572184D01*
X195055049Y-105572181D01*
X195055048Y-105572179D01*
X194930109Y-105400213D01*
X194779786Y-105249890D01*
X194607820Y-105124951D01*
X194607115Y-105124591D01*
X194599054Y-105120485D01*
X194548259Y-105072512D01*
X194531463Y-105004692D01*
X194553999Y-104938556D01*
X194599054Y-104899515D01*
X194607816Y-104895051D01*
X194694705Y-104831923D01*
X194779786Y-104770109D01*
X194779788Y-104770106D01*
X194779792Y-104770104D01*
X194930104Y-104619792D01*
X194930106Y-104619788D01*
X194930109Y-104619786D01*
X195055048Y-104447820D01*
X195055047Y-104447820D01*
X195055051Y-104447816D01*
X195151557Y-104258412D01*
X195217246Y-104056243D01*
X195250500Y-103846287D01*
X195250500Y-103633713D01*
X195217246Y-103423757D01*
X195151557Y-103221588D01*
X195055051Y-103032184D01*
X195055049Y-103032181D01*
X195055048Y-103032179D01*
X194930109Y-102860213D01*
X194779786Y-102709890D01*
X194607820Y-102584951D01*
X194607115Y-102584591D01*
X194599054Y-102580485D01*
X194548259Y-102532512D01*
X194531463Y-102464692D01*
X194553999Y-102398556D01*
X194599054Y-102359515D01*
X194607816Y-102355051D01*
X194655519Y-102320393D01*
X194779786Y-102230109D01*
X194779788Y-102230106D01*
X194779792Y-102230104D01*
X194930104Y-102079792D01*
X194930106Y-102079788D01*
X194930109Y-102079786D01*
X195053902Y-101909397D01*
X195055051Y-101907816D01*
X195151557Y-101718412D01*
X195217246Y-101516243D01*
X195250500Y-101306287D01*
X195250500Y-101093713D01*
X195217246Y-100883757D01*
X195151557Y-100681588D01*
X195055051Y-100492184D01*
X195055049Y-100492181D01*
X195055048Y-100492179D01*
X194930109Y-100320213D01*
X194779786Y-100169890D01*
X194607820Y-100044951D01*
X194603969Y-100042989D01*
X194599054Y-100040485D01*
X194548259Y-99992512D01*
X194531463Y-99924692D01*
X194553999Y-99858556D01*
X194599054Y-99819515D01*
X194607816Y-99815051D01*
X194657929Y-99778642D01*
X194779786Y-99690109D01*
X194779788Y-99690106D01*
X194779792Y-99690104D01*
X194930104Y-99539792D01*
X194930106Y-99539788D01*
X194930109Y-99539786D01*
X195055048Y-99367820D01*
X195055047Y-99367820D01*
X195055051Y-99367816D01*
X195151557Y-99178412D01*
X195217246Y-98976243D01*
X195250500Y-98766287D01*
X195250500Y-98553713D01*
X195217246Y-98343757D01*
X195151557Y-98141588D01*
X195055051Y-97952184D01*
X195055049Y-97952181D01*
X195055048Y-97952179D01*
X194930109Y-97780213D01*
X194779786Y-97629890D01*
X194607820Y-97504951D01*
X194607115Y-97504591D01*
X194599054Y-97500485D01*
X194548259Y-97452512D01*
X194531463Y-97384692D01*
X194553999Y-97318556D01*
X194599054Y-97279515D01*
X194607816Y-97275051D01*
X194766696Y-97159619D01*
X194779786Y-97150109D01*
X194779788Y-97150106D01*
X194779792Y-97150104D01*
X194930104Y-96999792D01*
X194930106Y-96999788D01*
X194930109Y-96999786D01*
X195055048Y-96827820D01*
X195055047Y-96827820D01*
X195055051Y-96827816D01*
X195151557Y-96638412D01*
X195217246Y-96436243D01*
X195250500Y-96226287D01*
X195250500Y-96013713D01*
X195217246Y-95803757D01*
X195151557Y-95601588D01*
X195055051Y-95412184D01*
X195055049Y-95412181D01*
X195055048Y-95412179D01*
X194930109Y-95240213D01*
X194779786Y-95089890D01*
X194607820Y-94964951D01*
X194607115Y-94964591D01*
X194599054Y-94960485D01*
X194548259Y-94912512D01*
X194531463Y-94844692D01*
X194553999Y-94778556D01*
X194599054Y-94739515D01*
X194607816Y-94735051D01*
X194658638Y-94698127D01*
X194779786Y-94610109D01*
X194779788Y-94610106D01*
X194779792Y-94610104D01*
X194930104Y-94459792D01*
X194930106Y-94459788D01*
X194930109Y-94459786D01*
X195055048Y-94287820D01*
X195055047Y-94287820D01*
X195055051Y-94287816D01*
X195151557Y-94098412D01*
X195217246Y-93896243D01*
X195250500Y-93686287D01*
X195250500Y-93473713D01*
X195217246Y-93263757D01*
X195151557Y-93061588D01*
X195055051Y-92872184D01*
X195055049Y-92872181D01*
X195055048Y-92872179D01*
X194930109Y-92700213D01*
X194779786Y-92549890D01*
X194607820Y-92424951D01*
X194605308Y-92423671D01*
X194599054Y-92420485D01*
X194548259Y-92372512D01*
X194531463Y-92304692D01*
X194553999Y-92238556D01*
X194599054Y-92199515D01*
X194607816Y-92195051D01*
X194658012Y-92158582D01*
X194779786Y-92070109D01*
X194779788Y-92070106D01*
X194779792Y-92070104D01*
X194930104Y-91919792D01*
X194930106Y-91919788D01*
X194930109Y-91919786D01*
X195055048Y-91747820D01*
X195055047Y-91747820D01*
X195055051Y-91747816D01*
X195151557Y-91558412D01*
X195217246Y-91356243D01*
X195250500Y-91146287D01*
X195250500Y-90933713D01*
X195217246Y-90723757D01*
X195151557Y-90521588D01*
X195055051Y-90332184D01*
X195055049Y-90332181D01*
X195055048Y-90332179D01*
X194930109Y-90160213D01*
X194816569Y-90046673D01*
X194783084Y-89985350D01*
X194788068Y-89915658D01*
X194829940Y-89859725D01*
X194860915Y-89842810D01*
X194992331Y-89793796D01*
X195107546Y-89707546D01*
X195193796Y-89592331D01*
X195244091Y-89457483D01*
X195250500Y-89397873D01*
X195250499Y-87602128D01*
X195244091Y-87542517D01*
X195228602Y-87500990D01*
X195193797Y-87407671D01*
X195193793Y-87407664D01*
X195107547Y-87292455D01*
X195107544Y-87292452D01*
X194992335Y-87206206D01*
X194992328Y-87206202D01*
X194857482Y-87155908D01*
X194857483Y-87155908D01*
X194797883Y-87149501D01*
X194797881Y-87149500D01*
X194797873Y-87149500D01*
X194797864Y-87149500D01*
X193002129Y-87149500D01*
X193002123Y-87149501D01*
X192942516Y-87155908D01*
X192807671Y-87206202D01*
X192807664Y-87206206D01*
X192692455Y-87292452D01*
X192692452Y-87292455D01*
X192606206Y-87407664D01*
X192606202Y-87407671D01*
X192555908Y-87542517D01*
X192549782Y-87599500D01*
X192549501Y-87602123D01*
X192549500Y-87602135D01*
X192549500Y-87775500D01*
X192529815Y-87842539D01*
X192477011Y-87888294D01*
X192425500Y-87899500D01*
X190420941Y-87899500D01*
X190380677Y-87910288D01*
X190380678Y-87910289D01*
X190268214Y-87940423D01*
X190268209Y-87940426D01*
X190131290Y-88019475D01*
X190131282Y-88019481D01*
X190061109Y-88089655D01*
X190019480Y-88131284D01*
X190019478Y-88131286D01*
X189751428Y-88399337D01*
X189512582Y-88638183D01*
X189451259Y-88671668D01*
X189424901Y-88674502D01*
X189055500Y-88674502D01*
X188988461Y-88654817D01*
X188942706Y-88602013D01*
X188931500Y-88550503D01*
X188931499Y-88399331D01*
X188931498Y-88399324D01*
X188931497Y-88399318D01*
X188925091Y-88339718D01*
X188925091Y-88339717D01*
X188923307Y-88332167D01*
X188925602Y-88331624D01*
X188921457Y-88273638D01*
X188923907Y-88265291D01*
X188925089Y-88260291D01*
X188925089Y-88260290D01*
X188925091Y-88260285D01*
X188931500Y-88200675D01*
X188931499Y-87749330D01*
X188925091Y-87689719D01*
X188925091Y-87689718D01*
X188923307Y-87682168D01*
X188925391Y-87681675D01*
X188921188Y-87622933D01*
X188923211Y-87616044D01*
X188924598Y-87610173D01*
X188930999Y-87550645D01*
X188931000Y-87550628D01*
X188931000Y-87502801D01*
X188897886Y-87502801D01*
X188830847Y-87483116D01*
X188811646Y-87467900D01*
X188804542Y-87461024D01*
X188788546Y-87439656D01*
X188761709Y-87419565D01*
X188756062Y-87414100D01*
X188742540Y-87390268D01*
X188726120Y-87368333D01*
X188725546Y-87360318D01*
X188721582Y-87353331D01*
X188723090Y-87325972D01*
X188721136Y-87298641D01*
X188724986Y-87291589D01*
X188725429Y-87283568D01*
X188741488Y-87261370D01*
X188754622Y-87237318D01*
X188766055Y-87227411D01*
X188766383Y-87226959D01*
X188766738Y-87226819D01*
X188767984Y-87225740D01*
X188788546Y-87210348D01*
X188791650Y-87206202D01*
X188798622Y-87196889D01*
X188854556Y-87155019D01*
X188897888Y-87147201D01*
X188931000Y-87147201D01*
X188931000Y-87099373D01*
X188930999Y-87099356D01*
X188924597Y-87039823D01*
X188922813Y-87032268D01*
X188925290Y-87031682D01*
X188921187Y-86974365D01*
X188924140Y-86964307D01*
X188925088Y-86960292D01*
X188925091Y-86960285D01*
X188931500Y-86900675D01*
X188931499Y-86449330D01*
X188925091Y-86389719D01*
X188925090Y-86389717D01*
X188874797Y-86254873D01*
X188874793Y-86254866D01*
X188788547Y-86139657D01*
X188788544Y-86139654D01*
X188673335Y-86053408D01*
X188673328Y-86053404D01*
X188538482Y-86003110D01*
X188538479Y-86003109D01*
X188538183Y-86003078D01*
X188537968Y-86002989D01*
X188530938Y-86001328D01*
X188531207Y-86000187D01*
X188473634Y-85976334D01*
X188433792Y-85918937D01*
X188427450Y-85879790D01*
X188427450Y-85043857D01*
X188447135Y-84976818D01*
X188463769Y-84956176D01*
X189230273Y-84189672D01*
X189230276Y-84189669D01*
X189301465Y-84083127D01*
X189350501Y-83964744D01*
X189358698Y-83923535D01*
X189374448Y-83844356D01*
X189375500Y-83839070D01*
X189375500Y-82301874D01*
X189395185Y-82234835D01*
X189411819Y-82214193D01*
X189462569Y-82163443D01*
X189522968Y-82103044D01*
X189612003Y-81958697D01*
X189665349Y-81797708D01*
X189675500Y-81698345D01*
X189675499Y-81101656D01*
X189671728Y-81064744D01*
X189665349Y-81002292D01*
X189665348Y-81002289D01*
X189656794Y-80976474D01*
X189650500Y-80937470D01*
X189650500Y-80404935D01*
X189670185Y-80337896D01*
X189671366Y-80336090D01*
X189709394Y-80279179D01*
X189714049Y-80267942D01*
X189755783Y-80167184D01*
X189769737Y-80133497D01*
X189800500Y-79978842D01*
X189800500Y-79821158D01*
X189800500Y-79821155D01*
X189800499Y-79821153D01*
X189769737Y-79666503D01*
X189763909Y-79652433D01*
X189709397Y-79520827D01*
X189707442Y-79517170D01*
X189693195Y-79448768D01*
X189718191Y-79383523D01*
X189751701Y-79353169D01*
X189768656Y-79342712D01*
X189892712Y-79218656D01*
X189984814Y-79069334D01*
X190039999Y-78902797D01*
X190050500Y-78800009D01*
X190050499Y-77399992D01*
X190039999Y-77297203D01*
X189984814Y-77130666D01*
X189892712Y-76981344D01*
X189768656Y-76857288D01*
X189625057Y-76768716D01*
X189619336Y-76765187D01*
X189619335Y-76765186D01*
X189619334Y-76765186D01*
X189560495Y-76745688D01*
X189503051Y-76705915D01*
X189476229Y-76641399D01*
X189475501Y-76627983D01*
X189475501Y-75266232D01*
X189495186Y-75199193D01*
X189500235Y-75191921D01*
X189522794Y-75161785D01*
X189522793Y-75161785D01*
X189522797Y-75161781D01*
X189573092Y-75026933D01*
X189579501Y-74967323D01*
X189579500Y-73893678D01*
X189573092Y-73834067D01*
X189570991Y-73828435D01*
X189522798Y-73699221D01*
X189522794Y-73699214D01*
X189436548Y-73584005D01*
X189436545Y-73584002D01*
X189321336Y-73497756D01*
X189321329Y-73497752D01*
X189186487Y-73447460D01*
X189186486Y-73447459D01*
X189186484Y-73447459D01*
X189126874Y-73441050D01*
X189126864Y-73441050D01*
X188523130Y-73441050D01*
X188523124Y-73441051D01*
X188463517Y-73447458D01*
X188328672Y-73497752D01*
X188328665Y-73497756D01*
X188213456Y-73584002D01*
X188213453Y-73584005D01*
X188127207Y-73699214D01*
X188127203Y-73699221D01*
X188076909Y-73834067D01*
X188070502Y-73893666D01*
X188070502Y-73893673D01*
X188070501Y-73893685D01*
X188070501Y-74967320D01*
X188070502Y-74967326D01*
X188076909Y-75026933D01*
X188127203Y-75161778D01*
X188127207Y-75161785D01*
X188149767Y-75191921D01*
X188174185Y-75257385D01*
X188174501Y-75266232D01*
X188174501Y-76812769D01*
X188154816Y-76879808D01*
X188138182Y-76900450D01*
X188057289Y-76981342D01*
X187965187Y-77130663D01*
X187965185Y-77130668D01*
X187942123Y-77200265D01*
X187910001Y-77297203D01*
X187910001Y-77297204D01*
X187910000Y-77297204D01*
X187899500Y-77399983D01*
X187899500Y-78800001D01*
X187899501Y-78800018D01*
X187910000Y-78902796D01*
X187910001Y-78902799D01*
X187943273Y-79003205D01*
X187965186Y-79069334D01*
X188057288Y-79218656D01*
X188181344Y-79342712D01*
X188237259Y-79377200D01*
X188283984Y-79429147D01*
X188295207Y-79498109D01*
X188286724Y-79530191D01*
X188230264Y-79666498D01*
X188230261Y-79666510D01*
X188199500Y-79821153D01*
X188199500Y-79978846D01*
X188230261Y-80133489D01*
X188230264Y-80133501D01*
X188290602Y-80279172D01*
X188290610Y-80279186D01*
X188296379Y-80287820D01*
X188317258Y-80354497D01*
X188298774Y-80421877D01*
X188246796Y-80468568D01*
X188232287Y-80474416D01*
X188192549Y-80487584D01*
X188191303Y-80487997D01*
X188191294Y-80488001D01*
X188046959Y-80577029D01*
X188046953Y-80577033D01*
X188037324Y-80586663D01*
X187976000Y-80620146D01*
X187906308Y-80615159D01*
X187861965Y-80586660D01*
X187852732Y-80577427D01*
X187852728Y-80577424D01*
X187708492Y-80488457D01*
X187708481Y-80488452D01*
X187547606Y-80435144D01*
X187448322Y-80425000D01*
X187425000Y-80425000D01*
X187425000Y-82374999D01*
X187448308Y-82374999D01*
X187448322Y-82374998D01*
X187547607Y-82364855D01*
X187708481Y-82311547D01*
X187708492Y-82311542D01*
X187852731Y-82222573D01*
X187861959Y-82213345D01*
X187869907Y-82209003D01*
X187875336Y-82201753D01*
X187900090Y-82192519D01*
X187923279Y-82179856D01*
X187932313Y-82180501D01*
X187940800Y-82177336D01*
X187966617Y-82182952D01*
X187992971Y-82184835D01*
X188002028Y-82190655D01*
X188009073Y-82192188D01*
X188037327Y-82213339D01*
X188038181Y-82214193D01*
X188071666Y-82275516D01*
X188074500Y-82301874D01*
X188074500Y-83454192D01*
X188054815Y-83521231D01*
X188038181Y-83541873D01*
X187271672Y-84308381D01*
X187271670Y-84308383D01*
X187251095Y-84339178D01*
X187242886Y-84351465D01*
X187227829Y-84374000D01*
X187200484Y-84414923D01*
X187151449Y-84533305D01*
X187151447Y-84533311D01*
X187126450Y-84658978D01*
X187126450Y-85879790D01*
X187106765Y-85946829D01*
X187053961Y-85992584D01*
X187022914Y-86001101D01*
X187022968Y-86001326D01*
X187016670Y-86002814D01*
X187015705Y-86003079D01*
X187015420Y-86003109D01*
X186880571Y-86053404D01*
X186880564Y-86053408D01*
X186765355Y-86139654D01*
X186765352Y-86139657D01*
X186679106Y-86254866D01*
X186679102Y-86254873D01*
X186630274Y-86385791D01*
X186628809Y-86389719D01*
X186622400Y-86449329D01*
X186622400Y-86449335D01*
X186622400Y-86449337D01*
X186622400Y-86900672D01*
X186622401Y-86900678D01*
X186628808Y-86960281D01*
X186630592Y-86967828D01*
X186628512Y-86968319D01*
X186632706Y-87027093D01*
X186630677Y-87034001D01*
X186629301Y-87039825D01*
X186622900Y-87099356D01*
X186622900Y-87147201D01*
X186656012Y-87147201D01*
X186723051Y-87166886D01*
X186742251Y-87182101D01*
X186749357Y-87188978D01*
X186765354Y-87210348D01*
X186792195Y-87230441D01*
X186797836Y-87235901D01*
X186811358Y-87259732D01*
X186827779Y-87281668D01*
X186828352Y-87289681D01*
X186832317Y-87296669D01*
X186830808Y-87324027D01*
X186832763Y-87351360D01*
X186828912Y-87358412D01*
X186828470Y-87366433D01*
X186812412Y-87388629D01*
X186799278Y-87412683D01*
X186787842Y-87422592D01*
X186787517Y-87423042D01*
X186787163Y-87423180D01*
X186785911Y-87424266D01*
X186765356Y-87439654D01*
X186765352Y-87439657D01*
X186755279Y-87453114D01*
X186699345Y-87494984D01*
X186656014Y-87502801D01*
X186622900Y-87502801D01*
X186622900Y-87550645D01*
X186629302Y-87610178D01*
X186631087Y-87617734D01*
X186628614Y-87618317D01*
X186632705Y-87675671D01*
X186629752Y-87685726D01*
X186628808Y-87689719D01*
X186624309Y-87731572D01*
X186622401Y-87749325D01*
X186622400Y-87749338D01*
X186622400Y-88200672D01*
X186622401Y-88200678D01*
X186628809Y-88260289D01*
X186630592Y-88267833D01*
X186628295Y-88268375D01*
X186632446Y-88326352D01*
X186629990Y-88334718D01*
X186628808Y-88339718D01*
X186623537Y-88388753D01*
X186622401Y-88399324D01*
X186622400Y-88399337D01*
X186622400Y-88850671D01*
X186622401Y-88850677D01*
X186628809Y-88910285D01*
X186630592Y-88917830D01*
X186628299Y-88918371D01*
X186632441Y-88976374D01*
X186629986Y-88984733D01*
X186628808Y-88989719D01*
X186622401Y-89049319D01*
X186622400Y-89049338D01*
X186622400Y-89500672D01*
X186622401Y-89500678D01*
X186628809Y-89560289D01*
X186630592Y-89567833D01*
X186628295Y-89568375D01*
X186632446Y-89626352D01*
X186629990Y-89634718D01*
X186628808Y-89639718D01*
X186622769Y-89695895D01*
X186622401Y-89699327D01*
X186622400Y-89699337D01*
X186622400Y-90150671D01*
X186622401Y-90150677D01*
X186628809Y-90210285D01*
X186630592Y-90217830D01*
X186628299Y-90218371D01*
X186632441Y-90276374D01*
X186629986Y-90284733D01*
X186628808Y-90289719D01*
X186624752Y-90327449D01*
X186622401Y-90349328D01*
X186622400Y-90349338D01*
X186622400Y-90800672D01*
X186622401Y-90800678D01*
X186628809Y-90860289D01*
X186630592Y-90867833D01*
X186628295Y-90868375D01*
X186632446Y-90926352D01*
X186629990Y-90934718D01*
X186628808Y-90939718D01*
X186624670Y-90978211D01*
X186622401Y-90999327D01*
X186622400Y-90999337D01*
X186622400Y-91450671D01*
X186622401Y-91450677D01*
X186628809Y-91510285D01*
X186630592Y-91517830D01*
X186628299Y-91518371D01*
X186632441Y-91576374D01*
X186629986Y-91584733D01*
X186628808Y-91589719D01*
X186627231Y-91604392D01*
X186622401Y-91649328D01*
X186622400Y-91649338D01*
X186622400Y-92100672D01*
X186622401Y-92100678D01*
X186628454Y-92156984D01*
X186616047Y-92225743D01*
X186592845Y-92257918D01*
X185987584Y-92863181D01*
X185926261Y-92896666D01*
X185899903Y-92899500D01*
X183249645Y-92899500D01*
X183182606Y-92879815D01*
X183136851Y-92827011D01*
X183126355Y-92762248D01*
X183127600Y-92750671D01*
X183127599Y-92299326D01*
X183121191Y-92239715D01*
X183121191Y-92239714D01*
X183119407Y-92232164D01*
X183121702Y-92231621D01*
X183117557Y-92173635D01*
X183120007Y-92165288D01*
X183121189Y-92160288D01*
X183121189Y-92160287D01*
X183121191Y-92160282D01*
X183127600Y-92100672D01*
X183127599Y-91649327D01*
X183121191Y-91589716D01*
X183121190Y-91589714D01*
X183121190Y-91589711D01*
X183119408Y-91582168D01*
X183121703Y-91581625D01*
X183117554Y-91523643D01*
X183120006Y-91515294D01*
X183121188Y-91510288D01*
X183121191Y-91510281D01*
X183127600Y-91450671D01*
X183127599Y-90999326D01*
X183121191Y-90939715D01*
X183121191Y-90939714D01*
X183119407Y-90932164D01*
X183121702Y-90931621D01*
X183117557Y-90873635D01*
X183120007Y-90865288D01*
X183121189Y-90860288D01*
X183121189Y-90860287D01*
X183121191Y-90860282D01*
X183127600Y-90800672D01*
X183127599Y-90349327D01*
X183121191Y-90289716D01*
X183121190Y-90289714D01*
X183121190Y-90289711D01*
X183119408Y-90282168D01*
X183121703Y-90281625D01*
X183117554Y-90223643D01*
X183120006Y-90215294D01*
X183121188Y-90210288D01*
X183121191Y-90210281D01*
X183127600Y-90150671D01*
X183127599Y-89699326D01*
X183121191Y-89639715D01*
X183121191Y-89639714D01*
X183119407Y-89632164D01*
X183121702Y-89631621D01*
X183117557Y-89573635D01*
X183120007Y-89565288D01*
X183121189Y-89560288D01*
X183121189Y-89560287D01*
X183121191Y-89560282D01*
X183127600Y-89500672D01*
X183127599Y-89349500D01*
X183130149Y-89340815D01*
X183128861Y-89331854D01*
X183139838Y-89307816D01*
X183147283Y-89282462D01*
X183154125Y-89276533D01*
X183157886Y-89268298D01*
X183180117Y-89254011D01*
X183200087Y-89236707D01*
X183210602Y-89234419D01*
X183216664Y-89230524D01*
X183251599Y-89225501D01*
X183363330Y-89225501D01*
X183363346Y-89225502D01*
X183370942Y-89225502D01*
X183529054Y-89225502D01*
X183529056Y-89225502D01*
X183606595Y-89204724D01*
X183638689Y-89200500D01*
X183753844Y-89200500D01*
X183753845Y-89200499D01*
X183908497Y-89169737D01*
X184054179Y-89109394D01*
X184185289Y-89021789D01*
X184296789Y-88910289D01*
X184384394Y-88779179D01*
X184444737Y-88633497D01*
X184475500Y-88478842D01*
X184475500Y-88321158D01*
X184475500Y-88321155D01*
X184475499Y-88321153D01*
X184467276Y-88279815D01*
X184444737Y-88166503D01*
X184421411Y-88110188D01*
X184384397Y-88020827D01*
X184384390Y-88020814D01*
X184296789Y-87889711D01*
X184296786Y-87889707D01*
X184185292Y-87778213D01*
X184185288Y-87778210D01*
X184054185Y-87690609D01*
X184054172Y-87690602D01*
X183908501Y-87630264D01*
X183908489Y-87630261D01*
X183753845Y-87599500D01*
X183753842Y-87599500D01*
X183596158Y-87599500D01*
X183596155Y-87599500D01*
X183441510Y-87630261D01*
X183441498Y-87630264D01*
X183296567Y-87690296D01*
X183227098Y-87697765D01*
X183164619Y-87666489D01*
X183128967Y-87606400D01*
X183125826Y-87562473D01*
X183127099Y-87550630D01*
X183127100Y-87550628D01*
X183127100Y-87502801D01*
X182966534Y-87502801D01*
X182940445Y-87495140D01*
X182913577Y-87490924D01*
X182907410Y-87485440D01*
X182899495Y-87483116D01*
X182881690Y-87462568D01*
X182861365Y-87444494D01*
X182859141Y-87436546D01*
X182853740Y-87430312D01*
X182849870Y-87403399D01*
X182842544Y-87377207D01*
X182844970Y-87369320D01*
X182843796Y-87361154D01*
X182855092Y-87336417D01*
X182863089Y-87310426D01*
X182870599Y-87302462D01*
X182872821Y-87297598D01*
X182886543Y-87284052D01*
X182889324Y-87281703D01*
X182984646Y-87210346D01*
X183003190Y-87185573D01*
X183013995Y-87176452D01*
X183033545Y-87167825D01*
X183050655Y-87155018D01*
X183070813Y-87151381D01*
X183077919Y-87148246D01*
X183083413Y-87149108D01*
X183093986Y-87147201D01*
X183127100Y-87147201D01*
X183127100Y-87099373D01*
X183127099Y-87099356D01*
X183120698Y-87039825D01*
X183118914Y-87032275D01*
X183121392Y-87031689D01*
X183117283Y-86974379D01*
X183120237Y-86964318D01*
X183121189Y-86960289D01*
X183121189Y-86960288D01*
X183121191Y-86960283D01*
X183127600Y-86900673D01*
X183127599Y-86449328D01*
X183121191Y-86389717D01*
X183121190Y-86389715D01*
X183070897Y-86254871D01*
X183070893Y-86254864D01*
X182984647Y-86139655D01*
X182984644Y-86139652D01*
X182869435Y-86053406D01*
X182869428Y-86053402D01*
X182734582Y-86003108D01*
X182734579Y-86003107D01*
X182734283Y-86003076D01*
X182734068Y-86002987D01*
X182727038Y-86001326D01*
X182727307Y-86000185D01*
X182669734Y-85976332D01*
X182629892Y-85918935D01*
X182623550Y-85879788D01*
X182623550Y-83847757D01*
X182643235Y-83780718D01*
X182659869Y-83760076D01*
X183180273Y-83239672D01*
X183180276Y-83239669D01*
X183251465Y-83133127D01*
X183300501Y-83014744D01*
X183313479Y-82949500D01*
X183325500Y-82889069D01*
X183325500Y-82301874D01*
X183345185Y-82234835D01*
X183361819Y-82214193D01*
X183412569Y-82163443D01*
X183472968Y-82103044D01*
X183562003Y-81958697D01*
X183615349Y-81797708D01*
X183625500Y-81698345D01*
X183625500Y-81698322D01*
X186225001Y-81698322D01*
X186235144Y-81797607D01*
X186288452Y-81958481D01*
X186288457Y-81958492D01*
X186377424Y-82102728D01*
X186377427Y-82102732D01*
X186497267Y-82222572D01*
X186497271Y-82222575D01*
X186641507Y-82311542D01*
X186641518Y-82311547D01*
X186802393Y-82364855D01*
X186901683Y-82374999D01*
X186925000Y-82374998D01*
X186925000Y-81650000D01*
X186225001Y-81650000D01*
X186225001Y-81698322D01*
X183625500Y-81698322D01*
X183625499Y-81512416D01*
X183625499Y-81420810D01*
X183645183Y-81353770D01*
X183661819Y-81333127D01*
X183677142Y-81317802D01*
X183705277Y-81289669D01*
X183776465Y-81183127D01*
X183810203Y-81101677D01*
X186225000Y-81101677D01*
X186225000Y-81150000D01*
X186925000Y-81150000D01*
X186925000Y-80424999D01*
X186901693Y-80425000D01*
X186901674Y-80425001D01*
X186802392Y-80435144D01*
X186641518Y-80488452D01*
X186641507Y-80488457D01*
X186497271Y-80577424D01*
X186497267Y-80577427D01*
X186377427Y-80697267D01*
X186377424Y-80697271D01*
X186288457Y-80841507D01*
X186288452Y-80841518D01*
X186235144Y-81002393D01*
X186225000Y-81101677D01*
X183810203Y-81101677D01*
X183825501Y-81064744D01*
X183833698Y-81023535D01*
X183850500Y-80939069D01*
X183850500Y-80404935D01*
X183870185Y-80337896D01*
X183871366Y-80336090D01*
X183909394Y-80279179D01*
X183914049Y-80267942D01*
X183955783Y-80167184D01*
X183969737Y-80133497D01*
X184000500Y-79978842D01*
X184000500Y-79821158D01*
X184000500Y-79821155D01*
X184000499Y-79821153D01*
X183969737Y-79666503D01*
X183958934Y-79640422D01*
X183908188Y-79517909D01*
X183900719Y-79448440D01*
X183931994Y-79385961D01*
X183957655Y-79364917D01*
X183976704Y-79353168D01*
X183993656Y-79342712D01*
X184117712Y-79218656D01*
X184209814Y-79069334D01*
X184264999Y-78902797D01*
X184275500Y-78800009D01*
X184275500Y-78799986D01*
X184950001Y-78799986D01*
X184960494Y-78902697D01*
X185015641Y-79069119D01*
X185015643Y-79069124D01*
X185107684Y-79218345D01*
X185231654Y-79342315D01*
X185380875Y-79434356D01*
X185380880Y-79434358D01*
X185547302Y-79489505D01*
X185547309Y-79489506D01*
X185650019Y-79499999D01*
X185774999Y-79499999D01*
X186275000Y-79499999D01*
X186399972Y-79499999D01*
X186399986Y-79499998D01*
X186502697Y-79489505D01*
X186669119Y-79434358D01*
X186669124Y-79434356D01*
X186818345Y-79342315D01*
X186942315Y-79218345D01*
X187034356Y-79069124D01*
X187034358Y-79069119D01*
X187089505Y-78902697D01*
X187089506Y-78902690D01*
X187099999Y-78799986D01*
X187100000Y-78799973D01*
X187100000Y-78350000D01*
X186275000Y-78350000D01*
X186275000Y-79499999D01*
X185774999Y-79499999D01*
X185775000Y-79499998D01*
X185775000Y-78350000D01*
X184950001Y-78350000D01*
X184950001Y-78799986D01*
X184275500Y-78799986D01*
X184275499Y-78057175D01*
X184275499Y-77400013D01*
X184950000Y-77400013D01*
X184950000Y-77850000D01*
X185775000Y-77850000D01*
X186275000Y-77850000D01*
X187099999Y-77850000D01*
X187099999Y-77400028D01*
X187099998Y-77400013D01*
X187089505Y-77297302D01*
X187034358Y-77130880D01*
X187034356Y-77130875D01*
X186942315Y-76981654D01*
X186818345Y-76857684D01*
X186669124Y-76765643D01*
X186669119Y-76765641D01*
X186502697Y-76710494D01*
X186502690Y-76710493D01*
X186399986Y-76700000D01*
X186275000Y-76700000D01*
X186275000Y-77850000D01*
X185775000Y-77850000D01*
X185775000Y-76700000D01*
X185650027Y-76700000D01*
X185650012Y-76700001D01*
X185547302Y-76710494D01*
X185380880Y-76765641D01*
X185380875Y-76765643D01*
X185231654Y-76857684D01*
X185107684Y-76981654D01*
X185015643Y-77130875D01*
X185015641Y-77130880D01*
X184960494Y-77297302D01*
X184960493Y-77297309D01*
X184950000Y-77400013D01*
X184275499Y-77400013D01*
X184275499Y-77399998D01*
X184275498Y-77399981D01*
X184264999Y-77297203D01*
X184264998Y-77297200D01*
X184209814Y-77130666D01*
X184117712Y-76981344D01*
X183993656Y-76857288D01*
X183993652Y-76857285D01*
X183909403Y-76805319D01*
X183862678Y-76753371D01*
X183850500Y-76699781D01*
X183850500Y-76035928D01*
X183825502Y-75910261D01*
X183825501Y-75910260D01*
X183825501Y-75910256D01*
X183776465Y-75791873D01*
X183729215Y-75721158D01*
X183705277Y-75685331D01*
X182715819Y-74695873D01*
X182682334Y-74634550D01*
X182679500Y-74608192D01*
X182679500Y-73893685D01*
X186170499Y-73893685D01*
X186170499Y-74967320D01*
X186170500Y-74967326D01*
X186176907Y-75026933D01*
X186227201Y-75161778D01*
X186227205Y-75161785D01*
X186313451Y-75276994D01*
X186313454Y-75276997D01*
X186428663Y-75363243D01*
X186428670Y-75363247D01*
X186473617Y-75380011D01*
X186563516Y-75413541D01*
X186623126Y-75419950D01*
X187226871Y-75419949D01*
X187286482Y-75413541D01*
X187421330Y-75363246D01*
X187536545Y-75276996D01*
X187622795Y-75161781D01*
X187673090Y-75026933D01*
X187679499Y-74967323D01*
X187679498Y-73893678D01*
X187673090Y-73834067D01*
X187670989Y-73828435D01*
X187622796Y-73699221D01*
X187622792Y-73699214D01*
X187536546Y-73584005D01*
X187536543Y-73584002D01*
X187421334Y-73497756D01*
X187421327Y-73497752D01*
X187286485Y-73447460D01*
X187286484Y-73447459D01*
X187286482Y-73447459D01*
X187226872Y-73441050D01*
X187226862Y-73441050D01*
X186623128Y-73441050D01*
X186623122Y-73441051D01*
X186563515Y-73447458D01*
X186428670Y-73497752D01*
X186428663Y-73497756D01*
X186313454Y-73584002D01*
X186313451Y-73584005D01*
X186227205Y-73699214D01*
X186227201Y-73699221D01*
X186176907Y-73834067D01*
X186170500Y-73893666D01*
X186170500Y-73893673D01*
X186170499Y-73893685D01*
X182679500Y-73893685D01*
X182679500Y-73828429D01*
X182679499Y-73828423D01*
X182679498Y-73828416D01*
X182673092Y-73768817D01*
X182657499Y-73727011D01*
X182622798Y-73633971D01*
X182622794Y-73633964D01*
X182536548Y-73518755D01*
X182536545Y-73518752D01*
X182421336Y-73432506D01*
X182421329Y-73432502D01*
X182286487Y-73382210D01*
X182286486Y-73382209D01*
X182286484Y-73382209D01*
X182226874Y-73375800D01*
X182226864Y-73375800D01*
X181623130Y-73375800D01*
X181623124Y-73375801D01*
X181563517Y-73382208D01*
X181428672Y-73432502D01*
X181428665Y-73432506D01*
X181313456Y-73518752D01*
X181313453Y-73518755D01*
X181227207Y-73633964D01*
X181227203Y-73633971D01*
X181176909Y-73768817D01*
X181173611Y-73799499D01*
X181170502Y-73828423D01*
X181170501Y-73828435D01*
X181170501Y-74902070D01*
X181170502Y-74902076D01*
X181176909Y-74961683D01*
X181227203Y-75096528D01*
X181227207Y-75096535D01*
X181313453Y-75211744D01*
X181313456Y-75211747D01*
X181428667Y-75297994D01*
X181428668Y-75297994D01*
X181428670Y-75297996D01*
X181482149Y-75317942D01*
X181526496Y-75346442D01*
X182513181Y-76333127D01*
X182546666Y-76394450D01*
X182549500Y-76420808D01*
X182549500Y-76699781D01*
X182529815Y-76766820D01*
X182490597Y-76805319D01*
X182406347Y-76857285D01*
X182406343Y-76857288D01*
X182282289Y-76981342D01*
X182190187Y-77130663D01*
X182190185Y-77130668D01*
X182167123Y-77200265D01*
X182135001Y-77297203D01*
X182135001Y-77297204D01*
X182135000Y-77297204D01*
X182124500Y-77399983D01*
X182124500Y-78800001D01*
X182124501Y-78800018D01*
X182135000Y-78902796D01*
X182135001Y-78902799D01*
X182168273Y-79003205D01*
X182190186Y-79069334D01*
X182282096Y-79218345D01*
X182282289Y-79218657D01*
X182406345Y-79342713D01*
X182406348Y-79342715D01*
X182442345Y-79364918D01*
X182489071Y-79416865D01*
X182500294Y-79485827D01*
X182491811Y-79517909D01*
X182430264Y-79666498D01*
X182430261Y-79666510D01*
X182399500Y-79821153D01*
X182399500Y-79978846D01*
X182430261Y-80133489D01*
X182430264Y-80133501D01*
X182481004Y-80256000D01*
X182488473Y-80325470D01*
X182457197Y-80387949D01*
X182397108Y-80423600D01*
X182379045Y-80426810D01*
X182302291Y-80434651D01*
X182302289Y-80434651D01*
X182141305Y-80487996D01*
X182141294Y-80488001D01*
X181996959Y-80577029D01*
X181996953Y-80577033D01*
X181987324Y-80586663D01*
X181926000Y-80620146D01*
X181856308Y-80615159D01*
X181811965Y-80586660D01*
X181802732Y-80577427D01*
X181802728Y-80577424D01*
X181658492Y-80488457D01*
X181658481Y-80488452D01*
X181497606Y-80435144D01*
X181398322Y-80425000D01*
X181375000Y-80425000D01*
X181375000Y-82374999D01*
X181398308Y-82374999D01*
X181398322Y-82374998D01*
X181497607Y-82364855D01*
X181658481Y-82311547D01*
X181658492Y-82311542D01*
X181802731Y-82222573D01*
X181811959Y-82213345D01*
X181819907Y-82209003D01*
X181825336Y-82201753D01*
X181850090Y-82192519D01*
X181873279Y-82179856D01*
X181882313Y-82180501D01*
X181890800Y-82177336D01*
X181916617Y-82182952D01*
X181942971Y-82184835D01*
X181952028Y-82190655D01*
X181959073Y-82192188D01*
X181987327Y-82213339D01*
X181988181Y-82214193D01*
X182021666Y-82275516D01*
X182024500Y-82301874D01*
X182024500Y-82504191D01*
X182004815Y-82571230D01*
X181988181Y-82591872D01*
X181467777Y-83112275D01*
X181467774Y-83112278D01*
X181420376Y-83183216D01*
X181396585Y-83218821D01*
X181347549Y-83337205D01*
X181347547Y-83337211D01*
X181322550Y-83462878D01*
X181322550Y-85879788D01*
X181302865Y-85946827D01*
X181250061Y-85992582D01*
X181219014Y-86001099D01*
X181219068Y-86001324D01*
X181212770Y-86002812D01*
X181211805Y-86003077D01*
X181211520Y-86003107D01*
X181076671Y-86053402D01*
X181076664Y-86053406D01*
X180961455Y-86139652D01*
X180961452Y-86139655D01*
X180875206Y-86254864D01*
X180875202Y-86254871D01*
X180826373Y-86385791D01*
X180824909Y-86389717D01*
X180818500Y-86449327D01*
X180818500Y-86449331D01*
X180818500Y-86449335D01*
X180818500Y-86900670D01*
X180818501Y-86900676D01*
X180824909Y-86960287D01*
X180826692Y-86967831D01*
X180824610Y-86968322D01*
X180828808Y-87027083D01*
X180826782Y-87033984D01*
X180825401Y-87039828D01*
X180819000Y-87099356D01*
X180819000Y-87147201D01*
X180852114Y-87147201D01*
X180919153Y-87166886D01*
X180932105Y-87176452D01*
X180942909Y-87185573D01*
X180961454Y-87210346D01*
X181056775Y-87281703D01*
X181059557Y-87284052D01*
X181076897Y-87310286D01*
X181095748Y-87335468D01*
X181096015Y-87339209D01*
X181098084Y-87342339D01*
X181098488Y-87373784D01*
X181100732Y-87405160D01*
X181098933Y-87408453D01*
X181098982Y-87412203D01*
X181082324Y-87438871D01*
X181067247Y-87466483D01*
X181063953Y-87468281D01*
X181061967Y-87471462D01*
X181033524Y-87484895D01*
X181005923Y-87499967D01*
X181000347Y-87500566D01*
X180998790Y-87501302D01*
X180996405Y-87500990D01*
X180979566Y-87502801D01*
X180819000Y-87502801D01*
X180819000Y-87550645D01*
X180825401Y-87610173D01*
X180827187Y-87617731D01*
X180825455Y-87618140D01*
X180831004Y-87664963D01*
X180818094Y-87771167D01*
X180807126Y-87796640D01*
X180799315Y-87823243D01*
X180793505Y-87828277D01*
X180790464Y-87835341D01*
X180767464Y-87850841D01*
X180746511Y-87868998D01*
X180738900Y-87870092D01*
X180732524Y-87874390D01*
X180704801Y-87874995D01*
X180677353Y-87878942D01*
X180670357Y-87875747D01*
X180662671Y-87875915D01*
X180639024Y-87861438D01*
X180613797Y-87849917D01*
X180607319Y-87843885D01*
X180236819Y-87473385D01*
X180203334Y-87412062D01*
X180200500Y-87385704D01*
X180200500Y-82470945D01*
X180200500Y-82470943D01*
X180173382Y-82369737D01*
X180159577Y-82318215D01*
X180125937Y-82259949D01*
X180080520Y-82181284D01*
X179968716Y-82069480D01*
X179968715Y-82069479D01*
X179964385Y-82065149D01*
X179964374Y-82065139D01*
X179597557Y-81698322D01*
X180175001Y-81698322D01*
X180185144Y-81797607D01*
X180238452Y-81958481D01*
X180238457Y-81958492D01*
X180327424Y-82102728D01*
X180327427Y-82102732D01*
X180447267Y-82222572D01*
X180447271Y-82222575D01*
X180591507Y-82311542D01*
X180591518Y-82311547D01*
X180752393Y-82364855D01*
X180851683Y-82374999D01*
X180875000Y-82374998D01*
X180875000Y-81650000D01*
X180175001Y-81650000D01*
X180175001Y-81698322D01*
X179597557Y-81698322D01*
X179000912Y-81101677D01*
X180175000Y-81101677D01*
X180175000Y-81150000D01*
X180875000Y-81150000D01*
X180875000Y-80424999D01*
X180851693Y-80425000D01*
X180851674Y-80425001D01*
X180752392Y-80435144D01*
X180591518Y-80488452D01*
X180591507Y-80488457D01*
X180447271Y-80577424D01*
X180447267Y-80577427D01*
X180327427Y-80697267D01*
X180327424Y-80697271D01*
X180238457Y-80841507D01*
X180238452Y-80841518D01*
X180185144Y-81002393D01*
X180175000Y-81101677D01*
X179000912Y-81101677D01*
X178386819Y-80487584D01*
X178353334Y-80426261D01*
X178350500Y-80399903D01*
X178350500Y-78799986D01*
X179175001Y-78799986D01*
X179185494Y-78902697D01*
X179240641Y-79069119D01*
X179240643Y-79069124D01*
X179332684Y-79218345D01*
X179456654Y-79342315D01*
X179605875Y-79434356D01*
X179605880Y-79434358D01*
X179772302Y-79489505D01*
X179772309Y-79489506D01*
X179875019Y-79499999D01*
X179999999Y-79499999D01*
X180500000Y-79499999D01*
X180624972Y-79499999D01*
X180624986Y-79499998D01*
X180727697Y-79489505D01*
X180894119Y-79434358D01*
X180894124Y-79434356D01*
X181043345Y-79342315D01*
X181167315Y-79218345D01*
X181259356Y-79069124D01*
X181259358Y-79069119D01*
X181314505Y-78902697D01*
X181314506Y-78902690D01*
X181324999Y-78799986D01*
X181325000Y-78799973D01*
X181325000Y-78350000D01*
X180500000Y-78350000D01*
X180500000Y-79499999D01*
X179999999Y-79499999D01*
X180000000Y-79499998D01*
X180000000Y-78350000D01*
X179175001Y-78350000D01*
X179175001Y-78799986D01*
X178350500Y-78799986D01*
X178350500Y-77400013D01*
X179175000Y-77400013D01*
X179175000Y-77850000D01*
X180000000Y-77850000D01*
X180500000Y-77850000D01*
X181324999Y-77850000D01*
X181324999Y-77400028D01*
X181324998Y-77400013D01*
X181314505Y-77297302D01*
X181259358Y-77130880D01*
X181259356Y-77130875D01*
X181167315Y-76981654D01*
X181043345Y-76857684D01*
X180894124Y-76765643D01*
X180894119Y-76765641D01*
X180727697Y-76710494D01*
X180727690Y-76710493D01*
X180624986Y-76700000D01*
X180500000Y-76700000D01*
X180500000Y-77850000D01*
X180000000Y-77850000D01*
X180000000Y-76700000D01*
X179875027Y-76700000D01*
X179875012Y-76700001D01*
X179772302Y-76710494D01*
X179605880Y-76765641D01*
X179605875Y-76765643D01*
X179456654Y-76857684D01*
X179332684Y-76981654D01*
X179240643Y-77130875D01*
X179240641Y-77130880D01*
X179185494Y-77297302D01*
X179185493Y-77297309D01*
X179175000Y-77400013D01*
X178350500Y-77400013D01*
X178350500Y-73828435D01*
X179270499Y-73828435D01*
X179270499Y-74902070D01*
X179270500Y-74902076D01*
X179276907Y-74961683D01*
X179327201Y-75096528D01*
X179327205Y-75096535D01*
X179413451Y-75211744D01*
X179413454Y-75211747D01*
X179528663Y-75297993D01*
X179528670Y-75297997D01*
X179573617Y-75314761D01*
X179663516Y-75348291D01*
X179723126Y-75354700D01*
X180326871Y-75354699D01*
X180386482Y-75348291D01*
X180521330Y-75297996D01*
X180636545Y-75211746D01*
X180722795Y-75096531D01*
X180773090Y-74961683D01*
X180779499Y-74902073D01*
X180779498Y-73828428D01*
X180773090Y-73768817D01*
X180757497Y-73727011D01*
X180722796Y-73633971D01*
X180722792Y-73633964D01*
X180636546Y-73518755D01*
X180636543Y-73518752D01*
X180521334Y-73432506D01*
X180521327Y-73432502D01*
X180386485Y-73382210D01*
X180386484Y-73382209D01*
X180386482Y-73382209D01*
X180326872Y-73375800D01*
X180326862Y-73375800D01*
X179723128Y-73375800D01*
X179723122Y-73375801D01*
X179663515Y-73382208D01*
X179528670Y-73432502D01*
X179528663Y-73432506D01*
X179413454Y-73518752D01*
X179413451Y-73518755D01*
X179327205Y-73633964D01*
X179327201Y-73633971D01*
X179276907Y-73768817D01*
X179273609Y-73799499D01*
X179270500Y-73828423D01*
X179270499Y-73828435D01*
X178350500Y-73828435D01*
X178350500Y-72139060D01*
X178350501Y-72139047D01*
X178350501Y-71970945D01*
X178350501Y-71970943D01*
X178309577Y-71818215D01*
X178230520Y-71681284D01*
X177647171Y-71097935D01*
X179270499Y-71097935D01*
X179270499Y-72171570D01*
X179270500Y-72171576D01*
X179276907Y-72231183D01*
X179327201Y-72366028D01*
X179327205Y-72366035D01*
X179413451Y-72481244D01*
X179413454Y-72481247D01*
X179528663Y-72567493D01*
X179528670Y-72567497D01*
X179573617Y-72584261D01*
X179663516Y-72617791D01*
X179723126Y-72624200D01*
X180326871Y-72624199D01*
X180386482Y-72617791D01*
X180457379Y-72591347D01*
X180527070Y-72586363D01*
X180544046Y-72591347D01*
X180613620Y-72617296D01*
X180613627Y-72617298D01*
X180673155Y-72623699D01*
X180673172Y-72623700D01*
X180725000Y-72623700D01*
X180725000Y-72382490D01*
X180732817Y-72339159D01*
X180773090Y-72231183D01*
X180779499Y-72171573D01*
X180779498Y-71097928D01*
X180773090Y-71038317D01*
X180770450Y-71031239D01*
X180732818Y-70930341D01*
X180725000Y-70887008D01*
X180725000Y-70645800D01*
X180673155Y-70645800D01*
X180613627Y-70652201D01*
X180613616Y-70652203D01*
X180544045Y-70678152D01*
X180474353Y-70683136D01*
X180457380Y-70678152D01*
X180386485Y-70651710D01*
X180386484Y-70651709D01*
X180386482Y-70651709D01*
X180326872Y-70645300D01*
X180326862Y-70645300D01*
X179723128Y-70645300D01*
X179723122Y-70645301D01*
X179663515Y-70651708D01*
X179528670Y-70702002D01*
X179528663Y-70702006D01*
X179413454Y-70788252D01*
X179413451Y-70788255D01*
X179327205Y-70903464D01*
X179327201Y-70903471D01*
X179276907Y-71038317D01*
X179272027Y-71083713D01*
X179270500Y-71097923D01*
X179270499Y-71097935D01*
X177647171Y-71097935D01*
X176500792Y-69951557D01*
X174787590Y-68238355D01*
X174787588Y-68238352D01*
X174674222Y-68124986D01*
X179050001Y-68124986D01*
X179060494Y-68227697D01*
X179115641Y-68394119D01*
X179115643Y-68394124D01*
X179207684Y-68543345D01*
X179331654Y-68667315D01*
X179480875Y-68759356D01*
X179480880Y-68759358D01*
X179647302Y-68814505D01*
X179647309Y-68814506D01*
X179750019Y-68824999D01*
X179799999Y-68824998D01*
X179800000Y-68824998D01*
X179800000Y-67850000D01*
X179050001Y-67850000D01*
X179050001Y-68124986D01*
X174674222Y-68124986D01*
X174668717Y-68119481D01*
X174668716Y-68119480D01*
X174581904Y-68069360D01*
X174581904Y-68069359D01*
X174581900Y-68069358D01*
X174531785Y-68040423D01*
X174379057Y-67999499D01*
X174220943Y-67999499D01*
X174213347Y-67999499D01*
X174213331Y-67999500D01*
X173000412Y-67999500D01*
X172993372Y-67997432D01*
X172986141Y-67998676D01*
X172960298Y-67987721D01*
X172933373Y-67979815D01*
X172928569Y-67974270D01*
X172921813Y-67971407D01*
X172905995Y-67948219D01*
X172887618Y-67927011D01*
X172886573Y-67919749D01*
X172882439Y-67913688D01*
X172881668Y-67885634D01*
X172877674Y-67857853D01*
X172880675Y-67849456D01*
X172880521Y-67843845D01*
X172894295Y-67811350D01*
X172940760Y-67734488D01*
X172968019Y-67689395D01*
X173018590Y-67527106D01*
X173025000Y-67456572D01*
X173025000Y-67375000D01*
X172249000Y-67375000D01*
X172240907Y-67372623D01*
X172232569Y-67373907D01*
X172207879Y-67362925D01*
X172181961Y-67355315D01*
X172176437Y-67348940D01*
X172168729Y-67345512D01*
X172153896Y-67322927D01*
X172136206Y-67302511D01*
X172134007Y-67292642D01*
X172130375Y-67287111D01*
X172125538Y-67254620D01*
X172125006Y-67252228D01*
X172123746Y-67125000D01*
X171999000Y-67125000D01*
X171931961Y-67105315D01*
X171905704Y-67075013D01*
X179050000Y-67075013D01*
X179050000Y-67350000D01*
X179800000Y-67350000D01*
X179800000Y-66375000D01*
X180300000Y-66375000D01*
X180300000Y-68824999D01*
X180349972Y-68824999D01*
X180349986Y-68824998D01*
X180452697Y-68814505D01*
X180619119Y-68759358D01*
X180619124Y-68759356D01*
X180768345Y-68667315D01*
X180892318Y-68543342D01*
X180894165Y-68540348D01*
X180895969Y-68538724D01*
X180896798Y-68537677D01*
X180896976Y-68537818D01*
X180946110Y-68493621D01*
X181015073Y-68482396D01*
X181079156Y-68510236D01*
X181105243Y-68540341D01*
X181107288Y-68543656D01*
X181231344Y-68667712D01*
X181380666Y-68759814D01*
X181547203Y-68814999D01*
X181649991Y-68825500D01*
X182212769Y-68825499D01*
X182279808Y-68845183D01*
X182300450Y-68861818D01*
X183250950Y-69812318D01*
X183284435Y-69873641D01*
X183279451Y-69943333D01*
X183250950Y-69987680D01*
X182561544Y-70677086D01*
X182500221Y-70710571D01*
X182430529Y-70705587D01*
X182428689Y-70704747D01*
X182286487Y-70651710D01*
X182286486Y-70651709D01*
X182286484Y-70651709D01*
X182226874Y-70645300D01*
X182226864Y-70645300D01*
X181623130Y-70645300D01*
X181623124Y-70645301D01*
X181563521Y-70651708D01*
X181563518Y-70651708D01*
X181563518Y-70651709D01*
X181562199Y-70652201D01*
X181492617Y-70678153D01*
X181422925Y-70683136D01*
X181405952Y-70678152D01*
X181336379Y-70652203D01*
X181336372Y-70652201D01*
X181276844Y-70645800D01*
X181225000Y-70645800D01*
X181225000Y-70887008D01*
X181217182Y-70930341D01*
X181179550Y-71031239D01*
X181176910Y-71038317D01*
X181170501Y-71097927D01*
X181170501Y-71594792D01*
X181170502Y-71634750D01*
X181170502Y-72171576D01*
X181176909Y-72231181D01*
X181179017Y-72236833D01*
X181217182Y-72339159D01*
X181225000Y-72382490D01*
X181225000Y-72623700D01*
X181276828Y-72623700D01*
X181276844Y-72623699D01*
X181336377Y-72617297D01*
X181336379Y-72617297D01*
X181405950Y-72591348D01*
X181475642Y-72586362D01*
X181492617Y-72591346D01*
X181563518Y-72617791D01*
X181623128Y-72624200D01*
X182226873Y-72624199D01*
X182286484Y-72617791D01*
X182421332Y-72567496D01*
X182536547Y-72481246D01*
X182571212Y-72434940D01*
X182627145Y-72393068D01*
X182670479Y-72385250D01*
X182739170Y-72385250D01*
X182836712Y-72365846D01*
X182884163Y-72356408D01*
X183020745Y-72299834D01*
X183069979Y-72266936D01*
X183143666Y-72217702D01*
X184198183Y-71163185D01*
X186170499Y-71163185D01*
X186170499Y-72236820D01*
X186170500Y-72236826D01*
X186176907Y-72296433D01*
X186227201Y-72431278D01*
X186227205Y-72431285D01*
X186313451Y-72546494D01*
X186313454Y-72546497D01*
X186428663Y-72632743D01*
X186428670Y-72632747D01*
X186460490Y-72644615D01*
X186563516Y-72683041D01*
X186623126Y-72689450D01*
X187226871Y-72689449D01*
X187286482Y-72683041D01*
X187357379Y-72656597D01*
X187427070Y-72651613D01*
X187444046Y-72656597D01*
X187513620Y-72682546D01*
X187513627Y-72682548D01*
X187573155Y-72688949D01*
X187573172Y-72688950D01*
X187625000Y-72688950D01*
X187625000Y-72447740D01*
X187632817Y-72404409D01*
X187673090Y-72296433D01*
X187679499Y-72236823D01*
X187679498Y-71163178D01*
X187673090Y-71103567D01*
X187670990Y-71097936D01*
X187632818Y-70995591D01*
X187625000Y-70952258D01*
X187625000Y-70711050D01*
X187573155Y-70711050D01*
X187513627Y-70717451D01*
X187513616Y-70717453D01*
X187444045Y-70743402D01*
X187374353Y-70748386D01*
X187357380Y-70743402D01*
X187286485Y-70716960D01*
X187286484Y-70716959D01*
X187286482Y-70716959D01*
X187226872Y-70710550D01*
X187226862Y-70710550D01*
X186623128Y-70710550D01*
X186623122Y-70710551D01*
X186563515Y-70716958D01*
X186428670Y-70767252D01*
X186428663Y-70767256D01*
X186313454Y-70853502D01*
X186313451Y-70853505D01*
X186227205Y-70968714D01*
X186227203Y-70968719D01*
X186176907Y-71103567D01*
X186170500Y-71163166D01*
X186170500Y-71163173D01*
X186170499Y-71163185D01*
X184198183Y-71163185D01*
X184874549Y-70486819D01*
X184935872Y-70453334D01*
X184962230Y-70450500D01*
X187950501Y-70450500D01*
X188017540Y-70470185D01*
X188063295Y-70522989D01*
X188074501Y-70574500D01*
X188074501Y-71119330D01*
X188073791Y-71132568D01*
X188070501Y-71163177D01*
X188070501Y-71681284D01*
X188070502Y-71700000D01*
X188070502Y-72236826D01*
X188076909Y-72296431D01*
X188078178Y-72299833D01*
X188117182Y-72404409D01*
X188125000Y-72447740D01*
X188125000Y-72688950D01*
X188176828Y-72688950D01*
X188176844Y-72688949D01*
X188236377Y-72682547D01*
X188236379Y-72682547D01*
X188305950Y-72656598D01*
X188375642Y-72651612D01*
X188392617Y-72656596D01*
X188463518Y-72683041D01*
X188523128Y-72689450D01*
X189126873Y-72689449D01*
X189186484Y-72683041D01*
X189321332Y-72632746D01*
X189436547Y-72546496D01*
X189522797Y-72431281D01*
X189573092Y-72296433D01*
X189579501Y-72236823D01*
X189579500Y-71163178D01*
X189576831Y-71138352D01*
X189576211Y-71132580D01*
X189575501Y-71119327D01*
X189575501Y-70251082D01*
X189575500Y-70251081D01*
X189563300Y-70189744D01*
X189552883Y-70137374D01*
X189550500Y-70113183D01*
X189550500Y-69726081D01*
X189550499Y-69726080D01*
X189533935Y-69642804D01*
X189521659Y-69581088D01*
X189479950Y-69480394D01*
X189475145Y-69468793D01*
X189465085Y-69444506D01*
X189446397Y-69416538D01*
X189425520Y-69349861D01*
X189425500Y-69347648D01*
X189425500Y-68662230D01*
X189432603Y-68638039D01*
X189435685Y-68613015D01*
X189443198Y-68601955D01*
X189445185Y-68595191D01*
X189446268Y-68593713D01*
X192749500Y-68593713D01*
X192749500Y-68806286D01*
X192771281Y-68943810D01*
X192782754Y-69016243D01*
X192845818Y-69210334D01*
X192848444Y-69218414D01*
X192944951Y-69407820D01*
X193069890Y-69579786D01*
X193220213Y-69730109D01*
X193392179Y-69855048D01*
X193392181Y-69855049D01*
X193392184Y-69855051D01*
X193581588Y-69951557D01*
X193783757Y-70017246D01*
X193993713Y-70050500D01*
X193993714Y-70050500D01*
X194206286Y-70050500D01*
X194206287Y-70050500D01*
X194416243Y-70017246D01*
X194618412Y-69951557D01*
X194807816Y-69855051D01*
X194847689Y-69826082D01*
X194979786Y-69730109D01*
X194979788Y-69730106D01*
X194979792Y-69730104D01*
X195130104Y-69579792D01*
X195130106Y-69579788D01*
X195130109Y-69579786D01*
X195255048Y-69407820D01*
X195255047Y-69407820D01*
X195255051Y-69407816D01*
X195351557Y-69218412D01*
X195417246Y-69016243D01*
X195450500Y-68806287D01*
X195450500Y-68593713D01*
X195417246Y-68383757D01*
X195351557Y-68181588D01*
X195255051Y-67992184D01*
X195255049Y-67992181D01*
X195255048Y-67992179D01*
X195130109Y-67820213D01*
X194979786Y-67669890D01*
X194807820Y-67544951D01*
X194618414Y-67448444D01*
X194618413Y-67448443D01*
X194618412Y-67448443D01*
X194416243Y-67382754D01*
X194416241Y-67382753D01*
X194416240Y-67382753D01*
X194243001Y-67355315D01*
X194206287Y-67349500D01*
X193993713Y-67349500D01*
X193956999Y-67355315D01*
X193783760Y-67382753D01*
X193581585Y-67448444D01*
X193392179Y-67544951D01*
X193220213Y-67669890D01*
X193069890Y-67820213D01*
X192944951Y-67992179D01*
X192848444Y-68181585D01*
X192782753Y-68383760D01*
X192749500Y-68593713D01*
X189446268Y-68593713D01*
X189454160Y-68582943D01*
X189457789Y-68578578D01*
X189492712Y-68543656D01*
X189584814Y-68394334D01*
X189639999Y-68227797D01*
X189650500Y-68125009D01*
X189650499Y-67074992D01*
X189639999Y-66972203D01*
X189584814Y-66805666D01*
X189492712Y-66656344D01*
X189368656Y-66532288D01*
X189275888Y-66475069D01*
X189219336Y-66440187D01*
X189219331Y-66440185D01*
X189217862Y-66439698D01*
X189052797Y-66385001D01*
X189052795Y-66385000D01*
X188950010Y-66374500D01*
X188349998Y-66374500D01*
X188349980Y-66374501D01*
X188247203Y-66385000D01*
X188247200Y-66385001D01*
X188080668Y-66440185D01*
X188080663Y-66440187D01*
X187931342Y-66532289D01*
X187807288Y-66656343D01*
X187807283Y-66656349D01*
X187805241Y-66659661D01*
X187803247Y-66661453D01*
X187802807Y-66662011D01*
X187802711Y-66661935D01*
X187753291Y-66706383D01*
X187684328Y-66717602D01*
X187620247Y-66689755D01*
X187594168Y-66659656D01*
X187592319Y-66656659D01*
X187592316Y-66656655D01*
X187468345Y-66532684D01*
X187319124Y-66440643D01*
X187319119Y-66440641D01*
X187152697Y-66385494D01*
X187152690Y-66385493D01*
X187049986Y-66375000D01*
X187000000Y-66375000D01*
X187000000Y-67476000D01*
X186980315Y-67543039D01*
X186927511Y-67588794D01*
X186876000Y-67600000D01*
X186750000Y-67600000D01*
X186750000Y-67726000D01*
X186730315Y-67793039D01*
X186677511Y-67838794D01*
X186626000Y-67850000D01*
X185750001Y-67850000D01*
X185750001Y-68124986D01*
X185760494Y-68227697D01*
X185815641Y-68394119D01*
X185815643Y-68394124D01*
X185907684Y-68543345D01*
X186031654Y-68667315D01*
X186117006Y-68719961D01*
X186163730Y-68771909D01*
X186174953Y-68840872D01*
X186147109Y-68904954D01*
X186089040Y-68943810D01*
X186051909Y-68949500D01*
X184904604Y-68949500D01*
X184857155Y-68940062D01*
X184833497Y-68930263D01*
X184833493Y-68930262D01*
X184833488Y-68930260D01*
X184678845Y-68899500D01*
X184678842Y-68899500D01*
X184521158Y-68899500D01*
X184515067Y-68899500D01*
X184515067Y-68897345D01*
X184455975Y-68886129D01*
X184424803Y-68863435D01*
X182986818Y-67425450D01*
X182953333Y-67364127D01*
X182950499Y-67337769D01*
X182950499Y-67075013D01*
X185750000Y-67075013D01*
X185750000Y-67350000D01*
X186500000Y-67350000D01*
X186500000Y-66375000D01*
X186499999Y-66374999D01*
X186450029Y-66375000D01*
X186450011Y-66375001D01*
X186347302Y-66385494D01*
X186180880Y-66440641D01*
X186180875Y-66440643D01*
X186031654Y-66532684D01*
X185907684Y-66656654D01*
X185815643Y-66805875D01*
X185815641Y-66805880D01*
X185760494Y-66972302D01*
X185760493Y-66972309D01*
X185750000Y-67075013D01*
X182950499Y-67075013D01*
X182950499Y-67074998D01*
X182950498Y-67074981D01*
X182939999Y-66972203D01*
X182939998Y-66972200D01*
X182938425Y-66967452D01*
X182884814Y-66805666D01*
X182792712Y-66656344D01*
X182668656Y-66532288D01*
X182575888Y-66475069D01*
X182519336Y-66440187D01*
X182519331Y-66440185D01*
X182517862Y-66439698D01*
X182352797Y-66385001D01*
X182352795Y-66385000D01*
X182250010Y-66374500D01*
X181649998Y-66374500D01*
X181649980Y-66374501D01*
X181547203Y-66385000D01*
X181547200Y-66385001D01*
X181380668Y-66440185D01*
X181380663Y-66440187D01*
X181231342Y-66532289D01*
X181107288Y-66656343D01*
X181107283Y-66656349D01*
X181105241Y-66659661D01*
X181103247Y-66661453D01*
X181102807Y-66662011D01*
X181102711Y-66661935D01*
X181053291Y-66706383D01*
X180984328Y-66717602D01*
X180920247Y-66689755D01*
X180894168Y-66659656D01*
X180892319Y-66656659D01*
X180892316Y-66656655D01*
X180768345Y-66532684D01*
X180619124Y-66440643D01*
X180619119Y-66440641D01*
X180452697Y-66385494D01*
X180452690Y-66385493D01*
X180349986Y-66375000D01*
X180300000Y-66375000D01*
X179800000Y-66375000D01*
X179799999Y-66374999D01*
X179750029Y-66375000D01*
X179750011Y-66375001D01*
X179647302Y-66385494D01*
X179480880Y-66440641D01*
X179480875Y-66440643D01*
X179331654Y-66532684D01*
X179207684Y-66656654D01*
X179115643Y-66805875D01*
X179115641Y-66805880D01*
X179060494Y-66972302D01*
X179060493Y-66972309D01*
X179050000Y-67075013D01*
X171905704Y-67075013D01*
X171886206Y-67052511D01*
X171875000Y-67001000D01*
X171875000Y-66875000D01*
X172375000Y-66875000D01*
X173024999Y-66875000D01*
X173024999Y-66793417D01*
X173018591Y-66722897D01*
X173018590Y-66722892D01*
X172968018Y-66560603D01*
X172880072Y-66415122D01*
X172759877Y-66294927D01*
X172614395Y-66206980D01*
X172614396Y-66206980D01*
X172452105Y-66156409D01*
X172452106Y-66156409D01*
X172381572Y-66150000D01*
X172375000Y-66150000D01*
X172375000Y-66875000D01*
X171875000Y-66875000D01*
X171875000Y-66150000D01*
X171874999Y-66149999D01*
X171868436Y-66150000D01*
X171868417Y-66150001D01*
X171797897Y-66156408D01*
X171797892Y-66156409D01*
X171635603Y-66206981D01*
X171490122Y-66294927D01*
X171490121Y-66294928D01*
X171388035Y-66397015D01*
X171326712Y-66430500D01*
X171257020Y-66425516D01*
X171212673Y-66397015D01*
X171110188Y-66294530D01*
X171086354Y-66280122D01*
X170964606Y-66206522D01*
X170802196Y-66155914D01*
X170802194Y-66155913D01*
X170802192Y-66155913D01*
X170752778Y-66151423D01*
X170731616Y-66149500D01*
X170218384Y-66149500D01*
X170199145Y-66151248D01*
X170147807Y-66155913D01*
X169985393Y-66206522D01*
X169839813Y-66294529D01*
X169749782Y-66384560D01*
X169688458Y-66418044D01*
X169618767Y-66413060D01*
X169593212Y-66399982D01*
X169579181Y-66390607D01*
X169579172Y-66390602D01*
X169433501Y-66330264D01*
X169433489Y-66330261D01*
X169278845Y-66299500D01*
X169278842Y-66299500D01*
X169121158Y-66299500D01*
X169121155Y-66299500D01*
X168966510Y-66330261D01*
X168966507Y-66330262D01*
X168966506Y-66330262D01*
X168966503Y-66330263D01*
X168898938Y-66358249D01*
X168834040Y-66385130D01*
X168764570Y-66392598D01*
X168702091Y-66361322D01*
X168698907Y-66358249D01*
X168635188Y-66294530D01*
X168611354Y-66280122D01*
X168489606Y-66206522D01*
X168327196Y-66155914D01*
X168327194Y-66155913D01*
X168327192Y-66155913D01*
X168277778Y-66151423D01*
X168256616Y-66149500D01*
X167743384Y-66149500D01*
X167724145Y-66151248D01*
X167672807Y-66155913D01*
X167510393Y-66206522D01*
X167364811Y-66294530D01*
X167364810Y-66294531D01*
X167262681Y-66396661D01*
X167201358Y-66430146D01*
X167131666Y-66425162D01*
X167087319Y-66396661D01*
X166985188Y-66294530D01*
X166961354Y-66280122D01*
X166839606Y-66206522D01*
X166677196Y-66155914D01*
X166677194Y-66155913D01*
X166677192Y-66155913D01*
X166627778Y-66151423D01*
X166606616Y-66149500D01*
X166093384Y-66149500D01*
X166074145Y-66151248D01*
X166022807Y-66155913D01*
X165860393Y-66206522D01*
X165714811Y-66294530D01*
X165594530Y-66414811D01*
X165506522Y-66560393D01*
X165455913Y-66722807D01*
X165449500Y-66793386D01*
X165449500Y-67124903D01*
X165429815Y-67191942D01*
X165413181Y-67212584D01*
X165087584Y-67538181D01*
X165060656Y-67552884D01*
X165034838Y-67569477D01*
X165028637Y-67570368D01*
X165026261Y-67571666D01*
X164999903Y-67574500D01*
X164874499Y-67574500D01*
X164807460Y-67554815D01*
X164761705Y-67502011D01*
X164750499Y-67450500D01*
X164750499Y-67277129D01*
X164750498Y-67277123D01*
X164750497Y-67277116D01*
X164744091Y-67217517D01*
X164734552Y-67191942D01*
X164693797Y-67082671D01*
X164693793Y-67082664D01*
X164607547Y-66967455D01*
X164607544Y-66967452D01*
X164492335Y-66881206D01*
X164492328Y-66881202D01*
X164357482Y-66830908D01*
X164357483Y-66830908D01*
X164297883Y-66824501D01*
X164297881Y-66824500D01*
X164297873Y-66824500D01*
X164297864Y-66824500D01*
X162502129Y-66824500D01*
X162502123Y-66824501D01*
X162442516Y-66830908D01*
X162307671Y-66881202D01*
X162307664Y-66881206D01*
X162192455Y-66967452D01*
X162192452Y-66967455D01*
X162106206Y-67082664D01*
X162106202Y-67082671D01*
X162055908Y-67217517D01*
X162049501Y-67277116D01*
X162049501Y-67277123D01*
X162049500Y-67277135D01*
X160541005Y-67277135D01*
X160571780Y-67109197D01*
X160575364Y-67094663D01*
X160579101Y-67082671D01*
X160660696Y-66820822D01*
X160665998Y-66806841D01*
X160783731Y-66545249D01*
X160790676Y-66532016D01*
X160939080Y-66286526D01*
X160947567Y-66274230D01*
X161124480Y-66048417D01*
X161134395Y-66037226D01*
X161337226Y-65834395D01*
X161348417Y-65824480D01*
X161574230Y-65647567D01*
X161586526Y-65639080D01*
X161832016Y-65490676D01*
X161845249Y-65483731D01*
X162106841Y-65365998D01*
X162120822Y-65360696D01*
X162394668Y-65275362D01*
X162409197Y-65271780D01*
X162691344Y-65220075D01*
X162706201Y-65218271D01*
X162996264Y-65200726D01*
X163003751Y-65200500D01*
X163065892Y-65200500D01*
X194934108Y-65200500D01*
X194996249Y-65200500D01*
X195003736Y-65200726D01*
G37*
G04 #@! TD.AperFunction*
M02*
