G04 #@! TF.GenerationSoftware,KiCad,Pcbnew,9.0.3*
G04 #@! TF.CreationDate,2025-11-20T17:31:48-06:00*
G04 #@! TF.ProjectId,DAQ_module,4441515f-6d6f-4647-956c-652e6b696361,rev?*
G04 #@! TF.SameCoordinates,Original*
G04 #@! TF.FileFunction,Paste,Top*
G04 #@! TF.FilePolarity,Positive*
%FSLAX46Y46*%
G04 Gerber Fmt 4.6, Leading zero omitted, Abs format (unit mm)*
G04 Created by KiCad (PCBNEW 9.0.3) date 2025-11-20 17:31:48*
%MOMM*%
%LPD*%
G01*
G04 APERTURE LIST*
G04 Aperture macros list*
%AMRoundRect*
0 Rectangle with rounded corners*
0 $1 Rounding radius*
0 $2 $3 $4 $5 $6 $7 $8 $9 X,Y pos of 4 corners*
0 Add a 4 corners polygon primitive as box body*
4,1,4,$2,$3,$4,$5,$6,$7,$8,$9,$2,$3,0*
0 Add four circle primitives for the rounded corners*
1,1,$1+$1,$2,$3*
1,1,$1+$1,$4,$5*
1,1,$1+$1,$6,$7*
1,1,$1+$1,$8,$9*
0 Add four rect primitives between the rounded corners*
20,1,$1+$1,$2,$3,$4,$5,0*
20,1,$1+$1,$4,$5,$6,$7,0*
20,1,$1+$1,$6,$7,$8,$9,0*
20,1,$1+$1,$8,$9,$2,$3,0*%
G04 Aperture macros list end*
%ADD10RoundRect,0.225000X0.250000X-0.225000X0.250000X0.225000X-0.250000X0.225000X-0.250000X-0.225000X0*%
%ADD11RoundRect,0.200000X-0.200000X-0.275000X0.200000X-0.275000X0.200000X0.275000X-0.200000X0.275000X0*%
%ADD12RoundRect,0.225000X0.225000X0.250000X-0.225000X0.250000X-0.225000X-0.250000X0.225000X-0.250000X0*%
%ADD13RoundRect,0.250000X0.250000X0.475000X-0.250000X0.475000X-0.250000X-0.475000X0.250000X-0.475000X0*%
%ADD14RoundRect,0.250000X-0.250000X-0.475000X0.250000X-0.475000X0.250000X0.475000X-0.250000X0.475000X0*%
%ADD15R,0.508000X0.977900*%
%ADD16RoundRect,0.250000X0.325000X0.650000X-0.325000X0.650000X-0.325000X-0.650000X0.325000X-0.650000X0*%
%ADD17RoundRect,0.150000X-0.825000X-0.150000X0.825000X-0.150000X0.825000X0.150000X-0.825000X0.150000X0*%
%ADD18RoundRect,0.225000X-0.225000X-0.250000X0.225000X-0.250000X0.225000X0.250000X-0.225000X0.250000X0*%
%ADD19RoundRect,0.250000X-0.229810X0.689429X-0.689429X0.229810X0.229810X-0.689429X0.689429X-0.229810X0*%
%ADD20R,1.308100X0.355600*%
%ADD21RoundRect,0.250000X0.475000X-0.250000X0.475000X0.250000X-0.475000X0.250000X-0.475000X-0.250000X0*%
%ADD22R,0.977900X0.508000*%
G04 APERTURE END LIST*
D10*
X179425000Y-115905000D03*
X179425000Y-114355000D03*
D11*
X170450000Y-72945000D03*
X172100000Y-72945000D03*
X166275000Y-70045000D03*
X167925000Y-70045000D03*
D12*
X188725000Y-81400000D03*
X187175000Y-81400000D03*
D13*
X181950000Y-67600000D03*
X180050000Y-67600000D03*
D11*
X170475000Y-67125000D03*
X172125000Y-67125000D03*
D14*
X186750000Y-67600000D03*
X188650000Y-67600000D03*
D15*
X181925001Y-71634750D03*
X180975000Y-71634750D03*
X180024999Y-71634750D03*
X180024999Y-74365250D03*
X181925001Y-74365250D03*
D16*
X188975000Y-78100000D03*
X186025000Y-78100000D03*
D11*
X166350000Y-67125000D03*
X168000000Y-67125000D03*
X170400000Y-75800000D03*
X172050000Y-75800000D03*
D10*
X179025000Y-108205000D03*
X179025000Y-106655000D03*
D11*
X170375000Y-78700000D03*
X172025000Y-78700000D03*
D17*
X182650000Y-105500000D03*
X182650000Y-106770000D03*
X182650000Y-108040000D03*
X182650000Y-109310000D03*
X187600000Y-109310000D03*
X187600000Y-108040000D03*
X187600000Y-106770000D03*
X187600000Y-105500000D03*
D18*
X181125000Y-81400000D03*
X182675000Y-81400000D03*
D19*
X177442983Y-95657017D03*
X175357017Y-97742983D03*
D11*
X166275000Y-75800000D03*
X167925000Y-75800000D03*
X166275000Y-81600000D03*
X167925000Y-81600000D03*
X166250000Y-84500000D03*
X167900000Y-84500000D03*
D16*
X183200000Y-78100000D03*
X180250000Y-78100000D03*
D17*
X182650000Y-113100000D03*
X182650000Y-114370000D03*
X182650000Y-115640000D03*
X182650000Y-116910000D03*
X187600000Y-116910000D03*
X187600000Y-115640000D03*
X187600000Y-114370000D03*
X187600000Y-113100000D03*
D11*
X166250000Y-72945000D03*
X167900000Y-72945000D03*
X170350000Y-84500000D03*
X172000000Y-84500000D03*
X166275000Y-78700000D03*
X167925000Y-78700000D03*
X170375000Y-87400000D03*
X172025000Y-87400000D03*
D20*
X181973050Y-86675000D03*
X181973050Y-87325001D03*
X181973050Y-87974999D03*
X181973050Y-88625001D03*
X181973050Y-89274999D03*
X181973050Y-89924998D03*
X181973050Y-90574999D03*
X181973050Y-91224998D03*
X181973050Y-91874999D03*
X181973050Y-92524998D03*
X187776950Y-92525000D03*
X187776950Y-91875002D03*
X187776950Y-91225001D03*
X187776950Y-90575002D03*
X187776950Y-89925001D03*
X187776950Y-89275002D03*
X187776950Y-88625001D03*
X187776950Y-87975002D03*
X187776950Y-87325001D03*
X187776950Y-86675002D03*
D10*
X179125000Y-100580000D03*
X179125000Y-99030000D03*
D17*
X182750000Y-98100000D03*
X182750000Y-99370000D03*
X182750000Y-100640000D03*
X182750000Y-101910000D03*
X187700000Y-101910000D03*
X187700000Y-100640000D03*
X187700000Y-99370000D03*
X187700000Y-98100000D03*
D21*
X167934750Y-95049999D03*
X167934750Y-93149999D03*
D11*
X170375000Y-81600000D03*
X172025000Y-81600000D03*
D22*
X170769500Y-93099998D03*
X170769500Y-94049999D03*
X170769500Y-95000000D03*
X173500000Y-95000000D03*
X173500000Y-93099998D03*
D11*
X170475000Y-70045000D03*
X172125000Y-70045000D03*
D15*
X188825001Y-71700000D03*
X187875000Y-71700000D03*
X186924999Y-71700000D03*
X186924999Y-74430500D03*
X188825001Y-74430500D03*
D11*
X166275000Y-87400000D03*
X167925000Y-87400000D03*
M02*
