G04 #@! TF.GenerationSoftware,KiCad,Pcbnew,7.0.8*
G04 #@! TF.CreationDate,2024-12-11T20:09:02-06:00*
G04 #@! TF.ProjectId,LEC,4c45432e-6b69-4636-9164-5f7063625858,rev?*
G04 #@! TF.SameCoordinates,Original*
G04 #@! TF.FileFunction,Copper,L2,Inr*
G04 #@! TF.FilePolarity,Positive*
%FSLAX46Y46*%
G04 Gerber Fmt 4.6, Leading zero omitted, Abs format (unit mm)*
G04 Created by KiCad (PCBNEW 7.0.8) date 2024-12-11 20:09:02*
%MOMM*%
%LPD*%
G01*
G04 APERTURE LIST*
G04 #@! TA.AperFunction,ComponentPad*
%ADD10R,1.508000X1.508000*%
G04 #@! TD*
G04 #@! TA.AperFunction,ComponentPad*
%ADD11C,1.508000*%
G04 #@! TD*
G04 #@! TA.AperFunction,ComponentPad*
%ADD12R,3.000000X3.000000*%
G04 #@! TD*
G04 #@! TA.AperFunction,ComponentPad*
%ADD13C,3.000000*%
G04 #@! TD*
G04 #@! TA.AperFunction,ComponentPad*
%ADD14R,2.200000X2.200000*%
G04 #@! TD*
G04 #@! TA.AperFunction,ComponentPad*
%ADD15O,2.200000X2.200000*%
G04 #@! TD*
G04 #@! TA.AperFunction,ComponentPad*
%ADD16O,1.700000X1.700000*%
G04 #@! TD*
G04 #@! TA.AperFunction,ComponentPad*
%ADD17R,1.700000X1.700000*%
G04 #@! TD*
G04 #@! TA.AperFunction,ComponentPad*
%ADD18R,1.498600X1.498600*%
G04 #@! TD*
G04 #@! TA.AperFunction,ComponentPad*
%ADD19C,1.498600*%
G04 #@! TD*
G04 #@! TA.AperFunction,ComponentPad*
%ADD20R,1.651000X1.651000*%
G04 #@! TD*
G04 #@! TA.AperFunction,ComponentPad*
%ADD21C,1.651000*%
G04 #@! TD*
G04 #@! TA.AperFunction,ViaPad*
%ADD22C,0.700000*%
G04 #@! TD*
G04 #@! TA.AperFunction,ViaPad*
%ADD23C,0.800000*%
G04 #@! TD*
G04 #@! TA.AperFunction,Conductor*
%ADD24C,0.500000*%
G04 #@! TD*
G04 #@! TA.AperFunction,Conductor*
%ADD25C,0.250000*%
G04 #@! TD*
G04 APERTURE END LIST*
D10*
X81435000Y-61450000D03*
D11*
X80800000Y-59420000D03*
X78135000Y-61450000D03*
X78770000Y-59420000D03*
D12*
X85000000Y-94800000D03*
D13*
X80000000Y-94800000D03*
D10*
X131900000Y-94520000D03*
D11*
X129870000Y-95155000D03*
X131900000Y-97820000D03*
X129870000Y-97185000D03*
D12*
X197600000Y-78600000D03*
D13*
X192600000Y-78600000D03*
D10*
X192500000Y-113000000D03*
D11*
X194530000Y-112365000D03*
X192500000Y-109700000D03*
X194530000Y-110335000D03*
D10*
X121475000Y-61400000D03*
D11*
X120840000Y-59370000D03*
X118175000Y-61400000D03*
X118810000Y-59370000D03*
D10*
X192400000Y-94300000D03*
D11*
X194430000Y-93665000D03*
X192400000Y-91000000D03*
X194430000Y-91635000D03*
D10*
X101475000Y-61400000D03*
D11*
X100840000Y-59370000D03*
X98175000Y-61400000D03*
X98810000Y-59370000D03*
D14*
X186520000Y-54800000D03*
D15*
X196680000Y-54800000D03*
D10*
X141385000Y-115300000D03*
D11*
X142020000Y-117330000D03*
X144685000Y-115300000D03*
X144050000Y-117330000D03*
D10*
X131917500Y-75612500D03*
D11*
X129887500Y-76247500D03*
X131917500Y-78912500D03*
X129887500Y-78277500D03*
D10*
X144600000Y-61400000D03*
D11*
X143965000Y-59370000D03*
X141300000Y-61400000D03*
X141935000Y-59370000D03*
D16*
X161600000Y-57070000D03*
X161600000Y-59610000D03*
D17*
X161600000Y-62150000D03*
D16*
X161600000Y-64690000D03*
X161600000Y-67230000D03*
X161600000Y-69770000D03*
X161600000Y-72310000D03*
D17*
X161600000Y-74850000D03*
D16*
X161600000Y-77390000D03*
X161600000Y-79930000D03*
X161600000Y-82470000D03*
X161600000Y-85010000D03*
D17*
X161600000Y-87550000D03*
D16*
X161600000Y-90090000D03*
X161600000Y-92630000D03*
X161600000Y-95170000D03*
X161600000Y-97710000D03*
D17*
X161600000Y-100250000D03*
D16*
X161600000Y-102790000D03*
X161600000Y-105330000D03*
X179380000Y-105330000D03*
X179380000Y-102790000D03*
D17*
X179380000Y-100250000D03*
D16*
X179380000Y-97710000D03*
X179380000Y-95170000D03*
X179380000Y-92630000D03*
X179380000Y-90090000D03*
D17*
X179380000Y-87550000D03*
D16*
X179380000Y-85010000D03*
X179380000Y-82470000D03*
X179380000Y-79930000D03*
X179380000Y-77390000D03*
D17*
X179380000Y-74850000D03*
D16*
X179380000Y-72310000D03*
X179380000Y-69770000D03*
X179380000Y-67230000D03*
X179380000Y-64690000D03*
D17*
X179380000Y-62150000D03*
D16*
X179380000Y-59610000D03*
X179380000Y-57070000D03*
X167950000Y-105100000D03*
D17*
X170490000Y-105100000D03*
D16*
X173030000Y-105100000D03*
D18*
X65564400Y-80257400D03*
D19*
X65564400Y-77717400D03*
X65564400Y-75177400D03*
D10*
X80765000Y-115270000D03*
D11*
X81400000Y-117300000D03*
X84065000Y-115270000D03*
X83430000Y-117300000D03*
D20*
X192500000Y-70500000D03*
D21*
X195040000Y-70500000D03*
X197580000Y-70500000D03*
D18*
X65564400Y-96840000D03*
D19*
X65564400Y-94300000D03*
X65564400Y-91760000D03*
D10*
X121335000Y-115300000D03*
D11*
X121970000Y-117330000D03*
X124635000Y-115300000D03*
X124000000Y-117330000D03*
D10*
X101335000Y-115300000D03*
D11*
X101970000Y-117330000D03*
X104635000Y-115300000D03*
X104000000Y-117330000D03*
D21*
X101449000Y-91900000D03*
X103989000Y-91900000D03*
X106529000Y-91900000D03*
D22*
X124375000Y-94775000D03*
X89375000Y-119775000D03*
X99375000Y-94775000D03*
X99375000Y-54775000D03*
X99375000Y-84775000D03*
X174375000Y-64775000D03*
X184375000Y-119775000D03*
X184375000Y-74775000D03*
X99375000Y-109775000D03*
X69375000Y-109775000D03*
X174375000Y-69775000D03*
D23*
X102000000Y-78700000D03*
D22*
X114375000Y-99775000D03*
X79375000Y-119775000D03*
X124375000Y-64775000D03*
X99375000Y-119775000D03*
X94375000Y-59775000D03*
X119375000Y-124775000D03*
X169375000Y-79775000D03*
X114375000Y-104775000D03*
X174375000Y-94775000D03*
X199375000Y-104775000D03*
X109375000Y-89775000D03*
X99375000Y-124775000D03*
X204375000Y-64775000D03*
X164375000Y-64775000D03*
X104375000Y-64775000D03*
X199375000Y-119775000D03*
X144375000Y-54775000D03*
X134375000Y-114775000D03*
X69375000Y-69775000D03*
X69375000Y-99775000D03*
X119375000Y-69775000D03*
X129375000Y-64775000D03*
X99375000Y-89775000D03*
X109375000Y-54775000D03*
X109375000Y-119775000D03*
X114375000Y-119775000D03*
X139375000Y-104775000D03*
X189375000Y-74775000D03*
X86600000Y-76400000D03*
X124375000Y-59775000D03*
X104375000Y-69775000D03*
X164375000Y-59775000D03*
X89375000Y-64775000D03*
X79375000Y-99775000D03*
X124375000Y-124775000D03*
D23*
X156100000Y-61600000D03*
D22*
X154375000Y-109775000D03*
X114375000Y-54775000D03*
X159375000Y-124775000D03*
X184375000Y-109775000D03*
X109375000Y-109775000D03*
X199375000Y-99775000D03*
X74375000Y-104775000D03*
X189375000Y-89775000D03*
X74375000Y-54775000D03*
X109375000Y-124775000D03*
X164375000Y-74775000D03*
X119375000Y-74775000D03*
X154375000Y-104775000D03*
X69375000Y-64775000D03*
X179375000Y-124775000D03*
X154375000Y-114775000D03*
X64375000Y-84775000D03*
X189375000Y-69775000D03*
X169375000Y-74775000D03*
X69375000Y-84775000D03*
X139375000Y-119775000D03*
X104375000Y-119775000D03*
X104375000Y-94775000D03*
X184375000Y-89775000D03*
X139375000Y-114775000D03*
X69375000Y-89775000D03*
X124375000Y-74775000D03*
X189375000Y-94775000D03*
X149375000Y-104775000D03*
D23*
X154300000Y-65600000D03*
D22*
X69375000Y-59775000D03*
X164375000Y-84775000D03*
X174375000Y-99775000D03*
X174375000Y-79775000D03*
X189375000Y-99775000D03*
X169375000Y-64775000D03*
X129375000Y-124775000D03*
X114375000Y-59775000D03*
X164375000Y-79775000D03*
X154375000Y-99775000D03*
X144375000Y-119775000D03*
X139375000Y-99775000D03*
X94375000Y-119775000D03*
X129375000Y-114775000D03*
X174375000Y-84775000D03*
X169375000Y-54775000D03*
X184375000Y-54775000D03*
X74375000Y-114775000D03*
X74375000Y-109775000D03*
X149375000Y-54775000D03*
X89375000Y-109775000D03*
X79375000Y-124775000D03*
X94375000Y-54775000D03*
X164375000Y-104775000D03*
X139375000Y-54775000D03*
X129375000Y-119775000D03*
X169375000Y-84775000D03*
X149375000Y-69775000D03*
X194375000Y-89775000D03*
X64375000Y-109775000D03*
X119375000Y-119775000D03*
X179375000Y-119775000D03*
X154375000Y-54775000D03*
X199375000Y-74775000D03*
D23*
X152700000Y-57700000D03*
D22*
X194375000Y-124775000D03*
X88900000Y-81700000D03*
X104375000Y-59775000D03*
X149375000Y-124775000D03*
X169375000Y-89775000D03*
X79375000Y-109775000D03*
X189375000Y-124775000D03*
X89375000Y-124775000D03*
X84375000Y-124775000D03*
X134375000Y-119775000D03*
X164375000Y-94775000D03*
X74375000Y-119775000D03*
X109375000Y-69775000D03*
D23*
X147500000Y-91500000D03*
D22*
X204375000Y-94775000D03*
X194375000Y-74775000D03*
X164375000Y-54775000D03*
X84375000Y-64775000D03*
X164375000Y-69775000D03*
X184375000Y-124775000D03*
X134375000Y-99775000D03*
X204375000Y-104775000D03*
X94375000Y-124775000D03*
X184375000Y-69775000D03*
X114375000Y-114775000D03*
X124375000Y-119775000D03*
X169375000Y-99775000D03*
X189375000Y-64775000D03*
X109375000Y-114775000D03*
X204375000Y-84775000D03*
X104375000Y-124775000D03*
X134375000Y-54775000D03*
X89375000Y-94775000D03*
X94375000Y-104775000D03*
X154375000Y-124775000D03*
X139375000Y-59775000D03*
X159375000Y-114775000D03*
X124375000Y-69775000D03*
X154375000Y-69775000D03*
X139375000Y-69775000D03*
X84375000Y-59775000D03*
X94375000Y-114775000D03*
X89375000Y-104775000D03*
X109375000Y-104775000D03*
X124375000Y-99775000D03*
X84375000Y-119775000D03*
X134375000Y-104775000D03*
X129375000Y-54775000D03*
X189375000Y-119775000D03*
X79375000Y-104775000D03*
X104375000Y-89775000D03*
X79375000Y-54775000D03*
X129375000Y-99775000D03*
X129375000Y-69775000D03*
X174375000Y-89775000D03*
X199375000Y-114775000D03*
X119375000Y-54775000D03*
X164375000Y-99775000D03*
X109375000Y-94775000D03*
X144375000Y-69775000D03*
X199375000Y-54775000D03*
X124375000Y-54775000D03*
X189375000Y-84775000D03*
X204375000Y-99775000D03*
X69375000Y-114775000D03*
X134375000Y-64775000D03*
X204375000Y-79775000D03*
X149375000Y-119775000D03*
X84375000Y-99775000D03*
X144375000Y-124775000D03*
X119375000Y-109775000D03*
X189375000Y-79775000D03*
X74375000Y-99775000D03*
X119375000Y-114775000D03*
X99375000Y-114775000D03*
X139375000Y-64775000D03*
X114375000Y-124775000D03*
X74375000Y-59775000D03*
X204375000Y-109775000D03*
X89375000Y-54775000D03*
X134375000Y-69775000D03*
X169375000Y-94775000D03*
X134375000Y-124775000D03*
X169375000Y-69775000D03*
X149375000Y-74775000D03*
X159375000Y-109775000D03*
X149375000Y-109775000D03*
X94375000Y-99775000D03*
X204375000Y-89775000D03*
X184375000Y-64775000D03*
X164375000Y-89775000D03*
X159375000Y-119775000D03*
X134375000Y-59775000D03*
X204375000Y-74775000D03*
X194375000Y-59775000D03*
X184375000Y-114775000D03*
X189375000Y-104775000D03*
X99375000Y-99775000D03*
X149375000Y-99775000D03*
X129375000Y-59775000D03*
X139375000Y-124775000D03*
X144375000Y-104775000D03*
X179375000Y-54775000D03*
X204375000Y-69775000D03*
X129375000Y-104775000D03*
X184375000Y-79775000D03*
X64375000Y-69775000D03*
X119375000Y-94775000D03*
X109375000Y-59775000D03*
X64375000Y-104775000D03*
X174375000Y-124775000D03*
X104375000Y-54775000D03*
X69375000Y-104775000D03*
X114375000Y-109775000D03*
X169375000Y-109775000D03*
X154375000Y-119775000D03*
X174375000Y-74775000D03*
X84375000Y-54775000D03*
X194375000Y-54775000D03*
X89375000Y-59775000D03*
X104375000Y-99775000D03*
X64375000Y-89775000D03*
X194375000Y-119775000D03*
X64375000Y-99775000D03*
X89375000Y-99775000D03*
X149375000Y-114775000D03*
D23*
X165900000Y-109200000D03*
X151000000Y-68200000D03*
X142200000Y-85800000D03*
X109300000Y-80500000D03*
X112100000Y-84000000D03*
X108400000Y-84100000D03*
X109000000Y-87600000D03*
X112300000Y-87600000D03*
X110512299Y-82287701D03*
X152200000Y-89800000D03*
X148600000Y-94300000D03*
X152100000Y-101100000D03*
X164200000Y-121000000D03*
D24*
X151000000Y-80700000D02*
X151000000Y-68200000D01*
D25*
X179170000Y-67230000D02*
X179380000Y-67230000D01*
D24*
X173400000Y-53100000D02*
X176100000Y-55800000D01*
X176100000Y-55800000D02*
X176100000Y-63950000D01*
X161000000Y-53100000D02*
X173400000Y-53100000D01*
X151000000Y-68200000D02*
X151000000Y-63100000D01*
X165900000Y-109200000D02*
X165900000Y-80500000D01*
X142200000Y-85800000D02*
X145900000Y-85800000D01*
X176100000Y-63950000D02*
X179380000Y-67230000D01*
X151000000Y-63100000D02*
X161000000Y-53100000D01*
X165900000Y-80500000D02*
X179170000Y-67230000D01*
X145900000Y-85800000D02*
X151000000Y-80700000D01*
G04 #@! TA.AperFunction,Conductor*
G36*
X197238913Y-51000103D02*
G01*
X197580385Y-51019910D01*
X197587517Y-51020741D01*
X197922639Y-51079585D01*
X197929619Y-51081231D01*
X198255696Y-51178427D01*
X198262440Y-51180872D01*
X198575089Y-51315116D01*
X198581513Y-51318327D01*
X198629107Y-51345669D01*
X198876536Y-51487813D01*
X198882540Y-51491741D01*
X199155994Y-51694206D01*
X199161510Y-51698807D01*
X199409724Y-51931531D01*
X199414664Y-51936733D01*
X199634302Y-52196591D01*
X199638615Y-52202339D01*
X199736263Y-52349500D01*
X199814210Y-52466971D01*
X199826729Y-52485837D01*
X199830348Y-52492045D01*
X199985249Y-52797017D01*
X199986782Y-52800266D01*
X201780212Y-56903876D01*
X205100000Y-64500000D01*
X207447977Y-64500000D01*
X207452025Y-64500132D01*
X207752690Y-64519839D01*
X207760719Y-64520897D01*
X207950310Y-64558608D01*
X208054232Y-64579280D01*
X208062074Y-64581381D01*
X208126481Y-64603244D01*
X208345467Y-64677579D01*
X208352941Y-64680675D01*
X208621357Y-64813043D01*
X208628382Y-64817100D01*
X208877211Y-64983363D01*
X208883639Y-64988295D01*
X209108642Y-65185616D01*
X209114381Y-65191355D01*
X209311702Y-65416358D01*
X209316640Y-65422793D01*
X209482899Y-65671617D01*
X209486958Y-65678647D01*
X209614610Y-65937500D01*
X209619318Y-65947045D01*
X209622425Y-65954546D01*
X209718618Y-66237925D01*
X209720719Y-66245767D01*
X209779101Y-66539273D01*
X209780161Y-66547322D01*
X209799867Y-66847965D01*
X209800000Y-66852022D01*
X209800000Y-108066557D01*
X209799888Y-108070283D01*
X209778567Y-108424515D01*
X209777673Y-108431918D01*
X209714355Y-108779195D01*
X209712579Y-108786437D01*
X209608063Y-109123622D01*
X209605431Y-109130599D01*
X209461232Y-109452802D01*
X209457783Y-109459412D01*
X209275978Y-109761997D01*
X209271760Y-109768146D01*
X209053822Y-110048223D01*
X209051446Y-110051094D01*
X196096198Y-124781034D01*
X196093631Y-124783779D01*
X195841505Y-125037628D01*
X195835894Y-125042632D01*
X195556383Y-125262976D01*
X195550207Y-125267264D01*
X195246113Y-125452186D01*
X195239464Y-125455696D01*
X194915230Y-125602491D01*
X194908206Y-125605171D01*
X194568607Y-125711680D01*
X194561310Y-125713491D01*
X194211326Y-125778151D01*
X194203864Y-125779067D01*
X193846736Y-125801047D01*
X193842980Y-125801164D01*
X79831898Y-125899028D01*
X79828177Y-125898919D01*
X79474363Y-125877955D01*
X79466968Y-125877069D01*
X79120059Y-125814207D01*
X79112823Y-125812442D01*
X78775930Y-125708471D01*
X78768959Y-125705852D01*
X78720618Y-125684298D01*
X78446952Y-125562275D01*
X78440353Y-125558843D01*
X78137862Y-125377726D01*
X78131714Y-125373523D01*
X77851625Y-125156331D01*
X77848753Y-125153962D01*
X73108976Y-121000000D01*
X163294540Y-121000000D01*
X163314326Y-121188256D01*
X163314327Y-121188259D01*
X163372818Y-121368277D01*
X163372821Y-121368284D01*
X163467467Y-121532216D01*
X163516688Y-121586881D01*
X163594129Y-121672888D01*
X163747265Y-121784148D01*
X163747270Y-121784151D01*
X163920192Y-121861142D01*
X163920197Y-121861144D01*
X164105354Y-121900500D01*
X164105355Y-121900500D01*
X164294644Y-121900500D01*
X164294646Y-121900500D01*
X164479803Y-121861144D01*
X164652730Y-121784151D01*
X164805871Y-121672888D01*
X164932533Y-121532216D01*
X165027179Y-121368284D01*
X165085674Y-121188256D01*
X165105460Y-121000000D01*
X165085674Y-120811744D01*
X165027179Y-120631716D01*
X164932533Y-120467784D01*
X164805871Y-120327112D01*
X164805870Y-120327111D01*
X164652734Y-120215851D01*
X164652729Y-120215848D01*
X164479807Y-120138857D01*
X164479802Y-120138855D01*
X164334001Y-120107865D01*
X164294646Y-120099500D01*
X164105354Y-120099500D01*
X164072897Y-120106398D01*
X163920197Y-120138855D01*
X163920192Y-120138857D01*
X163747270Y-120215848D01*
X163747265Y-120215851D01*
X163594129Y-120327111D01*
X163467466Y-120467785D01*
X163372821Y-120631715D01*
X163372818Y-120631722D01*
X163314327Y-120811740D01*
X163314326Y-120811744D01*
X163294540Y-121000000D01*
X73108976Y-121000000D01*
X67485853Y-116071870D01*
X79510500Y-116071870D01*
X79510501Y-116071876D01*
X79516908Y-116131483D01*
X79567202Y-116266328D01*
X79567206Y-116266335D01*
X79653452Y-116381544D01*
X79653455Y-116381547D01*
X79768664Y-116467793D01*
X79768671Y-116467797D01*
X79903517Y-116518091D01*
X79903516Y-116518091D01*
X79910444Y-116518835D01*
X79963127Y-116524500D01*
X81566872Y-116524499D01*
X81626483Y-116518091D01*
X81761331Y-116467796D01*
X81876546Y-116381546D01*
X81962796Y-116266331D01*
X82013091Y-116131483D01*
X82019500Y-116071873D01*
X82019500Y-115270002D01*
X82805708Y-115270002D01*
X82824838Y-115488668D01*
X82824839Y-115488675D01*
X82832878Y-115518675D01*
X82881653Y-115700703D01*
X82881654Y-115700706D01*
X82881655Y-115700708D01*
X82974419Y-115899642D01*
X82974423Y-115899650D01*
X83100322Y-116079452D01*
X83100327Y-116079458D01*
X83255541Y-116234672D01*
X83255547Y-116234677D01*
X83435349Y-116360576D01*
X83435351Y-116360577D01*
X83435354Y-116360579D01*
X83634297Y-116453347D01*
X83846326Y-116510161D01*
X84002521Y-116523826D01*
X84064998Y-116529292D01*
X84065000Y-116529292D01*
X84065002Y-116529292D01*
X84119797Y-116524498D01*
X84283674Y-116510161D01*
X84495703Y-116453347D01*
X84694646Y-116360579D01*
X84874457Y-116234674D01*
X85007261Y-116101870D01*
X100080500Y-116101870D01*
X100080501Y-116101876D01*
X100086908Y-116161483D01*
X100137202Y-116296328D01*
X100137206Y-116296335D01*
X100223452Y-116411544D01*
X100223455Y-116411547D01*
X100338664Y-116497793D01*
X100338671Y-116497797D01*
X100473517Y-116548091D01*
X100473516Y-116548091D01*
X100480444Y-116548835D01*
X100533127Y-116554500D01*
X102136872Y-116554499D01*
X102196483Y-116548091D01*
X102331331Y-116497796D01*
X102446546Y-116411546D01*
X102532796Y-116296331D01*
X102583091Y-116161483D01*
X102589500Y-116101873D01*
X102589500Y-115300002D01*
X103375708Y-115300002D01*
X103392213Y-115488668D01*
X103394839Y-115518674D01*
X103451653Y-115730703D01*
X103451654Y-115730706D01*
X103451655Y-115730708D01*
X103544419Y-115929642D01*
X103544423Y-115929650D01*
X103670322Y-116109452D01*
X103670327Y-116109458D01*
X103825541Y-116264672D01*
X103825547Y-116264677D01*
X104005349Y-116390576D01*
X104005351Y-116390577D01*
X104005354Y-116390579D01*
X104204297Y-116483347D01*
X104416326Y-116540161D01*
X104572521Y-116553826D01*
X104634998Y-116559292D01*
X104635000Y-116559292D01*
X104635002Y-116559292D01*
X104689797Y-116554498D01*
X104853674Y-116540161D01*
X105065703Y-116483347D01*
X105264646Y-116390579D01*
X105444457Y-116264674D01*
X105599674Y-116109457D01*
X105604986Y-116101870D01*
X120080500Y-116101870D01*
X120080501Y-116101876D01*
X120086908Y-116161483D01*
X120137202Y-116296328D01*
X120137206Y-116296335D01*
X120223452Y-116411544D01*
X120223455Y-116411547D01*
X120338664Y-116497793D01*
X120338671Y-116497797D01*
X120473517Y-116548091D01*
X120473516Y-116548091D01*
X120480444Y-116548835D01*
X120533127Y-116554500D01*
X122136872Y-116554499D01*
X122196483Y-116548091D01*
X122331331Y-116497796D01*
X122446546Y-116411546D01*
X122532796Y-116296331D01*
X122583091Y-116161483D01*
X122589500Y-116101873D01*
X122589500Y-115300002D01*
X123375708Y-115300002D01*
X123392213Y-115488668D01*
X123394839Y-115518674D01*
X123451653Y-115730703D01*
X123451654Y-115730706D01*
X123451655Y-115730708D01*
X123544419Y-115929642D01*
X123544423Y-115929650D01*
X123670322Y-116109452D01*
X123670327Y-116109458D01*
X123825541Y-116264672D01*
X123825547Y-116264677D01*
X124005349Y-116390576D01*
X124005351Y-116390577D01*
X124005354Y-116390579D01*
X124204297Y-116483347D01*
X124416326Y-116540161D01*
X124572521Y-116553826D01*
X124634998Y-116559292D01*
X124635000Y-116559292D01*
X124635002Y-116559292D01*
X124689797Y-116554498D01*
X124853674Y-116540161D01*
X125065703Y-116483347D01*
X125264646Y-116390579D01*
X125444457Y-116264674D01*
X125599674Y-116109457D01*
X125604986Y-116101870D01*
X140130500Y-116101870D01*
X140130501Y-116101876D01*
X140136908Y-116161483D01*
X140187202Y-116296328D01*
X140187206Y-116296335D01*
X140273452Y-116411544D01*
X140273455Y-116411547D01*
X140388664Y-116497793D01*
X140388671Y-116497797D01*
X140523517Y-116548091D01*
X140523516Y-116548091D01*
X140530444Y-116548835D01*
X140583127Y-116554500D01*
X142186872Y-116554499D01*
X142246483Y-116548091D01*
X142381331Y-116497796D01*
X142496546Y-116411546D01*
X142582796Y-116296331D01*
X142633091Y-116161483D01*
X142639500Y-116101873D01*
X142639500Y-115300002D01*
X143425708Y-115300002D01*
X143442213Y-115488668D01*
X143444839Y-115518674D01*
X143501653Y-115730703D01*
X143501654Y-115730706D01*
X143501655Y-115730708D01*
X143594419Y-115929642D01*
X143594423Y-115929650D01*
X143720322Y-116109452D01*
X143720327Y-116109458D01*
X143875541Y-116264672D01*
X143875547Y-116264677D01*
X144055349Y-116390576D01*
X144055351Y-116390577D01*
X144055354Y-116390579D01*
X144254297Y-116483347D01*
X144466326Y-116540161D01*
X144622521Y-116553826D01*
X144684998Y-116559292D01*
X144685000Y-116559292D01*
X144685002Y-116559292D01*
X144739797Y-116554498D01*
X144903674Y-116540161D01*
X145115703Y-116483347D01*
X145314646Y-116390579D01*
X145494457Y-116264674D01*
X145649674Y-116109457D01*
X145775579Y-115929646D01*
X145868347Y-115730703D01*
X145925161Y-115518674D01*
X145944292Y-115300000D01*
X145941667Y-115270000D01*
X145925161Y-115081331D01*
X145925161Y-115081326D01*
X145868347Y-114869297D01*
X145775579Y-114670354D01*
X145775577Y-114670351D01*
X145775576Y-114670349D01*
X145649677Y-114490547D01*
X145649672Y-114490541D01*
X145494458Y-114335327D01*
X145494452Y-114335322D01*
X145314650Y-114209423D01*
X145314642Y-114209419D01*
X145115708Y-114116655D01*
X145115706Y-114116654D01*
X145115703Y-114116653D01*
X144964885Y-114076240D01*
X144903675Y-114059839D01*
X144903668Y-114059838D01*
X144685002Y-114040708D01*
X144684998Y-114040708D01*
X144466331Y-114059838D01*
X144466324Y-114059839D01*
X144366249Y-114086655D01*
X144254297Y-114116653D01*
X144254295Y-114116653D01*
X144254291Y-114116655D01*
X144055357Y-114209419D01*
X144055349Y-114209423D01*
X143875547Y-114335322D01*
X143875541Y-114335327D01*
X143720327Y-114490541D01*
X143720322Y-114490547D01*
X143594423Y-114670349D01*
X143594419Y-114670357D01*
X143501655Y-114869291D01*
X143444839Y-115081324D01*
X143444838Y-115081331D01*
X143425708Y-115299997D01*
X143425708Y-115300002D01*
X142639500Y-115300002D01*
X142639499Y-114498128D01*
X142633091Y-114438517D01*
X142621901Y-114408516D01*
X142582797Y-114303671D01*
X142582793Y-114303664D01*
X142496547Y-114188455D01*
X142496544Y-114188452D01*
X142381335Y-114102206D01*
X142381328Y-114102202D01*
X142246482Y-114051908D01*
X142246483Y-114051908D01*
X142186883Y-114045501D01*
X142186881Y-114045500D01*
X142186873Y-114045500D01*
X142186864Y-114045500D01*
X140583129Y-114045500D01*
X140583123Y-114045501D01*
X140523516Y-114051908D01*
X140388671Y-114102202D01*
X140388664Y-114102206D01*
X140273455Y-114188452D01*
X140273452Y-114188455D01*
X140187206Y-114303664D01*
X140187202Y-114303671D01*
X140136908Y-114438517D01*
X140131315Y-114490543D01*
X140130501Y-114498123D01*
X140130500Y-114498135D01*
X140130500Y-116101870D01*
X125604986Y-116101870D01*
X125725579Y-115929646D01*
X125818347Y-115730703D01*
X125875161Y-115518674D01*
X125894292Y-115300000D01*
X125891667Y-115270000D01*
X125875161Y-115081331D01*
X125875161Y-115081326D01*
X125818347Y-114869297D01*
X125725579Y-114670354D01*
X125725577Y-114670351D01*
X125725576Y-114670349D01*
X125599677Y-114490547D01*
X125599672Y-114490541D01*
X125444458Y-114335327D01*
X125444452Y-114335322D01*
X125264650Y-114209423D01*
X125264642Y-114209419D01*
X125065708Y-114116655D01*
X125065706Y-114116654D01*
X125065703Y-114116653D01*
X124914885Y-114076240D01*
X124853675Y-114059839D01*
X124853668Y-114059838D01*
X124635002Y-114040708D01*
X124634998Y-114040708D01*
X124416331Y-114059838D01*
X124416324Y-114059839D01*
X124316249Y-114086655D01*
X124204297Y-114116653D01*
X124204295Y-114116653D01*
X124204291Y-114116655D01*
X124005357Y-114209419D01*
X124005349Y-114209423D01*
X123825547Y-114335322D01*
X123825541Y-114335327D01*
X123670327Y-114490541D01*
X123670322Y-114490547D01*
X123544423Y-114670349D01*
X123544419Y-114670357D01*
X123451655Y-114869291D01*
X123394839Y-115081324D01*
X123394838Y-115081331D01*
X123375708Y-115299997D01*
X123375708Y-115300002D01*
X122589500Y-115300002D01*
X122589499Y-114498128D01*
X122583091Y-114438517D01*
X122571901Y-114408516D01*
X122532797Y-114303671D01*
X122532793Y-114303664D01*
X122446547Y-114188455D01*
X122446544Y-114188452D01*
X122331335Y-114102206D01*
X122331328Y-114102202D01*
X122196482Y-114051908D01*
X122196483Y-114051908D01*
X122136883Y-114045501D01*
X122136881Y-114045500D01*
X122136873Y-114045500D01*
X122136864Y-114045500D01*
X120533129Y-114045500D01*
X120533123Y-114045501D01*
X120473516Y-114051908D01*
X120338671Y-114102202D01*
X120338664Y-114102206D01*
X120223455Y-114188452D01*
X120223452Y-114188455D01*
X120137206Y-114303664D01*
X120137202Y-114303671D01*
X120086908Y-114438517D01*
X120081315Y-114490543D01*
X120080501Y-114498123D01*
X120080500Y-114498135D01*
X120080500Y-116101870D01*
X105604986Y-116101870D01*
X105725579Y-115929646D01*
X105818347Y-115730703D01*
X105875161Y-115518674D01*
X105894292Y-115300000D01*
X105891667Y-115270000D01*
X105875161Y-115081331D01*
X105875161Y-115081326D01*
X105818347Y-114869297D01*
X105725579Y-114670354D01*
X105725577Y-114670351D01*
X105725576Y-114670349D01*
X105599677Y-114490547D01*
X105599672Y-114490541D01*
X105444458Y-114335327D01*
X105444452Y-114335322D01*
X105264650Y-114209423D01*
X105264642Y-114209419D01*
X105065708Y-114116655D01*
X105065706Y-114116654D01*
X105065703Y-114116653D01*
X104914885Y-114076240D01*
X104853675Y-114059839D01*
X104853668Y-114059838D01*
X104635002Y-114040708D01*
X104634998Y-114040708D01*
X104416331Y-114059838D01*
X104416324Y-114059839D01*
X104316249Y-114086655D01*
X104204297Y-114116653D01*
X104204295Y-114116653D01*
X104204291Y-114116655D01*
X104005357Y-114209419D01*
X104005349Y-114209423D01*
X103825547Y-114335322D01*
X103825541Y-114335327D01*
X103670327Y-114490541D01*
X103670322Y-114490547D01*
X103544423Y-114670349D01*
X103544419Y-114670357D01*
X103451655Y-114869291D01*
X103394839Y-115081324D01*
X103394838Y-115081331D01*
X103375708Y-115299997D01*
X103375708Y-115300002D01*
X102589500Y-115300002D01*
X102589499Y-114498128D01*
X102583091Y-114438517D01*
X102571901Y-114408516D01*
X102532797Y-114303671D01*
X102532793Y-114303664D01*
X102446547Y-114188455D01*
X102446544Y-114188452D01*
X102331335Y-114102206D01*
X102331328Y-114102202D01*
X102196482Y-114051908D01*
X102196483Y-114051908D01*
X102136883Y-114045501D01*
X102136881Y-114045500D01*
X102136873Y-114045500D01*
X102136864Y-114045500D01*
X100533129Y-114045500D01*
X100533123Y-114045501D01*
X100473516Y-114051908D01*
X100338671Y-114102202D01*
X100338664Y-114102206D01*
X100223455Y-114188452D01*
X100223452Y-114188455D01*
X100137206Y-114303664D01*
X100137202Y-114303671D01*
X100086908Y-114438517D01*
X100081315Y-114490543D01*
X100080501Y-114498123D01*
X100080500Y-114498135D01*
X100080500Y-116101870D01*
X85007261Y-116101870D01*
X85029674Y-116079457D01*
X85155579Y-115899646D01*
X85248347Y-115700703D01*
X85305161Y-115488674D01*
X85324292Y-115270000D01*
X85305161Y-115051326D01*
X85248347Y-114839297D01*
X85155579Y-114640354D01*
X85155577Y-114640351D01*
X85155576Y-114640349D01*
X85029677Y-114460547D01*
X85029672Y-114460541D01*
X84874458Y-114305327D01*
X84874452Y-114305322D01*
X84694650Y-114179423D01*
X84694642Y-114179419D01*
X84495708Y-114086655D01*
X84495706Y-114086654D01*
X84495703Y-114086653D01*
X84324237Y-114040708D01*
X84283675Y-114029839D01*
X84283668Y-114029838D01*
X84065002Y-114010708D01*
X84064998Y-114010708D01*
X83846331Y-114029838D01*
X83846324Y-114029839D01*
X83734370Y-114059838D01*
X83634297Y-114086653D01*
X83634295Y-114086653D01*
X83634291Y-114086655D01*
X83435357Y-114179419D01*
X83435349Y-114179423D01*
X83255547Y-114305322D01*
X83255541Y-114305327D01*
X83100327Y-114460541D01*
X83100322Y-114460547D01*
X82974423Y-114640349D01*
X82974419Y-114640357D01*
X82881655Y-114839291D01*
X82881653Y-114839295D01*
X82881653Y-114839297D01*
X82857642Y-114928902D01*
X82824839Y-115051324D01*
X82824838Y-115051331D01*
X82805708Y-115269997D01*
X82805708Y-115270002D01*
X82019500Y-115270002D01*
X82019499Y-114468128D01*
X82013091Y-114408517D01*
X81974603Y-114305326D01*
X81962797Y-114273671D01*
X81962793Y-114273664D01*
X81876547Y-114158455D01*
X81876544Y-114158452D01*
X81761335Y-114072206D01*
X81761328Y-114072202D01*
X81626482Y-114021908D01*
X81626483Y-114021908D01*
X81566883Y-114015501D01*
X81566881Y-114015500D01*
X81566873Y-114015500D01*
X81566864Y-114015500D01*
X79963129Y-114015500D01*
X79963123Y-114015501D01*
X79903516Y-114021908D01*
X79768671Y-114072202D01*
X79768664Y-114072206D01*
X79653455Y-114158452D01*
X79653452Y-114158455D01*
X79567206Y-114273664D01*
X79567202Y-114273671D01*
X79516908Y-114408517D01*
X79511315Y-114460543D01*
X79510501Y-114468123D01*
X79510500Y-114468135D01*
X79510500Y-116071870D01*
X67485853Y-116071870D01*
X64895725Y-113801870D01*
X191245500Y-113801870D01*
X191245501Y-113801876D01*
X191251908Y-113861483D01*
X191302202Y-113996328D01*
X191302206Y-113996335D01*
X191388452Y-114111544D01*
X191388455Y-114111547D01*
X191503664Y-114197793D01*
X191503671Y-114197797D01*
X191638517Y-114248091D01*
X191638516Y-114248091D01*
X191645444Y-114248835D01*
X191698127Y-114254500D01*
X193301872Y-114254499D01*
X193361483Y-114248091D01*
X193496331Y-114197796D01*
X193611546Y-114111546D01*
X193697796Y-113996331D01*
X193748091Y-113861483D01*
X193754500Y-113801873D01*
X193754499Y-112198128D01*
X193748091Y-112138517D01*
X193697796Y-112003669D01*
X193697795Y-112003668D01*
X193697793Y-112003664D01*
X193611547Y-111888455D01*
X193611544Y-111888452D01*
X193496335Y-111802206D01*
X193496328Y-111802202D01*
X193361482Y-111751908D01*
X193361483Y-111751908D01*
X193301883Y-111745501D01*
X193301881Y-111745500D01*
X193301873Y-111745500D01*
X193301864Y-111745500D01*
X191698129Y-111745500D01*
X191698123Y-111745501D01*
X191638516Y-111751908D01*
X191503671Y-111802202D01*
X191503664Y-111802206D01*
X191388455Y-111888452D01*
X191388452Y-111888455D01*
X191302206Y-112003664D01*
X191302202Y-112003671D01*
X191251908Y-112138517D01*
X191245501Y-112198116D01*
X191245501Y-112198123D01*
X191245500Y-112198135D01*
X191245500Y-113801870D01*
X64895725Y-113801870D01*
X61924101Y-111197526D01*
X61921369Y-111194982D01*
X61688734Y-110964650D01*
X61666312Y-110942450D01*
X61661290Y-110936835D01*
X61439925Y-110656721D01*
X61435630Y-110650548D01*
X61249878Y-110345655D01*
X61246355Y-110338991D01*
X61120408Y-110061142D01*
X61098959Y-110013824D01*
X61096271Y-110006783D01*
X60989407Y-109666138D01*
X60987591Y-109658819D01*
X60963009Y-109525541D01*
X60922835Y-109307731D01*
X60921922Y-109300260D01*
X60911170Y-109123622D01*
X60900115Y-108942013D01*
X60900000Y-108938245D01*
X60900000Y-105330000D01*
X160244341Y-105330000D01*
X160264936Y-105565403D01*
X160264938Y-105565413D01*
X160326094Y-105793655D01*
X160326096Y-105793659D01*
X160326097Y-105793663D01*
X160408978Y-105971401D01*
X160425965Y-106007830D01*
X160425967Y-106007834D01*
X160517456Y-106138493D01*
X160561505Y-106201401D01*
X160728599Y-106368495D01*
X160823665Y-106435061D01*
X160922165Y-106504032D01*
X160922167Y-106504033D01*
X160922170Y-106504035D01*
X161136337Y-106603903D01*
X161364592Y-106665063D01*
X161552918Y-106681539D01*
X161599999Y-106685659D01*
X161600000Y-106685659D01*
X161600001Y-106685659D01*
X161639234Y-106682226D01*
X161835408Y-106665063D01*
X162063663Y-106603903D01*
X162277830Y-106504035D01*
X162471401Y-106368495D01*
X162638495Y-106201401D01*
X162774035Y-106007830D01*
X162873903Y-105793663D01*
X162935063Y-105565408D01*
X162955659Y-105330000D01*
X162935063Y-105094592D01*
X162873903Y-104866337D01*
X162774035Y-104652171D01*
X162638495Y-104458599D01*
X162638494Y-104458597D01*
X162471402Y-104291506D01*
X162471396Y-104291501D01*
X162285842Y-104161575D01*
X162242217Y-104106998D01*
X162235023Y-104037500D01*
X162266546Y-103975145D01*
X162285842Y-103958425D01*
X162332197Y-103925967D01*
X162471401Y-103828495D01*
X162638495Y-103661401D01*
X162774035Y-103467830D01*
X162873903Y-103253663D01*
X162935063Y-103025408D01*
X162955659Y-102790000D01*
X162935063Y-102554592D01*
X162873903Y-102326337D01*
X162774035Y-102112171D01*
X162695843Y-102000500D01*
X162638494Y-101918597D01*
X162471402Y-101751506D01*
X162471395Y-101751501D01*
X162277834Y-101615967D01*
X162277830Y-101615965D01*
X162277828Y-101615964D01*
X162063663Y-101516097D01*
X162063659Y-101516096D01*
X162063655Y-101516094D01*
X161835413Y-101454938D01*
X161835403Y-101454936D01*
X161600001Y-101434341D01*
X161599999Y-101434341D01*
X161364596Y-101454936D01*
X161364586Y-101454938D01*
X161136344Y-101516094D01*
X161136335Y-101516098D01*
X160922171Y-101615964D01*
X160922169Y-101615965D01*
X160728597Y-101751505D01*
X160561505Y-101918597D01*
X160425965Y-102112169D01*
X160425964Y-102112171D01*
X160326098Y-102326335D01*
X160326094Y-102326344D01*
X160264938Y-102554586D01*
X160264936Y-102554596D01*
X160244341Y-102789999D01*
X160244341Y-102790000D01*
X160264936Y-103025403D01*
X160264938Y-103025413D01*
X160326094Y-103253655D01*
X160326096Y-103253659D01*
X160326097Y-103253663D01*
X160425965Y-103467830D01*
X160425967Y-103467834D01*
X160561501Y-103661395D01*
X160561506Y-103661402D01*
X160728597Y-103828493D01*
X160728603Y-103828498D01*
X160914158Y-103958425D01*
X160957783Y-104013002D01*
X160964977Y-104082500D01*
X160933454Y-104144855D01*
X160914158Y-104161575D01*
X160728597Y-104291505D01*
X160561505Y-104458597D01*
X160425965Y-104652169D01*
X160425964Y-104652171D01*
X160326098Y-104866335D01*
X160326094Y-104866344D01*
X160264938Y-105094586D01*
X160264936Y-105094596D01*
X160244341Y-105329999D01*
X160244341Y-105330000D01*
X60900000Y-105330000D01*
X60900000Y-101100000D01*
X151194540Y-101100000D01*
X151214326Y-101288256D01*
X151214327Y-101288259D01*
X151272818Y-101468277D01*
X151272821Y-101468284D01*
X151367467Y-101632216D01*
X151474872Y-101751501D01*
X151494129Y-101772888D01*
X151647265Y-101884148D01*
X151647270Y-101884151D01*
X151820192Y-101961142D01*
X151820197Y-101961144D01*
X152005354Y-102000500D01*
X152005355Y-102000500D01*
X152194644Y-102000500D01*
X152194646Y-102000500D01*
X152379803Y-101961144D01*
X152552730Y-101884151D01*
X152705871Y-101772888D01*
X152832533Y-101632216D01*
X152927179Y-101468284D01*
X152985674Y-101288256D01*
X153005460Y-101100000D01*
X152985674Y-100911744D01*
X152927179Y-100731716D01*
X152832533Y-100567784D01*
X152705871Y-100427112D01*
X152705870Y-100427111D01*
X152552734Y-100315851D01*
X152552729Y-100315848D01*
X152379807Y-100238857D01*
X152379802Y-100238855D01*
X152234001Y-100207865D01*
X152194646Y-100199500D01*
X152005354Y-100199500D01*
X151972897Y-100206398D01*
X151820197Y-100238855D01*
X151820192Y-100238857D01*
X151647270Y-100315848D01*
X151647265Y-100315851D01*
X151494129Y-100427111D01*
X151367466Y-100567785D01*
X151272821Y-100731715D01*
X151272818Y-100731722D01*
X151214327Y-100911740D01*
X151214326Y-100911744D01*
X151194540Y-101100000D01*
X60900000Y-101100000D01*
X60900000Y-97637170D01*
X64314600Y-97637170D01*
X64314601Y-97637176D01*
X64321008Y-97696783D01*
X64371302Y-97831628D01*
X64371306Y-97831635D01*
X64457552Y-97946844D01*
X64457555Y-97946847D01*
X64572764Y-98033093D01*
X64572771Y-98033097D01*
X64707617Y-98083391D01*
X64707616Y-98083391D01*
X64714544Y-98084135D01*
X64767227Y-98089800D01*
X66361572Y-98089799D01*
X66421183Y-98083391D01*
X66556031Y-98033096D01*
X66671246Y-97946846D01*
X66757496Y-97831631D01*
X66761833Y-97820002D01*
X130640708Y-97820002D01*
X130659350Y-98033093D01*
X130659839Y-98038674D01*
X130716653Y-98250703D01*
X130716654Y-98250706D01*
X130716655Y-98250708D01*
X130809419Y-98449642D01*
X130809423Y-98449650D01*
X130935322Y-98629452D01*
X130935327Y-98629458D01*
X131090541Y-98784672D01*
X131090547Y-98784677D01*
X131270349Y-98910576D01*
X131270351Y-98910577D01*
X131270354Y-98910579D01*
X131469297Y-99003347D01*
X131681326Y-99060161D01*
X131837521Y-99073826D01*
X131899998Y-99079292D01*
X131900000Y-99079292D01*
X131900002Y-99079292D01*
X131954668Y-99074509D01*
X132118674Y-99060161D01*
X132330703Y-99003347D01*
X132529646Y-98910579D01*
X132709457Y-98784674D01*
X132864674Y-98629457D01*
X132990579Y-98449646D01*
X133083347Y-98250703D01*
X133140161Y-98038674D01*
X133158274Y-97831635D01*
X133159292Y-97820002D01*
X133159292Y-97819997D01*
X133149668Y-97710000D01*
X160244341Y-97710000D01*
X160264936Y-97945403D01*
X160264938Y-97945413D01*
X160326094Y-98173655D01*
X160326096Y-98173659D01*
X160326097Y-98173663D01*
X160362024Y-98250708D01*
X160425965Y-98387830D01*
X160425967Y-98387834D01*
X160534281Y-98542521D01*
X160561505Y-98581401D01*
X160728599Y-98748495D01*
X160825384Y-98816265D01*
X160922165Y-98884032D01*
X160922167Y-98884033D01*
X160922170Y-98884035D01*
X161136337Y-98983903D01*
X161364592Y-99045063D01*
X161537148Y-99060160D01*
X161599999Y-99065659D01*
X161600000Y-99065659D01*
X161600001Y-99065659D01*
X161639234Y-99062226D01*
X161835408Y-99045063D01*
X162063663Y-98983903D01*
X162277830Y-98884035D01*
X162471401Y-98748495D01*
X162638495Y-98581401D01*
X162774035Y-98387830D01*
X162873903Y-98173663D01*
X162935063Y-97945408D01*
X162955659Y-97710000D01*
X162935063Y-97474592D01*
X162873903Y-97246337D01*
X162774035Y-97032171D01*
X162650208Y-96855326D01*
X162638494Y-96838597D01*
X162471402Y-96671506D01*
X162471396Y-96671501D01*
X162285842Y-96541575D01*
X162242217Y-96486998D01*
X162235023Y-96417500D01*
X162266546Y-96355145D01*
X162285842Y-96338425D01*
X162318255Y-96315729D01*
X162471401Y-96208495D01*
X162638495Y-96041401D01*
X162774035Y-95847830D01*
X162873903Y-95633663D01*
X162935063Y-95405408D01*
X162955659Y-95170000D01*
X162935063Y-94934592D01*
X162873903Y-94706337D01*
X162774035Y-94492171D01*
X162638495Y-94298599D01*
X162638494Y-94298597D01*
X162471402Y-94131506D01*
X162471396Y-94131501D01*
X162285842Y-94001575D01*
X162242217Y-93946998D01*
X162235023Y-93877500D01*
X162266546Y-93815145D01*
X162285842Y-93798425D01*
X162329602Y-93767784D01*
X162471401Y-93668495D01*
X162638495Y-93501401D01*
X162774035Y-93307830D01*
X162873903Y-93093663D01*
X162935063Y-92865408D01*
X162955659Y-92630000D01*
X162935063Y-92394592D01*
X162880000Y-92189090D01*
X162873905Y-92166344D01*
X162873904Y-92166343D01*
X162873903Y-92166337D01*
X162774035Y-91952171D01*
X162639476Y-91759999D01*
X162638494Y-91758597D01*
X162471402Y-91591506D01*
X162471396Y-91591501D01*
X162285842Y-91461575D01*
X162242217Y-91406998D01*
X162235023Y-91337500D01*
X162266546Y-91275145D01*
X162285842Y-91258425D01*
X162342621Y-91218668D01*
X162471401Y-91128495D01*
X162638495Y-90961401D01*
X162774035Y-90767830D01*
X162873903Y-90553663D01*
X162935063Y-90325408D01*
X162955659Y-90090000D01*
X162935063Y-89854592D01*
X162873903Y-89626337D01*
X162774035Y-89412171D01*
X162672936Y-89267785D01*
X162638494Y-89218597D01*
X162471402Y-89051506D01*
X162471395Y-89051501D01*
X162277834Y-88915967D01*
X162277830Y-88915965D01*
X162242521Y-88899500D01*
X162063663Y-88816097D01*
X162063659Y-88816096D01*
X162063655Y-88816094D01*
X161835413Y-88754938D01*
X161835403Y-88754936D01*
X161600001Y-88734341D01*
X161599999Y-88734341D01*
X161364596Y-88754936D01*
X161364586Y-88754938D01*
X161136344Y-88816094D01*
X161136335Y-88816098D01*
X160922171Y-88915964D01*
X160922169Y-88915965D01*
X160728597Y-89051505D01*
X160561505Y-89218597D01*
X160425965Y-89412169D01*
X160425964Y-89412171D01*
X160326098Y-89626335D01*
X160326094Y-89626344D01*
X160264938Y-89854586D01*
X160264936Y-89854596D01*
X160244341Y-90089999D01*
X160244341Y-90090000D01*
X160264936Y-90325403D01*
X160264938Y-90325413D01*
X160326094Y-90553655D01*
X160326096Y-90553659D01*
X160326097Y-90553663D01*
X160416374Y-90747263D01*
X160425965Y-90767830D01*
X160425967Y-90767834D01*
X160561501Y-90961395D01*
X160561506Y-90961402D01*
X160728597Y-91128493D01*
X160728603Y-91128498D01*
X160914158Y-91258425D01*
X160957783Y-91313002D01*
X160964977Y-91382500D01*
X160933454Y-91444855D01*
X160914158Y-91461575D01*
X160728597Y-91591505D01*
X160561505Y-91758597D01*
X160425965Y-91952169D01*
X160425964Y-91952171D01*
X160326098Y-92166335D01*
X160326094Y-92166344D01*
X160264938Y-92394586D01*
X160264936Y-92394596D01*
X160244341Y-92629999D01*
X160244341Y-92630000D01*
X160264936Y-92865403D01*
X160264938Y-92865413D01*
X160326094Y-93093655D01*
X160326096Y-93093659D01*
X160326097Y-93093663D01*
X160380738Y-93210841D01*
X160425965Y-93307830D01*
X160425967Y-93307834D01*
X160561501Y-93501395D01*
X160561506Y-93501402D01*
X160728597Y-93668493D01*
X160728603Y-93668498D01*
X160914158Y-93798425D01*
X160957783Y-93853002D01*
X160964977Y-93922500D01*
X160933454Y-93984855D01*
X160914158Y-94001575D01*
X160728597Y-94131505D01*
X160561505Y-94298597D01*
X160425965Y-94492169D01*
X160425964Y-94492171D01*
X160326098Y-94706335D01*
X160326094Y-94706344D01*
X160264938Y-94934586D01*
X160264936Y-94934596D01*
X160244341Y-95169999D01*
X160244341Y-95170000D01*
X160264936Y-95405403D01*
X160264938Y-95405413D01*
X160326094Y-95633655D01*
X160326096Y-95633659D01*
X160326097Y-95633663D01*
X160372490Y-95733152D01*
X160425965Y-95847830D01*
X160425967Y-95847834D01*
X160561501Y-96041395D01*
X160561506Y-96041402D01*
X160728597Y-96208493D01*
X160728603Y-96208498D01*
X160914158Y-96338425D01*
X160957783Y-96393002D01*
X160964977Y-96462500D01*
X160933454Y-96524855D01*
X160914158Y-96541575D01*
X160728597Y-96671505D01*
X160561505Y-96838597D01*
X160425965Y-97032169D01*
X160425964Y-97032171D01*
X160326098Y-97246335D01*
X160326094Y-97246344D01*
X160264938Y-97474586D01*
X160264936Y-97474596D01*
X160244341Y-97709999D01*
X160244341Y-97710000D01*
X133149668Y-97710000D01*
X133140161Y-97601331D01*
X133140161Y-97601326D01*
X133083347Y-97389297D01*
X132990579Y-97190354D01*
X132990577Y-97190351D01*
X132990576Y-97190349D01*
X132864677Y-97010547D01*
X132864672Y-97010541D01*
X132709458Y-96855327D01*
X132709452Y-96855322D01*
X132529650Y-96729423D01*
X132529642Y-96729419D01*
X132330708Y-96636655D01*
X132330706Y-96636654D01*
X132330703Y-96636653D01*
X132179885Y-96596240D01*
X132118675Y-96579839D01*
X132118668Y-96579838D01*
X131900002Y-96560708D01*
X131899998Y-96560708D01*
X131681331Y-96579838D01*
X131681324Y-96579839D01*
X131558902Y-96612642D01*
X131469297Y-96636653D01*
X131469295Y-96636653D01*
X131469291Y-96636655D01*
X131270357Y-96729419D01*
X131270349Y-96729423D01*
X131090547Y-96855322D01*
X131090541Y-96855327D01*
X130935327Y-97010541D01*
X130935322Y-97010547D01*
X130809423Y-97190349D01*
X130809419Y-97190357D01*
X130716655Y-97389291D01*
X130659839Y-97601324D01*
X130659838Y-97601331D01*
X130640708Y-97819997D01*
X130640708Y-97820002D01*
X66761833Y-97820002D01*
X66807791Y-97696783D01*
X66814200Y-97637173D01*
X66814199Y-96042828D01*
X66807791Y-95983217D01*
X66757496Y-95848369D01*
X66757495Y-95848368D01*
X66757493Y-95848364D01*
X66671247Y-95733155D01*
X66671244Y-95733152D01*
X66556035Y-95646906D01*
X66556028Y-95646902D01*
X66421182Y-95596608D01*
X66421183Y-95596608D01*
X66361583Y-95590201D01*
X66361581Y-95590200D01*
X66361573Y-95590200D01*
X66361564Y-95590200D01*
X64767229Y-95590200D01*
X64767223Y-95590201D01*
X64707616Y-95596608D01*
X64572771Y-95646902D01*
X64572764Y-95646906D01*
X64457555Y-95733152D01*
X64457552Y-95733155D01*
X64371306Y-95848364D01*
X64371302Y-95848371D01*
X64321008Y-95983217D01*
X64314754Y-96041395D01*
X64314601Y-96042823D01*
X64314600Y-96042835D01*
X64314600Y-97637170D01*
X60900000Y-97637170D01*
X60900000Y-94800001D01*
X77994390Y-94800001D01*
X78014804Y-95085433D01*
X78075628Y-95365037D01*
X78075630Y-95365043D01*
X78075631Y-95365046D01*
X78162000Y-95596609D01*
X78175635Y-95633166D01*
X78312770Y-95884309D01*
X78312775Y-95884317D01*
X78484254Y-96113387D01*
X78484270Y-96113405D01*
X78686594Y-96315729D01*
X78686612Y-96315745D01*
X78915682Y-96487224D01*
X78915690Y-96487229D01*
X79166833Y-96624364D01*
X79166832Y-96624364D01*
X79166836Y-96624365D01*
X79166839Y-96624367D01*
X79434954Y-96724369D01*
X79434960Y-96724370D01*
X79434962Y-96724371D01*
X79714566Y-96785195D01*
X79714568Y-96785195D01*
X79714572Y-96785196D01*
X79968220Y-96803337D01*
X79999999Y-96805610D01*
X80000000Y-96805610D01*
X80000001Y-96805610D01*
X80028595Y-96803564D01*
X80285428Y-96785196D01*
X80541832Y-96729419D01*
X80565037Y-96724371D01*
X80565037Y-96724370D01*
X80565046Y-96724369D01*
X80833161Y-96624367D01*
X81084315Y-96487226D01*
X81313395Y-96315739D01*
X81515739Y-96113395D01*
X81687226Y-95884315D01*
X81824367Y-95633161D01*
X81924369Y-95365046D01*
X81933761Y-95321870D01*
X130645500Y-95321870D01*
X130645501Y-95321876D01*
X130651908Y-95381483D01*
X130702202Y-95516328D01*
X130702206Y-95516335D01*
X130788452Y-95631544D01*
X130788455Y-95631547D01*
X130903664Y-95717793D01*
X130903671Y-95717797D01*
X131038517Y-95768091D01*
X131038516Y-95768091D01*
X131045444Y-95768835D01*
X131098127Y-95774500D01*
X132701872Y-95774499D01*
X132761483Y-95768091D01*
X132896331Y-95717796D01*
X133011546Y-95631546D01*
X133097796Y-95516331D01*
X133148091Y-95381483D01*
X133154500Y-95321873D01*
X133154499Y-94300000D01*
X147694540Y-94300000D01*
X147714326Y-94488256D01*
X147714327Y-94488259D01*
X147772818Y-94668277D01*
X147772821Y-94668284D01*
X147867467Y-94832216D01*
X147959642Y-94934586D01*
X147994129Y-94972888D01*
X148147265Y-95084148D01*
X148147270Y-95084151D01*
X148320192Y-95161142D01*
X148320197Y-95161144D01*
X148505354Y-95200500D01*
X148505355Y-95200500D01*
X148694644Y-95200500D01*
X148694646Y-95200500D01*
X148879803Y-95161144D01*
X149052730Y-95084151D01*
X149205871Y-94972888D01*
X149332533Y-94832216D01*
X149427179Y-94668284D01*
X149485674Y-94488256D01*
X149505460Y-94300000D01*
X149485674Y-94111744D01*
X149427179Y-93931716D01*
X149332533Y-93767784D01*
X149205871Y-93627112D01*
X149205870Y-93627111D01*
X149052734Y-93515851D01*
X149052729Y-93515848D01*
X148879807Y-93438857D01*
X148879802Y-93438855D01*
X148734001Y-93407865D01*
X148694646Y-93399500D01*
X148505354Y-93399500D01*
X148472897Y-93406398D01*
X148320197Y-93438855D01*
X148320192Y-93438857D01*
X148147270Y-93515848D01*
X148147265Y-93515851D01*
X147994129Y-93627111D01*
X147867466Y-93767785D01*
X147772821Y-93931715D01*
X147772818Y-93931722D01*
X147750122Y-94001575D01*
X147714326Y-94111744D01*
X147694540Y-94300000D01*
X133154499Y-94300000D01*
X133154499Y-93718128D01*
X133148091Y-93658517D01*
X133136377Y-93627111D01*
X133097797Y-93523671D01*
X133097793Y-93523664D01*
X133011547Y-93408455D01*
X133011544Y-93408452D01*
X132896335Y-93322206D01*
X132896328Y-93322202D01*
X132761482Y-93271908D01*
X132761483Y-93271908D01*
X132701883Y-93265501D01*
X132701881Y-93265500D01*
X132701873Y-93265500D01*
X132701864Y-93265500D01*
X131098129Y-93265500D01*
X131098123Y-93265501D01*
X131038516Y-93271908D01*
X130903671Y-93322202D01*
X130903664Y-93322206D01*
X130788455Y-93408452D01*
X130788452Y-93408455D01*
X130702206Y-93523664D01*
X130702202Y-93523671D01*
X130651908Y-93658517D01*
X130645762Y-93715690D01*
X130645501Y-93718123D01*
X130645500Y-93718135D01*
X130645500Y-95321870D01*
X81933761Y-95321870D01*
X81968725Y-95161144D01*
X81985195Y-95085433D01*
X81985195Y-95085432D01*
X81985196Y-95085428D01*
X82005610Y-94800000D01*
X81985196Y-94514572D01*
X81979471Y-94488256D01*
X81924371Y-94234962D01*
X81924370Y-94234960D01*
X81924369Y-94234954D01*
X81824367Y-93966839D01*
X81805188Y-93931716D01*
X81687229Y-93715690D01*
X81687224Y-93715682D01*
X81515745Y-93486612D01*
X81515729Y-93486594D01*
X81313405Y-93284270D01*
X81313387Y-93284254D01*
X81084317Y-93112775D01*
X81084309Y-93112770D01*
X80833166Y-92975635D01*
X80833167Y-92975635D01*
X80725915Y-92935632D01*
X80565046Y-92875631D01*
X80565043Y-92875630D01*
X80565037Y-92875628D01*
X80285433Y-92814804D01*
X80000001Y-92794390D01*
X79999999Y-92794390D01*
X79714566Y-92814804D01*
X79434962Y-92875628D01*
X79166833Y-92975635D01*
X78915690Y-93112770D01*
X78915682Y-93112775D01*
X78686612Y-93284254D01*
X78686594Y-93284270D01*
X78484270Y-93486594D01*
X78484254Y-93486612D01*
X78312775Y-93715682D01*
X78312770Y-93715690D01*
X78175635Y-93966833D01*
X78075628Y-94234962D01*
X78014804Y-94514566D01*
X77994390Y-94799998D01*
X77994390Y-94800001D01*
X60900000Y-94800001D01*
X60900000Y-91760000D01*
X64309826Y-91760000D01*
X64328885Y-91977849D01*
X64328887Y-91977859D01*
X64385483Y-92189082D01*
X64385485Y-92189086D01*
X64385486Y-92189090D01*
X64420720Y-92264650D01*
X64477906Y-92387286D01*
X64477907Y-92387287D01*
X64603341Y-92566425D01*
X64757975Y-92721059D01*
X64937113Y-92846493D01*
X65135310Y-92938914D01*
X65346546Y-92995514D01*
X65520829Y-93010762D01*
X65564399Y-93014574D01*
X65564400Y-93014574D01*
X65564401Y-93014574D01*
X65600709Y-93011397D01*
X65782254Y-92995514D01*
X65993490Y-92938914D01*
X66191687Y-92846493D01*
X66370825Y-92721059D01*
X66525459Y-92566425D01*
X66650893Y-92387287D01*
X66743314Y-92189090D01*
X66799914Y-91977854D01*
X66806725Y-91900000D01*
X100117935Y-91900000D01*
X100138156Y-92131132D01*
X100138158Y-92131142D01*
X100198205Y-92355243D01*
X100198207Y-92355247D01*
X100198208Y-92355251D01*
X100216553Y-92394592D01*
X100296263Y-92565532D01*
X100296891Y-92566429D01*
X100429345Y-92755592D01*
X100593408Y-92919655D01*
X100783467Y-93052736D01*
X100993749Y-93150792D01*
X101217863Y-93210843D01*
X101402772Y-93227020D01*
X101448999Y-93231065D01*
X101449000Y-93231065D01*
X101449001Y-93231065D01*
X101487522Y-93227694D01*
X101680137Y-93210843D01*
X101904251Y-93150792D01*
X102114533Y-93052736D01*
X102304592Y-92919655D01*
X102468655Y-92755592D01*
X102601736Y-92565533D01*
X102699792Y-92355251D01*
X102759843Y-92131137D01*
X102780065Y-91900000D01*
X105197935Y-91900000D01*
X105218156Y-92131132D01*
X105218158Y-92131142D01*
X105278205Y-92355243D01*
X105278207Y-92355247D01*
X105278208Y-92355251D01*
X105296553Y-92394592D01*
X105376263Y-92565532D01*
X105376891Y-92566429D01*
X105509345Y-92755592D01*
X105673408Y-92919655D01*
X105863467Y-93052736D01*
X106073749Y-93150792D01*
X106297863Y-93210843D01*
X106482772Y-93227020D01*
X106528999Y-93231065D01*
X106529000Y-93231065D01*
X106529001Y-93231065D01*
X106567522Y-93227694D01*
X106760137Y-93210843D01*
X106984251Y-93150792D01*
X107194533Y-93052736D01*
X107384592Y-92919655D01*
X107548655Y-92755592D01*
X107681736Y-92565533D01*
X107779792Y-92355251D01*
X107839843Y-92131137D01*
X107860065Y-91900000D01*
X107839843Y-91668863D01*
X107782797Y-91455965D01*
X107779794Y-91444756D01*
X107779793Y-91444755D01*
X107779792Y-91444749D01*
X107681736Y-91234468D01*
X107681734Y-91234465D01*
X107681733Y-91234463D01*
X107548654Y-91044406D01*
X107384596Y-90880349D01*
X107384592Y-90880345D01*
X107194533Y-90747264D01*
X107194534Y-90747264D01*
X107194532Y-90747263D01*
X107089392Y-90698236D01*
X106984251Y-90649208D01*
X106984247Y-90649207D01*
X106984243Y-90649205D01*
X106760142Y-90589158D01*
X106760132Y-90589156D01*
X106529001Y-90568935D01*
X106528999Y-90568935D01*
X106297867Y-90589156D01*
X106297857Y-90589158D01*
X106073756Y-90649205D01*
X106073747Y-90649209D01*
X105863467Y-90747264D01*
X105863463Y-90747266D01*
X105673406Y-90880345D01*
X105509345Y-91044406D01*
X105376266Y-91234463D01*
X105376264Y-91234467D01*
X105278209Y-91444747D01*
X105278205Y-91444756D01*
X105218158Y-91668857D01*
X105218156Y-91668867D01*
X105197935Y-91899999D01*
X105197935Y-91900000D01*
X102780065Y-91900000D01*
X102759843Y-91668863D01*
X102702797Y-91455965D01*
X102699794Y-91444756D01*
X102699793Y-91444755D01*
X102699792Y-91444749D01*
X102601736Y-91234468D01*
X102601734Y-91234465D01*
X102601733Y-91234463D01*
X102468654Y-91044406D01*
X102304596Y-90880349D01*
X102304592Y-90880345D01*
X102114533Y-90747264D01*
X102114534Y-90747264D01*
X102114532Y-90747263D01*
X102009392Y-90698236D01*
X101904251Y-90649208D01*
X101904247Y-90649207D01*
X101904243Y-90649205D01*
X101680142Y-90589158D01*
X101680132Y-90589156D01*
X101449001Y-90568935D01*
X101448999Y-90568935D01*
X101217867Y-90589156D01*
X101217857Y-90589158D01*
X100993756Y-90649205D01*
X100993747Y-90649209D01*
X100783467Y-90747264D01*
X100783463Y-90747266D01*
X100593406Y-90880345D01*
X100429345Y-91044406D01*
X100296266Y-91234463D01*
X100296264Y-91234467D01*
X100198209Y-91444747D01*
X100198205Y-91444756D01*
X100138158Y-91668857D01*
X100138156Y-91668867D01*
X100117935Y-91899999D01*
X100117935Y-91900000D01*
X66806725Y-91900000D01*
X66818974Y-91760000D01*
X66818851Y-91758599D01*
X66808038Y-91635000D01*
X66799914Y-91542146D01*
X66743314Y-91330910D01*
X66650893Y-91132713D01*
X66525459Y-90953575D01*
X66370825Y-90798941D01*
X66191687Y-90673507D01*
X66191688Y-90673507D01*
X66191686Y-90673506D01*
X66039751Y-90602658D01*
X65993490Y-90581086D01*
X65993486Y-90581085D01*
X65993482Y-90581083D01*
X65782259Y-90524487D01*
X65782249Y-90524485D01*
X65564401Y-90505426D01*
X65564399Y-90505426D01*
X65346550Y-90524485D01*
X65346540Y-90524487D01*
X65135317Y-90581083D01*
X65135308Y-90581087D01*
X64937113Y-90673506D01*
X64831779Y-90747263D01*
X64757975Y-90798941D01*
X64757973Y-90798942D01*
X64757970Y-90798945D01*
X64603345Y-90953570D01*
X64603342Y-90953573D01*
X64603341Y-90953575D01*
X64567088Y-91005349D01*
X64477906Y-91132713D01*
X64385487Y-91330908D01*
X64385483Y-91330917D01*
X64328887Y-91542140D01*
X64328885Y-91542150D01*
X64309826Y-91759999D01*
X64309826Y-91760000D01*
X60900000Y-91760000D01*
X60900000Y-89800000D01*
X151294540Y-89800000D01*
X151314326Y-89988256D01*
X151314327Y-89988259D01*
X151372818Y-90168277D01*
X151372821Y-90168284D01*
X151467467Y-90332216D01*
X151575009Y-90451653D01*
X151594129Y-90472888D01*
X151747265Y-90584148D01*
X151747270Y-90584151D01*
X151920192Y-90661142D01*
X151920197Y-90661144D01*
X152105354Y-90700500D01*
X152105355Y-90700500D01*
X152294644Y-90700500D01*
X152294646Y-90700500D01*
X152479803Y-90661144D01*
X152652730Y-90584151D01*
X152805871Y-90472888D01*
X152932533Y-90332216D01*
X153027179Y-90168284D01*
X153085674Y-89988256D01*
X153105460Y-89800000D01*
X153085674Y-89611744D01*
X153027179Y-89431716D01*
X152932533Y-89267784D01*
X152805871Y-89127112D01*
X152805870Y-89127111D01*
X152652734Y-89015851D01*
X152652729Y-89015848D01*
X152479807Y-88938857D01*
X152479802Y-88938855D01*
X152334001Y-88907865D01*
X152294646Y-88899500D01*
X152105354Y-88899500D01*
X152072897Y-88906398D01*
X151920197Y-88938855D01*
X151920192Y-88938857D01*
X151747270Y-89015848D01*
X151747265Y-89015851D01*
X151594129Y-89127111D01*
X151467466Y-89267785D01*
X151372821Y-89431715D01*
X151372818Y-89431722D01*
X151314327Y-89611740D01*
X151314326Y-89611744D01*
X151294540Y-89800000D01*
X60900000Y-89800000D01*
X60900000Y-87600000D01*
X108094540Y-87600000D01*
X108114326Y-87788256D01*
X108114327Y-87788259D01*
X108172818Y-87968277D01*
X108172821Y-87968284D01*
X108267467Y-88132216D01*
X108394129Y-88272888D01*
X108547265Y-88384148D01*
X108547270Y-88384151D01*
X108720192Y-88461142D01*
X108720197Y-88461144D01*
X108905354Y-88500500D01*
X108905355Y-88500500D01*
X109094644Y-88500500D01*
X109094646Y-88500500D01*
X109279803Y-88461144D01*
X109452730Y-88384151D01*
X109605871Y-88272888D01*
X109732533Y-88132216D01*
X109827179Y-87968284D01*
X109885674Y-87788256D01*
X109905460Y-87600000D01*
X111394540Y-87600000D01*
X111414326Y-87788256D01*
X111414327Y-87788259D01*
X111472818Y-87968277D01*
X111472821Y-87968284D01*
X111567467Y-88132216D01*
X111694129Y-88272888D01*
X111847265Y-88384148D01*
X111847270Y-88384151D01*
X112020192Y-88461142D01*
X112020197Y-88461144D01*
X112205354Y-88500500D01*
X112205355Y-88500500D01*
X112394644Y-88500500D01*
X112394646Y-88500500D01*
X112579803Y-88461144D01*
X112752730Y-88384151D01*
X112905871Y-88272888D01*
X113032533Y-88132216D01*
X113127179Y-87968284D01*
X113185674Y-87788256D01*
X113205460Y-87600000D01*
X113185674Y-87411744D01*
X113127179Y-87231716D01*
X113032533Y-87067784D01*
X112905871Y-86927112D01*
X112905870Y-86927111D01*
X112752734Y-86815851D01*
X112752729Y-86815848D01*
X112579807Y-86738857D01*
X112579802Y-86738855D01*
X112434001Y-86707865D01*
X112394646Y-86699500D01*
X112205354Y-86699500D01*
X112172897Y-86706398D01*
X112020197Y-86738855D01*
X112020192Y-86738857D01*
X111847270Y-86815848D01*
X111847265Y-86815851D01*
X111694129Y-86927111D01*
X111567466Y-87067785D01*
X111472821Y-87231715D01*
X111472818Y-87231722D01*
X111414327Y-87411740D01*
X111414326Y-87411744D01*
X111394540Y-87600000D01*
X109905460Y-87600000D01*
X109885674Y-87411744D01*
X109827179Y-87231716D01*
X109732533Y-87067784D01*
X109605871Y-86927112D01*
X109605870Y-86927111D01*
X109452734Y-86815851D01*
X109452729Y-86815848D01*
X109279807Y-86738857D01*
X109279802Y-86738855D01*
X109134001Y-86707865D01*
X109094646Y-86699500D01*
X108905354Y-86699500D01*
X108872897Y-86706398D01*
X108720197Y-86738855D01*
X108720192Y-86738857D01*
X108547270Y-86815848D01*
X108547265Y-86815851D01*
X108394129Y-86927111D01*
X108267466Y-87067785D01*
X108172821Y-87231715D01*
X108172818Y-87231722D01*
X108114327Y-87411740D01*
X108114326Y-87411744D01*
X108094540Y-87600000D01*
X60900000Y-87600000D01*
X60900000Y-85800000D01*
X141294540Y-85800000D01*
X141314326Y-85988256D01*
X141314327Y-85988259D01*
X141372818Y-86168277D01*
X141372821Y-86168284D01*
X141467467Y-86332216D01*
X141517945Y-86388277D01*
X141594129Y-86472888D01*
X141747265Y-86584148D01*
X141747270Y-86584151D01*
X141920192Y-86661142D01*
X141920197Y-86661144D01*
X142105354Y-86700500D01*
X142105355Y-86700500D01*
X142294644Y-86700500D01*
X142294646Y-86700500D01*
X142479803Y-86661144D01*
X142652730Y-86584151D01*
X142654776Y-86582664D01*
X142666452Y-86574182D01*
X142732258Y-86550702D01*
X142739337Y-86550500D01*
X145836295Y-86550500D01*
X145854265Y-86551809D01*
X145878023Y-86555289D01*
X145930068Y-86550735D01*
X145935470Y-86550500D01*
X145943704Y-86550500D01*
X145943709Y-86550500D01*
X145955327Y-86549141D01*
X145976276Y-86546693D01*
X145989028Y-86545577D01*
X146052797Y-86539999D01*
X146052805Y-86539996D01*
X146059866Y-86538539D01*
X146059878Y-86538598D01*
X146067243Y-86536965D01*
X146067229Y-86536906D01*
X146074246Y-86535241D01*
X146074255Y-86535241D01*
X146146423Y-86508974D01*
X146219334Y-86484814D01*
X146219343Y-86484807D01*
X146225882Y-86481760D01*
X146225908Y-86481816D01*
X146232690Y-86478532D01*
X146232663Y-86478478D01*
X146239106Y-86475240D01*
X146239117Y-86475237D01*
X146303283Y-86433034D01*
X146368656Y-86392712D01*
X146368662Y-86392705D01*
X146374325Y-86388229D01*
X146374362Y-86388277D01*
X146380204Y-86383518D01*
X146380164Y-86383471D01*
X146385691Y-86378832D01*
X146385696Y-86378830D01*
X146438386Y-86322981D01*
X147751366Y-85010000D01*
X160244341Y-85010000D01*
X160264936Y-85245403D01*
X160264938Y-85245413D01*
X160326094Y-85473655D01*
X160326096Y-85473659D01*
X160326097Y-85473663D01*
X160425965Y-85687830D01*
X160425967Y-85687834D01*
X160504507Y-85800000D01*
X160561505Y-85881401D01*
X160728599Y-86048495D01*
X160825384Y-86116265D01*
X160922165Y-86184032D01*
X160922167Y-86184033D01*
X160922170Y-86184035D01*
X161136337Y-86283903D01*
X161364592Y-86345063D01*
X161552918Y-86361539D01*
X161599999Y-86365659D01*
X161600000Y-86365659D01*
X161600001Y-86365659D01*
X161639234Y-86362226D01*
X161835408Y-86345063D01*
X162063663Y-86283903D01*
X162277830Y-86184035D01*
X162471401Y-86048495D01*
X162638495Y-85881401D01*
X162774035Y-85687830D01*
X162873903Y-85473663D01*
X162935063Y-85245408D01*
X162955659Y-85010000D01*
X162935063Y-84774592D01*
X162873903Y-84546337D01*
X162774035Y-84332171D01*
X162673268Y-84188259D01*
X162638494Y-84138597D01*
X162471402Y-83971506D01*
X162471396Y-83971501D01*
X162285842Y-83841575D01*
X162242217Y-83786998D01*
X162235023Y-83717500D01*
X162266546Y-83655145D01*
X162285842Y-83638425D01*
X162386726Y-83567785D01*
X162471401Y-83508495D01*
X162638495Y-83341401D01*
X162774035Y-83147830D01*
X162873903Y-82933663D01*
X162935063Y-82705408D01*
X162955659Y-82470000D01*
X162935063Y-82234592D01*
X162873903Y-82006337D01*
X162774035Y-81792171D01*
X162748348Y-81755485D01*
X162638494Y-81598597D01*
X162471402Y-81431506D01*
X162471396Y-81431501D01*
X162285842Y-81301575D01*
X162242217Y-81246998D01*
X162235023Y-81177500D01*
X162266546Y-81115145D01*
X162285842Y-81098425D01*
X162380401Y-81032214D01*
X162471401Y-80968495D01*
X162638495Y-80801401D01*
X162774035Y-80607830D01*
X162873903Y-80393663D01*
X162935063Y-80165408D01*
X162955659Y-79930000D01*
X162935063Y-79694592D01*
X162873903Y-79466337D01*
X162774035Y-79252171D01*
X162713024Y-79165037D01*
X162638494Y-79058597D01*
X162471402Y-78891506D01*
X162471396Y-78891501D01*
X162285842Y-78761575D01*
X162242217Y-78706998D01*
X162235023Y-78637500D01*
X162266546Y-78575145D01*
X162285842Y-78558425D01*
X162395286Y-78481791D01*
X162471401Y-78428495D01*
X162638495Y-78261401D01*
X162774035Y-78067830D01*
X162873903Y-77853663D01*
X162935063Y-77625408D01*
X162955659Y-77390000D01*
X162935063Y-77154592D01*
X162873903Y-76926337D01*
X162774035Y-76712171D01*
X162748448Y-76675628D01*
X162638494Y-76518597D01*
X162471402Y-76351506D01*
X162471395Y-76351501D01*
X162277834Y-76215967D01*
X162277830Y-76215965D01*
X162277828Y-76215964D01*
X162063663Y-76116097D01*
X162063659Y-76116096D01*
X162063655Y-76116094D01*
X161835413Y-76054938D01*
X161835403Y-76054936D01*
X161600001Y-76034341D01*
X161599999Y-76034341D01*
X161364596Y-76054936D01*
X161364586Y-76054938D01*
X161136344Y-76116094D01*
X161136335Y-76116098D01*
X160922171Y-76215964D01*
X160922169Y-76215965D01*
X160728597Y-76351505D01*
X160561505Y-76518597D01*
X160425965Y-76712169D01*
X160425964Y-76712171D01*
X160326098Y-76926335D01*
X160326094Y-76926344D01*
X160264938Y-77154586D01*
X160264936Y-77154596D01*
X160244341Y-77389999D01*
X160244341Y-77390000D01*
X160264936Y-77625403D01*
X160264938Y-77625413D01*
X160326094Y-77853655D01*
X160326096Y-77853659D01*
X160326097Y-77853663D01*
X160370004Y-77947822D01*
X160425965Y-78067830D01*
X160425967Y-78067834D01*
X160561501Y-78261395D01*
X160561506Y-78261402D01*
X160728597Y-78428493D01*
X160728603Y-78428498D01*
X160914158Y-78558425D01*
X160957783Y-78613002D01*
X160964977Y-78682500D01*
X160933454Y-78744855D01*
X160914158Y-78761575D01*
X160728597Y-78891505D01*
X160561505Y-79058597D01*
X160425965Y-79252169D01*
X160425964Y-79252171D01*
X160326098Y-79466335D01*
X160326094Y-79466344D01*
X160264938Y-79694586D01*
X160264936Y-79694596D01*
X160244341Y-79929999D01*
X160244341Y-79930000D01*
X160264936Y-80165403D01*
X160264938Y-80165413D01*
X160326094Y-80393655D01*
X160326096Y-80393659D01*
X160326097Y-80393663D01*
X160415410Y-80585195D01*
X160425965Y-80607830D01*
X160425967Y-80607834D01*
X160482280Y-80688256D01*
X160551925Y-80787720D01*
X160561501Y-80801395D01*
X160561506Y-80801402D01*
X160728597Y-80968493D01*
X160728603Y-80968498D01*
X160914158Y-81098425D01*
X160957783Y-81153002D01*
X160964977Y-81222500D01*
X160933454Y-81284855D01*
X160914158Y-81301575D01*
X160728597Y-81431505D01*
X160561505Y-81598597D01*
X160425965Y-81792169D01*
X160425964Y-81792171D01*
X160326098Y-82006335D01*
X160326094Y-82006344D01*
X160264938Y-82234586D01*
X160264936Y-82234596D01*
X160244341Y-82469999D01*
X160244341Y-82470000D01*
X160264936Y-82705403D01*
X160264938Y-82705413D01*
X160326094Y-82933655D01*
X160326096Y-82933659D01*
X160326097Y-82933663D01*
X160390536Y-83071852D01*
X160425965Y-83147830D01*
X160425967Y-83147834D01*
X160561501Y-83341395D01*
X160561506Y-83341402D01*
X160728597Y-83508493D01*
X160728603Y-83508498D01*
X160914158Y-83638425D01*
X160957783Y-83693002D01*
X160964977Y-83762500D01*
X160933454Y-83824855D01*
X160914158Y-83841575D01*
X160728597Y-83971505D01*
X160561505Y-84138597D01*
X160425965Y-84332169D01*
X160425964Y-84332171D01*
X160326098Y-84546335D01*
X160326094Y-84546344D01*
X160264938Y-84774586D01*
X160264936Y-84774596D01*
X160244341Y-85009999D01*
X160244341Y-85010000D01*
X147751366Y-85010000D01*
X151485638Y-81275727D01*
X151499267Y-81263950D01*
X151518530Y-81249610D01*
X151518532Y-81249606D01*
X151518534Y-81249606D01*
X151536663Y-81227999D01*
X151552113Y-81209585D01*
X151555767Y-81205599D01*
X151561589Y-81199778D01*
X151581928Y-81174054D01*
X151599593Y-81153002D01*
X151631302Y-81115214D01*
X151631304Y-81115209D01*
X151635272Y-81109179D01*
X151635323Y-81109212D01*
X151639369Y-81102860D01*
X151639317Y-81102828D01*
X151643109Y-81096679D01*
X151643111Y-81096677D01*
X151675569Y-81027069D01*
X151710040Y-80958433D01*
X151710043Y-80958417D01*
X151712510Y-80951644D01*
X151712568Y-80951665D01*
X151715043Y-80944546D01*
X151714985Y-80944527D01*
X151717256Y-80937672D01*
X151732784Y-80862467D01*
X151747257Y-80801402D01*
X151750500Y-80787721D01*
X151750500Y-80787720D01*
X151751339Y-80780548D01*
X151751397Y-80780554D01*
X151752164Y-80773056D01*
X151752104Y-80773051D01*
X151752733Y-80765860D01*
X151750500Y-80689103D01*
X151750500Y-72310000D01*
X160244341Y-72310000D01*
X160264936Y-72545403D01*
X160264938Y-72545413D01*
X160326094Y-72773655D01*
X160326096Y-72773659D01*
X160326097Y-72773663D01*
X160425965Y-72987830D01*
X160425967Y-72987834D01*
X160534281Y-73142521D01*
X160561505Y-73181401D01*
X160728599Y-73348495D01*
X160825384Y-73416265D01*
X160922165Y-73484032D01*
X160922167Y-73484033D01*
X160922170Y-73484035D01*
X161136337Y-73583903D01*
X161364592Y-73645063D01*
X161552918Y-73661539D01*
X161599999Y-73665659D01*
X161600000Y-73665659D01*
X161600001Y-73665659D01*
X161639234Y-73662226D01*
X161835408Y-73645063D01*
X162063663Y-73583903D01*
X162277830Y-73484035D01*
X162471401Y-73348495D01*
X162638495Y-73181401D01*
X162774035Y-72987830D01*
X162873903Y-72773663D01*
X162935063Y-72545408D01*
X162955659Y-72310000D01*
X162935063Y-72074592D01*
X162873903Y-71846337D01*
X162774035Y-71632171D01*
X162695248Y-71519650D01*
X162638494Y-71438597D01*
X162471402Y-71271506D01*
X162471396Y-71271501D01*
X162285842Y-71141575D01*
X162242217Y-71086998D01*
X162235023Y-71017500D01*
X162266546Y-70955145D01*
X162285842Y-70938425D01*
X162308026Y-70922891D01*
X162471401Y-70808495D01*
X162638495Y-70641401D01*
X162774035Y-70447830D01*
X162873903Y-70233663D01*
X162935063Y-70005408D01*
X162955659Y-69770000D01*
X162955658Y-69769994D01*
X162944235Y-69639426D01*
X162935063Y-69534592D01*
X162873903Y-69306337D01*
X162774035Y-69092171D01*
X162650787Y-68916153D01*
X162638494Y-68898597D01*
X162471402Y-68731506D01*
X162471396Y-68731501D01*
X162285842Y-68601575D01*
X162242217Y-68546998D01*
X162235023Y-68477500D01*
X162266546Y-68415145D01*
X162285842Y-68398425D01*
X162308026Y-68382891D01*
X162471401Y-68268495D01*
X162638495Y-68101401D01*
X162774035Y-67907830D01*
X162873903Y-67693663D01*
X162935063Y-67465408D01*
X162955659Y-67230000D01*
X162935063Y-66994592D01*
X162873903Y-66766337D01*
X162774035Y-66552171D01*
X162638495Y-66358599D01*
X162638494Y-66358597D01*
X162471402Y-66191506D01*
X162471396Y-66191501D01*
X162285842Y-66061575D01*
X162242217Y-66006998D01*
X162235023Y-65937500D01*
X162266546Y-65875145D01*
X162285842Y-65858425D01*
X162308026Y-65842891D01*
X162471401Y-65728495D01*
X162638495Y-65561401D01*
X162774035Y-65367830D01*
X162873903Y-65153663D01*
X162935063Y-64925408D01*
X162955659Y-64690000D01*
X162935063Y-64454592D01*
X162873903Y-64226337D01*
X162774035Y-64012171D01*
X162715115Y-63928023D01*
X162638494Y-63818597D01*
X162471402Y-63651506D01*
X162471395Y-63651501D01*
X162453730Y-63639132D01*
X162380378Y-63587770D01*
X162277834Y-63515967D01*
X162277830Y-63515965D01*
X162277828Y-63515964D01*
X162063663Y-63416097D01*
X162063659Y-63416096D01*
X162063655Y-63416094D01*
X161835413Y-63354938D01*
X161835403Y-63354936D01*
X161600001Y-63334341D01*
X161599999Y-63334341D01*
X161364596Y-63354936D01*
X161364586Y-63354938D01*
X161136344Y-63416094D01*
X161136335Y-63416098D01*
X160922171Y-63515964D01*
X160922169Y-63515965D01*
X160728597Y-63651505D01*
X160561505Y-63818597D01*
X160425965Y-64012169D01*
X160425964Y-64012171D01*
X160326098Y-64226335D01*
X160326094Y-64226344D01*
X160264938Y-64454586D01*
X160264936Y-64454596D01*
X160244341Y-64689999D01*
X160244341Y-64690000D01*
X160264936Y-64925403D01*
X160264938Y-64925413D01*
X160326094Y-65153655D01*
X160326096Y-65153659D01*
X160326097Y-65153663D01*
X160425965Y-65367830D01*
X160425967Y-65367834D01*
X160561501Y-65561395D01*
X160561506Y-65561402D01*
X160728597Y-65728493D01*
X160728603Y-65728498D01*
X160914158Y-65858425D01*
X160957783Y-65913002D01*
X160964977Y-65982500D01*
X160933454Y-66044855D01*
X160914158Y-66061575D01*
X160728597Y-66191505D01*
X160561505Y-66358597D01*
X160425965Y-66552169D01*
X160425964Y-66552171D01*
X160326098Y-66766335D01*
X160326094Y-66766344D01*
X160264938Y-66994586D01*
X160264936Y-66994596D01*
X160244341Y-67229999D01*
X160244341Y-67230000D01*
X160264936Y-67465403D01*
X160264938Y-67465413D01*
X160326094Y-67693655D01*
X160326096Y-67693659D01*
X160326097Y-67693663D01*
X160425965Y-67907830D01*
X160425967Y-67907834D01*
X160561501Y-68101395D01*
X160561506Y-68101402D01*
X160728597Y-68268493D01*
X160728603Y-68268498D01*
X160914158Y-68398425D01*
X160957783Y-68453002D01*
X160964977Y-68522500D01*
X160933454Y-68584855D01*
X160914158Y-68601575D01*
X160728597Y-68731505D01*
X160561505Y-68898597D01*
X160425965Y-69092169D01*
X160425964Y-69092171D01*
X160326098Y-69306335D01*
X160326094Y-69306344D01*
X160264938Y-69534586D01*
X160264936Y-69534596D01*
X160244341Y-69769999D01*
X160244341Y-69770000D01*
X160264936Y-70005403D01*
X160264938Y-70005413D01*
X160326094Y-70233655D01*
X160326096Y-70233659D01*
X160326097Y-70233663D01*
X160342513Y-70268867D01*
X160425965Y-70447830D01*
X160425967Y-70447834D01*
X160561501Y-70641395D01*
X160561506Y-70641402D01*
X160728597Y-70808493D01*
X160728603Y-70808498D01*
X160914158Y-70938425D01*
X160957783Y-70993002D01*
X160964977Y-71062500D01*
X160933454Y-71124855D01*
X160914158Y-71141575D01*
X160728597Y-71271505D01*
X160561505Y-71438597D01*
X160425965Y-71632169D01*
X160425964Y-71632171D01*
X160326098Y-71846335D01*
X160326094Y-71846344D01*
X160264938Y-72074586D01*
X160264936Y-72074596D01*
X160244341Y-72309999D01*
X160244341Y-72310000D01*
X151750500Y-72310000D01*
X151750500Y-68734321D01*
X151767113Y-68672321D01*
X151811197Y-68595965D01*
X151827179Y-68568284D01*
X151885674Y-68388256D01*
X151905460Y-68200000D01*
X151885674Y-68011744D01*
X151827179Y-67831716D01*
X151767113Y-67727677D01*
X151750500Y-67665677D01*
X151750500Y-63462229D01*
X151770185Y-63395190D01*
X151786819Y-63374548D01*
X155551367Y-59610000D01*
X160244341Y-59610000D01*
X160264936Y-59845403D01*
X160264938Y-59845413D01*
X160326094Y-60073655D01*
X160326096Y-60073659D01*
X160326097Y-60073663D01*
X160413295Y-60260660D01*
X160425965Y-60287830D01*
X160425967Y-60287834D01*
X160476095Y-60359423D01*
X160561505Y-60481401D01*
X160728599Y-60648495D01*
X160744082Y-60659336D01*
X160922165Y-60784032D01*
X160922167Y-60784033D01*
X160922170Y-60784035D01*
X161136337Y-60883903D01*
X161136343Y-60883904D01*
X161136344Y-60883905D01*
X161148552Y-60887176D01*
X161364592Y-60945063D01*
X161552918Y-60961539D01*
X161599999Y-60965659D01*
X161600000Y-60965659D01*
X161600001Y-60965659D01*
X161639234Y-60962226D01*
X161835408Y-60945063D01*
X162063663Y-60883903D01*
X162277830Y-60784035D01*
X162471401Y-60648495D01*
X162638495Y-60481401D01*
X162774035Y-60287830D01*
X162801000Y-60230003D01*
X166809723Y-60230003D01*
X166811688Y-60252470D01*
X166811862Y-60260660D01*
X166810709Y-60286324D01*
X166810710Y-60286328D01*
X166810710Y-60286330D01*
X166810998Y-60288454D01*
X166821641Y-60367031D01*
X166821966Y-60369949D01*
X166828792Y-60447972D01*
X166828795Y-60447987D01*
X166835482Y-60472941D01*
X166837034Y-60480670D01*
X166840924Y-60509381D01*
X166840926Y-60509392D01*
X166865075Y-60583713D01*
X166865997Y-60586825D01*
X166885423Y-60659324D01*
X166885427Y-60659336D01*
X166897736Y-60685732D01*
X166900512Y-60692779D01*
X166910483Y-60723464D01*
X166945970Y-60789411D01*
X166947558Y-60792576D01*
X166977898Y-60857639D01*
X166996287Y-60883901D01*
X166996490Y-60884191D01*
X167000303Y-60890378D01*
X167017146Y-60921678D01*
X167017152Y-60921687D01*
X167061792Y-60977663D01*
X167064106Y-60980758D01*
X167090510Y-61018465D01*
X167103402Y-61036877D01*
X167103405Y-61036880D01*
X167128646Y-61062121D01*
X167133283Y-61067309D01*
X167157492Y-61097666D01*
X167208959Y-61142632D01*
X167212008Y-61145483D01*
X167258116Y-61191592D01*
X167258122Y-61191597D01*
X167258123Y-61191598D01*
X167269802Y-61199775D01*
X167290055Y-61213957D01*
X167295290Y-61218057D01*
X167327004Y-61245765D01*
X167327013Y-61245771D01*
X167382849Y-61279131D01*
X167386613Y-61281568D01*
X167437359Y-61317101D01*
X167437364Y-61317104D01*
X167459917Y-61327620D01*
X167475677Y-61334969D01*
X167481271Y-61337935D01*
X167518349Y-61360088D01*
X167520236Y-61361215D01*
X167538828Y-61368192D01*
X167578083Y-61382925D01*
X167582503Y-61384782D01*
X167635670Y-61409575D01*
X167635674Y-61409577D01*
X167666069Y-61417720D01*
X167679677Y-61421366D01*
X167685413Y-61423207D01*
X167702264Y-61429531D01*
X167730976Y-61440307D01*
X167788545Y-61450754D01*
X167793511Y-61451868D01*
X167847023Y-61466207D01*
X167895689Y-61470464D01*
X167901306Y-61471218D01*
X167952453Y-61480500D01*
X168007691Y-61480500D01*
X168013092Y-61480735D01*
X168041548Y-61483225D01*
X168064998Y-61485277D01*
X168065000Y-61485277D01*
X168117992Y-61480640D01*
X168121121Y-61480500D01*
X168121155Y-61480500D01*
X168175172Y-61475638D01*
X168282977Y-61466207D01*
X168283000Y-61466200D01*
X168283475Y-61466117D01*
X168288713Y-61465419D01*
X168289188Y-61465377D01*
X168392997Y-61436726D01*
X168494330Y-61409575D01*
X168494337Y-61409571D01*
X168501254Y-61407053D01*
X168505948Y-61405554D01*
X168506170Y-61405493D01*
X168506181Y-61405487D01*
X168506183Y-61405487D01*
X168600454Y-61360088D01*
X168692639Y-61317102D01*
X168692644Y-61317097D01*
X168697327Y-61314395D01*
X168697400Y-61314522D01*
X168708164Y-61308218D01*
X168708973Y-61307829D01*
X168791156Y-61248118D01*
X168871877Y-61191598D01*
X168872747Y-61190727D01*
X168887550Y-61178084D01*
X168891078Y-61175522D01*
X168959131Y-61104343D01*
X169026598Y-61036877D01*
X169029285Y-61033039D01*
X169041239Y-61018465D01*
X169046629Y-61012828D01*
X169046628Y-61012828D01*
X169046632Y-61012825D01*
X169099164Y-60933241D01*
X169152102Y-60857639D01*
X169155543Y-60850259D01*
X169164432Y-60834364D01*
X169170635Y-60824968D01*
X169206889Y-60740146D01*
X169244575Y-60659330D01*
X169247570Y-60648148D01*
X169253325Y-60631505D01*
X169259103Y-60617988D01*
X169278936Y-60531092D01*
X169301207Y-60447977D01*
X169302887Y-60428766D01*
X169304206Y-60420377D01*
X169304445Y-60419325D01*
X169309191Y-60398537D01*
X169313050Y-60312602D01*
X169320277Y-60230003D01*
X171659723Y-60230003D01*
X171661688Y-60252470D01*
X171661862Y-60260660D01*
X171660709Y-60286324D01*
X171660710Y-60286328D01*
X171660710Y-60286330D01*
X171660998Y-60288454D01*
X171671641Y-60367031D01*
X171671966Y-60369949D01*
X171678792Y-60447972D01*
X171678795Y-60447987D01*
X171685482Y-60472941D01*
X171687034Y-60480670D01*
X171690924Y-60509381D01*
X171690926Y-60509392D01*
X171715075Y-60583713D01*
X171715997Y-60586825D01*
X171735423Y-60659324D01*
X171735427Y-60659336D01*
X171747736Y-60685732D01*
X171750512Y-60692779D01*
X171760483Y-60723464D01*
X171795970Y-60789411D01*
X171797558Y-60792576D01*
X171827898Y-60857639D01*
X171846287Y-60883901D01*
X171846490Y-60884191D01*
X171850303Y-60890378D01*
X171867146Y-60921678D01*
X171867152Y-60921687D01*
X171911792Y-60977663D01*
X171914106Y-60980758D01*
X171940510Y-61018465D01*
X171953402Y-61036877D01*
X171953405Y-61036880D01*
X171978646Y-61062121D01*
X171983283Y-61067309D01*
X172007492Y-61097666D01*
X172058959Y-61142632D01*
X172062008Y-61145483D01*
X172108116Y-61191592D01*
X172108122Y-61191597D01*
X172108123Y-61191598D01*
X172119802Y-61199775D01*
X172140055Y-61213957D01*
X172145290Y-61218057D01*
X172177004Y-61245765D01*
X172177013Y-61245771D01*
X172232849Y-61279131D01*
X172236613Y-61281568D01*
X172287359Y-61317101D01*
X172287364Y-61317104D01*
X172309917Y-61327620D01*
X172325677Y-61334969D01*
X172331271Y-61337935D01*
X172368349Y-61360088D01*
X172370236Y-61361215D01*
X172388828Y-61368192D01*
X172428083Y-61382925D01*
X172432503Y-61384782D01*
X172485670Y-61409575D01*
X172485674Y-61409577D01*
X172516069Y-61417720D01*
X172529677Y-61421366D01*
X172535413Y-61423207D01*
X172552264Y-61429531D01*
X172580976Y-61440307D01*
X172638545Y-61450754D01*
X172643511Y-61451868D01*
X172697023Y-61466207D01*
X172745689Y-61470464D01*
X172751306Y-61471218D01*
X172802453Y-61480500D01*
X172857691Y-61480500D01*
X172863092Y-61480735D01*
X172891548Y-61483225D01*
X172914998Y-61485277D01*
X172915000Y-61485277D01*
X172967992Y-61480640D01*
X172971121Y-61480500D01*
X172971155Y-61480500D01*
X173025172Y-61475638D01*
X173132977Y-61466207D01*
X173133000Y-61466200D01*
X173133475Y-61466117D01*
X173138713Y-61465419D01*
X173139188Y-61465377D01*
X173242997Y-61436726D01*
X173344330Y-61409575D01*
X173344337Y-61409571D01*
X173351254Y-61407053D01*
X173355948Y-61405554D01*
X173356170Y-61405493D01*
X173356181Y-61405487D01*
X173356183Y-61405487D01*
X173450454Y-61360088D01*
X173542639Y-61317102D01*
X173542644Y-61317097D01*
X173547327Y-61314395D01*
X173547400Y-61314522D01*
X173558164Y-61308218D01*
X173558973Y-61307829D01*
X173641156Y-61248118D01*
X173721877Y-61191598D01*
X173722747Y-61190727D01*
X173737550Y-61178084D01*
X173741078Y-61175522D01*
X173809131Y-61104343D01*
X173876598Y-61036877D01*
X173879285Y-61033039D01*
X173891239Y-61018465D01*
X173896629Y-61012828D01*
X173896628Y-61012828D01*
X173896632Y-61012825D01*
X173949164Y-60933241D01*
X174002102Y-60857639D01*
X174005543Y-60850259D01*
X174014432Y-60834364D01*
X174020635Y-60824968D01*
X174056889Y-60740146D01*
X174094575Y-60659330D01*
X174097570Y-60648148D01*
X174103325Y-60631505D01*
X174109103Y-60617988D01*
X174128936Y-60531092D01*
X174151207Y-60447977D01*
X174152887Y-60428766D01*
X174154206Y-60420377D01*
X174154445Y-60419325D01*
X174159191Y-60398537D01*
X174163050Y-60312602D01*
X174170277Y-60230000D01*
X174168310Y-60207528D01*
X174168137Y-60199334D01*
X174168309Y-60195500D01*
X174169290Y-60173670D01*
X174158353Y-60092939D01*
X174158034Y-60090067D01*
X174151207Y-60012023D01*
X174144515Y-59987053D01*
X174142963Y-59979322D01*
X174139076Y-59950618D01*
X174139075Y-59950616D01*
X174139075Y-59950613D01*
X174114921Y-59876276D01*
X174113998Y-59873161D01*
X174094576Y-59800673D01*
X174094574Y-59800669D01*
X174082266Y-59774274D01*
X174079488Y-59767222D01*
X174069519Y-59736541D01*
X174069517Y-59736537D01*
X174069517Y-59736536D01*
X174056988Y-59713253D01*
X174034027Y-59670583D01*
X174032432Y-59667405D01*
X174017338Y-59635036D01*
X174002102Y-59602362D01*
X173983512Y-59575813D01*
X173979698Y-59569625D01*
X173979359Y-59568995D01*
X173962852Y-59538319D01*
X173918192Y-59482318D01*
X173915896Y-59479247D01*
X173876598Y-59423123D01*
X173851353Y-59397878D01*
X173846715Y-59392689D01*
X173822508Y-59362334D01*
X173814866Y-59355657D01*
X173771039Y-59317366D01*
X173767990Y-59314515D01*
X173721878Y-59268402D01*
X173689940Y-59246039D01*
X173684705Y-59241939D01*
X173652996Y-59214235D01*
X173652994Y-59214233D01*
X173652992Y-59214232D01*
X173597149Y-59180868D01*
X173593386Y-59178431D01*
X173542641Y-59142899D01*
X173504333Y-59125035D01*
X173498735Y-59122067D01*
X173459769Y-59098787D01*
X173459767Y-59098786D01*
X173401928Y-59077079D01*
X173397515Y-59075226D01*
X173344330Y-59050425D01*
X173300321Y-59038632D01*
X173294581Y-59036790D01*
X173249025Y-59019692D01*
X173191456Y-59009245D01*
X173186480Y-59008128D01*
X173132977Y-58993793D01*
X173084327Y-58989536D01*
X173078659Y-58988775D01*
X173027551Y-58979500D01*
X173027547Y-58979500D01*
X172972309Y-58979500D01*
X172966907Y-58979264D01*
X172938451Y-58976774D01*
X172915002Y-58974723D01*
X172914997Y-58974723D01*
X172862050Y-58979355D01*
X172858862Y-58979499D01*
X172858851Y-58979500D01*
X172858845Y-58979500D01*
X172812671Y-58983655D01*
X172804826Y-58984361D01*
X172697020Y-58993793D01*
X172696468Y-58993891D01*
X172691275Y-58994581D01*
X172690812Y-58994622D01*
X172690809Y-58994623D01*
X172587002Y-59023273D01*
X172485659Y-59050428D01*
X172478739Y-59052946D01*
X172474050Y-59054444D01*
X172473849Y-59054499D01*
X172473832Y-59054505D01*
X172379528Y-59099919D01*
X172287358Y-59142899D01*
X172282670Y-59145606D01*
X172282598Y-59145481D01*
X172271871Y-59151764D01*
X172271030Y-59152168D01*
X172188831Y-59211889D01*
X172108123Y-59268401D01*
X172107241Y-59269284D01*
X172092461Y-59281906D01*
X172088928Y-59284472D01*
X172088916Y-59284483D01*
X172057477Y-59317366D01*
X172020868Y-59355656D01*
X172001938Y-59374586D01*
X171953403Y-59423120D01*
X171953402Y-59423121D01*
X171950711Y-59426965D01*
X171938773Y-59441521D01*
X171933368Y-59447174D01*
X171912476Y-59478822D01*
X171880828Y-59526768D01*
X171827898Y-59602362D01*
X171827891Y-59602374D01*
X171824457Y-59609738D01*
X171815572Y-59625628D01*
X171809362Y-59635035D01*
X171809362Y-59635036D01*
X171773108Y-59719859D01*
X171735425Y-59800669D01*
X171735424Y-59800671D01*
X171732425Y-59811860D01*
X171726681Y-59828475D01*
X171720899Y-59842005D01*
X171720896Y-59842016D01*
X171701063Y-59928907D01*
X171678793Y-60012022D01*
X171678793Y-60012023D01*
X171677112Y-60031226D01*
X171675793Y-60039625D01*
X171670809Y-60061459D01*
X171670809Y-60061464D01*
X171666949Y-60147397D01*
X171659723Y-60229996D01*
X171659723Y-60230003D01*
X169320277Y-60230003D01*
X169320277Y-60230000D01*
X169318310Y-60207528D01*
X169318137Y-60199334D01*
X169318309Y-60195500D01*
X169319290Y-60173670D01*
X169308353Y-60092939D01*
X169308034Y-60090067D01*
X169301207Y-60012023D01*
X169294515Y-59987053D01*
X169292963Y-59979322D01*
X169289076Y-59950618D01*
X169289075Y-59950616D01*
X169289075Y-59950613D01*
X169264921Y-59876276D01*
X169263998Y-59873161D01*
X169244576Y-59800673D01*
X169244574Y-59800669D01*
X169232266Y-59774274D01*
X169229488Y-59767222D01*
X169219519Y-59736541D01*
X169219517Y-59736537D01*
X169219517Y-59736536D01*
X169206988Y-59713253D01*
X169184027Y-59670583D01*
X169182432Y-59667405D01*
X169167338Y-59635036D01*
X169152102Y-59602362D01*
X169133512Y-59575813D01*
X169129698Y-59569625D01*
X169129359Y-59568995D01*
X169112852Y-59538319D01*
X169068192Y-59482318D01*
X169065896Y-59479247D01*
X169026598Y-59423123D01*
X169001353Y-59397878D01*
X168996715Y-59392689D01*
X168972508Y-59362334D01*
X168964866Y-59355657D01*
X168921039Y-59317366D01*
X168917990Y-59314515D01*
X168871878Y-59268402D01*
X168839940Y-59246039D01*
X168834705Y-59241939D01*
X168802996Y-59214235D01*
X168802994Y-59214233D01*
X168802992Y-59214232D01*
X168747149Y-59180868D01*
X168743386Y-59178431D01*
X168692641Y-59142899D01*
X168654333Y-59125035D01*
X168648735Y-59122067D01*
X168609769Y-59098787D01*
X168609767Y-59098786D01*
X168551928Y-59077079D01*
X168547515Y-59075226D01*
X168494330Y-59050425D01*
X168450321Y-59038632D01*
X168444581Y-59036790D01*
X168399025Y-59019692D01*
X168341456Y-59009245D01*
X168336480Y-59008128D01*
X168282977Y-58993793D01*
X168234327Y-58989536D01*
X168228659Y-58988775D01*
X168177551Y-58979500D01*
X168177547Y-58979500D01*
X168122309Y-58979500D01*
X168116907Y-58979264D01*
X168088451Y-58976774D01*
X168065002Y-58974723D01*
X168064997Y-58974723D01*
X168012050Y-58979355D01*
X168008862Y-58979499D01*
X168008851Y-58979500D01*
X168008845Y-58979500D01*
X167962671Y-58983655D01*
X167954826Y-58984361D01*
X167847020Y-58993793D01*
X167846468Y-58993891D01*
X167841275Y-58994581D01*
X167840812Y-58994622D01*
X167840809Y-58994623D01*
X167737002Y-59023273D01*
X167635659Y-59050428D01*
X167628739Y-59052946D01*
X167624050Y-59054444D01*
X167623849Y-59054499D01*
X167623832Y-59054505D01*
X167529528Y-59099919D01*
X167437358Y-59142899D01*
X167432670Y-59145606D01*
X167432598Y-59145481D01*
X167421871Y-59151764D01*
X167421030Y-59152168D01*
X167338831Y-59211889D01*
X167258123Y-59268401D01*
X167257241Y-59269284D01*
X167242461Y-59281906D01*
X167238928Y-59284472D01*
X167238916Y-59284483D01*
X167207477Y-59317366D01*
X167170868Y-59355656D01*
X167151938Y-59374586D01*
X167103403Y-59423120D01*
X167103402Y-59423121D01*
X167100711Y-59426965D01*
X167088773Y-59441521D01*
X167083368Y-59447174D01*
X167062476Y-59478822D01*
X167030828Y-59526768D01*
X166977898Y-59602362D01*
X166977891Y-59602374D01*
X166974457Y-59609738D01*
X166965572Y-59625628D01*
X166959362Y-59635035D01*
X166959362Y-59635036D01*
X166923108Y-59719859D01*
X166885425Y-59800669D01*
X166885424Y-59800671D01*
X166882425Y-59811860D01*
X166876681Y-59828475D01*
X166870899Y-59842005D01*
X166870896Y-59842016D01*
X166851063Y-59928907D01*
X166828793Y-60012022D01*
X166828793Y-60012023D01*
X166827112Y-60031226D01*
X166825793Y-60039625D01*
X166820809Y-60061459D01*
X166820809Y-60061464D01*
X166816949Y-60147397D01*
X166809723Y-60229996D01*
X166809723Y-60230003D01*
X162801000Y-60230003D01*
X162873903Y-60073663D01*
X162935063Y-59845408D01*
X162955659Y-59610000D01*
X162935063Y-59374592D01*
X162883155Y-59180868D01*
X162873905Y-59146344D01*
X162873904Y-59146343D01*
X162873903Y-59146337D01*
X162774035Y-58932171D01*
X162639721Y-58740349D01*
X162638494Y-58738597D01*
X162471402Y-58571506D01*
X162471396Y-58571501D01*
X162285842Y-58441575D01*
X162242217Y-58386998D01*
X162235023Y-58317500D01*
X162266546Y-58255145D01*
X162285842Y-58238425D01*
X162359780Y-58186653D01*
X162471401Y-58108495D01*
X162638495Y-57941401D01*
X162774035Y-57747830D01*
X162873903Y-57533663D01*
X162935063Y-57305408D01*
X162944285Y-57200000D01*
X166359700Y-57200000D01*
X166362359Y-57232097D01*
X166366955Y-57287567D01*
X166370819Y-57378523D01*
X166370820Y-57378534D01*
X166375939Y-57402284D01*
X166377120Y-57410233D01*
X166378865Y-57431301D01*
X166378865Y-57431304D01*
X166378866Y-57431305D01*
X166401205Y-57519520D01*
X166404253Y-57533663D01*
X166421046Y-57611582D01*
X166428883Y-57631084D01*
X166431458Y-57638987D01*
X166435844Y-57656303D01*
X166473655Y-57742504D01*
X166509934Y-57832787D01*
X166509935Y-57832788D01*
X166519232Y-57847888D01*
X166523218Y-57855495D01*
X166529076Y-57868850D01*
X166582275Y-57950277D01*
X166634930Y-58035794D01*
X166641543Y-58043308D01*
X166652263Y-58057402D01*
X166654738Y-58061189D01*
X166656021Y-58063153D01*
X166724027Y-58137028D01*
X166792436Y-58214755D01*
X166797564Y-58218895D01*
X166810882Y-58231377D01*
X166813216Y-58233913D01*
X166894933Y-58297515D01*
X166977920Y-58364523D01*
X166977922Y-58364524D01*
X166980678Y-58366064D01*
X166996360Y-58376460D01*
X166996367Y-58376465D01*
X166996371Y-58376467D01*
X166996374Y-58376470D01*
X167049696Y-58405326D01*
X167090162Y-58427225D01*
X167186046Y-58480790D01*
X167188849Y-58482058D01*
X167195695Y-58485097D01*
X167195794Y-58484873D01*
X167200490Y-58486932D01*
X167200497Y-58486936D01*
X167304276Y-58522563D01*
X167410829Y-58560211D01*
X167411398Y-58560308D01*
X167416129Y-58561312D01*
X167420007Y-58562294D01*
X167420019Y-58562298D01*
X167531324Y-58580871D01*
X167645791Y-58600499D01*
X167645800Y-58600500D01*
X167881044Y-58600500D01*
X167881049Y-58600500D01*
X167914073Y-58594988D01*
X167937469Y-58591085D01*
X167942407Y-58590463D01*
X168002541Y-58585346D01*
X168054615Y-58571786D01*
X168060017Y-58570634D01*
X168109981Y-58562298D01*
X168167186Y-58542658D01*
X168171663Y-58541309D01*
X168233249Y-58525275D01*
X168239249Y-58522563D01*
X168244262Y-58520296D01*
X168279297Y-58504459D01*
X168284681Y-58502322D01*
X168329503Y-58486936D01*
X168385554Y-58456601D01*
X168389527Y-58454632D01*
X168398156Y-58450730D01*
X168450486Y-58427077D01*
X168489647Y-58400608D01*
X168494820Y-58397469D01*
X168533626Y-58376470D01*
X168586532Y-58335290D01*
X168589850Y-58332881D01*
X168648003Y-58293579D01*
X168679770Y-58263131D01*
X168684548Y-58259002D01*
X168716784Y-58233913D01*
X168719109Y-58231388D01*
X168734420Y-58214755D01*
X168764389Y-58182198D01*
X168767101Y-58179432D01*
X168820118Y-58128621D01*
X168844329Y-58095883D01*
X168848540Y-58090785D01*
X168873979Y-58063153D01*
X168914206Y-58001578D01*
X168916241Y-57998652D01*
X168961879Y-57936947D01*
X168978733Y-57903517D01*
X168982170Y-57897552D01*
X169000924Y-57868849D01*
X169031805Y-57798445D01*
X169033174Y-57795538D01*
X169069207Y-57724074D01*
X169079208Y-57691413D01*
X169081701Y-57684694D01*
X169094157Y-57656300D01*
X169113827Y-57578621D01*
X169114635Y-57575732D01*
X169139016Y-57496123D01*
X169142936Y-57465508D01*
X169144330Y-57458170D01*
X169151134Y-57431305D01*
X169158132Y-57346845D01*
X169169298Y-57259654D01*
X169168126Y-57232079D01*
X169168281Y-57224355D01*
X169170300Y-57200000D01*
X171809700Y-57200000D01*
X171812359Y-57232097D01*
X171816955Y-57287567D01*
X171820819Y-57378523D01*
X171820820Y-57378534D01*
X171825939Y-57402284D01*
X171827120Y-57410233D01*
X171828865Y-57431301D01*
X171828865Y-57431304D01*
X171828866Y-57431305D01*
X171851205Y-57519520D01*
X171854253Y-57533663D01*
X171871046Y-57611582D01*
X171878883Y-57631084D01*
X171881458Y-57638987D01*
X171885844Y-57656303D01*
X171923655Y-57742504D01*
X171959934Y-57832787D01*
X171959935Y-57832788D01*
X171969232Y-57847888D01*
X171973218Y-57855495D01*
X171979076Y-57868850D01*
X172032275Y-57950277D01*
X172084930Y-58035794D01*
X172091543Y-58043308D01*
X172102263Y-58057402D01*
X172104738Y-58061189D01*
X172106021Y-58063153D01*
X172174027Y-58137028D01*
X172242436Y-58214755D01*
X172247564Y-58218895D01*
X172260882Y-58231377D01*
X172263216Y-58233913D01*
X172344933Y-58297515D01*
X172427920Y-58364523D01*
X172427922Y-58364524D01*
X172430678Y-58366064D01*
X172446360Y-58376460D01*
X172446367Y-58376465D01*
X172446371Y-58376467D01*
X172446374Y-58376470D01*
X172499696Y-58405326D01*
X172540162Y-58427225D01*
X172636046Y-58480790D01*
X172638849Y-58482058D01*
X172645695Y-58485097D01*
X172645794Y-58484873D01*
X172650490Y-58486932D01*
X172650497Y-58486936D01*
X172754276Y-58522563D01*
X172860829Y-58560211D01*
X172861398Y-58560308D01*
X172866129Y-58561312D01*
X172870007Y-58562294D01*
X172870019Y-58562298D01*
X172981324Y-58580871D01*
X173095791Y-58600499D01*
X173095800Y-58600500D01*
X173331044Y-58600500D01*
X173331049Y-58600500D01*
X173364073Y-58594988D01*
X173387469Y-58591085D01*
X173392407Y-58590463D01*
X173452541Y-58585346D01*
X173504615Y-58571786D01*
X173510017Y-58570634D01*
X173559981Y-58562298D01*
X173617186Y-58542658D01*
X173621663Y-58541309D01*
X173683249Y-58525275D01*
X173689249Y-58522563D01*
X173694262Y-58520296D01*
X173729297Y-58504459D01*
X173734681Y-58502322D01*
X173779503Y-58486936D01*
X173835554Y-58456601D01*
X173839527Y-58454632D01*
X173848156Y-58450730D01*
X173900486Y-58427077D01*
X173939647Y-58400608D01*
X173944820Y-58397469D01*
X173983626Y-58376470D01*
X174036532Y-58335290D01*
X174039850Y-58332881D01*
X174098003Y-58293579D01*
X174129770Y-58263131D01*
X174134548Y-58259002D01*
X174166784Y-58233913D01*
X174169109Y-58231388D01*
X174184420Y-58214755D01*
X174214389Y-58182198D01*
X174217101Y-58179432D01*
X174270118Y-58128621D01*
X174294329Y-58095883D01*
X174298540Y-58090785D01*
X174323979Y-58063153D01*
X174364206Y-58001578D01*
X174366241Y-57998652D01*
X174411879Y-57936947D01*
X174428733Y-57903517D01*
X174432170Y-57897552D01*
X174450924Y-57868849D01*
X174481805Y-57798445D01*
X174483174Y-57795538D01*
X174519207Y-57724074D01*
X174529208Y-57691413D01*
X174531701Y-57684694D01*
X174544157Y-57656300D01*
X174563827Y-57578621D01*
X174564635Y-57575732D01*
X174589016Y-57496123D01*
X174592936Y-57465508D01*
X174594330Y-57458170D01*
X174601134Y-57431305D01*
X174608132Y-57346845D01*
X174619298Y-57259654D01*
X174618126Y-57232079D01*
X174618281Y-57224355D01*
X174620300Y-57200000D01*
X174617962Y-57171788D01*
X174613044Y-57112432D01*
X174612477Y-57099088D01*
X174609180Y-57021468D01*
X174604059Y-56997709D01*
X174602879Y-56989762D01*
X174601134Y-56968695D01*
X174601133Y-56968692D01*
X174601133Y-56968688D01*
X174578794Y-56880480D01*
X174575758Y-56866392D01*
X174558954Y-56788419D01*
X174551115Y-56768912D01*
X174548541Y-56761015D01*
X174544157Y-56743700D01*
X174506344Y-56657495D01*
X174470064Y-56567210D01*
X174460768Y-56552112D01*
X174456779Y-56544500D01*
X174450924Y-56531151D01*
X174397724Y-56449721D01*
X174345071Y-56364208D01*
X174345070Y-56364207D01*
X174345069Y-56364205D01*
X174338451Y-56356686D01*
X174327727Y-56342584D01*
X174323978Y-56336845D01*
X174255972Y-56262971D01*
X174187565Y-56185246D01*
X174182439Y-56181107D01*
X174169117Y-56168621D01*
X174166785Y-56166088D01*
X174166783Y-56166086D01*
X174085066Y-56102484D01*
X174002080Y-56035477D01*
X174002073Y-56035472D01*
X173999311Y-56033929D01*
X173983643Y-56023542D01*
X173983634Y-56023535D01*
X173983628Y-56023532D01*
X173983626Y-56023530D01*
X173889837Y-55972774D01*
X173793954Y-55919210D01*
X173793953Y-55919209D01*
X173793952Y-55919209D01*
X173791381Y-55918047D01*
X173784284Y-55914898D01*
X173784188Y-55915119D01*
X173779506Y-55913065D01*
X173675723Y-55877436D01*
X173569168Y-55839788D01*
X173569160Y-55839786D01*
X173568612Y-55839692D01*
X173563889Y-55838691D01*
X173559989Y-55837703D01*
X173448675Y-55819128D01*
X173334209Y-55799500D01*
X173334200Y-55799500D01*
X173331049Y-55799500D01*
X173098951Y-55799500D01*
X173098950Y-55799500D01*
X173042533Y-55808913D01*
X173037587Y-55809535D01*
X173035099Y-55809747D01*
X172977469Y-55814652D01*
X172977461Y-55814653D01*
X172925397Y-55828208D01*
X172919981Y-55829363D01*
X172870013Y-55837703D01*
X172812840Y-55857331D01*
X172808330Y-55858690D01*
X172746749Y-55874725D01*
X172746744Y-55874727D01*
X172700711Y-55895535D01*
X172695304Y-55897680D01*
X172650503Y-55913060D01*
X172650498Y-55913063D01*
X172594448Y-55943395D01*
X172590478Y-55945363D01*
X172529514Y-55972922D01*
X172490359Y-55999385D01*
X172485149Y-56002544D01*
X172446379Y-56023526D01*
X172446367Y-56023533D01*
X172393487Y-56064692D01*
X172390124Y-56067133D01*
X172332001Y-56106417D01*
X172331994Y-56106422D01*
X172300248Y-56136847D01*
X172295430Y-56141011D01*
X172263218Y-56166085D01*
X172263209Y-56166093D01*
X172215613Y-56217795D01*
X172212900Y-56220564D01*
X172159882Y-56271378D01*
X172159880Y-56271380D01*
X172135681Y-56304098D01*
X172131448Y-56309223D01*
X172106022Y-56336845D01*
X172065797Y-56398412D01*
X172063741Y-56401367D01*
X172018124Y-56463047D01*
X172018120Y-56463054D01*
X172001268Y-56496475D01*
X171997811Y-56502472D01*
X171979076Y-56531149D01*
X171948219Y-56601496D01*
X171946803Y-56604503D01*
X171910790Y-56675931D01*
X171900792Y-56708573D01*
X171898288Y-56715323D01*
X171885845Y-56743691D01*
X171885845Y-56743692D01*
X171866178Y-56821347D01*
X171865358Y-56824279D01*
X171840984Y-56903876D01*
X171840983Y-56903879D01*
X171837063Y-56934485D01*
X171835668Y-56941830D01*
X171828867Y-56968688D01*
X171828864Y-56968705D01*
X171821867Y-57053154D01*
X171810702Y-57140344D01*
X171810701Y-57140344D01*
X171811872Y-57167900D01*
X171811716Y-57175655D01*
X171809700Y-57199995D01*
X171809700Y-57200000D01*
X169170300Y-57200000D01*
X169167962Y-57171788D01*
X169163044Y-57112432D01*
X169162477Y-57099088D01*
X169159180Y-57021468D01*
X169154059Y-56997709D01*
X169152879Y-56989762D01*
X169151134Y-56968695D01*
X169151133Y-56968692D01*
X169151133Y-56968688D01*
X169128794Y-56880480D01*
X169125758Y-56866392D01*
X169108954Y-56788419D01*
X169101115Y-56768912D01*
X169098541Y-56761015D01*
X169094157Y-56743700D01*
X169056344Y-56657495D01*
X169020064Y-56567210D01*
X169010768Y-56552112D01*
X169006779Y-56544500D01*
X169000924Y-56531151D01*
X168947724Y-56449721D01*
X168895071Y-56364208D01*
X168895070Y-56364207D01*
X168895069Y-56364205D01*
X168888451Y-56356686D01*
X168877727Y-56342584D01*
X168873978Y-56336845D01*
X168805972Y-56262971D01*
X168737565Y-56185246D01*
X168732439Y-56181107D01*
X168719117Y-56168621D01*
X168716785Y-56166088D01*
X168716783Y-56166086D01*
X168635066Y-56102484D01*
X168552080Y-56035477D01*
X168552073Y-56035472D01*
X168549311Y-56033929D01*
X168533643Y-56023542D01*
X168533634Y-56023535D01*
X168533628Y-56023532D01*
X168533626Y-56023530D01*
X168439837Y-55972774D01*
X168343954Y-55919210D01*
X168343953Y-55919209D01*
X168343952Y-55919209D01*
X168341381Y-55918047D01*
X168334284Y-55914898D01*
X168334188Y-55915119D01*
X168329506Y-55913065D01*
X168225723Y-55877436D01*
X168119168Y-55839788D01*
X168119160Y-55839786D01*
X168118612Y-55839692D01*
X168113889Y-55838691D01*
X168109989Y-55837703D01*
X167998675Y-55819128D01*
X167884209Y-55799500D01*
X167884200Y-55799500D01*
X167881049Y-55799500D01*
X167648951Y-55799500D01*
X167648950Y-55799500D01*
X167592533Y-55808913D01*
X167587587Y-55809535D01*
X167585099Y-55809747D01*
X167527469Y-55814652D01*
X167527461Y-55814653D01*
X167475397Y-55828208D01*
X167469981Y-55829363D01*
X167420013Y-55837703D01*
X167362840Y-55857331D01*
X167358330Y-55858690D01*
X167296749Y-55874725D01*
X167296744Y-55874727D01*
X167250711Y-55895535D01*
X167245304Y-55897680D01*
X167200503Y-55913060D01*
X167200498Y-55913063D01*
X167144448Y-55943395D01*
X167140478Y-55945363D01*
X167079514Y-55972922D01*
X167040359Y-55999385D01*
X167035149Y-56002544D01*
X166996379Y-56023526D01*
X166996367Y-56023533D01*
X166943487Y-56064692D01*
X166940124Y-56067133D01*
X166882001Y-56106417D01*
X166881994Y-56106422D01*
X166850248Y-56136847D01*
X166845430Y-56141011D01*
X166813218Y-56166085D01*
X166813209Y-56166093D01*
X166765613Y-56217795D01*
X166762900Y-56220564D01*
X166709882Y-56271378D01*
X166709880Y-56271380D01*
X166685681Y-56304098D01*
X166681448Y-56309223D01*
X166656022Y-56336845D01*
X166615797Y-56398412D01*
X166613741Y-56401367D01*
X166568124Y-56463047D01*
X166568120Y-56463054D01*
X166551268Y-56496475D01*
X166547811Y-56502472D01*
X166529076Y-56531149D01*
X166498219Y-56601496D01*
X166496803Y-56604503D01*
X166460790Y-56675931D01*
X166450792Y-56708573D01*
X166448288Y-56715323D01*
X166435845Y-56743691D01*
X166435845Y-56743692D01*
X166416178Y-56821347D01*
X166415358Y-56824279D01*
X166390984Y-56903876D01*
X166390983Y-56903879D01*
X166387063Y-56934485D01*
X166385668Y-56941830D01*
X166378867Y-56968688D01*
X166378864Y-56968705D01*
X166371867Y-57053154D01*
X166360702Y-57140344D01*
X166360701Y-57140344D01*
X166361872Y-57167900D01*
X166361716Y-57175655D01*
X166359700Y-57199995D01*
X166359700Y-57200000D01*
X162944285Y-57200000D01*
X162955659Y-57070000D01*
X162935063Y-56834592D01*
X162873903Y-56606337D01*
X162774035Y-56392171D01*
X162769492Y-56385682D01*
X162638494Y-56198597D01*
X162471402Y-56031506D01*
X162471395Y-56031501D01*
X162468297Y-56029332D01*
X162430040Y-56002544D01*
X162277834Y-55895967D01*
X162277830Y-55895965D01*
X162276908Y-55895535D01*
X162063663Y-55796097D01*
X162063659Y-55796096D01*
X162063655Y-55796094D01*
X161835413Y-55734938D01*
X161835403Y-55734936D01*
X161600001Y-55714341D01*
X161599999Y-55714341D01*
X161364596Y-55734936D01*
X161364586Y-55734938D01*
X161136344Y-55796094D01*
X161136335Y-55796098D01*
X160922171Y-55895964D01*
X160922169Y-55895965D01*
X160728597Y-56031505D01*
X160561505Y-56198597D01*
X160425965Y-56392169D01*
X160425964Y-56392171D01*
X160326098Y-56606335D01*
X160326094Y-56606344D01*
X160264938Y-56834586D01*
X160264936Y-56834596D01*
X160244341Y-57069999D01*
X160244341Y-57070000D01*
X160264936Y-57305403D01*
X160264938Y-57305413D01*
X160326094Y-57533655D01*
X160326096Y-57533659D01*
X160326097Y-57533663D01*
X160373328Y-57634949D01*
X160425965Y-57747830D01*
X160425967Y-57747834D01*
X160561501Y-57941395D01*
X160561506Y-57941402D01*
X160728597Y-58108493D01*
X160728603Y-58108498D01*
X160914158Y-58238425D01*
X160957783Y-58293002D01*
X160964977Y-58362500D01*
X160933454Y-58424855D01*
X160914158Y-58441575D01*
X160728597Y-58571505D01*
X160561505Y-58738597D01*
X160425965Y-58932169D01*
X160425964Y-58932171D01*
X160326098Y-59146335D01*
X160326094Y-59146344D01*
X160264938Y-59374586D01*
X160264936Y-59374596D01*
X160244341Y-59609999D01*
X160244341Y-59610000D01*
X155551367Y-59610000D01*
X161274548Y-53886819D01*
X161335871Y-53853334D01*
X161362229Y-53850500D01*
X173037770Y-53850500D01*
X173104809Y-53870185D01*
X173125451Y-53886819D01*
X175313181Y-56074548D01*
X175346666Y-56135871D01*
X175349500Y-56162229D01*
X175349500Y-63886294D01*
X175348191Y-63904263D01*
X175344710Y-63928025D01*
X175349264Y-63980064D01*
X175349500Y-63985470D01*
X175349500Y-63993709D01*
X175353306Y-64026274D01*
X175360000Y-64102791D01*
X175361461Y-64109867D01*
X175361403Y-64109878D01*
X175363034Y-64117237D01*
X175363092Y-64117224D01*
X175364757Y-64124250D01*
X175391025Y-64196424D01*
X175415185Y-64269331D01*
X175418236Y-64275874D01*
X175418182Y-64275898D01*
X175421470Y-64282688D01*
X175421521Y-64282663D01*
X175424761Y-64289113D01*
X175424762Y-64289114D01*
X175424763Y-64289117D01*
X175466965Y-64353283D01*
X175507287Y-64418655D01*
X175511766Y-64424319D01*
X175511719Y-64424356D01*
X175516482Y-64430202D01*
X175516528Y-64430164D01*
X175521173Y-64435700D01*
X175577018Y-64488386D01*
X178007130Y-66918497D01*
X178040615Y-66979820D01*
X178042977Y-67016985D01*
X178024341Y-67229997D01*
X178024341Y-67230005D01*
X178026082Y-67249909D01*
X178012314Y-67318409D01*
X177990235Y-67348395D01*
X165414358Y-79924272D01*
X165400729Y-79936051D01*
X165381468Y-79950390D01*
X165347898Y-79990397D01*
X165344253Y-79994376D01*
X165338409Y-80000222D01*
X165318059Y-80025959D01*
X165268695Y-80084789D01*
X165264729Y-80090819D01*
X165264682Y-80090788D01*
X165260630Y-80097147D01*
X165260679Y-80097177D01*
X165256889Y-80103321D01*
X165224424Y-80172941D01*
X165189960Y-80241566D01*
X165187488Y-80248357D01*
X165187432Y-80248336D01*
X165184960Y-80255450D01*
X165185015Y-80255469D01*
X165182742Y-80262327D01*
X165177601Y-80287229D01*
X165167207Y-80337565D01*
X165154986Y-80389132D01*
X165149498Y-80412286D01*
X165148661Y-80419454D01*
X165148601Y-80419447D01*
X165147835Y-80426945D01*
X165147895Y-80426951D01*
X165147265Y-80434140D01*
X165149500Y-80510916D01*
X165149500Y-108665677D01*
X165132887Y-108727677D01*
X165072821Y-108831714D01*
X165038207Y-108938245D01*
X165014326Y-109011744D01*
X164994540Y-109200000D01*
X165014326Y-109388256D01*
X165014327Y-109388259D01*
X165072818Y-109568277D01*
X165072821Y-109568284D01*
X165167467Y-109732216D01*
X165199819Y-109768146D01*
X165294129Y-109872888D01*
X165447265Y-109984148D01*
X165447270Y-109984151D01*
X165620192Y-110061142D01*
X165620197Y-110061144D01*
X165805354Y-110100500D01*
X165805355Y-110100500D01*
X165994644Y-110100500D01*
X165994646Y-110100500D01*
X166179803Y-110061144D01*
X166352730Y-109984151D01*
X166505871Y-109872888D01*
X166632533Y-109732216D01*
X166651132Y-109700002D01*
X191240708Y-109700002D01*
X191258580Y-109904291D01*
X191259839Y-109918674D01*
X191316653Y-110130703D01*
X191316654Y-110130706D01*
X191316655Y-110130708D01*
X191409419Y-110329642D01*
X191409423Y-110329650D01*
X191535322Y-110509452D01*
X191535327Y-110509458D01*
X191690541Y-110664672D01*
X191690547Y-110664677D01*
X191870349Y-110790576D01*
X191870351Y-110790577D01*
X191870354Y-110790579D01*
X192069297Y-110883347D01*
X192281326Y-110940161D01*
X192437521Y-110953826D01*
X192499998Y-110959292D01*
X192500000Y-110959292D01*
X192500002Y-110959292D01*
X192554668Y-110954509D01*
X192718674Y-110940161D01*
X192930703Y-110883347D01*
X193129646Y-110790579D01*
X193180932Y-110754667D01*
X193247135Y-110732341D01*
X193314903Y-110749350D01*
X193362716Y-110800298D01*
X193364436Y-110803839D01*
X193439419Y-110964642D01*
X193439423Y-110964650D01*
X193565322Y-111144452D01*
X193565327Y-111144458D01*
X193720541Y-111299672D01*
X193720547Y-111299677D01*
X193900349Y-111425576D01*
X193900351Y-111425577D01*
X193900354Y-111425579D01*
X194099297Y-111518347D01*
X194311326Y-111575161D01*
X194467521Y-111588826D01*
X194529998Y-111594292D01*
X194530000Y-111594292D01*
X194530002Y-111594292D01*
X194584668Y-111589509D01*
X194748674Y-111575161D01*
X194960703Y-111518347D01*
X195159646Y-111425579D01*
X195339457Y-111299674D01*
X195494674Y-111144457D01*
X195620579Y-110964646D01*
X195713347Y-110765703D01*
X195770161Y-110553674D01*
X195789292Y-110335000D01*
X195770161Y-110116326D01*
X195713347Y-109904297D01*
X195620579Y-109705354D01*
X195620577Y-109705351D01*
X195620576Y-109705349D01*
X195494677Y-109525547D01*
X195494672Y-109525541D01*
X195339458Y-109370327D01*
X195339452Y-109370322D01*
X195159650Y-109244423D01*
X195159642Y-109244419D01*
X194960708Y-109151655D01*
X194960706Y-109151654D01*
X194960703Y-109151653D01*
X194809885Y-109111240D01*
X194748675Y-109094839D01*
X194748668Y-109094838D01*
X194530002Y-109075708D01*
X194529998Y-109075708D01*
X194311331Y-109094838D01*
X194311324Y-109094839D01*
X194203908Y-109123622D01*
X194099297Y-109151653D01*
X194099295Y-109151653D01*
X194099291Y-109151655D01*
X193900357Y-109244419D01*
X193900350Y-109244423D01*
X193849067Y-109280331D01*
X193782860Y-109302658D01*
X193715093Y-109285646D01*
X193667281Y-109234697D01*
X193665563Y-109231159D01*
X193590579Y-109070354D01*
X193590577Y-109070351D01*
X193590576Y-109070349D01*
X193464677Y-108890547D01*
X193464672Y-108890541D01*
X193309458Y-108735327D01*
X193309452Y-108735322D01*
X193129650Y-108609423D01*
X193129642Y-108609419D01*
X192930708Y-108516655D01*
X192930706Y-108516654D01*
X192930703Y-108516653D01*
X192779885Y-108476240D01*
X192718675Y-108459839D01*
X192718668Y-108459838D01*
X192500002Y-108440708D01*
X192499998Y-108440708D01*
X192281331Y-108459838D01*
X192281324Y-108459839D01*
X192158902Y-108492642D01*
X192069297Y-108516653D01*
X192069295Y-108516653D01*
X192069291Y-108516655D01*
X191870357Y-108609419D01*
X191870349Y-108609423D01*
X191690547Y-108735322D01*
X191690541Y-108735327D01*
X191535327Y-108890541D01*
X191535322Y-108890547D01*
X191409423Y-109070349D01*
X191409419Y-109070357D01*
X191316655Y-109269291D01*
X191316653Y-109269295D01*
X191316653Y-109269297D01*
X191292642Y-109358902D01*
X191259839Y-109481324D01*
X191259838Y-109481331D01*
X191240708Y-109699997D01*
X191240708Y-109700002D01*
X166651132Y-109700002D01*
X166727179Y-109568284D01*
X166785674Y-109388256D01*
X166805460Y-109200000D01*
X166785674Y-109011744D01*
X166727179Y-108831716D01*
X166727178Y-108831714D01*
X166667113Y-108727677D01*
X166650500Y-108665677D01*
X166650500Y-105991925D01*
X166670185Y-105924886D01*
X166722989Y-105879131D01*
X166792147Y-105869187D01*
X166855703Y-105898212D01*
X166876075Y-105920802D01*
X166911500Y-105971395D01*
X166911505Y-105971401D01*
X167078599Y-106138495D01*
X167168429Y-106201395D01*
X167272165Y-106274032D01*
X167272167Y-106274033D01*
X167272170Y-106274035D01*
X167486337Y-106373903D01*
X167714592Y-106435063D01*
X167902918Y-106451539D01*
X167949999Y-106455659D01*
X167950000Y-106455659D01*
X167950001Y-106455659D01*
X167989234Y-106452226D01*
X168185408Y-106435063D01*
X168413663Y-106373903D01*
X168627830Y-106274035D01*
X168821401Y-106138495D01*
X168988495Y-105971401D01*
X169124035Y-105777830D01*
X169223903Y-105563663D01*
X169285063Y-105335408D01*
X169305659Y-105100000D01*
X171674341Y-105100000D01*
X171694936Y-105335403D01*
X171694938Y-105335413D01*
X171756094Y-105563655D01*
X171756096Y-105563659D01*
X171756097Y-105563663D01*
X171855965Y-105777830D01*
X171855967Y-105777834D01*
X171919934Y-105869187D01*
X171991505Y-105971401D01*
X172158599Y-106138495D01*
X172248429Y-106201395D01*
X172352165Y-106274032D01*
X172352167Y-106274033D01*
X172352170Y-106274035D01*
X172566337Y-106373903D01*
X172794592Y-106435063D01*
X172982918Y-106451539D01*
X173029999Y-106455659D01*
X173030000Y-106455659D01*
X173030001Y-106455659D01*
X173069234Y-106452226D01*
X173265408Y-106435063D01*
X173493663Y-106373903D01*
X173707830Y-106274035D01*
X173901401Y-106138495D01*
X174068495Y-105971401D01*
X174204035Y-105777830D01*
X174303903Y-105563663D01*
X174365063Y-105335408D01*
X174365536Y-105330000D01*
X178024341Y-105330000D01*
X178044936Y-105565403D01*
X178044938Y-105565413D01*
X178106094Y-105793655D01*
X178106096Y-105793659D01*
X178106097Y-105793663D01*
X178188978Y-105971401D01*
X178205965Y-106007830D01*
X178205967Y-106007834D01*
X178297456Y-106138493D01*
X178341505Y-106201401D01*
X178508599Y-106368495D01*
X178603665Y-106435061D01*
X178702165Y-106504032D01*
X178702167Y-106504033D01*
X178702170Y-106504035D01*
X178916337Y-106603903D01*
X179144592Y-106665063D01*
X179332918Y-106681539D01*
X179379999Y-106685659D01*
X179380000Y-106685659D01*
X179380001Y-106685659D01*
X179419234Y-106682226D01*
X179615408Y-106665063D01*
X179843663Y-106603903D01*
X180057830Y-106504035D01*
X180251401Y-106368495D01*
X180418495Y-106201401D01*
X180554035Y-106007830D01*
X180653903Y-105793663D01*
X180715063Y-105565408D01*
X180735659Y-105330000D01*
X180715063Y-105094592D01*
X180653903Y-104866337D01*
X180554035Y-104652171D01*
X180418495Y-104458599D01*
X180418494Y-104458597D01*
X180251402Y-104291506D01*
X180251396Y-104291501D01*
X180065842Y-104161575D01*
X180022217Y-104106998D01*
X180015023Y-104037500D01*
X180046546Y-103975145D01*
X180065842Y-103958425D01*
X180112197Y-103925967D01*
X180251401Y-103828495D01*
X180418495Y-103661401D01*
X180554035Y-103467830D01*
X180653903Y-103253663D01*
X180715063Y-103025408D01*
X180735659Y-102790000D01*
X180715063Y-102554592D01*
X180653903Y-102326337D01*
X180554035Y-102112171D01*
X180475843Y-102000500D01*
X180418494Y-101918597D01*
X180251402Y-101751506D01*
X180251395Y-101751501D01*
X180057834Y-101615967D01*
X180057830Y-101615965D01*
X180057828Y-101615964D01*
X179843663Y-101516097D01*
X179843659Y-101516096D01*
X179843655Y-101516094D01*
X179615413Y-101454938D01*
X179615403Y-101454936D01*
X179380001Y-101434341D01*
X179379999Y-101434341D01*
X179144596Y-101454936D01*
X179144586Y-101454938D01*
X178916344Y-101516094D01*
X178916335Y-101516098D01*
X178702171Y-101615964D01*
X178702169Y-101615965D01*
X178508597Y-101751505D01*
X178341505Y-101918597D01*
X178205965Y-102112169D01*
X178205964Y-102112171D01*
X178106098Y-102326335D01*
X178106094Y-102326344D01*
X178044938Y-102554586D01*
X178044936Y-102554596D01*
X178024341Y-102789999D01*
X178024341Y-102790000D01*
X178044936Y-103025403D01*
X178044938Y-103025413D01*
X178106094Y-103253655D01*
X178106096Y-103253659D01*
X178106097Y-103253663D01*
X178205965Y-103467830D01*
X178205967Y-103467834D01*
X178341501Y-103661395D01*
X178341506Y-103661402D01*
X178508597Y-103828493D01*
X178508603Y-103828498D01*
X178694158Y-103958425D01*
X178737783Y-104013002D01*
X178744977Y-104082500D01*
X178713454Y-104144855D01*
X178694158Y-104161575D01*
X178508597Y-104291505D01*
X178341505Y-104458597D01*
X178205965Y-104652169D01*
X178205964Y-104652171D01*
X178106098Y-104866335D01*
X178106094Y-104866344D01*
X178044938Y-105094586D01*
X178044936Y-105094596D01*
X178024341Y-105329999D01*
X178024341Y-105330000D01*
X174365536Y-105330000D01*
X174385659Y-105100000D01*
X174365063Y-104864592D01*
X174303903Y-104636337D01*
X174204035Y-104422171D01*
X174112540Y-104291501D01*
X174068494Y-104228597D01*
X173901402Y-104061506D01*
X173901395Y-104061501D01*
X173899251Y-104060000D01*
X173832132Y-104013002D01*
X173707834Y-103925967D01*
X173707830Y-103925965D01*
X173707828Y-103925964D01*
X173493663Y-103826097D01*
X173493659Y-103826096D01*
X173493655Y-103826094D01*
X173265413Y-103764938D01*
X173265403Y-103764936D01*
X173030001Y-103744341D01*
X173029999Y-103744341D01*
X172794596Y-103764936D01*
X172794586Y-103764938D01*
X172566344Y-103826094D01*
X172566335Y-103826098D01*
X172352171Y-103925964D01*
X172352169Y-103925965D01*
X172158597Y-104061505D01*
X171991505Y-104228597D01*
X171855965Y-104422169D01*
X171855964Y-104422171D01*
X171756098Y-104636335D01*
X171756094Y-104636344D01*
X171694938Y-104864586D01*
X171694936Y-104864596D01*
X171674341Y-105099999D01*
X171674341Y-105100000D01*
X169305659Y-105100000D01*
X169285063Y-104864592D01*
X169223903Y-104636337D01*
X169124035Y-104422171D01*
X169032540Y-104291501D01*
X168988494Y-104228597D01*
X168821402Y-104061506D01*
X168821395Y-104061501D01*
X168819251Y-104060000D01*
X168752132Y-104013002D01*
X168627834Y-103925967D01*
X168627830Y-103925965D01*
X168627828Y-103925964D01*
X168413663Y-103826097D01*
X168413659Y-103826096D01*
X168413655Y-103826094D01*
X168185413Y-103764938D01*
X168185403Y-103764936D01*
X167950001Y-103744341D01*
X167949999Y-103744341D01*
X167714596Y-103764936D01*
X167714586Y-103764938D01*
X167486344Y-103826094D01*
X167486335Y-103826098D01*
X167272171Y-103925964D01*
X167272169Y-103925965D01*
X167078597Y-104061505D01*
X166911504Y-104228598D01*
X166876074Y-104279198D01*
X166821497Y-104322823D01*
X166751999Y-104330015D01*
X166689644Y-104298493D01*
X166654231Y-104238262D01*
X166650500Y-104208074D01*
X166650500Y-97710000D01*
X178024341Y-97710000D01*
X178044936Y-97945403D01*
X178044938Y-97945413D01*
X178106094Y-98173655D01*
X178106096Y-98173659D01*
X178106097Y-98173663D01*
X178142024Y-98250708D01*
X178205965Y-98387830D01*
X178205967Y-98387834D01*
X178314281Y-98542521D01*
X178341505Y-98581401D01*
X178508599Y-98748495D01*
X178605384Y-98816265D01*
X178702165Y-98884032D01*
X178702167Y-98884033D01*
X178702170Y-98884035D01*
X178916337Y-98983903D01*
X179144592Y-99045063D01*
X179317148Y-99060160D01*
X179379999Y-99065659D01*
X179380000Y-99065659D01*
X179380001Y-99065659D01*
X179419234Y-99062226D01*
X179615408Y-99045063D01*
X179843663Y-98983903D01*
X180057830Y-98884035D01*
X180251401Y-98748495D01*
X180418495Y-98581401D01*
X180554035Y-98387830D01*
X180653903Y-98173663D01*
X180715063Y-97945408D01*
X180735659Y-97710000D01*
X180715063Y-97474592D01*
X180653903Y-97246337D01*
X180554035Y-97032171D01*
X180430208Y-96855326D01*
X180418494Y-96838597D01*
X180251402Y-96671506D01*
X180251396Y-96671501D01*
X180065842Y-96541575D01*
X180022217Y-96486998D01*
X180015023Y-96417500D01*
X180046546Y-96355145D01*
X180065842Y-96338425D01*
X180098255Y-96315729D01*
X180251401Y-96208495D01*
X180418495Y-96041401D01*
X180554035Y-95847830D01*
X180653903Y-95633663D01*
X180715063Y-95405408D01*
X180735659Y-95170000D01*
X180729698Y-95101870D01*
X191145500Y-95101870D01*
X191145501Y-95101876D01*
X191151908Y-95161483D01*
X191202202Y-95296328D01*
X191202206Y-95296335D01*
X191288452Y-95411544D01*
X191288455Y-95411547D01*
X191403664Y-95497793D01*
X191403671Y-95497797D01*
X191538517Y-95548091D01*
X191538516Y-95548091D01*
X191545444Y-95548835D01*
X191598127Y-95554500D01*
X193201872Y-95554499D01*
X193261483Y-95548091D01*
X193396331Y-95497796D01*
X193511546Y-95411546D01*
X193597796Y-95296331D01*
X193648091Y-95161483D01*
X193654500Y-95101873D01*
X193654499Y-93498128D01*
X193648128Y-93438857D01*
X193648091Y-93438516D01*
X193597797Y-93303671D01*
X193597793Y-93303664D01*
X193511547Y-93188455D01*
X193511544Y-93188452D01*
X193396335Y-93102206D01*
X193396328Y-93102202D01*
X193261482Y-93051908D01*
X193261483Y-93051908D01*
X193201883Y-93045501D01*
X193201881Y-93045500D01*
X193201873Y-93045500D01*
X193201864Y-93045500D01*
X191598129Y-93045500D01*
X191598123Y-93045501D01*
X191538516Y-93051908D01*
X191403671Y-93102202D01*
X191403664Y-93102206D01*
X191288455Y-93188452D01*
X191288452Y-93188455D01*
X191202206Y-93303664D01*
X191202202Y-93303671D01*
X191151908Y-93438517D01*
X191146738Y-93486612D01*
X191145501Y-93498123D01*
X191145500Y-93498135D01*
X191145500Y-95101870D01*
X180729698Y-95101870D01*
X180715063Y-94934592D01*
X180653903Y-94706337D01*
X180554035Y-94492171D01*
X180418495Y-94298599D01*
X180418494Y-94298597D01*
X180251402Y-94131506D01*
X180251396Y-94131501D01*
X180065842Y-94001575D01*
X180022217Y-93946998D01*
X180015023Y-93877500D01*
X180046546Y-93815145D01*
X180065842Y-93798425D01*
X180109602Y-93767784D01*
X180251401Y-93668495D01*
X180418495Y-93501401D01*
X180554035Y-93307830D01*
X180653903Y-93093663D01*
X180715063Y-92865408D01*
X180735659Y-92630000D01*
X180715063Y-92394592D01*
X180660000Y-92189090D01*
X180653905Y-92166344D01*
X180653904Y-92166343D01*
X180653903Y-92166337D01*
X180554035Y-91952171D01*
X180419476Y-91759999D01*
X180418494Y-91758597D01*
X180251402Y-91591506D01*
X180251396Y-91591501D01*
X180065842Y-91461575D01*
X180022217Y-91406998D01*
X180015023Y-91337500D01*
X180046546Y-91275145D01*
X180065842Y-91258425D01*
X180122621Y-91218668D01*
X180251401Y-91128495D01*
X180379894Y-91000002D01*
X191140708Y-91000002D01*
X191158580Y-91204291D01*
X191159839Y-91218674D01*
X191216653Y-91430703D01*
X191216654Y-91430706D01*
X191216655Y-91430708D01*
X191309419Y-91629642D01*
X191309423Y-91629650D01*
X191435322Y-91809452D01*
X191435327Y-91809458D01*
X191590541Y-91964672D01*
X191590547Y-91964677D01*
X191770349Y-92090576D01*
X191770351Y-92090577D01*
X191770354Y-92090579D01*
X191969297Y-92183347D01*
X192181326Y-92240161D01*
X192337521Y-92253826D01*
X192399998Y-92259292D01*
X192400000Y-92259292D01*
X192400002Y-92259292D01*
X192454668Y-92254509D01*
X192618674Y-92240161D01*
X192830703Y-92183347D01*
X193029646Y-92090579D01*
X193080932Y-92054667D01*
X193147135Y-92032341D01*
X193214903Y-92049350D01*
X193262716Y-92100298D01*
X193264436Y-92103839D01*
X193339419Y-92264642D01*
X193339423Y-92264650D01*
X193465322Y-92444452D01*
X193465327Y-92444458D01*
X193620541Y-92599672D01*
X193620547Y-92599677D01*
X193800349Y-92725576D01*
X193800351Y-92725577D01*
X193800354Y-92725579D01*
X193999297Y-92818347D01*
X194211326Y-92875161D01*
X194367521Y-92888826D01*
X194429998Y-92894292D01*
X194430000Y-92894292D01*
X194430002Y-92894292D01*
X194484668Y-92889509D01*
X194648674Y-92875161D01*
X194860703Y-92818347D01*
X195059646Y-92725579D01*
X195239457Y-92599674D01*
X195394674Y-92444457D01*
X195520579Y-92264646D01*
X195613347Y-92065703D01*
X195670161Y-91853674D01*
X195686329Y-91668867D01*
X195689292Y-91635002D01*
X195689292Y-91634997D01*
X195681168Y-91542140D01*
X195670161Y-91416326D01*
X195613347Y-91204297D01*
X195520579Y-91005354D01*
X195520577Y-91005351D01*
X195520576Y-91005349D01*
X195394677Y-90825547D01*
X195394672Y-90825541D01*
X195239458Y-90670327D01*
X195239452Y-90670322D01*
X195059650Y-90544423D01*
X195059642Y-90544419D01*
X194860708Y-90451655D01*
X194860706Y-90451654D01*
X194860703Y-90451653D01*
X194709885Y-90411240D01*
X194648675Y-90394839D01*
X194648668Y-90394838D01*
X194430002Y-90375708D01*
X194429998Y-90375708D01*
X194211331Y-90394838D01*
X194211324Y-90394839D01*
X194088902Y-90427642D01*
X193999297Y-90451653D01*
X193999295Y-90451653D01*
X193999291Y-90451655D01*
X193800357Y-90544419D01*
X193800350Y-90544423D01*
X193749067Y-90580331D01*
X193682860Y-90602658D01*
X193615093Y-90585646D01*
X193567281Y-90534697D01*
X193565563Y-90531159D01*
X193501996Y-90394838D01*
X193490579Y-90370354D01*
X193490577Y-90370351D01*
X193490576Y-90370349D01*
X193364677Y-90190547D01*
X193364672Y-90190541D01*
X193209458Y-90035327D01*
X193209452Y-90035322D01*
X193029650Y-89909423D01*
X193029642Y-89909419D01*
X192830708Y-89816655D01*
X192830706Y-89816654D01*
X192830703Y-89816653D01*
X192679885Y-89776240D01*
X192618675Y-89759839D01*
X192618668Y-89759838D01*
X192400002Y-89740708D01*
X192399998Y-89740708D01*
X192181331Y-89759838D01*
X192181324Y-89759839D01*
X192058902Y-89792642D01*
X191969297Y-89816653D01*
X191969295Y-89816653D01*
X191969291Y-89816655D01*
X191770357Y-89909419D01*
X191770349Y-89909423D01*
X191590547Y-90035322D01*
X191590541Y-90035327D01*
X191435327Y-90190541D01*
X191435322Y-90190547D01*
X191309423Y-90370349D01*
X191309419Y-90370357D01*
X191216655Y-90569291D01*
X191216653Y-90569295D01*
X191216653Y-90569297D01*
X191211331Y-90589158D01*
X191159839Y-90781324D01*
X191159838Y-90781331D01*
X191140708Y-90999997D01*
X191140708Y-91000002D01*
X180379894Y-91000002D01*
X180418495Y-90961401D01*
X180554035Y-90767830D01*
X180653903Y-90553663D01*
X180715063Y-90325408D01*
X180735659Y-90090000D01*
X180715063Y-89854592D01*
X180653903Y-89626337D01*
X180554035Y-89412171D01*
X180452936Y-89267785D01*
X180418494Y-89218597D01*
X180251402Y-89051506D01*
X180251395Y-89051501D01*
X180057834Y-88915967D01*
X180057830Y-88915965D01*
X180022521Y-88899500D01*
X179843663Y-88816097D01*
X179843659Y-88816096D01*
X179843655Y-88816094D01*
X179615413Y-88754938D01*
X179615403Y-88754936D01*
X179380001Y-88734341D01*
X179379999Y-88734341D01*
X179144596Y-88754936D01*
X179144586Y-88754938D01*
X178916344Y-88816094D01*
X178916335Y-88816098D01*
X178702171Y-88915964D01*
X178702169Y-88915965D01*
X178508597Y-89051505D01*
X178341505Y-89218597D01*
X178205965Y-89412169D01*
X178205964Y-89412171D01*
X178106098Y-89626335D01*
X178106094Y-89626344D01*
X178044938Y-89854586D01*
X178044936Y-89854596D01*
X178024341Y-90089999D01*
X178024341Y-90090000D01*
X178044936Y-90325403D01*
X178044938Y-90325413D01*
X178106094Y-90553655D01*
X178106096Y-90553659D01*
X178106097Y-90553663D01*
X178196374Y-90747263D01*
X178205965Y-90767830D01*
X178205967Y-90767834D01*
X178341501Y-90961395D01*
X178341506Y-90961402D01*
X178508597Y-91128493D01*
X178508603Y-91128498D01*
X178694158Y-91258425D01*
X178737783Y-91313002D01*
X178744977Y-91382500D01*
X178713454Y-91444855D01*
X178694158Y-91461575D01*
X178508597Y-91591505D01*
X178341505Y-91758597D01*
X178205965Y-91952169D01*
X178205964Y-91952171D01*
X178106098Y-92166335D01*
X178106094Y-92166344D01*
X178044938Y-92394586D01*
X178044936Y-92394596D01*
X178024341Y-92629999D01*
X178024341Y-92630000D01*
X178044936Y-92865403D01*
X178044938Y-92865413D01*
X178106094Y-93093655D01*
X178106096Y-93093659D01*
X178106097Y-93093663D01*
X178160738Y-93210841D01*
X178205965Y-93307830D01*
X178205967Y-93307834D01*
X178341501Y-93501395D01*
X178341506Y-93501402D01*
X178508597Y-93668493D01*
X178508603Y-93668498D01*
X178694158Y-93798425D01*
X178737783Y-93853002D01*
X178744977Y-93922500D01*
X178713454Y-93984855D01*
X178694158Y-94001575D01*
X178508597Y-94131505D01*
X178341505Y-94298597D01*
X178205965Y-94492169D01*
X178205964Y-94492171D01*
X178106098Y-94706335D01*
X178106094Y-94706344D01*
X178044938Y-94934586D01*
X178044936Y-94934596D01*
X178024341Y-95169999D01*
X178024341Y-95170000D01*
X178044936Y-95405403D01*
X178044938Y-95405413D01*
X178106094Y-95633655D01*
X178106096Y-95633659D01*
X178106097Y-95633663D01*
X178152490Y-95733152D01*
X178205965Y-95847830D01*
X178205967Y-95847834D01*
X178341501Y-96041395D01*
X178341506Y-96041402D01*
X178508597Y-96208493D01*
X178508603Y-96208498D01*
X178694158Y-96338425D01*
X178737783Y-96393002D01*
X178744977Y-96462500D01*
X178713454Y-96524855D01*
X178694158Y-96541575D01*
X178508597Y-96671505D01*
X178341505Y-96838597D01*
X178205965Y-97032169D01*
X178205964Y-97032171D01*
X178106098Y-97246335D01*
X178106094Y-97246344D01*
X178044938Y-97474586D01*
X178044936Y-97474596D01*
X178024341Y-97709999D01*
X178024341Y-97710000D01*
X166650500Y-97710000D01*
X166650500Y-85010000D01*
X178024341Y-85010000D01*
X178044936Y-85245403D01*
X178044938Y-85245413D01*
X178106094Y-85473655D01*
X178106096Y-85473659D01*
X178106097Y-85473663D01*
X178205965Y-85687830D01*
X178205967Y-85687834D01*
X178284507Y-85800000D01*
X178341505Y-85881401D01*
X178508599Y-86048495D01*
X178605384Y-86116265D01*
X178702165Y-86184032D01*
X178702167Y-86184033D01*
X178702170Y-86184035D01*
X178916337Y-86283903D01*
X179144592Y-86345063D01*
X179332918Y-86361539D01*
X179379999Y-86365659D01*
X179380000Y-86365659D01*
X179380001Y-86365659D01*
X179419234Y-86362226D01*
X179615408Y-86345063D01*
X179843663Y-86283903D01*
X180057830Y-86184035D01*
X180251401Y-86048495D01*
X180418495Y-85881401D01*
X180554035Y-85687830D01*
X180653903Y-85473663D01*
X180715063Y-85245408D01*
X180735659Y-85010000D01*
X180715063Y-84774592D01*
X180653903Y-84546337D01*
X180554035Y-84332171D01*
X180453268Y-84188259D01*
X180418494Y-84138597D01*
X180251402Y-83971506D01*
X180251396Y-83971501D01*
X180065842Y-83841575D01*
X180022217Y-83786998D01*
X180015023Y-83717500D01*
X180046546Y-83655145D01*
X180065842Y-83638425D01*
X180166726Y-83567785D01*
X180251401Y-83508495D01*
X180418495Y-83341401D01*
X180554035Y-83147830D01*
X180653903Y-82933663D01*
X180715063Y-82705408D01*
X180735659Y-82470000D01*
X180715063Y-82234592D01*
X180653903Y-82006337D01*
X180554035Y-81792171D01*
X180528348Y-81755485D01*
X180418494Y-81598597D01*
X180251402Y-81431506D01*
X180251396Y-81431501D01*
X180065842Y-81301575D01*
X180022217Y-81246998D01*
X180015023Y-81177500D01*
X180046546Y-81115145D01*
X180065842Y-81098425D01*
X180160401Y-81032214D01*
X180251401Y-80968495D01*
X180418495Y-80801401D01*
X180554035Y-80607830D01*
X180653903Y-80393663D01*
X180715063Y-80165408D01*
X180735659Y-79930000D01*
X180715063Y-79694592D01*
X180653903Y-79466337D01*
X180554035Y-79252171D01*
X180493024Y-79165037D01*
X180418494Y-79058597D01*
X180251402Y-78891506D01*
X180251396Y-78891501D01*
X180065842Y-78761575D01*
X180022217Y-78706998D01*
X180015023Y-78637500D01*
X180033980Y-78600001D01*
X190594390Y-78600001D01*
X190614804Y-78885433D01*
X190675628Y-79165037D01*
X190675630Y-79165043D01*
X190675631Y-79165046D01*
X190742082Y-79343208D01*
X190775635Y-79433166D01*
X190912770Y-79684309D01*
X190912775Y-79684317D01*
X191084254Y-79913387D01*
X191084270Y-79913405D01*
X191286594Y-80115729D01*
X191286612Y-80115745D01*
X191515682Y-80287224D01*
X191515690Y-80287229D01*
X191766833Y-80424364D01*
X191766832Y-80424364D01*
X191766836Y-80424365D01*
X191766839Y-80424367D01*
X192034954Y-80524369D01*
X192034960Y-80524370D01*
X192034962Y-80524371D01*
X192314566Y-80585195D01*
X192314568Y-80585195D01*
X192314572Y-80585196D01*
X192568220Y-80603337D01*
X192599999Y-80605610D01*
X192600000Y-80605610D01*
X192600001Y-80605610D01*
X192628595Y-80603564D01*
X192885428Y-80585196D01*
X193165046Y-80524369D01*
X193433161Y-80424367D01*
X193684315Y-80287226D01*
X193913395Y-80115739D01*
X194115739Y-79913395D01*
X194287226Y-79684315D01*
X194424367Y-79433161D01*
X194524369Y-79165046D01*
X194546284Y-79064304D01*
X194585195Y-78885433D01*
X194585195Y-78885432D01*
X194585196Y-78885428D01*
X194605610Y-78600000D01*
X194585196Y-78314572D01*
X194573629Y-78261401D01*
X194524371Y-78034962D01*
X194524370Y-78034960D01*
X194524369Y-78034954D01*
X194424367Y-77766839D01*
X194372765Y-77672338D01*
X194287229Y-77515690D01*
X194287224Y-77515682D01*
X194115745Y-77286612D01*
X194115729Y-77286594D01*
X193913405Y-77084270D01*
X193913387Y-77084254D01*
X193684317Y-76912775D01*
X193684309Y-76912770D01*
X193433166Y-76775635D01*
X193433167Y-76775635D01*
X193263008Y-76712169D01*
X193165046Y-76675631D01*
X193165043Y-76675630D01*
X193165037Y-76675628D01*
X192885433Y-76614804D01*
X192600001Y-76594390D01*
X192599999Y-76594390D01*
X192314566Y-76614804D01*
X192034962Y-76675628D01*
X191766833Y-76775635D01*
X191515690Y-76912770D01*
X191515682Y-76912775D01*
X191286612Y-77084254D01*
X191286594Y-77084270D01*
X191084270Y-77286594D01*
X191084254Y-77286612D01*
X190912775Y-77515682D01*
X190912770Y-77515690D01*
X190775635Y-77766833D01*
X190675628Y-78034962D01*
X190614804Y-78314566D01*
X190594390Y-78599998D01*
X190594390Y-78600001D01*
X180033980Y-78600001D01*
X180046546Y-78575145D01*
X180065842Y-78558425D01*
X180175286Y-78481791D01*
X180251401Y-78428495D01*
X180418495Y-78261401D01*
X180554035Y-78067830D01*
X180653903Y-77853663D01*
X180715063Y-77625408D01*
X180735659Y-77390000D01*
X180715063Y-77154592D01*
X180653903Y-76926337D01*
X180554035Y-76712171D01*
X180528448Y-76675628D01*
X180418494Y-76518597D01*
X180251402Y-76351506D01*
X180251395Y-76351501D01*
X180057834Y-76215967D01*
X180057830Y-76215965D01*
X180057828Y-76215964D01*
X179843663Y-76116097D01*
X179843659Y-76116096D01*
X179843655Y-76116094D01*
X179615413Y-76054938D01*
X179615403Y-76054936D01*
X179380001Y-76034341D01*
X179379999Y-76034341D01*
X179144596Y-76054936D01*
X179144586Y-76054938D01*
X178916344Y-76116094D01*
X178916335Y-76116098D01*
X178702171Y-76215964D01*
X178702169Y-76215965D01*
X178508597Y-76351505D01*
X178341505Y-76518597D01*
X178205965Y-76712169D01*
X178205964Y-76712171D01*
X178106098Y-76926335D01*
X178106094Y-76926344D01*
X178044938Y-77154586D01*
X178044936Y-77154596D01*
X178024341Y-77389999D01*
X178024341Y-77390000D01*
X178044936Y-77625403D01*
X178044938Y-77625413D01*
X178106094Y-77853655D01*
X178106096Y-77853659D01*
X178106097Y-77853663D01*
X178150004Y-77947822D01*
X178205965Y-78067830D01*
X178205967Y-78067834D01*
X178341501Y-78261395D01*
X178341506Y-78261402D01*
X178508597Y-78428493D01*
X178508603Y-78428498D01*
X178694158Y-78558425D01*
X178737783Y-78613002D01*
X178744977Y-78682500D01*
X178713454Y-78744855D01*
X178694158Y-78761575D01*
X178508597Y-78891505D01*
X178341505Y-79058597D01*
X178205965Y-79252169D01*
X178205964Y-79252171D01*
X178106098Y-79466335D01*
X178106094Y-79466344D01*
X178044938Y-79694586D01*
X178044936Y-79694596D01*
X178024341Y-79929999D01*
X178024341Y-79930000D01*
X178044936Y-80165403D01*
X178044938Y-80165413D01*
X178106094Y-80393655D01*
X178106096Y-80393659D01*
X178106097Y-80393663D01*
X178195410Y-80585195D01*
X178205965Y-80607830D01*
X178205967Y-80607834D01*
X178262280Y-80688256D01*
X178331925Y-80787720D01*
X178341501Y-80801395D01*
X178341506Y-80801402D01*
X178508597Y-80968493D01*
X178508603Y-80968498D01*
X178694158Y-81098425D01*
X178737783Y-81153002D01*
X178744977Y-81222500D01*
X178713454Y-81284855D01*
X178694158Y-81301575D01*
X178508597Y-81431505D01*
X178341505Y-81598597D01*
X178205965Y-81792169D01*
X178205964Y-81792171D01*
X178106098Y-82006335D01*
X178106094Y-82006344D01*
X178044938Y-82234586D01*
X178044936Y-82234596D01*
X178024341Y-82469999D01*
X178024341Y-82470000D01*
X178044936Y-82705403D01*
X178044938Y-82705413D01*
X178106094Y-82933655D01*
X178106096Y-82933659D01*
X178106097Y-82933663D01*
X178170536Y-83071852D01*
X178205965Y-83147830D01*
X178205967Y-83147834D01*
X178341501Y-83341395D01*
X178341506Y-83341402D01*
X178508597Y-83508493D01*
X178508603Y-83508498D01*
X178694158Y-83638425D01*
X178737783Y-83693002D01*
X178744977Y-83762500D01*
X178713454Y-83824855D01*
X178694158Y-83841575D01*
X178508597Y-83971505D01*
X178341505Y-84138597D01*
X178205965Y-84332169D01*
X178205964Y-84332171D01*
X178106098Y-84546335D01*
X178106094Y-84546344D01*
X178044938Y-84774586D01*
X178044936Y-84774596D01*
X178024341Y-85009999D01*
X178024341Y-85010000D01*
X166650500Y-85010000D01*
X166650500Y-80862229D01*
X166670185Y-80795190D01*
X166686814Y-80774553D01*
X177815365Y-69646001D01*
X177876686Y-69612518D01*
X177946378Y-69617502D01*
X178002311Y-69659374D01*
X178026728Y-69724838D01*
X178026572Y-69744489D01*
X178024341Y-69769994D01*
X178024341Y-69770000D01*
X178044936Y-70005403D01*
X178044938Y-70005413D01*
X178106094Y-70233655D01*
X178106096Y-70233659D01*
X178106097Y-70233663D01*
X178122513Y-70268867D01*
X178205965Y-70447830D01*
X178205967Y-70447834D01*
X178341501Y-70641395D01*
X178341506Y-70641402D01*
X178508597Y-70808493D01*
X178508603Y-70808498D01*
X178694158Y-70938425D01*
X178737783Y-70993002D01*
X178744977Y-71062500D01*
X178713454Y-71124855D01*
X178694158Y-71141575D01*
X178508597Y-71271505D01*
X178341505Y-71438597D01*
X178205965Y-71632169D01*
X178205964Y-71632171D01*
X178106098Y-71846335D01*
X178106094Y-71846344D01*
X178044938Y-72074586D01*
X178044936Y-72074596D01*
X178024341Y-72309999D01*
X178024341Y-72310000D01*
X178044936Y-72545403D01*
X178044938Y-72545413D01*
X178106094Y-72773655D01*
X178106096Y-72773659D01*
X178106097Y-72773663D01*
X178205965Y-72987830D01*
X178205967Y-72987834D01*
X178314281Y-73142521D01*
X178341505Y-73181401D01*
X178508599Y-73348495D01*
X178605384Y-73416265D01*
X178702165Y-73484032D01*
X178702167Y-73484033D01*
X178702170Y-73484035D01*
X178916337Y-73583903D01*
X179144592Y-73645063D01*
X179332918Y-73661539D01*
X179379999Y-73665659D01*
X179380000Y-73665659D01*
X179380001Y-73665659D01*
X179419234Y-73662226D01*
X179615408Y-73645063D01*
X179843663Y-73583903D01*
X180057830Y-73484035D01*
X180251401Y-73348495D01*
X180418495Y-73181401D01*
X180554035Y-72987830D01*
X180653903Y-72773663D01*
X180715063Y-72545408D01*
X180735659Y-72310000D01*
X180715063Y-72074592D01*
X180653903Y-71846337D01*
X180554035Y-71632171D01*
X180475248Y-71519650D01*
X180418494Y-71438597D01*
X180353267Y-71373370D01*
X191174000Y-71373370D01*
X191174001Y-71373376D01*
X191180408Y-71432983D01*
X191230702Y-71567828D01*
X191230706Y-71567835D01*
X191316952Y-71683044D01*
X191316955Y-71683047D01*
X191432164Y-71769293D01*
X191432171Y-71769297D01*
X191567017Y-71819591D01*
X191567016Y-71819591D01*
X191573944Y-71820335D01*
X191626627Y-71826000D01*
X193373372Y-71825999D01*
X193432983Y-71819591D01*
X193567831Y-71769296D01*
X193683046Y-71683046D01*
X193769296Y-71567831D01*
X193819591Y-71432983D01*
X193826000Y-71373373D01*
X193825999Y-70500000D01*
X196248935Y-70500000D01*
X196269156Y-70731132D01*
X196269158Y-70731142D01*
X196329205Y-70955243D01*
X196329207Y-70955247D01*
X196329208Y-70955251D01*
X196346812Y-70993002D01*
X196427263Y-71165532D01*
X196427264Y-71165533D01*
X196560345Y-71355592D01*
X196724408Y-71519655D01*
X196914467Y-71652736D01*
X197124749Y-71750792D01*
X197348863Y-71810843D01*
X197522096Y-71825999D01*
X197579999Y-71831065D01*
X197580000Y-71831065D01*
X197580001Y-71831065D01*
X197618522Y-71827694D01*
X197811137Y-71810843D01*
X198035251Y-71750792D01*
X198245533Y-71652736D01*
X198435592Y-71519655D01*
X198599655Y-71355592D01*
X198732736Y-71165533D01*
X198830792Y-70955251D01*
X198890843Y-70731137D01*
X198911065Y-70500000D01*
X198890843Y-70268863D01*
X198830792Y-70044749D01*
X198732736Y-69834468D01*
X198732734Y-69834465D01*
X198732733Y-69834463D01*
X198599654Y-69644406D01*
X198435596Y-69480349D01*
X198435592Y-69480345D01*
X198245533Y-69347264D01*
X198245534Y-69347264D01*
X198245532Y-69347263D01*
X198140392Y-69298236D01*
X198035251Y-69249208D01*
X198035247Y-69249207D01*
X198035243Y-69249205D01*
X197811142Y-69189158D01*
X197811132Y-69189156D01*
X197580001Y-69168935D01*
X197579999Y-69168935D01*
X197348867Y-69189156D01*
X197348857Y-69189158D01*
X197124756Y-69249205D01*
X197124747Y-69249209D01*
X196914467Y-69347264D01*
X196914463Y-69347266D01*
X196724406Y-69480345D01*
X196560345Y-69644406D01*
X196427266Y-69834463D01*
X196427264Y-69834467D01*
X196329209Y-70044747D01*
X196329205Y-70044756D01*
X196269158Y-70268857D01*
X196269156Y-70268867D01*
X196248935Y-70499999D01*
X196248935Y-70500000D01*
X193825999Y-70500000D01*
X193825999Y-69626628D01*
X193819591Y-69567017D01*
X193807497Y-69534592D01*
X193769297Y-69432171D01*
X193769293Y-69432164D01*
X193683047Y-69316955D01*
X193683044Y-69316952D01*
X193567835Y-69230706D01*
X193567828Y-69230702D01*
X193432982Y-69180408D01*
X193432983Y-69180408D01*
X193373383Y-69174001D01*
X193373381Y-69174000D01*
X193373373Y-69174000D01*
X193373364Y-69174000D01*
X191626629Y-69174000D01*
X191626623Y-69174001D01*
X191567016Y-69180408D01*
X191432171Y-69230702D01*
X191432164Y-69230706D01*
X191316955Y-69316952D01*
X191316952Y-69316955D01*
X191230706Y-69432164D01*
X191230702Y-69432171D01*
X191180408Y-69567017D01*
X191175517Y-69612518D01*
X191174001Y-69626623D01*
X191174000Y-69626635D01*
X191174000Y-71373370D01*
X180353267Y-71373370D01*
X180251402Y-71271506D01*
X180251396Y-71271501D01*
X180065842Y-71141575D01*
X180022217Y-71086998D01*
X180015023Y-71017500D01*
X180046546Y-70955145D01*
X180065842Y-70938425D01*
X180088026Y-70922891D01*
X180251401Y-70808495D01*
X180418495Y-70641401D01*
X180554035Y-70447830D01*
X180653903Y-70233663D01*
X180715063Y-70005408D01*
X180735659Y-69770000D01*
X180735658Y-69769994D01*
X180724235Y-69639426D01*
X180715063Y-69534592D01*
X180653903Y-69306337D01*
X180554035Y-69092171D01*
X180430787Y-68916153D01*
X180418494Y-68898597D01*
X180251402Y-68731506D01*
X180251396Y-68731501D01*
X180065842Y-68601575D01*
X180022217Y-68546998D01*
X180015023Y-68477500D01*
X180046546Y-68415145D01*
X180065842Y-68398425D01*
X180088026Y-68382891D01*
X180251401Y-68268495D01*
X180418495Y-68101401D01*
X180554035Y-67907830D01*
X180653903Y-67693663D01*
X180715063Y-67465408D01*
X180735659Y-67230000D01*
X180715063Y-66994592D01*
X180653903Y-66766337D01*
X180554035Y-66552171D01*
X180418495Y-66358599D01*
X180418494Y-66358597D01*
X180251402Y-66191506D01*
X180251396Y-66191501D01*
X180065842Y-66061575D01*
X180022217Y-66006998D01*
X180015023Y-65937500D01*
X180046546Y-65875145D01*
X180065842Y-65858425D01*
X180088026Y-65842891D01*
X180251401Y-65728495D01*
X180418495Y-65561401D01*
X180554035Y-65367830D01*
X180653903Y-65153663D01*
X180715063Y-64925408D01*
X180735659Y-64690000D01*
X180715063Y-64454592D01*
X180653903Y-64226337D01*
X180554035Y-64012171D01*
X180495115Y-63928023D01*
X180418494Y-63818597D01*
X180251402Y-63651506D01*
X180251395Y-63651501D01*
X180233730Y-63639132D01*
X180160378Y-63587770D01*
X180057834Y-63515967D01*
X180057830Y-63515965D01*
X180057828Y-63515964D01*
X179843663Y-63416097D01*
X179843659Y-63416096D01*
X179843655Y-63416094D01*
X179615413Y-63354938D01*
X179615403Y-63354936D01*
X179380001Y-63334341D01*
X179379999Y-63334341D01*
X179144596Y-63354936D01*
X179144586Y-63354938D01*
X178916344Y-63416094D01*
X178916335Y-63416098D01*
X178702171Y-63515964D01*
X178702169Y-63515965D01*
X178508597Y-63651505D01*
X178341505Y-63818597D01*
X178205965Y-64012169D01*
X178205964Y-64012171D01*
X178106098Y-64226335D01*
X178106094Y-64226344D01*
X178044938Y-64454586D01*
X178044936Y-64454596D01*
X178037624Y-64538175D01*
X178012171Y-64603244D01*
X177955580Y-64644222D01*
X177885818Y-64648100D01*
X177826415Y-64615048D01*
X177437711Y-64226344D01*
X176886819Y-63675451D01*
X176853334Y-63614128D01*
X176850500Y-63587770D01*
X176850500Y-59610000D01*
X178024341Y-59610000D01*
X178044936Y-59845403D01*
X178044938Y-59845413D01*
X178106094Y-60073655D01*
X178106096Y-60073659D01*
X178106097Y-60073663D01*
X178193295Y-60260660D01*
X178205965Y-60287830D01*
X178205967Y-60287834D01*
X178256095Y-60359423D01*
X178341505Y-60481401D01*
X178508599Y-60648495D01*
X178524082Y-60659336D01*
X178702165Y-60784032D01*
X178702167Y-60784033D01*
X178702170Y-60784035D01*
X178916337Y-60883903D01*
X178916343Y-60883904D01*
X178916344Y-60883905D01*
X178928552Y-60887176D01*
X179144592Y-60945063D01*
X179332918Y-60961539D01*
X179379999Y-60965659D01*
X179380000Y-60965659D01*
X179380001Y-60965659D01*
X179419234Y-60962226D01*
X179615408Y-60945063D01*
X179843663Y-60883903D01*
X180057830Y-60784035D01*
X180251401Y-60648495D01*
X180418495Y-60481401D01*
X180554035Y-60287830D01*
X180653903Y-60073663D01*
X180715063Y-59845408D01*
X180735659Y-59610000D01*
X180715063Y-59374592D01*
X180663155Y-59180868D01*
X180653905Y-59146344D01*
X180653904Y-59146343D01*
X180653903Y-59146337D01*
X180554035Y-58932171D01*
X180419721Y-58740349D01*
X180418494Y-58738597D01*
X180251402Y-58571506D01*
X180251396Y-58571501D01*
X180065842Y-58441575D01*
X180022217Y-58386998D01*
X180015023Y-58317500D01*
X180046546Y-58255145D01*
X180065842Y-58238425D01*
X180139780Y-58186653D01*
X180251401Y-58108495D01*
X180418495Y-57941401D01*
X180554035Y-57747830D01*
X180653903Y-57533663D01*
X180715063Y-57305408D01*
X180735659Y-57070000D01*
X180715063Y-56834592D01*
X180653903Y-56606337D01*
X180554035Y-56392171D01*
X180549492Y-56385682D01*
X180418494Y-56198597D01*
X180251402Y-56031506D01*
X180251395Y-56031501D01*
X180248297Y-56029332D01*
X180210040Y-56002544D01*
X180131958Y-55947870D01*
X184919500Y-55947870D01*
X184919501Y-55947876D01*
X184925908Y-56007483D01*
X184976202Y-56142328D01*
X184976206Y-56142335D01*
X185062452Y-56257544D01*
X185062455Y-56257547D01*
X185177664Y-56343793D01*
X185177671Y-56343797D01*
X185312517Y-56394091D01*
X185312516Y-56394091D01*
X185319444Y-56394835D01*
X185372127Y-56400500D01*
X187667872Y-56400499D01*
X187727483Y-56394091D01*
X187862331Y-56343796D01*
X187977546Y-56257546D01*
X188063796Y-56142331D01*
X188114091Y-56007483D01*
X188120500Y-55947873D01*
X188120499Y-54800000D01*
X195074551Y-54800000D01*
X195094317Y-55051151D01*
X195153126Y-55296110D01*
X195249533Y-55528859D01*
X195381160Y-55743653D01*
X195381161Y-55743656D01*
X195391958Y-55756297D01*
X195544776Y-55935224D01*
X195662157Y-56035477D01*
X195736343Y-56098838D01*
X195736346Y-56098839D01*
X195951140Y-56230466D01*
X196141278Y-56309223D01*
X196183889Y-56326873D01*
X196428852Y-56385683D01*
X196680000Y-56405449D01*
X196931148Y-56385683D01*
X197176111Y-56326873D01*
X197408859Y-56230466D01*
X197623659Y-56098836D01*
X197815224Y-55935224D01*
X197978836Y-55743659D01*
X198110466Y-55528859D01*
X198206873Y-55296111D01*
X198265683Y-55051148D01*
X198285449Y-54800000D01*
X198265683Y-54548852D01*
X198206873Y-54303889D01*
X198110466Y-54071141D01*
X198110466Y-54071140D01*
X197978839Y-53856346D01*
X197978838Y-53856343D01*
X197939375Y-53810138D01*
X197815224Y-53664776D01*
X197688571Y-53556604D01*
X197623656Y-53501161D01*
X197623653Y-53501160D01*
X197408859Y-53369533D01*
X197176110Y-53273126D01*
X196931151Y-53214317D01*
X196680000Y-53194551D01*
X196428848Y-53214317D01*
X196183889Y-53273126D01*
X195951140Y-53369533D01*
X195736346Y-53501160D01*
X195736343Y-53501161D01*
X195544776Y-53664776D01*
X195381161Y-53856343D01*
X195381160Y-53856346D01*
X195249533Y-54071140D01*
X195153126Y-54303889D01*
X195094317Y-54548848D01*
X195074551Y-54800000D01*
X188120499Y-54800000D01*
X188120499Y-53652128D01*
X188114091Y-53592517D01*
X188080017Y-53501161D01*
X188063797Y-53457671D01*
X188063793Y-53457664D01*
X187977547Y-53342455D01*
X187977544Y-53342452D01*
X187862335Y-53256206D01*
X187862328Y-53256202D01*
X187727482Y-53205908D01*
X187727483Y-53205908D01*
X187667883Y-53199501D01*
X187667881Y-53199500D01*
X187667873Y-53199500D01*
X187667864Y-53199500D01*
X185372129Y-53199500D01*
X185372123Y-53199501D01*
X185312516Y-53205908D01*
X185177671Y-53256202D01*
X185177664Y-53256206D01*
X185062455Y-53342452D01*
X185062452Y-53342455D01*
X184976206Y-53457664D01*
X184976202Y-53457671D01*
X184925908Y-53592517D01*
X184919501Y-53652116D01*
X184919501Y-53652123D01*
X184919500Y-53652135D01*
X184919500Y-55947870D01*
X180131958Y-55947870D01*
X180057834Y-55895967D01*
X180057830Y-55895965D01*
X180056908Y-55895535D01*
X179843663Y-55796097D01*
X179843659Y-55796096D01*
X179843655Y-55796094D01*
X179615413Y-55734938D01*
X179615403Y-55734936D01*
X179380001Y-55714341D01*
X179379999Y-55714341D01*
X179144596Y-55734936D01*
X179144586Y-55734938D01*
X178916344Y-55796094D01*
X178916335Y-55796098D01*
X178702171Y-55895964D01*
X178702169Y-55895965D01*
X178508597Y-56031505D01*
X178341505Y-56198597D01*
X178205965Y-56392169D01*
X178205964Y-56392171D01*
X178106098Y-56606335D01*
X178106094Y-56606344D01*
X178044938Y-56834586D01*
X178044936Y-56834596D01*
X178024341Y-57069999D01*
X178024341Y-57070000D01*
X178044936Y-57305403D01*
X178044938Y-57305413D01*
X178106094Y-57533655D01*
X178106096Y-57533659D01*
X178106097Y-57533663D01*
X178153328Y-57634949D01*
X178205965Y-57747830D01*
X178205967Y-57747834D01*
X178341501Y-57941395D01*
X178341506Y-57941402D01*
X178508597Y-58108493D01*
X178508603Y-58108498D01*
X178694158Y-58238425D01*
X178737783Y-58293002D01*
X178744977Y-58362500D01*
X178713454Y-58424855D01*
X178694158Y-58441575D01*
X178508597Y-58571505D01*
X178341505Y-58738597D01*
X178205965Y-58932169D01*
X178205964Y-58932171D01*
X178106098Y-59146335D01*
X178106094Y-59146344D01*
X178044938Y-59374586D01*
X178044936Y-59374596D01*
X178024341Y-59609999D01*
X178024341Y-59610000D01*
X176850500Y-59610000D01*
X176850500Y-55863705D01*
X176851809Y-55845735D01*
X176852985Y-55837703D01*
X176855289Y-55821977D01*
X176854648Y-55814654D01*
X176850736Y-55769934D01*
X176850500Y-55764528D01*
X176850500Y-55756297D01*
X176850500Y-55756291D01*
X176846693Y-55723724D01*
X176839999Y-55647203D01*
X176839999Y-55647201D01*
X176838539Y-55640129D01*
X176838597Y-55640116D01*
X176836965Y-55632757D01*
X176836906Y-55632772D01*
X176835242Y-55625753D01*
X176835241Y-55625745D01*
X176808974Y-55553576D01*
X176784814Y-55480666D01*
X176784809Y-55480659D01*
X176781760Y-55474118D01*
X176781815Y-55474091D01*
X176778533Y-55467313D01*
X176778480Y-55467340D01*
X176775235Y-55460880D01*
X176733028Y-55396708D01*
X176692710Y-55331342D01*
X176688234Y-55325682D01*
X176688281Y-55325644D01*
X176683519Y-55319799D01*
X176683474Y-55319838D01*
X176678834Y-55314308D01*
X176622964Y-55261596D01*
X173975729Y-52614361D01*
X173963949Y-52600730D01*
X173956482Y-52590701D01*
X173949612Y-52581472D01*
X173949610Y-52581470D01*
X173909587Y-52547886D01*
X173905612Y-52544244D01*
X173902690Y-52541322D01*
X173899780Y-52538411D01*
X173874040Y-52518059D01*
X173815209Y-52468694D01*
X173809180Y-52464729D01*
X173809212Y-52464680D01*
X173802853Y-52460628D01*
X173802822Y-52460679D01*
X173796680Y-52456891D01*
X173796678Y-52456890D01*
X173796677Y-52456889D01*
X173757474Y-52438608D01*
X173727058Y-52424424D01*
X173692894Y-52407267D01*
X173658433Y-52389960D01*
X173658431Y-52389959D01*
X173658430Y-52389959D01*
X173651645Y-52387489D01*
X173651665Y-52387433D01*
X173644549Y-52384959D01*
X173644531Y-52385015D01*
X173637671Y-52382742D01*
X173609841Y-52376996D01*
X173562434Y-52367207D01*
X173513472Y-52355603D01*
X173487719Y-52349499D01*
X173480547Y-52348661D01*
X173480553Y-52348601D01*
X173473055Y-52347835D01*
X173473050Y-52347895D01*
X173465860Y-52347265D01*
X173389083Y-52349500D01*
X161063705Y-52349500D01*
X161045735Y-52348191D01*
X161021972Y-52344710D01*
X160977512Y-52348601D01*
X160969931Y-52349264D01*
X160964530Y-52349500D01*
X160956289Y-52349500D01*
X160934579Y-52352037D01*
X160923724Y-52353306D01*
X160908419Y-52354645D01*
X160847199Y-52360001D01*
X160840132Y-52361460D01*
X160840120Y-52361404D01*
X160832763Y-52363035D01*
X160832777Y-52363092D01*
X160825743Y-52364759D01*
X160753575Y-52391025D01*
X160680675Y-52415181D01*
X160674126Y-52418236D01*
X160674101Y-52418183D01*
X160667308Y-52421471D01*
X160667334Y-52421523D01*
X160660880Y-52424764D01*
X160596708Y-52466971D01*
X160531347Y-52507285D01*
X160525683Y-52511765D01*
X160525647Y-52511719D01*
X160519798Y-52516484D01*
X160519835Y-52516528D01*
X160514310Y-52521164D01*
X160461597Y-52577035D01*
X150514358Y-62524272D01*
X150500729Y-62536051D01*
X150481468Y-62550390D01*
X150447898Y-62590397D01*
X150444253Y-62594376D01*
X150438409Y-62600222D01*
X150418059Y-62625959D01*
X150368695Y-62684789D01*
X150364729Y-62690819D01*
X150364682Y-62690788D01*
X150360630Y-62697147D01*
X150360679Y-62697177D01*
X150356889Y-62703321D01*
X150324424Y-62772941D01*
X150289960Y-62841566D01*
X150287488Y-62848357D01*
X150287432Y-62848336D01*
X150284960Y-62855450D01*
X150285015Y-62855469D01*
X150282742Y-62862327D01*
X150274975Y-62899946D01*
X150267207Y-62937565D01*
X150254001Y-62993284D01*
X150249498Y-63012286D01*
X150248661Y-63019454D01*
X150248601Y-63019447D01*
X150247835Y-63026945D01*
X150247895Y-63026951D01*
X150247265Y-63034140D01*
X150249500Y-63110916D01*
X150249500Y-67665677D01*
X150232887Y-67727677D01*
X150172821Y-67831714D01*
X150138682Y-67936784D01*
X150114326Y-68011744D01*
X150094540Y-68200000D01*
X150114326Y-68388256D01*
X150114327Y-68388259D01*
X150172818Y-68568277D01*
X150172821Y-68568284D01*
X150232887Y-68672321D01*
X150249500Y-68734321D01*
X150249500Y-80337770D01*
X150229815Y-80404809D01*
X150213181Y-80425451D01*
X145625451Y-85013181D01*
X145564128Y-85046666D01*
X145537770Y-85049500D01*
X142739337Y-85049500D01*
X142672298Y-85029815D01*
X142666452Y-85025818D01*
X142652734Y-85015851D01*
X142652729Y-85015848D01*
X142479807Y-84938857D01*
X142479802Y-84938855D01*
X142334001Y-84907865D01*
X142294646Y-84899500D01*
X142105354Y-84899500D01*
X142072897Y-84906398D01*
X141920197Y-84938855D01*
X141920192Y-84938857D01*
X141747270Y-85015848D01*
X141747265Y-85015851D01*
X141594129Y-85127111D01*
X141467466Y-85267785D01*
X141372821Y-85431715D01*
X141372818Y-85431722D01*
X141314327Y-85611740D01*
X141314326Y-85611744D01*
X141294540Y-85800000D01*
X60900000Y-85800000D01*
X60900000Y-84100000D01*
X107494540Y-84100000D01*
X107514326Y-84288256D01*
X107514327Y-84288259D01*
X107572818Y-84468277D01*
X107572821Y-84468284D01*
X107667467Y-84632216D01*
X107794129Y-84772888D01*
X107947265Y-84884148D01*
X107947270Y-84884151D01*
X108120192Y-84961142D01*
X108120197Y-84961144D01*
X108305354Y-85000500D01*
X108305355Y-85000500D01*
X108494644Y-85000500D01*
X108494646Y-85000500D01*
X108679803Y-84961144D01*
X108852730Y-84884151D01*
X109005871Y-84772888D01*
X109132533Y-84632216D01*
X109227179Y-84468284D01*
X109285674Y-84288256D01*
X109305460Y-84100000D01*
X109294950Y-84000000D01*
X111194540Y-84000000D01*
X111214326Y-84188256D01*
X111214327Y-84188259D01*
X111272818Y-84368277D01*
X111272821Y-84368284D01*
X111367467Y-84532216D01*
X111457506Y-84632214D01*
X111494129Y-84672888D01*
X111647265Y-84784148D01*
X111647270Y-84784151D01*
X111820192Y-84861142D01*
X111820197Y-84861144D01*
X112005354Y-84900500D01*
X112005355Y-84900500D01*
X112194644Y-84900500D01*
X112194646Y-84900500D01*
X112379803Y-84861144D01*
X112552730Y-84784151D01*
X112705871Y-84672888D01*
X112832533Y-84532216D01*
X112927179Y-84368284D01*
X112985674Y-84188256D01*
X113005460Y-84000000D01*
X112985674Y-83811744D01*
X112927179Y-83631716D01*
X112832533Y-83467784D01*
X112705871Y-83327112D01*
X112690369Y-83315849D01*
X112552734Y-83215851D01*
X112552729Y-83215848D01*
X112379807Y-83138857D01*
X112379802Y-83138855D01*
X112234001Y-83107865D01*
X112194646Y-83099500D01*
X112005354Y-83099500D01*
X111972897Y-83106398D01*
X111820197Y-83138855D01*
X111820192Y-83138857D01*
X111647270Y-83215848D01*
X111647265Y-83215851D01*
X111494129Y-83327111D01*
X111367466Y-83467785D01*
X111272821Y-83631715D01*
X111272818Y-83631722D01*
X111214327Y-83811740D01*
X111214326Y-83811744D01*
X111194540Y-84000000D01*
X109294950Y-84000000D01*
X109285674Y-83911744D01*
X109227179Y-83731716D01*
X109132533Y-83567784D01*
X109005871Y-83427112D01*
X109005870Y-83427111D01*
X108852734Y-83315851D01*
X108852729Y-83315848D01*
X108679807Y-83238857D01*
X108679802Y-83238855D01*
X108534001Y-83207865D01*
X108494646Y-83199500D01*
X108305354Y-83199500D01*
X108272897Y-83206398D01*
X108120197Y-83238855D01*
X108120192Y-83238857D01*
X107947270Y-83315848D01*
X107947265Y-83315851D01*
X107794129Y-83427111D01*
X107667466Y-83567785D01*
X107572821Y-83731715D01*
X107572818Y-83731722D01*
X107538948Y-83835965D01*
X107514326Y-83911744D01*
X107494540Y-84100000D01*
X60900000Y-84100000D01*
X60900000Y-82287701D01*
X109606839Y-82287701D01*
X109626625Y-82475957D01*
X109626626Y-82475960D01*
X109685117Y-82655978D01*
X109685120Y-82655985D01*
X109779766Y-82819917D01*
X109882184Y-82933663D01*
X109906428Y-82960589D01*
X110059564Y-83071849D01*
X110059569Y-83071852D01*
X110232491Y-83148843D01*
X110232496Y-83148845D01*
X110417653Y-83188201D01*
X110417654Y-83188201D01*
X110606943Y-83188201D01*
X110606945Y-83188201D01*
X110792102Y-83148845D01*
X110965029Y-83071852D01*
X111118170Y-82960589D01*
X111244832Y-82819917D01*
X111339478Y-82655985D01*
X111397973Y-82475957D01*
X111417759Y-82287701D01*
X111397973Y-82099445D01*
X111339478Y-81919417D01*
X111244832Y-81755485D01*
X111118170Y-81614813D01*
X111118169Y-81614812D01*
X110965033Y-81503552D01*
X110965028Y-81503549D01*
X110792106Y-81426558D01*
X110792101Y-81426556D01*
X110646300Y-81395566D01*
X110606945Y-81387201D01*
X110417653Y-81387201D01*
X110385196Y-81394099D01*
X110232496Y-81426556D01*
X110232491Y-81426558D01*
X110059569Y-81503549D01*
X110059564Y-81503552D01*
X109906428Y-81614812D01*
X109779765Y-81755486D01*
X109685120Y-81919416D01*
X109685117Y-81919423D01*
X109626626Y-82099441D01*
X109626625Y-82099445D01*
X109606839Y-82287701D01*
X60900000Y-82287701D01*
X60900000Y-81054570D01*
X64314600Y-81054570D01*
X64314601Y-81054576D01*
X64321008Y-81114183D01*
X64371302Y-81249028D01*
X64371306Y-81249035D01*
X64457552Y-81364244D01*
X64457555Y-81364247D01*
X64572764Y-81450493D01*
X64572771Y-81450497D01*
X64707617Y-81500791D01*
X64707616Y-81500791D01*
X64714544Y-81501535D01*
X64767227Y-81507200D01*
X66361572Y-81507199D01*
X66421183Y-81500791D01*
X66556031Y-81450496D01*
X66671246Y-81364246D01*
X66757496Y-81249031D01*
X66807791Y-81114183D01*
X66814200Y-81054573D01*
X66814200Y-80500000D01*
X108394540Y-80500000D01*
X108414326Y-80688256D01*
X108414327Y-80688259D01*
X108472818Y-80868277D01*
X108472821Y-80868284D01*
X108567467Y-81032216D01*
X108642199Y-81115214D01*
X108694129Y-81172888D01*
X108847265Y-81284148D01*
X108847270Y-81284151D01*
X109020192Y-81361142D01*
X109020197Y-81361144D01*
X109205354Y-81400500D01*
X109205355Y-81400500D01*
X109394644Y-81400500D01*
X109394646Y-81400500D01*
X109579803Y-81361144D01*
X109752730Y-81284151D01*
X109905871Y-81172888D01*
X110032533Y-81032216D01*
X110127179Y-80868284D01*
X110185674Y-80688256D01*
X110205460Y-80500000D01*
X110185674Y-80311744D01*
X110127179Y-80131716D01*
X110032533Y-79967784D01*
X109905871Y-79827112D01*
X109905870Y-79827111D01*
X109752734Y-79715851D01*
X109752729Y-79715848D01*
X109579807Y-79638857D01*
X109579802Y-79638855D01*
X109434001Y-79607865D01*
X109394646Y-79599500D01*
X109205354Y-79599500D01*
X109172897Y-79606398D01*
X109020197Y-79638855D01*
X109020192Y-79638857D01*
X108847270Y-79715848D01*
X108847265Y-79715851D01*
X108694129Y-79827111D01*
X108567466Y-79967785D01*
X108472821Y-80131715D01*
X108472818Y-80131722D01*
X108422293Y-80287224D01*
X108414326Y-80311744D01*
X108394540Y-80500000D01*
X66814200Y-80500000D01*
X66814199Y-79460228D01*
X66807791Y-79400617D01*
X66757496Y-79265769D01*
X66757495Y-79265768D01*
X66757493Y-79265764D01*
X66671247Y-79150555D01*
X66671244Y-79150552D01*
X66556035Y-79064306D01*
X66556028Y-79064302D01*
X66421182Y-79014008D01*
X66421183Y-79014008D01*
X66361583Y-79007601D01*
X66361581Y-79007600D01*
X66361573Y-79007600D01*
X66361564Y-79007600D01*
X64767229Y-79007600D01*
X64767223Y-79007601D01*
X64707616Y-79014008D01*
X64572771Y-79064302D01*
X64572764Y-79064306D01*
X64457555Y-79150552D01*
X64457552Y-79150555D01*
X64371306Y-79265764D01*
X64371302Y-79265771D01*
X64321008Y-79400617D01*
X64317509Y-79433166D01*
X64314601Y-79460223D01*
X64314600Y-79460235D01*
X64314600Y-81054570D01*
X60900000Y-81054570D01*
X60900000Y-78912502D01*
X130658208Y-78912502D01*
X130671488Y-79064304D01*
X130677339Y-79131174D01*
X130734153Y-79343203D01*
X130734154Y-79343206D01*
X130734155Y-79343208D01*
X130826919Y-79542142D01*
X130826923Y-79542150D01*
X130952822Y-79721952D01*
X130952827Y-79721958D01*
X131108041Y-79877172D01*
X131108047Y-79877177D01*
X131287849Y-80003076D01*
X131287851Y-80003077D01*
X131287854Y-80003079D01*
X131486797Y-80095847D01*
X131698826Y-80152661D01*
X131844472Y-80165403D01*
X131917498Y-80171792D01*
X131917500Y-80171792D01*
X131917502Y-80171792D01*
X131990528Y-80165403D01*
X132136174Y-80152661D01*
X132348203Y-80095847D01*
X132547146Y-80003079D01*
X132726957Y-79877174D01*
X132882174Y-79721957D01*
X133008079Y-79542146D01*
X133100847Y-79343203D01*
X133157661Y-79131174D01*
X133176792Y-78912500D01*
X133174955Y-78891506D01*
X133157661Y-78693831D01*
X133157661Y-78693826D01*
X133100847Y-78481797D01*
X133008079Y-78282854D01*
X133008077Y-78282851D01*
X133008076Y-78282849D01*
X132882177Y-78103047D01*
X132882172Y-78103041D01*
X132726958Y-77947827D01*
X132726952Y-77947822D01*
X132547150Y-77821923D01*
X132547142Y-77821919D01*
X132348208Y-77729155D01*
X132348206Y-77729154D01*
X132348203Y-77729153D01*
X132197385Y-77688740D01*
X132136175Y-77672339D01*
X132136168Y-77672338D01*
X131917502Y-77653208D01*
X131917498Y-77653208D01*
X131698831Y-77672338D01*
X131698824Y-77672339D01*
X131576402Y-77705142D01*
X131486797Y-77729153D01*
X131486795Y-77729153D01*
X131486791Y-77729155D01*
X131287857Y-77821919D01*
X131287849Y-77821923D01*
X131108047Y-77947822D01*
X131108041Y-77947827D01*
X130952827Y-78103041D01*
X130952822Y-78103047D01*
X130826923Y-78282849D01*
X130826919Y-78282857D01*
X130734155Y-78481791D01*
X130677339Y-78693824D01*
X130677338Y-78693831D01*
X130658208Y-78912497D01*
X130658208Y-78912502D01*
X60900000Y-78912502D01*
X60900000Y-75177400D01*
X64309826Y-75177400D01*
X64328885Y-75395249D01*
X64328887Y-75395259D01*
X64385483Y-75606482D01*
X64385485Y-75606486D01*
X64385486Y-75606490D01*
X64431696Y-75705588D01*
X64477906Y-75804686D01*
X64477907Y-75804687D01*
X64603341Y-75983825D01*
X64757975Y-76138459D01*
X64937113Y-76263893D01*
X65135310Y-76356314D01*
X65346546Y-76412914D01*
X65520829Y-76428162D01*
X65564399Y-76431974D01*
X65564400Y-76431974D01*
X65564401Y-76431974D01*
X65600709Y-76428797D01*
X65765612Y-76414370D01*
X130663000Y-76414370D01*
X130663001Y-76414376D01*
X130669408Y-76473983D01*
X130719702Y-76608828D01*
X130719706Y-76608835D01*
X130805952Y-76724044D01*
X130805955Y-76724047D01*
X130921164Y-76810293D01*
X130921171Y-76810297D01*
X131056017Y-76860591D01*
X131056016Y-76860591D01*
X131062944Y-76861335D01*
X131115627Y-76867000D01*
X132719372Y-76866999D01*
X132778983Y-76860591D01*
X132913831Y-76810296D01*
X133029046Y-76724046D01*
X133115296Y-76608831D01*
X133165591Y-76473983D01*
X133172000Y-76414373D01*
X133171999Y-74810628D01*
X133165591Y-74751017D01*
X133164581Y-74748310D01*
X133115297Y-74616171D01*
X133115293Y-74616164D01*
X133029047Y-74500955D01*
X133029044Y-74500952D01*
X132913835Y-74414706D01*
X132913828Y-74414702D01*
X132778982Y-74364408D01*
X132778983Y-74364408D01*
X132719383Y-74358001D01*
X132719381Y-74358000D01*
X132719373Y-74358000D01*
X132719364Y-74358000D01*
X131115629Y-74358000D01*
X131115623Y-74358001D01*
X131056016Y-74364408D01*
X130921171Y-74414702D01*
X130921164Y-74414706D01*
X130805955Y-74500952D01*
X130805952Y-74500955D01*
X130719706Y-74616164D01*
X130719702Y-74616171D01*
X130669408Y-74751017D01*
X130663001Y-74810616D01*
X130663001Y-74810623D01*
X130663000Y-74810635D01*
X130663000Y-76414370D01*
X65765612Y-76414370D01*
X65782254Y-76412914D01*
X65993490Y-76356314D01*
X66191687Y-76263893D01*
X66370825Y-76138459D01*
X66525459Y-75983825D01*
X66650893Y-75804687D01*
X66743314Y-75606490D01*
X66799914Y-75395254D01*
X66818974Y-75177400D01*
X66799914Y-74959546D01*
X66743314Y-74748310D01*
X66650893Y-74550113D01*
X66525459Y-74370975D01*
X66370825Y-74216341D01*
X66191687Y-74090907D01*
X66191688Y-74090907D01*
X66191686Y-74090906D01*
X66092588Y-74044696D01*
X65993490Y-73998486D01*
X65993486Y-73998485D01*
X65993482Y-73998483D01*
X65782259Y-73941887D01*
X65782249Y-73941885D01*
X65564401Y-73922826D01*
X65564399Y-73922826D01*
X65346550Y-73941885D01*
X65346540Y-73941887D01*
X65135317Y-73998483D01*
X65135308Y-73998487D01*
X64937113Y-74090906D01*
X64817601Y-74174590D01*
X64757975Y-74216341D01*
X64757973Y-74216342D01*
X64757970Y-74216345D01*
X64603345Y-74370970D01*
X64477906Y-74550113D01*
X64385487Y-74748308D01*
X64385483Y-74748317D01*
X64328887Y-74959540D01*
X64328885Y-74959550D01*
X64309826Y-75177399D01*
X64309826Y-75177400D01*
X60900000Y-75177400D01*
X60900000Y-69639426D01*
X60900113Y-69635683D01*
X60909507Y-69480345D01*
X60921640Y-69279723D01*
X60922538Y-69272324D01*
X60986472Y-68923399D01*
X60988257Y-68916153D01*
X61093778Y-68577462D01*
X61096423Y-68570488D01*
X61241990Y-68246993D01*
X61245457Y-68240385D01*
X61428955Y-67936784D01*
X61433186Y-67930654D01*
X61653108Y-67649882D01*
X61655444Y-67647078D01*
X62361429Y-66850000D01*
X67144284Y-61450002D01*
X76875708Y-61450002D01*
X76890464Y-61618675D01*
X76894839Y-61668674D01*
X76951653Y-61880703D01*
X76951654Y-61880706D01*
X76951655Y-61880708D01*
X77044419Y-62079642D01*
X77044423Y-62079650D01*
X77170322Y-62259452D01*
X77170327Y-62259458D01*
X77325541Y-62414672D01*
X77325547Y-62414677D01*
X77505349Y-62540576D01*
X77505351Y-62540577D01*
X77505354Y-62540579D01*
X77704297Y-62633347D01*
X77916326Y-62690161D01*
X78066772Y-62703323D01*
X78134998Y-62709292D01*
X78135000Y-62709292D01*
X78135002Y-62709292D01*
X78189797Y-62704498D01*
X78353674Y-62690161D01*
X78565703Y-62633347D01*
X78764646Y-62540579D01*
X78944457Y-62414674D01*
X79099674Y-62259457D01*
X79104986Y-62251870D01*
X80180500Y-62251870D01*
X80180501Y-62251876D01*
X80186908Y-62311483D01*
X80237202Y-62446328D01*
X80237206Y-62446335D01*
X80323452Y-62561544D01*
X80323455Y-62561547D01*
X80438664Y-62647793D01*
X80438671Y-62647797D01*
X80573517Y-62698091D01*
X80573516Y-62698091D01*
X80580444Y-62698835D01*
X80633127Y-62704500D01*
X82236872Y-62704499D01*
X82296483Y-62698091D01*
X82431331Y-62647796D01*
X82546546Y-62561546D01*
X82632796Y-62446331D01*
X82683091Y-62311483D01*
X82689500Y-62251873D01*
X82689499Y-61400002D01*
X96915708Y-61400002D01*
X96923168Y-61485277D01*
X96934839Y-61618674D01*
X96991653Y-61830703D01*
X96991654Y-61830706D01*
X96991655Y-61830708D01*
X97084419Y-62029642D01*
X97084423Y-62029650D01*
X97210322Y-62209452D01*
X97210327Y-62209458D01*
X97365541Y-62364672D01*
X97365547Y-62364677D01*
X97545349Y-62490576D01*
X97545351Y-62490577D01*
X97545354Y-62490579D01*
X97744297Y-62583347D01*
X97956326Y-62640161D01*
X98112521Y-62653826D01*
X98174998Y-62659292D01*
X98175000Y-62659292D01*
X98175002Y-62659292D01*
X98229797Y-62654498D01*
X98393674Y-62640161D01*
X98605703Y-62583347D01*
X98804646Y-62490579D01*
X98984457Y-62364674D01*
X99139674Y-62209457D01*
X99144986Y-62201870D01*
X100220500Y-62201870D01*
X100220501Y-62201876D01*
X100226908Y-62261483D01*
X100277202Y-62396328D01*
X100277206Y-62396335D01*
X100363452Y-62511544D01*
X100363455Y-62511547D01*
X100478664Y-62597793D01*
X100478671Y-62597797D01*
X100613517Y-62648091D01*
X100613516Y-62648091D01*
X100620444Y-62648835D01*
X100673127Y-62654500D01*
X102276872Y-62654499D01*
X102336483Y-62648091D01*
X102471331Y-62597796D01*
X102586546Y-62511546D01*
X102672796Y-62396331D01*
X102723091Y-62261483D01*
X102729500Y-62201873D01*
X102729500Y-61400002D01*
X116915708Y-61400002D01*
X116923168Y-61485277D01*
X116934839Y-61618674D01*
X116991653Y-61830703D01*
X116991654Y-61830706D01*
X116991655Y-61830708D01*
X117084419Y-62029642D01*
X117084423Y-62029650D01*
X117210322Y-62209452D01*
X117210327Y-62209458D01*
X117365541Y-62364672D01*
X117365547Y-62364677D01*
X117545349Y-62490576D01*
X117545351Y-62490577D01*
X117545354Y-62490579D01*
X117744297Y-62583347D01*
X117956326Y-62640161D01*
X118112521Y-62653826D01*
X118174998Y-62659292D01*
X118175000Y-62659292D01*
X118175002Y-62659292D01*
X118229797Y-62654498D01*
X118393674Y-62640161D01*
X118605703Y-62583347D01*
X118804646Y-62490579D01*
X118984457Y-62364674D01*
X119139674Y-62209457D01*
X119144986Y-62201870D01*
X120220500Y-62201870D01*
X120220501Y-62201876D01*
X120226908Y-62261483D01*
X120277202Y-62396328D01*
X120277206Y-62396335D01*
X120363452Y-62511544D01*
X120363455Y-62511547D01*
X120478664Y-62597793D01*
X120478671Y-62597797D01*
X120613517Y-62648091D01*
X120613516Y-62648091D01*
X120620444Y-62648835D01*
X120673127Y-62654500D01*
X122276872Y-62654499D01*
X122336483Y-62648091D01*
X122471331Y-62597796D01*
X122586546Y-62511546D01*
X122672796Y-62396331D01*
X122723091Y-62261483D01*
X122729500Y-62201873D01*
X122729500Y-61400002D01*
X140040708Y-61400002D01*
X140048168Y-61485277D01*
X140059839Y-61618674D01*
X140116653Y-61830703D01*
X140116654Y-61830706D01*
X140116655Y-61830708D01*
X140209419Y-62029642D01*
X140209423Y-62029650D01*
X140335322Y-62209452D01*
X140335327Y-62209458D01*
X140490541Y-62364672D01*
X140490547Y-62364677D01*
X140670349Y-62490576D01*
X140670351Y-62490577D01*
X140670354Y-62490579D01*
X140869297Y-62583347D01*
X141081326Y-62640161D01*
X141237521Y-62653826D01*
X141299998Y-62659292D01*
X141300000Y-62659292D01*
X141300002Y-62659292D01*
X141354797Y-62654498D01*
X141518674Y-62640161D01*
X141730703Y-62583347D01*
X141929646Y-62490579D01*
X142109457Y-62364674D01*
X142264674Y-62209457D01*
X142390579Y-62029646D01*
X142483347Y-61830703D01*
X142540161Y-61618674D01*
X142558808Y-61405537D01*
X142559292Y-61400002D01*
X142559292Y-61399997D01*
X142548818Y-61280284D01*
X142540161Y-61181326D01*
X142483347Y-60969297D01*
X142390579Y-60770354D01*
X142369427Y-60740146D01*
X142354669Y-60719068D01*
X142332342Y-60652862D01*
X142349353Y-60585094D01*
X142400301Y-60537282D01*
X142403811Y-60535576D01*
X142564646Y-60460579D01*
X142744457Y-60334674D01*
X142862319Y-60216812D01*
X142923642Y-60183327D01*
X142993334Y-60188311D01*
X143037681Y-60216812D01*
X143155541Y-60334672D01*
X143155547Y-60334677D01*
X143190885Y-60359421D01*
X143298547Y-60434807D01*
X143342172Y-60489383D01*
X143350713Y-60549633D01*
X143345500Y-60598127D01*
X143345500Y-60598128D01*
X143345500Y-60598132D01*
X143345500Y-62201870D01*
X143345501Y-62201876D01*
X143351908Y-62261483D01*
X143402202Y-62396328D01*
X143402206Y-62396335D01*
X143488452Y-62511544D01*
X143488455Y-62511547D01*
X143603664Y-62597793D01*
X143603671Y-62597797D01*
X143738517Y-62648091D01*
X143738516Y-62648091D01*
X143745444Y-62648835D01*
X143798127Y-62654500D01*
X145401872Y-62654499D01*
X145461483Y-62648091D01*
X145596331Y-62597796D01*
X145711546Y-62511546D01*
X145797796Y-62396331D01*
X145848091Y-62261483D01*
X145854500Y-62201873D01*
X145854499Y-60598128D01*
X145848091Y-60538517D01*
X145847630Y-60537282D01*
X145797797Y-60403671D01*
X145797793Y-60403664D01*
X145711547Y-60288455D01*
X145711544Y-60288452D01*
X145596335Y-60202206D01*
X145596328Y-60202202D01*
X145461482Y-60151908D01*
X145461483Y-60151908D01*
X145401883Y-60145501D01*
X145401881Y-60145500D01*
X145401873Y-60145500D01*
X145401865Y-60145500D01*
X145182207Y-60145500D01*
X145115168Y-60125815D01*
X145069413Y-60073011D01*
X145059469Y-60003853D01*
X145069825Y-59969096D01*
X145113107Y-59876276D01*
X145148347Y-59800703D01*
X145205161Y-59588674D01*
X145224292Y-59370000D01*
X145223621Y-59362334D01*
X145215481Y-59269284D01*
X145205161Y-59151326D01*
X145148347Y-58939297D01*
X145055579Y-58740354D01*
X145055577Y-58740351D01*
X145055576Y-58740349D01*
X144929677Y-58560547D01*
X144929672Y-58560541D01*
X144774458Y-58405327D01*
X144774452Y-58405322D01*
X144594650Y-58279423D01*
X144594642Y-58279419D01*
X144395708Y-58186655D01*
X144395706Y-58186654D01*
X144395703Y-58186653D01*
X144244885Y-58146240D01*
X144183675Y-58129839D01*
X144183668Y-58129838D01*
X143965002Y-58110708D01*
X143964998Y-58110708D01*
X143746331Y-58129838D01*
X143746324Y-58129839D01*
X143623902Y-58162642D01*
X143534297Y-58186653D01*
X143534295Y-58186653D01*
X143534291Y-58186655D01*
X143335357Y-58279419D01*
X143335349Y-58279423D01*
X143155547Y-58405322D01*
X143155541Y-58405327D01*
X143037681Y-58523188D01*
X142976358Y-58556673D01*
X142906666Y-58551689D01*
X142862319Y-58523188D01*
X142744458Y-58405327D01*
X142744452Y-58405322D01*
X142564650Y-58279423D01*
X142564642Y-58279419D01*
X142365708Y-58186655D01*
X142365706Y-58186654D01*
X142365703Y-58186653D01*
X142214885Y-58146240D01*
X142153675Y-58129839D01*
X142153668Y-58129838D01*
X141935002Y-58110708D01*
X141934998Y-58110708D01*
X141716331Y-58129838D01*
X141716324Y-58129839D01*
X141593902Y-58162642D01*
X141504297Y-58186653D01*
X141504295Y-58186653D01*
X141504291Y-58186655D01*
X141305357Y-58279419D01*
X141305349Y-58279423D01*
X141125547Y-58405322D01*
X141125541Y-58405327D01*
X140970327Y-58560541D01*
X140970322Y-58560547D01*
X140844423Y-58740349D01*
X140844419Y-58740357D01*
X140751655Y-58939291D01*
X140751653Y-58939295D01*
X140751653Y-58939297D01*
X140733032Y-59008790D01*
X140694839Y-59151324D01*
X140694838Y-59151331D01*
X140675708Y-59369997D01*
X140675708Y-59370002D01*
X140693713Y-59575813D01*
X140694839Y-59588674D01*
X140751653Y-59800703D01*
X140751654Y-59800706D01*
X140751655Y-59800708D01*
X140844419Y-59999642D01*
X140844422Y-59999648D01*
X140880331Y-60050932D01*
X140902658Y-60117138D01*
X140885646Y-60184905D01*
X140834698Y-60232717D01*
X140831160Y-60234436D01*
X140670353Y-60309421D01*
X140670349Y-60309423D01*
X140490547Y-60435322D01*
X140490541Y-60435327D01*
X140335327Y-60590541D01*
X140335322Y-60590547D01*
X140209423Y-60770349D01*
X140209419Y-60770357D01*
X140116655Y-60969291D01*
X140116653Y-60969295D01*
X140116653Y-60969297D01*
X140098545Y-61036877D01*
X140059839Y-61181324D01*
X140059838Y-61181331D01*
X140040708Y-61399997D01*
X140040708Y-61400002D01*
X122729500Y-61400002D01*
X122729499Y-60598128D01*
X122723091Y-60538517D01*
X122722630Y-60537282D01*
X122672797Y-60403671D01*
X122672793Y-60403664D01*
X122586547Y-60288455D01*
X122586544Y-60288452D01*
X122471335Y-60202206D01*
X122471328Y-60202202D01*
X122336482Y-60151908D01*
X122336483Y-60151908D01*
X122276883Y-60145501D01*
X122276881Y-60145500D01*
X122276873Y-60145500D01*
X122276864Y-60145500D01*
X120673129Y-60145500D01*
X120673123Y-60145501D01*
X120613516Y-60151908D01*
X120478671Y-60202202D01*
X120478664Y-60202206D01*
X120363455Y-60288452D01*
X120363452Y-60288455D01*
X120277206Y-60403664D01*
X120277202Y-60403671D01*
X120226908Y-60538517D01*
X120221315Y-60590543D01*
X120220501Y-60598123D01*
X120220500Y-60598135D01*
X120220500Y-62201870D01*
X119144986Y-62201870D01*
X119265579Y-62029646D01*
X119358347Y-61830703D01*
X119415161Y-61618674D01*
X119433808Y-61405537D01*
X119434292Y-61400002D01*
X119434292Y-61399997D01*
X119423818Y-61280284D01*
X119415161Y-61181326D01*
X119358347Y-60969297D01*
X119265579Y-60770354D01*
X119265577Y-60770351D01*
X119265576Y-60770349D01*
X119139677Y-60590547D01*
X119139672Y-60590541D01*
X118984458Y-60435327D01*
X118984452Y-60435322D01*
X118804650Y-60309423D01*
X118804642Y-60309419D01*
X118605708Y-60216655D01*
X118605706Y-60216654D01*
X118605703Y-60216653D01*
X118445291Y-60173670D01*
X118393675Y-60159839D01*
X118393668Y-60159838D01*
X118175002Y-60140708D01*
X118174998Y-60140708D01*
X117956331Y-60159838D01*
X117956324Y-60159839D01*
X117868669Y-60183327D01*
X117744297Y-60216653D01*
X117744295Y-60216653D01*
X117744291Y-60216655D01*
X117545357Y-60309419D01*
X117545349Y-60309423D01*
X117365547Y-60435322D01*
X117365541Y-60435327D01*
X117210327Y-60590541D01*
X117210322Y-60590547D01*
X117084423Y-60770349D01*
X117084419Y-60770357D01*
X116991655Y-60969291D01*
X116991653Y-60969295D01*
X116991653Y-60969297D01*
X116973545Y-61036877D01*
X116934839Y-61181324D01*
X116934838Y-61181331D01*
X116915708Y-61399997D01*
X116915708Y-61400002D01*
X102729500Y-61400002D01*
X102729499Y-60598128D01*
X102723091Y-60538517D01*
X102722630Y-60537282D01*
X102672797Y-60403671D01*
X102672793Y-60403664D01*
X102586547Y-60288455D01*
X102586544Y-60288452D01*
X102471335Y-60202206D01*
X102471328Y-60202202D01*
X102336482Y-60151908D01*
X102336483Y-60151908D01*
X102276883Y-60145501D01*
X102276881Y-60145500D01*
X102276873Y-60145500D01*
X102276864Y-60145500D01*
X100673129Y-60145500D01*
X100673123Y-60145501D01*
X100613516Y-60151908D01*
X100478671Y-60202202D01*
X100478664Y-60202206D01*
X100363455Y-60288452D01*
X100363452Y-60288455D01*
X100277206Y-60403664D01*
X100277202Y-60403671D01*
X100226908Y-60538517D01*
X100221315Y-60590543D01*
X100220501Y-60598123D01*
X100220500Y-60598135D01*
X100220500Y-62201870D01*
X99144986Y-62201870D01*
X99265579Y-62029646D01*
X99358347Y-61830703D01*
X99415161Y-61618674D01*
X99433808Y-61405537D01*
X99434292Y-61400002D01*
X99434292Y-61399997D01*
X99423818Y-61280284D01*
X99415161Y-61181326D01*
X99358347Y-60969297D01*
X99265579Y-60770354D01*
X99265577Y-60770351D01*
X99265576Y-60770349D01*
X99139677Y-60590547D01*
X99139672Y-60590541D01*
X98984458Y-60435327D01*
X98984452Y-60435322D01*
X98804650Y-60309423D01*
X98804642Y-60309419D01*
X98605708Y-60216655D01*
X98605706Y-60216654D01*
X98605703Y-60216653D01*
X98445291Y-60173670D01*
X98393675Y-60159839D01*
X98393668Y-60159838D01*
X98175002Y-60140708D01*
X98174998Y-60140708D01*
X97956331Y-60159838D01*
X97956324Y-60159839D01*
X97868669Y-60183327D01*
X97744297Y-60216653D01*
X97744295Y-60216653D01*
X97744291Y-60216655D01*
X97545357Y-60309419D01*
X97545349Y-60309423D01*
X97365547Y-60435322D01*
X97365541Y-60435327D01*
X97210327Y-60590541D01*
X97210322Y-60590547D01*
X97084423Y-60770349D01*
X97084419Y-60770357D01*
X96991655Y-60969291D01*
X96991653Y-60969295D01*
X96991653Y-60969297D01*
X96973545Y-61036877D01*
X96934839Y-61181324D01*
X96934838Y-61181331D01*
X96915708Y-61399997D01*
X96915708Y-61400002D01*
X82689499Y-61400002D01*
X82689499Y-60648128D01*
X82683091Y-60588517D01*
X82681814Y-60585094D01*
X82632797Y-60453671D01*
X82632793Y-60453664D01*
X82546547Y-60338455D01*
X82546544Y-60338452D01*
X82431335Y-60252206D01*
X82431328Y-60252202D01*
X82296482Y-60201908D01*
X82296483Y-60201908D01*
X82236883Y-60195501D01*
X82236881Y-60195500D01*
X82236873Y-60195500D01*
X82236864Y-60195500D01*
X80633129Y-60195500D01*
X80633123Y-60195501D01*
X80573516Y-60201908D01*
X80438671Y-60252202D01*
X80438664Y-60252206D01*
X80323455Y-60338452D01*
X80323452Y-60338455D01*
X80237206Y-60453664D01*
X80237202Y-60453671D01*
X80186908Y-60588517D01*
X80181315Y-60640543D01*
X80180501Y-60648123D01*
X80180500Y-60648135D01*
X80180500Y-62251870D01*
X79104986Y-62251870D01*
X79225579Y-62079646D01*
X79318347Y-61880703D01*
X79375161Y-61668674D01*
X79394292Y-61450000D01*
X79389917Y-61399997D01*
X79387117Y-61367997D01*
X79375161Y-61231326D01*
X79318347Y-61019297D01*
X79225579Y-60820354D01*
X79225577Y-60820351D01*
X79225576Y-60820349D01*
X79099677Y-60640547D01*
X79099672Y-60640541D01*
X78944458Y-60485327D01*
X78944452Y-60485322D01*
X78764650Y-60359423D01*
X78764642Y-60359419D01*
X78565708Y-60266655D01*
X78565706Y-60266654D01*
X78565703Y-60266653D01*
X78414885Y-60226240D01*
X78353675Y-60209839D01*
X78353668Y-60209838D01*
X78135002Y-60190708D01*
X78134998Y-60190708D01*
X77916331Y-60209838D01*
X77916324Y-60209839D01*
X77824530Y-60234436D01*
X77704297Y-60266653D01*
X77704295Y-60266653D01*
X77704291Y-60266655D01*
X77505357Y-60359419D01*
X77505349Y-60359423D01*
X77325547Y-60485322D01*
X77325541Y-60485327D01*
X77170327Y-60640541D01*
X77170322Y-60640547D01*
X77044423Y-60820349D01*
X77044419Y-60820357D01*
X76951655Y-61019291D01*
X76951653Y-61019295D01*
X76951653Y-61019297D01*
X76946942Y-61036880D01*
X76894839Y-61231324D01*
X76894838Y-61231331D01*
X76875708Y-61449997D01*
X76875708Y-61450002D01*
X67144284Y-61450002D01*
X75081312Y-52488841D01*
X75503421Y-52012266D01*
X75505943Y-52009587D01*
X75758160Y-51757315D01*
X75763747Y-51752363D01*
X76043047Y-51533506D01*
X76049210Y-51529250D01*
X76352843Y-51345665D01*
X76359474Y-51342186D01*
X76467418Y-51293596D01*
X76683037Y-51196539D01*
X76690016Y-51193892D01*
X77028784Y-51088312D01*
X77036036Y-51086524D01*
X77385055Y-51022554D01*
X77392484Y-51021653D01*
X77748535Y-51000113D01*
X77752280Y-51000000D01*
X197235323Y-51000000D01*
X197238913Y-51000103D01*
G37*
G04 #@! TD.AperFunction*
M02*
