G04 #@! TF.GenerationSoftware,KiCad,Pcbnew,7.0.8*
G04 #@! TF.CreationDate,2024-12-11T20:09:02-06:00*
G04 #@! TF.ProjectId,LEC,4c45432e-6b69-4636-9164-5f7063625858,rev?*
G04 #@! TF.SameCoordinates,Original*
G04 #@! TF.FileFunction,Soldermask,Top*
G04 #@! TF.FilePolarity,Negative*
%FSLAX46Y46*%
G04 Gerber Fmt 4.6, Leading zero omitted, Abs format (unit mm)*
G04 Created by KiCad (PCBNEW 7.0.8) date 2024-12-11 20:09:02*
%MOMM*%
%LPD*%
G01*
G04 APERTURE LIST*
G04 Aperture macros list*
%AMRoundRect*
0 Rectangle with rounded corners*
0 $1 Rounding radius*
0 $2 $3 $4 $5 $6 $7 $8 $9 X,Y pos of 4 corners*
0 Add a 4 corners polygon primitive as box body*
4,1,4,$2,$3,$4,$5,$6,$7,$8,$9,$2,$3,0*
0 Add four circle primitives for the rounded corners*
1,1,$1+$1,$2,$3*
1,1,$1+$1,$4,$5*
1,1,$1+$1,$6,$7*
1,1,$1+$1,$8,$9*
0 Add four rect primitives between the rounded corners*
20,1,$1+$1,$2,$3,$4,$5,0*
20,1,$1+$1,$4,$5,$6,$7,0*
20,1,$1+$1,$6,$7,$8,$9,0*
20,1,$1+$1,$8,$9,$2,$3,0*%
G04 Aperture macros list end*
%ADD10RoundRect,0.102000X-0.754000X-0.754000X0.754000X-0.754000X0.754000X0.754000X-0.754000X0.754000X0*%
%ADD11C,1.712000*%
%ADD12R,3.000000X3.000000*%
%ADD13C,3.000000*%
%ADD14RoundRect,0.102000X0.754000X-0.754000X0.754000X0.754000X-0.754000X0.754000X-0.754000X-0.754000X0*%
%ADD15RoundRect,0.102000X-0.754000X0.754000X-0.754000X-0.754000X0.754000X-0.754000X0.754000X0.754000X0*%
%ADD16C,3.200000*%
%ADD17RoundRect,0.250000X0.250000X0.475000X-0.250000X0.475000X-0.250000X-0.475000X0.250000X-0.475000X0*%
%ADD18R,2.200000X2.200000*%
%ADD19O,2.200000X2.200000*%
%ADD20RoundRect,0.250000X-0.475000X0.250000X-0.475000X-0.250000X0.475000X-0.250000X0.475000X0.250000X0*%
%ADD21RoundRect,0.102000X0.754000X0.754000X-0.754000X0.754000X-0.754000X-0.754000X0.754000X-0.754000X0*%
%ADD22O,1.800000X1.800000*%
%ADD23O,1.500000X1.500000*%
%ADD24O,1.700000X1.700000*%
%ADD25R,3.500000X1.700000*%
%ADD26R,1.700000X1.700000*%
%ADD27R,1.700000X3.500000*%
%ADD28R,1.498600X1.498600*%
%ADD29C,1.498600*%
%ADD30R,1.651000X1.651000*%
%ADD31C,1.651000*%
%ADD32RoundRect,0.250000X-0.250000X-0.475000X0.250000X-0.475000X0.250000X0.475000X-0.250000X0.475000X0*%
G04 APERTURE END LIST*
D10*
X81435000Y-61450000D03*
D11*
X80800000Y-59420000D03*
X78135000Y-61450000D03*
X78770000Y-59420000D03*
D12*
X85000000Y-94800000D03*
D13*
X80000000Y-94800000D03*
D14*
X131900000Y-94520000D03*
D11*
X129870000Y-95155000D03*
X131900000Y-97820000D03*
X129870000Y-97185000D03*
D12*
X197600000Y-78600000D03*
D13*
X192600000Y-78600000D03*
D15*
X192500000Y-113000000D03*
D11*
X194530000Y-112365000D03*
X192500000Y-109700000D03*
X194530000Y-110335000D03*
D10*
X121475000Y-61400000D03*
D11*
X120840000Y-59370000D03*
X118175000Y-61400000D03*
X118810000Y-59370000D03*
D16*
X205600000Y-56500000D03*
D17*
X194530000Y-63500000D03*
X192630000Y-63500000D03*
D15*
X192400000Y-94300000D03*
D11*
X194430000Y-93665000D03*
X192400000Y-91000000D03*
X194430000Y-91635000D03*
D16*
X205700000Y-120400000D03*
D10*
X101475000Y-61400000D03*
D11*
X100840000Y-59370000D03*
X98175000Y-61400000D03*
X98810000Y-59370000D03*
D18*
X186520000Y-54800000D03*
D19*
X196680000Y-54800000D03*
D20*
X187800000Y-59950000D03*
X187800000Y-61850000D03*
X70200000Y-92000000D03*
X70200000Y-93900000D03*
D21*
X141385000Y-115300000D03*
D11*
X142020000Y-117330000D03*
X144685000Y-115300000D03*
X144050000Y-117330000D03*
D14*
X131917500Y-75612500D03*
D11*
X129887500Y-76247500D03*
X131917500Y-78912500D03*
X129887500Y-78277500D03*
D20*
X71050000Y-75257400D03*
X71050000Y-77157400D03*
D10*
X144600000Y-61400000D03*
D11*
X143965000Y-59370000D03*
X141300000Y-61400000D03*
X141935000Y-59370000D03*
D16*
X66000000Y-120400000D03*
D22*
X167765000Y-57200000D03*
D23*
X168065000Y-60230000D03*
X172915000Y-60230000D03*
D22*
X173215000Y-57200000D03*
D24*
X161600000Y-57070000D03*
D25*
X160700000Y-57070000D03*
D24*
X161600000Y-59610000D03*
D25*
X160700000Y-59610000D03*
D26*
X161600000Y-62150000D03*
D25*
X160700000Y-62150000D03*
D24*
X161600000Y-64690000D03*
D25*
X160700000Y-64690000D03*
D24*
X161600000Y-67230000D03*
D25*
X160700000Y-67230000D03*
D24*
X161600000Y-69770000D03*
D25*
X160700000Y-69770000D03*
D24*
X161600000Y-72310000D03*
D25*
X160700000Y-72310000D03*
D26*
X161600000Y-74850000D03*
D25*
X160700000Y-74850000D03*
D24*
X161600000Y-77390000D03*
D25*
X160700000Y-77390000D03*
D24*
X161600000Y-79930000D03*
D25*
X160700000Y-79930000D03*
D24*
X161600000Y-82470000D03*
D25*
X160700000Y-82470000D03*
D24*
X161600000Y-85010000D03*
D25*
X160700000Y-85010000D03*
D26*
X161600000Y-87550000D03*
D25*
X160700000Y-87550000D03*
D24*
X161600000Y-90090000D03*
D25*
X160700000Y-90090000D03*
D24*
X161600000Y-92630000D03*
D25*
X160700000Y-92630000D03*
D24*
X161600000Y-95170000D03*
D25*
X160700000Y-95170000D03*
D24*
X161600000Y-97710000D03*
D25*
X160700000Y-97710000D03*
D26*
X161600000Y-100250000D03*
D25*
X160700000Y-100250000D03*
D24*
X161600000Y-102790000D03*
D25*
X160700000Y-102790000D03*
D24*
X161600000Y-105330000D03*
D25*
X160700000Y-105330000D03*
D24*
X179380000Y-105330000D03*
D25*
X180280000Y-105330000D03*
D24*
X179380000Y-102790000D03*
D25*
X180280000Y-102790000D03*
D26*
X179380000Y-100250000D03*
D25*
X180280000Y-100250000D03*
D24*
X179380000Y-97710000D03*
D25*
X180280000Y-97710000D03*
D24*
X179380000Y-95170000D03*
D25*
X180280000Y-95170000D03*
D24*
X179380000Y-92630000D03*
D25*
X180280000Y-92630000D03*
D24*
X179380000Y-90090000D03*
D25*
X180280000Y-90090000D03*
D26*
X179380000Y-87550000D03*
D25*
X180280000Y-87550000D03*
D24*
X179380000Y-85010000D03*
D25*
X180280000Y-85010000D03*
D24*
X179380000Y-82470000D03*
D25*
X180280000Y-82470000D03*
D24*
X179380000Y-79930000D03*
D25*
X180280000Y-79930000D03*
D24*
X179380000Y-77390000D03*
D25*
X180280000Y-77390000D03*
D26*
X179380000Y-74850000D03*
D25*
X180280000Y-74850000D03*
D24*
X179380000Y-72310000D03*
D25*
X180280000Y-72310000D03*
D24*
X179380000Y-69770000D03*
D25*
X180280000Y-69770000D03*
D24*
X179380000Y-67230000D03*
D25*
X180280000Y-67230000D03*
D24*
X179380000Y-64690000D03*
D25*
X180280000Y-64690000D03*
D26*
X179380000Y-62150000D03*
D25*
X180280000Y-62150000D03*
D24*
X179380000Y-59610000D03*
D25*
X180280000Y-59610000D03*
D24*
X179380000Y-57070000D03*
D25*
X180280000Y-57070000D03*
D24*
X167950000Y-105100000D03*
D27*
X167950000Y-106000000D03*
D26*
X170490000Y-105100000D03*
D27*
X170490000Y-106000000D03*
D24*
X173030000Y-105100000D03*
D27*
X173030000Y-106000000D03*
D16*
X66000000Y-56500000D03*
D28*
X65564400Y-80257400D03*
D29*
X65564400Y-77717400D03*
X65564400Y-75177400D03*
D21*
X80765000Y-115270000D03*
D11*
X81400000Y-117300000D03*
X84065000Y-115270000D03*
X83430000Y-117300000D03*
D30*
X192500000Y-70500000D03*
D31*
X195040000Y-70500000D03*
X197580000Y-70500000D03*
D32*
X197880000Y-63500000D03*
X199780000Y-63500000D03*
D28*
X65564400Y-96840000D03*
D29*
X65564400Y-94300000D03*
X65564400Y-91760000D03*
D21*
X121335000Y-115300000D03*
D11*
X121970000Y-117330000D03*
X124635000Y-115300000D03*
X124000000Y-117330000D03*
D21*
X101335000Y-115300000D03*
D11*
X101970000Y-117330000D03*
X104635000Y-115300000D03*
X104000000Y-117330000D03*
D31*
X101449000Y-91900000D03*
X103989000Y-91900000D03*
X106529000Y-91900000D03*
M02*
