%TF.GenerationSoftware,KiCad,Pcbnew,7.0.8*%
%TF.CreationDate,2024-12-11T20:14:41-06:00*%
%TF.ProjectId,LEC,4c45432e-6b69-4636-9164-5f7063625858,rev?*%
%TF.SameCoordinates,Original*%
%TF.FileFunction,Drillmap*%
%TF.FilePolarity,Positive*%
%FSLAX45Y45*%
G04 Gerber Fmt 4.5, Leading zero omitted, Abs format (unit mm)*
G04 Created by KiCad (PCBNEW 7.0.8) date 2024-12-11 20:14:41*
%MOMM*%
%LPD*%
G01*
G04 APERTURE LIST*
%ADD10C,0.050000*%
%ADD11C,0.200000*%
%ADD12C,0.040000*%
%ADD13C,0.099060*%
%ADD14C,0.100000*%
%ADD15C,0.102000*%
%ADD16C,0.110000*%
%ADD17C,0.114300*%
%ADD18C,0.180000*%
G04 APERTURE END LIST*
D10*
X21230000Y-12040000D02*
X21230000Y-5650000D01*
X6600000Y-12700000D02*
X20570000Y-12700000D01*
X6600000Y-4980000D02*
G75*
G03*
X5940000Y-5640000I0J-660000D01*
G01*
X20560000Y-4980000D02*
X6600000Y-4980000D01*
X5940000Y-12040000D02*
G75*
G03*
X6600000Y-12700000I660000J0D01*
G01*
X5940000Y-5640000D02*
X5940000Y-12040000D01*
X20570000Y-12700000D02*
G75*
G03*
X21230000Y-12040000I0J660000D01*
G01*
X21230000Y-5650000D02*
G75*
G03*
X20560000Y-4980000I-670000J0D01*
G01*
D11*
D12*
X6417500Y-6957500D02*
X6457500Y-6997500D01*
X6457500Y-6957500D02*
X6417500Y-6997500D01*
X6417500Y-8457500D02*
X6457500Y-8497500D01*
X6457500Y-8457500D02*
X6417500Y-8497500D01*
X6417500Y-8957500D02*
X6457500Y-8997500D01*
X6457500Y-8957500D02*
X6417500Y-8997500D01*
X6417500Y-9957500D02*
X6457500Y-9997500D01*
X6457500Y-9957500D02*
X6417500Y-9997500D01*
X6417500Y-10457500D02*
X6457500Y-10497500D01*
X6457500Y-10457500D02*
X6417500Y-10497500D01*
X6417500Y-10957500D02*
X6457500Y-10997500D01*
X6457500Y-10957500D02*
X6417500Y-10997500D01*
X6917500Y-5957500D02*
X6957500Y-5997500D01*
X6957500Y-5957500D02*
X6917500Y-5997500D01*
X6917500Y-6457500D02*
X6957500Y-6497500D01*
X6957500Y-6457500D02*
X6917500Y-6497500D01*
X6917500Y-6957500D02*
X6957500Y-6997500D01*
X6957500Y-6957500D02*
X6917500Y-6997500D01*
X6917500Y-8457500D02*
X6957500Y-8497500D01*
X6957500Y-8457500D02*
X6917500Y-8497500D01*
X6917500Y-8957500D02*
X6957500Y-8997500D01*
X6957500Y-8957500D02*
X6917500Y-8997500D01*
X6917500Y-9957500D02*
X6957500Y-9997500D01*
X6957500Y-9957500D02*
X6917500Y-9997500D01*
X6917500Y-10457500D02*
X6957500Y-10497500D01*
X6957500Y-10457500D02*
X6917500Y-10497500D01*
X6917500Y-10957500D02*
X6957500Y-10997500D01*
X6957500Y-10957500D02*
X6917500Y-10997500D01*
X6917500Y-11457500D02*
X6957500Y-11497500D01*
X6957500Y-11457500D02*
X6917500Y-11497500D01*
X7417500Y-5457500D02*
X7457500Y-5497500D01*
X7457500Y-5457500D02*
X7417500Y-5497500D01*
X7417500Y-5957500D02*
X7457500Y-5997500D01*
X7457500Y-5957500D02*
X7417500Y-5997500D01*
X7417500Y-9957500D02*
X7457500Y-9997500D01*
X7457500Y-9957500D02*
X7417500Y-9997500D01*
X7417500Y-10457500D02*
X7457500Y-10497500D01*
X7457500Y-10457500D02*
X7417500Y-10497500D01*
X7417500Y-10957500D02*
X7457500Y-10997500D01*
X7457500Y-10957500D02*
X7417500Y-10997500D01*
X7417500Y-11457500D02*
X7457500Y-11497500D01*
X7457500Y-11457500D02*
X7417500Y-11497500D01*
X7417500Y-11957500D02*
X7457500Y-11997500D01*
X7457500Y-11957500D02*
X7417500Y-11997500D01*
X7917500Y-5457500D02*
X7957500Y-5497500D01*
X7957500Y-5457500D02*
X7917500Y-5497500D01*
X7917500Y-9957500D02*
X7957500Y-9997500D01*
X7957500Y-9957500D02*
X7917500Y-9997500D01*
X7917500Y-10457500D02*
X7957500Y-10497500D01*
X7957500Y-10457500D02*
X7917500Y-10497500D01*
X7917500Y-10957500D02*
X7957500Y-10997500D01*
X7957500Y-10957500D02*
X7917500Y-10997500D01*
X7917500Y-11957500D02*
X7957500Y-11997500D01*
X7957500Y-11957500D02*
X7917500Y-11997500D01*
X7917500Y-12457500D02*
X7957500Y-12497500D01*
X7957500Y-12457500D02*
X7917500Y-12497500D01*
X8417500Y-5457500D02*
X8457500Y-5497500D01*
X8457500Y-5457500D02*
X8417500Y-5497500D01*
X8417500Y-5957500D02*
X8457500Y-5997500D01*
X8457500Y-5957500D02*
X8417500Y-5997500D01*
X8417500Y-6457500D02*
X8457500Y-6497500D01*
X8457500Y-6457500D02*
X8417500Y-6497500D01*
X8417500Y-9957500D02*
X8457500Y-9997500D01*
X8457500Y-9957500D02*
X8417500Y-9997500D01*
X8417500Y-11957500D02*
X8457500Y-11997500D01*
X8457500Y-11957500D02*
X8417500Y-11997500D01*
X8417500Y-12457500D02*
X8457500Y-12497500D01*
X8457500Y-12457500D02*
X8417500Y-12497500D01*
X8640000Y-7620000D02*
X8680000Y-7660000D01*
X8680000Y-7620000D02*
X8640000Y-7660000D01*
X8870000Y-8150000D02*
X8910000Y-8190000D01*
X8910000Y-8150000D02*
X8870000Y-8190000D01*
X8917500Y-5457500D02*
X8957500Y-5497500D01*
X8957500Y-5457500D02*
X8917500Y-5497500D01*
X8917500Y-5957500D02*
X8957500Y-5997500D01*
X8957500Y-5957500D02*
X8917500Y-5997500D01*
X8917500Y-6457500D02*
X8957500Y-6497500D01*
X8957500Y-6457500D02*
X8917500Y-6497500D01*
X8917500Y-9457500D02*
X8957500Y-9497500D01*
X8957500Y-9457500D02*
X8917500Y-9497500D01*
X8917500Y-9957500D02*
X8957500Y-9997500D01*
X8957500Y-9957500D02*
X8917500Y-9997500D01*
X8917500Y-10457500D02*
X8957500Y-10497500D01*
X8957500Y-10457500D02*
X8917500Y-10497500D01*
X8917500Y-10957500D02*
X8957500Y-10997500D01*
X8957500Y-10957500D02*
X8917500Y-10997500D01*
X8917500Y-11957500D02*
X8957500Y-11997500D01*
X8957500Y-11957500D02*
X8917500Y-11997500D01*
X8917500Y-12457500D02*
X8957500Y-12497500D01*
X8957500Y-12457500D02*
X8917500Y-12497500D01*
X9417500Y-5457500D02*
X9457500Y-5497500D01*
X9457500Y-5457500D02*
X9417500Y-5497500D01*
X9417500Y-5957500D02*
X9457500Y-5997500D01*
X9457500Y-5957500D02*
X9417500Y-5997500D01*
X9417500Y-9957500D02*
X9457500Y-9997500D01*
X9457500Y-9957500D02*
X9417500Y-9997500D01*
X9417500Y-10457500D02*
X9457500Y-10497500D01*
X9457500Y-10457500D02*
X9417500Y-10497500D01*
X9417500Y-11457500D02*
X9457500Y-11497500D01*
X9457500Y-11457500D02*
X9417500Y-11497500D01*
X9417500Y-11957500D02*
X9457500Y-11997500D01*
X9457500Y-11957500D02*
X9417500Y-11997500D01*
X9417500Y-12457500D02*
X9457500Y-12497500D01*
X9457500Y-12457500D02*
X9417500Y-12497500D01*
X9917500Y-5457500D02*
X9957500Y-5497500D01*
X9957500Y-5457500D02*
X9917500Y-5497500D01*
X9917500Y-8457500D02*
X9957500Y-8497500D01*
X9957500Y-8457500D02*
X9917500Y-8497500D01*
X9917500Y-8957500D02*
X9957500Y-8997500D01*
X9957500Y-8957500D02*
X9917500Y-8997500D01*
X9917500Y-9457500D02*
X9957500Y-9497500D01*
X9957500Y-9457500D02*
X9917500Y-9497500D01*
X9917500Y-9957500D02*
X9957500Y-9997500D01*
X9957500Y-9957500D02*
X9917500Y-9997500D01*
X9917500Y-10957500D02*
X9957500Y-10997500D01*
X9957500Y-10957500D02*
X9917500Y-10997500D01*
X9917500Y-11457500D02*
X9957500Y-11497500D01*
X9957500Y-11457500D02*
X9917500Y-11497500D01*
X9917500Y-11957500D02*
X9957500Y-11997500D01*
X9957500Y-11957500D02*
X9917500Y-11997500D01*
X9917500Y-12457500D02*
X9957500Y-12497500D01*
X9957500Y-12457500D02*
X9917500Y-12497500D01*
X10180000Y-7850000D02*
X10220000Y-7890000D01*
X10220000Y-7850000D02*
X10180000Y-7890000D01*
X10417500Y-5457500D02*
X10457500Y-5497500D01*
X10457500Y-5457500D02*
X10417500Y-5497500D01*
X10417500Y-5957500D02*
X10457500Y-5997500D01*
X10457500Y-5957500D02*
X10417500Y-5997500D01*
X10417500Y-6457500D02*
X10457500Y-6497500D01*
X10457500Y-6457500D02*
X10417500Y-6497500D01*
X10417500Y-6957500D02*
X10457500Y-6997500D01*
X10457500Y-6957500D02*
X10417500Y-6997500D01*
X10417500Y-8957500D02*
X10457500Y-8997500D01*
X10457500Y-8957500D02*
X10417500Y-8997500D01*
X10417500Y-9457500D02*
X10457500Y-9497500D01*
X10457500Y-9457500D02*
X10417500Y-9497500D01*
X10417500Y-9957500D02*
X10457500Y-9997500D01*
X10457500Y-9957500D02*
X10417500Y-9997500D01*
X10417500Y-11957500D02*
X10457500Y-11997500D01*
X10457500Y-11957500D02*
X10417500Y-11997500D01*
X10417500Y-12457500D02*
X10457500Y-12497500D01*
X10457500Y-12457500D02*
X10417500Y-12497500D01*
X10820000Y-8390000D02*
X10860000Y-8430000D01*
X10860000Y-8390000D02*
X10820000Y-8430000D01*
X10880000Y-8740000D02*
X10920000Y-8780000D01*
X10920000Y-8740000D02*
X10880000Y-8780000D01*
X10910000Y-8030000D02*
X10950000Y-8070000D01*
X10950000Y-8030000D02*
X10910000Y-8070000D01*
X10917500Y-5457500D02*
X10957500Y-5497500D01*
X10957500Y-5457500D02*
X10917500Y-5497500D01*
X10917500Y-5957500D02*
X10957500Y-5997500D01*
X10957500Y-5957500D02*
X10917500Y-5997500D01*
X10917500Y-6957500D02*
X10957500Y-6997500D01*
X10957500Y-6957500D02*
X10917500Y-6997500D01*
X10917500Y-8957500D02*
X10957500Y-8997500D01*
X10957500Y-8957500D02*
X10917500Y-8997500D01*
X10917500Y-9457500D02*
X10957500Y-9497500D01*
X10957500Y-9457500D02*
X10917500Y-9497500D01*
X10917500Y-10457500D02*
X10957500Y-10497500D01*
X10957500Y-10457500D02*
X10917500Y-10497500D01*
X10917500Y-10957500D02*
X10957500Y-10997500D01*
X10957500Y-10957500D02*
X10917500Y-10997500D01*
X10917500Y-11457500D02*
X10957500Y-11497500D01*
X10957500Y-11457500D02*
X10917500Y-11497500D01*
X10917500Y-11957500D02*
X10957500Y-11997500D01*
X10957500Y-11957500D02*
X10917500Y-11997500D01*
X10917500Y-12457500D02*
X10957500Y-12497500D01*
X10957500Y-12457500D02*
X10917500Y-12497500D01*
X11031230Y-8208770D02*
X11071230Y-8248770D01*
X11071230Y-8208770D02*
X11031230Y-8248770D01*
X11190000Y-8380000D02*
X11230000Y-8420000D01*
X11230000Y-8380000D02*
X11190000Y-8420000D01*
X11210000Y-8740000D02*
X11250000Y-8780000D01*
X11250000Y-8740000D02*
X11210000Y-8780000D01*
X11417500Y-5457500D02*
X11457500Y-5497500D01*
X11457500Y-5457500D02*
X11417500Y-5497500D01*
X11417500Y-5957500D02*
X11457500Y-5997500D01*
X11457500Y-5957500D02*
X11417500Y-5997500D01*
X11417500Y-9957500D02*
X11457500Y-9997500D01*
X11457500Y-9957500D02*
X11417500Y-9997500D01*
X11417500Y-10457500D02*
X11457500Y-10497500D01*
X11457500Y-10457500D02*
X11417500Y-10497500D01*
X11417500Y-10957500D02*
X11457500Y-10997500D01*
X11457500Y-10957500D02*
X11417500Y-10997500D01*
X11417500Y-11457500D02*
X11457500Y-11497500D01*
X11457500Y-11457500D02*
X11417500Y-11497500D01*
X11417500Y-11957500D02*
X11457500Y-11997500D01*
X11457500Y-11957500D02*
X11417500Y-11997500D01*
X11417500Y-12457500D02*
X11457500Y-12497500D01*
X11457500Y-12457500D02*
X11417500Y-12497500D01*
X11917500Y-5457500D02*
X11957500Y-5497500D01*
X11957500Y-5457500D02*
X11917500Y-5497500D01*
X11917500Y-6957500D02*
X11957500Y-6997500D01*
X11957500Y-6957500D02*
X11917500Y-6997500D01*
X11917500Y-7457500D02*
X11957500Y-7497500D01*
X11957500Y-7457500D02*
X11917500Y-7497500D01*
X11917500Y-9457500D02*
X11957500Y-9497500D01*
X11957500Y-9457500D02*
X11917500Y-9497500D01*
X11917500Y-10957500D02*
X11957500Y-10997500D01*
X11957500Y-10957500D02*
X11917500Y-10997500D01*
X11917500Y-11457500D02*
X11957500Y-11497500D01*
X11957500Y-11457500D02*
X11917500Y-11497500D01*
X11917500Y-11957500D02*
X11957500Y-11997500D01*
X11957500Y-11957500D02*
X11917500Y-11997500D01*
X11917500Y-12457500D02*
X11957500Y-12497500D01*
X11957500Y-12457500D02*
X11917500Y-12497500D01*
X12417500Y-5457500D02*
X12457500Y-5497500D01*
X12457500Y-5457500D02*
X12417500Y-5497500D01*
X12417500Y-5957500D02*
X12457500Y-5997500D01*
X12457500Y-5957500D02*
X12417500Y-5997500D01*
X12417500Y-6457500D02*
X12457500Y-6497500D01*
X12457500Y-6457500D02*
X12417500Y-6497500D01*
X12417500Y-6957500D02*
X12457500Y-6997500D01*
X12457500Y-6957500D02*
X12417500Y-6997500D01*
X12417500Y-7457500D02*
X12457500Y-7497500D01*
X12457500Y-7457500D02*
X12417500Y-7497500D01*
X12417500Y-9457500D02*
X12457500Y-9497500D01*
X12457500Y-9457500D02*
X12417500Y-9497500D01*
X12417500Y-9957500D02*
X12457500Y-9997500D01*
X12457500Y-9957500D02*
X12417500Y-9997500D01*
X12417500Y-11957500D02*
X12457500Y-11997500D01*
X12457500Y-11957500D02*
X12417500Y-11997500D01*
X12417500Y-12457500D02*
X12457500Y-12497500D01*
X12457500Y-12457500D02*
X12417500Y-12497500D01*
X12917500Y-5457500D02*
X12957500Y-5497500D01*
X12957500Y-5457500D02*
X12917500Y-5497500D01*
X12917500Y-5957500D02*
X12957500Y-5997500D01*
X12957500Y-5957500D02*
X12917500Y-5997500D01*
X12917500Y-6457500D02*
X12957500Y-6497500D01*
X12957500Y-6457500D02*
X12917500Y-6497500D01*
X12917500Y-6957500D02*
X12957500Y-6997500D01*
X12957500Y-6957500D02*
X12917500Y-6997500D01*
X12917500Y-9957500D02*
X12957500Y-9997500D01*
X12957500Y-9957500D02*
X12917500Y-9997500D01*
X12917500Y-10457500D02*
X12957500Y-10497500D01*
X12957500Y-10457500D02*
X12917500Y-10497500D01*
X12917500Y-11457500D02*
X12957500Y-11497500D01*
X12957500Y-11457500D02*
X12917500Y-11497500D01*
X12917500Y-11957500D02*
X12957500Y-11997500D01*
X12957500Y-11957500D02*
X12917500Y-11997500D01*
X12917500Y-12457500D02*
X12957500Y-12497500D01*
X12957500Y-12457500D02*
X12917500Y-12497500D01*
X13417500Y-5457500D02*
X13457500Y-5497500D01*
X13457500Y-5457500D02*
X13417500Y-5497500D01*
X13417500Y-5957500D02*
X13457500Y-5997500D01*
X13457500Y-5957500D02*
X13417500Y-5997500D01*
X13417500Y-6457500D02*
X13457500Y-6497500D01*
X13457500Y-6457500D02*
X13417500Y-6497500D01*
X13417500Y-6957500D02*
X13457500Y-6997500D01*
X13457500Y-6957500D02*
X13417500Y-6997500D01*
X13417500Y-9957500D02*
X13457500Y-9997500D01*
X13457500Y-9957500D02*
X13417500Y-9997500D01*
X13417500Y-10457500D02*
X13457500Y-10497500D01*
X13457500Y-10457500D02*
X13417500Y-10497500D01*
X13417500Y-11457500D02*
X13457500Y-11497500D01*
X13457500Y-11457500D02*
X13417500Y-11497500D01*
X13417500Y-11957500D02*
X13457500Y-11997500D01*
X13457500Y-11957500D02*
X13417500Y-11997500D01*
X13417500Y-12457500D02*
X13457500Y-12497500D01*
X13457500Y-12457500D02*
X13417500Y-12497500D01*
X13917500Y-5457500D02*
X13957500Y-5497500D01*
X13957500Y-5457500D02*
X13917500Y-5497500D01*
X13917500Y-5957500D02*
X13957500Y-5997500D01*
X13957500Y-5957500D02*
X13917500Y-5997500D01*
X13917500Y-6457500D02*
X13957500Y-6497500D01*
X13957500Y-6457500D02*
X13917500Y-6497500D01*
X13917500Y-6957500D02*
X13957500Y-6997500D01*
X13957500Y-6957500D02*
X13917500Y-6997500D01*
X13917500Y-9957500D02*
X13957500Y-9997500D01*
X13957500Y-9957500D02*
X13917500Y-9997500D01*
X13917500Y-10457500D02*
X13957500Y-10497500D01*
X13957500Y-10457500D02*
X13917500Y-10497500D01*
X13917500Y-11457500D02*
X13957500Y-11497500D01*
X13957500Y-11457500D02*
X13917500Y-11497500D01*
X13917500Y-11957500D02*
X13957500Y-11997500D01*
X13957500Y-11957500D02*
X13917500Y-11997500D01*
X13917500Y-12457500D02*
X13957500Y-12497500D01*
X13957500Y-12457500D02*
X13917500Y-12497500D01*
X14200000Y-8560000D02*
X14240000Y-8600000D01*
X14240000Y-8560000D02*
X14200000Y-8600000D01*
X14417500Y-5457500D02*
X14457500Y-5497500D01*
X14457500Y-5457500D02*
X14417500Y-5497500D01*
X14417500Y-6957500D02*
X14457500Y-6997500D01*
X14457500Y-6957500D02*
X14417500Y-6997500D01*
X14417500Y-10457500D02*
X14457500Y-10497500D01*
X14457500Y-10457500D02*
X14417500Y-10497500D01*
X14417500Y-11957500D02*
X14457500Y-11997500D01*
X14457500Y-11957500D02*
X14417500Y-11997500D01*
X14417500Y-12457500D02*
X14457500Y-12497500D01*
X14457500Y-12457500D02*
X14417500Y-12497500D01*
X14730000Y-9130000D02*
X14770000Y-9170000D01*
X14770000Y-9130000D02*
X14730000Y-9170000D01*
X14840000Y-9410000D02*
X14880000Y-9450000D01*
X14880000Y-9410000D02*
X14840000Y-9450000D01*
X14917500Y-5457500D02*
X14957500Y-5497500D01*
X14957500Y-5457500D02*
X14917500Y-5497500D01*
X14917500Y-6957500D02*
X14957500Y-6997500D01*
X14957500Y-6957500D02*
X14917500Y-6997500D01*
X14917500Y-7457500D02*
X14957500Y-7497500D01*
X14957500Y-7457500D02*
X14917500Y-7497500D01*
X14917500Y-9957500D02*
X14957500Y-9997500D01*
X14957500Y-9957500D02*
X14917500Y-9997500D01*
X14917500Y-10457500D02*
X14957500Y-10497500D01*
X14957500Y-10457500D02*
X14917500Y-10497500D01*
X14917500Y-10957500D02*
X14957500Y-10997500D01*
X14957500Y-10957500D02*
X14917500Y-10997500D01*
X14917500Y-11457500D02*
X14957500Y-11497500D01*
X14957500Y-11457500D02*
X14917500Y-11497500D01*
X14917500Y-11957500D02*
X14957500Y-11997500D01*
X14957500Y-11957500D02*
X14917500Y-11997500D01*
X14917500Y-12457500D02*
X14957500Y-12497500D01*
X14957500Y-12457500D02*
X14917500Y-12497500D01*
X15080000Y-6800000D02*
X15120000Y-6840000D01*
X15120000Y-6800000D02*
X15080000Y-6840000D01*
X15190000Y-10090000D02*
X15230000Y-10130000D01*
X15230000Y-10090000D02*
X15190000Y-10130000D01*
X15200000Y-8960000D02*
X15240000Y-9000000D01*
X15240000Y-8960000D02*
X15200000Y-9000000D01*
X15250000Y-5750000D02*
X15290000Y-5790000D01*
X15290000Y-5750000D02*
X15250000Y-5790000D01*
X15410000Y-6540000D02*
X15450000Y-6580000D01*
X15450000Y-6540000D02*
X15410000Y-6580000D01*
X15417500Y-5457500D02*
X15457500Y-5497500D01*
X15457500Y-5457500D02*
X15417500Y-5497500D01*
X15417500Y-6957500D02*
X15457500Y-6997500D01*
X15457500Y-6957500D02*
X15417500Y-6997500D01*
X15417500Y-9957500D02*
X15457500Y-9997500D01*
X15457500Y-9957500D02*
X15417500Y-9997500D01*
X15417500Y-10457500D02*
X15457500Y-10497500D01*
X15457500Y-10457500D02*
X15417500Y-10497500D01*
X15417500Y-10957500D02*
X15457500Y-10997500D01*
X15457500Y-10957500D02*
X15417500Y-10997500D01*
X15417500Y-11457500D02*
X15457500Y-11497500D01*
X15457500Y-11457500D02*
X15417500Y-11497500D01*
X15417500Y-11957500D02*
X15457500Y-11997500D01*
X15457500Y-11957500D02*
X15417500Y-11997500D01*
X15417500Y-12457500D02*
X15457500Y-12497500D01*
X15457500Y-12457500D02*
X15417500Y-12497500D01*
X15590000Y-6140000D02*
X15630000Y-6180000D01*
X15630000Y-6140000D02*
X15590000Y-6180000D01*
X15917500Y-10957500D02*
X15957500Y-10997500D01*
X15957500Y-10957500D02*
X15917500Y-10997500D01*
X15917500Y-11457500D02*
X15957500Y-11497500D01*
X15957500Y-11457500D02*
X15917500Y-11497500D01*
X15917500Y-11957500D02*
X15957500Y-11997500D01*
X15957500Y-11957500D02*
X15917500Y-11997500D01*
X15917500Y-12457500D02*
X15957500Y-12497500D01*
X15957500Y-12457500D02*
X15917500Y-12497500D01*
X16400000Y-12080000D02*
X16440000Y-12120000D01*
X16440000Y-12080000D02*
X16400000Y-12120000D01*
X16417500Y-5457500D02*
X16457500Y-5497500D01*
X16457500Y-5457500D02*
X16417500Y-5497500D01*
X16417500Y-5957500D02*
X16457500Y-5997500D01*
X16457500Y-5957500D02*
X16417500Y-5997500D01*
X16417500Y-6457500D02*
X16457500Y-6497500D01*
X16457500Y-6457500D02*
X16417500Y-6497500D01*
X16417500Y-6957500D02*
X16457500Y-6997500D01*
X16457500Y-6957500D02*
X16417500Y-6997500D01*
X16417500Y-7457500D02*
X16457500Y-7497500D01*
X16457500Y-7457500D02*
X16417500Y-7497500D01*
X16417500Y-7957500D02*
X16457500Y-7997500D01*
X16457500Y-7957500D02*
X16417500Y-7997500D01*
X16417500Y-8457500D02*
X16457500Y-8497500D01*
X16457500Y-8457500D02*
X16417500Y-8497500D01*
X16417500Y-8957500D02*
X16457500Y-8997500D01*
X16457500Y-8957500D02*
X16417500Y-8997500D01*
X16417500Y-9457500D02*
X16457500Y-9497500D01*
X16457500Y-9457500D02*
X16417500Y-9497500D01*
X16417500Y-9957500D02*
X16457500Y-9997500D01*
X16457500Y-9957500D02*
X16417500Y-9997500D01*
X16417500Y-10457500D02*
X16457500Y-10497500D01*
X16457500Y-10457500D02*
X16417500Y-10497500D01*
X16570000Y-10900000D02*
X16610000Y-10940000D01*
X16610000Y-10900000D02*
X16570000Y-10940000D01*
X16917500Y-5457500D02*
X16957500Y-5497500D01*
X16957500Y-5457500D02*
X16917500Y-5497500D01*
X16917500Y-6457500D02*
X16957500Y-6497500D01*
X16957500Y-6457500D02*
X16917500Y-6497500D01*
X16917500Y-6957500D02*
X16957500Y-6997500D01*
X16957500Y-6957500D02*
X16917500Y-6997500D01*
X16917500Y-7457500D02*
X16957500Y-7497500D01*
X16957500Y-7457500D02*
X16917500Y-7497500D01*
X16917500Y-7957500D02*
X16957500Y-7997500D01*
X16957500Y-7957500D02*
X16917500Y-7997500D01*
X16917500Y-8457500D02*
X16957500Y-8497500D01*
X16957500Y-8457500D02*
X16917500Y-8497500D01*
X16917500Y-8957500D02*
X16957500Y-8997500D01*
X16957500Y-8957500D02*
X16917500Y-8997500D01*
X16917500Y-9457500D02*
X16957500Y-9497500D01*
X16957500Y-9457500D02*
X16917500Y-9497500D01*
X16917500Y-9957500D02*
X16957500Y-9997500D01*
X16957500Y-9957500D02*
X16917500Y-9997500D01*
X16917500Y-10957500D02*
X16957500Y-10997500D01*
X16957500Y-10957500D02*
X16917500Y-10997500D01*
X17417500Y-6457500D02*
X17457500Y-6497500D01*
X17457500Y-6457500D02*
X17417500Y-6497500D01*
X17417500Y-6957500D02*
X17457500Y-6997500D01*
X17457500Y-6957500D02*
X17417500Y-6997500D01*
X17417500Y-7457500D02*
X17457500Y-7497500D01*
X17457500Y-7457500D02*
X17417500Y-7497500D01*
X17417500Y-7957500D02*
X17457500Y-7997500D01*
X17457500Y-7957500D02*
X17417500Y-7997500D01*
X17417500Y-8457500D02*
X17457500Y-8497500D01*
X17457500Y-8457500D02*
X17417500Y-8497500D01*
X17417500Y-8957500D02*
X17457500Y-8997500D01*
X17457500Y-8957500D02*
X17417500Y-8997500D01*
X17417500Y-9457500D02*
X17457500Y-9497500D01*
X17457500Y-9457500D02*
X17417500Y-9497500D01*
X17417500Y-9957500D02*
X17457500Y-9997500D01*
X17457500Y-9957500D02*
X17417500Y-9997500D01*
X17417500Y-12457500D02*
X17457500Y-12497500D01*
X17457500Y-12457500D02*
X17417500Y-12497500D01*
X17917500Y-5457500D02*
X17957500Y-5497500D01*
X17957500Y-5457500D02*
X17917500Y-5497500D01*
X17917500Y-11957500D02*
X17957500Y-11997500D01*
X17957500Y-11957500D02*
X17917500Y-11997500D01*
X17917500Y-12457500D02*
X17957500Y-12497500D01*
X17957500Y-12457500D02*
X17917500Y-12497500D01*
X18417500Y-5457500D02*
X18457500Y-5497500D01*
X18457500Y-5457500D02*
X18417500Y-5497500D01*
X18417500Y-6457500D02*
X18457500Y-6497500D01*
X18457500Y-6457500D02*
X18417500Y-6497500D01*
X18417500Y-6957500D02*
X18457500Y-6997500D01*
X18457500Y-6957500D02*
X18417500Y-6997500D01*
X18417500Y-7457500D02*
X18457500Y-7497500D01*
X18457500Y-7457500D02*
X18417500Y-7497500D01*
X18417500Y-7957500D02*
X18457500Y-7997500D01*
X18457500Y-7957500D02*
X18417500Y-7997500D01*
X18417500Y-8957500D02*
X18457500Y-8997500D01*
X18457500Y-8957500D02*
X18417500Y-8997500D01*
X18417500Y-10957500D02*
X18457500Y-10997500D01*
X18457500Y-10957500D02*
X18417500Y-10997500D01*
X18417500Y-11457500D02*
X18457500Y-11497500D01*
X18457500Y-11457500D02*
X18417500Y-11497500D01*
X18417500Y-11957500D02*
X18457500Y-11997500D01*
X18457500Y-11957500D02*
X18417500Y-11997500D01*
X18417500Y-12457500D02*
X18457500Y-12497500D01*
X18457500Y-12457500D02*
X18417500Y-12497500D01*
X18917500Y-6457500D02*
X18957500Y-6497500D01*
X18957500Y-6457500D02*
X18917500Y-6497500D01*
X18917500Y-6957500D02*
X18957500Y-6997500D01*
X18957500Y-6957500D02*
X18917500Y-6997500D01*
X18917500Y-7457500D02*
X18957500Y-7497500D01*
X18957500Y-7457500D02*
X18917500Y-7497500D01*
X18917500Y-7957500D02*
X18957500Y-7997500D01*
X18957500Y-7957500D02*
X18917500Y-7997500D01*
X18917500Y-8457500D02*
X18957500Y-8497500D01*
X18957500Y-8457500D02*
X18917500Y-8497500D01*
X18917500Y-8957500D02*
X18957500Y-8997500D01*
X18957500Y-8957500D02*
X18917500Y-8997500D01*
X18917500Y-9457500D02*
X18957500Y-9497500D01*
X18957500Y-9457500D02*
X18917500Y-9497500D01*
X18917500Y-9957500D02*
X18957500Y-9997500D01*
X18957500Y-9957500D02*
X18917500Y-9997500D01*
X18917500Y-10457500D02*
X18957500Y-10497500D01*
X18957500Y-10457500D02*
X18917500Y-10497500D01*
X18917500Y-11957500D02*
X18957500Y-11997500D01*
X18957500Y-11957500D02*
X18917500Y-11997500D01*
X18917500Y-12457500D02*
X18957500Y-12497500D01*
X18957500Y-12457500D02*
X18917500Y-12497500D01*
X19417500Y-5457500D02*
X19457500Y-5497500D01*
X19457500Y-5457500D02*
X19417500Y-5497500D01*
X19417500Y-5957500D02*
X19457500Y-5997500D01*
X19457500Y-5957500D02*
X19417500Y-5997500D01*
X19417500Y-7457500D02*
X19457500Y-7497500D01*
X19457500Y-7457500D02*
X19417500Y-7497500D01*
X19417500Y-8957500D02*
X19457500Y-8997500D01*
X19457500Y-8957500D02*
X19417500Y-8997500D01*
X19417500Y-11957500D02*
X19457500Y-11997500D01*
X19457500Y-11957500D02*
X19417500Y-11997500D01*
X19417500Y-12457500D02*
X19457500Y-12497500D01*
X19457500Y-12457500D02*
X19417500Y-12497500D01*
X19917500Y-5457500D02*
X19957500Y-5497500D01*
X19957500Y-5457500D02*
X19917500Y-5497500D01*
X19917500Y-7457500D02*
X19957500Y-7497500D01*
X19957500Y-7457500D02*
X19917500Y-7497500D01*
X19917500Y-9957500D02*
X19957500Y-9997500D01*
X19957500Y-9957500D02*
X19917500Y-9997500D01*
X19917500Y-10457500D02*
X19957500Y-10497500D01*
X19957500Y-10457500D02*
X19917500Y-10497500D01*
X19917500Y-11457500D02*
X19957500Y-11497500D01*
X19957500Y-11457500D02*
X19917500Y-11497500D01*
X19917500Y-11957500D02*
X19957500Y-11997500D01*
X19957500Y-11957500D02*
X19917500Y-11997500D01*
X20417500Y-6457500D02*
X20457500Y-6497500D01*
X20457500Y-6457500D02*
X20417500Y-6497500D01*
X20417500Y-6957500D02*
X20457500Y-6997500D01*
X20457500Y-6957500D02*
X20417500Y-6997500D01*
X20417500Y-7457500D02*
X20457500Y-7497500D01*
X20457500Y-7457500D02*
X20417500Y-7497500D01*
X20417500Y-7957500D02*
X20457500Y-7997500D01*
X20457500Y-7957500D02*
X20417500Y-7997500D01*
X20417500Y-8457500D02*
X20457500Y-8497500D01*
X20457500Y-8457500D02*
X20417500Y-8497500D01*
X20417500Y-8957500D02*
X20457500Y-8997500D01*
X20457500Y-8957500D02*
X20417500Y-8997500D01*
X20417500Y-9457500D02*
X20457500Y-9497500D01*
X20457500Y-9457500D02*
X20417500Y-9497500D01*
X20417500Y-9957500D02*
X20457500Y-9997500D01*
X20457500Y-9957500D02*
X20417500Y-9997500D01*
X20417500Y-10457500D02*
X20457500Y-10497500D01*
X20457500Y-10457500D02*
X20417500Y-10497500D01*
X20417500Y-10957500D02*
X20457500Y-10997500D01*
X20457500Y-10957500D02*
X20417500Y-10997500D01*
D13*
X6605970Y-7517740D02*
G75*
G03*
X6605970Y-7517740I-49530J0D01*
G01*
X6605970Y-7771740D02*
G75*
G03*
X6605970Y-7771740I-49530J0D01*
G01*
X6605970Y-8025740D02*
G75*
G03*
X6605970Y-8025740I-49530J0D01*
G01*
X6605970Y-9176000D02*
G75*
G03*
X6605970Y-9176000I-49530J0D01*
G01*
X6605970Y-9430000D02*
G75*
G03*
X6605970Y-9430000I-49530J0D01*
G01*
X6605970Y-9684000D02*
G75*
G03*
X6605970Y-9684000I-49530J0D01*
G01*
D14*
X7813500Y-6095000D02*
X7813500Y-6195000D01*
X7763500Y-6145000D02*
X7863500Y-6145000D01*
X7877000Y-5892000D02*
X7877000Y-5992000D01*
X7827000Y-5942000D02*
X7927000Y-5942000D01*
X8076500Y-11477000D02*
X8076500Y-11577000D01*
X8026500Y-11527000D02*
X8126500Y-11527000D01*
X8080000Y-5892000D02*
X8080000Y-5992000D01*
X8030000Y-5942000D02*
X8130000Y-5942000D01*
X8140000Y-11680000D02*
X8140000Y-11780000D01*
X8090000Y-11730000D02*
X8190000Y-11730000D01*
X8143500Y-6095000D02*
X8143500Y-6195000D01*
X8093500Y-6145000D02*
X8193500Y-6145000D01*
X8343000Y-11680000D02*
X8343000Y-11780000D01*
X8293000Y-11730000D02*
X8393000Y-11730000D01*
X8406500Y-11477000D02*
X8406500Y-11577000D01*
X8356500Y-11527000D02*
X8456500Y-11527000D01*
X9817500Y-6090000D02*
X9817500Y-6190000D01*
X9767500Y-6140000D02*
X9867500Y-6140000D01*
X9881000Y-5887000D02*
X9881000Y-5987000D01*
X9831000Y-5937000D02*
X9931000Y-5937000D01*
X10084000Y-5887000D02*
X10084000Y-5987000D01*
X10034000Y-5937000D02*
X10134000Y-5937000D01*
X10133500Y-11480000D02*
X10133500Y-11580000D01*
X10083500Y-11530000D02*
X10183500Y-11530000D01*
X10147500Y-6090000D02*
X10147500Y-6190000D01*
X10097500Y-6140000D02*
X10197500Y-6140000D01*
X10197000Y-11683000D02*
X10197000Y-11783000D01*
X10147000Y-11733000D02*
X10247000Y-11733000D01*
X10400000Y-11683000D02*
X10400000Y-11783000D01*
X10350000Y-11733000D02*
X10450000Y-11733000D01*
X10463500Y-11480000D02*
X10463500Y-11580000D01*
X10413500Y-11530000D02*
X10513500Y-11530000D01*
X11817500Y-6090000D02*
X11817500Y-6190000D01*
X11767500Y-6140000D02*
X11867500Y-6140000D01*
X11881000Y-5887000D02*
X11881000Y-5987000D01*
X11831000Y-5937000D02*
X11931000Y-5937000D01*
X12084000Y-5887000D02*
X12084000Y-5987000D01*
X12034000Y-5937000D02*
X12134000Y-5937000D01*
X12133500Y-11480000D02*
X12133500Y-11580000D01*
X12083500Y-11530000D02*
X12183500Y-11530000D01*
X12147500Y-6090000D02*
X12147500Y-6190000D01*
X12097500Y-6140000D02*
X12197500Y-6140000D01*
X12197000Y-11683000D02*
X12197000Y-11783000D01*
X12147000Y-11733000D02*
X12247000Y-11733000D01*
X12400000Y-11683000D02*
X12400000Y-11783000D01*
X12350000Y-11733000D02*
X12450000Y-11733000D01*
X12463500Y-11480000D02*
X12463500Y-11580000D01*
X12413500Y-11530000D02*
X12513500Y-11530000D01*
X12987000Y-9465500D02*
X12987000Y-9565500D01*
X12937000Y-9515500D02*
X13037000Y-9515500D01*
X12987000Y-9668500D02*
X12987000Y-9768500D01*
X12937000Y-9718500D02*
X13037000Y-9718500D01*
X12988750Y-7574750D02*
X12988750Y-7674750D01*
X12938750Y-7624750D02*
X13038750Y-7624750D01*
X12988750Y-7777750D02*
X12988750Y-7877750D01*
X12938750Y-7827750D02*
X13038750Y-7827750D01*
X13190000Y-9402000D02*
X13190000Y-9502000D01*
X13140000Y-9452000D02*
X13240000Y-9452000D01*
X13190000Y-9732000D02*
X13190000Y-9832000D01*
X13140000Y-9782000D02*
X13240000Y-9782000D01*
X13191750Y-7511250D02*
X13191750Y-7611250D01*
X13141750Y-7561250D02*
X13241750Y-7561250D01*
X13191750Y-7841250D02*
X13191750Y-7941250D01*
X13141750Y-7891250D02*
X13241750Y-7891250D01*
X14130000Y-6090000D02*
X14130000Y-6190000D01*
X14080000Y-6140000D02*
X14180000Y-6140000D01*
X14138500Y-11480000D02*
X14138500Y-11580000D01*
X14088500Y-11530000D02*
X14188500Y-11530000D01*
X14193500Y-5887000D02*
X14193500Y-5987000D01*
X14143500Y-5937000D02*
X14243500Y-5937000D01*
X14202000Y-11683000D02*
X14202000Y-11783000D01*
X14152000Y-11733000D02*
X14252000Y-11733000D01*
X14396500Y-5887000D02*
X14396500Y-5987000D01*
X14346500Y-5937000D02*
X14446500Y-5937000D01*
X14405000Y-11683000D02*
X14405000Y-11783000D01*
X14355000Y-11733000D02*
X14455000Y-11733000D01*
X14460000Y-6090000D02*
X14460000Y-6190000D01*
X14410000Y-6140000D02*
X14510000Y-6140000D01*
X14468500Y-11480000D02*
X14468500Y-11580000D01*
X14418500Y-11530000D02*
X14518500Y-11530000D01*
X19240000Y-9050000D02*
X19240000Y-9150000D01*
X19190000Y-9100000D02*
X19290000Y-9100000D01*
X19240000Y-9380000D02*
X19240000Y-9480000D01*
X19190000Y-9430000D02*
X19290000Y-9430000D01*
X19250000Y-10920000D02*
X19250000Y-11020000D01*
X19200000Y-10970000D02*
X19300000Y-10970000D01*
X19250000Y-11250000D02*
X19250000Y-11350000D01*
X19200000Y-11300000D02*
X19300000Y-11300000D01*
X19443000Y-9113500D02*
X19443000Y-9213500D01*
X19393000Y-9163500D02*
X19493000Y-9163500D01*
X19443000Y-9316500D02*
X19443000Y-9416500D01*
X19393000Y-9366500D02*
X19493000Y-9366500D01*
X19453000Y-10983500D02*
X19453000Y-11083500D01*
X19403000Y-11033500D02*
X19503000Y-11033500D01*
X19453000Y-11186500D02*
X19453000Y-11286500D01*
X19403000Y-11236500D02*
X19503000Y-11236500D01*
D15*
X16196063Y-5743063D02*
X16196063Y-5670937D01*
X16123937Y-5670937D01*
X16123937Y-5743063D01*
X16196063Y-5743063D01*
X16196063Y-5997063D02*
X16196063Y-5924937D01*
X16123937Y-5924937D01*
X16123937Y-5997063D01*
X16196063Y-5997063D01*
X16196063Y-6251063D02*
X16196063Y-6178937D01*
X16123937Y-6178937D01*
X16123937Y-6251063D01*
X16196063Y-6251063D01*
X16196063Y-6505063D02*
X16196063Y-6432937D01*
X16123937Y-6432937D01*
X16123937Y-6505063D01*
X16196063Y-6505063D01*
X16196063Y-6759063D02*
X16196063Y-6686937D01*
X16123937Y-6686937D01*
X16123937Y-6759063D01*
X16196063Y-6759063D01*
X16196063Y-7013063D02*
X16196063Y-6940937D01*
X16123937Y-6940937D01*
X16123937Y-7013063D01*
X16196063Y-7013063D01*
X16196063Y-7267063D02*
X16196063Y-7194937D01*
X16123937Y-7194937D01*
X16123937Y-7267063D01*
X16196063Y-7267063D01*
X16196063Y-7521063D02*
X16196063Y-7448937D01*
X16123937Y-7448937D01*
X16123937Y-7521063D01*
X16196063Y-7521063D01*
X16196063Y-7775063D02*
X16196063Y-7702937D01*
X16123937Y-7702937D01*
X16123937Y-7775063D01*
X16196063Y-7775063D01*
X16196063Y-8029063D02*
X16196063Y-7956937D01*
X16123937Y-7956937D01*
X16123937Y-8029063D01*
X16196063Y-8029063D01*
X16196063Y-8283063D02*
X16196063Y-8210937D01*
X16123937Y-8210937D01*
X16123937Y-8283063D01*
X16196063Y-8283063D01*
X16196063Y-8537063D02*
X16196063Y-8464937D01*
X16123937Y-8464937D01*
X16123937Y-8537063D01*
X16196063Y-8537063D01*
X16196063Y-8791063D02*
X16196063Y-8718937D01*
X16123937Y-8718937D01*
X16123937Y-8791063D01*
X16196063Y-8791063D01*
X16196063Y-9045063D02*
X16196063Y-8972937D01*
X16123937Y-8972937D01*
X16123937Y-9045063D01*
X16196063Y-9045063D01*
X16196063Y-9299063D02*
X16196063Y-9226937D01*
X16123937Y-9226937D01*
X16123937Y-9299063D01*
X16196063Y-9299063D01*
X16196063Y-9553063D02*
X16196063Y-9480937D01*
X16123937Y-9480937D01*
X16123937Y-9553063D01*
X16196063Y-9553063D01*
X16196063Y-9807063D02*
X16196063Y-9734937D01*
X16123937Y-9734937D01*
X16123937Y-9807063D01*
X16196063Y-9807063D01*
X16196063Y-10061063D02*
X16196063Y-9988937D01*
X16123937Y-9988937D01*
X16123937Y-10061063D01*
X16196063Y-10061063D01*
X16196063Y-10315063D02*
X16196063Y-10242937D01*
X16123937Y-10242937D01*
X16123937Y-10315063D01*
X16196063Y-10315063D01*
X16196063Y-10569063D02*
X16196063Y-10496937D01*
X16123937Y-10496937D01*
X16123937Y-10569063D01*
X16196063Y-10569063D01*
X16831063Y-10546063D02*
X16831063Y-10473937D01*
X16758937Y-10473937D01*
X16758937Y-10546063D01*
X16831063Y-10546063D01*
X17085063Y-10546063D02*
X17085063Y-10473937D01*
X17012937Y-10473937D01*
X17012937Y-10546063D01*
X17085063Y-10546063D01*
X17339063Y-10546063D02*
X17339063Y-10473937D01*
X17266937Y-10473937D01*
X17266937Y-10546063D01*
X17339063Y-10546063D01*
X17974063Y-5743063D02*
X17974063Y-5670937D01*
X17901937Y-5670937D01*
X17901937Y-5743063D01*
X17974063Y-5743063D01*
X17974063Y-5997063D02*
X17974063Y-5924937D01*
X17901937Y-5924937D01*
X17901937Y-5997063D01*
X17974063Y-5997063D01*
X17974063Y-6251063D02*
X17974063Y-6178937D01*
X17901937Y-6178937D01*
X17901937Y-6251063D01*
X17974063Y-6251063D01*
X17974063Y-6505063D02*
X17974063Y-6432937D01*
X17901937Y-6432937D01*
X17901937Y-6505063D01*
X17974063Y-6505063D01*
X17974063Y-6759063D02*
X17974063Y-6686937D01*
X17901937Y-6686937D01*
X17901937Y-6759063D01*
X17974063Y-6759063D01*
X17974063Y-7013063D02*
X17974063Y-6940937D01*
X17901937Y-6940937D01*
X17901937Y-7013063D01*
X17974063Y-7013063D01*
X17974063Y-7267063D02*
X17974063Y-7194937D01*
X17901937Y-7194937D01*
X17901937Y-7267063D01*
X17974063Y-7267063D01*
X17974063Y-7521063D02*
X17974063Y-7448937D01*
X17901937Y-7448937D01*
X17901937Y-7521063D01*
X17974063Y-7521063D01*
X17974063Y-7775063D02*
X17974063Y-7702937D01*
X17901937Y-7702937D01*
X17901937Y-7775063D01*
X17974063Y-7775063D01*
X17974063Y-8029063D02*
X17974063Y-7956937D01*
X17901937Y-7956937D01*
X17901937Y-8029063D01*
X17974063Y-8029063D01*
X17974063Y-8283063D02*
X17974063Y-8210937D01*
X17901937Y-8210937D01*
X17901937Y-8283063D01*
X17974063Y-8283063D01*
X17974063Y-8537063D02*
X17974063Y-8464937D01*
X17901937Y-8464937D01*
X17901937Y-8537063D01*
X17974063Y-8537063D01*
X17974063Y-8791063D02*
X17974063Y-8718937D01*
X17901937Y-8718937D01*
X17901937Y-8791063D01*
X17974063Y-8791063D01*
X17974063Y-9045063D02*
X17974063Y-8972937D01*
X17901937Y-8972937D01*
X17901937Y-9045063D01*
X17974063Y-9045063D01*
X17974063Y-9299063D02*
X17974063Y-9226937D01*
X17901937Y-9226937D01*
X17901937Y-9299063D01*
X17974063Y-9299063D01*
X17974063Y-9553063D02*
X17974063Y-9480937D01*
X17901937Y-9480937D01*
X17901937Y-9553063D01*
X17974063Y-9553063D01*
X17974063Y-9807063D02*
X17974063Y-9734937D01*
X17901937Y-9734937D01*
X17901937Y-9807063D01*
X17974063Y-9807063D01*
X17974063Y-10061063D02*
X17974063Y-9988937D01*
X17901937Y-9988937D01*
X17901937Y-10061063D01*
X17974063Y-10061063D01*
X17974063Y-10315063D02*
X17974063Y-10242937D01*
X17901937Y-10242937D01*
X17901937Y-10315063D01*
X17974063Y-10315063D01*
X17974063Y-10569063D02*
X17974063Y-10496937D01*
X17901937Y-10496937D01*
X17901937Y-10569063D01*
X17974063Y-10569063D01*
D16*
X18652000Y-5535000D02*
X18707000Y-5480000D01*
X18652000Y-5425000D01*
X18597000Y-5480000D01*
X18652000Y-5535000D01*
X19668000Y-5535000D02*
X19723000Y-5480000D01*
X19668000Y-5425000D01*
X19613000Y-5480000D01*
X19668000Y-5535000D01*
D17*
X10087750Y-9132850D02*
X10202050Y-9247150D01*
X10202050Y-9132850D02*
X10087750Y-9247150D01*
X10202050Y-9190000D02*
G75*
G03*
X10202050Y-9190000I-57150J0D01*
G01*
X10341750Y-9132850D02*
X10456050Y-9247150D01*
X10456050Y-9132850D02*
X10341750Y-9247150D01*
X10456050Y-9190000D02*
G75*
G03*
X10456050Y-9190000I-57150J0D01*
G01*
X10595750Y-9132850D02*
X10710050Y-9247150D01*
X10710050Y-9132850D02*
X10595750Y-9247150D01*
X10710050Y-9190000D02*
G75*
G03*
X10710050Y-9190000I-57150J0D01*
G01*
X19192850Y-6992850D02*
X19307150Y-7107150D01*
X19307150Y-6992850D02*
X19192850Y-7107150D01*
X19307150Y-7050000D02*
G75*
G03*
X19307150Y-7050000I-57150J0D01*
G01*
X19446850Y-6992850D02*
X19561150Y-7107150D01*
X19561150Y-6992850D02*
X19446850Y-7107150D01*
X19561150Y-7050000D02*
G75*
G03*
X19561150Y-7050000I-57150J0D01*
G01*
X19700850Y-6992850D02*
X19815150Y-7107150D01*
X19815150Y-6992850D02*
X19700850Y-7107150D01*
X19815150Y-7050000D02*
G75*
G03*
X19815150Y-7050000I-57150J0D01*
G01*
D18*
X7910000Y-9390000D02*
X8090000Y-9570000D01*
X8090000Y-9390000D02*
X7910000Y-9570000D01*
X8000000Y-9390000D02*
X8000000Y-9570000D01*
X7910000Y-9480000D02*
X8090000Y-9480000D01*
X8410000Y-9390000D02*
X8590000Y-9570000D01*
X8590000Y-9390000D02*
X8410000Y-9570000D01*
X8500000Y-9390000D02*
X8500000Y-9570000D01*
X8410000Y-9480000D02*
X8590000Y-9480000D01*
X19170000Y-7770000D02*
X19350000Y-7950000D01*
X19350000Y-7770000D02*
X19170000Y-7950000D01*
X19260000Y-7770000D02*
X19260000Y-7950000D01*
X19170000Y-7860000D02*
X19350000Y-7860000D01*
X19670000Y-7770000D02*
X19850000Y-7950000D01*
X19850000Y-7770000D02*
X19670000Y-7950000D01*
X19760000Y-7770000D02*
X19760000Y-7950000D01*
X19670000Y-7860000D02*
X19850000Y-7860000D01*
D11*
X6198277Y-13013984D02*
X6198277Y-12813984D01*
X6198277Y-12813984D02*
X6245896Y-12813984D01*
X6245896Y-12813984D02*
X6274467Y-12823508D01*
X6274467Y-12823508D02*
X6293515Y-12842555D01*
X6293515Y-12842555D02*
X6303039Y-12861603D01*
X6303039Y-12861603D02*
X6312562Y-12899698D01*
X6312562Y-12899698D02*
X6312562Y-12928269D01*
X6312562Y-12928269D02*
X6303039Y-12966365D01*
X6303039Y-12966365D02*
X6293515Y-12985412D01*
X6293515Y-12985412D02*
X6274467Y-13004460D01*
X6274467Y-13004460D02*
X6245896Y-13013984D01*
X6245896Y-13013984D02*
X6198277Y-13013984D01*
X6398277Y-13013984D02*
X6398277Y-12880650D01*
X6398277Y-12918746D02*
X6407801Y-12899698D01*
X6407801Y-12899698D02*
X6417324Y-12890174D01*
X6417324Y-12890174D02*
X6436372Y-12880650D01*
X6436372Y-12880650D02*
X6455420Y-12880650D01*
X6522086Y-13013984D02*
X6522086Y-12880650D01*
X6522086Y-12813984D02*
X6512562Y-12823508D01*
X6512562Y-12823508D02*
X6522086Y-12833031D01*
X6522086Y-12833031D02*
X6531610Y-12823508D01*
X6531610Y-12823508D02*
X6522086Y-12813984D01*
X6522086Y-12813984D02*
X6522086Y-12833031D01*
X6645896Y-13013984D02*
X6626848Y-13004460D01*
X6626848Y-13004460D02*
X6617324Y-12985412D01*
X6617324Y-12985412D02*
X6617324Y-12813984D01*
X6750658Y-13013984D02*
X6731610Y-13004460D01*
X6731610Y-13004460D02*
X6722086Y-12985412D01*
X6722086Y-12985412D02*
X6722086Y-12813984D01*
X6979229Y-13013984D02*
X6979229Y-12813984D01*
X6979229Y-12813984D02*
X7045896Y-12956841D01*
X7045896Y-12956841D02*
X7112562Y-12813984D01*
X7112562Y-12813984D02*
X7112562Y-13013984D01*
X7293515Y-13013984D02*
X7293515Y-12909222D01*
X7293515Y-12909222D02*
X7283991Y-12890174D01*
X7283991Y-12890174D02*
X7264943Y-12880650D01*
X7264943Y-12880650D02*
X7226848Y-12880650D01*
X7226848Y-12880650D02*
X7207801Y-12890174D01*
X7293515Y-13004460D02*
X7274467Y-13013984D01*
X7274467Y-13013984D02*
X7226848Y-13013984D01*
X7226848Y-13013984D02*
X7207801Y-13004460D01*
X7207801Y-13004460D02*
X7198277Y-12985412D01*
X7198277Y-12985412D02*
X7198277Y-12966365D01*
X7198277Y-12966365D02*
X7207801Y-12947317D01*
X7207801Y-12947317D02*
X7226848Y-12937793D01*
X7226848Y-12937793D02*
X7274467Y-12937793D01*
X7274467Y-12937793D02*
X7293515Y-12928269D01*
X7388753Y-12880650D02*
X7388753Y-13080650D01*
X7388753Y-12890174D02*
X7407801Y-12880650D01*
X7407801Y-12880650D02*
X7445896Y-12880650D01*
X7445896Y-12880650D02*
X7464943Y-12890174D01*
X7464943Y-12890174D02*
X7474467Y-12899698D01*
X7474467Y-12899698D02*
X7483991Y-12918746D01*
X7483991Y-12918746D02*
X7483991Y-12975888D01*
X7483991Y-12975888D02*
X7474467Y-12994936D01*
X7474467Y-12994936D02*
X7464943Y-13004460D01*
X7464943Y-13004460D02*
X7445896Y-13013984D01*
X7445896Y-13013984D02*
X7407801Y-13013984D01*
X7407801Y-13013984D02*
X7388753Y-13004460D01*
X7569705Y-12994936D02*
X7579229Y-13004460D01*
X7579229Y-13004460D02*
X7569705Y-13013984D01*
X7569705Y-13013984D02*
X7560182Y-13004460D01*
X7560182Y-13004460D02*
X7569705Y-12994936D01*
X7569705Y-12994936D02*
X7569705Y-13013984D01*
X7569705Y-12890174D02*
X7579229Y-12899698D01*
X7579229Y-12899698D02*
X7569705Y-12909222D01*
X7569705Y-12909222D02*
X7560182Y-12899698D01*
X7560182Y-12899698D02*
X7569705Y-12890174D01*
X7569705Y-12890174D02*
X7569705Y-12909222D01*
D12*
X5897500Y-13322500D02*
X5937500Y-13362500D01*
X5937500Y-13322500D02*
X5897500Y-13362500D01*
D11*
X6236372Y-13233984D02*
X6255420Y-13233984D01*
X6255420Y-13233984D02*
X6274467Y-13243508D01*
X6274467Y-13243508D02*
X6283991Y-13253031D01*
X6283991Y-13253031D02*
X6293515Y-13272079D01*
X6293515Y-13272079D02*
X6303039Y-13310174D01*
X6303039Y-13310174D02*
X6303039Y-13357793D01*
X6303039Y-13357793D02*
X6293515Y-13395888D01*
X6293515Y-13395888D02*
X6283991Y-13414936D01*
X6283991Y-13414936D02*
X6274467Y-13424460D01*
X6274467Y-13424460D02*
X6255420Y-13433984D01*
X6255420Y-13433984D02*
X6236372Y-13433984D01*
X6236372Y-13433984D02*
X6217324Y-13424460D01*
X6217324Y-13424460D02*
X6207801Y-13414936D01*
X6207801Y-13414936D02*
X6198277Y-13395888D01*
X6198277Y-13395888D02*
X6188753Y-13357793D01*
X6188753Y-13357793D02*
X6188753Y-13310174D01*
X6188753Y-13310174D02*
X6198277Y-13272079D01*
X6198277Y-13272079D02*
X6207801Y-13253031D01*
X6207801Y-13253031D02*
X6217324Y-13243508D01*
X6217324Y-13243508D02*
X6236372Y-13233984D01*
X6388753Y-13414936D02*
X6398277Y-13424460D01*
X6398277Y-13424460D02*
X6388753Y-13433984D01*
X6388753Y-13433984D02*
X6379229Y-13424460D01*
X6379229Y-13424460D02*
X6388753Y-13414936D01*
X6388753Y-13414936D02*
X6388753Y-13433984D01*
X6569705Y-13300650D02*
X6569705Y-13433984D01*
X6522086Y-13224460D02*
X6474467Y-13367317D01*
X6474467Y-13367317D02*
X6598277Y-13367317D01*
X6712562Y-13233984D02*
X6731610Y-13233984D01*
X6731610Y-13233984D02*
X6750658Y-13243508D01*
X6750658Y-13243508D02*
X6760182Y-13253031D01*
X6760182Y-13253031D02*
X6769705Y-13272079D01*
X6769705Y-13272079D02*
X6779229Y-13310174D01*
X6779229Y-13310174D02*
X6779229Y-13357793D01*
X6779229Y-13357793D02*
X6769705Y-13395888D01*
X6769705Y-13395888D02*
X6760182Y-13414936D01*
X6760182Y-13414936D02*
X6750658Y-13424460D01*
X6750658Y-13424460D02*
X6731610Y-13433984D01*
X6731610Y-13433984D02*
X6712562Y-13433984D01*
X6712562Y-13433984D02*
X6693515Y-13424460D01*
X6693515Y-13424460D02*
X6683991Y-13414936D01*
X6683991Y-13414936D02*
X6674467Y-13395888D01*
X6674467Y-13395888D02*
X6664943Y-13357793D01*
X6664943Y-13357793D02*
X6664943Y-13310174D01*
X6664943Y-13310174D02*
X6674467Y-13272079D01*
X6674467Y-13272079D02*
X6683991Y-13253031D01*
X6683991Y-13253031D02*
X6693515Y-13243508D01*
X6693515Y-13243508D02*
X6712562Y-13233984D01*
X6903039Y-13233984D02*
X6922086Y-13233984D01*
X6922086Y-13233984D02*
X6941134Y-13243508D01*
X6941134Y-13243508D02*
X6950658Y-13253031D01*
X6950658Y-13253031D02*
X6960182Y-13272079D01*
X6960182Y-13272079D02*
X6969705Y-13310174D01*
X6969705Y-13310174D02*
X6969705Y-13357793D01*
X6969705Y-13357793D02*
X6960182Y-13395888D01*
X6960182Y-13395888D02*
X6950658Y-13414936D01*
X6950658Y-13414936D02*
X6941134Y-13424460D01*
X6941134Y-13424460D02*
X6922086Y-13433984D01*
X6922086Y-13433984D02*
X6903039Y-13433984D01*
X6903039Y-13433984D02*
X6883991Y-13424460D01*
X6883991Y-13424460D02*
X6874467Y-13414936D01*
X6874467Y-13414936D02*
X6864943Y-13395888D01*
X6864943Y-13395888D02*
X6855420Y-13357793D01*
X6855420Y-13357793D02*
X6855420Y-13310174D01*
X6855420Y-13310174D02*
X6864943Y-13272079D01*
X6864943Y-13272079D02*
X6874467Y-13253031D01*
X6874467Y-13253031D02*
X6883991Y-13243508D01*
X6883991Y-13243508D02*
X6903039Y-13233984D01*
X7055420Y-13433984D02*
X7055420Y-13300650D01*
X7055420Y-13319698D02*
X7064943Y-13310174D01*
X7064943Y-13310174D02*
X7083991Y-13300650D01*
X7083991Y-13300650D02*
X7112563Y-13300650D01*
X7112563Y-13300650D02*
X7131610Y-13310174D01*
X7131610Y-13310174D02*
X7141134Y-13329222D01*
X7141134Y-13329222D02*
X7141134Y-13433984D01*
X7141134Y-13329222D02*
X7150658Y-13310174D01*
X7150658Y-13310174D02*
X7169705Y-13300650D01*
X7169705Y-13300650D02*
X7198277Y-13300650D01*
X7198277Y-13300650D02*
X7217324Y-13310174D01*
X7217324Y-13310174D02*
X7226848Y-13329222D01*
X7226848Y-13329222D02*
X7226848Y-13433984D01*
X7322086Y-13433984D02*
X7322086Y-13300650D01*
X7322086Y-13319698D02*
X7331610Y-13310174D01*
X7331610Y-13310174D02*
X7350658Y-13300650D01*
X7350658Y-13300650D02*
X7379229Y-13300650D01*
X7379229Y-13300650D02*
X7398277Y-13310174D01*
X7398277Y-13310174D02*
X7407801Y-13329222D01*
X7407801Y-13329222D02*
X7407801Y-13433984D01*
X7407801Y-13329222D02*
X7417324Y-13310174D01*
X7417324Y-13310174D02*
X7436372Y-13300650D01*
X7436372Y-13300650D02*
X7464943Y-13300650D01*
X7464943Y-13300650D02*
X7483991Y-13310174D01*
X7483991Y-13310174D02*
X7493515Y-13329222D01*
X7493515Y-13329222D02*
X7493515Y-13433984D01*
X7883991Y-13224460D02*
X7712563Y-13481603D01*
X8141134Y-13233984D02*
X8160182Y-13233984D01*
X8160182Y-13233984D02*
X8179229Y-13243508D01*
X8179229Y-13243508D02*
X8188753Y-13253031D01*
X8188753Y-13253031D02*
X8198277Y-13272079D01*
X8198277Y-13272079D02*
X8207801Y-13310174D01*
X8207801Y-13310174D02*
X8207801Y-13357793D01*
X8207801Y-13357793D02*
X8198277Y-13395888D01*
X8198277Y-13395888D02*
X8188753Y-13414936D01*
X8188753Y-13414936D02*
X8179229Y-13424460D01*
X8179229Y-13424460D02*
X8160182Y-13433984D01*
X8160182Y-13433984D02*
X8141134Y-13433984D01*
X8141134Y-13433984D02*
X8122086Y-13424460D01*
X8122086Y-13424460D02*
X8112563Y-13414936D01*
X8112563Y-13414936D02*
X8103039Y-13395888D01*
X8103039Y-13395888D02*
X8093515Y-13357793D01*
X8093515Y-13357793D02*
X8093515Y-13310174D01*
X8093515Y-13310174D02*
X8103039Y-13272079D01*
X8103039Y-13272079D02*
X8112563Y-13253031D01*
X8112563Y-13253031D02*
X8122086Y-13243508D01*
X8122086Y-13243508D02*
X8141134Y-13233984D01*
X8293515Y-13414936D02*
X8303039Y-13424460D01*
X8303039Y-13424460D02*
X8293515Y-13433984D01*
X8293515Y-13433984D02*
X8283991Y-13424460D01*
X8283991Y-13424460D02*
X8293515Y-13414936D01*
X8293515Y-13414936D02*
X8293515Y-13433984D01*
X8426848Y-13233984D02*
X8445896Y-13233984D01*
X8445896Y-13233984D02*
X8464944Y-13243508D01*
X8464944Y-13243508D02*
X8474468Y-13253031D01*
X8474468Y-13253031D02*
X8483991Y-13272079D01*
X8483991Y-13272079D02*
X8493515Y-13310174D01*
X8493515Y-13310174D02*
X8493515Y-13357793D01*
X8493515Y-13357793D02*
X8483991Y-13395888D01*
X8483991Y-13395888D02*
X8474468Y-13414936D01*
X8474468Y-13414936D02*
X8464944Y-13424460D01*
X8464944Y-13424460D02*
X8445896Y-13433984D01*
X8445896Y-13433984D02*
X8426848Y-13433984D01*
X8426848Y-13433984D02*
X8407801Y-13424460D01*
X8407801Y-13424460D02*
X8398277Y-13414936D01*
X8398277Y-13414936D02*
X8388753Y-13395888D01*
X8388753Y-13395888D02*
X8379229Y-13357793D01*
X8379229Y-13357793D02*
X8379229Y-13310174D01*
X8379229Y-13310174D02*
X8388753Y-13272079D01*
X8388753Y-13272079D02*
X8398277Y-13253031D01*
X8398277Y-13253031D02*
X8407801Y-13243508D01*
X8407801Y-13243508D02*
X8426848Y-13233984D01*
X8683991Y-13433984D02*
X8569706Y-13433984D01*
X8626848Y-13433984D02*
X8626848Y-13233984D01*
X8626848Y-13233984D02*
X8607801Y-13262555D01*
X8607801Y-13262555D02*
X8588753Y-13281603D01*
X8588753Y-13281603D02*
X8569706Y-13291127D01*
X8864944Y-13233984D02*
X8769706Y-13233984D01*
X8769706Y-13233984D02*
X8760182Y-13329222D01*
X8760182Y-13329222D02*
X8769706Y-13319698D01*
X8769706Y-13319698D02*
X8788753Y-13310174D01*
X8788753Y-13310174D02*
X8836372Y-13310174D01*
X8836372Y-13310174D02*
X8855420Y-13319698D01*
X8855420Y-13319698D02*
X8864944Y-13329222D01*
X8864944Y-13329222D02*
X8874468Y-13348269D01*
X8874468Y-13348269D02*
X8874468Y-13395888D01*
X8874468Y-13395888D02*
X8864944Y-13414936D01*
X8864944Y-13414936D02*
X8855420Y-13424460D01*
X8855420Y-13424460D02*
X8836372Y-13433984D01*
X8836372Y-13433984D02*
X8788753Y-13433984D01*
X8788753Y-13433984D02*
X8769706Y-13424460D01*
X8769706Y-13424460D02*
X8760182Y-13414936D01*
X8941134Y-13233984D02*
X9074468Y-13233984D01*
X9074468Y-13233984D02*
X8988753Y-13433984D01*
X9141134Y-13233984D02*
X9141134Y-13272079D01*
X9217325Y-13233984D02*
X9217325Y-13272079D01*
X9512563Y-13510174D02*
X9503039Y-13500650D01*
X9503039Y-13500650D02*
X9483991Y-13472079D01*
X9483991Y-13472079D02*
X9474468Y-13453031D01*
X9474468Y-13453031D02*
X9464944Y-13424460D01*
X9464944Y-13424460D02*
X9455420Y-13376841D01*
X9455420Y-13376841D02*
X9455420Y-13338746D01*
X9455420Y-13338746D02*
X9464944Y-13291127D01*
X9464944Y-13291127D02*
X9474468Y-13262555D01*
X9474468Y-13262555D02*
X9483991Y-13243508D01*
X9483991Y-13243508D02*
X9503039Y-13214936D01*
X9503039Y-13214936D02*
X9512563Y-13205412D01*
X9579230Y-13253031D02*
X9588753Y-13243508D01*
X9588753Y-13243508D02*
X9607801Y-13233984D01*
X9607801Y-13233984D02*
X9655420Y-13233984D01*
X9655420Y-13233984D02*
X9674468Y-13243508D01*
X9674468Y-13243508D02*
X9683991Y-13253031D01*
X9683991Y-13253031D02*
X9693515Y-13272079D01*
X9693515Y-13272079D02*
X9693515Y-13291127D01*
X9693515Y-13291127D02*
X9683991Y-13319698D01*
X9683991Y-13319698D02*
X9569706Y-13433984D01*
X9569706Y-13433984D02*
X9693515Y-13433984D01*
X9874468Y-13233984D02*
X9779230Y-13233984D01*
X9779230Y-13233984D02*
X9769706Y-13329222D01*
X9769706Y-13329222D02*
X9779230Y-13319698D01*
X9779230Y-13319698D02*
X9798277Y-13310174D01*
X9798277Y-13310174D02*
X9845896Y-13310174D01*
X9845896Y-13310174D02*
X9864944Y-13319698D01*
X9864944Y-13319698D02*
X9874468Y-13329222D01*
X9874468Y-13329222D02*
X9883991Y-13348269D01*
X9883991Y-13348269D02*
X9883991Y-13395888D01*
X9883991Y-13395888D02*
X9874468Y-13414936D01*
X9874468Y-13414936D02*
X9864944Y-13424460D01*
X9864944Y-13424460D02*
X9845896Y-13433984D01*
X9845896Y-13433984D02*
X9798277Y-13433984D01*
X9798277Y-13433984D02*
X9779230Y-13424460D01*
X9779230Y-13424460D02*
X9769706Y-13414936D01*
X9960182Y-13253031D02*
X9969706Y-13243508D01*
X9969706Y-13243508D02*
X9988753Y-13233984D01*
X9988753Y-13233984D02*
X10036372Y-13233984D01*
X10036372Y-13233984D02*
X10055420Y-13243508D01*
X10055420Y-13243508D02*
X10064944Y-13253031D01*
X10064944Y-13253031D02*
X10074468Y-13272079D01*
X10074468Y-13272079D02*
X10074468Y-13291127D01*
X10074468Y-13291127D02*
X10064944Y-13319698D01*
X10064944Y-13319698D02*
X9950658Y-13433984D01*
X9950658Y-13433984D02*
X10074468Y-13433984D01*
X10312563Y-13433984D02*
X10312563Y-13233984D01*
X10398277Y-13433984D02*
X10398277Y-13329222D01*
X10398277Y-13329222D02*
X10388753Y-13310174D01*
X10388753Y-13310174D02*
X10369706Y-13300650D01*
X10369706Y-13300650D02*
X10341134Y-13300650D01*
X10341134Y-13300650D02*
X10322087Y-13310174D01*
X10322087Y-13310174D02*
X10312563Y-13319698D01*
X10522087Y-13433984D02*
X10503039Y-13424460D01*
X10503039Y-13424460D02*
X10493515Y-13414936D01*
X10493515Y-13414936D02*
X10483992Y-13395888D01*
X10483992Y-13395888D02*
X10483992Y-13338746D01*
X10483992Y-13338746D02*
X10493515Y-13319698D01*
X10493515Y-13319698D02*
X10503039Y-13310174D01*
X10503039Y-13310174D02*
X10522087Y-13300650D01*
X10522087Y-13300650D02*
X10550658Y-13300650D01*
X10550658Y-13300650D02*
X10569706Y-13310174D01*
X10569706Y-13310174D02*
X10579230Y-13319698D01*
X10579230Y-13319698D02*
X10588753Y-13338746D01*
X10588753Y-13338746D02*
X10588753Y-13395888D01*
X10588753Y-13395888D02*
X10579230Y-13414936D01*
X10579230Y-13414936D02*
X10569706Y-13424460D01*
X10569706Y-13424460D02*
X10550658Y-13433984D01*
X10550658Y-13433984D02*
X10522087Y-13433984D01*
X10703039Y-13433984D02*
X10683992Y-13424460D01*
X10683992Y-13424460D02*
X10674468Y-13405412D01*
X10674468Y-13405412D02*
X10674468Y-13233984D01*
X10855420Y-13424460D02*
X10836373Y-13433984D01*
X10836373Y-13433984D02*
X10798277Y-13433984D01*
X10798277Y-13433984D02*
X10779230Y-13424460D01*
X10779230Y-13424460D02*
X10769706Y-13405412D01*
X10769706Y-13405412D02*
X10769706Y-13329222D01*
X10769706Y-13329222D02*
X10779230Y-13310174D01*
X10779230Y-13310174D02*
X10798277Y-13300650D01*
X10798277Y-13300650D02*
X10836373Y-13300650D01*
X10836373Y-13300650D02*
X10855420Y-13310174D01*
X10855420Y-13310174D02*
X10864944Y-13329222D01*
X10864944Y-13329222D02*
X10864944Y-13348269D01*
X10864944Y-13348269D02*
X10769706Y-13367317D01*
X10941134Y-13424460D02*
X10960182Y-13433984D01*
X10960182Y-13433984D02*
X10998277Y-13433984D01*
X10998277Y-13433984D02*
X11017325Y-13424460D01*
X11017325Y-13424460D02*
X11026849Y-13405412D01*
X11026849Y-13405412D02*
X11026849Y-13395888D01*
X11026849Y-13395888D02*
X11017325Y-13376841D01*
X11017325Y-13376841D02*
X10998277Y-13367317D01*
X10998277Y-13367317D02*
X10969706Y-13367317D01*
X10969706Y-13367317D02*
X10950658Y-13357793D01*
X10950658Y-13357793D02*
X10941134Y-13338746D01*
X10941134Y-13338746D02*
X10941134Y-13329222D01*
X10941134Y-13329222D02*
X10950658Y-13310174D01*
X10950658Y-13310174D02*
X10969706Y-13300650D01*
X10969706Y-13300650D02*
X10998277Y-13300650D01*
X10998277Y-13300650D02*
X11017325Y-13310174D01*
X11093515Y-13510174D02*
X11103039Y-13500650D01*
X11103039Y-13500650D02*
X11122087Y-13472079D01*
X11122087Y-13472079D02*
X11131611Y-13453031D01*
X11131611Y-13453031D02*
X11141134Y-13424460D01*
X11141134Y-13424460D02*
X11150658Y-13376841D01*
X11150658Y-13376841D02*
X11150658Y-13338746D01*
X11150658Y-13338746D02*
X11141134Y-13291127D01*
X11141134Y-13291127D02*
X11131611Y-13262555D01*
X11131611Y-13262555D02*
X11122087Y-13243508D01*
X11122087Y-13243508D02*
X11103039Y-13214936D01*
X11103039Y-13214936D02*
X11093515Y-13205412D01*
D13*
X5937500Y-13606500D02*
G75*
G03*
X5937500Y-13606500I-49530J0D01*
G01*
D11*
X6236372Y-13497984D02*
X6255420Y-13497984D01*
X6255420Y-13497984D02*
X6274467Y-13507508D01*
X6274467Y-13507508D02*
X6283991Y-13517031D01*
X6283991Y-13517031D02*
X6293515Y-13536079D01*
X6293515Y-13536079D02*
X6303039Y-13574174D01*
X6303039Y-13574174D02*
X6303039Y-13621793D01*
X6303039Y-13621793D02*
X6293515Y-13659888D01*
X6293515Y-13659888D02*
X6283991Y-13678936D01*
X6283991Y-13678936D02*
X6274467Y-13688460D01*
X6274467Y-13688460D02*
X6255420Y-13697984D01*
X6255420Y-13697984D02*
X6236372Y-13697984D01*
X6236372Y-13697984D02*
X6217324Y-13688460D01*
X6217324Y-13688460D02*
X6207801Y-13678936D01*
X6207801Y-13678936D02*
X6198277Y-13659888D01*
X6198277Y-13659888D02*
X6188753Y-13621793D01*
X6188753Y-13621793D02*
X6188753Y-13574174D01*
X6188753Y-13574174D02*
X6198277Y-13536079D01*
X6198277Y-13536079D02*
X6207801Y-13517031D01*
X6207801Y-13517031D02*
X6217324Y-13507508D01*
X6217324Y-13507508D02*
X6236372Y-13497984D01*
X6388753Y-13678936D02*
X6398277Y-13688460D01*
X6398277Y-13688460D02*
X6388753Y-13697984D01*
X6388753Y-13697984D02*
X6379229Y-13688460D01*
X6379229Y-13688460D02*
X6388753Y-13678936D01*
X6388753Y-13678936D02*
X6388753Y-13697984D01*
X6493515Y-13697984D02*
X6531610Y-13697984D01*
X6531610Y-13697984D02*
X6550658Y-13688460D01*
X6550658Y-13688460D02*
X6560182Y-13678936D01*
X6560182Y-13678936D02*
X6579229Y-13650365D01*
X6579229Y-13650365D02*
X6588753Y-13612269D01*
X6588753Y-13612269D02*
X6588753Y-13536079D01*
X6588753Y-13536079D02*
X6579229Y-13517031D01*
X6579229Y-13517031D02*
X6569705Y-13507508D01*
X6569705Y-13507508D02*
X6550658Y-13497984D01*
X6550658Y-13497984D02*
X6512562Y-13497984D01*
X6512562Y-13497984D02*
X6493515Y-13507508D01*
X6493515Y-13507508D02*
X6483991Y-13517031D01*
X6483991Y-13517031D02*
X6474467Y-13536079D01*
X6474467Y-13536079D02*
X6474467Y-13583698D01*
X6474467Y-13583698D02*
X6483991Y-13602746D01*
X6483991Y-13602746D02*
X6493515Y-13612269D01*
X6493515Y-13612269D02*
X6512562Y-13621793D01*
X6512562Y-13621793D02*
X6550658Y-13621793D01*
X6550658Y-13621793D02*
X6569705Y-13612269D01*
X6569705Y-13612269D02*
X6579229Y-13602746D01*
X6579229Y-13602746D02*
X6588753Y-13583698D01*
X6683991Y-13697984D02*
X6722086Y-13697984D01*
X6722086Y-13697984D02*
X6741134Y-13688460D01*
X6741134Y-13688460D02*
X6750658Y-13678936D01*
X6750658Y-13678936D02*
X6769705Y-13650365D01*
X6769705Y-13650365D02*
X6779229Y-13612269D01*
X6779229Y-13612269D02*
X6779229Y-13536079D01*
X6779229Y-13536079D02*
X6769705Y-13517031D01*
X6769705Y-13517031D02*
X6760182Y-13507508D01*
X6760182Y-13507508D02*
X6741134Y-13497984D01*
X6741134Y-13497984D02*
X6703039Y-13497984D01*
X6703039Y-13497984D02*
X6683991Y-13507508D01*
X6683991Y-13507508D02*
X6674467Y-13517031D01*
X6674467Y-13517031D02*
X6664943Y-13536079D01*
X6664943Y-13536079D02*
X6664943Y-13583698D01*
X6664943Y-13583698D02*
X6674467Y-13602746D01*
X6674467Y-13602746D02*
X6683991Y-13612269D01*
X6683991Y-13612269D02*
X6703039Y-13621793D01*
X6703039Y-13621793D02*
X6741134Y-13621793D01*
X6741134Y-13621793D02*
X6760182Y-13612269D01*
X6760182Y-13612269D02*
X6769705Y-13602746D01*
X6769705Y-13602746D02*
X6779229Y-13583698D01*
X6969705Y-13697984D02*
X6855420Y-13697984D01*
X6912562Y-13697984D02*
X6912562Y-13497984D01*
X6912562Y-13497984D02*
X6893515Y-13526555D01*
X6893515Y-13526555D02*
X6874467Y-13545603D01*
X6874467Y-13545603D02*
X6855420Y-13555127D01*
X7055420Y-13697984D02*
X7055420Y-13564650D01*
X7055420Y-13583698D02*
X7064943Y-13574174D01*
X7064943Y-13574174D02*
X7083991Y-13564650D01*
X7083991Y-13564650D02*
X7112563Y-13564650D01*
X7112563Y-13564650D02*
X7131610Y-13574174D01*
X7131610Y-13574174D02*
X7141134Y-13593222D01*
X7141134Y-13593222D02*
X7141134Y-13697984D01*
X7141134Y-13593222D02*
X7150658Y-13574174D01*
X7150658Y-13574174D02*
X7169705Y-13564650D01*
X7169705Y-13564650D02*
X7198277Y-13564650D01*
X7198277Y-13564650D02*
X7217324Y-13574174D01*
X7217324Y-13574174D02*
X7226848Y-13593222D01*
X7226848Y-13593222D02*
X7226848Y-13697984D01*
X7322086Y-13697984D02*
X7322086Y-13564650D01*
X7322086Y-13583698D02*
X7331610Y-13574174D01*
X7331610Y-13574174D02*
X7350658Y-13564650D01*
X7350658Y-13564650D02*
X7379229Y-13564650D01*
X7379229Y-13564650D02*
X7398277Y-13574174D01*
X7398277Y-13574174D02*
X7407801Y-13593222D01*
X7407801Y-13593222D02*
X7407801Y-13697984D01*
X7407801Y-13593222D02*
X7417324Y-13574174D01*
X7417324Y-13574174D02*
X7436372Y-13564650D01*
X7436372Y-13564650D02*
X7464943Y-13564650D01*
X7464943Y-13564650D02*
X7483991Y-13574174D01*
X7483991Y-13574174D02*
X7493515Y-13593222D01*
X7493515Y-13593222D02*
X7493515Y-13697984D01*
X7883991Y-13488460D02*
X7712563Y-13745603D01*
X8141134Y-13497984D02*
X8160182Y-13497984D01*
X8160182Y-13497984D02*
X8179229Y-13507508D01*
X8179229Y-13507508D02*
X8188753Y-13517031D01*
X8188753Y-13517031D02*
X8198277Y-13536079D01*
X8198277Y-13536079D02*
X8207801Y-13574174D01*
X8207801Y-13574174D02*
X8207801Y-13621793D01*
X8207801Y-13621793D02*
X8198277Y-13659888D01*
X8198277Y-13659888D02*
X8188753Y-13678936D01*
X8188753Y-13678936D02*
X8179229Y-13688460D01*
X8179229Y-13688460D02*
X8160182Y-13697984D01*
X8160182Y-13697984D02*
X8141134Y-13697984D01*
X8141134Y-13697984D02*
X8122086Y-13688460D01*
X8122086Y-13688460D02*
X8112563Y-13678936D01*
X8112563Y-13678936D02*
X8103039Y-13659888D01*
X8103039Y-13659888D02*
X8093515Y-13621793D01*
X8093515Y-13621793D02*
X8093515Y-13574174D01*
X8093515Y-13574174D02*
X8103039Y-13536079D01*
X8103039Y-13536079D02*
X8112563Y-13517031D01*
X8112563Y-13517031D02*
X8122086Y-13507508D01*
X8122086Y-13507508D02*
X8141134Y-13497984D01*
X8293515Y-13678936D02*
X8303039Y-13688460D01*
X8303039Y-13688460D02*
X8293515Y-13697984D01*
X8293515Y-13697984D02*
X8283991Y-13688460D01*
X8283991Y-13688460D02*
X8293515Y-13678936D01*
X8293515Y-13678936D02*
X8293515Y-13697984D01*
X8426848Y-13497984D02*
X8445896Y-13497984D01*
X8445896Y-13497984D02*
X8464944Y-13507508D01*
X8464944Y-13507508D02*
X8474468Y-13517031D01*
X8474468Y-13517031D02*
X8483991Y-13536079D01*
X8483991Y-13536079D02*
X8493515Y-13574174D01*
X8493515Y-13574174D02*
X8493515Y-13621793D01*
X8493515Y-13621793D02*
X8483991Y-13659888D01*
X8483991Y-13659888D02*
X8474468Y-13678936D01*
X8474468Y-13678936D02*
X8464944Y-13688460D01*
X8464944Y-13688460D02*
X8445896Y-13697984D01*
X8445896Y-13697984D02*
X8426848Y-13697984D01*
X8426848Y-13697984D02*
X8407801Y-13688460D01*
X8407801Y-13688460D02*
X8398277Y-13678936D01*
X8398277Y-13678936D02*
X8388753Y-13659888D01*
X8388753Y-13659888D02*
X8379229Y-13621793D01*
X8379229Y-13621793D02*
X8379229Y-13574174D01*
X8379229Y-13574174D02*
X8388753Y-13536079D01*
X8388753Y-13536079D02*
X8398277Y-13517031D01*
X8398277Y-13517031D02*
X8407801Y-13507508D01*
X8407801Y-13507508D02*
X8426848Y-13497984D01*
X8560182Y-13497984D02*
X8683991Y-13497984D01*
X8683991Y-13497984D02*
X8617325Y-13574174D01*
X8617325Y-13574174D02*
X8645896Y-13574174D01*
X8645896Y-13574174D02*
X8664944Y-13583698D01*
X8664944Y-13583698D02*
X8674468Y-13593222D01*
X8674468Y-13593222D02*
X8683991Y-13612269D01*
X8683991Y-13612269D02*
X8683991Y-13659888D01*
X8683991Y-13659888D02*
X8674468Y-13678936D01*
X8674468Y-13678936D02*
X8664944Y-13688460D01*
X8664944Y-13688460D02*
X8645896Y-13697984D01*
X8645896Y-13697984D02*
X8588753Y-13697984D01*
X8588753Y-13697984D02*
X8569706Y-13688460D01*
X8569706Y-13688460D02*
X8560182Y-13678936D01*
X8779229Y-13697984D02*
X8817325Y-13697984D01*
X8817325Y-13697984D02*
X8836372Y-13688460D01*
X8836372Y-13688460D02*
X8845896Y-13678936D01*
X8845896Y-13678936D02*
X8864944Y-13650365D01*
X8864944Y-13650365D02*
X8874468Y-13612269D01*
X8874468Y-13612269D02*
X8874468Y-13536079D01*
X8874468Y-13536079D02*
X8864944Y-13517031D01*
X8864944Y-13517031D02*
X8855420Y-13507508D01*
X8855420Y-13507508D02*
X8836372Y-13497984D01*
X8836372Y-13497984D02*
X8798277Y-13497984D01*
X8798277Y-13497984D02*
X8779229Y-13507508D01*
X8779229Y-13507508D02*
X8769706Y-13517031D01*
X8769706Y-13517031D02*
X8760182Y-13536079D01*
X8760182Y-13536079D02*
X8760182Y-13583698D01*
X8760182Y-13583698D02*
X8769706Y-13602746D01*
X8769706Y-13602746D02*
X8779229Y-13612269D01*
X8779229Y-13612269D02*
X8798277Y-13621793D01*
X8798277Y-13621793D02*
X8836372Y-13621793D01*
X8836372Y-13621793D02*
X8855420Y-13612269D01*
X8855420Y-13612269D02*
X8864944Y-13602746D01*
X8864944Y-13602746D02*
X8874468Y-13583698D01*
X8998277Y-13497984D02*
X9017325Y-13497984D01*
X9017325Y-13497984D02*
X9036372Y-13507508D01*
X9036372Y-13507508D02*
X9045896Y-13517031D01*
X9045896Y-13517031D02*
X9055420Y-13536079D01*
X9055420Y-13536079D02*
X9064944Y-13574174D01*
X9064944Y-13574174D02*
X9064944Y-13621793D01*
X9064944Y-13621793D02*
X9055420Y-13659888D01*
X9055420Y-13659888D02*
X9045896Y-13678936D01*
X9045896Y-13678936D02*
X9036372Y-13688460D01*
X9036372Y-13688460D02*
X9017325Y-13697984D01*
X9017325Y-13697984D02*
X8998277Y-13697984D01*
X8998277Y-13697984D02*
X8979229Y-13688460D01*
X8979229Y-13688460D02*
X8969706Y-13678936D01*
X8969706Y-13678936D02*
X8960182Y-13659888D01*
X8960182Y-13659888D02*
X8950658Y-13621793D01*
X8950658Y-13621793D02*
X8950658Y-13574174D01*
X8950658Y-13574174D02*
X8960182Y-13536079D01*
X8960182Y-13536079D02*
X8969706Y-13517031D01*
X8969706Y-13517031D02*
X8979229Y-13507508D01*
X8979229Y-13507508D02*
X8998277Y-13497984D01*
X9141134Y-13497984D02*
X9141134Y-13536079D01*
X9217325Y-13497984D02*
X9217325Y-13536079D01*
X9512563Y-13774174D02*
X9503039Y-13764650D01*
X9503039Y-13764650D02*
X9483991Y-13736079D01*
X9483991Y-13736079D02*
X9474468Y-13717031D01*
X9474468Y-13717031D02*
X9464944Y-13688460D01*
X9464944Y-13688460D02*
X9455420Y-13640841D01*
X9455420Y-13640841D02*
X9455420Y-13602746D01*
X9455420Y-13602746D02*
X9464944Y-13555127D01*
X9464944Y-13555127D02*
X9474468Y-13526555D01*
X9474468Y-13526555D02*
X9483991Y-13507508D01*
X9483991Y-13507508D02*
X9503039Y-13478936D01*
X9503039Y-13478936D02*
X9512563Y-13469412D01*
X9674468Y-13497984D02*
X9636372Y-13497984D01*
X9636372Y-13497984D02*
X9617325Y-13507508D01*
X9617325Y-13507508D02*
X9607801Y-13517031D01*
X9607801Y-13517031D02*
X9588753Y-13545603D01*
X9588753Y-13545603D02*
X9579230Y-13583698D01*
X9579230Y-13583698D02*
X9579230Y-13659888D01*
X9579230Y-13659888D02*
X9588753Y-13678936D01*
X9588753Y-13678936D02*
X9598277Y-13688460D01*
X9598277Y-13688460D02*
X9617325Y-13697984D01*
X9617325Y-13697984D02*
X9655420Y-13697984D01*
X9655420Y-13697984D02*
X9674468Y-13688460D01*
X9674468Y-13688460D02*
X9683991Y-13678936D01*
X9683991Y-13678936D02*
X9693515Y-13659888D01*
X9693515Y-13659888D02*
X9693515Y-13612269D01*
X9693515Y-13612269D02*
X9683991Y-13593222D01*
X9683991Y-13593222D02*
X9674468Y-13583698D01*
X9674468Y-13583698D02*
X9655420Y-13574174D01*
X9655420Y-13574174D02*
X9617325Y-13574174D01*
X9617325Y-13574174D02*
X9598277Y-13583698D01*
X9598277Y-13583698D02*
X9588753Y-13593222D01*
X9588753Y-13593222D02*
X9579230Y-13612269D01*
X9931611Y-13697984D02*
X9931611Y-13497984D01*
X10017325Y-13697984D02*
X10017325Y-13593222D01*
X10017325Y-13593222D02*
X10007801Y-13574174D01*
X10007801Y-13574174D02*
X9988753Y-13564650D01*
X9988753Y-13564650D02*
X9960182Y-13564650D01*
X9960182Y-13564650D02*
X9941134Y-13574174D01*
X9941134Y-13574174D02*
X9931611Y-13583698D01*
X10141134Y-13697984D02*
X10122087Y-13688460D01*
X10122087Y-13688460D02*
X10112563Y-13678936D01*
X10112563Y-13678936D02*
X10103039Y-13659888D01*
X10103039Y-13659888D02*
X10103039Y-13602746D01*
X10103039Y-13602746D02*
X10112563Y-13583698D01*
X10112563Y-13583698D02*
X10122087Y-13574174D01*
X10122087Y-13574174D02*
X10141134Y-13564650D01*
X10141134Y-13564650D02*
X10169706Y-13564650D01*
X10169706Y-13564650D02*
X10188753Y-13574174D01*
X10188753Y-13574174D02*
X10198277Y-13583698D01*
X10198277Y-13583698D02*
X10207801Y-13602746D01*
X10207801Y-13602746D02*
X10207801Y-13659888D01*
X10207801Y-13659888D02*
X10198277Y-13678936D01*
X10198277Y-13678936D02*
X10188753Y-13688460D01*
X10188753Y-13688460D02*
X10169706Y-13697984D01*
X10169706Y-13697984D02*
X10141134Y-13697984D01*
X10322087Y-13697984D02*
X10303039Y-13688460D01*
X10303039Y-13688460D02*
X10293515Y-13669412D01*
X10293515Y-13669412D02*
X10293515Y-13497984D01*
X10474468Y-13688460D02*
X10455420Y-13697984D01*
X10455420Y-13697984D02*
X10417325Y-13697984D01*
X10417325Y-13697984D02*
X10398277Y-13688460D01*
X10398277Y-13688460D02*
X10388753Y-13669412D01*
X10388753Y-13669412D02*
X10388753Y-13593222D01*
X10388753Y-13593222D02*
X10398277Y-13574174D01*
X10398277Y-13574174D02*
X10417325Y-13564650D01*
X10417325Y-13564650D02*
X10455420Y-13564650D01*
X10455420Y-13564650D02*
X10474468Y-13574174D01*
X10474468Y-13574174D02*
X10483992Y-13593222D01*
X10483992Y-13593222D02*
X10483992Y-13612269D01*
X10483992Y-13612269D02*
X10388753Y-13631317D01*
X10560182Y-13688460D02*
X10579230Y-13697984D01*
X10579230Y-13697984D02*
X10617325Y-13697984D01*
X10617325Y-13697984D02*
X10636373Y-13688460D01*
X10636373Y-13688460D02*
X10645896Y-13669412D01*
X10645896Y-13669412D02*
X10645896Y-13659888D01*
X10645896Y-13659888D02*
X10636373Y-13640841D01*
X10636373Y-13640841D02*
X10617325Y-13631317D01*
X10617325Y-13631317D02*
X10588753Y-13631317D01*
X10588753Y-13631317D02*
X10569706Y-13621793D01*
X10569706Y-13621793D02*
X10560182Y-13602746D01*
X10560182Y-13602746D02*
X10560182Y-13593222D01*
X10560182Y-13593222D02*
X10569706Y-13574174D01*
X10569706Y-13574174D02*
X10588753Y-13564650D01*
X10588753Y-13564650D02*
X10617325Y-13564650D01*
X10617325Y-13564650D02*
X10636373Y-13574174D01*
X10712563Y-13774174D02*
X10722087Y-13764650D01*
X10722087Y-13764650D02*
X10741134Y-13736079D01*
X10741134Y-13736079D02*
X10750658Y-13717031D01*
X10750658Y-13717031D02*
X10760182Y-13688460D01*
X10760182Y-13688460D02*
X10769706Y-13640841D01*
X10769706Y-13640841D02*
X10769706Y-13602746D01*
X10769706Y-13602746D02*
X10760182Y-13555127D01*
X10760182Y-13555127D02*
X10750658Y-13526555D01*
X10750658Y-13526555D02*
X10741134Y-13507508D01*
X10741134Y-13507508D02*
X10722087Y-13478936D01*
X10722087Y-13478936D02*
X10712563Y-13469412D01*
D14*
X5887500Y-13820500D02*
X5887500Y-13920500D01*
X5837500Y-13870500D02*
X5937500Y-13870500D01*
D11*
X6303039Y-13961984D02*
X6188753Y-13961984D01*
X6245896Y-13961984D02*
X6245896Y-13761984D01*
X6245896Y-13761984D02*
X6226848Y-13790555D01*
X6226848Y-13790555D02*
X6207801Y-13809603D01*
X6207801Y-13809603D02*
X6188753Y-13819127D01*
X6388753Y-13942936D02*
X6398277Y-13952460D01*
X6398277Y-13952460D02*
X6388753Y-13961984D01*
X6388753Y-13961984D02*
X6379229Y-13952460D01*
X6379229Y-13952460D02*
X6388753Y-13942936D01*
X6388753Y-13942936D02*
X6388753Y-13961984D01*
X6522086Y-13761984D02*
X6541134Y-13761984D01*
X6541134Y-13761984D02*
X6560182Y-13771508D01*
X6560182Y-13771508D02*
X6569705Y-13781031D01*
X6569705Y-13781031D02*
X6579229Y-13800079D01*
X6579229Y-13800079D02*
X6588753Y-13838174D01*
X6588753Y-13838174D02*
X6588753Y-13885793D01*
X6588753Y-13885793D02*
X6579229Y-13923888D01*
X6579229Y-13923888D02*
X6569705Y-13942936D01*
X6569705Y-13942936D02*
X6560182Y-13952460D01*
X6560182Y-13952460D02*
X6541134Y-13961984D01*
X6541134Y-13961984D02*
X6522086Y-13961984D01*
X6522086Y-13961984D02*
X6503039Y-13952460D01*
X6503039Y-13952460D02*
X6493515Y-13942936D01*
X6493515Y-13942936D02*
X6483991Y-13923888D01*
X6483991Y-13923888D02*
X6474467Y-13885793D01*
X6474467Y-13885793D02*
X6474467Y-13838174D01*
X6474467Y-13838174D02*
X6483991Y-13800079D01*
X6483991Y-13800079D02*
X6493515Y-13781031D01*
X6493515Y-13781031D02*
X6503039Y-13771508D01*
X6503039Y-13771508D02*
X6522086Y-13761984D01*
X6712562Y-13761984D02*
X6731610Y-13761984D01*
X6731610Y-13761984D02*
X6750658Y-13771508D01*
X6750658Y-13771508D02*
X6760182Y-13781031D01*
X6760182Y-13781031D02*
X6769705Y-13800079D01*
X6769705Y-13800079D02*
X6779229Y-13838174D01*
X6779229Y-13838174D02*
X6779229Y-13885793D01*
X6779229Y-13885793D02*
X6769705Y-13923888D01*
X6769705Y-13923888D02*
X6760182Y-13942936D01*
X6760182Y-13942936D02*
X6750658Y-13952460D01*
X6750658Y-13952460D02*
X6731610Y-13961984D01*
X6731610Y-13961984D02*
X6712562Y-13961984D01*
X6712562Y-13961984D02*
X6693515Y-13952460D01*
X6693515Y-13952460D02*
X6683991Y-13942936D01*
X6683991Y-13942936D02*
X6674467Y-13923888D01*
X6674467Y-13923888D02*
X6664943Y-13885793D01*
X6664943Y-13885793D02*
X6664943Y-13838174D01*
X6664943Y-13838174D02*
X6674467Y-13800079D01*
X6674467Y-13800079D02*
X6683991Y-13781031D01*
X6683991Y-13781031D02*
X6693515Y-13771508D01*
X6693515Y-13771508D02*
X6712562Y-13761984D01*
X6903039Y-13761984D02*
X6922086Y-13761984D01*
X6922086Y-13761984D02*
X6941134Y-13771508D01*
X6941134Y-13771508D02*
X6950658Y-13781031D01*
X6950658Y-13781031D02*
X6960182Y-13800079D01*
X6960182Y-13800079D02*
X6969705Y-13838174D01*
X6969705Y-13838174D02*
X6969705Y-13885793D01*
X6969705Y-13885793D02*
X6960182Y-13923888D01*
X6960182Y-13923888D02*
X6950658Y-13942936D01*
X6950658Y-13942936D02*
X6941134Y-13952460D01*
X6941134Y-13952460D02*
X6922086Y-13961984D01*
X6922086Y-13961984D02*
X6903039Y-13961984D01*
X6903039Y-13961984D02*
X6883991Y-13952460D01*
X6883991Y-13952460D02*
X6874467Y-13942936D01*
X6874467Y-13942936D02*
X6864943Y-13923888D01*
X6864943Y-13923888D02*
X6855420Y-13885793D01*
X6855420Y-13885793D02*
X6855420Y-13838174D01*
X6855420Y-13838174D02*
X6864943Y-13800079D01*
X6864943Y-13800079D02*
X6874467Y-13781031D01*
X6874467Y-13781031D02*
X6883991Y-13771508D01*
X6883991Y-13771508D02*
X6903039Y-13761984D01*
X7055420Y-13961984D02*
X7055420Y-13828650D01*
X7055420Y-13847698D02*
X7064943Y-13838174D01*
X7064943Y-13838174D02*
X7083991Y-13828650D01*
X7083991Y-13828650D02*
X7112563Y-13828650D01*
X7112563Y-13828650D02*
X7131610Y-13838174D01*
X7131610Y-13838174D02*
X7141134Y-13857222D01*
X7141134Y-13857222D02*
X7141134Y-13961984D01*
X7141134Y-13857222D02*
X7150658Y-13838174D01*
X7150658Y-13838174D02*
X7169705Y-13828650D01*
X7169705Y-13828650D02*
X7198277Y-13828650D01*
X7198277Y-13828650D02*
X7217324Y-13838174D01*
X7217324Y-13838174D02*
X7226848Y-13857222D01*
X7226848Y-13857222D02*
X7226848Y-13961984D01*
X7322086Y-13961984D02*
X7322086Y-13828650D01*
X7322086Y-13847698D02*
X7331610Y-13838174D01*
X7331610Y-13838174D02*
X7350658Y-13828650D01*
X7350658Y-13828650D02*
X7379229Y-13828650D01*
X7379229Y-13828650D02*
X7398277Y-13838174D01*
X7398277Y-13838174D02*
X7407801Y-13857222D01*
X7407801Y-13857222D02*
X7407801Y-13961984D01*
X7407801Y-13857222D02*
X7417324Y-13838174D01*
X7417324Y-13838174D02*
X7436372Y-13828650D01*
X7436372Y-13828650D02*
X7464943Y-13828650D01*
X7464943Y-13828650D02*
X7483991Y-13838174D01*
X7483991Y-13838174D02*
X7493515Y-13857222D01*
X7493515Y-13857222D02*
X7493515Y-13961984D01*
X7883991Y-13752460D02*
X7712563Y-14009603D01*
X8141134Y-13761984D02*
X8160182Y-13761984D01*
X8160182Y-13761984D02*
X8179229Y-13771508D01*
X8179229Y-13771508D02*
X8188753Y-13781031D01*
X8188753Y-13781031D02*
X8198277Y-13800079D01*
X8198277Y-13800079D02*
X8207801Y-13838174D01*
X8207801Y-13838174D02*
X8207801Y-13885793D01*
X8207801Y-13885793D02*
X8198277Y-13923888D01*
X8198277Y-13923888D02*
X8188753Y-13942936D01*
X8188753Y-13942936D02*
X8179229Y-13952460D01*
X8179229Y-13952460D02*
X8160182Y-13961984D01*
X8160182Y-13961984D02*
X8141134Y-13961984D01*
X8141134Y-13961984D02*
X8122086Y-13952460D01*
X8122086Y-13952460D02*
X8112563Y-13942936D01*
X8112563Y-13942936D02*
X8103039Y-13923888D01*
X8103039Y-13923888D02*
X8093515Y-13885793D01*
X8093515Y-13885793D02*
X8093515Y-13838174D01*
X8093515Y-13838174D02*
X8103039Y-13800079D01*
X8103039Y-13800079D02*
X8112563Y-13781031D01*
X8112563Y-13781031D02*
X8122086Y-13771508D01*
X8122086Y-13771508D02*
X8141134Y-13761984D01*
X8293515Y-13942936D02*
X8303039Y-13952460D01*
X8303039Y-13952460D02*
X8293515Y-13961984D01*
X8293515Y-13961984D02*
X8283991Y-13952460D01*
X8283991Y-13952460D02*
X8293515Y-13942936D01*
X8293515Y-13942936D02*
X8293515Y-13961984D01*
X8426848Y-13761984D02*
X8445896Y-13761984D01*
X8445896Y-13761984D02*
X8464944Y-13771508D01*
X8464944Y-13771508D02*
X8474468Y-13781031D01*
X8474468Y-13781031D02*
X8483991Y-13800079D01*
X8483991Y-13800079D02*
X8493515Y-13838174D01*
X8493515Y-13838174D02*
X8493515Y-13885793D01*
X8493515Y-13885793D02*
X8483991Y-13923888D01*
X8483991Y-13923888D02*
X8474468Y-13942936D01*
X8474468Y-13942936D02*
X8464944Y-13952460D01*
X8464944Y-13952460D02*
X8445896Y-13961984D01*
X8445896Y-13961984D02*
X8426848Y-13961984D01*
X8426848Y-13961984D02*
X8407801Y-13952460D01*
X8407801Y-13952460D02*
X8398277Y-13942936D01*
X8398277Y-13942936D02*
X8388753Y-13923888D01*
X8388753Y-13923888D02*
X8379229Y-13885793D01*
X8379229Y-13885793D02*
X8379229Y-13838174D01*
X8379229Y-13838174D02*
X8388753Y-13800079D01*
X8388753Y-13800079D02*
X8398277Y-13781031D01*
X8398277Y-13781031D02*
X8407801Y-13771508D01*
X8407801Y-13771508D02*
X8426848Y-13761984D01*
X8560182Y-13761984D02*
X8683991Y-13761984D01*
X8683991Y-13761984D02*
X8617325Y-13838174D01*
X8617325Y-13838174D02*
X8645896Y-13838174D01*
X8645896Y-13838174D02*
X8664944Y-13847698D01*
X8664944Y-13847698D02*
X8674468Y-13857222D01*
X8674468Y-13857222D02*
X8683991Y-13876269D01*
X8683991Y-13876269D02*
X8683991Y-13923888D01*
X8683991Y-13923888D02*
X8674468Y-13942936D01*
X8674468Y-13942936D02*
X8664944Y-13952460D01*
X8664944Y-13952460D02*
X8645896Y-13961984D01*
X8645896Y-13961984D02*
X8588753Y-13961984D01*
X8588753Y-13961984D02*
X8569706Y-13952460D01*
X8569706Y-13952460D02*
X8560182Y-13942936D01*
X8779229Y-13961984D02*
X8817325Y-13961984D01*
X8817325Y-13961984D02*
X8836372Y-13952460D01*
X8836372Y-13952460D02*
X8845896Y-13942936D01*
X8845896Y-13942936D02*
X8864944Y-13914365D01*
X8864944Y-13914365D02*
X8874468Y-13876269D01*
X8874468Y-13876269D02*
X8874468Y-13800079D01*
X8874468Y-13800079D02*
X8864944Y-13781031D01*
X8864944Y-13781031D02*
X8855420Y-13771508D01*
X8855420Y-13771508D02*
X8836372Y-13761984D01*
X8836372Y-13761984D02*
X8798277Y-13761984D01*
X8798277Y-13761984D02*
X8779229Y-13771508D01*
X8779229Y-13771508D02*
X8769706Y-13781031D01*
X8769706Y-13781031D02*
X8760182Y-13800079D01*
X8760182Y-13800079D02*
X8760182Y-13847698D01*
X8760182Y-13847698D02*
X8769706Y-13866746D01*
X8769706Y-13866746D02*
X8779229Y-13876269D01*
X8779229Y-13876269D02*
X8798277Y-13885793D01*
X8798277Y-13885793D02*
X8836372Y-13885793D01*
X8836372Y-13885793D02*
X8855420Y-13876269D01*
X8855420Y-13876269D02*
X8864944Y-13866746D01*
X8864944Y-13866746D02*
X8874468Y-13847698D01*
X9045896Y-13828650D02*
X9045896Y-13961984D01*
X8998277Y-13752460D02*
X8950658Y-13895317D01*
X8950658Y-13895317D02*
X9074468Y-13895317D01*
X9141134Y-13761984D02*
X9141134Y-13800079D01*
X9217325Y-13761984D02*
X9217325Y-13800079D01*
X9512563Y-14038174D02*
X9503039Y-14028650D01*
X9503039Y-14028650D02*
X9483991Y-14000079D01*
X9483991Y-14000079D02*
X9474468Y-13981031D01*
X9474468Y-13981031D02*
X9464944Y-13952460D01*
X9464944Y-13952460D02*
X9455420Y-13904841D01*
X9455420Y-13904841D02*
X9455420Y-13866746D01*
X9455420Y-13866746D02*
X9464944Y-13819127D01*
X9464944Y-13819127D02*
X9474468Y-13790555D01*
X9474468Y-13790555D02*
X9483991Y-13771508D01*
X9483991Y-13771508D02*
X9503039Y-13742936D01*
X9503039Y-13742936D02*
X9512563Y-13733412D01*
X9674468Y-13828650D02*
X9674468Y-13961984D01*
X9626849Y-13752460D02*
X9579230Y-13895317D01*
X9579230Y-13895317D02*
X9703039Y-13895317D01*
X9807801Y-13847698D02*
X9788753Y-13838174D01*
X9788753Y-13838174D02*
X9779230Y-13828650D01*
X9779230Y-13828650D02*
X9769706Y-13809603D01*
X9769706Y-13809603D02*
X9769706Y-13800079D01*
X9769706Y-13800079D02*
X9779230Y-13781031D01*
X9779230Y-13781031D02*
X9788753Y-13771508D01*
X9788753Y-13771508D02*
X9807801Y-13761984D01*
X9807801Y-13761984D02*
X9845896Y-13761984D01*
X9845896Y-13761984D02*
X9864944Y-13771508D01*
X9864944Y-13771508D02*
X9874468Y-13781031D01*
X9874468Y-13781031D02*
X9883991Y-13800079D01*
X9883991Y-13800079D02*
X9883991Y-13809603D01*
X9883991Y-13809603D02*
X9874468Y-13828650D01*
X9874468Y-13828650D02*
X9864944Y-13838174D01*
X9864944Y-13838174D02*
X9845896Y-13847698D01*
X9845896Y-13847698D02*
X9807801Y-13847698D01*
X9807801Y-13847698D02*
X9788753Y-13857222D01*
X9788753Y-13857222D02*
X9779230Y-13866746D01*
X9779230Y-13866746D02*
X9769706Y-13885793D01*
X9769706Y-13885793D02*
X9769706Y-13923888D01*
X9769706Y-13923888D02*
X9779230Y-13942936D01*
X9779230Y-13942936D02*
X9788753Y-13952460D01*
X9788753Y-13952460D02*
X9807801Y-13961984D01*
X9807801Y-13961984D02*
X9845896Y-13961984D01*
X9845896Y-13961984D02*
X9864944Y-13952460D01*
X9864944Y-13952460D02*
X9874468Y-13942936D01*
X9874468Y-13942936D02*
X9883991Y-13923888D01*
X9883991Y-13923888D02*
X9883991Y-13885793D01*
X9883991Y-13885793D02*
X9874468Y-13866746D01*
X9874468Y-13866746D02*
X9864944Y-13857222D01*
X9864944Y-13857222D02*
X9845896Y-13847698D01*
X10122087Y-13961984D02*
X10122087Y-13761984D01*
X10207801Y-13961984D02*
X10207801Y-13857222D01*
X10207801Y-13857222D02*
X10198277Y-13838174D01*
X10198277Y-13838174D02*
X10179230Y-13828650D01*
X10179230Y-13828650D02*
X10150658Y-13828650D01*
X10150658Y-13828650D02*
X10131611Y-13838174D01*
X10131611Y-13838174D02*
X10122087Y-13847698D01*
X10331611Y-13961984D02*
X10312563Y-13952460D01*
X10312563Y-13952460D02*
X10303039Y-13942936D01*
X10303039Y-13942936D02*
X10293515Y-13923888D01*
X10293515Y-13923888D02*
X10293515Y-13866746D01*
X10293515Y-13866746D02*
X10303039Y-13847698D01*
X10303039Y-13847698D02*
X10312563Y-13838174D01*
X10312563Y-13838174D02*
X10331611Y-13828650D01*
X10331611Y-13828650D02*
X10360182Y-13828650D01*
X10360182Y-13828650D02*
X10379230Y-13838174D01*
X10379230Y-13838174D02*
X10388753Y-13847698D01*
X10388753Y-13847698D02*
X10398277Y-13866746D01*
X10398277Y-13866746D02*
X10398277Y-13923888D01*
X10398277Y-13923888D02*
X10388753Y-13942936D01*
X10388753Y-13942936D02*
X10379230Y-13952460D01*
X10379230Y-13952460D02*
X10360182Y-13961984D01*
X10360182Y-13961984D02*
X10331611Y-13961984D01*
X10512563Y-13961984D02*
X10493515Y-13952460D01*
X10493515Y-13952460D02*
X10483992Y-13933412D01*
X10483992Y-13933412D02*
X10483992Y-13761984D01*
X10664944Y-13952460D02*
X10645896Y-13961984D01*
X10645896Y-13961984D02*
X10607801Y-13961984D01*
X10607801Y-13961984D02*
X10588753Y-13952460D01*
X10588753Y-13952460D02*
X10579230Y-13933412D01*
X10579230Y-13933412D02*
X10579230Y-13857222D01*
X10579230Y-13857222D02*
X10588753Y-13838174D01*
X10588753Y-13838174D02*
X10607801Y-13828650D01*
X10607801Y-13828650D02*
X10645896Y-13828650D01*
X10645896Y-13828650D02*
X10664944Y-13838174D01*
X10664944Y-13838174D02*
X10674468Y-13857222D01*
X10674468Y-13857222D02*
X10674468Y-13876269D01*
X10674468Y-13876269D02*
X10579230Y-13895317D01*
X10750658Y-13952460D02*
X10769706Y-13961984D01*
X10769706Y-13961984D02*
X10807801Y-13961984D01*
X10807801Y-13961984D02*
X10826849Y-13952460D01*
X10826849Y-13952460D02*
X10836373Y-13933412D01*
X10836373Y-13933412D02*
X10836373Y-13923888D01*
X10836373Y-13923888D02*
X10826849Y-13904841D01*
X10826849Y-13904841D02*
X10807801Y-13895317D01*
X10807801Y-13895317D02*
X10779230Y-13895317D01*
X10779230Y-13895317D02*
X10760182Y-13885793D01*
X10760182Y-13885793D02*
X10750658Y-13866746D01*
X10750658Y-13866746D02*
X10750658Y-13857222D01*
X10750658Y-13857222D02*
X10760182Y-13838174D01*
X10760182Y-13838174D02*
X10779230Y-13828650D01*
X10779230Y-13828650D02*
X10807801Y-13828650D01*
X10807801Y-13828650D02*
X10826849Y-13838174D01*
X10903039Y-14038174D02*
X10912563Y-14028650D01*
X10912563Y-14028650D02*
X10931611Y-14000079D01*
X10931611Y-14000079D02*
X10941134Y-13981031D01*
X10941134Y-13981031D02*
X10950658Y-13952460D01*
X10950658Y-13952460D02*
X10960182Y-13904841D01*
X10960182Y-13904841D02*
X10960182Y-13866746D01*
X10960182Y-13866746D02*
X10950658Y-13819127D01*
X10950658Y-13819127D02*
X10941134Y-13790555D01*
X10941134Y-13790555D02*
X10931611Y-13771508D01*
X10931611Y-13771508D02*
X10912563Y-13742936D01*
X10912563Y-13742936D02*
X10903039Y-13733412D01*
D15*
X5922563Y-14170563D02*
X5922563Y-14098437D01*
X5850437Y-14098437D01*
X5850437Y-14170563D01*
X5922563Y-14170563D01*
D11*
X6303039Y-14225984D02*
X6188753Y-14225984D01*
X6245896Y-14225984D02*
X6245896Y-14025984D01*
X6245896Y-14025984D02*
X6226848Y-14054555D01*
X6226848Y-14054555D02*
X6207801Y-14073603D01*
X6207801Y-14073603D02*
X6188753Y-14083127D01*
X6388753Y-14206936D02*
X6398277Y-14216460D01*
X6398277Y-14216460D02*
X6388753Y-14225984D01*
X6388753Y-14225984D02*
X6379229Y-14216460D01*
X6379229Y-14216460D02*
X6388753Y-14206936D01*
X6388753Y-14206936D02*
X6388753Y-14225984D01*
X6522086Y-14025984D02*
X6541134Y-14025984D01*
X6541134Y-14025984D02*
X6560182Y-14035508D01*
X6560182Y-14035508D02*
X6569705Y-14045031D01*
X6569705Y-14045031D02*
X6579229Y-14064079D01*
X6579229Y-14064079D02*
X6588753Y-14102174D01*
X6588753Y-14102174D02*
X6588753Y-14149793D01*
X6588753Y-14149793D02*
X6579229Y-14187888D01*
X6579229Y-14187888D02*
X6569705Y-14206936D01*
X6569705Y-14206936D02*
X6560182Y-14216460D01*
X6560182Y-14216460D02*
X6541134Y-14225984D01*
X6541134Y-14225984D02*
X6522086Y-14225984D01*
X6522086Y-14225984D02*
X6503039Y-14216460D01*
X6503039Y-14216460D02*
X6493515Y-14206936D01*
X6493515Y-14206936D02*
X6483991Y-14187888D01*
X6483991Y-14187888D02*
X6474467Y-14149793D01*
X6474467Y-14149793D02*
X6474467Y-14102174D01*
X6474467Y-14102174D02*
X6483991Y-14064079D01*
X6483991Y-14064079D02*
X6493515Y-14045031D01*
X6493515Y-14045031D02*
X6503039Y-14035508D01*
X6503039Y-14035508D02*
X6522086Y-14025984D01*
X6664943Y-14045031D02*
X6674467Y-14035508D01*
X6674467Y-14035508D02*
X6693515Y-14025984D01*
X6693515Y-14025984D02*
X6741134Y-14025984D01*
X6741134Y-14025984D02*
X6760182Y-14035508D01*
X6760182Y-14035508D02*
X6769705Y-14045031D01*
X6769705Y-14045031D02*
X6779229Y-14064079D01*
X6779229Y-14064079D02*
X6779229Y-14083127D01*
X6779229Y-14083127D02*
X6769705Y-14111698D01*
X6769705Y-14111698D02*
X6655420Y-14225984D01*
X6655420Y-14225984D02*
X6779229Y-14225984D01*
X6903039Y-14025984D02*
X6922086Y-14025984D01*
X6922086Y-14025984D02*
X6941134Y-14035508D01*
X6941134Y-14035508D02*
X6950658Y-14045031D01*
X6950658Y-14045031D02*
X6960182Y-14064079D01*
X6960182Y-14064079D02*
X6969705Y-14102174D01*
X6969705Y-14102174D02*
X6969705Y-14149793D01*
X6969705Y-14149793D02*
X6960182Y-14187888D01*
X6960182Y-14187888D02*
X6950658Y-14206936D01*
X6950658Y-14206936D02*
X6941134Y-14216460D01*
X6941134Y-14216460D02*
X6922086Y-14225984D01*
X6922086Y-14225984D02*
X6903039Y-14225984D01*
X6903039Y-14225984D02*
X6883991Y-14216460D01*
X6883991Y-14216460D02*
X6874467Y-14206936D01*
X6874467Y-14206936D02*
X6864943Y-14187888D01*
X6864943Y-14187888D02*
X6855420Y-14149793D01*
X6855420Y-14149793D02*
X6855420Y-14102174D01*
X6855420Y-14102174D02*
X6864943Y-14064079D01*
X6864943Y-14064079D02*
X6874467Y-14045031D01*
X6874467Y-14045031D02*
X6883991Y-14035508D01*
X6883991Y-14035508D02*
X6903039Y-14025984D01*
X7055420Y-14225984D02*
X7055420Y-14092650D01*
X7055420Y-14111698D02*
X7064943Y-14102174D01*
X7064943Y-14102174D02*
X7083991Y-14092650D01*
X7083991Y-14092650D02*
X7112563Y-14092650D01*
X7112563Y-14092650D02*
X7131610Y-14102174D01*
X7131610Y-14102174D02*
X7141134Y-14121222D01*
X7141134Y-14121222D02*
X7141134Y-14225984D01*
X7141134Y-14121222D02*
X7150658Y-14102174D01*
X7150658Y-14102174D02*
X7169705Y-14092650D01*
X7169705Y-14092650D02*
X7198277Y-14092650D01*
X7198277Y-14092650D02*
X7217324Y-14102174D01*
X7217324Y-14102174D02*
X7226848Y-14121222D01*
X7226848Y-14121222D02*
X7226848Y-14225984D01*
X7322086Y-14225984D02*
X7322086Y-14092650D01*
X7322086Y-14111698D02*
X7331610Y-14102174D01*
X7331610Y-14102174D02*
X7350658Y-14092650D01*
X7350658Y-14092650D02*
X7379229Y-14092650D01*
X7379229Y-14092650D02*
X7398277Y-14102174D01*
X7398277Y-14102174D02*
X7407801Y-14121222D01*
X7407801Y-14121222D02*
X7407801Y-14225984D01*
X7407801Y-14121222D02*
X7417324Y-14102174D01*
X7417324Y-14102174D02*
X7436372Y-14092650D01*
X7436372Y-14092650D02*
X7464943Y-14092650D01*
X7464943Y-14092650D02*
X7483991Y-14102174D01*
X7483991Y-14102174D02*
X7493515Y-14121222D01*
X7493515Y-14121222D02*
X7493515Y-14225984D01*
X7883991Y-14016460D02*
X7712563Y-14273603D01*
X8141134Y-14025984D02*
X8160182Y-14025984D01*
X8160182Y-14025984D02*
X8179229Y-14035508D01*
X8179229Y-14035508D02*
X8188753Y-14045031D01*
X8188753Y-14045031D02*
X8198277Y-14064079D01*
X8198277Y-14064079D02*
X8207801Y-14102174D01*
X8207801Y-14102174D02*
X8207801Y-14149793D01*
X8207801Y-14149793D02*
X8198277Y-14187888D01*
X8198277Y-14187888D02*
X8188753Y-14206936D01*
X8188753Y-14206936D02*
X8179229Y-14216460D01*
X8179229Y-14216460D02*
X8160182Y-14225984D01*
X8160182Y-14225984D02*
X8141134Y-14225984D01*
X8141134Y-14225984D02*
X8122086Y-14216460D01*
X8122086Y-14216460D02*
X8112563Y-14206936D01*
X8112563Y-14206936D02*
X8103039Y-14187888D01*
X8103039Y-14187888D02*
X8093515Y-14149793D01*
X8093515Y-14149793D02*
X8093515Y-14102174D01*
X8093515Y-14102174D02*
X8103039Y-14064079D01*
X8103039Y-14064079D02*
X8112563Y-14045031D01*
X8112563Y-14045031D02*
X8122086Y-14035508D01*
X8122086Y-14035508D02*
X8141134Y-14025984D01*
X8293515Y-14206936D02*
X8303039Y-14216460D01*
X8303039Y-14216460D02*
X8293515Y-14225984D01*
X8293515Y-14225984D02*
X8283991Y-14216460D01*
X8283991Y-14216460D02*
X8293515Y-14206936D01*
X8293515Y-14206936D02*
X8293515Y-14225984D01*
X8426848Y-14025984D02*
X8445896Y-14025984D01*
X8445896Y-14025984D02*
X8464944Y-14035508D01*
X8464944Y-14035508D02*
X8474468Y-14045031D01*
X8474468Y-14045031D02*
X8483991Y-14064079D01*
X8483991Y-14064079D02*
X8493515Y-14102174D01*
X8493515Y-14102174D02*
X8493515Y-14149793D01*
X8493515Y-14149793D02*
X8483991Y-14187888D01*
X8483991Y-14187888D02*
X8474468Y-14206936D01*
X8474468Y-14206936D02*
X8464944Y-14216460D01*
X8464944Y-14216460D02*
X8445896Y-14225984D01*
X8445896Y-14225984D02*
X8426848Y-14225984D01*
X8426848Y-14225984D02*
X8407801Y-14216460D01*
X8407801Y-14216460D02*
X8398277Y-14206936D01*
X8398277Y-14206936D02*
X8388753Y-14187888D01*
X8388753Y-14187888D02*
X8379229Y-14149793D01*
X8379229Y-14149793D02*
X8379229Y-14102174D01*
X8379229Y-14102174D02*
X8388753Y-14064079D01*
X8388753Y-14064079D02*
X8398277Y-14045031D01*
X8398277Y-14045031D02*
X8407801Y-14035508D01*
X8407801Y-14035508D02*
X8426848Y-14025984D01*
X8664944Y-14092650D02*
X8664944Y-14225984D01*
X8617325Y-14016460D02*
X8569706Y-14159317D01*
X8569706Y-14159317D02*
X8693515Y-14159317D01*
X8807801Y-14025984D02*
X8826849Y-14025984D01*
X8826849Y-14025984D02*
X8845896Y-14035508D01*
X8845896Y-14035508D02*
X8855420Y-14045031D01*
X8855420Y-14045031D02*
X8864944Y-14064079D01*
X8864944Y-14064079D02*
X8874468Y-14102174D01*
X8874468Y-14102174D02*
X8874468Y-14149793D01*
X8874468Y-14149793D02*
X8864944Y-14187888D01*
X8864944Y-14187888D02*
X8855420Y-14206936D01*
X8855420Y-14206936D02*
X8845896Y-14216460D01*
X8845896Y-14216460D02*
X8826849Y-14225984D01*
X8826849Y-14225984D02*
X8807801Y-14225984D01*
X8807801Y-14225984D02*
X8788753Y-14216460D01*
X8788753Y-14216460D02*
X8779229Y-14206936D01*
X8779229Y-14206936D02*
X8769706Y-14187888D01*
X8769706Y-14187888D02*
X8760182Y-14149793D01*
X8760182Y-14149793D02*
X8760182Y-14102174D01*
X8760182Y-14102174D02*
X8769706Y-14064079D01*
X8769706Y-14064079D02*
X8779229Y-14045031D01*
X8779229Y-14045031D02*
X8788753Y-14035508D01*
X8788753Y-14035508D02*
X8807801Y-14025984D01*
X8950658Y-14045031D02*
X8960182Y-14035508D01*
X8960182Y-14035508D02*
X8979229Y-14025984D01*
X8979229Y-14025984D02*
X9026849Y-14025984D01*
X9026849Y-14025984D02*
X9045896Y-14035508D01*
X9045896Y-14035508D02*
X9055420Y-14045031D01*
X9055420Y-14045031D02*
X9064944Y-14064079D01*
X9064944Y-14064079D02*
X9064944Y-14083127D01*
X9064944Y-14083127D02*
X9055420Y-14111698D01*
X9055420Y-14111698D02*
X8941134Y-14225984D01*
X8941134Y-14225984D02*
X9064944Y-14225984D01*
X9141134Y-14025984D02*
X9141134Y-14064079D01*
X9217325Y-14025984D02*
X9217325Y-14064079D01*
X9512563Y-14302174D02*
X9503039Y-14292650D01*
X9503039Y-14292650D02*
X9483991Y-14264079D01*
X9483991Y-14264079D02*
X9474468Y-14245031D01*
X9474468Y-14245031D02*
X9464944Y-14216460D01*
X9464944Y-14216460D02*
X9455420Y-14168841D01*
X9455420Y-14168841D02*
X9455420Y-14130746D01*
X9455420Y-14130746D02*
X9464944Y-14083127D01*
X9464944Y-14083127D02*
X9474468Y-14054555D01*
X9474468Y-14054555D02*
X9483991Y-14035508D01*
X9483991Y-14035508D02*
X9503039Y-14006936D01*
X9503039Y-14006936D02*
X9512563Y-13997412D01*
X9674468Y-14092650D02*
X9674468Y-14225984D01*
X9626849Y-14016460D02*
X9579230Y-14159317D01*
X9579230Y-14159317D02*
X9703039Y-14159317D01*
X9760182Y-14025984D02*
X9883991Y-14025984D01*
X9883991Y-14025984D02*
X9817325Y-14102174D01*
X9817325Y-14102174D02*
X9845896Y-14102174D01*
X9845896Y-14102174D02*
X9864944Y-14111698D01*
X9864944Y-14111698D02*
X9874468Y-14121222D01*
X9874468Y-14121222D02*
X9883991Y-14140269D01*
X9883991Y-14140269D02*
X9883991Y-14187888D01*
X9883991Y-14187888D02*
X9874468Y-14206936D01*
X9874468Y-14206936D02*
X9864944Y-14216460D01*
X9864944Y-14216460D02*
X9845896Y-14225984D01*
X9845896Y-14225984D02*
X9788753Y-14225984D01*
X9788753Y-14225984D02*
X9769706Y-14216460D01*
X9769706Y-14216460D02*
X9760182Y-14206936D01*
X10122087Y-14225984D02*
X10122087Y-14025984D01*
X10207801Y-14225984D02*
X10207801Y-14121222D01*
X10207801Y-14121222D02*
X10198277Y-14102174D01*
X10198277Y-14102174D02*
X10179230Y-14092650D01*
X10179230Y-14092650D02*
X10150658Y-14092650D01*
X10150658Y-14092650D02*
X10131611Y-14102174D01*
X10131611Y-14102174D02*
X10122087Y-14111698D01*
X10331611Y-14225984D02*
X10312563Y-14216460D01*
X10312563Y-14216460D02*
X10303039Y-14206936D01*
X10303039Y-14206936D02*
X10293515Y-14187888D01*
X10293515Y-14187888D02*
X10293515Y-14130746D01*
X10293515Y-14130746D02*
X10303039Y-14111698D01*
X10303039Y-14111698D02*
X10312563Y-14102174D01*
X10312563Y-14102174D02*
X10331611Y-14092650D01*
X10331611Y-14092650D02*
X10360182Y-14092650D01*
X10360182Y-14092650D02*
X10379230Y-14102174D01*
X10379230Y-14102174D02*
X10388753Y-14111698D01*
X10388753Y-14111698D02*
X10398277Y-14130746D01*
X10398277Y-14130746D02*
X10398277Y-14187888D01*
X10398277Y-14187888D02*
X10388753Y-14206936D01*
X10388753Y-14206936D02*
X10379230Y-14216460D01*
X10379230Y-14216460D02*
X10360182Y-14225984D01*
X10360182Y-14225984D02*
X10331611Y-14225984D01*
X10512563Y-14225984D02*
X10493515Y-14216460D01*
X10493515Y-14216460D02*
X10483992Y-14197412D01*
X10483992Y-14197412D02*
X10483992Y-14025984D01*
X10664944Y-14216460D02*
X10645896Y-14225984D01*
X10645896Y-14225984D02*
X10607801Y-14225984D01*
X10607801Y-14225984D02*
X10588753Y-14216460D01*
X10588753Y-14216460D02*
X10579230Y-14197412D01*
X10579230Y-14197412D02*
X10579230Y-14121222D01*
X10579230Y-14121222D02*
X10588753Y-14102174D01*
X10588753Y-14102174D02*
X10607801Y-14092650D01*
X10607801Y-14092650D02*
X10645896Y-14092650D01*
X10645896Y-14092650D02*
X10664944Y-14102174D01*
X10664944Y-14102174D02*
X10674468Y-14121222D01*
X10674468Y-14121222D02*
X10674468Y-14140269D01*
X10674468Y-14140269D02*
X10579230Y-14159317D01*
X10750658Y-14216460D02*
X10769706Y-14225984D01*
X10769706Y-14225984D02*
X10807801Y-14225984D01*
X10807801Y-14225984D02*
X10826849Y-14216460D01*
X10826849Y-14216460D02*
X10836373Y-14197412D01*
X10836373Y-14197412D02*
X10836373Y-14187888D01*
X10836373Y-14187888D02*
X10826849Y-14168841D01*
X10826849Y-14168841D02*
X10807801Y-14159317D01*
X10807801Y-14159317D02*
X10779230Y-14159317D01*
X10779230Y-14159317D02*
X10760182Y-14149793D01*
X10760182Y-14149793D02*
X10750658Y-14130746D01*
X10750658Y-14130746D02*
X10750658Y-14121222D01*
X10750658Y-14121222D02*
X10760182Y-14102174D01*
X10760182Y-14102174D02*
X10779230Y-14092650D01*
X10779230Y-14092650D02*
X10807801Y-14092650D01*
X10807801Y-14092650D02*
X10826849Y-14102174D01*
X10903039Y-14302174D02*
X10912563Y-14292650D01*
X10912563Y-14292650D02*
X10931611Y-14264079D01*
X10931611Y-14264079D02*
X10941134Y-14245031D01*
X10941134Y-14245031D02*
X10950658Y-14216460D01*
X10950658Y-14216460D02*
X10960182Y-14168841D01*
X10960182Y-14168841D02*
X10960182Y-14130746D01*
X10960182Y-14130746D02*
X10950658Y-14083127D01*
X10950658Y-14083127D02*
X10941134Y-14054555D01*
X10941134Y-14054555D02*
X10931611Y-14035508D01*
X10931611Y-14035508D02*
X10912563Y-14006936D01*
X10912563Y-14006936D02*
X10903039Y-13997412D01*
D16*
X5882500Y-14453500D02*
X5937500Y-14398500D01*
X5882500Y-14343500D01*
X5827500Y-14398500D01*
X5882500Y-14453500D01*
D11*
X6303039Y-14489984D02*
X6188753Y-14489984D01*
X6245896Y-14489984D02*
X6245896Y-14289984D01*
X6245896Y-14289984D02*
X6226848Y-14318555D01*
X6226848Y-14318555D02*
X6207801Y-14337603D01*
X6207801Y-14337603D02*
X6188753Y-14347127D01*
X6388753Y-14470936D02*
X6398277Y-14480460D01*
X6398277Y-14480460D02*
X6388753Y-14489984D01*
X6388753Y-14489984D02*
X6379229Y-14480460D01*
X6379229Y-14480460D02*
X6388753Y-14470936D01*
X6388753Y-14470936D02*
X6388753Y-14489984D01*
X6588753Y-14489984D02*
X6474467Y-14489984D01*
X6531610Y-14489984D02*
X6531610Y-14289984D01*
X6531610Y-14289984D02*
X6512562Y-14318555D01*
X6512562Y-14318555D02*
X6493515Y-14337603D01*
X6493515Y-14337603D02*
X6474467Y-14347127D01*
X6712562Y-14289984D02*
X6731610Y-14289984D01*
X6731610Y-14289984D02*
X6750658Y-14299508D01*
X6750658Y-14299508D02*
X6760182Y-14309031D01*
X6760182Y-14309031D02*
X6769705Y-14328079D01*
X6769705Y-14328079D02*
X6779229Y-14366174D01*
X6779229Y-14366174D02*
X6779229Y-14413793D01*
X6779229Y-14413793D02*
X6769705Y-14451888D01*
X6769705Y-14451888D02*
X6760182Y-14470936D01*
X6760182Y-14470936D02*
X6750658Y-14480460D01*
X6750658Y-14480460D02*
X6731610Y-14489984D01*
X6731610Y-14489984D02*
X6712562Y-14489984D01*
X6712562Y-14489984D02*
X6693515Y-14480460D01*
X6693515Y-14480460D02*
X6683991Y-14470936D01*
X6683991Y-14470936D02*
X6674467Y-14451888D01*
X6674467Y-14451888D02*
X6664943Y-14413793D01*
X6664943Y-14413793D02*
X6664943Y-14366174D01*
X6664943Y-14366174D02*
X6674467Y-14328079D01*
X6674467Y-14328079D02*
X6683991Y-14309031D01*
X6683991Y-14309031D02*
X6693515Y-14299508D01*
X6693515Y-14299508D02*
X6712562Y-14289984D01*
X6903039Y-14289984D02*
X6922086Y-14289984D01*
X6922086Y-14289984D02*
X6941134Y-14299508D01*
X6941134Y-14299508D02*
X6950658Y-14309031D01*
X6950658Y-14309031D02*
X6960182Y-14328079D01*
X6960182Y-14328079D02*
X6969705Y-14366174D01*
X6969705Y-14366174D02*
X6969705Y-14413793D01*
X6969705Y-14413793D02*
X6960182Y-14451888D01*
X6960182Y-14451888D02*
X6950658Y-14470936D01*
X6950658Y-14470936D02*
X6941134Y-14480460D01*
X6941134Y-14480460D02*
X6922086Y-14489984D01*
X6922086Y-14489984D02*
X6903039Y-14489984D01*
X6903039Y-14489984D02*
X6883991Y-14480460D01*
X6883991Y-14480460D02*
X6874467Y-14470936D01*
X6874467Y-14470936D02*
X6864943Y-14451888D01*
X6864943Y-14451888D02*
X6855420Y-14413793D01*
X6855420Y-14413793D02*
X6855420Y-14366174D01*
X6855420Y-14366174D02*
X6864943Y-14328079D01*
X6864943Y-14328079D02*
X6874467Y-14309031D01*
X6874467Y-14309031D02*
X6883991Y-14299508D01*
X6883991Y-14299508D02*
X6903039Y-14289984D01*
X7055420Y-14489984D02*
X7055420Y-14356650D01*
X7055420Y-14375698D02*
X7064943Y-14366174D01*
X7064943Y-14366174D02*
X7083991Y-14356650D01*
X7083991Y-14356650D02*
X7112563Y-14356650D01*
X7112563Y-14356650D02*
X7131610Y-14366174D01*
X7131610Y-14366174D02*
X7141134Y-14385222D01*
X7141134Y-14385222D02*
X7141134Y-14489984D01*
X7141134Y-14385222D02*
X7150658Y-14366174D01*
X7150658Y-14366174D02*
X7169705Y-14356650D01*
X7169705Y-14356650D02*
X7198277Y-14356650D01*
X7198277Y-14356650D02*
X7217324Y-14366174D01*
X7217324Y-14366174D02*
X7226848Y-14385222D01*
X7226848Y-14385222D02*
X7226848Y-14489984D01*
X7322086Y-14489984D02*
X7322086Y-14356650D01*
X7322086Y-14375698D02*
X7331610Y-14366174D01*
X7331610Y-14366174D02*
X7350658Y-14356650D01*
X7350658Y-14356650D02*
X7379229Y-14356650D01*
X7379229Y-14356650D02*
X7398277Y-14366174D01*
X7398277Y-14366174D02*
X7407801Y-14385222D01*
X7407801Y-14385222D02*
X7407801Y-14489984D01*
X7407801Y-14385222D02*
X7417324Y-14366174D01*
X7417324Y-14366174D02*
X7436372Y-14356650D01*
X7436372Y-14356650D02*
X7464943Y-14356650D01*
X7464943Y-14356650D02*
X7483991Y-14366174D01*
X7483991Y-14366174D02*
X7493515Y-14385222D01*
X7493515Y-14385222D02*
X7493515Y-14489984D01*
X7883991Y-14280460D02*
X7712563Y-14537603D01*
X8141134Y-14289984D02*
X8160182Y-14289984D01*
X8160182Y-14289984D02*
X8179229Y-14299508D01*
X8179229Y-14299508D02*
X8188753Y-14309031D01*
X8188753Y-14309031D02*
X8198277Y-14328079D01*
X8198277Y-14328079D02*
X8207801Y-14366174D01*
X8207801Y-14366174D02*
X8207801Y-14413793D01*
X8207801Y-14413793D02*
X8198277Y-14451888D01*
X8198277Y-14451888D02*
X8188753Y-14470936D01*
X8188753Y-14470936D02*
X8179229Y-14480460D01*
X8179229Y-14480460D02*
X8160182Y-14489984D01*
X8160182Y-14489984D02*
X8141134Y-14489984D01*
X8141134Y-14489984D02*
X8122086Y-14480460D01*
X8122086Y-14480460D02*
X8112563Y-14470936D01*
X8112563Y-14470936D02*
X8103039Y-14451888D01*
X8103039Y-14451888D02*
X8093515Y-14413793D01*
X8093515Y-14413793D02*
X8093515Y-14366174D01*
X8093515Y-14366174D02*
X8103039Y-14328079D01*
X8103039Y-14328079D02*
X8112563Y-14309031D01*
X8112563Y-14309031D02*
X8122086Y-14299508D01*
X8122086Y-14299508D02*
X8141134Y-14289984D01*
X8293515Y-14470936D02*
X8303039Y-14480460D01*
X8303039Y-14480460D02*
X8293515Y-14489984D01*
X8293515Y-14489984D02*
X8283991Y-14480460D01*
X8283991Y-14480460D02*
X8293515Y-14470936D01*
X8293515Y-14470936D02*
X8293515Y-14489984D01*
X8426848Y-14289984D02*
X8445896Y-14289984D01*
X8445896Y-14289984D02*
X8464944Y-14299508D01*
X8464944Y-14299508D02*
X8474468Y-14309031D01*
X8474468Y-14309031D02*
X8483991Y-14328079D01*
X8483991Y-14328079D02*
X8493515Y-14366174D01*
X8493515Y-14366174D02*
X8493515Y-14413793D01*
X8493515Y-14413793D02*
X8483991Y-14451888D01*
X8483991Y-14451888D02*
X8474468Y-14470936D01*
X8474468Y-14470936D02*
X8464944Y-14480460D01*
X8464944Y-14480460D02*
X8445896Y-14489984D01*
X8445896Y-14489984D02*
X8426848Y-14489984D01*
X8426848Y-14489984D02*
X8407801Y-14480460D01*
X8407801Y-14480460D02*
X8398277Y-14470936D01*
X8398277Y-14470936D02*
X8388753Y-14451888D01*
X8388753Y-14451888D02*
X8379229Y-14413793D01*
X8379229Y-14413793D02*
X8379229Y-14366174D01*
X8379229Y-14366174D02*
X8388753Y-14328079D01*
X8388753Y-14328079D02*
X8398277Y-14309031D01*
X8398277Y-14309031D02*
X8407801Y-14299508D01*
X8407801Y-14299508D02*
X8426848Y-14289984D01*
X8664944Y-14356650D02*
X8664944Y-14489984D01*
X8617325Y-14280460D02*
X8569706Y-14423317D01*
X8569706Y-14423317D02*
X8693515Y-14423317D01*
X8750658Y-14289984D02*
X8874468Y-14289984D01*
X8874468Y-14289984D02*
X8807801Y-14366174D01*
X8807801Y-14366174D02*
X8836372Y-14366174D01*
X8836372Y-14366174D02*
X8855420Y-14375698D01*
X8855420Y-14375698D02*
X8864944Y-14385222D01*
X8864944Y-14385222D02*
X8874468Y-14404269D01*
X8874468Y-14404269D02*
X8874468Y-14451888D01*
X8874468Y-14451888D02*
X8864944Y-14470936D01*
X8864944Y-14470936D02*
X8855420Y-14480460D01*
X8855420Y-14480460D02*
X8836372Y-14489984D01*
X8836372Y-14489984D02*
X8779229Y-14489984D01*
X8779229Y-14489984D02*
X8760182Y-14480460D01*
X8760182Y-14480460D02*
X8750658Y-14470936D01*
X8941134Y-14289984D02*
X9064944Y-14289984D01*
X9064944Y-14289984D02*
X8998277Y-14366174D01*
X8998277Y-14366174D02*
X9026849Y-14366174D01*
X9026849Y-14366174D02*
X9045896Y-14375698D01*
X9045896Y-14375698D02*
X9055420Y-14385222D01*
X9055420Y-14385222D02*
X9064944Y-14404269D01*
X9064944Y-14404269D02*
X9064944Y-14451888D01*
X9064944Y-14451888D02*
X9055420Y-14470936D01*
X9055420Y-14470936D02*
X9045896Y-14480460D01*
X9045896Y-14480460D02*
X9026849Y-14489984D01*
X9026849Y-14489984D02*
X8969706Y-14489984D01*
X8969706Y-14489984D02*
X8950658Y-14480460D01*
X8950658Y-14480460D02*
X8941134Y-14470936D01*
X9141134Y-14289984D02*
X9141134Y-14328079D01*
X9217325Y-14289984D02*
X9217325Y-14328079D01*
X9512563Y-14566174D02*
X9503039Y-14556650D01*
X9503039Y-14556650D02*
X9483991Y-14528079D01*
X9483991Y-14528079D02*
X9474468Y-14509031D01*
X9474468Y-14509031D02*
X9464944Y-14480460D01*
X9464944Y-14480460D02*
X9455420Y-14432841D01*
X9455420Y-14432841D02*
X9455420Y-14394746D01*
X9455420Y-14394746D02*
X9464944Y-14347127D01*
X9464944Y-14347127D02*
X9474468Y-14318555D01*
X9474468Y-14318555D02*
X9483991Y-14299508D01*
X9483991Y-14299508D02*
X9503039Y-14270936D01*
X9503039Y-14270936D02*
X9512563Y-14261412D01*
X9579230Y-14309031D02*
X9588753Y-14299508D01*
X9588753Y-14299508D02*
X9607801Y-14289984D01*
X9607801Y-14289984D02*
X9655420Y-14289984D01*
X9655420Y-14289984D02*
X9674468Y-14299508D01*
X9674468Y-14299508D02*
X9683991Y-14309031D01*
X9683991Y-14309031D02*
X9693515Y-14328079D01*
X9693515Y-14328079D02*
X9693515Y-14347127D01*
X9693515Y-14347127D02*
X9683991Y-14375698D01*
X9683991Y-14375698D02*
X9569706Y-14489984D01*
X9569706Y-14489984D02*
X9693515Y-14489984D01*
X9931611Y-14489984D02*
X9931611Y-14289984D01*
X10017325Y-14489984D02*
X10017325Y-14385222D01*
X10017325Y-14385222D02*
X10007801Y-14366174D01*
X10007801Y-14366174D02*
X9988753Y-14356650D01*
X9988753Y-14356650D02*
X9960182Y-14356650D01*
X9960182Y-14356650D02*
X9941134Y-14366174D01*
X9941134Y-14366174D02*
X9931611Y-14375698D01*
X10141134Y-14489984D02*
X10122087Y-14480460D01*
X10122087Y-14480460D02*
X10112563Y-14470936D01*
X10112563Y-14470936D02*
X10103039Y-14451888D01*
X10103039Y-14451888D02*
X10103039Y-14394746D01*
X10103039Y-14394746D02*
X10112563Y-14375698D01*
X10112563Y-14375698D02*
X10122087Y-14366174D01*
X10122087Y-14366174D02*
X10141134Y-14356650D01*
X10141134Y-14356650D02*
X10169706Y-14356650D01*
X10169706Y-14356650D02*
X10188753Y-14366174D01*
X10188753Y-14366174D02*
X10198277Y-14375698D01*
X10198277Y-14375698D02*
X10207801Y-14394746D01*
X10207801Y-14394746D02*
X10207801Y-14451888D01*
X10207801Y-14451888D02*
X10198277Y-14470936D01*
X10198277Y-14470936D02*
X10188753Y-14480460D01*
X10188753Y-14480460D02*
X10169706Y-14489984D01*
X10169706Y-14489984D02*
X10141134Y-14489984D01*
X10322087Y-14489984D02*
X10303039Y-14480460D01*
X10303039Y-14480460D02*
X10293515Y-14461412D01*
X10293515Y-14461412D02*
X10293515Y-14289984D01*
X10474468Y-14480460D02*
X10455420Y-14489984D01*
X10455420Y-14489984D02*
X10417325Y-14489984D01*
X10417325Y-14489984D02*
X10398277Y-14480460D01*
X10398277Y-14480460D02*
X10388753Y-14461412D01*
X10388753Y-14461412D02*
X10388753Y-14385222D01*
X10388753Y-14385222D02*
X10398277Y-14366174D01*
X10398277Y-14366174D02*
X10417325Y-14356650D01*
X10417325Y-14356650D02*
X10455420Y-14356650D01*
X10455420Y-14356650D02*
X10474468Y-14366174D01*
X10474468Y-14366174D02*
X10483992Y-14385222D01*
X10483992Y-14385222D02*
X10483992Y-14404269D01*
X10483992Y-14404269D02*
X10388753Y-14423317D01*
X10560182Y-14480460D02*
X10579230Y-14489984D01*
X10579230Y-14489984D02*
X10617325Y-14489984D01*
X10617325Y-14489984D02*
X10636373Y-14480460D01*
X10636373Y-14480460D02*
X10645896Y-14461412D01*
X10645896Y-14461412D02*
X10645896Y-14451888D01*
X10645896Y-14451888D02*
X10636373Y-14432841D01*
X10636373Y-14432841D02*
X10617325Y-14423317D01*
X10617325Y-14423317D02*
X10588753Y-14423317D01*
X10588753Y-14423317D02*
X10569706Y-14413793D01*
X10569706Y-14413793D02*
X10560182Y-14394746D01*
X10560182Y-14394746D02*
X10560182Y-14385222D01*
X10560182Y-14385222D02*
X10569706Y-14366174D01*
X10569706Y-14366174D02*
X10588753Y-14356650D01*
X10588753Y-14356650D02*
X10617325Y-14356650D01*
X10617325Y-14356650D02*
X10636373Y-14366174D01*
X10712563Y-14566174D02*
X10722087Y-14556650D01*
X10722087Y-14556650D02*
X10741134Y-14528079D01*
X10741134Y-14528079D02*
X10750658Y-14509031D01*
X10750658Y-14509031D02*
X10760182Y-14480460D01*
X10760182Y-14480460D02*
X10769706Y-14432841D01*
X10769706Y-14432841D02*
X10769706Y-14394746D01*
X10769706Y-14394746D02*
X10760182Y-14347127D01*
X10760182Y-14347127D02*
X10750658Y-14318555D01*
X10750658Y-14318555D02*
X10741134Y-14299508D01*
X10741134Y-14299508D02*
X10722087Y-14270936D01*
X10722087Y-14270936D02*
X10712563Y-14261412D01*
D17*
X5823200Y-14605350D02*
X5937500Y-14719650D01*
X5937500Y-14605350D02*
X5823200Y-14719650D01*
X5937500Y-14662500D02*
G75*
G03*
X5937500Y-14662500I-57150J0D01*
G01*
D11*
X6303039Y-14753984D02*
X6188753Y-14753984D01*
X6245896Y-14753984D02*
X6245896Y-14553984D01*
X6245896Y-14553984D02*
X6226848Y-14582555D01*
X6226848Y-14582555D02*
X6207801Y-14601603D01*
X6207801Y-14601603D02*
X6188753Y-14611127D01*
X6388753Y-14734936D02*
X6398277Y-14744460D01*
X6398277Y-14744460D02*
X6388753Y-14753984D01*
X6388753Y-14753984D02*
X6379229Y-14744460D01*
X6379229Y-14744460D02*
X6388753Y-14734936D01*
X6388753Y-14734936D02*
X6388753Y-14753984D01*
X6588753Y-14753984D02*
X6474467Y-14753984D01*
X6531610Y-14753984D02*
X6531610Y-14553984D01*
X6531610Y-14553984D02*
X6512562Y-14582555D01*
X6512562Y-14582555D02*
X6493515Y-14601603D01*
X6493515Y-14601603D02*
X6474467Y-14611127D01*
X6760182Y-14620650D02*
X6760182Y-14753984D01*
X6712562Y-14544460D02*
X6664943Y-14687317D01*
X6664943Y-14687317D02*
X6788753Y-14687317D01*
X6845896Y-14553984D02*
X6969705Y-14553984D01*
X6969705Y-14553984D02*
X6903039Y-14630174D01*
X6903039Y-14630174D02*
X6931610Y-14630174D01*
X6931610Y-14630174D02*
X6950658Y-14639698D01*
X6950658Y-14639698D02*
X6960182Y-14649222D01*
X6960182Y-14649222D02*
X6969705Y-14668269D01*
X6969705Y-14668269D02*
X6969705Y-14715888D01*
X6969705Y-14715888D02*
X6960182Y-14734936D01*
X6960182Y-14734936D02*
X6950658Y-14744460D01*
X6950658Y-14744460D02*
X6931610Y-14753984D01*
X6931610Y-14753984D02*
X6874467Y-14753984D01*
X6874467Y-14753984D02*
X6855420Y-14744460D01*
X6855420Y-14744460D02*
X6845896Y-14734936D01*
X7055420Y-14753984D02*
X7055420Y-14620650D01*
X7055420Y-14639698D02*
X7064943Y-14630174D01*
X7064943Y-14630174D02*
X7083991Y-14620650D01*
X7083991Y-14620650D02*
X7112563Y-14620650D01*
X7112563Y-14620650D02*
X7131610Y-14630174D01*
X7131610Y-14630174D02*
X7141134Y-14649222D01*
X7141134Y-14649222D02*
X7141134Y-14753984D01*
X7141134Y-14649222D02*
X7150658Y-14630174D01*
X7150658Y-14630174D02*
X7169705Y-14620650D01*
X7169705Y-14620650D02*
X7198277Y-14620650D01*
X7198277Y-14620650D02*
X7217324Y-14630174D01*
X7217324Y-14630174D02*
X7226848Y-14649222D01*
X7226848Y-14649222D02*
X7226848Y-14753984D01*
X7322086Y-14753984D02*
X7322086Y-14620650D01*
X7322086Y-14639698D02*
X7331610Y-14630174D01*
X7331610Y-14630174D02*
X7350658Y-14620650D01*
X7350658Y-14620650D02*
X7379229Y-14620650D01*
X7379229Y-14620650D02*
X7398277Y-14630174D01*
X7398277Y-14630174D02*
X7407801Y-14649222D01*
X7407801Y-14649222D02*
X7407801Y-14753984D01*
X7407801Y-14649222D02*
X7417324Y-14630174D01*
X7417324Y-14630174D02*
X7436372Y-14620650D01*
X7436372Y-14620650D02*
X7464943Y-14620650D01*
X7464943Y-14620650D02*
X7483991Y-14630174D01*
X7483991Y-14630174D02*
X7493515Y-14649222D01*
X7493515Y-14649222D02*
X7493515Y-14753984D01*
X7883991Y-14544460D02*
X7712563Y-14801603D01*
X8141134Y-14553984D02*
X8160182Y-14553984D01*
X8160182Y-14553984D02*
X8179229Y-14563508D01*
X8179229Y-14563508D02*
X8188753Y-14573031D01*
X8188753Y-14573031D02*
X8198277Y-14592079D01*
X8198277Y-14592079D02*
X8207801Y-14630174D01*
X8207801Y-14630174D02*
X8207801Y-14677793D01*
X8207801Y-14677793D02*
X8198277Y-14715888D01*
X8198277Y-14715888D02*
X8188753Y-14734936D01*
X8188753Y-14734936D02*
X8179229Y-14744460D01*
X8179229Y-14744460D02*
X8160182Y-14753984D01*
X8160182Y-14753984D02*
X8141134Y-14753984D01*
X8141134Y-14753984D02*
X8122086Y-14744460D01*
X8122086Y-14744460D02*
X8112563Y-14734936D01*
X8112563Y-14734936D02*
X8103039Y-14715888D01*
X8103039Y-14715888D02*
X8093515Y-14677793D01*
X8093515Y-14677793D02*
X8093515Y-14630174D01*
X8093515Y-14630174D02*
X8103039Y-14592079D01*
X8103039Y-14592079D02*
X8112563Y-14573031D01*
X8112563Y-14573031D02*
X8122086Y-14563508D01*
X8122086Y-14563508D02*
X8141134Y-14553984D01*
X8293515Y-14734936D02*
X8303039Y-14744460D01*
X8303039Y-14744460D02*
X8293515Y-14753984D01*
X8293515Y-14753984D02*
X8283991Y-14744460D01*
X8283991Y-14744460D02*
X8293515Y-14734936D01*
X8293515Y-14734936D02*
X8293515Y-14753984D01*
X8426848Y-14553984D02*
X8445896Y-14553984D01*
X8445896Y-14553984D02*
X8464944Y-14563508D01*
X8464944Y-14563508D02*
X8474468Y-14573031D01*
X8474468Y-14573031D02*
X8483991Y-14592079D01*
X8483991Y-14592079D02*
X8493515Y-14630174D01*
X8493515Y-14630174D02*
X8493515Y-14677793D01*
X8493515Y-14677793D02*
X8483991Y-14715888D01*
X8483991Y-14715888D02*
X8474468Y-14734936D01*
X8474468Y-14734936D02*
X8464944Y-14744460D01*
X8464944Y-14744460D02*
X8445896Y-14753984D01*
X8445896Y-14753984D02*
X8426848Y-14753984D01*
X8426848Y-14753984D02*
X8407801Y-14744460D01*
X8407801Y-14744460D02*
X8398277Y-14734936D01*
X8398277Y-14734936D02*
X8388753Y-14715888D01*
X8388753Y-14715888D02*
X8379229Y-14677793D01*
X8379229Y-14677793D02*
X8379229Y-14630174D01*
X8379229Y-14630174D02*
X8388753Y-14592079D01*
X8388753Y-14592079D02*
X8398277Y-14573031D01*
X8398277Y-14573031D02*
X8407801Y-14563508D01*
X8407801Y-14563508D02*
X8426848Y-14553984D01*
X8664944Y-14620650D02*
X8664944Y-14753984D01*
X8617325Y-14544460D02*
X8569706Y-14687317D01*
X8569706Y-14687317D02*
X8693515Y-14687317D01*
X8864944Y-14553984D02*
X8769706Y-14553984D01*
X8769706Y-14553984D02*
X8760182Y-14649222D01*
X8760182Y-14649222D02*
X8769706Y-14639698D01*
X8769706Y-14639698D02*
X8788753Y-14630174D01*
X8788753Y-14630174D02*
X8836372Y-14630174D01*
X8836372Y-14630174D02*
X8855420Y-14639698D01*
X8855420Y-14639698D02*
X8864944Y-14649222D01*
X8864944Y-14649222D02*
X8874468Y-14668269D01*
X8874468Y-14668269D02*
X8874468Y-14715888D01*
X8874468Y-14715888D02*
X8864944Y-14734936D01*
X8864944Y-14734936D02*
X8855420Y-14744460D01*
X8855420Y-14744460D02*
X8836372Y-14753984D01*
X8836372Y-14753984D02*
X8788753Y-14753984D01*
X8788753Y-14753984D02*
X8769706Y-14744460D01*
X8769706Y-14744460D02*
X8760182Y-14734936D01*
X8998277Y-14553984D02*
X9017325Y-14553984D01*
X9017325Y-14553984D02*
X9036372Y-14563508D01*
X9036372Y-14563508D02*
X9045896Y-14573031D01*
X9045896Y-14573031D02*
X9055420Y-14592079D01*
X9055420Y-14592079D02*
X9064944Y-14630174D01*
X9064944Y-14630174D02*
X9064944Y-14677793D01*
X9064944Y-14677793D02*
X9055420Y-14715888D01*
X9055420Y-14715888D02*
X9045896Y-14734936D01*
X9045896Y-14734936D02*
X9036372Y-14744460D01*
X9036372Y-14744460D02*
X9017325Y-14753984D01*
X9017325Y-14753984D02*
X8998277Y-14753984D01*
X8998277Y-14753984D02*
X8979229Y-14744460D01*
X8979229Y-14744460D02*
X8969706Y-14734936D01*
X8969706Y-14734936D02*
X8960182Y-14715888D01*
X8960182Y-14715888D02*
X8950658Y-14677793D01*
X8950658Y-14677793D02*
X8950658Y-14630174D01*
X8950658Y-14630174D02*
X8960182Y-14592079D01*
X8960182Y-14592079D02*
X8969706Y-14573031D01*
X8969706Y-14573031D02*
X8979229Y-14563508D01*
X8979229Y-14563508D02*
X8998277Y-14553984D01*
X9141134Y-14553984D02*
X9141134Y-14592079D01*
X9217325Y-14553984D02*
X9217325Y-14592079D01*
X9512563Y-14830174D02*
X9503039Y-14820650D01*
X9503039Y-14820650D02*
X9483991Y-14792079D01*
X9483991Y-14792079D02*
X9474468Y-14773031D01*
X9474468Y-14773031D02*
X9464944Y-14744460D01*
X9464944Y-14744460D02*
X9455420Y-14696841D01*
X9455420Y-14696841D02*
X9455420Y-14658746D01*
X9455420Y-14658746D02*
X9464944Y-14611127D01*
X9464944Y-14611127D02*
X9474468Y-14582555D01*
X9474468Y-14582555D02*
X9483991Y-14563508D01*
X9483991Y-14563508D02*
X9503039Y-14534936D01*
X9503039Y-14534936D02*
X9512563Y-14525412D01*
X9674468Y-14553984D02*
X9636372Y-14553984D01*
X9636372Y-14553984D02*
X9617325Y-14563508D01*
X9617325Y-14563508D02*
X9607801Y-14573031D01*
X9607801Y-14573031D02*
X9588753Y-14601603D01*
X9588753Y-14601603D02*
X9579230Y-14639698D01*
X9579230Y-14639698D02*
X9579230Y-14715888D01*
X9579230Y-14715888D02*
X9588753Y-14734936D01*
X9588753Y-14734936D02*
X9598277Y-14744460D01*
X9598277Y-14744460D02*
X9617325Y-14753984D01*
X9617325Y-14753984D02*
X9655420Y-14753984D01*
X9655420Y-14753984D02*
X9674468Y-14744460D01*
X9674468Y-14744460D02*
X9683991Y-14734936D01*
X9683991Y-14734936D02*
X9693515Y-14715888D01*
X9693515Y-14715888D02*
X9693515Y-14668269D01*
X9693515Y-14668269D02*
X9683991Y-14649222D01*
X9683991Y-14649222D02*
X9674468Y-14639698D01*
X9674468Y-14639698D02*
X9655420Y-14630174D01*
X9655420Y-14630174D02*
X9617325Y-14630174D01*
X9617325Y-14630174D02*
X9598277Y-14639698D01*
X9598277Y-14639698D02*
X9588753Y-14649222D01*
X9588753Y-14649222D02*
X9579230Y-14668269D01*
X9931611Y-14753984D02*
X9931611Y-14553984D01*
X10017325Y-14753984D02*
X10017325Y-14649222D01*
X10017325Y-14649222D02*
X10007801Y-14630174D01*
X10007801Y-14630174D02*
X9988753Y-14620650D01*
X9988753Y-14620650D02*
X9960182Y-14620650D01*
X9960182Y-14620650D02*
X9941134Y-14630174D01*
X9941134Y-14630174D02*
X9931611Y-14639698D01*
X10141134Y-14753984D02*
X10122087Y-14744460D01*
X10122087Y-14744460D02*
X10112563Y-14734936D01*
X10112563Y-14734936D02*
X10103039Y-14715888D01*
X10103039Y-14715888D02*
X10103039Y-14658746D01*
X10103039Y-14658746D02*
X10112563Y-14639698D01*
X10112563Y-14639698D02*
X10122087Y-14630174D01*
X10122087Y-14630174D02*
X10141134Y-14620650D01*
X10141134Y-14620650D02*
X10169706Y-14620650D01*
X10169706Y-14620650D02*
X10188753Y-14630174D01*
X10188753Y-14630174D02*
X10198277Y-14639698D01*
X10198277Y-14639698D02*
X10207801Y-14658746D01*
X10207801Y-14658746D02*
X10207801Y-14715888D01*
X10207801Y-14715888D02*
X10198277Y-14734936D01*
X10198277Y-14734936D02*
X10188753Y-14744460D01*
X10188753Y-14744460D02*
X10169706Y-14753984D01*
X10169706Y-14753984D02*
X10141134Y-14753984D01*
X10322087Y-14753984D02*
X10303039Y-14744460D01*
X10303039Y-14744460D02*
X10293515Y-14725412D01*
X10293515Y-14725412D02*
X10293515Y-14553984D01*
X10474468Y-14744460D02*
X10455420Y-14753984D01*
X10455420Y-14753984D02*
X10417325Y-14753984D01*
X10417325Y-14753984D02*
X10398277Y-14744460D01*
X10398277Y-14744460D02*
X10388753Y-14725412D01*
X10388753Y-14725412D02*
X10388753Y-14649222D01*
X10388753Y-14649222D02*
X10398277Y-14630174D01*
X10398277Y-14630174D02*
X10417325Y-14620650D01*
X10417325Y-14620650D02*
X10455420Y-14620650D01*
X10455420Y-14620650D02*
X10474468Y-14630174D01*
X10474468Y-14630174D02*
X10483992Y-14649222D01*
X10483992Y-14649222D02*
X10483992Y-14668269D01*
X10483992Y-14668269D02*
X10388753Y-14687317D01*
X10560182Y-14744460D02*
X10579230Y-14753984D01*
X10579230Y-14753984D02*
X10617325Y-14753984D01*
X10617325Y-14753984D02*
X10636373Y-14744460D01*
X10636373Y-14744460D02*
X10645896Y-14725412D01*
X10645896Y-14725412D02*
X10645896Y-14715888D01*
X10645896Y-14715888D02*
X10636373Y-14696841D01*
X10636373Y-14696841D02*
X10617325Y-14687317D01*
X10617325Y-14687317D02*
X10588753Y-14687317D01*
X10588753Y-14687317D02*
X10569706Y-14677793D01*
X10569706Y-14677793D02*
X10560182Y-14658746D01*
X10560182Y-14658746D02*
X10560182Y-14649222D01*
X10560182Y-14649222D02*
X10569706Y-14630174D01*
X10569706Y-14630174D02*
X10588753Y-14620650D01*
X10588753Y-14620650D02*
X10617325Y-14620650D01*
X10617325Y-14620650D02*
X10636373Y-14630174D01*
X10712563Y-14830174D02*
X10722087Y-14820650D01*
X10722087Y-14820650D02*
X10741134Y-14792079D01*
X10741134Y-14792079D02*
X10750658Y-14773031D01*
X10750658Y-14773031D02*
X10760182Y-14744460D01*
X10760182Y-14744460D02*
X10769706Y-14696841D01*
X10769706Y-14696841D02*
X10769706Y-14658746D01*
X10769706Y-14658746D02*
X10760182Y-14611127D01*
X10760182Y-14611127D02*
X10750658Y-14582555D01*
X10750658Y-14582555D02*
X10741134Y-14563508D01*
X10741134Y-14563508D02*
X10722087Y-14534936D01*
X10722087Y-14534936D02*
X10712563Y-14525412D01*
D18*
X5757500Y-14836500D02*
X5937500Y-15016500D01*
X5937500Y-14836500D02*
X5757500Y-15016500D01*
X5847500Y-14836500D02*
X5847500Y-15016500D01*
X5757500Y-14926500D02*
X5937500Y-14926500D01*
D11*
X6303039Y-15017984D02*
X6188753Y-15017984D01*
X6245896Y-15017984D02*
X6245896Y-14817984D01*
X6245896Y-14817984D02*
X6226848Y-14846555D01*
X6226848Y-14846555D02*
X6207801Y-14865603D01*
X6207801Y-14865603D02*
X6188753Y-14875127D01*
X6388753Y-14998936D02*
X6398277Y-15008460D01*
X6398277Y-15008460D02*
X6388753Y-15017984D01*
X6388753Y-15017984D02*
X6379229Y-15008460D01*
X6379229Y-15008460D02*
X6388753Y-14998936D01*
X6388753Y-14998936D02*
X6388753Y-15017984D01*
X6512562Y-14903698D02*
X6493515Y-14894174D01*
X6493515Y-14894174D02*
X6483991Y-14884650D01*
X6483991Y-14884650D02*
X6474467Y-14865603D01*
X6474467Y-14865603D02*
X6474467Y-14856079D01*
X6474467Y-14856079D02*
X6483991Y-14837031D01*
X6483991Y-14837031D02*
X6493515Y-14827508D01*
X6493515Y-14827508D02*
X6512562Y-14817984D01*
X6512562Y-14817984D02*
X6550658Y-14817984D01*
X6550658Y-14817984D02*
X6569705Y-14827508D01*
X6569705Y-14827508D02*
X6579229Y-14837031D01*
X6579229Y-14837031D02*
X6588753Y-14856079D01*
X6588753Y-14856079D02*
X6588753Y-14865603D01*
X6588753Y-14865603D02*
X6579229Y-14884650D01*
X6579229Y-14884650D02*
X6569705Y-14894174D01*
X6569705Y-14894174D02*
X6550658Y-14903698D01*
X6550658Y-14903698D02*
X6512562Y-14903698D01*
X6512562Y-14903698D02*
X6493515Y-14913222D01*
X6493515Y-14913222D02*
X6483991Y-14922746D01*
X6483991Y-14922746D02*
X6474467Y-14941793D01*
X6474467Y-14941793D02*
X6474467Y-14979888D01*
X6474467Y-14979888D02*
X6483991Y-14998936D01*
X6483991Y-14998936D02*
X6493515Y-15008460D01*
X6493515Y-15008460D02*
X6512562Y-15017984D01*
X6512562Y-15017984D02*
X6550658Y-15017984D01*
X6550658Y-15017984D02*
X6569705Y-15008460D01*
X6569705Y-15008460D02*
X6579229Y-14998936D01*
X6579229Y-14998936D02*
X6588753Y-14979888D01*
X6588753Y-14979888D02*
X6588753Y-14941793D01*
X6588753Y-14941793D02*
X6579229Y-14922746D01*
X6579229Y-14922746D02*
X6569705Y-14913222D01*
X6569705Y-14913222D02*
X6550658Y-14903698D01*
X6712562Y-14817984D02*
X6731610Y-14817984D01*
X6731610Y-14817984D02*
X6750658Y-14827508D01*
X6750658Y-14827508D02*
X6760182Y-14837031D01*
X6760182Y-14837031D02*
X6769705Y-14856079D01*
X6769705Y-14856079D02*
X6779229Y-14894174D01*
X6779229Y-14894174D02*
X6779229Y-14941793D01*
X6779229Y-14941793D02*
X6769705Y-14979888D01*
X6769705Y-14979888D02*
X6760182Y-14998936D01*
X6760182Y-14998936D02*
X6750658Y-15008460D01*
X6750658Y-15008460D02*
X6731610Y-15017984D01*
X6731610Y-15017984D02*
X6712562Y-15017984D01*
X6712562Y-15017984D02*
X6693515Y-15008460D01*
X6693515Y-15008460D02*
X6683991Y-14998936D01*
X6683991Y-14998936D02*
X6674467Y-14979888D01*
X6674467Y-14979888D02*
X6664943Y-14941793D01*
X6664943Y-14941793D02*
X6664943Y-14894174D01*
X6664943Y-14894174D02*
X6674467Y-14856079D01*
X6674467Y-14856079D02*
X6683991Y-14837031D01*
X6683991Y-14837031D02*
X6693515Y-14827508D01*
X6693515Y-14827508D02*
X6712562Y-14817984D01*
X6903039Y-14817984D02*
X6922086Y-14817984D01*
X6922086Y-14817984D02*
X6941134Y-14827508D01*
X6941134Y-14827508D02*
X6950658Y-14837031D01*
X6950658Y-14837031D02*
X6960182Y-14856079D01*
X6960182Y-14856079D02*
X6969705Y-14894174D01*
X6969705Y-14894174D02*
X6969705Y-14941793D01*
X6969705Y-14941793D02*
X6960182Y-14979888D01*
X6960182Y-14979888D02*
X6950658Y-14998936D01*
X6950658Y-14998936D02*
X6941134Y-15008460D01*
X6941134Y-15008460D02*
X6922086Y-15017984D01*
X6922086Y-15017984D02*
X6903039Y-15017984D01*
X6903039Y-15017984D02*
X6883991Y-15008460D01*
X6883991Y-15008460D02*
X6874467Y-14998936D01*
X6874467Y-14998936D02*
X6864943Y-14979888D01*
X6864943Y-14979888D02*
X6855420Y-14941793D01*
X6855420Y-14941793D02*
X6855420Y-14894174D01*
X6855420Y-14894174D02*
X6864943Y-14856079D01*
X6864943Y-14856079D02*
X6874467Y-14837031D01*
X6874467Y-14837031D02*
X6883991Y-14827508D01*
X6883991Y-14827508D02*
X6903039Y-14817984D01*
X7055420Y-15017984D02*
X7055420Y-14884650D01*
X7055420Y-14903698D02*
X7064943Y-14894174D01*
X7064943Y-14894174D02*
X7083991Y-14884650D01*
X7083991Y-14884650D02*
X7112563Y-14884650D01*
X7112563Y-14884650D02*
X7131610Y-14894174D01*
X7131610Y-14894174D02*
X7141134Y-14913222D01*
X7141134Y-14913222D02*
X7141134Y-15017984D01*
X7141134Y-14913222D02*
X7150658Y-14894174D01*
X7150658Y-14894174D02*
X7169705Y-14884650D01*
X7169705Y-14884650D02*
X7198277Y-14884650D01*
X7198277Y-14884650D02*
X7217324Y-14894174D01*
X7217324Y-14894174D02*
X7226848Y-14913222D01*
X7226848Y-14913222D02*
X7226848Y-15017984D01*
X7322086Y-15017984D02*
X7322086Y-14884650D01*
X7322086Y-14903698D02*
X7331610Y-14894174D01*
X7331610Y-14894174D02*
X7350658Y-14884650D01*
X7350658Y-14884650D02*
X7379229Y-14884650D01*
X7379229Y-14884650D02*
X7398277Y-14894174D01*
X7398277Y-14894174D02*
X7407801Y-14913222D01*
X7407801Y-14913222D02*
X7407801Y-15017984D01*
X7407801Y-14913222D02*
X7417324Y-14894174D01*
X7417324Y-14894174D02*
X7436372Y-14884650D01*
X7436372Y-14884650D02*
X7464943Y-14884650D01*
X7464943Y-14884650D02*
X7483991Y-14894174D01*
X7483991Y-14894174D02*
X7493515Y-14913222D01*
X7493515Y-14913222D02*
X7493515Y-15017984D01*
X7883991Y-14808460D02*
X7712563Y-15065603D01*
X8141134Y-14817984D02*
X8160182Y-14817984D01*
X8160182Y-14817984D02*
X8179229Y-14827508D01*
X8179229Y-14827508D02*
X8188753Y-14837031D01*
X8188753Y-14837031D02*
X8198277Y-14856079D01*
X8198277Y-14856079D02*
X8207801Y-14894174D01*
X8207801Y-14894174D02*
X8207801Y-14941793D01*
X8207801Y-14941793D02*
X8198277Y-14979888D01*
X8198277Y-14979888D02*
X8188753Y-14998936D01*
X8188753Y-14998936D02*
X8179229Y-15008460D01*
X8179229Y-15008460D02*
X8160182Y-15017984D01*
X8160182Y-15017984D02*
X8141134Y-15017984D01*
X8141134Y-15017984D02*
X8122086Y-15008460D01*
X8122086Y-15008460D02*
X8112563Y-14998936D01*
X8112563Y-14998936D02*
X8103039Y-14979888D01*
X8103039Y-14979888D02*
X8093515Y-14941793D01*
X8093515Y-14941793D02*
X8093515Y-14894174D01*
X8093515Y-14894174D02*
X8103039Y-14856079D01*
X8103039Y-14856079D02*
X8112563Y-14837031D01*
X8112563Y-14837031D02*
X8122086Y-14827508D01*
X8122086Y-14827508D02*
X8141134Y-14817984D01*
X8293515Y-14998936D02*
X8303039Y-15008460D01*
X8303039Y-15008460D02*
X8293515Y-15017984D01*
X8293515Y-15017984D02*
X8283991Y-15008460D01*
X8283991Y-15008460D02*
X8293515Y-14998936D01*
X8293515Y-14998936D02*
X8293515Y-15017984D01*
X8426848Y-14817984D02*
X8445896Y-14817984D01*
X8445896Y-14817984D02*
X8464944Y-14827508D01*
X8464944Y-14827508D02*
X8474468Y-14837031D01*
X8474468Y-14837031D02*
X8483991Y-14856079D01*
X8483991Y-14856079D02*
X8493515Y-14894174D01*
X8493515Y-14894174D02*
X8493515Y-14941793D01*
X8493515Y-14941793D02*
X8483991Y-14979888D01*
X8483991Y-14979888D02*
X8474468Y-14998936D01*
X8474468Y-14998936D02*
X8464944Y-15008460D01*
X8464944Y-15008460D02*
X8445896Y-15017984D01*
X8445896Y-15017984D02*
X8426848Y-15017984D01*
X8426848Y-15017984D02*
X8407801Y-15008460D01*
X8407801Y-15008460D02*
X8398277Y-14998936D01*
X8398277Y-14998936D02*
X8388753Y-14979888D01*
X8388753Y-14979888D02*
X8379229Y-14941793D01*
X8379229Y-14941793D02*
X8379229Y-14894174D01*
X8379229Y-14894174D02*
X8388753Y-14856079D01*
X8388753Y-14856079D02*
X8398277Y-14837031D01*
X8398277Y-14837031D02*
X8407801Y-14827508D01*
X8407801Y-14827508D02*
X8426848Y-14817984D01*
X8560182Y-14817984D02*
X8693515Y-14817984D01*
X8693515Y-14817984D02*
X8607801Y-15017984D01*
X8807801Y-14817984D02*
X8826849Y-14817984D01*
X8826849Y-14817984D02*
X8845896Y-14827508D01*
X8845896Y-14827508D02*
X8855420Y-14837031D01*
X8855420Y-14837031D02*
X8864944Y-14856079D01*
X8864944Y-14856079D02*
X8874468Y-14894174D01*
X8874468Y-14894174D02*
X8874468Y-14941793D01*
X8874468Y-14941793D02*
X8864944Y-14979888D01*
X8864944Y-14979888D02*
X8855420Y-14998936D01*
X8855420Y-14998936D02*
X8845896Y-15008460D01*
X8845896Y-15008460D02*
X8826849Y-15017984D01*
X8826849Y-15017984D02*
X8807801Y-15017984D01*
X8807801Y-15017984D02*
X8788753Y-15008460D01*
X8788753Y-15008460D02*
X8779229Y-14998936D01*
X8779229Y-14998936D02*
X8769706Y-14979888D01*
X8769706Y-14979888D02*
X8760182Y-14941793D01*
X8760182Y-14941793D02*
X8760182Y-14894174D01*
X8760182Y-14894174D02*
X8769706Y-14856079D01*
X8769706Y-14856079D02*
X8779229Y-14837031D01*
X8779229Y-14837031D02*
X8788753Y-14827508D01*
X8788753Y-14827508D02*
X8807801Y-14817984D01*
X8969706Y-15017984D02*
X9007801Y-15017984D01*
X9007801Y-15017984D02*
X9026849Y-15008460D01*
X9026849Y-15008460D02*
X9036372Y-14998936D01*
X9036372Y-14998936D02*
X9055420Y-14970365D01*
X9055420Y-14970365D02*
X9064944Y-14932269D01*
X9064944Y-14932269D02*
X9064944Y-14856079D01*
X9064944Y-14856079D02*
X9055420Y-14837031D01*
X9055420Y-14837031D02*
X9045896Y-14827508D01*
X9045896Y-14827508D02*
X9026849Y-14817984D01*
X9026849Y-14817984D02*
X8988753Y-14817984D01*
X8988753Y-14817984D02*
X8969706Y-14827508D01*
X8969706Y-14827508D02*
X8960182Y-14837031D01*
X8960182Y-14837031D02*
X8950658Y-14856079D01*
X8950658Y-14856079D02*
X8950658Y-14903698D01*
X8950658Y-14903698D02*
X8960182Y-14922746D01*
X8960182Y-14922746D02*
X8969706Y-14932269D01*
X8969706Y-14932269D02*
X8988753Y-14941793D01*
X8988753Y-14941793D02*
X9026849Y-14941793D01*
X9026849Y-14941793D02*
X9045896Y-14932269D01*
X9045896Y-14932269D02*
X9055420Y-14922746D01*
X9055420Y-14922746D02*
X9064944Y-14903698D01*
X9141134Y-14817984D02*
X9141134Y-14856079D01*
X9217325Y-14817984D02*
X9217325Y-14856079D01*
X9512563Y-15094174D02*
X9503039Y-15084650D01*
X9503039Y-15084650D02*
X9483991Y-15056079D01*
X9483991Y-15056079D02*
X9474468Y-15037031D01*
X9474468Y-15037031D02*
X9464944Y-15008460D01*
X9464944Y-15008460D02*
X9455420Y-14960841D01*
X9455420Y-14960841D02*
X9455420Y-14922746D01*
X9455420Y-14922746D02*
X9464944Y-14875127D01*
X9464944Y-14875127D02*
X9474468Y-14846555D01*
X9474468Y-14846555D02*
X9483991Y-14827508D01*
X9483991Y-14827508D02*
X9503039Y-14798936D01*
X9503039Y-14798936D02*
X9512563Y-14789412D01*
X9674468Y-14884650D02*
X9674468Y-15017984D01*
X9626849Y-14808460D02*
X9579230Y-14951317D01*
X9579230Y-14951317D02*
X9703039Y-14951317D01*
X9931611Y-15017984D02*
X9931611Y-14817984D01*
X10017325Y-15017984D02*
X10017325Y-14913222D01*
X10017325Y-14913222D02*
X10007801Y-14894174D01*
X10007801Y-14894174D02*
X9988753Y-14884650D01*
X9988753Y-14884650D02*
X9960182Y-14884650D01*
X9960182Y-14884650D02*
X9941134Y-14894174D01*
X9941134Y-14894174D02*
X9931611Y-14903698D01*
X10141134Y-15017984D02*
X10122087Y-15008460D01*
X10122087Y-15008460D02*
X10112563Y-14998936D01*
X10112563Y-14998936D02*
X10103039Y-14979888D01*
X10103039Y-14979888D02*
X10103039Y-14922746D01*
X10103039Y-14922746D02*
X10112563Y-14903698D01*
X10112563Y-14903698D02*
X10122087Y-14894174D01*
X10122087Y-14894174D02*
X10141134Y-14884650D01*
X10141134Y-14884650D02*
X10169706Y-14884650D01*
X10169706Y-14884650D02*
X10188753Y-14894174D01*
X10188753Y-14894174D02*
X10198277Y-14903698D01*
X10198277Y-14903698D02*
X10207801Y-14922746D01*
X10207801Y-14922746D02*
X10207801Y-14979888D01*
X10207801Y-14979888D02*
X10198277Y-14998936D01*
X10198277Y-14998936D02*
X10188753Y-15008460D01*
X10188753Y-15008460D02*
X10169706Y-15017984D01*
X10169706Y-15017984D02*
X10141134Y-15017984D01*
X10322087Y-15017984D02*
X10303039Y-15008460D01*
X10303039Y-15008460D02*
X10293515Y-14989412D01*
X10293515Y-14989412D02*
X10293515Y-14817984D01*
X10474468Y-15008460D02*
X10455420Y-15017984D01*
X10455420Y-15017984D02*
X10417325Y-15017984D01*
X10417325Y-15017984D02*
X10398277Y-15008460D01*
X10398277Y-15008460D02*
X10388753Y-14989412D01*
X10388753Y-14989412D02*
X10388753Y-14913222D01*
X10388753Y-14913222D02*
X10398277Y-14894174D01*
X10398277Y-14894174D02*
X10417325Y-14884650D01*
X10417325Y-14884650D02*
X10455420Y-14884650D01*
X10455420Y-14884650D02*
X10474468Y-14894174D01*
X10474468Y-14894174D02*
X10483992Y-14913222D01*
X10483992Y-14913222D02*
X10483992Y-14932269D01*
X10483992Y-14932269D02*
X10388753Y-14951317D01*
X10560182Y-15008460D02*
X10579230Y-15017984D01*
X10579230Y-15017984D02*
X10617325Y-15017984D01*
X10617325Y-15017984D02*
X10636373Y-15008460D01*
X10636373Y-15008460D02*
X10645896Y-14989412D01*
X10645896Y-14989412D02*
X10645896Y-14979888D01*
X10645896Y-14979888D02*
X10636373Y-14960841D01*
X10636373Y-14960841D02*
X10617325Y-14951317D01*
X10617325Y-14951317D02*
X10588753Y-14951317D01*
X10588753Y-14951317D02*
X10569706Y-14941793D01*
X10569706Y-14941793D02*
X10560182Y-14922746D01*
X10560182Y-14922746D02*
X10560182Y-14913222D01*
X10560182Y-14913222D02*
X10569706Y-14894174D01*
X10569706Y-14894174D02*
X10588753Y-14884650D01*
X10588753Y-14884650D02*
X10617325Y-14884650D01*
X10617325Y-14884650D02*
X10636373Y-14894174D01*
X10712563Y-15094174D02*
X10722087Y-15084650D01*
X10722087Y-15084650D02*
X10741134Y-15056079D01*
X10741134Y-15056079D02*
X10750658Y-15037031D01*
X10750658Y-15037031D02*
X10760182Y-15008460D01*
X10760182Y-15008460D02*
X10769706Y-14960841D01*
X10769706Y-14960841D02*
X10769706Y-14922746D01*
X10769706Y-14922746D02*
X10760182Y-14875127D01*
X10760182Y-14875127D02*
X10750658Y-14846555D01*
X10750658Y-14846555D02*
X10741134Y-14827508D01*
X10741134Y-14827508D02*
X10722087Y-14798936D01*
X10722087Y-14798936D02*
X10712563Y-14789412D01*
M02*
