G04 #@! TF.GenerationSoftware,KiCad,Pcbnew,9.0.3*
G04 #@! TF.CreationDate,2026-01-25T15:38:05-06:00*
G04 #@! TF.ProjectId,DAQ_HAT,4441515f-4841-4542-9e6b-696361645f70,rev?*
G04 #@! TF.SameCoordinates,Original*
G04 #@! TF.FileFunction,Legend,Top*
G04 #@! TF.FilePolarity,Positive*
%FSLAX46Y46*%
G04 Gerber Fmt 4.6, Leading zero omitted, Abs format (unit mm)*
G04 Created by KiCad (PCBNEW 9.0.3) date 2026-01-25 15:38:05*
%MOMM*%
%LPD*%
G01*
G04 APERTURE LIST*
G04 Aperture macros list*
%AMRoundRect*
0 Rectangle with rounded corners*
0 $1 Rounding radius*
0 $2 $3 $4 $5 $6 $7 $8 $9 X,Y pos of 4 corners*
0 Add a 4 corners polygon primitive as box body*
4,1,4,$2,$3,$4,$5,$6,$7,$8,$9,$2,$3,0*
0 Add four circle primitives for the rounded corners*
1,1,$1+$1,$2,$3*
1,1,$1+$1,$4,$5*
1,1,$1+$1,$6,$7*
1,1,$1+$1,$8,$9*
0 Add four rect primitives between the rounded corners*
20,1,$1+$1,$2,$3,$4,$5,0*
20,1,$1+$1,$4,$5,$6,$7,0*
20,1,$1+$1,$6,$7,$8,$9,0*
20,1,$1+$1,$8,$9,$2,$3,0*%
G04 Aperture macros list end*
%ADD10C,0.100000*%
%ADD11C,0.365671*%
%ADD12C,0.200000*%
%ADD13C,0.125000*%
%ADD14C,0.150000*%
%ADD15C,0.120000*%
%ADD16C,0.152400*%
%ADD17C,2.200000*%
%ADD18C,5.300000*%
%ADD19RoundRect,0.200000X-0.275000X0.200000X-0.275000X-0.200000X0.275000X-0.200000X0.275000X0.200000X0*%
%ADD20RoundRect,0.250000X-0.850000X-0.350000X0.850000X-0.350000X0.850000X0.350000X-0.850000X0.350000X0*%
%ADD21RoundRect,0.249997X-2.950003X-2.650003X2.950003X-2.650003X2.950003X2.650003X-2.950003X2.650003X0*%
%ADD22RoundRect,0.250000X-0.625000X0.312500X-0.625000X-0.312500X0.625000X-0.312500X0.625000X0.312500X0*%
%ADD23RoundRect,0.200000X-0.200000X-0.275000X0.200000X-0.275000X0.200000X0.275000X-0.200000X0.275000X0*%
%ADD24R,0.508000X0.508000*%
%ADD25R,1.700000X1.700000*%
%ADD26C,1.700000*%
%ADD27RoundRect,0.250000X0.325000X0.650000X-0.325000X0.650000X-0.325000X-0.650000X0.325000X-0.650000X0*%
%ADD28RoundRect,0.225000X0.225000X0.250000X-0.225000X0.250000X-0.225000X-0.250000X0.225000X-0.250000X0*%
%ADD29RoundRect,0.102000X0.754000X0.754000X-0.754000X0.754000X-0.754000X-0.754000X0.754000X-0.754000X0*%
%ADD30C,1.712000*%
%ADD31RoundRect,0.102000X-0.754000X-0.754000X0.754000X-0.754000X0.754000X0.754000X-0.754000X0.754000X0*%
G04 APERTURE END LIST*
D10*
X262431533Y-147760133D02*
G75*
G02*
X260568467Y-147760133I-931533J0D01*
G01*
X260568467Y-147760133D02*
G75*
G02*
X262431533Y-147760133I931533J0D01*
G01*
D11*
X261682835Y-147760133D02*
G75*
G02*
X261317165Y-147760133I-182835J0D01*
G01*
X261317165Y-147760133D02*
G75*
G02*
X261682835Y-147760133I182835J0D01*
G01*
D10*
X191453884Y-77141466D02*
X192215789Y-77141466D01*
X191834836Y-77522419D02*
X191834836Y-76760514D01*
X211801503Y-107122419D02*
X211991979Y-107122419D01*
X211991979Y-107122419D02*
X212087217Y-107074800D01*
X212087217Y-107074800D02*
X212134836Y-107027180D01*
X212134836Y-107027180D02*
X212230074Y-106884323D01*
X212230074Y-106884323D02*
X212277693Y-106693847D01*
X212277693Y-106693847D02*
X212277693Y-106312895D01*
X212277693Y-106312895D02*
X212230074Y-106217657D01*
X212230074Y-106217657D02*
X212182455Y-106170038D01*
X212182455Y-106170038D02*
X212087217Y-106122419D01*
X212087217Y-106122419D02*
X211896741Y-106122419D01*
X211896741Y-106122419D02*
X211801503Y-106170038D01*
X211801503Y-106170038D02*
X211753884Y-106217657D01*
X211753884Y-106217657D02*
X211706265Y-106312895D01*
X211706265Y-106312895D02*
X211706265Y-106550990D01*
X211706265Y-106550990D02*
X211753884Y-106646228D01*
X211753884Y-106646228D02*
X211801503Y-106693847D01*
X211801503Y-106693847D02*
X211896741Y-106741466D01*
X211896741Y-106741466D02*
X212087217Y-106741466D01*
X212087217Y-106741466D02*
X212182455Y-106693847D01*
X212182455Y-106693847D02*
X212230074Y-106646228D01*
X212230074Y-106646228D02*
X212277693Y-106550990D01*
X212563408Y-106122419D02*
X212896741Y-107122419D01*
X212896741Y-107122419D02*
X213230074Y-106122419D01*
X243531265Y-132174800D02*
X243674122Y-132222419D01*
X243674122Y-132222419D02*
X243912217Y-132222419D01*
X243912217Y-132222419D02*
X244007455Y-132174800D01*
X244007455Y-132174800D02*
X244055074Y-132127180D01*
X244055074Y-132127180D02*
X244102693Y-132031942D01*
X244102693Y-132031942D02*
X244102693Y-131936704D01*
X244102693Y-131936704D02*
X244055074Y-131841466D01*
X244055074Y-131841466D02*
X244007455Y-131793847D01*
X244007455Y-131793847D02*
X243912217Y-131746228D01*
X243912217Y-131746228D02*
X243721741Y-131698609D01*
X243721741Y-131698609D02*
X243626503Y-131650990D01*
X243626503Y-131650990D02*
X243578884Y-131603371D01*
X243578884Y-131603371D02*
X243531265Y-131508133D01*
X243531265Y-131508133D02*
X243531265Y-131412895D01*
X243531265Y-131412895D02*
X243578884Y-131317657D01*
X243578884Y-131317657D02*
X243626503Y-131270038D01*
X243626503Y-131270038D02*
X243721741Y-131222419D01*
X243721741Y-131222419D02*
X243959836Y-131222419D01*
X243959836Y-131222419D02*
X244102693Y-131270038D01*
X244531265Y-132222419D02*
X244531265Y-131555752D01*
X244531265Y-131222419D02*
X244483646Y-131270038D01*
X244483646Y-131270038D02*
X244531265Y-131317657D01*
X244531265Y-131317657D02*
X244578884Y-131270038D01*
X244578884Y-131270038D02*
X244531265Y-131222419D01*
X244531265Y-131222419D02*
X244531265Y-131317657D01*
X245436026Y-131555752D02*
X245436026Y-132365276D01*
X245436026Y-132365276D02*
X245388407Y-132460514D01*
X245388407Y-132460514D02*
X245340788Y-132508133D01*
X245340788Y-132508133D02*
X245245550Y-132555752D01*
X245245550Y-132555752D02*
X245102693Y-132555752D01*
X245102693Y-132555752D02*
X245007455Y-132508133D01*
X245436026Y-132174800D02*
X245340788Y-132222419D01*
X245340788Y-132222419D02*
X245150312Y-132222419D01*
X245150312Y-132222419D02*
X245055074Y-132174800D01*
X245055074Y-132174800D02*
X245007455Y-132127180D01*
X245007455Y-132127180D02*
X244959836Y-132031942D01*
X244959836Y-132031942D02*
X244959836Y-131746228D01*
X244959836Y-131746228D02*
X245007455Y-131650990D01*
X245007455Y-131650990D02*
X245055074Y-131603371D01*
X245055074Y-131603371D02*
X245150312Y-131555752D01*
X245150312Y-131555752D02*
X245340788Y-131555752D01*
X245340788Y-131555752D02*
X245436026Y-131603371D01*
X173611027Y-151912475D02*
X173944360Y-152912475D01*
X173944360Y-152912475D02*
X174277693Y-151912475D01*
X174611027Y-152388665D02*
X174944360Y-152388665D01*
X175087217Y-152912475D02*
X174611027Y-152912475D01*
X174611027Y-152912475D02*
X174611027Y-151912475D01*
X174611027Y-151912475D02*
X175087217Y-151912475D01*
X175420551Y-152912475D02*
X175944360Y-152245808D01*
X175420551Y-152245808D02*
X175944360Y-152912475D01*
X176753884Y-152864856D02*
X176658646Y-152912475D01*
X176658646Y-152912475D02*
X176468170Y-152912475D01*
X176468170Y-152912475D02*
X176372932Y-152864856D01*
X176372932Y-152864856D02*
X176325313Y-152817236D01*
X176325313Y-152817236D02*
X176277694Y-152721998D01*
X176277694Y-152721998D02*
X176277694Y-152436284D01*
X176277694Y-152436284D02*
X176325313Y-152341046D01*
X176325313Y-152341046D02*
X176372932Y-152293427D01*
X176372932Y-152293427D02*
X176468170Y-152245808D01*
X176468170Y-152245808D02*
X176658646Y-152245808D01*
X176658646Y-152245808D02*
X176753884Y-152293427D01*
X175563408Y-154903371D02*
X175515789Y-154855752D01*
X175515789Y-154855752D02*
X175420551Y-154712895D01*
X175420551Y-154712895D02*
X175372932Y-154617657D01*
X175372932Y-154617657D02*
X175325313Y-154474800D01*
X175325313Y-154474800D02*
X175277694Y-154236704D01*
X175277694Y-154236704D02*
X175277694Y-154046228D01*
X175277694Y-154046228D02*
X175325313Y-153808133D01*
X175325313Y-153808133D02*
X175372932Y-153665276D01*
X175372932Y-153665276D02*
X175420551Y-153570038D01*
X175420551Y-153570038D02*
X175515789Y-153427180D01*
X175515789Y-153427180D02*
X175563408Y-153379561D01*
X175991980Y-154522419D02*
X176182456Y-154522419D01*
X176182456Y-154522419D02*
X176277694Y-154474800D01*
X176277694Y-154474800D02*
X176325313Y-154427180D01*
X176325313Y-154427180D02*
X176420551Y-154284323D01*
X176420551Y-154284323D02*
X176468170Y-154093847D01*
X176468170Y-154093847D02*
X176468170Y-153712895D01*
X176468170Y-153712895D02*
X176420551Y-153617657D01*
X176420551Y-153617657D02*
X176372932Y-153570038D01*
X176372932Y-153570038D02*
X176277694Y-153522419D01*
X176277694Y-153522419D02*
X176087218Y-153522419D01*
X176087218Y-153522419D02*
X175991980Y-153570038D01*
X175991980Y-153570038D02*
X175944361Y-153617657D01*
X175944361Y-153617657D02*
X175896742Y-153712895D01*
X175896742Y-153712895D02*
X175896742Y-153950990D01*
X175896742Y-153950990D02*
X175944361Y-154046228D01*
X175944361Y-154046228D02*
X175991980Y-154093847D01*
X175991980Y-154093847D02*
X176087218Y-154141466D01*
X176087218Y-154141466D02*
X176277694Y-154141466D01*
X176277694Y-154141466D02*
X176372932Y-154093847D01*
X176372932Y-154093847D02*
X176420551Y-154046228D01*
X176420551Y-154046228D02*
X176468170Y-153950990D01*
X176753885Y-153522419D02*
X177087218Y-154522419D01*
X177087218Y-154522419D02*
X177420551Y-153522419D01*
X177658647Y-154903371D02*
X177706266Y-154855752D01*
X177706266Y-154855752D02*
X177801504Y-154712895D01*
X177801504Y-154712895D02*
X177849123Y-154617657D01*
X177849123Y-154617657D02*
X177896742Y-154474800D01*
X177896742Y-154474800D02*
X177944361Y-154236704D01*
X177944361Y-154236704D02*
X177944361Y-154046228D01*
X177944361Y-154046228D02*
X177896742Y-153808133D01*
X177896742Y-153808133D02*
X177849123Y-153665276D01*
X177849123Y-153665276D02*
X177801504Y-153570038D01*
X177801504Y-153570038D02*
X177706266Y-153427180D01*
X177706266Y-153427180D02*
X177658647Y-153379561D01*
X253911027Y-100312475D02*
X254244360Y-101312475D01*
X254244360Y-101312475D02*
X254577693Y-100312475D01*
X254911027Y-100788665D02*
X255244360Y-100788665D01*
X255387217Y-101312475D02*
X254911027Y-101312475D01*
X254911027Y-101312475D02*
X254911027Y-100312475D01*
X254911027Y-100312475D02*
X255387217Y-100312475D01*
X255720551Y-101312475D02*
X256244360Y-100645808D01*
X255720551Y-100645808D02*
X256244360Y-101312475D01*
X257053884Y-101264856D02*
X256958646Y-101312475D01*
X256958646Y-101312475D02*
X256768170Y-101312475D01*
X256768170Y-101312475D02*
X256672932Y-101264856D01*
X256672932Y-101264856D02*
X256625313Y-101217236D01*
X256625313Y-101217236D02*
X256577694Y-101121998D01*
X256577694Y-101121998D02*
X256577694Y-100836284D01*
X256577694Y-100836284D02*
X256625313Y-100741046D01*
X256625313Y-100741046D02*
X256672932Y-100693427D01*
X256672932Y-100693427D02*
X256768170Y-100645808D01*
X256768170Y-100645808D02*
X256958646Y-100645808D01*
X256958646Y-100645808D02*
X257053884Y-100693427D01*
X255101503Y-103303371D02*
X255053884Y-103255752D01*
X255053884Y-103255752D02*
X254958646Y-103112895D01*
X254958646Y-103112895D02*
X254911027Y-103017657D01*
X254911027Y-103017657D02*
X254863408Y-102874800D01*
X254863408Y-102874800D02*
X254815789Y-102636704D01*
X254815789Y-102636704D02*
X254815789Y-102446228D01*
X254815789Y-102446228D02*
X254863408Y-102208133D01*
X254863408Y-102208133D02*
X254911027Y-102065276D01*
X254911027Y-102065276D02*
X254958646Y-101970038D01*
X254958646Y-101970038D02*
X255053884Y-101827180D01*
X255053884Y-101827180D02*
X255101503Y-101779561D01*
X255530075Y-102922419D02*
X255720551Y-102922419D01*
X255720551Y-102922419D02*
X255815789Y-102874800D01*
X255815789Y-102874800D02*
X255863408Y-102827180D01*
X255863408Y-102827180D02*
X255958646Y-102684323D01*
X255958646Y-102684323D02*
X256006265Y-102493847D01*
X256006265Y-102493847D02*
X256006265Y-102112895D01*
X256006265Y-102112895D02*
X255958646Y-102017657D01*
X255958646Y-102017657D02*
X255911027Y-101970038D01*
X255911027Y-101970038D02*
X255815789Y-101922419D01*
X255815789Y-101922419D02*
X255625313Y-101922419D01*
X255625313Y-101922419D02*
X255530075Y-101970038D01*
X255530075Y-101970038D02*
X255482456Y-102017657D01*
X255482456Y-102017657D02*
X255434837Y-102112895D01*
X255434837Y-102112895D02*
X255434837Y-102350990D01*
X255434837Y-102350990D02*
X255482456Y-102446228D01*
X255482456Y-102446228D02*
X255530075Y-102493847D01*
X255530075Y-102493847D02*
X255625313Y-102541466D01*
X255625313Y-102541466D02*
X255815789Y-102541466D01*
X255815789Y-102541466D02*
X255911027Y-102493847D01*
X255911027Y-102493847D02*
X255958646Y-102446228D01*
X255958646Y-102446228D02*
X256006265Y-102350990D01*
X256291980Y-101922419D02*
X256625313Y-102922419D01*
X256625313Y-102922419D02*
X256958646Y-101922419D01*
X257196742Y-103303371D02*
X257244361Y-103255752D01*
X257244361Y-103255752D02*
X257339599Y-103112895D01*
X257339599Y-103112895D02*
X257387218Y-103017657D01*
X257387218Y-103017657D02*
X257434837Y-102874800D01*
X257434837Y-102874800D02*
X257482456Y-102636704D01*
X257482456Y-102636704D02*
X257482456Y-102446228D01*
X257482456Y-102446228D02*
X257434837Y-102208133D01*
X257434837Y-102208133D02*
X257387218Y-102065276D01*
X257387218Y-102065276D02*
X257339599Y-101970038D01*
X257339599Y-101970038D02*
X257244361Y-101827180D01*
X257244361Y-101827180D02*
X257196742Y-101779561D01*
X246806265Y-101499800D02*
X246949122Y-101547419D01*
X246949122Y-101547419D02*
X247187217Y-101547419D01*
X247187217Y-101547419D02*
X247282455Y-101499800D01*
X247282455Y-101499800D02*
X247330074Y-101452180D01*
X247330074Y-101452180D02*
X247377693Y-101356942D01*
X247377693Y-101356942D02*
X247377693Y-101261704D01*
X247377693Y-101261704D02*
X247330074Y-101166466D01*
X247330074Y-101166466D02*
X247282455Y-101118847D01*
X247282455Y-101118847D02*
X247187217Y-101071228D01*
X247187217Y-101071228D02*
X246996741Y-101023609D01*
X246996741Y-101023609D02*
X246901503Y-100975990D01*
X246901503Y-100975990D02*
X246853884Y-100928371D01*
X246853884Y-100928371D02*
X246806265Y-100833133D01*
X246806265Y-100833133D02*
X246806265Y-100737895D01*
X246806265Y-100737895D02*
X246853884Y-100642657D01*
X246853884Y-100642657D02*
X246901503Y-100595038D01*
X246901503Y-100595038D02*
X246996741Y-100547419D01*
X246996741Y-100547419D02*
X247234836Y-100547419D01*
X247234836Y-100547419D02*
X247377693Y-100595038D01*
X247806265Y-101547419D02*
X247806265Y-100880752D01*
X247806265Y-100547419D02*
X247758646Y-100595038D01*
X247758646Y-100595038D02*
X247806265Y-100642657D01*
X247806265Y-100642657D02*
X247853884Y-100595038D01*
X247853884Y-100595038D02*
X247806265Y-100547419D01*
X247806265Y-100547419D02*
X247806265Y-100642657D01*
X248711026Y-100880752D02*
X248711026Y-101690276D01*
X248711026Y-101690276D02*
X248663407Y-101785514D01*
X248663407Y-101785514D02*
X248615788Y-101833133D01*
X248615788Y-101833133D02*
X248520550Y-101880752D01*
X248520550Y-101880752D02*
X248377693Y-101880752D01*
X248377693Y-101880752D02*
X248282455Y-101833133D01*
X248711026Y-101499800D02*
X248615788Y-101547419D01*
X248615788Y-101547419D02*
X248425312Y-101547419D01*
X248425312Y-101547419D02*
X248330074Y-101499800D01*
X248330074Y-101499800D02*
X248282455Y-101452180D01*
X248282455Y-101452180D02*
X248234836Y-101356942D01*
X248234836Y-101356942D02*
X248234836Y-101071228D01*
X248234836Y-101071228D02*
X248282455Y-100975990D01*
X248282455Y-100975990D02*
X248330074Y-100928371D01*
X248330074Y-100928371D02*
X248425312Y-100880752D01*
X248425312Y-100880752D02*
X248615788Y-100880752D01*
X248615788Y-100880752D02*
X248711026Y-100928371D01*
X183402693Y-122345038D02*
X183307455Y-122297419D01*
X183307455Y-122297419D02*
X183164598Y-122297419D01*
X183164598Y-122297419D02*
X183021741Y-122345038D01*
X183021741Y-122345038D02*
X182926503Y-122440276D01*
X182926503Y-122440276D02*
X182878884Y-122535514D01*
X182878884Y-122535514D02*
X182831265Y-122725990D01*
X182831265Y-122725990D02*
X182831265Y-122868847D01*
X182831265Y-122868847D02*
X182878884Y-123059323D01*
X182878884Y-123059323D02*
X182926503Y-123154561D01*
X182926503Y-123154561D02*
X183021741Y-123249800D01*
X183021741Y-123249800D02*
X183164598Y-123297419D01*
X183164598Y-123297419D02*
X183259836Y-123297419D01*
X183259836Y-123297419D02*
X183402693Y-123249800D01*
X183402693Y-123249800D02*
X183450312Y-123202180D01*
X183450312Y-123202180D02*
X183450312Y-122868847D01*
X183450312Y-122868847D02*
X183259836Y-122868847D01*
X183878884Y-123297419D02*
X183878884Y-122297419D01*
X183878884Y-122297419D02*
X184450312Y-123297419D01*
X184450312Y-123297419D02*
X184450312Y-122297419D01*
X184926503Y-123297419D02*
X184926503Y-122297419D01*
X184926503Y-122297419D02*
X185164598Y-122297419D01*
X185164598Y-122297419D02*
X185307455Y-122345038D01*
X185307455Y-122345038D02*
X185402693Y-122440276D01*
X185402693Y-122440276D02*
X185450312Y-122535514D01*
X185450312Y-122535514D02*
X185497931Y-122725990D01*
X185497931Y-122725990D02*
X185497931Y-122868847D01*
X185497931Y-122868847D02*
X185450312Y-123059323D01*
X185450312Y-123059323D02*
X185402693Y-123154561D01*
X185402693Y-123154561D02*
X185307455Y-123249800D01*
X185307455Y-123249800D02*
X185164598Y-123297419D01*
X185164598Y-123297419D02*
X184926503Y-123297419D01*
X242152693Y-73817419D02*
X241581265Y-73817419D01*
X241866979Y-73817419D02*
X241866979Y-72817419D01*
X241866979Y-72817419D02*
X241771741Y-72960276D01*
X241771741Y-72960276D02*
X241676503Y-73055514D01*
X241676503Y-73055514D02*
X241581265Y-73103133D01*
X243105074Y-73817419D02*
X242533646Y-73817419D01*
X242819360Y-73817419D02*
X242819360Y-72817419D01*
X242819360Y-72817419D02*
X242724122Y-72960276D01*
X242724122Y-72960276D02*
X242628884Y-73055514D01*
X242628884Y-73055514D02*
X242533646Y-73103133D01*
X243533646Y-73722180D02*
X243581265Y-73769800D01*
X243581265Y-73769800D02*
X243533646Y-73817419D01*
X243533646Y-73817419D02*
X243486027Y-73769800D01*
X243486027Y-73769800D02*
X243533646Y-73722180D01*
X243533646Y-73722180D02*
X243533646Y-73817419D01*
X244533645Y-73817419D02*
X243962217Y-73817419D01*
X244247931Y-73817419D02*
X244247931Y-72817419D01*
X244247931Y-72817419D02*
X244152693Y-72960276D01*
X244152693Y-72960276D02*
X244057455Y-73055514D01*
X244057455Y-73055514D02*
X243962217Y-73103133D01*
X244819360Y-72817419D02*
X245152693Y-73817419D01*
X245152693Y-73817419D02*
X245486026Y-72817419D01*
X190352693Y-168770038D02*
X190257455Y-168722419D01*
X190257455Y-168722419D02*
X190114598Y-168722419D01*
X190114598Y-168722419D02*
X189971741Y-168770038D01*
X189971741Y-168770038D02*
X189876503Y-168865276D01*
X189876503Y-168865276D02*
X189828884Y-168960514D01*
X189828884Y-168960514D02*
X189781265Y-169150990D01*
X189781265Y-169150990D02*
X189781265Y-169293847D01*
X189781265Y-169293847D02*
X189828884Y-169484323D01*
X189828884Y-169484323D02*
X189876503Y-169579561D01*
X189876503Y-169579561D02*
X189971741Y-169674800D01*
X189971741Y-169674800D02*
X190114598Y-169722419D01*
X190114598Y-169722419D02*
X190209836Y-169722419D01*
X190209836Y-169722419D02*
X190352693Y-169674800D01*
X190352693Y-169674800D02*
X190400312Y-169627180D01*
X190400312Y-169627180D02*
X190400312Y-169293847D01*
X190400312Y-169293847D02*
X190209836Y-169293847D01*
X190828884Y-169722419D02*
X190828884Y-168722419D01*
X190828884Y-168722419D02*
X191400312Y-169722419D01*
X191400312Y-169722419D02*
X191400312Y-168722419D01*
X191876503Y-169722419D02*
X191876503Y-168722419D01*
X191876503Y-168722419D02*
X192114598Y-168722419D01*
X192114598Y-168722419D02*
X192257455Y-168770038D01*
X192257455Y-168770038D02*
X192352693Y-168865276D01*
X192352693Y-168865276D02*
X192400312Y-168960514D01*
X192400312Y-168960514D02*
X192447931Y-169150990D01*
X192447931Y-169150990D02*
X192447931Y-169293847D01*
X192447931Y-169293847D02*
X192400312Y-169484323D01*
X192400312Y-169484323D02*
X192352693Y-169579561D01*
X192352693Y-169579561D02*
X192257455Y-169674800D01*
X192257455Y-169674800D02*
X192114598Y-169722419D01*
X192114598Y-169722419D02*
X191876503Y-169722419D01*
X184177693Y-97920038D02*
X184082455Y-97872419D01*
X184082455Y-97872419D02*
X183939598Y-97872419D01*
X183939598Y-97872419D02*
X183796741Y-97920038D01*
X183796741Y-97920038D02*
X183701503Y-98015276D01*
X183701503Y-98015276D02*
X183653884Y-98110514D01*
X183653884Y-98110514D02*
X183606265Y-98300990D01*
X183606265Y-98300990D02*
X183606265Y-98443847D01*
X183606265Y-98443847D02*
X183653884Y-98634323D01*
X183653884Y-98634323D02*
X183701503Y-98729561D01*
X183701503Y-98729561D02*
X183796741Y-98824800D01*
X183796741Y-98824800D02*
X183939598Y-98872419D01*
X183939598Y-98872419D02*
X184034836Y-98872419D01*
X184034836Y-98872419D02*
X184177693Y-98824800D01*
X184177693Y-98824800D02*
X184225312Y-98777180D01*
X184225312Y-98777180D02*
X184225312Y-98443847D01*
X184225312Y-98443847D02*
X184034836Y-98443847D01*
X184653884Y-98872419D02*
X184653884Y-97872419D01*
X184653884Y-97872419D02*
X185225312Y-98872419D01*
X185225312Y-98872419D02*
X185225312Y-97872419D01*
X185701503Y-98872419D02*
X185701503Y-97872419D01*
X185701503Y-97872419D02*
X185939598Y-97872419D01*
X185939598Y-97872419D02*
X186082455Y-97920038D01*
X186082455Y-97920038D02*
X186177693Y-98015276D01*
X186177693Y-98015276D02*
X186225312Y-98110514D01*
X186225312Y-98110514D02*
X186272931Y-98300990D01*
X186272931Y-98300990D02*
X186272931Y-98443847D01*
X186272931Y-98443847D02*
X186225312Y-98634323D01*
X186225312Y-98634323D02*
X186177693Y-98729561D01*
X186177693Y-98729561D02*
X186082455Y-98824800D01*
X186082455Y-98824800D02*
X185939598Y-98872419D01*
X185939598Y-98872419D02*
X185701503Y-98872419D01*
D12*
X244639911Y-92092219D02*
X244163720Y-92092219D01*
X244163720Y-92092219D02*
X244288720Y-91092219D01*
X245038721Y-91568409D02*
X245372054Y-91568409D01*
X245449435Y-92092219D02*
X244973244Y-92092219D01*
X244973244Y-92092219D02*
X245098244Y-91092219D01*
X245098244Y-91092219D02*
X245574435Y-91092219D01*
X246461340Y-91996980D02*
X246407768Y-92044600D01*
X246407768Y-92044600D02*
X246258959Y-92092219D01*
X246258959Y-92092219D02*
X246163721Y-92092219D01*
X246163721Y-92092219D02*
X246026816Y-92044600D01*
X246026816Y-92044600D02*
X245943483Y-91949361D01*
X245943483Y-91949361D02*
X245907768Y-91854123D01*
X245907768Y-91854123D02*
X245883959Y-91663647D01*
X245883959Y-91663647D02*
X245901816Y-91520790D01*
X245901816Y-91520790D02*
X245973244Y-91330314D01*
X245973244Y-91330314D02*
X246032768Y-91235076D01*
X246032768Y-91235076D02*
X246139911Y-91139838D01*
X246139911Y-91139838D02*
X246288721Y-91092219D01*
X246288721Y-91092219D02*
X246383959Y-91092219D01*
X246383959Y-91092219D02*
X246520864Y-91139838D01*
X246520864Y-91139838D02*
X246562530Y-91187457D01*
X248223245Y-91996980D02*
X248169673Y-92044600D01*
X248169673Y-92044600D02*
X248020864Y-92092219D01*
X248020864Y-92092219D02*
X247925626Y-92092219D01*
X247925626Y-92092219D02*
X247788721Y-92044600D01*
X247788721Y-92044600D02*
X247705388Y-91949361D01*
X247705388Y-91949361D02*
X247669673Y-91854123D01*
X247669673Y-91854123D02*
X247645864Y-91663647D01*
X247645864Y-91663647D02*
X247663721Y-91520790D01*
X247663721Y-91520790D02*
X247735149Y-91330314D01*
X247735149Y-91330314D02*
X247794673Y-91235076D01*
X247794673Y-91235076D02*
X247901816Y-91139838D01*
X247901816Y-91139838D02*
X248050626Y-91092219D01*
X248050626Y-91092219D02*
X248145864Y-91092219D01*
X248145864Y-91092219D02*
X248282769Y-91139838D01*
X248282769Y-91139838D02*
X248324435Y-91187457D01*
X248782769Y-92092219D02*
X248693483Y-92044600D01*
X248693483Y-92044600D02*
X248651816Y-91996980D01*
X248651816Y-91996980D02*
X248616102Y-91901742D01*
X248616102Y-91901742D02*
X248651816Y-91616028D01*
X248651816Y-91616028D02*
X248711340Y-91520790D01*
X248711340Y-91520790D02*
X248764911Y-91473171D01*
X248764911Y-91473171D02*
X248866102Y-91425552D01*
X248866102Y-91425552D02*
X249008959Y-91425552D01*
X249008959Y-91425552D02*
X249098245Y-91473171D01*
X249098245Y-91473171D02*
X249139911Y-91520790D01*
X249139911Y-91520790D02*
X249175626Y-91616028D01*
X249175626Y-91616028D02*
X249139911Y-91901742D01*
X249139911Y-91901742D02*
X249080388Y-91996980D01*
X249080388Y-91996980D02*
X249026816Y-92044600D01*
X249026816Y-92044600D02*
X248925626Y-92092219D01*
X248925626Y-92092219D02*
X248782769Y-92092219D01*
X249628007Y-91425552D02*
X249544673Y-92092219D01*
X249616102Y-91520790D02*
X249669673Y-91473171D01*
X249669673Y-91473171D02*
X249770864Y-91425552D01*
X249770864Y-91425552D02*
X249913721Y-91425552D01*
X249913721Y-91425552D02*
X250003007Y-91473171D01*
X250003007Y-91473171D02*
X250038721Y-91568409D01*
X250038721Y-91568409D02*
X249973245Y-92092219D01*
X250532769Y-91425552D02*
X250449435Y-92092219D01*
X250520864Y-91520790D02*
X250574435Y-91473171D01*
X250574435Y-91473171D02*
X250675626Y-91425552D01*
X250675626Y-91425552D02*
X250818483Y-91425552D01*
X250818483Y-91425552D02*
X250907769Y-91473171D01*
X250907769Y-91473171D02*
X250943483Y-91568409D01*
X250943483Y-91568409D02*
X250878007Y-92092219D01*
X251741102Y-92044600D02*
X251639912Y-92092219D01*
X251639912Y-92092219D02*
X251449435Y-92092219D01*
X251449435Y-92092219D02*
X251360150Y-92044600D01*
X251360150Y-92044600D02*
X251324435Y-91949361D01*
X251324435Y-91949361D02*
X251372055Y-91568409D01*
X251372055Y-91568409D02*
X251431578Y-91473171D01*
X251431578Y-91473171D02*
X251532769Y-91425552D01*
X251532769Y-91425552D02*
X251723245Y-91425552D01*
X251723245Y-91425552D02*
X251812531Y-91473171D01*
X251812531Y-91473171D02*
X251848245Y-91568409D01*
X251848245Y-91568409D02*
X251836340Y-91663647D01*
X251836340Y-91663647D02*
X251348245Y-91758885D01*
X252645864Y-92044600D02*
X252544674Y-92092219D01*
X252544674Y-92092219D02*
X252354198Y-92092219D01*
X252354198Y-92092219D02*
X252264912Y-92044600D01*
X252264912Y-92044600D02*
X252223245Y-91996980D01*
X252223245Y-91996980D02*
X252187531Y-91901742D01*
X252187531Y-91901742D02*
X252223245Y-91616028D01*
X252223245Y-91616028D02*
X252282769Y-91520790D01*
X252282769Y-91520790D02*
X252336340Y-91473171D01*
X252336340Y-91473171D02*
X252437531Y-91425552D01*
X252437531Y-91425552D02*
X252628007Y-91425552D01*
X252628007Y-91425552D02*
X252717293Y-91473171D01*
X253008960Y-91425552D02*
X253389912Y-91425552D01*
X253193483Y-91092219D02*
X253086341Y-91949361D01*
X253086341Y-91949361D02*
X253122055Y-92044600D01*
X253122055Y-92044600D02*
X253211341Y-92092219D01*
X253211341Y-92092219D02*
X253306579Y-92092219D01*
X253782770Y-92092219D02*
X253693484Y-92044600D01*
X253693484Y-92044600D02*
X253651817Y-91996980D01*
X253651817Y-91996980D02*
X253616103Y-91901742D01*
X253616103Y-91901742D02*
X253651817Y-91616028D01*
X253651817Y-91616028D02*
X253711341Y-91520790D01*
X253711341Y-91520790D02*
X253764912Y-91473171D01*
X253764912Y-91473171D02*
X253866103Y-91425552D01*
X253866103Y-91425552D02*
X254008960Y-91425552D01*
X254008960Y-91425552D02*
X254098246Y-91473171D01*
X254098246Y-91473171D02*
X254139912Y-91520790D01*
X254139912Y-91520790D02*
X254175627Y-91616028D01*
X254175627Y-91616028D02*
X254139912Y-91901742D01*
X254139912Y-91901742D02*
X254080389Y-91996980D01*
X254080389Y-91996980D02*
X254026817Y-92044600D01*
X254026817Y-92044600D02*
X253925627Y-92092219D01*
X253925627Y-92092219D02*
X253782770Y-92092219D01*
X254544674Y-92092219D02*
X254628008Y-91425552D01*
X254604198Y-91616028D02*
X254663722Y-91520790D01*
X254663722Y-91520790D02*
X254717293Y-91473171D01*
X254717293Y-91473171D02*
X254818484Y-91425552D01*
X254818484Y-91425552D02*
X254913722Y-91425552D01*
D10*
X179678884Y-87041466D02*
X180440789Y-87041466D01*
X238578884Y-86597419D02*
X238578884Y-85597419D01*
X238578884Y-85597419D02*
X238912217Y-86311704D01*
X238912217Y-86311704D02*
X239245550Y-85597419D01*
X239245550Y-85597419D02*
X239245550Y-86597419D01*
X239721741Y-86597419D02*
X239721741Y-85597419D01*
X240150312Y-86549800D02*
X240293169Y-86597419D01*
X240293169Y-86597419D02*
X240531264Y-86597419D01*
X240531264Y-86597419D02*
X240626502Y-86549800D01*
X240626502Y-86549800D02*
X240674121Y-86502180D01*
X240674121Y-86502180D02*
X240721740Y-86406942D01*
X240721740Y-86406942D02*
X240721740Y-86311704D01*
X240721740Y-86311704D02*
X240674121Y-86216466D01*
X240674121Y-86216466D02*
X240626502Y-86168847D01*
X240626502Y-86168847D02*
X240531264Y-86121228D01*
X240531264Y-86121228D02*
X240340788Y-86073609D01*
X240340788Y-86073609D02*
X240245550Y-86025990D01*
X240245550Y-86025990D02*
X240197931Y-85978371D01*
X240197931Y-85978371D02*
X240150312Y-85883133D01*
X240150312Y-85883133D02*
X240150312Y-85787895D01*
X240150312Y-85787895D02*
X240197931Y-85692657D01*
X240197931Y-85692657D02*
X240245550Y-85645038D01*
X240245550Y-85645038D02*
X240340788Y-85597419D01*
X240340788Y-85597419D02*
X240578883Y-85597419D01*
X240578883Y-85597419D02*
X240721740Y-85645038D01*
X241340788Y-85597419D02*
X241531264Y-85597419D01*
X241531264Y-85597419D02*
X241626502Y-85645038D01*
X241626502Y-85645038D02*
X241721740Y-85740276D01*
X241721740Y-85740276D02*
X241769359Y-85930752D01*
X241769359Y-85930752D02*
X241769359Y-86264085D01*
X241769359Y-86264085D02*
X241721740Y-86454561D01*
X241721740Y-86454561D02*
X241626502Y-86549800D01*
X241626502Y-86549800D02*
X241531264Y-86597419D01*
X241531264Y-86597419D02*
X241340788Y-86597419D01*
X241340788Y-86597419D02*
X241245550Y-86549800D01*
X241245550Y-86549800D02*
X241150312Y-86454561D01*
X241150312Y-86454561D02*
X241102693Y-86264085D01*
X241102693Y-86264085D02*
X241102693Y-85930752D01*
X241102693Y-85930752D02*
X241150312Y-85740276D01*
X241150312Y-85740276D02*
X241245550Y-85645038D01*
X241245550Y-85645038D02*
X241340788Y-85597419D01*
X242816979Y-85597419D02*
X243388407Y-85597419D01*
X243102693Y-86597419D02*
X243102693Y-85597419D01*
X244293169Y-86502180D02*
X244245550Y-86549800D01*
X244245550Y-86549800D02*
X244102693Y-86597419D01*
X244102693Y-86597419D02*
X244007455Y-86597419D01*
X244007455Y-86597419D02*
X243864598Y-86549800D01*
X243864598Y-86549800D02*
X243769360Y-86454561D01*
X243769360Y-86454561D02*
X243721741Y-86359323D01*
X243721741Y-86359323D02*
X243674122Y-86168847D01*
X243674122Y-86168847D02*
X243674122Y-86025990D01*
X243674122Y-86025990D02*
X243721741Y-85835514D01*
X243721741Y-85835514D02*
X243769360Y-85740276D01*
X243769360Y-85740276D02*
X243864598Y-85645038D01*
X243864598Y-85645038D02*
X244007455Y-85597419D01*
X244007455Y-85597419D02*
X244102693Y-85597419D01*
X244102693Y-85597419D02*
X244245550Y-85645038D01*
X244245550Y-85645038D02*
X244293169Y-85692657D01*
X244721741Y-86597419D02*
X244721741Y-85597419D01*
X245769359Y-86502180D02*
X245721740Y-86549800D01*
X245721740Y-86549800D02*
X245578883Y-86597419D01*
X245578883Y-86597419D02*
X245483645Y-86597419D01*
X245483645Y-86597419D02*
X245340788Y-86549800D01*
X245340788Y-86549800D02*
X245245550Y-86454561D01*
X245245550Y-86454561D02*
X245197931Y-86359323D01*
X245197931Y-86359323D02*
X245150312Y-86168847D01*
X245150312Y-86168847D02*
X245150312Y-86025990D01*
X245150312Y-86025990D02*
X245197931Y-85835514D01*
X245197931Y-85835514D02*
X245245550Y-85740276D01*
X245245550Y-85740276D02*
X245340788Y-85645038D01*
X245340788Y-85645038D02*
X245483645Y-85597419D01*
X245483645Y-85597419D02*
X245578883Y-85597419D01*
X245578883Y-85597419D02*
X245721740Y-85645038D01*
X245721740Y-85645038D02*
X245769359Y-85692657D01*
X180877693Y-147270038D02*
X180782455Y-147222419D01*
X180782455Y-147222419D02*
X180639598Y-147222419D01*
X180639598Y-147222419D02*
X180496741Y-147270038D01*
X180496741Y-147270038D02*
X180401503Y-147365276D01*
X180401503Y-147365276D02*
X180353884Y-147460514D01*
X180353884Y-147460514D02*
X180306265Y-147650990D01*
X180306265Y-147650990D02*
X180306265Y-147793847D01*
X180306265Y-147793847D02*
X180353884Y-147984323D01*
X180353884Y-147984323D02*
X180401503Y-148079561D01*
X180401503Y-148079561D02*
X180496741Y-148174800D01*
X180496741Y-148174800D02*
X180639598Y-148222419D01*
X180639598Y-148222419D02*
X180734836Y-148222419D01*
X180734836Y-148222419D02*
X180877693Y-148174800D01*
X180877693Y-148174800D02*
X180925312Y-148127180D01*
X180925312Y-148127180D02*
X180925312Y-147793847D01*
X180925312Y-147793847D02*
X180734836Y-147793847D01*
X181353884Y-148222419D02*
X181353884Y-147222419D01*
X181353884Y-147222419D02*
X181925312Y-148222419D01*
X181925312Y-148222419D02*
X181925312Y-147222419D01*
X182401503Y-148222419D02*
X182401503Y-147222419D01*
X182401503Y-147222419D02*
X182639598Y-147222419D01*
X182639598Y-147222419D02*
X182782455Y-147270038D01*
X182782455Y-147270038D02*
X182877693Y-147365276D01*
X182877693Y-147365276D02*
X182925312Y-147460514D01*
X182925312Y-147460514D02*
X182972931Y-147650990D01*
X182972931Y-147650990D02*
X182972931Y-147793847D01*
X182972931Y-147793847D02*
X182925312Y-147984323D01*
X182925312Y-147984323D02*
X182877693Y-148079561D01*
X182877693Y-148079561D02*
X182782455Y-148174800D01*
X182782455Y-148174800D02*
X182639598Y-148222419D01*
X182639598Y-148222419D02*
X182401503Y-148222419D01*
X176061027Y-102937475D02*
X176394360Y-103937475D01*
X176394360Y-103937475D02*
X176727693Y-102937475D01*
X177061027Y-103413665D02*
X177394360Y-103413665D01*
X177537217Y-103937475D02*
X177061027Y-103937475D01*
X177061027Y-103937475D02*
X177061027Y-102937475D01*
X177061027Y-102937475D02*
X177537217Y-102937475D01*
X177870551Y-103937475D02*
X178394360Y-103270808D01*
X177870551Y-103270808D02*
X178394360Y-103937475D01*
X179203884Y-103889856D02*
X179108646Y-103937475D01*
X179108646Y-103937475D02*
X178918170Y-103937475D01*
X178918170Y-103937475D02*
X178822932Y-103889856D01*
X178822932Y-103889856D02*
X178775313Y-103842236D01*
X178775313Y-103842236D02*
X178727694Y-103746998D01*
X178727694Y-103746998D02*
X178727694Y-103461284D01*
X178727694Y-103461284D02*
X178775313Y-103366046D01*
X178775313Y-103366046D02*
X178822932Y-103318427D01*
X178822932Y-103318427D02*
X178918170Y-103270808D01*
X178918170Y-103270808D02*
X179108646Y-103270808D01*
X179108646Y-103270808D02*
X179203884Y-103318427D01*
X178013408Y-105928371D02*
X177965789Y-105880752D01*
X177965789Y-105880752D02*
X177870551Y-105737895D01*
X177870551Y-105737895D02*
X177822932Y-105642657D01*
X177822932Y-105642657D02*
X177775313Y-105499800D01*
X177775313Y-105499800D02*
X177727694Y-105261704D01*
X177727694Y-105261704D02*
X177727694Y-105071228D01*
X177727694Y-105071228D02*
X177775313Y-104833133D01*
X177775313Y-104833133D02*
X177822932Y-104690276D01*
X177822932Y-104690276D02*
X177870551Y-104595038D01*
X177870551Y-104595038D02*
X177965789Y-104452180D01*
X177965789Y-104452180D02*
X178013408Y-104404561D01*
X178441980Y-105547419D02*
X178632456Y-105547419D01*
X178632456Y-105547419D02*
X178727694Y-105499800D01*
X178727694Y-105499800D02*
X178775313Y-105452180D01*
X178775313Y-105452180D02*
X178870551Y-105309323D01*
X178870551Y-105309323D02*
X178918170Y-105118847D01*
X178918170Y-105118847D02*
X178918170Y-104737895D01*
X178918170Y-104737895D02*
X178870551Y-104642657D01*
X178870551Y-104642657D02*
X178822932Y-104595038D01*
X178822932Y-104595038D02*
X178727694Y-104547419D01*
X178727694Y-104547419D02*
X178537218Y-104547419D01*
X178537218Y-104547419D02*
X178441980Y-104595038D01*
X178441980Y-104595038D02*
X178394361Y-104642657D01*
X178394361Y-104642657D02*
X178346742Y-104737895D01*
X178346742Y-104737895D02*
X178346742Y-104975990D01*
X178346742Y-104975990D02*
X178394361Y-105071228D01*
X178394361Y-105071228D02*
X178441980Y-105118847D01*
X178441980Y-105118847D02*
X178537218Y-105166466D01*
X178537218Y-105166466D02*
X178727694Y-105166466D01*
X178727694Y-105166466D02*
X178822932Y-105118847D01*
X178822932Y-105118847D02*
X178870551Y-105071228D01*
X178870551Y-105071228D02*
X178918170Y-104975990D01*
X179203885Y-104547419D02*
X179537218Y-105547419D01*
X179537218Y-105547419D02*
X179870551Y-104547419D01*
X180108647Y-105928371D02*
X180156266Y-105880752D01*
X180156266Y-105880752D02*
X180251504Y-105737895D01*
X180251504Y-105737895D02*
X180299123Y-105642657D01*
X180299123Y-105642657D02*
X180346742Y-105499800D01*
X180346742Y-105499800D02*
X180394361Y-105261704D01*
X180394361Y-105261704D02*
X180394361Y-105071228D01*
X180394361Y-105071228D02*
X180346742Y-104833133D01*
X180346742Y-104833133D02*
X180299123Y-104690276D01*
X180299123Y-104690276D02*
X180251504Y-104595038D01*
X180251504Y-104595038D02*
X180156266Y-104452180D01*
X180156266Y-104452180D02*
X180108647Y-104404561D01*
X261481265Y-117999800D02*
X261624122Y-118047419D01*
X261624122Y-118047419D02*
X261862217Y-118047419D01*
X261862217Y-118047419D02*
X261957455Y-117999800D01*
X261957455Y-117999800D02*
X262005074Y-117952180D01*
X262005074Y-117952180D02*
X262052693Y-117856942D01*
X262052693Y-117856942D02*
X262052693Y-117761704D01*
X262052693Y-117761704D02*
X262005074Y-117666466D01*
X262005074Y-117666466D02*
X261957455Y-117618847D01*
X261957455Y-117618847D02*
X261862217Y-117571228D01*
X261862217Y-117571228D02*
X261671741Y-117523609D01*
X261671741Y-117523609D02*
X261576503Y-117475990D01*
X261576503Y-117475990D02*
X261528884Y-117428371D01*
X261528884Y-117428371D02*
X261481265Y-117333133D01*
X261481265Y-117333133D02*
X261481265Y-117237895D01*
X261481265Y-117237895D02*
X261528884Y-117142657D01*
X261528884Y-117142657D02*
X261576503Y-117095038D01*
X261576503Y-117095038D02*
X261671741Y-117047419D01*
X261671741Y-117047419D02*
X261909836Y-117047419D01*
X261909836Y-117047419D02*
X262052693Y-117095038D01*
X262481265Y-118047419D02*
X262481265Y-117380752D01*
X262481265Y-117047419D02*
X262433646Y-117095038D01*
X262433646Y-117095038D02*
X262481265Y-117142657D01*
X262481265Y-117142657D02*
X262528884Y-117095038D01*
X262528884Y-117095038D02*
X262481265Y-117047419D01*
X262481265Y-117047419D02*
X262481265Y-117142657D01*
X263386026Y-117380752D02*
X263386026Y-118190276D01*
X263386026Y-118190276D02*
X263338407Y-118285514D01*
X263338407Y-118285514D02*
X263290788Y-118333133D01*
X263290788Y-118333133D02*
X263195550Y-118380752D01*
X263195550Y-118380752D02*
X263052693Y-118380752D01*
X263052693Y-118380752D02*
X262957455Y-118333133D01*
X263386026Y-117999800D02*
X263290788Y-118047419D01*
X263290788Y-118047419D02*
X263100312Y-118047419D01*
X263100312Y-118047419D02*
X263005074Y-117999800D01*
X263005074Y-117999800D02*
X262957455Y-117952180D01*
X262957455Y-117952180D02*
X262909836Y-117856942D01*
X262909836Y-117856942D02*
X262909836Y-117571228D01*
X262909836Y-117571228D02*
X262957455Y-117475990D01*
X262957455Y-117475990D02*
X263005074Y-117428371D01*
X263005074Y-117428371D02*
X263100312Y-117380752D01*
X263100312Y-117380752D02*
X263290788Y-117380752D01*
X263290788Y-117380752D02*
X263386026Y-117428371D01*
X184406265Y-129424800D02*
X184549122Y-129472419D01*
X184549122Y-129472419D02*
X184787217Y-129472419D01*
X184787217Y-129472419D02*
X184882455Y-129424800D01*
X184882455Y-129424800D02*
X184930074Y-129377180D01*
X184930074Y-129377180D02*
X184977693Y-129281942D01*
X184977693Y-129281942D02*
X184977693Y-129186704D01*
X184977693Y-129186704D02*
X184930074Y-129091466D01*
X184930074Y-129091466D02*
X184882455Y-129043847D01*
X184882455Y-129043847D02*
X184787217Y-128996228D01*
X184787217Y-128996228D02*
X184596741Y-128948609D01*
X184596741Y-128948609D02*
X184501503Y-128900990D01*
X184501503Y-128900990D02*
X184453884Y-128853371D01*
X184453884Y-128853371D02*
X184406265Y-128758133D01*
X184406265Y-128758133D02*
X184406265Y-128662895D01*
X184406265Y-128662895D02*
X184453884Y-128567657D01*
X184453884Y-128567657D02*
X184501503Y-128520038D01*
X184501503Y-128520038D02*
X184596741Y-128472419D01*
X184596741Y-128472419D02*
X184834836Y-128472419D01*
X184834836Y-128472419D02*
X184977693Y-128520038D01*
X185406265Y-129472419D02*
X185406265Y-128805752D01*
X185406265Y-128472419D02*
X185358646Y-128520038D01*
X185358646Y-128520038D02*
X185406265Y-128567657D01*
X185406265Y-128567657D02*
X185453884Y-128520038D01*
X185453884Y-128520038D02*
X185406265Y-128472419D01*
X185406265Y-128472419D02*
X185406265Y-128567657D01*
X186311026Y-128805752D02*
X186311026Y-129615276D01*
X186311026Y-129615276D02*
X186263407Y-129710514D01*
X186263407Y-129710514D02*
X186215788Y-129758133D01*
X186215788Y-129758133D02*
X186120550Y-129805752D01*
X186120550Y-129805752D02*
X185977693Y-129805752D01*
X185977693Y-129805752D02*
X185882455Y-129758133D01*
X186311026Y-129424800D02*
X186215788Y-129472419D01*
X186215788Y-129472419D02*
X186025312Y-129472419D01*
X186025312Y-129472419D02*
X185930074Y-129424800D01*
X185930074Y-129424800D02*
X185882455Y-129377180D01*
X185882455Y-129377180D02*
X185834836Y-129281942D01*
X185834836Y-129281942D02*
X185834836Y-128996228D01*
X185834836Y-128996228D02*
X185882455Y-128900990D01*
X185882455Y-128900990D02*
X185930074Y-128853371D01*
X185930074Y-128853371D02*
X186025312Y-128805752D01*
X186025312Y-128805752D02*
X186215788Y-128805752D01*
X186215788Y-128805752D02*
X186311026Y-128853371D01*
X253003884Y-76422419D02*
X253003884Y-75422419D01*
X253003884Y-75422419D02*
X253337217Y-76136704D01*
X253337217Y-76136704D02*
X253670550Y-75422419D01*
X253670550Y-75422419D02*
X253670550Y-76422419D01*
X254146741Y-76422419D02*
X254146741Y-75422419D01*
X254575312Y-76374800D02*
X254718169Y-76422419D01*
X254718169Y-76422419D02*
X254956264Y-76422419D01*
X254956264Y-76422419D02*
X255051502Y-76374800D01*
X255051502Y-76374800D02*
X255099121Y-76327180D01*
X255099121Y-76327180D02*
X255146740Y-76231942D01*
X255146740Y-76231942D02*
X255146740Y-76136704D01*
X255146740Y-76136704D02*
X255099121Y-76041466D01*
X255099121Y-76041466D02*
X255051502Y-75993847D01*
X255051502Y-75993847D02*
X254956264Y-75946228D01*
X254956264Y-75946228D02*
X254765788Y-75898609D01*
X254765788Y-75898609D02*
X254670550Y-75850990D01*
X254670550Y-75850990D02*
X254622931Y-75803371D01*
X254622931Y-75803371D02*
X254575312Y-75708133D01*
X254575312Y-75708133D02*
X254575312Y-75612895D01*
X254575312Y-75612895D02*
X254622931Y-75517657D01*
X254622931Y-75517657D02*
X254670550Y-75470038D01*
X254670550Y-75470038D02*
X254765788Y-75422419D01*
X254765788Y-75422419D02*
X255003883Y-75422419D01*
X255003883Y-75422419D02*
X255146740Y-75470038D01*
X255765788Y-75422419D02*
X255956264Y-75422419D01*
X255956264Y-75422419D02*
X256051502Y-75470038D01*
X256051502Y-75470038D02*
X256146740Y-75565276D01*
X256146740Y-75565276D02*
X256194359Y-75755752D01*
X256194359Y-75755752D02*
X256194359Y-76089085D01*
X256194359Y-76089085D02*
X256146740Y-76279561D01*
X256146740Y-76279561D02*
X256051502Y-76374800D01*
X256051502Y-76374800D02*
X255956264Y-76422419D01*
X255956264Y-76422419D02*
X255765788Y-76422419D01*
X255765788Y-76422419D02*
X255670550Y-76374800D01*
X255670550Y-76374800D02*
X255575312Y-76279561D01*
X255575312Y-76279561D02*
X255527693Y-76089085D01*
X255527693Y-76089085D02*
X255527693Y-75755752D01*
X255527693Y-75755752D02*
X255575312Y-75565276D01*
X255575312Y-75565276D02*
X255670550Y-75470038D01*
X255670550Y-75470038D02*
X255765788Y-75422419D01*
X257337217Y-76136704D02*
X257813407Y-76136704D01*
X257241979Y-76422419D02*
X257575312Y-75422419D01*
X257575312Y-75422419D02*
X257908645Y-76422419D01*
X258241979Y-76422419D02*
X258241979Y-75422419D01*
X258241979Y-75422419D02*
X258480074Y-75422419D01*
X258480074Y-75422419D02*
X258622931Y-75470038D01*
X258622931Y-75470038D02*
X258718169Y-75565276D01*
X258718169Y-75565276D02*
X258765788Y-75660514D01*
X258765788Y-75660514D02*
X258813407Y-75850990D01*
X258813407Y-75850990D02*
X258813407Y-75993847D01*
X258813407Y-75993847D02*
X258765788Y-76184323D01*
X258765788Y-76184323D02*
X258718169Y-76279561D01*
X258718169Y-76279561D02*
X258622931Y-76374800D01*
X258622931Y-76374800D02*
X258480074Y-76422419D01*
X258480074Y-76422419D02*
X258241979Y-76422419D01*
X259813407Y-76327180D02*
X259765788Y-76374800D01*
X259765788Y-76374800D02*
X259622931Y-76422419D01*
X259622931Y-76422419D02*
X259527693Y-76422419D01*
X259527693Y-76422419D02*
X259384836Y-76374800D01*
X259384836Y-76374800D02*
X259289598Y-76279561D01*
X259289598Y-76279561D02*
X259241979Y-76184323D01*
X259241979Y-76184323D02*
X259194360Y-75993847D01*
X259194360Y-75993847D02*
X259194360Y-75850990D01*
X259194360Y-75850990D02*
X259241979Y-75660514D01*
X259241979Y-75660514D02*
X259289598Y-75565276D01*
X259289598Y-75565276D02*
X259384836Y-75470038D01*
X259384836Y-75470038D02*
X259527693Y-75422419D01*
X259527693Y-75422419D02*
X259622931Y-75422419D01*
X259622931Y-75422419D02*
X259765788Y-75470038D01*
X259765788Y-75470038D02*
X259813407Y-75517657D01*
X183553884Y-77241466D02*
X184315789Y-77241466D01*
D13*
X248103664Y-147647309D02*
X247770331Y-147647309D01*
X247770331Y-148171119D02*
X247770331Y-147171119D01*
X247770331Y-147171119D02*
X248246521Y-147171119D01*
X248770331Y-148171119D02*
X248675093Y-148123500D01*
X248675093Y-148123500D02*
X248627474Y-148028261D01*
X248627474Y-148028261D02*
X248627474Y-147171119D01*
X249294141Y-148171119D02*
X249198903Y-148123500D01*
X249198903Y-148123500D02*
X249151284Y-148075880D01*
X249151284Y-148075880D02*
X249103665Y-147980642D01*
X249103665Y-147980642D02*
X249103665Y-147694928D01*
X249103665Y-147694928D02*
X249151284Y-147599690D01*
X249151284Y-147599690D02*
X249198903Y-147552071D01*
X249198903Y-147552071D02*
X249294141Y-147504452D01*
X249294141Y-147504452D02*
X249436998Y-147504452D01*
X249436998Y-147504452D02*
X249532236Y-147552071D01*
X249532236Y-147552071D02*
X249579855Y-147599690D01*
X249579855Y-147599690D02*
X249627474Y-147694928D01*
X249627474Y-147694928D02*
X249627474Y-147980642D01*
X249627474Y-147980642D02*
X249579855Y-148075880D01*
X249579855Y-148075880D02*
X249532236Y-148123500D01*
X249532236Y-148123500D02*
X249436998Y-148171119D01*
X249436998Y-148171119D02*
X249294141Y-148171119D01*
X249960808Y-147504452D02*
X250151284Y-148171119D01*
X250151284Y-148171119D02*
X250341760Y-147694928D01*
X250341760Y-147694928D02*
X250532236Y-148171119D01*
X250532236Y-148171119D02*
X250722712Y-147504452D01*
X251865570Y-148171119D02*
X251865570Y-147171119D01*
X251865570Y-147171119D02*
X252103665Y-147171119D01*
X252103665Y-147171119D02*
X252246522Y-147218738D01*
X252246522Y-147218738D02*
X252341760Y-147313976D01*
X252341760Y-147313976D02*
X252389379Y-147409214D01*
X252389379Y-147409214D02*
X252436998Y-147599690D01*
X252436998Y-147599690D02*
X252436998Y-147742547D01*
X252436998Y-147742547D02*
X252389379Y-147933023D01*
X252389379Y-147933023D02*
X252341760Y-148028261D01*
X252341760Y-148028261D02*
X252246522Y-148123500D01*
X252246522Y-148123500D02*
X252103665Y-148171119D01*
X252103665Y-148171119D02*
X251865570Y-148171119D01*
X252865570Y-148171119D02*
X252865570Y-147504452D01*
X252865570Y-147171119D02*
X252817951Y-147218738D01*
X252817951Y-147218738D02*
X252865570Y-147266357D01*
X252865570Y-147266357D02*
X252913189Y-147218738D01*
X252913189Y-147218738D02*
X252865570Y-147171119D01*
X252865570Y-147171119D02*
X252865570Y-147266357D01*
X253341760Y-148171119D02*
X253341760Y-147504452D01*
X253341760Y-147694928D02*
X253389379Y-147599690D01*
X253389379Y-147599690D02*
X253436998Y-147552071D01*
X253436998Y-147552071D02*
X253532236Y-147504452D01*
X253532236Y-147504452D02*
X253627474Y-147504452D01*
X254341760Y-148123500D02*
X254246522Y-148171119D01*
X254246522Y-148171119D02*
X254056046Y-148171119D01*
X254056046Y-148171119D02*
X253960808Y-148123500D01*
X253960808Y-148123500D02*
X253913189Y-148028261D01*
X253913189Y-148028261D02*
X253913189Y-147647309D01*
X253913189Y-147647309D02*
X253960808Y-147552071D01*
X253960808Y-147552071D02*
X254056046Y-147504452D01*
X254056046Y-147504452D02*
X254246522Y-147504452D01*
X254246522Y-147504452D02*
X254341760Y-147552071D01*
X254341760Y-147552071D02*
X254389379Y-147647309D01*
X254389379Y-147647309D02*
X254389379Y-147742547D01*
X254389379Y-147742547D02*
X253913189Y-147837785D01*
X255246522Y-148123500D02*
X255151284Y-148171119D01*
X255151284Y-148171119D02*
X254960808Y-148171119D01*
X254960808Y-148171119D02*
X254865570Y-148123500D01*
X254865570Y-148123500D02*
X254817951Y-148075880D01*
X254817951Y-148075880D02*
X254770332Y-147980642D01*
X254770332Y-147980642D02*
X254770332Y-147694928D01*
X254770332Y-147694928D02*
X254817951Y-147599690D01*
X254817951Y-147599690D02*
X254865570Y-147552071D01*
X254865570Y-147552071D02*
X254960808Y-147504452D01*
X254960808Y-147504452D02*
X255151284Y-147504452D01*
X255151284Y-147504452D02*
X255246522Y-147552071D01*
X255532237Y-147504452D02*
X255913189Y-147504452D01*
X255675094Y-147171119D02*
X255675094Y-148028261D01*
X255675094Y-148028261D02*
X255722713Y-148123500D01*
X255722713Y-148123500D02*
X255817951Y-148171119D01*
X255817951Y-148171119D02*
X255913189Y-148171119D01*
X256246523Y-148171119D02*
X256246523Y-147504452D01*
X256246523Y-147171119D02*
X256198904Y-147218738D01*
X256198904Y-147218738D02*
X256246523Y-147266357D01*
X256246523Y-147266357D02*
X256294142Y-147218738D01*
X256294142Y-147218738D02*
X256246523Y-147171119D01*
X256246523Y-147171119D02*
X256246523Y-147266357D01*
X256865570Y-148171119D02*
X256770332Y-148123500D01*
X256770332Y-148123500D02*
X256722713Y-148075880D01*
X256722713Y-148075880D02*
X256675094Y-147980642D01*
X256675094Y-147980642D02*
X256675094Y-147694928D01*
X256675094Y-147694928D02*
X256722713Y-147599690D01*
X256722713Y-147599690D02*
X256770332Y-147552071D01*
X256770332Y-147552071D02*
X256865570Y-147504452D01*
X256865570Y-147504452D02*
X257008427Y-147504452D01*
X257008427Y-147504452D02*
X257103665Y-147552071D01*
X257103665Y-147552071D02*
X257151284Y-147599690D01*
X257151284Y-147599690D02*
X257198903Y-147694928D01*
X257198903Y-147694928D02*
X257198903Y-147980642D01*
X257198903Y-147980642D02*
X257151284Y-148075880D01*
X257151284Y-148075880D02*
X257103665Y-148123500D01*
X257103665Y-148123500D02*
X257008427Y-148171119D01*
X257008427Y-148171119D02*
X256865570Y-148171119D01*
X257627475Y-147504452D02*
X257627475Y-148171119D01*
X257627475Y-147599690D02*
X257675094Y-147552071D01*
X257675094Y-147552071D02*
X257770332Y-147504452D01*
X257770332Y-147504452D02*
X257913189Y-147504452D01*
X257913189Y-147504452D02*
X258008427Y-147552071D01*
X258008427Y-147552071D02*
X258056046Y-147647309D01*
X258056046Y-147647309D02*
X258056046Y-148171119D01*
X258532237Y-148075880D02*
X258579856Y-148123500D01*
X258579856Y-148123500D02*
X258532237Y-148171119D01*
X258532237Y-148171119D02*
X258484618Y-148123500D01*
X258484618Y-148123500D02*
X258532237Y-148075880D01*
X258532237Y-148075880D02*
X258532237Y-148171119D01*
X258532237Y-147552071D02*
X258579856Y-147599690D01*
X258579856Y-147599690D02*
X258532237Y-147647309D01*
X258532237Y-147647309D02*
X258484618Y-147599690D01*
X258484618Y-147599690D02*
X258532237Y-147552071D01*
X258532237Y-147552071D02*
X258532237Y-147647309D01*
D12*
X191254197Y-178942219D02*
X191444673Y-178942219D01*
X191444673Y-178942219D02*
X191533958Y-178989838D01*
X191533958Y-178989838D02*
X191617292Y-179085076D01*
X191617292Y-179085076D02*
X191641101Y-179275552D01*
X191641101Y-179275552D02*
X191599435Y-179608885D01*
X191599435Y-179608885D02*
X191528006Y-179799361D01*
X191528006Y-179799361D02*
X191420863Y-179894600D01*
X191420863Y-179894600D02*
X191319673Y-179942219D01*
X191319673Y-179942219D02*
X191129197Y-179942219D01*
X191129197Y-179942219D02*
X191039911Y-179894600D01*
X191039911Y-179894600D02*
X190956578Y-179799361D01*
X190956578Y-179799361D02*
X190932768Y-179608885D01*
X190932768Y-179608885D02*
X190974435Y-179275552D01*
X190974435Y-179275552D02*
X191045863Y-179085076D01*
X191045863Y-179085076D02*
X191153006Y-178989838D01*
X191153006Y-178989838D02*
X191254197Y-178942219D01*
X191891101Y-179942219D02*
X192498244Y-179275552D01*
X191974435Y-179275552D02*
X192414911Y-179942219D01*
X193986340Y-179942219D02*
X194111340Y-178942219D01*
X193992292Y-179894600D02*
X193891102Y-179942219D01*
X193891102Y-179942219D02*
X193700626Y-179942219D01*
X193700626Y-179942219D02*
X193611340Y-179894600D01*
X193611340Y-179894600D02*
X193569673Y-179846980D01*
X193569673Y-179846980D02*
X193533959Y-179751742D01*
X193533959Y-179751742D02*
X193569673Y-179466028D01*
X193569673Y-179466028D02*
X193629197Y-179370790D01*
X193629197Y-179370790D02*
X193682768Y-179323171D01*
X193682768Y-179323171D02*
X193783959Y-179275552D01*
X193783959Y-179275552D02*
X193974435Y-179275552D01*
X193974435Y-179275552D02*
X194063721Y-179323171D01*
X194462530Y-179942219D02*
X194587530Y-178942219D01*
X194587530Y-178942219D02*
X194968483Y-178942219D01*
X194968483Y-178942219D02*
X195057768Y-178989838D01*
X195057768Y-178989838D02*
X195099435Y-179037457D01*
X195099435Y-179037457D02*
X195135149Y-179132695D01*
X195135149Y-179132695D02*
X195117292Y-179275552D01*
X195117292Y-179275552D02*
X195057768Y-179370790D01*
X195057768Y-179370790D02*
X195004197Y-179418409D01*
X195004197Y-179418409D02*
X194903007Y-179466028D01*
X194903007Y-179466028D02*
X194522054Y-179466028D01*
X195444673Y-178942219D02*
X196016102Y-178942219D01*
X195605388Y-179942219D02*
X195730388Y-178942219D01*
D10*
X252981265Y-78849800D02*
X253124122Y-78897419D01*
X253124122Y-78897419D02*
X253362217Y-78897419D01*
X253362217Y-78897419D02*
X253457455Y-78849800D01*
X253457455Y-78849800D02*
X253505074Y-78802180D01*
X253505074Y-78802180D02*
X253552693Y-78706942D01*
X253552693Y-78706942D02*
X253552693Y-78611704D01*
X253552693Y-78611704D02*
X253505074Y-78516466D01*
X253505074Y-78516466D02*
X253457455Y-78468847D01*
X253457455Y-78468847D02*
X253362217Y-78421228D01*
X253362217Y-78421228D02*
X253171741Y-78373609D01*
X253171741Y-78373609D02*
X253076503Y-78325990D01*
X253076503Y-78325990D02*
X253028884Y-78278371D01*
X253028884Y-78278371D02*
X252981265Y-78183133D01*
X252981265Y-78183133D02*
X252981265Y-78087895D01*
X252981265Y-78087895D02*
X253028884Y-77992657D01*
X253028884Y-77992657D02*
X253076503Y-77945038D01*
X253076503Y-77945038D02*
X253171741Y-77897419D01*
X253171741Y-77897419D02*
X253409836Y-77897419D01*
X253409836Y-77897419D02*
X253552693Y-77945038D01*
X254552693Y-78802180D02*
X254505074Y-78849800D01*
X254505074Y-78849800D02*
X254362217Y-78897419D01*
X254362217Y-78897419D02*
X254266979Y-78897419D01*
X254266979Y-78897419D02*
X254124122Y-78849800D01*
X254124122Y-78849800D02*
X254028884Y-78754561D01*
X254028884Y-78754561D02*
X253981265Y-78659323D01*
X253981265Y-78659323D02*
X253933646Y-78468847D01*
X253933646Y-78468847D02*
X253933646Y-78325990D01*
X253933646Y-78325990D02*
X253981265Y-78135514D01*
X253981265Y-78135514D02*
X254028884Y-78040276D01*
X254028884Y-78040276D02*
X254124122Y-77945038D01*
X254124122Y-77945038D02*
X254266979Y-77897419D01*
X254266979Y-77897419D02*
X254362217Y-77897419D01*
X254362217Y-77897419D02*
X254505074Y-77945038D01*
X254505074Y-77945038D02*
X254552693Y-77992657D01*
X254981265Y-78897419D02*
X254981265Y-77897419D01*
X255552693Y-78897419D02*
X255124122Y-78325990D01*
X255552693Y-77897419D02*
X254981265Y-78468847D01*
X256695551Y-78611704D02*
X257171741Y-78611704D01*
X256600313Y-78897419D02*
X256933646Y-77897419D01*
X256933646Y-77897419D02*
X257266979Y-78897419D01*
X257600313Y-78897419D02*
X257600313Y-77897419D01*
X257600313Y-77897419D02*
X257838408Y-77897419D01*
X257838408Y-77897419D02*
X257981265Y-77945038D01*
X257981265Y-77945038D02*
X258076503Y-78040276D01*
X258076503Y-78040276D02*
X258124122Y-78135514D01*
X258124122Y-78135514D02*
X258171741Y-78325990D01*
X258171741Y-78325990D02*
X258171741Y-78468847D01*
X258171741Y-78468847D02*
X258124122Y-78659323D01*
X258124122Y-78659323D02*
X258076503Y-78754561D01*
X258076503Y-78754561D02*
X257981265Y-78849800D01*
X257981265Y-78849800D02*
X257838408Y-78897419D01*
X257838408Y-78897419D02*
X257600313Y-78897419D01*
X259171741Y-78802180D02*
X259124122Y-78849800D01*
X259124122Y-78849800D02*
X258981265Y-78897419D01*
X258981265Y-78897419D02*
X258886027Y-78897419D01*
X258886027Y-78897419D02*
X258743170Y-78849800D01*
X258743170Y-78849800D02*
X258647932Y-78754561D01*
X258647932Y-78754561D02*
X258600313Y-78659323D01*
X258600313Y-78659323D02*
X258552694Y-78468847D01*
X258552694Y-78468847D02*
X258552694Y-78325990D01*
X258552694Y-78325990D02*
X258600313Y-78135514D01*
X258600313Y-78135514D02*
X258647932Y-78040276D01*
X258647932Y-78040276D02*
X258743170Y-77945038D01*
X258743170Y-77945038D02*
X258886027Y-77897419D01*
X258886027Y-77897419D02*
X258981265Y-77897419D01*
X258981265Y-77897419D02*
X259124122Y-77945038D01*
X259124122Y-77945038D02*
X259171741Y-77992657D01*
D12*
X176287530Y-133593409D02*
X175954197Y-133593409D01*
X175888720Y-134117219D02*
X176013720Y-133117219D01*
X176013720Y-133117219D02*
X176489911Y-133117219D01*
X177257768Y-133450552D02*
X177174435Y-134117219D01*
X176829197Y-133450552D02*
X176763721Y-133974361D01*
X176763721Y-133974361D02*
X176799435Y-134069600D01*
X176799435Y-134069600D02*
X176888721Y-134117219D01*
X176888721Y-134117219D02*
X177031578Y-134117219D01*
X177031578Y-134117219D02*
X177132768Y-134069600D01*
X177132768Y-134069600D02*
X177186340Y-134021980D01*
X178037530Y-134069600D02*
X177936340Y-134117219D01*
X177936340Y-134117219D02*
X177745863Y-134117219D01*
X177745863Y-134117219D02*
X177656578Y-134069600D01*
X177656578Y-134069600D02*
X177620863Y-133974361D01*
X177620863Y-133974361D02*
X177668483Y-133593409D01*
X177668483Y-133593409D02*
X177728006Y-133498171D01*
X177728006Y-133498171D02*
X177829197Y-133450552D01*
X177829197Y-133450552D02*
X178019673Y-133450552D01*
X178019673Y-133450552D02*
X178108959Y-133498171D01*
X178108959Y-133498171D02*
X178144673Y-133593409D01*
X178144673Y-133593409D02*
X178132768Y-133688647D01*
X178132768Y-133688647D02*
X177644673Y-133783885D01*
X178650626Y-134117219D02*
X178561340Y-134069600D01*
X178561340Y-134069600D02*
X178525626Y-133974361D01*
X178525626Y-133974361D02*
X178632768Y-133117219D01*
X179793483Y-134117219D02*
X179918483Y-133117219D01*
X179918483Y-133117219D02*
X180162531Y-133831504D01*
X180162531Y-133831504D02*
X180585150Y-133117219D01*
X180585150Y-133117219D02*
X180460150Y-134117219D01*
X181364912Y-134117219D02*
X181430388Y-133593409D01*
X181430388Y-133593409D02*
X181394674Y-133498171D01*
X181394674Y-133498171D02*
X181305388Y-133450552D01*
X181305388Y-133450552D02*
X181114912Y-133450552D01*
X181114912Y-133450552D02*
X181013721Y-133498171D01*
X181370864Y-134069600D02*
X181269674Y-134117219D01*
X181269674Y-134117219D02*
X181031578Y-134117219D01*
X181031578Y-134117219D02*
X180942293Y-134069600D01*
X180942293Y-134069600D02*
X180906578Y-133974361D01*
X180906578Y-133974361D02*
X180918483Y-133879123D01*
X180918483Y-133879123D02*
X180978007Y-133783885D01*
X180978007Y-133783885D02*
X181079198Y-133736266D01*
X181079198Y-133736266D02*
X181317293Y-133736266D01*
X181317293Y-133736266D02*
X181418483Y-133688647D01*
X181924436Y-133450552D02*
X181841102Y-134117219D01*
X181912531Y-133545790D02*
X181966102Y-133498171D01*
X181966102Y-133498171D02*
X182067293Y-133450552D01*
X182067293Y-133450552D02*
X182210150Y-133450552D01*
X182210150Y-133450552D02*
X182299436Y-133498171D01*
X182299436Y-133498171D02*
X182335150Y-133593409D01*
X182335150Y-133593409D02*
X182269674Y-134117219D01*
X182745864Y-134117219D02*
X182829198Y-133450552D01*
X182870864Y-133117219D02*
X182817293Y-133164838D01*
X182817293Y-133164838D02*
X182858960Y-133212457D01*
X182858960Y-133212457D02*
X182912531Y-133164838D01*
X182912531Y-133164838D02*
X182870864Y-133117219D01*
X182870864Y-133117219D02*
X182858960Y-133212457D01*
X183162531Y-133450552D02*
X183543483Y-133450552D01*
X183222054Y-134117219D02*
X183329197Y-133260076D01*
X183329197Y-133260076D02*
X183388721Y-133164838D01*
X183388721Y-133164838D02*
X183489912Y-133117219D01*
X183489912Y-133117219D02*
X183585150Y-133117219D01*
X183936341Y-134117219D02*
X183847055Y-134069600D01*
X183847055Y-134069600D02*
X183805388Y-134021980D01*
X183805388Y-134021980D02*
X183769674Y-133926742D01*
X183769674Y-133926742D02*
X183805388Y-133641028D01*
X183805388Y-133641028D02*
X183864912Y-133545790D01*
X183864912Y-133545790D02*
X183918483Y-133498171D01*
X183918483Y-133498171D02*
X184019674Y-133450552D01*
X184019674Y-133450552D02*
X184162531Y-133450552D01*
X184162531Y-133450552D02*
X184251817Y-133498171D01*
X184251817Y-133498171D02*
X184293483Y-133545790D01*
X184293483Y-133545790D02*
X184329198Y-133641028D01*
X184329198Y-133641028D02*
X184293483Y-133926742D01*
X184293483Y-133926742D02*
X184233960Y-134021980D01*
X184233960Y-134021980D02*
X184180388Y-134069600D01*
X184180388Y-134069600D02*
X184079198Y-134117219D01*
X184079198Y-134117219D02*
X183936341Y-134117219D01*
X184841103Y-134117219D02*
X184751817Y-134069600D01*
X184751817Y-134069600D02*
X184716103Y-133974361D01*
X184716103Y-133974361D02*
X184823245Y-133117219D01*
X185650627Y-134117219D02*
X185775627Y-133117219D01*
X185656579Y-134069600D02*
X185555389Y-134117219D01*
X185555389Y-134117219D02*
X185364913Y-134117219D01*
X185364913Y-134117219D02*
X185275627Y-134069600D01*
X185275627Y-134069600D02*
X185233960Y-134021980D01*
X185233960Y-134021980D02*
X185198246Y-133926742D01*
X185198246Y-133926742D02*
X185233960Y-133641028D01*
X185233960Y-133641028D02*
X185293484Y-133545790D01*
X185293484Y-133545790D02*
X185347055Y-133498171D01*
X185347055Y-133498171D02*
X185448246Y-133450552D01*
X185448246Y-133450552D02*
X185638722Y-133450552D01*
X185638722Y-133450552D02*
X185728008Y-133498171D01*
X186888722Y-134117219D02*
X187013722Y-133117219D01*
X187013722Y-133117219D02*
X187394675Y-133117219D01*
X187394675Y-133117219D02*
X187483960Y-133164838D01*
X187483960Y-133164838D02*
X187525627Y-133212457D01*
X187525627Y-133212457D02*
X187561341Y-133307695D01*
X187561341Y-133307695D02*
X187543484Y-133450552D01*
X187543484Y-133450552D02*
X187483960Y-133545790D01*
X187483960Y-133545790D02*
X187430389Y-133593409D01*
X187430389Y-133593409D02*
X187329199Y-133641028D01*
X187329199Y-133641028D02*
X186948246Y-133641028D01*
X187870865Y-133117219D02*
X188442294Y-133117219D01*
X188031580Y-134117219D02*
X188156580Y-133117219D01*
D10*
X252577693Y-107120038D02*
X252482455Y-107072419D01*
X252482455Y-107072419D02*
X252339598Y-107072419D01*
X252339598Y-107072419D02*
X252196741Y-107120038D01*
X252196741Y-107120038D02*
X252101503Y-107215276D01*
X252101503Y-107215276D02*
X252053884Y-107310514D01*
X252053884Y-107310514D02*
X252006265Y-107500990D01*
X252006265Y-107500990D02*
X252006265Y-107643847D01*
X252006265Y-107643847D02*
X252053884Y-107834323D01*
X252053884Y-107834323D02*
X252101503Y-107929561D01*
X252101503Y-107929561D02*
X252196741Y-108024800D01*
X252196741Y-108024800D02*
X252339598Y-108072419D01*
X252339598Y-108072419D02*
X252434836Y-108072419D01*
X252434836Y-108072419D02*
X252577693Y-108024800D01*
X252577693Y-108024800D02*
X252625312Y-107977180D01*
X252625312Y-107977180D02*
X252625312Y-107643847D01*
X252625312Y-107643847D02*
X252434836Y-107643847D01*
X253053884Y-108072419D02*
X253053884Y-107072419D01*
X253053884Y-107072419D02*
X253625312Y-108072419D01*
X253625312Y-108072419D02*
X253625312Y-107072419D01*
X254101503Y-108072419D02*
X254101503Y-107072419D01*
X254101503Y-107072419D02*
X254339598Y-107072419D01*
X254339598Y-107072419D02*
X254482455Y-107120038D01*
X254482455Y-107120038D02*
X254577693Y-107215276D01*
X254577693Y-107215276D02*
X254625312Y-107310514D01*
X254625312Y-107310514D02*
X254672931Y-107500990D01*
X254672931Y-107500990D02*
X254672931Y-107643847D01*
X254672931Y-107643847D02*
X254625312Y-107834323D01*
X254625312Y-107834323D02*
X254577693Y-107929561D01*
X254577693Y-107929561D02*
X254482455Y-108024800D01*
X254482455Y-108024800D02*
X254339598Y-108072419D01*
X254339598Y-108072419D02*
X254101503Y-108072419D01*
X175286027Y-127362475D02*
X175619360Y-128362475D01*
X175619360Y-128362475D02*
X175952693Y-127362475D01*
X176286027Y-127838665D02*
X176619360Y-127838665D01*
X176762217Y-128362475D02*
X176286027Y-128362475D01*
X176286027Y-128362475D02*
X176286027Y-127362475D01*
X176286027Y-127362475D02*
X176762217Y-127362475D01*
X177095551Y-128362475D02*
X177619360Y-127695808D01*
X177095551Y-127695808D02*
X177619360Y-128362475D01*
X178428884Y-128314856D02*
X178333646Y-128362475D01*
X178333646Y-128362475D02*
X178143170Y-128362475D01*
X178143170Y-128362475D02*
X178047932Y-128314856D01*
X178047932Y-128314856D02*
X178000313Y-128267236D01*
X178000313Y-128267236D02*
X177952694Y-128171998D01*
X177952694Y-128171998D02*
X177952694Y-127886284D01*
X177952694Y-127886284D02*
X178000313Y-127791046D01*
X178000313Y-127791046D02*
X178047932Y-127743427D01*
X178047932Y-127743427D02*
X178143170Y-127695808D01*
X178143170Y-127695808D02*
X178333646Y-127695808D01*
X178333646Y-127695808D02*
X178428884Y-127743427D01*
X177238408Y-130353371D02*
X177190789Y-130305752D01*
X177190789Y-130305752D02*
X177095551Y-130162895D01*
X177095551Y-130162895D02*
X177047932Y-130067657D01*
X177047932Y-130067657D02*
X177000313Y-129924800D01*
X177000313Y-129924800D02*
X176952694Y-129686704D01*
X176952694Y-129686704D02*
X176952694Y-129496228D01*
X176952694Y-129496228D02*
X177000313Y-129258133D01*
X177000313Y-129258133D02*
X177047932Y-129115276D01*
X177047932Y-129115276D02*
X177095551Y-129020038D01*
X177095551Y-129020038D02*
X177190789Y-128877180D01*
X177190789Y-128877180D02*
X177238408Y-128829561D01*
X177666980Y-129972419D02*
X177857456Y-129972419D01*
X177857456Y-129972419D02*
X177952694Y-129924800D01*
X177952694Y-129924800D02*
X178000313Y-129877180D01*
X178000313Y-129877180D02*
X178095551Y-129734323D01*
X178095551Y-129734323D02*
X178143170Y-129543847D01*
X178143170Y-129543847D02*
X178143170Y-129162895D01*
X178143170Y-129162895D02*
X178095551Y-129067657D01*
X178095551Y-129067657D02*
X178047932Y-129020038D01*
X178047932Y-129020038D02*
X177952694Y-128972419D01*
X177952694Y-128972419D02*
X177762218Y-128972419D01*
X177762218Y-128972419D02*
X177666980Y-129020038D01*
X177666980Y-129020038D02*
X177619361Y-129067657D01*
X177619361Y-129067657D02*
X177571742Y-129162895D01*
X177571742Y-129162895D02*
X177571742Y-129400990D01*
X177571742Y-129400990D02*
X177619361Y-129496228D01*
X177619361Y-129496228D02*
X177666980Y-129543847D01*
X177666980Y-129543847D02*
X177762218Y-129591466D01*
X177762218Y-129591466D02*
X177952694Y-129591466D01*
X177952694Y-129591466D02*
X178047932Y-129543847D01*
X178047932Y-129543847D02*
X178095551Y-129496228D01*
X178095551Y-129496228D02*
X178143170Y-129400990D01*
X178428885Y-128972419D02*
X178762218Y-129972419D01*
X178762218Y-129972419D02*
X179095551Y-128972419D01*
X179333647Y-130353371D02*
X179381266Y-130305752D01*
X179381266Y-130305752D02*
X179476504Y-130162895D01*
X179476504Y-130162895D02*
X179524123Y-130067657D01*
X179524123Y-130067657D02*
X179571742Y-129924800D01*
X179571742Y-129924800D02*
X179619361Y-129686704D01*
X179619361Y-129686704D02*
X179619361Y-129496228D01*
X179619361Y-129496228D02*
X179571742Y-129258133D01*
X179571742Y-129258133D02*
X179524123Y-129115276D01*
X179524123Y-129115276D02*
X179476504Y-129020038D01*
X179476504Y-129020038D02*
X179381266Y-128877180D01*
X179381266Y-128877180D02*
X179333647Y-128829561D01*
X195053884Y-66716466D02*
X195815789Y-66716466D01*
X195434836Y-67097419D02*
X195434836Y-66335514D01*
X268586027Y-116812475D02*
X268919360Y-117812475D01*
X268919360Y-117812475D02*
X269252693Y-116812475D01*
X269586027Y-117288665D02*
X269919360Y-117288665D01*
X270062217Y-117812475D02*
X269586027Y-117812475D01*
X269586027Y-117812475D02*
X269586027Y-116812475D01*
X269586027Y-116812475D02*
X270062217Y-116812475D01*
X270395551Y-117812475D02*
X270919360Y-117145808D01*
X270395551Y-117145808D02*
X270919360Y-117812475D01*
X271728884Y-117764856D02*
X271633646Y-117812475D01*
X271633646Y-117812475D02*
X271443170Y-117812475D01*
X271443170Y-117812475D02*
X271347932Y-117764856D01*
X271347932Y-117764856D02*
X271300313Y-117717236D01*
X271300313Y-117717236D02*
X271252694Y-117621998D01*
X271252694Y-117621998D02*
X271252694Y-117336284D01*
X271252694Y-117336284D02*
X271300313Y-117241046D01*
X271300313Y-117241046D02*
X271347932Y-117193427D01*
X271347932Y-117193427D02*
X271443170Y-117145808D01*
X271443170Y-117145808D02*
X271633646Y-117145808D01*
X271633646Y-117145808D02*
X271728884Y-117193427D01*
X269776503Y-119803371D02*
X269728884Y-119755752D01*
X269728884Y-119755752D02*
X269633646Y-119612895D01*
X269633646Y-119612895D02*
X269586027Y-119517657D01*
X269586027Y-119517657D02*
X269538408Y-119374800D01*
X269538408Y-119374800D02*
X269490789Y-119136704D01*
X269490789Y-119136704D02*
X269490789Y-118946228D01*
X269490789Y-118946228D02*
X269538408Y-118708133D01*
X269538408Y-118708133D02*
X269586027Y-118565276D01*
X269586027Y-118565276D02*
X269633646Y-118470038D01*
X269633646Y-118470038D02*
X269728884Y-118327180D01*
X269728884Y-118327180D02*
X269776503Y-118279561D01*
X270205075Y-119422419D02*
X270395551Y-119422419D01*
X270395551Y-119422419D02*
X270490789Y-119374800D01*
X270490789Y-119374800D02*
X270538408Y-119327180D01*
X270538408Y-119327180D02*
X270633646Y-119184323D01*
X270633646Y-119184323D02*
X270681265Y-118993847D01*
X270681265Y-118993847D02*
X270681265Y-118612895D01*
X270681265Y-118612895D02*
X270633646Y-118517657D01*
X270633646Y-118517657D02*
X270586027Y-118470038D01*
X270586027Y-118470038D02*
X270490789Y-118422419D01*
X270490789Y-118422419D02*
X270300313Y-118422419D01*
X270300313Y-118422419D02*
X270205075Y-118470038D01*
X270205075Y-118470038D02*
X270157456Y-118517657D01*
X270157456Y-118517657D02*
X270109837Y-118612895D01*
X270109837Y-118612895D02*
X270109837Y-118850990D01*
X270109837Y-118850990D02*
X270157456Y-118946228D01*
X270157456Y-118946228D02*
X270205075Y-118993847D01*
X270205075Y-118993847D02*
X270300313Y-119041466D01*
X270300313Y-119041466D02*
X270490789Y-119041466D01*
X270490789Y-119041466D02*
X270586027Y-118993847D01*
X270586027Y-118993847D02*
X270633646Y-118946228D01*
X270633646Y-118946228D02*
X270681265Y-118850990D01*
X270966980Y-118422419D02*
X271300313Y-119422419D01*
X271300313Y-119422419D02*
X271633646Y-118422419D01*
X271871742Y-119803371D02*
X271919361Y-119755752D01*
X271919361Y-119755752D02*
X272014599Y-119612895D01*
X272014599Y-119612895D02*
X272062218Y-119517657D01*
X272062218Y-119517657D02*
X272109837Y-119374800D01*
X272109837Y-119374800D02*
X272157456Y-119136704D01*
X272157456Y-119136704D02*
X272157456Y-118946228D01*
X272157456Y-118946228D02*
X272109837Y-118708133D01*
X272109837Y-118708133D02*
X272062218Y-118565276D01*
X272062218Y-118565276D02*
X272014599Y-118470038D01*
X272014599Y-118470038D02*
X271919361Y-118327180D01*
X271919361Y-118327180D02*
X271871742Y-118279561D01*
X185181265Y-104999800D02*
X185324122Y-105047419D01*
X185324122Y-105047419D02*
X185562217Y-105047419D01*
X185562217Y-105047419D02*
X185657455Y-104999800D01*
X185657455Y-104999800D02*
X185705074Y-104952180D01*
X185705074Y-104952180D02*
X185752693Y-104856942D01*
X185752693Y-104856942D02*
X185752693Y-104761704D01*
X185752693Y-104761704D02*
X185705074Y-104666466D01*
X185705074Y-104666466D02*
X185657455Y-104618847D01*
X185657455Y-104618847D02*
X185562217Y-104571228D01*
X185562217Y-104571228D02*
X185371741Y-104523609D01*
X185371741Y-104523609D02*
X185276503Y-104475990D01*
X185276503Y-104475990D02*
X185228884Y-104428371D01*
X185228884Y-104428371D02*
X185181265Y-104333133D01*
X185181265Y-104333133D02*
X185181265Y-104237895D01*
X185181265Y-104237895D02*
X185228884Y-104142657D01*
X185228884Y-104142657D02*
X185276503Y-104095038D01*
X185276503Y-104095038D02*
X185371741Y-104047419D01*
X185371741Y-104047419D02*
X185609836Y-104047419D01*
X185609836Y-104047419D02*
X185752693Y-104095038D01*
X186181265Y-105047419D02*
X186181265Y-104380752D01*
X186181265Y-104047419D02*
X186133646Y-104095038D01*
X186133646Y-104095038D02*
X186181265Y-104142657D01*
X186181265Y-104142657D02*
X186228884Y-104095038D01*
X186228884Y-104095038D02*
X186181265Y-104047419D01*
X186181265Y-104047419D02*
X186181265Y-104142657D01*
X187086026Y-104380752D02*
X187086026Y-105190276D01*
X187086026Y-105190276D02*
X187038407Y-105285514D01*
X187038407Y-105285514D02*
X186990788Y-105333133D01*
X186990788Y-105333133D02*
X186895550Y-105380752D01*
X186895550Y-105380752D02*
X186752693Y-105380752D01*
X186752693Y-105380752D02*
X186657455Y-105333133D01*
X187086026Y-104999800D02*
X186990788Y-105047419D01*
X186990788Y-105047419D02*
X186800312Y-105047419D01*
X186800312Y-105047419D02*
X186705074Y-104999800D01*
X186705074Y-104999800D02*
X186657455Y-104952180D01*
X186657455Y-104952180D02*
X186609836Y-104856942D01*
X186609836Y-104856942D02*
X186609836Y-104571228D01*
X186609836Y-104571228D02*
X186657455Y-104475990D01*
X186657455Y-104475990D02*
X186705074Y-104428371D01*
X186705074Y-104428371D02*
X186800312Y-104380752D01*
X186800312Y-104380752D02*
X186990788Y-104380752D01*
X186990788Y-104380752D02*
X187086026Y-104428371D01*
X262878884Y-81537475D02*
X262878884Y-80537475D01*
X262878884Y-80537475D02*
X263450312Y-81537475D01*
X263450312Y-81537475D02*
X263450312Y-80537475D01*
X264069360Y-81537475D02*
X263974122Y-81489856D01*
X263974122Y-81489856D02*
X263926503Y-81442236D01*
X263926503Y-81442236D02*
X263878884Y-81346998D01*
X263878884Y-81346998D02*
X263878884Y-81061284D01*
X263878884Y-81061284D02*
X263926503Y-80966046D01*
X263926503Y-80966046D02*
X263974122Y-80918427D01*
X263974122Y-80918427D02*
X264069360Y-80870808D01*
X264069360Y-80870808D02*
X264212217Y-80870808D01*
X264212217Y-80870808D02*
X264307455Y-80918427D01*
X264307455Y-80918427D02*
X264355074Y-80966046D01*
X264355074Y-80966046D02*
X264402693Y-81061284D01*
X264402693Y-81061284D02*
X264402693Y-81346998D01*
X264402693Y-81346998D02*
X264355074Y-81442236D01*
X264355074Y-81442236D02*
X264307455Y-81489856D01*
X264307455Y-81489856D02*
X264212217Y-81537475D01*
X264212217Y-81537475D02*
X264069360Y-81537475D01*
X262736027Y-82480752D02*
X263116979Y-82480752D01*
X262878884Y-82147419D02*
X262878884Y-83004561D01*
X262878884Y-83004561D02*
X262926503Y-83099800D01*
X262926503Y-83099800D02*
X263021741Y-83147419D01*
X263021741Y-83147419D02*
X263116979Y-83147419D01*
X263450313Y-83147419D02*
X263450313Y-82147419D01*
X263878884Y-83147419D02*
X263878884Y-82623609D01*
X263878884Y-82623609D02*
X263831265Y-82528371D01*
X263831265Y-82528371D02*
X263736027Y-82480752D01*
X263736027Y-82480752D02*
X263593170Y-82480752D01*
X263593170Y-82480752D02*
X263497932Y-82528371D01*
X263497932Y-82528371D02*
X263450313Y-82575990D01*
X264355075Y-83147419D02*
X264355075Y-82480752D01*
X264355075Y-82575990D02*
X264402694Y-82528371D01*
X264402694Y-82528371D02*
X264497932Y-82480752D01*
X264497932Y-82480752D02*
X264640789Y-82480752D01*
X264640789Y-82480752D02*
X264736027Y-82528371D01*
X264736027Y-82528371D02*
X264783646Y-82623609D01*
X264783646Y-82623609D02*
X264783646Y-83147419D01*
X264783646Y-82623609D02*
X264831265Y-82528371D01*
X264831265Y-82528371D02*
X264926503Y-82480752D01*
X264926503Y-82480752D02*
X265069360Y-82480752D01*
X265069360Y-82480752D02*
X265164599Y-82528371D01*
X265164599Y-82528371D02*
X265212218Y-82623609D01*
X265212218Y-82623609D02*
X265212218Y-83147419D01*
X266450313Y-83147419D02*
X266450313Y-82480752D01*
X266450313Y-82671228D02*
X266497932Y-82575990D01*
X266497932Y-82575990D02*
X266545551Y-82528371D01*
X266545551Y-82528371D02*
X266640789Y-82480752D01*
X266640789Y-82480752D02*
X266736027Y-82480752D01*
X267450313Y-83099800D02*
X267355075Y-83147419D01*
X267355075Y-83147419D02*
X267164599Y-83147419D01*
X267164599Y-83147419D02*
X267069361Y-83099800D01*
X267069361Y-83099800D02*
X267021742Y-83004561D01*
X267021742Y-83004561D02*
X267021742Y-82623609D01*
X267021742Y-82623609D02*
X267069361Y-82528371D01*
X267069361Y-82528371D02*
X267164599Y-82480752D01*
X267164599Y-82480752D02*
X267355075Y-82480752D01*
X267355075Y-82480752D02*
X267450313Y-82528371D01*
X267450313Y-82528371D02*
X267497932Y-82623609D01*
X267497932Y-82623609D02*
X267497932Y-82718847D01*
X267497932Y-82718847D02*
X267021742Y-82814085D01*
X268069361Y-83147419D02*
X267974123Y-83099800D01*
X267974123Y-83099800D02*
X267926504Y-83004561D01*
X267926504Y-83004561D02*
X267926504Y-82147419D01*
X268450314Y-83052180D02*
X268497933Y-83099800D01*
X268497933Y-83099800D02*
X268450314Y-83147419D01*
X268450314Y-83147419D02*
X268402695Y-83099800D01*
X268402695Y-83099800D02*
X268450314Y-83052180D01*
X268450314Y-83052180D02*
X268450314Y-83147419D01*
X268450314Y-82766466D02*
X268402695Y-82195038D01*
X268402695Y-82195038D02*
X268450314Y-82147419D01*
X268450314Y-82147419D02*
X268497933Y-82195038D01*
X268497933Y-82195038D02*
X268450314Y-82766466D01*
X268450314Y-82766466D02*
X268450314Y-82147419D01*
D12*
X181172054Y-79321980D02*
X181118482Y-79369600D01*
X181118482Y-79369600D02*
X180969673Y-79417219D01*
X180969673Y-79417219D02*
X180874435Y-79417219D01*
X180874435Y-79417219D02*
X180737530Y-79369600D01*
X180737530Y-79369600D02*
X180654197Y-79274361D01*
X180654197Y-79274361D02*
X180618482Y-79179123D01*
X180618482Y-79179123D02*
X180594673Y-78988647D01*
X180594673Y-78988647D02*
X180612530Y-78845790D01*
X180612530Y-78845790D02*
X180683958Y-78655314D01*
X180683958Y-78655314D02*
X180743482Y-78560076D01*
X180743482Y-78560076D02*
X180850625Y-78464838D01*
X180850625Y-78464838D02*
X180999435Y-78417219D01*
X180999435Y-78417219D02*
X181094673Y-78417219D01*
X181094673Y-78417219D02*
X181231578Y-78464838D01*
X181231578Y-78464838D02*
X181273244Y-78512457D01*
X181588720Y-79417219D02*
X181713720Y-78417219D01*
X182017292Y-79417219D02*
X182082768Y-78893409D01*
X182082768Y-78893409D02*
X182047054Y-78798171D01*
X182047054Y-78798171D02*
X181957768Y-78750552D01*
X181957768Y-78750552D02*
X181814911Y-78750552D01*
X181814911Y-78750552D02*
X181713720Y-78798171D01*
X181713720Y-78798171D02*
X181660149Y-78845790D01*
X182922054Y-79417219D02*
X182987530Y-78893409D01*
X182987530Y-78893409D02*
X182951816Y-78798171D01*
X182951816Y-78798171D02*
X182862530Y-78750552D01*
X182862530Y-78750552D02*
X182672054Y-78750552D01*
X182672054Y-78750552D02*
X182570863Y-78798171D01*
X182928006Y-79369600D02*
X182826816Y-79417219D01*
X182826816Y-79417219D02*
X182588720Y-79417219D01*
X182588720Y-79417219D02*
X182499435Y-79369600D01*
X182499435Y-79369600D02*
X182463720Y-79274361D01*
X182463720Y-79274361D02*
X182475625Y-79179123D01*
X182475625Y-79179123D02*
X182535149Y-79083885D01*
X182535149Y-79083885D02*
X182636340Y-79036266D01*
X182636340Y-79036266D02*
X182874435Y-79036266D01*
X182874435Y-79036266D02*
X182975625Y-78988647D01*
X183398244Y-79417219D02*
X183481578Y-78750552D01*
X183469673Y-78845790D02*
X183523244Y-78798171D01*
X183523244Y-78798171D02*
X183624435Y-78750552D01*
X183624435Y-78750552D02*
X183767292Y-78750552D01*
X183767292Y-78750552D02*
X183856578Y-78798171D01*
X183856578Y-78798171D02*
X183892292Y-78893409D01*
X183892292Y-78893409D02*
X183826816Y-79417219D01*
X183892292Y-78893409D02*
X183951816Y-78798171D01*
X183951816Y-78798171D02*
X184053006Y-78750552D01*
X184053006Y-78750552D02*
X184195863Y-78750552D01*
X184195863Y-78750552D02*
X184285149Y-78798171D01*
X184285149Y-78798171D02*
X184320863Y-78893409D01*
X184320863Y-78893409D02*
X184255387Y-79417219D01*
X184731577Y-79417219D02*
X184856577Y-78417219D01*
X184808958Y-78798171D02*
X184910149Y-78750552D01*
X184910149Y-78750552D02*
X185100625Y-78750552D01*
X185100625Y-78750552D02*
X185189911Y-78798171D01*
X185189911Y-78798171D02*
X185231577Y-78845790D01*
X185231577Y-78845790D02*
X185267292Y-78941028D01*
X185267292Y-78941028D02*
X185231577Y-79226742D01*
X185231577Y-79226742D02*
X185172054Y-79321980D01*
X185172054Y-79321980D02*
X185118482Y-79369600D01*
X185118482Y-79369600D02*
X185017292Y-79417219D01*
X185017292Y-79417219D02*
X184826815Y-79417219D01*
X184826815Y-79417219D02*
X184737530Y-79369600D01*
X186023244Y-79369600D02*
X185922054Y-79417219D01*
X185922054Y-79417219D02*
X185731577Y-79417219D01*
X185731577Y-79417219D02*
X185642292Y-79369600D01*
X185642292Y-79369600D02*
X185606577Y-79274361D01*
X185606577Y-79274361D02*
X185654197Y-78893409D01*
X185654197Y-78893409D02*
X185713720Y-78798171D01*
X185713720Y-78798171D02*
X185814911Y-78750552D01*
X185814911Y-78750552D02*
X186005387Y-78750552D01*
X186005387Y-78750552D02*
X186094673Y-78798171D01*
X186094673Y-78798171D02*
X186130387Y-78893409D01*
X186130387Y-78893409D02*
X186118482Y-78988647D01*
X186118482Y-78988647D02*
X185630387Y-79083885D01*
X186493482Y-79417219D02*
X186576816Y-78750552D01*
X186553006Y-78941028D02*
X186612530Y-78845790D01*
X186612530Y-78845790D02*
X186666101Y-78798171D01*
X186666101Y-78798171D02*
X186767292Y-78750552D01*
X186767292Y-78750552D02*
X186862530Y-78750552D01*
X187904197Y-78417219D02*
X188017293Y-79417219D01*
X188017293Y-79417219D02*
X188297054Y-78702933D01*
X188297054Y-78702933D02*
X188398245Y-79417219D01*
X188398245Y-79417219D02*
X188761340Y-78417219D01*
X189445864Y-79417219D02*
X189511340Y-78893409D01*
X189511340Y-78893409D02*
X189475626Y-78798171D01*
X189475626Y-78798171D02*
X189386340Y-78750552D01*
X189386340Y-78750552D02*
X189195864Y-78750552D01*
X189195864Y-78750552D02*
X189094673Y-78798171D01*
X189451816Y-79369600D02*
X189350626Y-79417219D01*
X189350626Y-79417219D02*
X189112530Y-79417219D01*
X189112530Y-79417219D02*
X189023245Y-79369600D01*
X189023245Y-79369600D02*
X188987530Y-79274361D01*
X188987530Y-79274361D02*
X188999435Y-79179123D01*
X188999435Y-79179123D02*
X189058959Y-79083885D01*
X189058959Y-79083885D02*
X189160150Y-79036266D01*
X189160150Y-79036266D02*
X189398245Y-79036266D01*
X189398245Y-79036266D02*
X189499435Y-78988647D01*
X190064912Y-79417219D02*
X189975626Y-79369600D01*
X189975626Y-79369600D02*
X189939912Y-79274361D01*
X189939912Y-79274361D02*
X190047054Y-78417219D01*
X190588722Y-79417219D02*
X190499436Y-79369600D01*
X190499436Y-79369600D02*
X190463722Y-79274361D01*
X190463722Y-79274361D02*
X190570864Y-78417219D01*
X191713722Y-78417219D02*
X192285151Y-78417219D01*
X191874437Y-79417219D02*
X191999437Y-78417219D01*
X193076818Y-79321980D02*
X193023246Y-79369600D01*
X193023246Y-79369600D02*
X192874437Y-79417219D01*
X192874437Y-79417219D02*
X192779199Y-79417219D01*
X192779199Y-79417219D02*
X192642294Y-79369600D01*
X192642294Y-79369600D02*
X192558961Y-79274361D01*
X192558961Y-79274361D02*
X192523246Y-79179123D01*
X192523246Y-79179123D02*
X192499437Y-78988647D01*
X192499437Y-78988647D02*
X192517294Y-78845790D01*
X192517294Y-78845790D02*
X192588722Y-78655314D01*
X192588722Y-78655314D02*
X192648246Y-78560076D01*
X192648246Y-78560076D02*
X192755389Y-78464838D01*
X192755389Y-78464838D02*
X192904199Y-78417219D01*
X192904199Y-78417219D02*
X192999437Y-78417219D01*
X192999437Y-78417219D02*
X193136342Y-78464838D01*
X193136342Y-78464838D02*
X193178008Y-78512457D01*
X193558961Y-78512457D02*
X193612532Y-78464838D01*
X193612532Y-78464838D02*
X193713722Y-78417219D01*
X193713722Y-78417219D02*
X193951818Y-78417219D01*
X193951818Y-78417219D02*
X194041103Y-78464838D01*
X194041103Y-78464838D02*
X194082770Y-78512457D01*
X194082770Y-78512457D02*
X194118484Y-78607695D01*
X194118484Y-78607695D02*
X194106580Y-78702933D01*
X194106580Y-78702933D02*
X194041103Y-78845790D01*
X194041103Y-78845790D02*
X193398246Y-79417219D01*
X193398246Y-79417219D02*
X194017294Y-79417219D01*
D10*
X241012217Y-75848609D02*
X240678884Y-75848609D01*
X240678884Y-76372419D02*
X240678884Y-75372419D01*
X240678884Y-75372419D02*
X241155074Y-75372419D01*
X241964598Y-76372419D02*
X241964598Y-75848609D01*
X241964598Y-75848609D02*
X241916979Y-75753371D01*
X241916979Y-75753371D02*
X241821741Y-75705752D01*
X241821741Y-75705752D02*
X241631265Y-75705752D01*
X241631265Y-75705752D02*
X241536027Y-75753371D01*
X241964598Y-76324800D02*
X241869360Y-76372419D01*
X241869360Y-76372419D02*
X241631265Y-76372419D01*
X241631265Y-76372419D02*
X241536027Y-76324800D01*
X241536027Y-76324800D02*
X241488408Y-76229561D01*
X241488408Y-76229561D02*
X241488408Y-76134323D01*
X241488408Y-76134323D02*
X241536027Y-76039085D01*
X241536027Y-76039085D02*
X241631265Y-75991466D01*
X241631265Y-75991466D02*
X241869360Y-75991466D01*
X241869360Y-75991466D02*
X241964598Y-75943847D01*
X242440789Y-75705752D02*
X242440789Y-76372419D01*
X242440789Y-75800990D02*
X242488408Y-75753371D01*
X242488408Y-75753371D02*
X242583646Y-75705752D01*
X242583646Y-75705752D02*
X242726503Y-75705752D01*
X242726503Y-75705752D02*
X242821741Y-75753371D01*
X242821741Y-75753371D02*
X242869360Y-75848609D01*
X242869360Y-75848609D02*
X242869360Y-76372419D01*
X243916979Y-76277180D02*
X243869360Y-76324800D01*
X243869360Y-76324800D02*
X243726503Y-76372419D01*
X243726503Y-76372419D02*
X243631265Y-76372419D01*
X243631265Y-76372419D02*
X243488408Y-76324800D01*
X243488408Y-76324800D02*
X243393170Y-76229561D01*
X243393170Y-76229561D02*
X243345551Y-76134323D01*
X243345551Y-76134323D02*
X243297932Y-75943847D01*
X243297932Y-75943847D02*
X243297932Y-75800990D01*
X243297932Y-75800990D02*
X243345551Y-75610514D01*
X243345551Y-75610514D02*
X243393170Y-75515276D01*
X243393170Y-75515276D02*
X243488408Y-75420038D01*
X243488408Y-75420038D02*
X243631265Y-75372419D01*
X243631265Y-75372419D02*
X243726503Y-75372419D01*
X243726503Y-75372419D02*
X243869360Y-75420038D01*
X243869360Y-75420038D02*
X243916979Y-75467657D01*
X244202694Y-75705752D02*
X244583646Y-75705752D01*
X244345551Y-75372419D02*
X244345551Y-76229561D01*
X244345551Y-76229561D02*
X244393170Y-76324800D01*
X244393170Y-76324800D02*
X244488408Y-76372419D01*
X244488408Y-76372419D02*
X244583646Y-76372419D01*
X244916980Y-76372419D02*
X244916980Y-75705752D01*
X244916980Y-75896228D02*
X244964599Y-75800990D01*
X244964599Y-75800990D02*
X245012218Y-75753371D01*
X245012218Y-75753371D02*
X245107456Y-75705752D01*
X245107456Y-75705752D02*
X245202694Y-75705752D01*
X245678885Y-76372419D02*
X245583647Y-76324800D01*
X245583647Y-76324800D02*
X245536028Y-76229561D01*
X245536028Y-76229561D02*
X245536028Y-75372419D01*
X211786027Y-114287475D02*
X212357455Y-114287475D01*
X212071741Y-115287475D02*
X212071741Y-114287475D01*
X213071741Y-115239856D02*
X212976503Y-115287475D01*
X212976503Y-115287475D02*
X212786027Y-115287475D01*
X212786027Y-115287475D02*
X212690789Y-115239856D01*
X212690789Y-115239856D02*
X212643170Y-115144617D01*
X212643170Y-115144617D02*
X212643170Y-114763665D01*
X212643170Y-114763665D02*
X212690789Y-114668427D01*
X212690789Y-114668427D02*
X212786027Y-114620808D01*
X212786027Y-114620808D02*
X212976503Y-114620808D01*
X212976503Y-114620808D02*
X213071741Y-114668427D01*
X213071741Y-114668427D02*
X213119360Y-114763665D01*
X213119360Y-114763665D02*
X213119360Y-114858903D01*
X213119360Y-114858903D02*
X212643170Y-114954141D01*
X213500313Y-115239856D02*
X213595551Y-115287475D01*
X213595551Y-115287475D02*
X213786027Y-115287475D01*
X213786027Y-115287475D02*
X213881265Y-115239856D01*
X213881265Y-115239856D02*
X213928884Y-115144617D01*
X213928884Y-115144617D02*
X213928884Y-115096998D01*
X213928884Y-115096998D02*
X213881265Y-115001760D01*
X213881265Y-115001760D02*
X213786027Y-114954141D01*
X213786027Y-114954141D02*
X213643170Y-114954141D01*
X213643170Y-114954141D02*
X213547932Y-114906522D01*
X213547932Y-114906522D02*
X213500313Y-114811284D01*
X213500313Y-114811284D02*
X213500313Y-114763665D01*
X213500313Y-114763665D02*
X213547932Y-114668427D01*
X213547932Y-114668427D02*
X213643170Y-114620808D01*
X213643170Y-114620808D02*
X213786027Y-114620808D01*
X213786027Y-114620808D02*
X213881265Y-114668427D01*
X214214599Y-114620808D02*
X214595551Y-114620808D01*
X214357456Y-114287475D02*
X214357456Y-115144617D01*
X214357456Y-115144617D02*
X214405075Y-115239856D01*
X214405075Y-115239856D02*
X214500313Y-115287475D01*
X214500313Y-115287475D02*
X214595551Y-115287475D01*
X212405074Y-116897419D02*
X211928884Y-116897419D01*
X211928884Y-116897419D02*
X211928884Y-115897419D01*
X212881265Y-116897419D02*
X212786027Y-116849800D01*
X212786027Y-116849800D02*
X212738408Y-116802180D01*
X212738408Y-116802180D02*
X212690789Y-116706942D01*
X212690789Y-116706942D02*
X212690789Y-116421228D01*
X212690789Y-116421228D02*
X212738408Y-116325990D01*
X212738408Y-116325990D02*
X212786027Y-116278371D01*
X212786027Y-116278371D02*
X212881265Y-116230752D01*
X212881265Y-116230752D02*
X213024122Y-116230752D01*
X213024122Y-116230752D02*
X213119360Y-116278371D01*
X213119360Y-116278371D02*
X213166979Y-116325990D01*
X213166979Y-116325990D02*
X213214598Y-116421228D01*
X213214598Y-116421228D02*
X213214598Y-116706942D01*
X213214598Y-116706942D02*
X213166979Y-116802180D01*
X213166979Y-116802180D02*
X213119360Y-116849800D01*
X213119360Y-116849800D02*
X213024122Y-116897419D01*
X213024122Y-116897419D02*
X212881265Y-116897419D01*
X214071741Y-116897419D02*
X214071741Y-116373609D01*
X214071741Y-116373609D02*
X214024122Y-116278371D01*
X214024122Y-116278371D02*
X213928884Y-116230752D01*
X213928884Y-116230752D02*
X213738408Y-116230752D01*
X213738408Y-116230752D02*
X213643170Y-116278371D01*
X214071741Y-116849800D02*
X213976503Y-116897419D01*
X213976503Y-116897419D02*
X213738408Y-116897419D01*
X213738408Y-116897419D02*
X213643170Y-116849800D01*
X213643170Y-116849800D02*
X213595551Y-116754561D01*
X213595551Y-116754561D02*
X213595551Y-116659323D01*
X213595551Y-116659323D02*
X213643170Y-116564085D01*
X213643170Y-116564085D02*
X213738408Y-116516466D01*
X213738408Y-116516466D02*
X213976503Y-116516466D01*
X213976503Y-116516466D02*
X214071741Y-116468847D01*
X214976503Y-116897419D02*
X214976503Y-115897419D01*
X214976503Y-116849800D02*
X214881265Y-116897419D01*
X214881265Y-116897419D02*
X214690789Y-116897419D01*
X214690789Y-116897419D02*
X214595551Y-116849800D01*
X214595551Y-116849800D02*
X214547932Y-116802180D01*
X214547932Y-116802180D02*
X214500313Y-116706942D01*
X214500313Y-116706942D02*
X214500313Y-116421228D01*
X214500313Y-116421228D02*
X214547932Y-116325990D01*
X214547932Y-116325990D02*
X214595551Y-116278371D01*
X214595551Y-116278371D02*
X214690789Y-116230752D01*
X214690789Y-116230752D02*
X214881265Y-116230752D01*
X214881265Y-116230752D02*
X214976503Y-116278371D01*
X250636027Y-130987475D02*
X250969360Y-131987475D01*
X250969360Y-131987475D02*
X251302693Y-130987475D01*
X251636027Y-131463665D02*
X251969360Y-131463665D01*
X252112217Y-131987475D02*
X251636027Y-131987475D01*
X251636027Y-131987475D02*
X251636027Y-130987475D01*
X251636027Y-130987475D02*
X252112217Y-130987475D01*
X252445551Y-131987475D02*
X252969360Y-131320808D01*
X252445551Y-131320808D02*
X252969360Y-131987475D01*
X253778884Y-131939856D02*
X253683646Y-131987475D01*
X253683646Y-131987475D02*
X253493170Y-131987475D01*
X253493170Y-131987475D02*
X253397932Y-131939856D01*
X253397932Y-131939856D02*
X253350313Y-131892236D01*
X253350313Y-131892236D02*
X253302694Y-131796998D01*
X253302694Y-131796998D02*
X253302694Y-131511284D01*
X253302694Y-131511284D02*
X253350313Y-131416046D01*
X253350313Y-131416046D02*
X253397932Y-131368427D01*
X253397932Y-131368427D02*
X253493170Y-131320808D01*
X253493170Y-131320808D02*
X253683646Y-131320808D01*
X253683646Y-131320808D02*
X253778884Y-131368427D01*
X251826503Y-133978371D02*
X251778884Y-133930752D01*
X251778884Y-133930752D02*
X251683646Y-133787895D01*
X251683646Y-133787895D02*
X251636027Y-133692657D01*
X251636027Y-133692657D02*
X251588408Y-133549800D01*
X251588408Y-133549800D02*
X251540789Y-133311704D01*
X251540789Y-133311704D02*
X251540789Y-133121228D01*
X251540789Y-133121228D02*
X251588408Y-132883133D01*
X251588408Y-132883133D02*
X251636027Y-132740276D01*
X251636027Y-132740276D02*
X251683646Y-132645038D01*
X251683646Y-132645038D02*
X251778884Y-132502180D01*
X251778884Y-132502180D02*
X251826503Y-132454561D01*
X252255075Y-133597419D02*
X252445551Y-133597419D01*
X252445551Y-133597419D02*
X252540789Y-133549800D01*
X252540789Y-133549800D02*
X252588408Y-133502180D01*
X252588408Y-133502180D02*
X252683646Y-133359323D01*
X252683646Y-133359323D02*
X252731265Y-133168847D01*
X252731265Y-133168847D02*
X252731265Y-132787895D01*
X252731265Y-132787895D02*
X252683646Y-132692657D01*
X252683646Y-132692657D02*
X252636027Y-132645038D01*
X252636027Y-132645038D02*
X252540789Y-132597419D01*
X252540789Y-132597419D02*
X252350313Y-132597419D01*
X252350313Y-132597419D02*
X252255075Y-132645038D01*
X252255075Y-132645038D02*
X252207456Y-132692657D01*
X252207456Y-132692657D02*
X252159837Y-132787895D01*
X252159837Y-132787895D02*
X252159837Y-133025990D01*
X252159837Y-133025990D02*
X252207456Y-133121228D01*
X252207456Y-133121228D02*
X252255075Y-133168847D01*
X252255075Y-133168847D02*
X252350313Y-133216466D01*
X252350313Y-133216466D02*
X252540789Y-133216466D01*
X252540789Y-133216466D02*
X252636027Y-133168847D01*
X252636027Y-133168847D02*
X252683646Y-133121228D01*
X252683646Y-133121228D02*
X252731265Y-133025990D01*
X253016980Y-132597419D02*
X253350313Y-133597419D01*
X253350313Y-133597419D02*
X253683646Y-132597419D01*
X253921742Y-133978371D02*
X253969361Y-133930752D01*
X253969361Y-133930752D02*
X254064599Y-133787895D01*
X254064599Y-133787895D02*
X254112218Y-133692657D01*
X254112218Y-133692657D02*
X254159837Y-133549800D01*
X254159837Y-133549800D02*
X254207456Y-133311704D01*
X254207456Y-133311704D02*
X254207456Y-133121228D01*
X254207456Y-133121228D02*
X254159837Y-132883133D01*
X254159837Y-132883133D02*
X254112218Y-132740276D01*
X254112218Y-132740276D02*
X254064599Y-132645038D01*
X254064599Y-132645038D02*
X253969361Y-132502180D01*
X253969361Y-132502180D02*
X253921742Y-132454561D01*
X178852693Y-122445038D02*
X178757455Y-122397419D01*
X178757455Y-122397419D02*
X178614598Y-122397419D01*
X178614598Y-122397419D02*
X178471741Y-122445038D01*
X178471741Y-122445038D02*
X178376503Y-122540276D01*
X178376503Y-122540276D02*
X178328884Y-122635514D01*
X178328884Y-122635514D02*
X178281265Y-122825990D01*
X178281265Y-122825990D02*
X178281265Y-122968847D01*
X178281265Y-122968847D02*
X178328884Y-123159323D01*
X178328884Y-123159323D02*
X178376503Y-123254561D01*
X178376503Y-123254561D02*
X178471741Y-123349800D01*
X178471741Y-123349800D02*
X178614598Y-123397419D01*
X178614598Y-123397419D02*
X178709836Y-123397419D01*
X178709836Y-123397419D02*
X178852693Y-123349800D01*
X178852693Y-123349800D02*
X178900312Y-123302180D01*
X178900312Y-123302180D02*
X178900312Y-122968847D01*
X178900312Y-122968847D02*
X178709836Y-122968847D01*
X179328884Y-123397419D02*
X179328884Y-122397419D01*
X179328884Y-122397419D02*
X179900312Y-123397419D01*
X179900312Y-123397419D02*
X179900312Y-122397419D01*
X180376503Y-123397419D02*
X180376503Y-122397419D01*
X180376503Y-122397419D02*
X180614598Y-122397419D01*
X180614598Y-122397419D02*
X180757455Y-122445038D01*
X180757455Y-122445038D02*
X180852693Y-122540276D01*
X180852693Y-122540276D02*
X180900312Y-122635514D01*
X180900312Y-122635514D02*
X180947931Y-122825990D01*
X180947931Y-122825990D02*
X180947931Y-122968847D01*
X180947931Y-122968847D02*
X180900312Y-123159323D01*
X180900312Y-123159323D02*
X180852693Y-123254561D01*
X180852693Y-123254561D02*
X180757455Y-123349800D01*
X180757455Y-123349800D02*
X180614598Y-123397419D01*
X180614598Y-123397419D02*
X180376503Y-123397419D01*
X212477693Y-98922419D02*
X211906265Y-98922419D01*
X212191979Y-98922419D02*
X212191979Y-97922419D01*
X212191979Y-97922419D02*
X212096741Y-98065276D01*
X212096741Y-98065276D02*
X212001503Y-98160514D01*
X212001503Y-98160514D02*
X211906265Y-98208133D01*
X213430074Y-98922419D02*
X212858646Y-98922419D01*
X213144360Y-98922419D02*
X213144360Y-97922419D01*
X213144360Y-97922419D02*
X213049122Y-98065276D01*
X213049122Y-98065276D02*
X212953884Y-98160514D01*
X212953884Y-98160514D02*
X212858646Y-98208133D01*
X213858646Y-98827180D02*
X213906265Y-98874800D01*
X213906265Y-98874800D02*
X213858646Y-98922419D01*
X213858646Y-98922419D02*
X213811027Y-98874800D01*
X213811027Y-98874800D02*
X213858646Y-98827180D01*
X213858646Y-98827180D02*
X213858646Y-98922419D01*
X214858645Y-98922419D02*
X214287217Y-98922419D01*
X214572931Y-98922419D02*
X214572931Y-97922419D01*
X214572931Y-97922419D02*
X214477693Y-98065276D01*
X214477693Y-98065276D02*
X214382455Y-98160514D01*
X214382455Y-98160514D02*
X214287217Y-98208133D01*
X215144360Y-97922419D02*
X215477693Y-98922419D01*
X215477693Y-98922419D02*
X215811026Y-97922419D01*
X262878884Y-93347419D02*
X262878884Y-92347419D01*
X262878884Y-92823609D02*
X263450312Y-92823609D01*
X263450312Y-93347419D02*
X263450312Y-92347419D01*
X267252693Y-123620038D02*
X267157455Y-123572419D01*
X267157455Y-123572419D02*
X267014598Y-123572419D01*
X267014598Y-123572419D02*
X266871741Y-123620038D01*
X266871741Y-123620038D02*
X266776503Y-123715276D01*
X266776503Y-123715276D02*
X266728884Y-123810514D01*
X266728884Y-123810514D02*
X266681265Y-124000990D01*
X266681265Y-124000990D02*
X266681265Y-124143847D01*
X266681265Y-124143847D02*
X266728884Y-124334323D01*
X266728884Y-124334323D02*
X266776503Y-124429561D01*
X266776503Y-124429561D02*
X266871741Y-124524800D01*
X266871741Y-124524800D02*
X267014598Y-124572419D01*
X267014598Y-124572419D02*
X267109836Y-124572419D01*
X267109836Y-124572419D02*
X267252693Y-124524800D01*
X267252693Y-124524800D02*
X267300312Y-124477180D01*
X267300312Y-124477180D02*
X267300312Y-124143847D01*
X267300312Y-124143847D02*
X267109836Y-124143847D01*
X267728884Y-124572419D02*
X267728884Y-123572419D01*
X267728884Y-123572419D02*
X268300312Y-124572419D01*
X268300312Y-124572419D02*
X268300312Y-123572419D01*
X268776503Y-124572419D02*
X268776503Y-123572419D01*
X268776503Y-123572419D02*
X269014598Y-123572419D01*
X269014598Y-123572419D02*
X269157455Y-123620038D01*
X269157455Y-123620038D02*
X269252693Y-123715276D01*
X269252693Y-123715276D02*
X269300312Y-123810514D01*
X269300312Y-123810514D02*
X269347931Y-124000990D01*
X269347931Y-124000990D02*
X269347931Y-124143847D01*
X269347931Y-124143847D02*
X269300312Y-124334323D01*
X269300312Y-124334323D02*
X269252693Y-124429561D01*
X269252693Y-124429561D02*
X269157455Y-124524800D01*
X269157455Y-124524800D02*
X269014598Y-124572419D01*
X269014598Y-124572419D02*
X268776503Y-124572419D01*
X187211027Y-173537475D02*
X187544360Y-174537475D01*
X187544360Y-174537475D02*
X187877693Y-173537475D01*
X188211027Y-174013665D02*
X188544360Y-174013665D01*
X188687217Y-174537475D02*
X188211027Y-174537475D01*
X188211027Y-174537475D02*
X188211027Y-173537475D01*
X188211027Y-173537475D02*
X188687217Y-173537475D01*
X189020551Y-174537475D02*
X189544360Y-173870808D01*
X189020551Y-173870808D02*
X189544360Y-174537475D01*
X190353884Y-174489856D02*
X190258646Y-174537475D01*
X190258646Y-174537475D02*
X190068170Y-174537475D01*
X190068170Y-174537475D02*
X189972932Y-174489856D01*
X189972932Y-174489856D02*
X189925313Y-174442236D01*
X189925313Y-174442236D02*
X189877694Y-174346998D01*
X189877694Y-174346998D02*
X189877694Y-174061284D01*
X189877694Y-174061284D02*
X189925313Y-173966046D01*
X189925313Y-173966046D02*
X189972932Y-173918427D01*
X189972932Y-173918427D02*
X190068170Y-173870808D01*
X190068170Y-173870808D02*
X190258646Y-173870808D01*
X190258646Y-173870808D02*
X190353884Y-173918427D01*
X189163408Y-176528371D02*
X189115789Y-176480752D01*
X189115789Y-176480752D02*
X189020551Y-176337895D01*
X189020551Y-176337895D02*
X188972932Y-176242657D01*
X188972932Y-176242657D02*
X188925313Y-176099800D01*
X188925313Y-176099800D02*
X188877694Y-175861704D01*
X188877694Y-175861704D02*
X188877694Y-175671228D01*
X188877694Y-175671228D02*
X188925313Y-175433133D01*
X188925313Y-175433133D02*
X188972932Y-175290276D01*
X188972932Y-175290276D02*
X189020551Y-175195038D01*
X189020551Y-175195038D02*
X189115789Y-175052180D01*
X189115789Y-175052180D02*
X189163408Y-175004561D01*
X189591980Y-176147419D02*
X189782456Y-176147419D01*
X189782456Y-176147419D02*
X189877694Y-176099800D01*
X189877694Y-176099800D02*
X189925313Y-176052180D01*
X189925313Y-176052180D02*
X190020551Y-175909323D01*
X190020551Y-175909323D02*
X190068170Y-175718847D01*
X190068170Y-175718847D02*
X190068170Y-175337895D01*
X190068170Y-175337895D02*
X190020551Y-175242657D01*
X190020551Y-175242657D02*
X189972932Y-175195038D01*
X189972932Y-175195038D02*
X189877694Y-175147419D01*
X189877694Y-175147419D02*
X189687218Y-175147419D01*
X189687218Y-175147419D02*
X189591980Y-175195038D01*
X189591980Y-175195038D02*
X189544361Y-175242657D01*
X189544361Y-175242657D02*
X189496742Y-175337895D01*
X189496742Y-175337895D02*
X189496742Y-175575990D01*
X189496742Y-175575990D02*
X189544361Y-175671228D01*
X189544361Y-175671228D02*
X189591980Y-175718847D01*
X189591980Y-175718847D02*
X189687218Y-175766466D01*
X189687218Y-175766466D02*
X189877694Y-175766466D01*
X189877694Y-175766466D02*
X189972932Y-175718847D01*
X189972932Y-175718847D02*
X190020551Y-175671228D01*
X190020551Y-175671228D02*
X190068170Y-175575990D01*
X190353885Y-175147419D02*
X190687218Y-176147419D01*
X190687218Y-176147419D02*
X191020551Y-175147419D01*
X191258647Y-176528371D02*
X191306266Y-176480752D01*
X191306266Y-176480752D02*
X191401504Y-176337895D01*
X191401504Y-176337895D02*
X191449123Y-176242657D01*
X191449123Y-176242657D02*
X191496742Y-176099800D01*
X191496742Y-176099800D02*
X191544361Y-175861704D01*
X191544361Y-175861704D02*
X191544361Y-175671228D01*
X191544361Y-175671228D02*
X191496742Y-175433133D01*
X191496742Y-175433133D02*
X191449123Y-175290276D01*
X191449123Y-175290276D02*
X191401504Y-175195038D01*
X191401504Y-175195038D02*
X191306266Y-175052180D01*
X191306266Y-175052180D02*
X191258647Y-175004561D01*
X187153884Y-66816466D02*
X187915789Y-66816466D01*
X243777693Y-88365038D02*
X243682455Y-88317419D01*
X243682455Y-88317419D02*
X243539598Y-88317419D01*
X243539598Y-88317419D02*
X243396741Y-88365038D01*
X243396741Y-88365038D02*
X243301503Y-88460276D01*
X243301503Y-88460276D02*
X243253884Y-88555514D01*
X243253884Y-88555514D02*
X243206265Y-88745990D01*
X243206265Y-88745990D02*
X243206265Y-88888847D01*
X243206265Y-88888847D02*
X243253884Y-89079323D01*
X243253884Y-89079323D02*
X243301503Y-89174561D01*
X243301503Y-89174561D02*
X243396741Y-89269800D01*
X243396741Y-89269800D02*
X243539598Y-89317419D01*
X243539598Y-89317419D02*
X243634836Y-89317419D01*
X243634836Y-89317419D02*
X243777693Y-89269800D01*
X243777693Y-89269800D02*
X243825312Y-89222180D01*
X243825312Y-89222180D02*
X243825312Y-88888847D01*
X243825312Y-88888847D02*
X243634836Y-88888847D01*
X244253884Y-89317419D02*
X244253884Y-88317419D01*
X244253884Y-88317419D02*
X244825312Y-89317419D01*
X244825312Y-89317419D02*
X244825312Y-88317419D01*
X245301503Y-89317419D02*
X245301503Y-88317419D01*
X245301503Y-88317419D02*
X245539598Y-88317419D01*
X245539598Y-88317419D02*
X245682455Y-88365038D01*
X245682455Y-88365038D02*
X245777693Y-88460276D01*
X245777693Y-88460276D02*
X245825312Y-88555514D01*
X245825312Y-88555514D02*
X245872931Y-88745990D01*
X245872931Y-88745990D02*
X245872931Y-88888847D01*
X245872931Y-88888847D02*
X245825312Y-89079323D01*
X245825312Y-89079323D02*
X245777693Y-89174561D01*
X245777693Y-89174561D02*
X245682455Y-89269800D01*
X245682455Y-89269800D02*
X245539598Y-89317419D01*
X245539598Y-89317419D02*
X245301503Y-89317419D01*
D12*
X174129197Y-157542219D02*
X174319673Y-157542219D01*
X174319673Y-157542219D02*
X174408958Y-157589838D01*
X174408958Y-157589838D02*
X174492292Y-157685076D01*
X174492292Y-157685076D02*
X174516101Y-157875552D01*
X174516101Y-157875552D02*
X174474435Y-158208885D01*
X174474435Y-158208885D02*
X174403006Y-158399361D01*
X174403006Y-158399361D02*
X174295863Y-158494600D01*
X174295863Y-158494600D02*
X174194673Y-158542219D01*
X174194673Y-158542219D02*
X174004197Y-158542219D01*
X174004197Y-158542219D02*
X173914911Y-158494600D01*
X173914911Y-158494600D02*
X173831578Y-158399361D01*
X173831578Y-158399361D02*
X173807768Y-158208885D01*
X173807768Y-158208885D02*
X173849435Y-157875552D01*
X173849435Y-157875552D02*
X173920863Y-157685076D01*
X173920863Y-157685076D02*
X174028006Y-157589838D01*
X174028006Y-157589838D02*
X174129197Y-157542219D01*
X174766101Y-158542219D02*
X175373244Y-157875552D01*
X174849435Y-157875552D02*
X175289911Y-158542219D01*
X176432768Y-158542219D02*
X176557768Y-157542219D01*
X176557768Y-157542219D02*
X176801816Y-158256504D01*
X176801816Y-158256504D02*
X177224435Y-157542219D01*
X177224435Y-157542219D02*
X177099435Y-158542219D01*
X178004197Y-158542219D02*
X178069673Y-158018409D01*
X178069673Y-158018409D02*
X178033959Y-157923171D01*
X178033959Y-157923171D02*
X177944673Y-157875552D01*
X177944673Y-157875552D02*
X177754197Y-157875552D01*
X177754197Y-157875552D02*
X177653006Y-157923171D01*
X178010149Y-158494600D02*
X177908959Y-158542219D01*
X177908959Y-158542219D02*
X177670863Y-158542219D01*
X177670863Y-158542219D02*
X177581578Y-158494600D01*
X177581578Y-158494600D02*
X177545863Y-158399361D01*
X177545863Y-158399361D02*
X177557768Y-158304123D01*
X177557768Y-158304123D02*
X177617292Y-158208885D01*
X177617292Y-158208885D02*
X177718483Y-158161266D01*
X177718483Y-158161266D02*
X177956578Y-158161266D01*
X177956578Y-158161266D02*
X178057768Y-158113647D01*
X178563721Y-157875552D02*
X178480387Y-158542219D01*
X178551816Y-157970790D02*
X178605387Y-157923171D01*
X178605387Y-157923171D02*
X178706578Y-157875552D01*
X178706578Y-157875552D02*
X178849435Y-157875552D01*
X178849435Y-157875552D02*
X178938721Y-157923171D01*
X178938721Y-157923171D02*
X178974435Y-158018409D01*
X178974435Y-158018409D02*
X178908959Y-158542219D01*
X179385149Y-158542219D02*
X179468483Y-157875552D01*
X179510149Y-157542219D02*
X179456578Y-157589838D01*
X179456578Y-157589838D02*
X179498245Y-157637457D01*
X179498245Y-157637457D02*
X179551816Y-157589838D01*
X179551816Y-157589838D02*
X179510149Y-157542219D01*
X179510149Y-157542219D02*
X179498245Y-157637457D01*
X179801816Y-157875552D02*
X180182768Y-157875552D01*
X179861339Y-158542219D02*
X179968482Y-157685076D01*
X179968482Y-157685076D02*
X180028006Y-157589838D01*
X180028006Y-157589838D02*
X180129197Y-157542219D01*
X180129197Y-157542219D02*
X180224435Y-157542219D01*
X180575626Y-158542219D02*
X180486340Y-158494600D01*
X180486340Y-158494600D02*
X180444673Y-158446980D01*
X180444673Y-158446980D02*
X180408959Y-158351742D01*
X180408959Y-158351742D02*
X180444673Y-158066028D01*
X180444673Y-158066028D02*
X180504197Y-157970790D01*
X180504197Y-157970790D02*
X180557768Y-157923171D01*
X180557768Y-157923171D02*
X180658959Y-157875552D01*
X180658959Y-157875552D02*
X180801816Y-157875552D01*
X180801816Y-157875552D02*
X180891102Y-157923171D01*
X180891102Y-157923171D02*
X180932768Y-157970790D01*
X180932768Y-157970790D02*
X180968483Y-158066028D01*
X180968483Y-158066028D02*
X180932768Y-158351742D01*
X180932768Y-158351742D02*
X180873245Y-158446980D01*
X180873245Y-158446980D02*
X180819673Y-158494600D01*
X180819673Y-158494600D02*
X180718483Y-158542219D01*
X180718483Y-158542219D02*
X180575626Y-158542219D01*
X181480388Y-158542219D02*
X181391102Y-158494600D01*
X181391102Y-158494600D02*
X181355388Y-158399361D01*
X181355388Y-158399361D02*
X181462530Y-157542219D01*
X182289912Y-158542219D02*
X182414912Y-157542219D01*
X182295864Y-158494600D02*
X182194674Y-158542219D01*
X182194674Y-158542219D02*
X182004198Y-158542219D01*
X182004198Y-158542219D02*
X181914912Y-158494600D01*
X181914912Y-158494600D02*
X181873245Y-158446980D01*
X181873245Y-158446980D02*
X181837531Y-158351742D01*
X181837531Y-158351742D02*
X181873245Y-158066028D01*
X181873245Y-158066028D02*
X181932769Y-157970790D01*
X181932769Y-157970790D02*
X181986340Y-157923171D01*
X181986340Y-157923171D02*
X182087531Y-157875552D01*
X182087531Y-157875552D02*
X182278007Y-157875552D01*
X182278007Y-157875552D02*
X182367293Y-157923171D01*
X183528007Y-158542219D02*
X183653007Y-157542219D01*
X183653007Y-157542219D02*
X184033960Y-157542219D01*
X184033960Y-157542219D02*
X184123245Y-157589838D01*
X184123245Y-157589838D02*
X184164912Y-157637457D01*
X184164912Y-157637457D02*
X184200626Y-157732695D01*
X184200626Y-157732695D02*
X184182769Y-157875552D01*
X184182769Y-157875552D02*
X184123245Y-157970790D01*
X184123245Y-157970790D02*
X184069674Y-158018409D01*
X184069674Y-158018409D02*
X183968484Y-158066028D01*
X183968484Y-158066028D02*
X183587531Y-158066028D01*
X184510150Y-157542219D02*
X185081579Y-157542219D01*
X184670865Y-158542219D02*
X184795865Y-157542219D01*
X262404197Y-126867219D02*
X262594673Y-126867219D01*
X262594673Y-126867219D02*
X262683958Y-126914838D01*
X262683958Y-126914838D02*
X262767292Y-127010076D01*
X262767292Y-127010076D02*
X262791101Y-127200552D01*
X262791101Y-127200552D02*
X262749435Y-127533885D01*
X262749435Y-127533885D02*
X262678006Y-127724361D01*
X262678006Y-127724361D02*
X262570863Y-127819600D01*
X262570863Y-127819600D02*
X262469673Y-127867219D01*
X262469673Y-127867219D02*
X262279197Y-127867219D01*
X262279197Y-127867219D02*
X262189911Y-127819600D01*
X262189911Y-127819600D02*
X262106578Y-127724361D01*
X262106578Y-127724361D02*
X262082768Y-127533885D01*
X262082768Y-127533885D02*
X262124435Y-127200552D01*
X262124435Y-127200552D02*
X262195863Y-127010076D01*
X262195863Y-127010076D02*
X262303006Y-126914838D01*
X262303006Y-126914838D02*
X262404197Y-126867219D01*
X263041101Y-127867219D02*
X263648244Y-127200552D01*
X263124435Y-127200552D02*
X263564911Y-127867219D01*
X264689911Y-126867219D02*
X265261340Y-126867219D01*
X264850626Y-127867219D02*
X264975626Y-126867219D01*
X265898245Y-127867219D02*
X265963721Y-127343409D01*
X265963721Y-127343409D02*
X265928007Y-127248171D01*
X265928007Y-127248171D02*
X265838721Y-127200552D01*
X265838721Y-127200552D02*
X265648245Y-127200552D01*
X265648245Y-127200552D02*
X265547054Y-127248171D01*
X265904197Y-127819600D02*
X265803007Y-127867219D01*
X265803007Y-127867219D02*
X265564911Y-127867219D01*
X265564911Y-127867219D02*
X265475626Y-127819600D01*
X265475626Y-127819600D02*
X265439911Y-127724361D01*
X265439911Y-127724361D02*
X265451816Y-127629123D01*
X265451816Y-127629123D02*
X265511340Y-127533885D01*
X265511340Y-127533885D02*
X265612531Y-127486266D01*
X265612531Y-127486266D02*
X265850626Y-127486266D01*
X265850626Y-127486266D02*
X265951816Y-127438647D01*
X266457769Y-127200552D02*
X266374435Y-127867219D01*
X266445864Y-127295790D02*
X266499435Y-127248171D01*
X266499435Y-127248171D02*
X266600626Y-127200552D01*
X266600626Y-127200552D02*
X266743483Y-127200552D01*
X266743483Y-127200552D02*
X266832769Y-127248171D01*
X266832769Y-127248171D02*
X266868483Y-127343409D01*
X266868483Y-127343409D02*
X266803007Y-127867219D01*
X267279197Y-127867219D02*
X267404197Y-126867219D01*
X267422055Y-127486266D02*
X267660150Y-127867219D01*
X267743483Y-127200552D02*
X267314912Y-127581504D01*
X268850626Y-127867219D02*
X268975626Y-126867219D01*
X268975626Y-126867219D02*
X269356579Y-126867219D01*
X269356579Y-126867219D02*
X269445864Y-126914838D01*
X269445864Y-126914838D02*
X269487531Y-126962457D01*
X269487531Y-126962457D02*
X269523245Y-127057695D01*
X269523245Y-127057695D02*
X269505388Y-127200552D01*
X269505388Y-127200552D02*
X269445864Y-127295790D01*
X269445864Y-127295790D02*
X269392293Y-127343409D01*
X269392293Y-127343409D02*
X269291103Y-127391028D01*
X269291103Y-127391028D02*
X268910150Y-127391028D01*
X269832769Y-126867219D02*
X270404198Y-126867219D01*
X269993484Y-127867219D02*
X270118484Y-126867219D01*
D10*
X245052693Y-137945038D02*
X244957455Y-137897419D01*
X244957455Y-137897419D02*
X244814598Y-137897419D01*
X244814598Y-137897419D02*
X244671741Y-137945038D01*
X244671741Y-137945038D02*
X244576503Y-138040276D01*
X244576503Y-138040276D02*
X244528884Y-138135514D01*
X244528884Y-138135514D02*
X244481265Y-138325990D01*
X244481265Y-138325990D02*
X244481265Y-138468847D01*
X244481265Y-138468847D02*
X244528884Y-138659323D01*
X244528884Y-138659323D02*
X244576503Y-138754561D01*
X244576503Y-138754561D02*
X244671741Y-138849800D01*
X244671741Y-138849800D02*
X244814598Y-138897419D01*
X244814598Y-138897419D02*
X244909836Y-138897419D01*
X244909836Y-138897419D02*
X245052693Y-138849800D01*
X245052693Y-138849800D02*
X245100312Y-138802180D01*
X245100312Y-138802180D02*
X245100312Y-138468847D01*
X245100312Y-138468847D02*
X244909836Y-138468847D01*
X245528884Y-138897419D02*
X245528884Y-137897419D01*
X245528884Y-137897419D02*
X246100312Y-138897419D01*
X246100312Y-138897419D02*
X246100312Y-137897419D01*
X246576503Y-138897419D02*
X246576503Y-137897419D01*
X246576503Y-137897419D02*
X246814598Y-137897419D01*
X246814598Y-137897419D02*
X246957455Y-137945038D01*
X246957455Y-137945038D02*
X247052693Y-138040276D01*
X247052693Y-138040276D02*
X247100312Y-138135514D01*
X247100312Y-138135514D02*
X247147931Y-138325990D01*
X247147931Y-138325990D02*
X247147931Y-138468847D01*
X247147931Y-138468847D02*
X247100312Y-138659323D01*
X247100312Y-138659323D02*
X247052693Y-138754561D01*
X247052693Y-138754561D02*
X246957455Y-138849800D01*
X246957455Y-138849800D02*
X246814598Y-138897419D01*
X246814598Y-138897419D02*
X246576503Y-138897419D01*
X196456265Y-175324800D02*
X196599122Y-175372419D01*
X196599122Y-175372419D02*
X196837217Y-175372419D01*
X196837217Y-175372419D02*
X196932455Y-175324800D01*
X196932455Y-175324800D02*
X196980074Y-175277180D01*
X196980074Y-175277180D02*
X197027693Y-175181942D01*
X197027693Y-175181942D02*
X197027693Y-175086704D01*
X197027693Y-175086704D02*
X196980074Y-174991466D01*
X196980074Y-174991466D02*
X196932455Y-174943847D01*
X196932455Y-174943847D02*
X196837217Y-174896228D01*
X196837217Y-174896228D02*
X196646741Y-174848609D01*
X196646741Y-174848609D02*
X196551503Y-174800990D01*
X196551503Y-174800990D02*
X196503884Y-174753371D01*
X196503884Y-174753371D02*
X196456265Y-174658133D01*
X196456265Y-174658133D02*
X196456265Y-174562895D01*
X196456265Y-174562895D02*
X196503884Y-174467657D01*
X196503884Y-174467657D02*
X196551503Y-174420038D01*
X196551503Y-174420038D02*
X196646741Y-174372419D01*
X196646741Y-174372419D02*
X196884836Y-174372419D01*
X196884836Y-174372419D02*
X197027693Y-174420038D01*
X197456265Y-175372419D02*
X197456265Y-174705752D01*
X197456265Y-174372419D02*
X197408646Y-174420038D01*
X197408646Y-174420038D02*
X197456265Y-174467657D01*
X197456265Y-174467657D02*
X197503884Y-174420038D01*
X197503884Y-174420038D02*
X197456265Y-174372419D01*
X197456265Y-174372419D02*
X197456265Y-174467657D01*
X198361026Y-174705752D02*
X198361026Y-175515276D01*
X198361026Y-175515276D02*
X198313407Y-175610514D01*
X198313407Y-175610514D02*
X198265788Y-175658133D01*
X198265788Y-175658133D02*
X198170550Y-175705752D01*
X198170550Y-175705752D02*
X198027693Y-175705752D01*
X198027693Y-175705752D02*
X197932455Y-175658133D01*
X198361026Y-175324800D02*
X198265788Y-175372419D01*
X198265788Y-175372419D02*
X198075312Y-175372419D01*
X198075312Y-175372419D02*
X197980074Y-175324800D01*
X197980074Y-175324800D02*
X197932455Y-175277180D01*
X197932455Y-175277180D02*
X197884836Y-175181942D01*
X197884836Y-175181942D02*
X197884836Y-174896228D01*
X197884836Y-174896228D02*
X197932455Y-174800990D01*
X197932455Y-174800990D02*
X197980074Y-174753371D01*
X197980074Y-174753371D02*
X198075312Y-174705752D01*
X198075312Y-174705752D02*
X198265788Y-174705752D01*
X198265788Y-174705752D02*
X198361026Y-174753371D01*
D12*
X243687530Y-141443409D02*
X243354197Y-141443409D01*
X243288720Y-141967219D02*
X243413720Y-140967219D01*
X243413720Y-140967219D02*
X243889911Y-140967219D01*
X244657768Y-141300552D02*
X244574435Y-141967219D01*
X244229197Y-141300552D02*
X244163721Y-141824361D01*
X244163721Y-141824361D02*
X244199435Y-141919600D01*
X244199435Y-141919600D02*
X244288721Y-141967219D01*
X244288721Y-141967219D02*
X244431578Y-141967219D01*
X244431578Y-141967219D02*
X244532768Y-141919600D01*
X244532768Y-141919600D02*
X244586340Y-141871980D01*
X245437530Y-141919600D02*
X245336340Y-141967219D01*
X245336340Y-141967219D02*
X245145863Y-141967219D01*
X245145863Y-141967219D02*
X245056578Y-141919600D01*
X245056578Y-141919600D02*
X245020863Y-141824361D01*
X245020863Y-141824361D02*
X245068483Y-141443409D01*
X245068483Y-141443409D02*
X245128006Y-141348171D01*
X245128006Y-141348171D02*
X245229197Y-141300552D01*
X245229197Y-141300552D02*
X245419673Y-141300552D01*
X245419673Y-141300552D02*
X245508959Y-141348171D01*
X245508959Y-141348171D02*
X245544673Y-141443409D01*
X245544673Y-141443409D02*
X245532768Y-141538647D01*
X245532768Y-141538647D02*
X245044673Y-141633885D01*
X246050626Y-141967219D02*
X245961340Y-141919600D01*
X245961340Y-141919600D02*
X245925626Y-141824361D01*
X245925626Y-141824361D02*
X246032768Y-140967219D01*
X247175626Y-140967219D02*
X247747055Y-140967219D01*
X247336341Y-141967219D02*
X247461341Y-140967219D01*
X248383960Y-141967219D02*
X248449436Y-141443409D01*
X248449436Y-141443409D02*
X248413722Y-141348171D01*
X248413722Y-141348171D02*
X248324436Y-141300552D01*
X248324436Y-141300552D02*
X248133960Y-141300552D01*
X248133960Y-141300552D02*
X248032769Y-141348171D01*
X248389912Y-141919600D02*
X248288722Y-141967219D01*
X248288722Y-141967219D02*
X248050626Y-141967219D01*
X248050626Y-141967219D02*
X247961341Y-141919600D01*
X247961341Y-141919600D02*
X247925626Y-141824361D01*
X247925626Y-141824361D02*
X247937531Y-141729123D01*
X247937531Y-141729123D02*
X247997055Y-141633885D01*
X247997055Y-141633885D02*
X248098246Y-141586266D01*
X248098246Y-141586266D02*
X248336341Y-141586266D01*
X248336341Y-141586266D02*
X248437531Y-141538647D01*
X248943484Y-141300552D02*
X248860150Y-141967219D01*
X248931579Y-141395790D02*
X248985150Y-141348171D01*
X248985150Y-141348171D02*
X249086341Y-141300552D01*
X249086341Y-141300552D02*
X249229198Y-141300552D01*
X249229198Y-141300552D02*
X249318484Y-141348171D01*
X249318484Y-141348171D02*
X249354198Y-141443409D01*
X249354198Y-141443409D02*
X249288722Y-141967219D01*
X249764912Y-141967219D02*
X249889912Y-140967219D01*
X249907770Y-141586266D02*
X250145865Y-141967219D01*
X250229198Y-141300552D02*
X249800627Y-141681504D01*
X251336341Y-141967219D02*
X251461341Y-140967219D01*
X251461341Y-140967219D02*
X251842294Y-140967219D01*
X251842294Y-140967219D02*
X251931579Y-141014838D01*
X251931579Y-141014838D02*
X251973246Y-141062457D01*
X251973246Y-141062457D02*
X252008960Y-141157695D01*
X252008960Y-141157695D02*
X251991103Y-141300552D01*
X251991103Y-141300552D02*
X251931579Y-141395790D01*
X251931579Y-141395790D02*
X251878008Y-141443409D01*
X251878008Y-141443409D02*
X251776818Y-141491028D01*
X251776818Y-141491028D02*
X251395865Y-141491028D01*
X252318484Y-140967219D02*
X252889913Y-140967219D01*
X252479199Y-141967219D02*
X252604199Y-140967219D01*
X263747054Y-96037036D02*
X263693482Y-96084656D01*
X263693482Y-96084656D02*
X263544673Y-96132275D01*
X263544673Y-96132275D02*
X263449435Y-96132275D01*
X263449435Y-96132275D02*
X263312530Y-96084656D01*
X263312530Y-96084656D02*
X263229197Y-95989417D01*
X263229197Y-95989417D02*
X263193482Y-95894179D01*
X263193482Y-95894179D02*
X263169673Y-95703703D01*
X263169673Y-95703703D02*
X263187530Y-95560846D01*
X263187530Y-95560846D02*
X263258958Y-95370370D01*
X263258958Y-95370370D02*
X263318482Y-95275132D01*
X263318482Y-95275132D02*
X263425625Y-95179894D01*
X263425625Y-95179894D02*
X263574435Y-95132275D01*
X263574435Y-95132275D02*
X263669673Y-95132275D01*
X263669673Y-95132275D02*
X263806578Y-95179894D01*
X263806578Y-95179894D02*
X263848244Y-95227513D01*
X264306578Y-96132275D02*
X264217292Y-96084656D01*
X264217292Y-96084656D02*
X264175625Y-96037036D01*
X264175625Y-96037036D02*
X264139911Y-95941798D01*
X264139911Y-95941798D02*
X264175625Y-95656084D01*
X264175625Y-95656084D02*
X264235149Y-95560846D01*
X264235149Y-95560846D02*
X264288720Y-95513227D01*
X264288720Y-95513227D02*
X264389911Y-95465608D01*
X264389911Y-95465608D02*
X264532768Y-95465608D01*
X264532768Y-95465608D02*
X264622054Y-95513227D01*
X264622054Y-95513227D02*
X264663720Y-95560846D01*
X264663720Y-95560846D02*
X264699435Y-95656084D01*
X264699435Y-95656084D02*
X264663720Y-95941798D01*
X264663720Y-95941798D02*
X264604197Y-96037036D01*
X264604197Y-96037036D02*
X264550625Y-96084656D01*
X264550625Y-96084656D02*
X264449435Y-96132275D01*
X264449435Y-96132275D02*
X264306578Y-96132275D01*
X265211340Y-96132275D02*
X265122054Y-96084656D01*
X265122054Y-96084656D02*
X265080387Y-96037036D01*
X265080387Y-96037036D02*
X265044673Y-95941798D01*
X265044673Y-95941798D02*
X265080387Y-95656084D01*
X265080387Y-95656084D02*
X265139911Y-95560846D01*
X265139911Y-95560846D02*
X265193482Y-95513227D01*
X265193482Y-95513227D02*
X265294673Y-95465608D01*
X265294673Y-95465608D02*
X265437530Y-95465608D01*
X265437530Y-95465608D02*
X265526816Y-95513227D01*
X265526816Y-95513227D02*
X265568482Y-95560846D01*
X265568482Y-95560846D02*
X265604197Y-95656084D01*
X265604197Y-95656084D02*
X265568482Y-95941798D01*
X265568482Y-95941798D02*
X265508959Y-96037036D01*
X265508959Y-96037036D02*
X265455387Y-96084656D01*
X265455387Y-96084656D02*
X265354197Y-96132275D01*
X265354197Y-96132275D02*
X265211340Y-96132275D01*
X266116102Y-96132275D02*
X266026816Y-96084656D01*
X266026816Y-96084656D02*
X265991102Y-95989417D01*
X265991102Y-95989417D02*
X266098244Y-95132275D01*
X266497054Y-96132275D02*
X266580388Y-95465608D01*
X266622054Y-95132275D02*
X266568483Y-95179894D01*
X266568483Y-95179894D02*
X266610150Y-95227513D01*
X266610150Y-95227513D02*
X266663721Y-95179894D01*
X266663721Y-95179894D02*
X266622054Y-95132275D01*
X266622054Y-95132275D02*
X266610150Y-95227513D01*
X267056578Y-95465608D02*
X266973244Y-96132275D01*
X267044673Y-95560846D02*
X267098244Y-95513227D01*
X267098244Y-95513227D02*
X267199435Y-95465608D01*
X267199435Y-95465608D02*
X267342292Y-95465608D01*
X267342292Y-95465608D02*
X267431578Y-95513227D01*
X267431578Y-95513227D02*
X267467292Y-95608465D01*
X267467292Y-95608465D02*
X267401816Y-96132275D01*
X268389911Y-95465608D02*
X268288721Y-96275132D01*
X268288721Y-96275132D02*
X268229197Y-96370370D01*
X268229197Y-96370370D02*
X268175625Y-96417989D01*
X268175625Y-96417989D02*
X268074435Y-96465608D01*
X268074435Y-96465608D02*
X267931578Y-96465608D01*
X267931578Y-96465608D02*
X267842292Y-96417989D01*
X268312530Y-96084656D02*
X268211340Y-96132275D01*
X268211340Y-96132275D02*
X268020864Y-96132275D01*
X268020864Y-96132275D02*
X267931578Y-96084656D01*
X267931578Y-96084656D02*
X267889911Y-96037036D01*
X267889911Y-96037036D02*
X267854197Y-95941798D01*
X267854197Y-95941798D02*
X267889911Y-95656084D01*
X267889911Y-95656084D02*
X267949435Y-95560846D01*
X267949435Y-95560846D02*
X268003006Y-95513227D01*
X268003006Y-95513227D02*
X268104197Y-95465608D01*
X268104197Y-95465608D02*
X268294673Y-95465608D01*
X268294673Y-95465608D02*
X268383959Y-95513227D01*
X269943483Y-95608465D02*
X269610150Y-95608465D01*
X269544673Y-96132275D02*
X269669673Y-95132275D01*
X269669673Y-95132275D02*
X270145864Y-95132275D01*
X270830388Y-96132275D02*
X270895864Y-95608465D01*
X270895864Y-95608465D02*
X270860150Y-95513227D01*
X270860150Y-95513227D02*
X270770864Y-95465608D01*
X270770864Y-95465608D02*
X270580388Y-95465608D01*
X270580388Y-95465608D02*
X270479197Y-95513227D01*
X270836340Y-96084656D02*
X270735150Y-96132275D01*
X270735150Y-96132275D02*
X270497054Y-96132275D01*
X270497054Y-96132275D02*
X270407769Y-96084656D01*
X270407769Y-96084656D02*
X270372054Y-95989417D01*
X270372054Y-95989417D02*
X270383959Y-95894179D01*
X270383959Y-95894179D02*
X270443483Y-95798941D01*
X270443483Y-95798941D02*
X270544674Y-95751322D01*
X270544674Y-95751322D02*
X270782769Y-95751322D01*
X270782769Y-95751322D02*
X270883959Y-95703703D01*
X271389912Y-95465608D02*
X271306578Y-96132275D01*
X271378007Y-95560846D02*
X271431578Y-95513227D01*
X271431578Y-95513227D02*
X271532769Y-95465608D01*
X271532769Y-95465608D02*
X271675626Y-95465608D01*
X271675626Y-95465608D02*
X271764912Y-95513227D01*
X271764912Y-95513227D02*
X271800626Y-95608465D01*
X271800626Y-95608465D02*
X271735150Y-96132275D01*
X263747054Y-97646980D02*
X263693482Y-97694600D01*
X263693482Y-97694600D02*
X263544673Y-97742219D01*
X263544673Y-97742219D02*
X263449435Y-97742219D01*
X263449435Y-97742219D02*
X263312530Y-97694600D01*
X263312530Y-97694600D02*
X263229197Y-97599361D01*
X263229197Y-97599361D02*
X263193482Y-97504123D01*
X263193482Y-97504123D02*
X263169673Y-97313647D01*
X263169673Y-97313647D02*
X263187530Y-97170790D01*
X263187530Y-97170790D02*
X263258958Y-96980314D01*
X263258958Y-96980314D02*
X263318482Y-96885076D01*
X263318482Y-96885076D02*
X263425625Y-96789838D01*
X263425625Y-96789838D02*
X263574435Y-96742219D01*
X263574435Y-96742219D02*
X263669673Y-96742219D01*
X263669673Y-96742219D02*
X263806578Y-96789838D01*
X263806578Y-96789838D02*
X263848244Y-96837457D01*
X264306578Y-97742219D02*
X264217292Y-97694600D01*
X264217292Y-97694600D02*
X264175625Y-97646980D01*
X264175625Y-97646980D02*
X264139911Y-97551742D01*
X264139911Y-97551742D02*
X264175625Y-97266028D01*
X264175625Y-97266028D02*
X264235149Y-97170790D01*
X264235149Y-97170790D02*
X264288720Y-97123171D01*
X264288720Y-97123171D02*
X264389911Y-97075552D01*
X264389911Y-97075552D02*
X264532768Y-97075552D01*
X264532768Y-97075552D02*
X264622054Y-97123171D01*
X264622054Y-97123171D02*
X264663720Y-97170790D01*
X264663720Y-97170790D02*
X264699435Y-97266028D01*
X264699435Y-97266028D02*
X264663720Y-97551742D01*
X264663720Y-97551742D02*
X264604197Y-97646980D01*
X264604197Y-97646980D02*
X264550625Y-97694600D01*
X264550625Y-97694600D02*
X264449435Y-97742219D01*
X264449435Y-97742219D02*
X264306578Y-97742219D01*
X265151816Y-97075552D02*
X265068482Y-97742219D01*
X265139911Y-97170790D02*
X265193482Y-97123171D01*
X265193482Y-97123171D02*
X265294673Y-97075552D01*
X265294673Y-97075552D02*
X265437530Y-97075552D01*
X265437530Y-97075552D02*
X265526816Y-97123171D01*
X265526816Y-97123171D02*
X265562530Y-97218409D01*
X265562530Y-97218409D02*
X265497054Y-97742219D01*
X266056578Y-97075552D02*
X265973244Y-97742219D01*
X266044673Y-97170790D02*
X266098244Y-97123171D01*
X266098244Y-97123171D02*
X266199435Y-97075552D01*
X266199435Y-97075552D02*
X266342292Y-97075552D01*
X266342292Y-97075552D02*
X266431578Y-97123171D01*
X266431578Y-97123171D02*
X266467292Y-97218409D01*
X266467292Y-97218409D02*
X266401816Y-97742219D01*
X267264911Y-97694600D02*
X267163721Y-97742219D01*
X267163721Y-97742219D02*
X266973244Y-97742219D01*
X266973244Y-97742219D02*
X266883959Y-97694600D01*
X266883959Y-97694600D02*
X266848244Y-97599361D01*
X266848244Y-97599361D02*
X266895864Y-97218409D01*
X266895864Y-97218409D02*
X266955387Y-97123171D01*
X266955387Y-97123171D02*
X267056578Y-97075552D01*
X267056578Y-97075552D02*
X267247054Y-97075552D01*
X267247054Y-97075552D02*
X267336340Y-97123171D01*
X267336340Y-97123171D02*
X267372054Y-97218409D01*
X267372054Y-97218409D02*
X267360149Y-97313647D01*
X267360149Y-97313647D02*
X266872054Y-97408885D01*
X268169673Y-97694600D02*
X268068483Y-97742219D01*
X268068483Y-97742219D02*
X267878007Y-97742219D01*
X267878007Y-97742219D02*
X267788721Y-97694600D01*
X267788721Y-97694600D02*
X267747054Y-97646980D01*
X267747054Y-97646980D02*
X267711340Y-97551742D01*
X267711340Y-97551742D02*
X267747054Y-97266028D01*
X267747054Y-97266028D02*
X267806578Y-97170790D01*
X267806578Y-97170790D02*
X267860149Y-97123171D01*
X267860149Y-97123171D02*
X267961340Y-97075552D01*
X267961340Y-97075552D02*
X268151816Y-97075552D01*
X268151816Y-97075552D02*
X268241102Y-97123171D01*
X268532769Y-97075552D02*
X268913721Y-97075552D01*
X268717292Y-96742219D02*
X268610150Y-97599361D01*
X268610150Y-97599361D02*
X268645864Y-97694600D01*
X268645864Y-97694600D02*
X268735150Y-97742219D01*
X268735150Y-97742219D02*
X268830388Y-97742219D01*
X269306579Y-97742219D02*
X269217293Y-97694600D01*
X269217293Y-97694600D02*
X269175626Y-97646980D01*
X269175626Y-97646980D02*
X269139912Y-97551742D01*
X269139912Y-97551742D02*
X269175626Y-97266028D01*
X269175626Y-97266028D02*
X269235150Y-97170790D01*
X269235150Y-97170790D02*
X269288721Y-97123171D01*
X269288721Y-97123171D02*
X269389912Y-97075552D01*
X269389912Y-97075552D02*
X269532769Y-97075552D01*
X269532769Y-97075552D02*
X269622055Y-97123171D01*
X269622055Y-97123171D02*
X269663721Y-97170790D01*
X269663721Y-97170790D02*
X269699436Y-97266028D01*
X269699436Y-97266028D02*
X269663721Y-97551742D01*
X269663721Y-97551742D02*
X269604198Y-97646980D01*
X269604198Y-97646980D02*
X269550626Y-97694600D01*
X269550626Y-97694600D02*
X269449436Y-97742219D01*
X269449436Y-97742219D02*
X269306579Y-97742219D01*
X270068483Y-97742219D02*
X270151817Y-97075552D01*
X270128007Y-97266028D02*
X270187531Y-97170790D01*
X270187531Y-97170790D02*
X270241102Y-97123171D01*
X270241102Y-97123171D02*
X270342293Y-97075552D01*
X270342293Y-97075552D02*
X270437531Y-97075552D01*
D10*
X194602693Y-168620038D02*
X194507455Y-168572419D01*
X194507455Y-168572419D02*
X194364598Y-168572419D01*
X194364598Y-168572419D02*
X194221741Y-168620038D01*
X194221741Y-168620038D02*
X194126503Y-168715276D01*
X194126503Y-168715276D02*
X194078884Y-168810514D01*
X194078884Y-168810514D02*
X194031265Y-169000990D01*
X194031265Y-169000990D02*
X194031265Y-169143847D01*
X194031265Y-169143847D02*
X194078884Y-169334323D01*
X194078884Y-169334323D02*
X194126503Y-169429561D01*
X194126503Y-169429561D02*
X194221741Y-169524800D01*
X194221741Y-169524800D02*
X194364598Y-169572419D01*
X194364598Y-169572419D02*
X194459836Y-169572419D01*
X194459836Y-169572419D02*
X194602693Y-169524800D01*
X194602693Y-169524800D02*
X194650312Y-169477180D01*
X194650312Y-169477180D02*
X194650312Y-169143847D01*
X194650312Y-169143847D02*
X194459836Y-169143847D01*
X195078884Y-169572419D02*
X195078884Y-168572419D01*
X195078884Y-168572419D02*
X195650312Y-169572419D01*
X195650312Y-169572419D02*
X195650312Y-168572419D01*
X196126503Y-169572419D02*
X196126503Y-168572419D01*
X196126503Y-168572419D02*
X196364598Y-168572419D01*
X196364598Y-168572419D02*
X196507455Y-168620038D01*
X196507455Y-168620038D02*
X196602693Y-168715276D01*
X196602693Y-168715276D02*
X196650312Y-168810514D01*
X196650312Y-168810514D02*
X196697931Y-169000990D01*
X196697931Y-169000990D02*
X196697931Y-169143847D01*
X196697931Y-169143847D02*
X196650312Y-169334323D01*
X196650312Y-169334323D02*
X196602693Y-169429561D01*
X196602693Y-169429561D02*
X196507455Y-169524800D01*
X196507455Y-169524800D02*
X196364598Y-169572419D01*
X196364598Y-169572419D02*
X196126503Y-169572419D01*
X253677693Y-88265038D02*
X253582455Y-88217419D01*
X253582455Y-88217419D02*
X253439598Y-88217419D01*
X253439598Y-88217419D02*
X253296741Y-88265038D01*
X253296741Y-88265038D02*
X253201503Y-88360276D01*
X253201503Y-88360276D02*
X253153884Y-88455514D01*
X253153884Y-88455514D02*
X253106265Y-88645990D01*
X253106265Y-88645990D02*
X253106265Y-88788847D01*
X253106265Y-88788847D02*
X253153884Y-88979323D01*
X253153884Y-88979323D02*
X253201503Y-89074561D01*
X253201503Y-89074561D02*
X253296741Y-89169800D01*
X253296741Y-89169800D02*
X253439598Y-89217419D01*
X253439598Y-89217419D02*
X253534836Y-89217419D01*
X253534836Y-89217419D02*
X253677693Y-89169800D01*
X253677693Y-89169800D02*
X253725312Y-89122180D01*
X253725312Y-89122180D02*
X253725312Y-88788847D01*
X253725312Y-88788847D02*
X253534836Y-88788847D01*
X254153884Y-89217419D02*
X254153884Y-88217419D01*
X254153884Y-88217419D02*
X254725312Y-89217419D01*
X254725312Y-89217419D02*
X254725312Y-88217419D01*
X255201503Y-89217419D02*
X255201503Y-88217419D01*
X255201503Y-88217419D02*
X255439598Y-88217419D01*
X255439598Y-88217419D02*
X255582455Y-88265038D01*
X255582455Y-88265038D02*
X255677693Y-88360276D01*
X255677693Y-88360276D02*
X255725312Y-88455514D01*
X255725312Y-88455514D02*
X255772931Y-88645990D01*
X255772931Y-88645990D02*
X255772931Y-88788847D01*
X255772931Y-88788847D02*
X255725312Y-88979323D01*
X255725312Y-88979323D02*
X255677693Y-89074561D01*
X255677693Y-89074561D02*
X255582455Y-89169800D01*
X255582455Y-89169800D02*
X255439598Y-89217419D01*
X255439598Y-89217419D02*
X255201503Y-89217419D01*
X253405074Y-72742419D02*
X252928884Y-72742419D01*
X252928884Y-72742419D02*
X252881265Y-73218609D01*
X252881265Y-73218609D02*
X252928884Y-73170990D01*
X252928884Y-73170990D02*
X253024122Y-73123371D01*
X253024122Y-73123371D02*
X253262217Y-73123371D01*
X253262217Y-73123371D02*
X253357455Y-73170990D01*
X253357455Y-73170990D02*
X253405074Y-73218609D01*
X253405074Y-73218609D02*
X253452693Y-73313847D01*
X253452693Y-73313847D02*
X253452693Y-73551942D01*
X253452693Y-73551942D02*
X253405074Y-73647180D01*
X253405074Y-73647180D02*
X253357455Y-73694800D01*
X253357455Y-73694800D02*
X253262217Y-73742419D01*
X253262217Y-73742419D02*
X253024122Y-73742419D01*
X253024122Y-73742419D02*
X252928884Y-73694800D01*
X252928884Y-73694800D02*
X252881265Y-73647180D01*
X253738408Y-72742419D02*
X254071741Y-73742419D01*
X254071741Y-73742419D02*
X254405074Y-72742419D01*
X249302693Y-137795038D02*
X249207455Y-137747419D01*
X249207455Y-137747419D02*
X249064598Y-137747419D01*
X249064598Y-137747419D02*
X248921741Y-137795038D01*
X248921741Y-137795038D02*
X248826503Y-137890276D01*
X248826503Y-137890276D02*
X248778884Y-137985514D01*
X248778884Y-137985514D02*
X248731265Y-138175990D01*
X248731265Y-138175990D02*
X248731265Y-138318847D01*
X248731265Y-138318847D02*
X248778884Y-138509323D01*
X248778884Y-138509323D02*
X248826503Y-138604561D01*
X248826503Y-138604561D02*
X248921741Y-138699800D01*
X248921741Y-138699800D02*
X249064598Y-138747419D01*
X249064598Y-138747419D02*
X249159836Y-138747419D01*
X249159836Y-138747419D02*
X249302693Y-138699800D01*
X249302693Y-138699800D02*
X249350312Y-138652180D01*
X249350312Y-138652180D02*
X249350312Y-138318847D01*
X249350312Y-138318847D02*
X249159836Y-138318847D01*
X249778884Y-138747419D02*
X249778884Y-137747419D01*
X249778884Y-137747419D02*
X250350312Y-138747419D01*
X250350312Y-138747419D02*
X250350312Y-137747419D01*
X250826503Y-138747419D02*
X250826503Y-137747419D01*
X250826503Y-137747419D02*
X251064598Y-137747419D01*
X251064598Y-137747419D02*
X251207455Y-137795038D01*
X251207455Y-137795038D02*
X251302693Y-137890276D01*
X251302693Y-137890276D02*
X251350312Y-137985514D01*
X251350312Y-137985514D02*
X251397931Y-138175990D01*
X251397931Y-138175990D02*
X251397931Y-138318847D01*
X251397931Y-138318847D02*
X251350312Y-138509323D01*
X251350312Y-138509323D02*
X251302693Y-138604561D01*
X251302693Y-138604561D02*
X251207455Y-138699800D01*
X251207455Y-138699800D02*
X251064598Y-138747419D01*
X251064598Y-138747419D02*
X250826503Y-138747419D01*
D12*
X177672054Y-89171980D02*
X177618482Y-89219600D01*
X177618482Y-89219600D02*
X177469673Y-89267219D01*
X177469673Y-89267219D02*
X177374435Y-89267219D01*
X177374435Y-89267219D02*
X177237530Y-89219600D01*
X177237530Y-89219600D02*
X177154197Y-89124361D01*
X177154197Y-89124361D02*
X177118482Y-89029123D01*
X177118482Y-89029123D02*
X177094673Y-88838647D01*
X177094673Y-88838647D02*
X177112530Y-88695790D01*
X177112530Y-88695790D02*
X177183958Y-88505314D01*
X177183958Y-88505314D02*
X177243482Y-88410076D01*
X177243482Y-88410076D02*
X177350625Y-88314838D01*
X177350625Y-88314838D02*
X177499435Y-88267219D01*
X177499435Y-88267219D02*
X177594673Y-88267219D01*
X177594673Y-88267219D02*
X177731578Y-88314838D01*
X177731578Y-88314838D02*
X177773244Y-88362457D01*
X178088720Y-89267219D02*
X178213720Y-88267219D01*
X178517292Y-89267219D02*
X178582768Y-88743409D01*
X178582768Y-88743409D02*
X178547054Y-88648171D01*
X178547054Y-88648171D02*
X178457768Y-88600552D01*
X178457768Y-88600552D02*
X178314911Y-88600552D01*
X178314911Y-88600552D02*
X178213720Y-88648171D01*
X178213720Y-88648171D02*
X178160149Y-88695790D01*
X179422054Y-89267219D02*
X179487530Y-88743409D01*
X179487530Y-88743409D02*
X179451816Y-88648171D01*
X179451816Y-88648171D02*
X179362530Y-88600552D01*
X179362530Y-88600552D02*
X179172054Y-88600552D01*
X179172054Y-88600552D02*
X179070863Y-88648171D01*
X179428006Y-89219600D02*
X179326816Y-89267219D01*
X179326816Y-89267219D02*
X179088720Y-89267219D01*
X179088720Y-89267219D02*
X178999435Y-89219600D01*
X178999435Y-89219600D02*
X178963720Y-89124361D01*
X178963720Y-89124361D02*
X178975625Y-89029123D01*
X178975625Y-89029123D02*
X179035149Y-88933885D01*
X179035149Y-88933885D02*
X179136340Y-88886266D01*
X179136340Y-88886266D02*
X179374435Y-88886266D01*
X179374435Y-88886266D02*
X179475625Y-88838647D01*
X179898244Y-89267219D02*
X179981578Y-88600552D01*
X179969673Y-88695790D02*
X180023244Y-88648171D01*
X180023244Y-88648171D02*
X180124435Y-88600552D01*
X180124435Y-88600552D02*
X180267292Y-88600552D01*
X180267292Y-88600552D02*
X180356578Y-88648171D01*
X180356578Y-88648171D02*
X180392292Y-88743409D01*
X180392292Y-88743409D02*
X180326816Y-89267219D01*
X180392292Y-88743409D02*
X180451816Y-88648171D01*
X180451816Y-88648171D02*
X180553006Y-88600552D01*
X180553006Y-88600552D02*
X180695863Y-88600552D01*
X180695863Y-88600552D02*
X180785149Y-88648171D01*
X180785149Y-88648171D02*
X180820863Y-88743409D01*
X180820863Y-88743409D02*
X180755387Y-89267219D01*
X181231577Y-89267219D02*
X181356577Y-88267219D01*
X181308958Y-88648171D02*
X181410149Y-88600552D01*
X181410149Y-88600552D02*
X181600625Y-88600552D01*
X181600625Y-88600552D02*
X181689911Y-88648171D01*
X181689911Y-88648171D02*
X181731577Y-88695790D01*
X181731577Y-88695790D02*
X181767292Y-88791028D01*
X181767292Y-88791028D02*
X181731577Y-89076742D01*
X181731577Y-89076742D02*
X181672054Y-89171980D01*
X181672054Y-89171980D02*
X181618482Y-89219600D01*
X181618482Y-89219600D02*
X181517292Y-89267219D01*
X181517292Y-89267219D02*
X181326815Y-89267219D01*
X181326815Y-89267219D02*
X181237530Y-89219600D01*
X182523244Y-89219600D02*
X182422054Y-89267219D01*
X182422054Y-89267219D02*
X182231577Y-89267219D01*
X182231577Y-89267219D02*
X182142292Y-89219600D01*
X182142292Y-89219600D02*
X182106577Y-89124361D01*
X182106577Y-89124361D02*
X182154197Y-88743409D01*
X182154197Y-88743409D02*
X182213720Y-88648171D01*
X182213720Y-88648171D02*
X182314911Y-88600552D01*
X182314911Y-88600552D02*
X182505387Y-88600552D01*
X182505387Y-88600552D02*
X182594673Y-88648171D01*
X182594673Y-88648171D02*
X182630387Y-88743409D01*
X182630387Y-88743409D02*
X182618482Y-88838647D01*
X182618482Y-88838647D02*
X182130387Y-88933885D01*
X182993482Y-89267219D02*
X183076816Y-88600552D01*
X183053006Y-88791028D02*
X183112530Y-88695790D01*
X183112530Y-88695790D02*
X183166101Y-88648171D01*
X183166101Y-88648171D02*
X183267292Y-88600552D01*
X183267292Y-88600552D02*
X183362530Y-88600552D01*
X184404197Y-88267219D02*
X184517293Y-89267219D01*
X184517293Y-89267219D02*
X184797054Y-88552933D01*
X184797054Y-88552933D02*
X184898245Y-89267219D01*
X184898245Y-89267219D02*
X185261340Y-88267219D01*
X185945864Y-89267219D02*
X186011340Y-88743409D01*
X186011340Y-88743409D02*
X185975626Y-88648171D01*
X185975626Y-88648171D02*
X185886340Y-88600552D01*
X185886340Y-88600552D02*
X185695864Y-88600552D01*
X185695864Y-88600552D02*
X185594673Y-88648171D01*
X185951816Y-89219600D02*
X185850626Y-89267219D01*
X185850626Y-89267219D02*
X185612530Y-89267219D01*
X185612530Y-89267219D02*
X185523245Y-89219600D01*
X185523245Y-89219600D02*
X185487530Y-89124361D01*
X185487530Y-89124361D02*
X185499435Y-89029123D01*
X185499435Y-89029123D02*
X185558959Y-88933885D01*
X185558959Y-88933885D02*
X185660150Y-88886266D01*
X185660150Y-88886266D02*
X185898245Y-88886266D01*
X185898245Y-88886266D02*
X185999435Y-88838647D01*
X186564912Y-89267219D02*
X186475626Y-89219600D01*
X186475626Y-89219600D02*
X186439912Y-89124361D01*
X186439912Y-89124361D02*
X186547054Y-88267219D01*
X187088722Y-89267219D02*
X186999436Y-89219600D01*
X186999436Y-89219600D02*
X186963722Y-89124361D01*
X186963722Y-89124361D02*
X187070864Y-88267219D01*
X188213722Y-88267219D02*
X188785151Y-88267219D01*
X188374437Y-89267219D02*
X188499437Y-88267219D01*
X189576818Y-89171980D02*
X189523246Y-89219600D01*
X189523246Y-89219600D02*
X189374437Y-89267219D01*
X189374437Y-89267219D02*
X189279199Y-89267219D01*
X189279199Y-89267219D02*
X189142294Y-89219600D01*
X189142294Y-89219600D02*
X189058961Y-89124361D01*
X189058961Y-89124361D02*
X189023246Y-89029123D01*
X189023246Y-89029123D02*
X188999437Y-88838647D01*
X188999437Y-88838647D02*
X189017294Y-88695790D01*
X189017294Y-88695790D02*
X189088722Y-88505314D01*
X189088722Y-88505314D02*
X189148246Y-88410076D01*
X189148246Y-88410076D02*
X189255389Y-88314838D01*
X189255389Y-88314838D02*
X189404199Y-88267219D01*
X189404199Y-88267219D02*
X189499437Y-88267219D01*
X189499437Y-88267219D02*
X189636342Y-88314838D01*
X189636342Y-88314838D02*
X189678008Y-88362457D01*
X190517294Y-89267219D02*
X189945865Y-89267219D01*
X190231580Y-89267219D02*
X190356580Y-88267219D01*
X190356580Y-88267219D02*
X190243484Y-88410076D01*
X190243484Y-88410076D02*
X190136342Y-88505314D01*
X190136342Y-88505314D02*
X190035151Y-88552933D01*
D10*
X176627693Y-147420038D02*
X176532455Y-147372419D01*
X176532455Y-147372419D02*
X176389598Y-147372419D01*
X176389598Y-147372419D02*
X176246741Y-147420038D01*
X176246741Y-147420038D02*
X176151503Y-147515276D01*
X176151503Y-147515276D02*
X176103884Y-147610514D01*
X176103884Y-147610514D02*
X176056265Y-147800990D01*
X176056265Y-147800990D02*
X176056265Y-147943847D01*
X176056265Y-147943847D02*
X176103884Y-148134323D01*
X176103884Y-148134323D02*
X176151503Y-148229561D01*
X176151503Y-148229561D02*
X176246741Y-148324800D01*
X176246741Y-148324800D02*
X176389598Y-148372419D01*
X176389598Y-148372419D02*
X176484836Y-148372419D01*
X176484836Y-148372419D02*
X176627693Y-148324800D01*
X176627693Y-148324800D02*
X176675312Y-148277180D01*
X176675312Y-148277180D02*
X176675312Y-147943847D01*
X176675312Y-147943847D02*
X176484836Y-147943847D01*
X177103884Y-148372419D02*
X177103884Y-147372419D01*
X177103884Y-147372419D02*
X177675312Y-148372419D01*
X177675312Y-148372419D02*
X177675312Y-147372419D01*
X178151503Y-148372419D02*
X178151503Y-147372419D01*
X178151503Y-147372419D02*
X178389598Y-147372419D01*
X178389598Y-147372419D02*
X178532455Y-147420038D01*
X178532455Y-147420038D02*
X178627693Y-147515276D01*
X178627693Y-147515276D02*
X178675312Y-147610514D01*
X178675312Y-147610514D02*
X178722931Y-147800990D01*
X178722931Y-147800990D02*
X178722931Y-147943847D01*
X178722931Y-147943847D02*
X178675312Y-148134323D01*
X178675312Y-148134323D02*
X178627693Y-148229561D01*
X178627693Y-148229561D02*
X178532455Y-148324800D01*
X178532455Y-148324800D02*
X178389598Y-148372419D01*
X178389598Y-148372419D02*
X178151503Y-148372419D01*
D12*
X178622054Y-109221980D02*
X178568482Y-109269600D01*
X178568482Y-109269600D02*
X178419673Y-109317219D01*
X178419673Y-109317219D02*
X178324435Y-109317219D01*
X178324435Y-109317219D02*
X178187530Y-109269600D01*
X178187530Y-109269600D02*
X178104197Y-109174361D01*
X178104197Y-109174361D02*
X178068482Y-109079123D01*
X178068482Y-109079123D02*
X178044673Y-108888647D01*
X178044673Y-108888647D02*
X178062530Y-108745790D01*
X178062530Y-108745790D02*
X178133958Y-108555314D01*
X178133958Y-108555314D02*
X178193482Y-108460076D01*
X178193482Y-108460076D02*
X178300625Y-108364838D01*
X178300625Y-108364838D02*
X178449435Y-108317219D01*
X178449435Y-108317219D02*
X178544673Y-108317219D01*
X178544673Y-108317219D02*
X178681578Y-108364838D01*
X178681578Y-108364838D02*
X178723244Y-108412457D01*
X179038720Y-109317219D02*
X179163720Y-108317219D01*
X179467292Y-109317219D02*
X179532768Y-108793409D01*
X179532768Y-108793409D02*
X179497054Y-108698171D01*
X179497054Y-108698171D02*
X179407768Y-108650552D01*
X179407768Y-108650552D02*
X179264911Y-108650552D01*
X179264911Y-108650552D02*
X179163720Y-108698171D01*
X179163720Y-108698171D02*
X179110149Y-108745790D01*
X180372054Y-109317219D02*
X180437530Y-108793409D01*
X180437530Y-108793409D02*
X180401816Y-108698171D01*
X180401816Y-108698171D02*
X180312530Y-108650552D01*
X180312530Y-108650552D02*
X180122054Y-108650552D01*
X180122054Y-108650552D02*
X180020863Y-108698171D01*
X180378006Y-109269600D02*
X180276816Y-109317219D01*
X180276816Y-109317219D02*
X180038720Y-109317219D01*
X180038720Y-109317219D02*
X179949435Y-109269600D01*
X179949435Y-109269600D02*
X179913720Y-109174361D01*
X179913720Y-109174361D02*
X179925625Y-109079123D01*
X179925625Y-109079123D02*
X179985149Y-108983885D01*
X179985149Y-108983885D02*
X180086340Y-108936266D01*
X180086340Y-108936266D02*
X180324435Y-108936266D01*
X180324435Y-108936266D02*
X180425625Y-108888647D01*
X180848244Y-109317219D02*
X180931578Y-108650552D01*
X180919673Y-108745790D02*
X180973244Y-108698171D01*
X180973244Y-108698171D02*
X181074435Y-108650552D01*
X181074435Y-108650552D02*
X181217292Y-108650552D01*
X181217292Y-108650552D02*
X181306578Y-108698171D01*
X181306578Y-108698171D02*
X181342292Y-108793409D01*
X181342292Y-108793409D02*
X181276816Y-109317219D01*
X181342292Y-108793409D02*
X181401816Y-108698171D01*
X181401816Y-108698171D02*
X181503006Y-108650552D01*
X181503006Y-108650552D02*
X181645863Y-108650552D01*
X181645863Y-108650552D02*
X181735149Y-108698171D01*
X181735149Y-108698171D02*
X181770863Y-108793409D01*
X181770863Y-108793409D02*
X181705387Y-109317219D01*
X182181577Y-109317219D02*
X182306577Y-108317219D01*
X182258958Y-108698171D02*
X182360149Y-108650552D01*
X182360149Y-108650552D02*
X182550625Y-108650552D01*
X182550625Y-108650552D02*
X182639911Y-108698171D01*
X182639911Y-108698171D02*
X182681577Y-108745790D01*
X182681577Y-108745790D02*
X182717292Y-108841028D01*
X182717292Y-108841028D02*
X182681577Y-109126742D01*
X182681577Y-109126742D02*
X182622054Y-109221980D01*
X182622054Y-109221980D02*
X182568482Y-109269600D01*
X182568482Y-109269600D02*
X182467292Y-109317219D01*
X182467292Y-109317219D02*
X182276815Y-109317219D01*
X182276815Y-109317219D02*
X182187530Y-109269600D01*
X183473244Y-109269600D02*
X183372054Y-109317219D01*
X183372054Y-109317219D02*
X183181577Y-109317219D01*
X183181577Y-109317219D02*
X183092292Y-109269600D01*
X183092292Y-109269600D02*
X183056577Y-109174361D01*
X183056577Y-109174361D02*
X183104197Y-108793409D01*
X183104197Y-108793409D02*
X183163720Y-108698171D01*
X183163720Y-108698171D02*
X183264911Y-108650552D01*
X183264911Y-108650552D02*
X183455387Y-108650552D01*
X183455387Y-108650552D02*
X183544673Y-108698171D01*
X183544673Y-108698171D02*
X183580387Y-108793409D01*
X183580387Y-108793409D02*
X183568482Y-108888647D01*
X183568482Y-108888647D02*
X183080387Y-108983885D01*
X183943482Y-109317219D02*
X184026816Y-108650552D01*
X184003006Y-108841028D02*
X184062530Y-108745790D01*
X184062530Y-108745790D02*
X184116101Y-108698171D01*
X184116101Y-108698171D02*
X184217292Y-108650552D01*
X184217292Y-108650552D02*
X184312530Y-108650552D01*
X185324435Y-109317219D02*
X185449435Y-108317219D01*
X185449435Y-108317219D02*
X185830388Y-108317219D01*
X185830388Y-108317219D02*
X185919673Y-108364838D01*
X185919673Y-108364838D02*
X185961340Y-108412457D01*
X185961340Y-108412457D02*
X185997054Y-108507695D01*
X185997054Y-108507695D02*
X185979197Y-108650552D01*
X185979197Y-108650552D02*
X185919673Y-108745790D01*
X185919673Y-108745790D02*
X185866102Y-108793409D01*
X185866102Y-108793409D02*
X185764912Y-108841028D01*
X185764912Y-108841028D02*
X185383959Y-108841028D01*
X186306578Y-108317219D02*
X186878007Y-108317219D01*
X186467293Y-109317219D02*
X186592293Y-108317219D01*
D10*
X187578884Y-86941466D02*
X188340789Y-86941466D01*
X187959836Y-87322419D02*
X187959836Y-86560514D01*
X253081265Y-86494800D02*
X253224122Y-86542419D01*
X253224122Y-86542419D02*
X253462217Y-86542419D01*
X253462217Y-86542419D02*
X253557455Y-86494800D01*
X253557455Y-86494800D02*
X253605074Y-86447180D01*
X253605074Y-86447180D02*
X253652693Y-86351942D01*
X253652693Y-86351942D02*
X253652693Y-86256704D01*
X253652693Y-86256704D02*
X253605074Y-86161466D01*
X253605074Y-86161466D02*
X253557455Y-86113847D01*
X253557455Y-86113847D02*
X253462217Y-86066228D01*
X253462217Y-86066228D02*
X253271741Y-86018609D01*
X253271741Y-86018609D02*
X253176503Y-85970990D01*
X253176503Y-85970990D02*
X253128884Y-85923371D01*
X253128884Y-85923371D02*
X253081265Y-85828133D01*
X253081265Y-85828133D02*
X253081265Y-85732895D01*
X253081265Y-85732895D02*
X253128884Y-85637657D01*
X253128884Y-85637657D02*
X253176503Y-85590038D01*
X253176503Y-85590038D02*
X253271741Y-85542419D01*
X253271741Y-85542419D02*
X253509836Y-85542419D01*
X253509836Y-85542419D02*
X253652693Y-85590038D01*
X254652693Y-86447180D02*
X254605074Y-86494800D01*
X254605074Y-86494800D02*
X254462217Y-86542419D01*
X254462217Y-86542419D02*
X254366979Y-86542419D01*
X254366979Y-86542419D02*
X254224122Y-86494800D01*
X254224122Y-86494800D02*
X254128884Y-86399561D01*
X254128884Y-86399561D02*
X254081265Y-86304323D01*
X254081265Y-86304323D02*
X254033646Y-86113847D01*
X254033646Y-86113847D02*
X254033646Y-85970990D01*
X254033646Y-85970990D02*
X254081265Y-85780514D01*
X254081265Y-85780514D02*
X254128884Y-85685276D01*
X254128884Y-85685276D02*
X254224122Y-85590038D01*
X254224122Y-85590038D02*
X254366979Y-85542419D01*
X254366979Y-85542419D02*
X254462217Y-85542419D01*
X254462217Y-85542419D02*
X254605074Y-85590038D01*
X254605074Y-85590038D02*
X254652693Y-85637657D01*
X255081265Y-86542419D02*
X255081265Y-85542419D01*
X255652693Y-86542419D02*
X255224122Y-85970990D01*
X255652693Y-85542419D02*
X255081265Y-86113847D01*
X256700313Y-85542419D02*
X257271741Y-85542419D01*
X256986027Y-86542419D02*
X256986027Y-85542419D01*
X258176503Y-86447180D02*
X258128884Y-86494800D01*
X258128884Y-86494800D02*
X257986027Y-86542419D01*
X257986027Y-86542419D02*
X257890789Y-86542419D01*
X257890789Y-86542419D02*
X257747932Y-86494800D01*
X257747932Y-86494800D02*
X257652694Y-86399561D01*
X257652694Y-86399561D02*
X257605075Y-86304323D01*
X257605075Y-86304323D02*
X257557456Y-86113847D01*
X257557456Y-86113847D02*
X257557456Y-85970990D01*
X257557456Y-85970990D02*
X257605075Y-85780514D01*
X257605075Y-85780514D02*
X257652694Y-85685276D01*
X257652694Y-85685276D02*
X257747932Y-85590038D01*
X257747932Y-85590038D02*
X257890789Y-85542419D01*
X257890789Y-85542419D02*
X257986027Y-85542419D01*
X257986027Y-85542419D02*
X258128884Y-85590038D01*
X258128884Y-85590038D02*
X258176503Y-85637657D01*
X258605075Y-86542419D02*
X258605075Y-85542419D01*
X259652693Y-86447180D02*
X259605074Y-86494800D01*
X259605074Y-86494800D02*
X259462217Y-86542419D01*
X259462217Y-86542419D02*
X259366979Y-86542419D01*
X259366979Y-86542419D02*
X259224122Y-86494800D01*
X259224122Y-86494800D02*
X259128884Y-86399561D01*
X259128884Y-86399561D02*
X259081265Y-86304323D01*
X259081265Y-86304323D02*
X259033646Y-86113847D01*
X259033646Y-86113847D02*
X259033646Y-85970990D01*
X259033646Y-85970990D02*
X259081265Y-85780514D01*
X259081265Y-85780514D02*
X259128884Y-85685276D01*
X259128884Y-85685276D02*
X259224122Y-85590038D01*
X259224122Y-85590038D02*
X259366979Y-85542419D01*
X259366979Y-85542419D02*
X259462217Y-85542419D01*
X259462217Y-85542419D02*
X259605074Y-85590038D01*
X259605074Y-85590038D02*
X259652693Y-85637657D01*
D12*
X248537530Y-110693409D02*
X248204197Y-110693409D01*
X248138720Y-111217219D02*
X248263720Y-110217219D01*
X248263720Y-110217219D02*
X248739911Y-110217219D01*
X249507768Y-110550552D02*
X249424435Y-111217219D01*
X249079197Y-110550552D02*
X249013721Y-111074361D01*
X249013721Y-111074361D02*
X249049435Y-111169600D01*
X249049435Y-111169600D02*
X249138721Y-111217219D01*
X249138721Y-111217219D02*
X249281578Y-111217219D01*
X249281578Y-111217219D02*
X249382768Y-111169600D01*
X249382768Y-111169600D02*
X249436340Y-111121980D01*
X250287530Y-111169600D02*
X250186340Y-111217219D01*
X250186340Y-111217219D02*
X249995863Y-111217219D01*
X249995863Y-111217219D02*
X249906578Y-111169600D01*
X249906578Y-111169600D02*
X249870863Y-111074361D01*
X249870863Y-111074361D02*
X249918483Y-110693409D01*
X249918483Y-110693409D02*
X249978006Y-110598171D01*
X249978006Y-110598171D02*
X250079197Y-110550552D01*
X250079197Y-110550552D02*
X250269673Y-110550552D01*
X250269673Y-110550552D02*
X250358959Y-110598171D01*
X250358959Y-110598171D02*
X250394673Y-110693409D01*
X250394673Y-110693409D02*
X250382768Y-110788647D01*
X250382768Y-110788647D02*
X249894673Y-110883885D01*
X250900626Y-111217219D02*
X250811340Y-111169600D01*
X250811340Y-111169600D02*
X250775626Y-111074361D01*
X250775626Y-111074361D02*
X250882768Y-110217219D01*
X252472055Y-111217219D02*
X252597055Y-110217219D01*
X252478007Y-111169600D02*
X252376817Y-111217219D01*
X252376817Y-111217219D02*
X252186341Y-111217219D01*
X252186341Y-111217219D02*
X252097055Y-111169600D01*
X252097055Y-111169600D02*
X252055388Y-111121980D01*
X252055388Y-111121980D02*
X252019674Y-111026742D01*
X252019674Y-111026742D02*
X252055388Y-110741028D01*
X252055388Y-110741028D02*
X252114912Y-110645790D01*
X252114912Y-110645790D02*
X252168483Y-110598171D01*
X252168483Y-110598171D02*
X252269674Y-110550552D01*
X252269674Y-110550552D02*
X252460150Y-110550552D01*
X252460150Y-110550552D02*
X252549436Y-110598171D01*
X252948245Y-111217219D02*
X253073245Y-110217219D01*
X253073245Y-110217219D02*
X253454198Y-110217219D01*
X253454198Y-110217219D02*
X253543483Y-110264838D01*
X253543483Y-110264838D02*
X253585150Y-110312457D01*
X253585150Y-110312457D02*
X253620864Y-110407695D01*
X253620864Y-110407695D02*
X253603007Y-110550552D01*
X253603007Y-110550552D02*
X253543483Y-110645790D01*
X253543483Y-110645790D02*
X253489912Y-110693409D01*
X253489912Y-110693409D02*
X253388722Y-110741028D01*
X253388722Y-110741028D02*
X253007769Y-110741028D01*
X253930388Y-110217219D02*
X254501817Y-110217219D01*
X254091103Y-111217219D02*
X254216103Y-110217219D01*
D10*
X238778884Y-78967419D02*
X238778884Y-77967419D01*
X238778884Y-77967419D02*
X239112217Y-78681704D01*
X239112217Y-78681704D02*
X239445550Y-77967419D01*
X239445550Y-77967419D02*
X239445550Y-78967419D01*
X240112217Y-77967419D02*
X240302693Y-77967419D01*
X240302693Y-77967419D02*
X240397931Y-78015038D01*
X240397931Y-78015038D02*
X240493169Y-78110276D01*
X240493169Y-78110276D02*
X240540788Y-78300752D01*
X240540788Y-78300752D02*
X240540788Y-78634085D01*
X240540788Y-78634085D02*
X240493169Y-78824561D01*
X240493169Y-78824561D02*
X240397931Y-78919800D01*
X240397931Y-78919800D02*
X240302693Y-78967419D01*
X240302693Y-78967419D02*
X240112217Y-78967419D01*
X240112217Y-78967419D02*
X240016979Y-78919800D01*
X240016979Y-78919800D02*
X239921741Y-78824561D01*
X239921741Y-78824561D02*
X239874122Y-78634085D01*
X239874122Y-78634085D02*
X239874122Y-78300752D01*
X239874122Y-78300752D02*
X239921741Y-78110276D01*
X239921741Y-78110276D02*
X240016979Y-78015038D01*
X240016979Y-78015038D02*
X240112217Y-77967419D01*
X240921741Y-78919800D02*
X241064598Y-78967419D01*
X241064598Y-78967419D02*
X241302693Y-78967419D01*
X241302693Y-78967419D02*
X241397931Y-78919800D01*
X241397931Y-78919800D02*
X241445550Y-78872180D01*
X241445550Y-78872180D02*
X241493169Y-78776942D01*
X241493169Y-78776942D02*
X241493169Y-78681704D01*
X241493169Y-78681704D02*
X241445550Y-78586466D01*
X241445550Y-78586466D02*
X241397931Y-78538847D01*
X241397931Y-78538847D02*
X241302693Y-78491228D01*
X241302693Y-78491228D02*
X241112217Y-78443609D01*
X241112217Y-78443609D02*
X241016979Y-78395990D01*
X241016979Y-78395990D02*
X240969360Y-78348371D01*
X240969360Y-78348371D02*
X240921741Y-78253133D01*
X240921741Y-78253133D02*
X240921741Y-78157895D01*
X240921741Y-78157895D02*
X240969360Y-78062657D01*
X240969360Y-78062657D02*
X241016979Y-78015038D01*
X241016979Y-78015038D02*
X241112217Y-77967419D01*
X241112217Y-77967419D02*
X241350312Y-77967419D01*
X241350312Y-77967419D02*
X241493169Y-78015038D01*
X241921741Y-78967419D02*
X241921741Y-77967419D01*
X243112217Y-78681704D02*
X243588407Y-78681704D01*
X243016979Y-78967419D02*
X243350312Y-77967419D01*
X243350312Y-77967419D02*
X243683645Y-78967419D01*
X244016979Y-78967419D02*
X244016979Y-77967419D01*
X244016979Y-77967419D02*
X244255074Y-77967419D01*
X244255074Y-77967419D02*
X244397931Y-78015038D01*
X244397931Y-78015038D02*
X244493169Y-78110276D01*
X244493169Y-78110276D02*
X244540788Y-78205514D01*
X244540788Y-78205514D02*
X244588407Y-78395990D01*
X244588407Y-78395990D02*
X244588407Y-78538847D01*
X244588407Y-78538847D02*
X244540788Y-78729323D01*
X244540788Y-78729323D02*
X244493169Y-78824561D01*
X244493169Y-78824561D02*
X244397931Y-78919800D01*
X244397931Y-78919800D02*
X244255074Y-78967419D01*
X244255074Y-78967419D02*
X244016979Y-78967419D01*
X245588407Y-78872180D02*
X245540788Y-78919800D01*
X245540788Y-78919800D02*
X245397931Y-78967419D01*
X245397931Y-78967419D02*
X245302693Y-78967419D01*
X245302693Y-78967419D02*
X245159836Y-78919800D01*
X245159836Y-78919800D02*
X245064598Y-78824561D01*
X245064598Y-78824561D02*
X245016979Y-78729323D01*
X245016979Y-78729323D02*
X244969360Y-78538847D01*
X244969360Y-78538847D02*
X244969360Y-78395990D01*
X244969360Y-78395990D02*
X245016979Y-78205514D01*
X245016979Y-78205514D02*
X245064598Y-78110276D01*
X245064598Y-78110276D02*
X245159836Y-78015038D01*
X245159836Y-78015038D02*
X245302693Y-77967419D01*
X245302693Y-77967419D02*
X245397931Y-77967419D01*
X245397931Y-77967419D02*
X245540788Y-78015038D01*
X245540788Y-78015038D02*
X245588407Y-78062657D01*
X182731265Y-153974800D02*
X182874122Y-154022419D01*
X182874122Y-154022419D02*
X183112217Y-154022419D01*
X183112217Y-154022419D02*
X183207455Y-153974800D01*
X183207455Y-153974800D02*
X183255074Y-153927180D01*
X183255074Y-153927180D02*
X183302693Y-153831942D01*
X183302693Y-153831942D02*
X183302693Y-153736704D01*
X183302693Y-153736704D02*
X183255074Y-153641466D01*
X183255074Y-153641466D02*
X183207455Y-153593847D01*
X183207455Y-153593847D02*
X183112217Y-153546228D01*
X183112217Y-153546228D02*
X182921741Y-153498609D01*
X182921741Y-153498609D02*
X182826503Y-153450990D01*
X182826503Y-153450990D02*
X182778884Y-153403371D01*
X182778884Y-153403371D02*
X182731265Y-153308133D01*
X182731265Y-153308133D02*
X182731265Y-153212895D01*
X182731265Y-153212895D02*
X182778884Y-153117657D01*
X182778884Y-153117657D02*
X182826503Y-153070038D01*
X182826503Y-153070038D02*
X182921741Y-153022419D01*
X182921741Y-153022419D02*
X183159836Y-153022419D01*
X183159836Y-153022419D02*
X183302693Y-153070038D01*
X183731265Y-154022419D02*
X183731265Y-153355752D01*
X183731265Y-153022419D02*
X183683646Y-153070038D01*
X183683646Y-153070038D02*
X183731265Y-153117657D01*
X183731265Y-153117657D02*
X183778884Y-153070038D01*
X183778884Y-153070038D02*
X183731265Y-153022419D01*
X183731265Y-153022419D02*
X183731265Y-153117657D01*
X184636026Y-153355752D02*
X184636026Y-154165276D01*
X184636026Y-154165276D02*
X184588407Y-154260514D01*
X184588407Y-154260514D02*
X184540788Y-154308133D01*
X184540788Y-154308133D02*
X184445550Y-154355752D01*
X184445550Y-154355752D02*
X184302693Y-154355752D01*
X184302693Y-154355752D02*
X184207455Y-154308133D01*
X184636026Y-153974800D02*
X184540788Y-154022419D01*
X184540788Y-154022419D02*
X184350312Y-154022419D01*
X184350312Y-154022419D02*
X184255074Y-153974800D01*
X184255074Y-153974800D02*
X184207455Y-153927180D01*
X184207455Y-153927180D02*
X184159836Y-153831942D01*
X184159836Y-153831942D02*
X184159836Y-153546228D01*
X184159836Y-153546228D02*
X184207455Y-153450990D01*
X184207455Y-153450990D02*
X184255074Y-153403371D01*
X184255074Y-153403371D02*
X184350312Y-153355752D01*
X184350312Y-153355752D02*
X184540788Y-153355752D01*
X184540788Y-153355752D02*
X184636026Y-153403371D01*
D12*
X249372054Y-176121980D02*
X249318482Y-176169600D01*
X249318482Y-176169600D02*
X249169673Y-176217219D01*
X249169673Y-176217219D02*
X249074435Y-176217219D01*
X249074435Y-176217219D02*
X248937530Y-176169600D01*
X248937530Y-176169600D02*
X248854197Y-176074361D01*
X248854197Y-176074361D02*
X248818482Y-175979123D01*
X248818482Y-175979123D02*
X248794673Y-175788647D01*
X248794673Y-175788647D02*
X248812530Y-175645790D01*
X248812530Y-175645790D02*
X248883958Y-175455314D01*
X248883958Y-175455314D02*
X248943482Y-175360076D01*
X248943482Y-175360076D02*
X249050625Y-175264838D01*
X249050625Y-175264838D02*
X249199435Y-175217219D01*
X249199435Y-175217219D02*
X249294673Y-175217219D01*
X249294673Y-175217219D02*
X249431578Y-175264838D01*
X249431578Y-175264838D02*
X249473244Y-175312457D01*
X249931578Y-176217219D02*
X249842292Y-176169600D01*
X249842292Y-176169600D02*
X249800625Y-176121980D01*
X249800625Y-176121980D02*
X249764911Y-176026742D01*
X249764911Y-176026742D02*
X249800625Y-175741028D01*
X249800625Y-175741028D02*
X249860149Y-175645790D01*
X249860149Y-175645790D02*
X249913720Y-175598171D01*
X249913720Y-175598171D02*
X250014911Y-175550552D01*
X250014911Y-175550552D02*
X250157768Y-175550552D01*
X250157768Y-175550552D02*
X250247054Y-175598171D01*
X250247054Y-175598171D02*
X250288720Y-175645790D01*
X250288720Y-175645790D02*
X250324435Y-175741028D01*
X250324435Y-175741028D02*
X250288720Y-176026742D01*
X250288720Y-176026742D02*
X250229197Y-176121980D01*
X250229197Y-176121980D02*
X250175625Y-176169600D01*
X250175625Y-176169600D02*
X250074435Y-176217219D01*
X250074435Y-176217219D02*
X249931578Y-176217219D01*
X250836340Y-176217219D02*
X250747054Y-176169600D01*
X250747054Y-176169600D02*
X250705387Y-176121980D01*
X250705387Y-176121980D02*
X250669673Y-176026742D01*
X250669673Y-176026742D02*
X250705387Y-175741028D01*
X250705387Y-175741028D02*
X250764911Y-175645790D01*
X250764911Y-175645790D02*
X250818482Y-175598171D01*
X250818482Y-175598171D02*
X250919673Y-175550552D01*
X250919673Y-175550552D02*
X251062530Y-175550552D01*
X251062530Y-175550552D02*
X251151816Y-175598171D01*
X251151816Y-175598171D02*
X251193482Y-175645790D01*
X251193482Y-175645790D02*
X251229197Y-175741028D01*
X251229197Y-175741028D02*
X251193482Y-176026742D01*
X251193482Y-176026742D02*
X251133959Y-176121980D01*
X251133959Y-176121980D02*
X251080387Y-176169600D01*
X251080387Y-176169600D02*
X250979197Y-176217219D01*
X250979197Y-176217219D02*
X250836340Y-176217219D01*
X251741102Y-176217219D02*
X251651816Y-176169600D01*
X251651816Y-176169600D02*
X251616102Y-176074361D01*
X251616102Y-176074361D02*
X251723244Y-175217219D01*
X252122054Y-176217219D02*
X252205388Y-175550552D01*
X252247054Y-175217219D02*
X252193483Y-175264838D01*
X252193483Y-175264838D02*
X252235150Y-175312457D01*
X252235150Y-175312457D02*
X252288721Y-175264838D01*
X252288721Y-175264838D02*
X252247054Y-175217219D01*
X252247054Y-175217219D02*
X252235150Y-175312457D01*
X252681578Y-175550552D02*
X252598244Y-176217219D01*
X252669673Y-175645790D02*
X252723244Y-175598171D01*
X252723244Y-175598171D02*
X252824435Y-175550552D01*
X252824435Y-175550552D02*
X252967292Y-175550552D01*
X252967292Y-175550552D02*
X253056578Y-175598171D01*
X253056578Y-175598171D02*
X253092292Y-175693409D01*
X253092292Y-175693409D02*
X253026816Y-176217219D01*
X254014911Y-175550552D02*
X253913721Y-176360076D01*
X253913721Y-176360076D02*
X253854197Y-176455314D01*
X253854197Y-176455314D02*
X253800625Y-176502933D01*
X253800625Y-176502933D02*
X253699435Y-176550552D01*
X253699435Y-176550552D02*
X253556578Y-176550552D01*
X253556578Y-176550552D02*
X253467292Y-176502933D01*
X253937530Y-176169600D02*
X253836340Y-176217219D01*
X253836340Y-176217219D02*
X253645864Y-176217219D01*
X253645864Y-176217219D02*
X253556578Y-176169600D01*
X253556578Y-176169600D02*
X253514911Y-176121980D01*
X253514911Y-176121980D02*
X253479197Y-176026742D01*
X253479197Y-176026742D02*
X253514911Y-175741028D01*
X253514911Y-175741028D02*
X253574435Y-175645790D01*
X253574435Y-175645790D02*
X253628006Y-175598171D01*
X253628006Y-175598171D02*
X253729197Y-175550552D01*
X253729197Y-175550552D02*
X253919673Y-175550552D01*
X253919673Y-175550552D02*
X254008959Y-175598171D01*
X255568483Y-175693409D02*
X255235150Y-175693409D01*
X255169673Y-176217219D02*
X255294673Y-175217219D01*
X255294673Y-175217219D02*
X255770864Y-175217219D01*
X256455388Y-176217219D02*
X256520864Y-175693409D01*
X256520864Y-175693409D02*
X256485150Y-175598171D01*
X256485150Y-175598171D02*
X256395864Y-175550552D01*
X256395864Y-175550552D02*
X256205388Y-175550552D01*
X256205388Y-175550552D02*
X256104197Y-175598171D01*
X256461340Y-176169600D02*
X256360150Y-176217219D01*
X256360150Y-176217219D02*
X256122054Y-176217219D01*
X256122054Y-176217219D02*
X256032769Y-176169600D01*
X256032769Y-176169600D02*
X255997054Y-176074361D01*
X255997054Y-176074361D02*
X256008959Y-175979123D01*
X256008959Y-175979123D02*
X256068483Y-175883885D01*
X256068483Y-175883885D02*
X256169674Y-175836266D01*
X256169674Y-175836266D02*
X256407769Y-175836266D01*
X256407769Y-175836266D02*
X256508959Y-175788647D01*
X257014912Y-175550552D02*
X256931578Y-176217219D01*
X257003007Y-175645790D02*
X257056578Y-175598171D01*
X257056578Y-175598171D02*
X257157769Y-175550552D01*
X257157769Y-175550552D02*
X257300626Y-175550552D01*
X257300626Y-175550552D02*
X257389912Y-175598171D01*
X257389912Y-175598171D02*
X257425626Y-175693409D01*
X257425626Y-175693409D02*
X257360150Y-176217219D01*
D10*
X248327693Y-107270038D02*
X248232455Y-107222419D01*
X248232455Y-107222419D02*
X248089598Y-107222419D01*
X248089598Y-107222419D02*
X247946741Y-107270038D01*
X247946741Y-107270038D02*
X247851503Y-107365276D01*
X247851503Y-107365276D02*
X247803884Y-107460514D01*
X247803884Y-107460514D02*
X247756265Y-107650990D01*
X247756265Y-107650990D02*
X247756265Y-107793847D01*
X247756265Y-107793847D02*
X247803884Y-107984323D01*
X247803884Y-107984323D02*
X247851503Y-108079561D01*
X247851503Y-108079561D02*
X247946741Y-108174800D01*
X247946741Y-108174800D02*
X248089598Y-108222419D01*
X248089598Y-108222419D02*
X248184836Y-108222419D01*
X248184836Y-108222419D02*
X248327693Y-108174800D01*
X248327693Y-108174800D02*
X248375312Y-108127180D01*
X248375312Y-108127180D02*
X248375312Y-107793847D01*
X248375312Y-107793847D02*
X248184836Y-107793847D01*
X248803884Y-108222419D02*
X248803884Y-107222419D01*
X248803884Y-107222419D02*
X249375312Y-108222419D01*
X249375312Y-108222419D02*
X249375312Y-107222419D01*
X249851503Y-108222419D02*
X249851503Y-107222419D01*
X249851503Y-107222419D02*
X250089598Y-107222419D01*
X250089598Y-107222419D02*
X250232455Y-107270038D01*
X250232455Y-107270038D02*
X250327693Y-107365276D01*
X250327693Y-107365276D02*
X250375312Y-107460514D01*
X250375312Y-107460514D02*
X250422931Y-107650990D01*
X250422931Y-107650990D02*
X250422931Y-107793847D01*
X250422931Y-107793847D02*
X250375312Y-107984323D01*
X250375312Y-107984323D02*
X250327693Y-108079561D01*
X250327693Y-108079561D02*
X250232455Y-108174800D01*
X250232455Y-108174800D02*
X250089598Y-108222419D01*
X250089598Y-108222419D02*
X249851503Y-108222419D01*
X263002693Y-123770038D02*
X262907455Y-123722419D01*
X262907455Y-123722419D02*
X262764598Y-123722419D01*
X262764598Y-123722419D02*
X262621741Y-123770038D01*
X262621741Y-123770038D02*
X262526503Y-123865276D01*
X262526503Y-123865276D02*
X262478884Y-123960514D01*
X262478884Y-123960514D02*
X262431265Y-124150990D01*
X262431265Y-124150990D02*
X262431265Y-124293847D01*
X262431265Y-124293847D02*
X262478884Y-124484323D01*
X262478884Y-124484323D02*
X262526503Y-124579561D01*
X262526503Y-124579561D02*
X262621741Y-124674800D01*
X262621741Y-124674800D02*
X262764598Y-124722419D01*
X262764598Y-124722419D02*
X262859836Y-124722419D01*
X262859836Y-124722419D02*
X263002693Y-124674800D01*
X263002693Y-124674800D02*
X263050312Y-124627180D01*
X263050312Y-124627180D02*
X263050312Y-124293847D01*
X263050312Y-124293847D02*
X262859836Y-124293847D01*
X263478884Y-124722419D02*
X263478884Y-123722419D01*
X263478884Y-123722419D02*
X264050312Y-124722419D01*
X264050312Y-124722419D02*
X264050312Y-123722419D01*
X264526503Y-124722419D02*
X264526503Y-123722419D01*
X264526503Y-123722419D02*
X264764598Y-123722419D01*
X264764598Y-123722419D02*
X264907455Y-123770038D01*
X264907455Y-123770038D02*
X265002693Y-123865276D01*
X265002693Y-123865276D02*
X265050312Y-123960514D01*
X265050312Y-123960514D02*
X265097931Y-124150990D01*
X265097931Y-124150990D02*
X265097931Y-124293847D01*
X265097931Y-124293847D02*
X265050312Y-124484323D01*
X265050312Y-124484323D02*
X265002693Y-124579561D01*
X265002693Y-124579561D02*
X264907455Y-124674800D01*
X264907455Y-124674800D02*
X264764598Y-124722419D01*
X264764598Y-124722419D02*
X264526503Y-124722419D01*
X253575312Y-83822180D02*
X253527693Y-83869800D01*
X253527693Y-83869800D02*
X253384836Y-83917419D01*
X253384836Y-83917419D02*
X253289598Y-83917419D01*
X253289598Y-83917419D02*
X253146741Y-83869800D01*
X253146741Y-83869800D02*
X253051503Y-83774561D01*
X253051503Y-83774561D02*
X253003884Y-83679323D01*
X253003884Y-83679323D02*
X252956265Y-83488847D01*
X252956265Y-83488847D02*
X252956265Y-83345990D01*
X252956265Y-83345990D02*
X253003884Y-83155514D01*
X253003884Y-83155514D02*
X253051503Y-83060276D01*
X253051503Y-83060276D02*
X253146741Y-82965038D01*
X253146741Y-82965038D02*
X253289598Y-82917419D01*
X253289598Y-82917419D02*
X253384836Y-82917419D01*
X253384836Y-82917419D02*
X253527693Y-82965038D01*
X253527693Y-82965038D02*
X253575312Y-83012657D01*
X253956265Y-83869800D02*
X254099122Y-83917419D01*
X254099122Y-83917419D02*
X254337217Y-83917419D01*
X254337217Y-83917419D02*
X254432455Y-83869800D01*
X254432455Y-83869800D02*
X254480074Y-83822180D01*
X254480074Y-83822180D02*
X254527693Y-83726942D01*
X254527693Y-83726942D02*
X254527693Y-83631704D01*
X254527693Y-83631704D02*
X254480074Y-83536466D01*
X254480074Y-83536466D02*
X254432455Y-83488847D01*
X254432455Y-83488847D02*
X254337217Y-83441228D01*
X254337217Y-83441228D02*
X254146741Y-83393609D01*
X254146741Y-83393609D02*
X254051503Y-83345990D01*
X254051503Y-83345990D02*
X254003884Y-83298371D01*
X254003884Y-83298371D02*
X253956265Y-83203133D01*
X253956265Y-83203133D02*
X253956265Y-83107895D01*
X253956265Y-83107895D02*
X254003884Y-83012657D01*
X254003884Y-83012657D02*
X254051503Y-82965038D01*
X254051503Y-82965038D02*
X254146741Y-82917419D01*
X254146741Y-82917419D02*
X254384836Y-82917419D01*
X254384836Y-82917419D02*
X254527693Y-82965038D01*
X255718170Y-83917419D02*
X255718170Y-82917419D01*
X255718170Y-82917419D02*
X256289598Y-83917419D01*
X256289598Y-83917419D02*
X256289598Y-82917419D01*
X256718170Y-83012657D02*
X256765789Y-82965038D01*
X256765789Y-82965038D02*
X256861027Y-82917419D01*
X256861027Y-82917419D02*
X257099122Y-82917419D01*
X257099122Y-82917419D02*
X257194360Y-82965038D01*
X257194360Y-82965038D02*
X257241979Y-83012657D01*
X257241979Y-83012657D02*
X257289598Y-83107895D01*
X257289598Y-83107895D02*
X257289598Y-83203133D01*
X257289598Y-83203133D02*
X257241979Y-83345990D01*
X257241979Y-83345990D02*
X256670551Y-83917419D01*
X256670551Y-83917419D02*
X257289598Y-83917419D01*
X257908646Y-82917419D02*
X258099122Y-82917419D01*
X258099122Y-82917419D02*
X258194360Y-82965038D01*
X258194360Y-82965038D02*
X258289598Y-83060276D01*
X258289598Y-83060276D02*
X258337217Y-83250752D01*
X258337217Y-83250752D02*
X258337217Y-83584085D01*
X258337217Y-83584085D02*
X258289598Y-83774561D01*
X258289598Y-83774561D02*
X258194360Y-83869800D01*
X258194360Y-83869800D02*
X258099122Y-83917419D01*
X258099122Y-83917419D02*
X257908646Y-83917419D01*
X257908646Y-83917419D02*
X257813408Y-83869800D01*
X257813408Y-83869800D02*
X257718170Y-83774561D01*
X257718170Y-83774561D02*
X257670551Y-83584085D01*
X257670551Y-83584085D02*
X257670551Y-83250752D01*
X257670551Y-83250752D02*
X257718170Y-83060276D01*
X257718170Y-83060276D02*
X257813408Y-82965038D01*
X257813408Y-82965038D02*
X257908646Y-82917419D01*
X258622932Y-82917419D02*
X259194360Y-82917419D01*
X258908646Y-83917419D02*
X258908646Y-82917419D01*
X260099122Y-83822180D02*
X260051503Y-83869800D01*
X260051503Y-83869800D02*
X259908646Y-83917419D01*
X259908646Y-83917419D02*
X259813408Y-83917419D01*
X259813408Y-83917419D02*
X259670551Y-83869800D01*
X259670551Y-83869800D02*
X259575313Y-83774561D01*
X259575313Y-83774561D02*
X259527694Y-83679323D01*
X259527694Y-83679323D02*
X259480075Y-83488847D01*
X259480075Y-83488847D02*
X259480075Y-83345990D01*
X259480075Y-83345990D02*
X259527694Y-83155514D01*
X259527694Y-83155514D02*
X259575313Y-83060276D01*
X259575313Y-83060276D02*
X259670551Y-82965038D01*
X259670551Y-82965038D02*
X259813408Y-82917419D01*
X259813408Y-82917419D02*
X259908646Y-82917419D01*
X259908646Y-82917419D02*
X260051503Y-82965038D01*
X260051503Y-82965038D02*
X260099122Y-83012657D01*
X239275312Y-83897180D02*
X239227693Y-83944800D01*
X239227693Y-83944800D02*
X239084836Y-83992419D01*
X239084836Y-83992419D02*
X238989598Y-83992419D01*
X238989598Y-83992419D02*
X238846741Y-83944800D01*
X238846741Y-83944800D02*
X238751503Y-83849561D01*
X238751503Y-83849561D02*
X238703884Y-83754323D01*
X238703884Y-83754323D02*
X238656265Y-83563847D01*
X238656265Y-83563847D02*
X238656265Y-83420990D01*
X238656265Y-83420990D02*
X238703884Y-83230514D01*
X238703884Y-83230514D02*
X238751503Y-83135276D01*
X238751503Y-83135276D02*
X238846741Y-83040038D01*
X238846741Y-83040038D02*
X238989598Y-82992419D01*
X238989598Y-82992419D02*
X239084836Y-82992419D01*
X239084836Y-82992419D02*
X239227693Y-83040038D01*
X239227693Y-83040038D02*
X239275312Y-83087657D01*
X239656265Y-83944800D02*
X239799122Y-83992419D01*
X239799122Y-83992419D02*
X240037217Y-83992419D01*
X240037217Y-83992419D02*
X240132455Y-83944800D01*
X240132455Y-83944800D02*
X240180074Y-83897180D01*
X240180074Y-83897180D02*
X240227693Y-83801942D01*
X240227693Y-83801942D02*
X240227693Y-83706704D01*
X240227693Y-83706704D02*
X240180074Y-83611466D01*
X240180074Y-83611466D02*
X240132455Y-83563847D01*
X240132455Y-83563847D02*
X240037217Y-83516228D01*
X240037217Y-83516228D02*
X239846741Y-83468609D01*
X239846741Y-83468609D02*
X239751503Y-83420990D01*
X239751503Y-83420990D02*
X239703884Y-83373371D01*
X239703884Y-83373371D02*
X239656265Y-83278133D01*
X239656265Y-83278133D02*
X239656265Y-83182895D01*
X239656265Y-83182895D02*
X239703884Y-83087657D01*
X239703884Y-83087657D02*
X239751503Y-83040038D01*
X239751503Y-83040038D02*
X239846741Y-82992419D01*
X239846741Y-82992419D02*
X240084836Y-82992419D01*
X240084836Y-82992419D02*
X240227693Y-83040038D01*
X241989598Y-83897180D02*
X241941979Y-83944800D01*
X241941979Y-83944800D02*
X241799122Y-83992419D01*
X241799122Y-83992419D02*
X241703884Y-83992419D01*
X241703884Y-83992419D02*
X241561027Y-83944800D01*
X241561027Y-83944800D02*
X241465789Y-83849561D01*
X241465789Y-83849561D02*
X241418170Y-83754323D01*
X241418170Y-83754323D02*
X241370551Y-83563847D01*
X241370551Y-83563847D02*
X241370551Y-83420990D01*
X241370551Y-83420990D02*
X241418170Y-83230514D01*
X241418170Y-83230514D02*
X241465789Y-83135276D01*
X241465789Y-83135276D02*
X241561027Y-83040038D01*
X241561027Y-83040038D02*
X241703884Y-82992419D01*
X241703884Y-82992419D02*
X241799122Y-82992419D01*
X241799122Y-82992419D02*
X241941979Y-83040038D01*
X241941979Y-83040038D02*
X241989598Y-83087657D01*
X242370551Y-83944800D02*
X242513408Y-83992419D01*
X242513408Y-83992419D02*
X242751503Y-83992419D01*
X242751503Y-83992419D02*
X242846741Y-83944800D01*
X242846741Y-83944800D02*
X242894360Y-83897180D01*
X242894360Y-83897180D02*
X242941979Y-83801942D01*
X242941979Y-83801942D02*
X242941979Y-83706704D01*
X242941979Y-83706704D02*
X242894360Y-83611466D01*
X242894360Y-83611466D02*
X242846741Y-83563847D01*
X242846741Y-83563847D02*
X242751503Y-83516228D01*
X242751503Y-83516228D02*
X242561027Y-83468609D01*
X242561027Y-83468609D02*
X242465789Y-83420990D01*
X242465789Y-83420990D02*
X242418170Y-83373371D01*
X242418170Y-83373371D02*
X242370551Y-83278133D01*
X242370551Y-83278133D02*
X242370551Y-83182895D01*
X242370551Y-83182895D02*
X242418170Y-83087657D01*
X242418170Y-83087657D02*
X242465789Y-83040038D01*
X242465789Y-83040038D02*
X242561027Y-82992419D01*
X242561027Y-82992419D02*
X242799122Y-82992419D01*
X242799122Y-82992419D02*
X242941979Y-83040038D01*
X243227694Y-82992419D02*
X243799122Y-82992419D01*
X243513408Y-83992419D02*
X243513408Y-82992419D01*
X244703884Y-83897180D02*
X244656265Y-83944800D01*
X244656265Y-83944800D02*
X244513408Y-83992419D01*
X244513408Y-83992419D02*
X244418170Y-83992419D01*
X244418170Y-83992419D02*
X244275313Y-83944800D01*
X244275313Y-83944800D02*
X244180075Y-83849561D01*
X244180075Y-83849561D02*
X244132456Y-83754323D01*
X244132456Y-83754323D02*
X244084837Y-83563847D01*
X244084837Y-83563847D02*
X244084837Y-83420990D01*
X244084837Y-83420990D02*
X244132456Y-83230514D01*
X244132456Y-83230514D02*
X244180075Y-83135276D01*
X244180075Y-83135276D02*
X244275313Y-83040038D01*
X244275313Y-83040038D02*
X244418170Y-82992419D01*
X244418170Y-82992419D02*
X244513408Y-82992419D01*
X244513408Y-82992419D02*
X244656265Y-83040038D01*
X244656265Y-83040038D02*
X244703884Y-83087657D01*
X245084837Y-83087657D02*
X245132456Y-83040038D01*
X245132456Y-83040038D02*
X245227694Y-82992419D01*
X245227694Y-82992419D02*
X245465789Y-82992419D01*
X245465789Y-82992419D02*
X245561027Y-83040038D01*
X245561027Y-83040038D02*
X245608646Y-83087657D01*
X245608646Y-83087657D02*
X245656265Y-83182895D01*
X245656265Y-83182895D02*
X245656265Y-83278133D01*
X245656265Y-83278133D02*
X245608646Y-83420990D01*
X245608646Y-83420990D02*
X245037218Y-83992419D01*
X245037218Y-83992419D02*
X245656265Y-83992419D01*
X179627693Y-98020038D02*
X179532455Y-97972419D01*
X179532455Y-97972419D02*
X179389598Y-97972419D01*
X179389598Y-97972419D02*
X179246741Y-98020038D01*
X179246741Y-98020038D02*
X179151503Y-98115276D01*
X179151503Y-98115276D02*
X179103884Y-98210514D01*
X179103884Y-98210514D02*
X179056265Y-98400990D01*
X179056265Y-98400990D02*
X179056265Y-98543847D01*
X179056265Y-98543847D02*
X179103884Y-98734323D01*
X179103884Y-98734323D02*
X179151503Y-98829561D01*
X179151503Y-98829561D02*
X179246741Y-98924800D01*
X179246741Y-98924800D02*
X179389598Y-98972419D01*
X179389598Y-98972419D02*
X179484836Y-98972419D01*
X179484836Y-98972419D02*
X179627693Y-98924800D01*
X179627693Y-98924800D02*
X179675312Y-98877180D01*
X179675312Y-98877180D02*
X179675312Y-98543847D01*
X179675312Y-98543847D02*
X179484836Y-98543847D01*
X180103884Y-98972419D02*
X180103884Y-97972419D01*
X180103884Y-97972419D02*
X180675312Y-98972419D01*
X180675312Y-98972419D02*
X180675312Y-97972419D01*
X181151503Y-98972419D02*
X181151503Y-97972419D01*
X181151503Y-97972419D02*
X181389598Y-97972419D01*
X181389598Y-97972419D02*
X181532455Y-98020038D01*
X181532455Y-98020038D02*
X181627693Y-98115276D01*
X181627693Y-98115276D02*
X181675312Y-98210514D01*
X181675312Y-98210514D02*
X181722931Y-98400990D01*
X181722931Y-98400990D02*
X181722931Y-98543847D01*
X181722931Y-98543847D02*
X181675312Y-98734323D01*
X181675312Y-98734323D02*
X181627693Y-98829561D01*
X181627693Y-98829561D02*
X181532455Y-98924800D01*
X181532455Y-98924800D02*
X181389598Y-98972419D01*
X181389598Y-98972419D02*
X181151503Y-98972419D01*
X253550312Y-81272180D02*
X253502693Y-81319800D01*
X253502693Y-81319800D02*
X253359836Y-81367419D01*
X253359836Y-81367419D02*
X253264598Y-81367419D01*
X253264598Y-81367419D02*
X253121741Y-81319800D01*
X253121741Y-81319800D02*
X253026503Y-81224561D01*
X253026503Y-81224561D02*
X252978884Y-81129323D01*
X252978884Y-81129323D02*
X252931265Y-80938847D01*
X252931265Y-80938847D02*
X252931265Y-80795990D01*
X252931265Y-80795990D02*
X252978884Y-80605514D01*
X252978884Y-80605514D02*
X253026503Y-80510276D01*
X253026503Y-80510276D02*
X253121741Y-80415038D01*
X253121741Y-80415038D02*
X253264598Y-80367419D01*
X253264598Y-80367419D02*
X253359836Y-80367419D01*
X253359836Y-80367419D02*
X253502693Y-80415038D01*
X253502693Y-80415038D02*
X253550312Y-80462657D01*
X253931265Y-81319800D02*
X254074122Y-81367419D01*
X254074122Y-81367419D02*
X254312217Y-81367419D01*
X254312217Y-81367419D02*
X254407455Y-81319800D01*
X254407455Y-81319800D02*
X254455074Y-81272180D01*
X254455074Y-81272180D02*
X254502693Y-81176942D01*
X254502693Y-81176942D02*
X254502693Y-81081704D01*
X254502693Y-81081704D02*
X254455074Y-80986466D01*
X254455074Y-80986466D02*
X254407455Y-80938847D01*
X254407455Y-80938847D02*
X254312217Y-80891228D01*
X254312217Y-80891228D02*
X254121741Y-80843609D01*
X254121741Y-80843609D02*
X254026503Y-80795990D01*
X254026503Y-80795990D02*
X253978884Y-80748371D01*
X253978884Y-80748371D02*
X253931265Y-80653133D01*
X253931265Y-80653133D02*
X253931265Y-80557895D01*
X253931265Y-80557895D02*
X253978884Y-80462657D01*
X253978884Y-80462657D02*
X254026503Y-80415038D01*
X254026503Y-80415038D02*
X254121741Y-80367419D01*
X254121741Y-80367419D02*
X254359836Y-80367419D01*
X254359836Y-80367419D02*
X254502693Y-80415038D01*
X256264598Y-81272180D02*
X256216979Y-81319800D01*
X256216979Y-81319800D02*
X256074122Y-81367419D01*
X256074122Y-81367419D02*
X255978884Y-81367419D01*
X255978884Y-81367419D02*
X255836027Y-81319800D01*
X255836027Y-81319800D02*
X255740789Y-81224561D01*
X255740789Y-81224561D02*
X255693170Y-81129323D01*
X255693170Y-81129323D02*
X255645551Y-80938847D01*
X255645551Y-80938847D02*
X255645551Y-80795990D01*
X255645551Y-80795990D02*
X255693170Y-80605514D01*
X255693170Y-80605514D02*
X255740789Y-80510276D01*
X255740789Y-80510276D02*
X255836027Y-80415038D01*
X255836027Y-80415038D02*
X255978884Y-80367419D01*
X255978884Y-80367419D02*
X256074122Y-80367419D01*
X256074122Y-80367419D02*
X256216979Y-80415038D01*
X256216979Y-80415038D02*
X256264598Y-80462657D01*
X256645551Y-81319800D02*
X256788408Y-81367419D01*
X256788408Y-81367419D02*
X257026503Y-81367419D01*
X257026503Y-81367419D02*
X257121741Y-81319800D01*
X257121741Y-81319800D02*
X257169360Y-81272180D01*
X257169360Y-81272180D02*
X257216979Y-81176942D01*
X257216979Y-81176942D02*
X257216979Y-81081704D01*
X257216979Y-81081704D02*
X257169360Y-80986466D01*
X257169360Y-80986466D02*
X257121741Y-80938847D01*
X257121741Y-80938847D02*
X257026503Y-80891228D01*
X257026503Y-80891228D02*
X256836027Y-80843609D01*
X256836027Y-80843609D02*
X256740789Y-80795990D01*
X256740789Y-80795990D02*
X256693170Y-80748371D01*
X256693170Y-80748371D02*
X256645551Y-80653133D01*
X256645551Y-80653133D02*
X256645551Y-80557895D01*
X256645551Y-80557895D02*
X256693170Y-80462657D01*
X256693170Y-80462657D02*
X256740789Y-80415038D01*
X256740789Y-80415038D02*
X256836027Y-80367419D01*
X256836027Y-80367419D02*
X257074122Y-80367419D01*
X257074122Y-80367419D02*
X257216979Y-80415038D01*
X257502694Y-80367419D02*
X258074122Y-80367419D01*
X257788408Y-81367419D02*
X257788408Y-80367419D01*
X258978884Y-81272180D02*
X258931265Y-81319800D01*
X258931265Y-81319800D02*
X258788408Y-81367419D01*
X258788408Y-81367419D02*
X258693170Y-81367419D01*
X258693170Y-81367419D02*
X258550313Y-81319800D01*
X258550313Y-81319800D02*
X258455075Y-81224561D01*
X258455075Y-81224561D02*
X258407456Y-81129323D01*
X258407456Y-81129323D02*
X258359837Y-80938847D01*
X258359837Y-80938847D02*
X258359837Y-80795990D01*
X258359837Y-80795990D02*
X258407456Y-80605514D01*
X258407456Y-80605514D02*
X258455075Y-80510276D01*
X258455075Y-80510276D02*
X258550313Y-80415038D01*
X258550313Y-80415038D02*
X258693170Y-80367419D01*
X258693170Y-80367419D02*
X258788408Y-80367419D01*
X258788408Y-80367419D02*
X258931265Y-80415038D01*
X258931265Y-80415038D02*
X258978884Y-80462657D01*
X259931265Y-81367419D02*
X259359837Y-81367419D01*
X259645551Y-81367419D02*
X259645551Y-80367419D01*
X259645551Y-80367419D02*
X259550313Y-80510276D01*
X259550313Y-80510276D02*
X259455075Y-80605514D01*
X259455075Y-80605514D02*
X259359837Y-80653133D01*
X271330074Y-93147419D02*
X270853884Y-93147419D01*
X270853884Y-93147419D02*
X270853884Y-92147419D01*
X241050312Y-81397180D02*
X241002693Y-81444800D01*
X241002693Y-81444800D02*
X240859836Y-81492419D01*
X240859836Y-81492419D02*
X240764598Y-81492419D01*
X240764598Y-81492419D02*
X240621741Y-81444800D01*
X240621741Y-81444800D02*
X240526503Y-81349561D01*
X240526503Y-81349561D02*
X240478884Y-81254323D01*
X240478884Y-81254323D02*
X240431265Y-81063847D01*
X240431265Y-81063847D02*
X240431265Y-80920990D01*
X240431265Y-80920990D02*
X240478884Y-80730514D01*
X240478884Y-80730514D02*
X240526503Y-80635276D01*
X240526503Y-80635276D02*
X240621741Y-80540038D01*
X240621741Y-80540038D02*
X240764598Y-80492419D01*
X240764598Y-80492419D02*
X240859836Y-80492419D01*
X240859836Y-80492419D02*
X241002693Y-80540038D01*
X241002693Y-80540038D02*
X241050312Y-80587657D01*
X241431265Y-81444800D02*
X241574122Y-81492419D01*
X241574122Y-81492419D02*
X241812217Y-81492419D01*
X241812217Y-81492419D02*
X241907455Y-81444800D01*
X241907455Y-81444800D02*
X241955074Y-81397180D01*
X241955074Y-81397180D02*
X242002693Y-81301942D01*
X242002693Y-81301942D02*
X242002693Y-81206704D01*
X242002693Y-81206704D02*
X241955074Y-81111466D01*
X241955074Y-81111466D02*
X241907455Y-81063847D01*
X241907455Y-81063847D02*
X241812217Y-81016228D01*
X241812217Y-81016228D02*
X241621741Y-80968609D01*
X241621741Y-80968609D02*
X241526503Y-80920990D01*
X241526503Y-80920990D02*
X241478884Y-80873371D01*
X241478884Y-80873371D02*
X241431265Y-80778133D01*
X241431265Y-80778133D02*
X241431265Y-80682895D01*
X241431265Y-80682895D02*
X241478884Y-80587657D01*
X241478884Y-80587657D02*
X241526503Y-80540038D01*
X241526503Y-80540038D02*
X241621741Y-80492419D01*
X241621741Y-80492419D02*
X241859836Y-80492419D01*
X241859836Y-80492419D02*
X242002693Y-80540038D01*
X243145551Y-81206704D02*
X243621741Y-81206704D01*
X243050313Y-81492419D02*
X243383646Y-80492419D01*
X243383646Y-80492419D02*
X243716979Y-81492419D01*
X244050313Y-81492419D02*
X244050313Y-80492419D01*
X244050313Y-80492419D02*
X244288408Y-80492419D01*
X244288408Y-80492419D02*
X244431265Y-80540038D01*
X244431265Y-80540038D02*
X244526503Y-80635276D01*
X244526503Y-80635276D02*
X244574122Y-80730514D01*
X244574122Y-80730514D02*
X244621741Y-80920990D01*
X244621741Y-80920990D02*
X244621741Y-81063847D01*
X244621741Y-81063847D02*
X244574122Y-81254323D01*
X244574122Y-81254323D02*
X244526503Y-81349561D01*
X244526503Y-81349561D02*
X244431265Y-81444800D01*
X244431265Y-81444800D02*
X244288408Y-81492419D01*
X244288408Y-81492419D02*
X244050313Y-81492419D01*
X245621741Y-81397180D02*
X245574122Y-81444800D01*
X245574122Y-81444800D02*
X245431265Y-81492419D01*
X245431265Y-81492419D02*
X245336027Y-81492419D01*
X245336027Y-81492419D02*
X245193170Y-81444800D01*
X245193170Y-81444800D02*
X245097932Y-81349561D01*
X245097932Y-81349561D02*
X245050313Y-81254323D01*
X245050313Y-81254323D02*
X245002694Y-81063847D01*
X245002694Y-81063847D02*
X245002694Y-80920990D01*
X245002694Y-80920990D02*
X245050313Y-80730514D01*
X245050313Y-80730514D02*
X245097932Y-80635276D01*
X245097932Y-80635276D02*
X245193170Y-80540038D01*
X245193170Y-80540038D02*
X245336027Y-80492419D01*
X245336027Y-80492419D02*
X245431265Y-80492419D01*
X245431265Y-80492419D02*
X245574122Y-80540038D01*
X245574122Y-80540038D02*
X245621741Y-80587657D01*
D12*
X187279197Y-69092219D02*
X187469673Y-69092219D01*
X187469673Y-69092219D02*
X187558958Y-69139838D01*
X187558958Y-69139838D02*
X187642292Y-69235076D01*
X187642292Y-69235076D02*
X187666101Y-69425552D01*
X187666101Y-69425552D02*
X187624435Y-69758885D01*
X187624435Y-69758885D02*
X187553006Y-69949361D01*
X187553006Y-69949361D02*
X187445863Y-70044600D01*
X187445863Y-70044600D02*
X187344673Y-70092219D01*
X187344673Y-70092219D02*
X187154197Y-70092219D01*
X187154197Y-70092219D02*
X187064911Y-70044600D01*
X187064911Y-70044600D02*
X186981578Y-69949361D01*
X186981578Y-69949361D02*
X186957768Y-69758885D01*
X186957768Y-69758885D02*
X186999435Y-69425552D01*
X186999435Y-69425552D02*
X187070863Y-69235076D01*
X187070863Y-69235076D02*
X187178006Y-69139838D01*
X187178006Y-69139838D02*
X187279197Y-69092219D01*
X187916101Y-70092219D02*
X188523244Y-69425552D01*
X187999435Y-69425552D02*
X188439911Y-70092219D01*
X189564911Y-69092219D02*
X190136340Y-69092219D01*
X189725626Y-70092219D02*
X189850626Y-69092219D01*
X190773245Y-70092219D02*
X190838721Y-69568409D01*
X190838721Y-69568409D02*
X190803007Y-69473171D01*
X190803007Y-69473171D02*
X190713721Y-69425552D01*
X190713721Y-69425552D02*
X190523245Y-69425552D01*
X190523245Y-69425552D02*
X190422054Y-69473171D01*
X190779197Y-70044600D02*
X190678007Y-70092219D01*
X190678007Y-70092219D02*
X190439911Y-70092219D01*
X190439911Y-70092219D02*
X190350626Y-70044600D01*
X190350626Y-70044600D02*
X190314911Y-69949361D01*
X190314911Y-69949361D02*
X190326816Y-69854123D01*
X190326816Y-69854123D02*
X190386340Y-69758885D01*
X190386340Y-69758885D02*
X190487531Y-69711266D01*
X190487531Y-69711266D02*
X190725626Y-69711266D01*
X190725626Y-69711266D02*
X190826816Y-69663647D01*
X191332769Y-69425552D02*
X191249435Y-70092219D01*
X191320864Y-69520790D02*
X191374435Y-69473171D01*
X191374435Y-69473171D02*
X191475626Y-69425552D01*
X191475626Y-69425552D02*
X191618483Y-69425552D01*
X191618483Y-69425552D02*
X191707769Y-69473171D01*
X191707769Y-69473171D02*
X191743483Y-69568409D01*
X191743483Y-69568409D02*
X191678007Y-70092219D01*
X192154197Y-70092219D02*
X192279197Y-69092219D01*
X192297055Y-69711266D02*
X192535150Y-70092219D01*
X192618483Y-69425552D02*
X192189912Y-69806504D01*
X193707769Y-69092219D02*
X194279198Y-69092219D01*
X193868484Y-70092219D02*
X193993484Y-69092219D01*
X195070865Y-69996980D02*
X195017293Y-70044600D01*
X195017293Y-70044600D02*
X194868484Y-70092219D01*
X194868484Y-70092219D02*
X194773246Y-70092219D01*
X194773246Y-70092219D02*
X194636341Y-70044600D01*
X194636341Y-70044600D02*
X194553008Y-69949361D01*
X194553008Y-69949361D02*
X194517293Y-69854123D01*
X194517293Y-69854123D02*
X194493484Y-69663647D01*
X194493484Y-69663647D02*
X194511341Y-69520790D01*
X194511341Y-69520790D02*
X194582769Y-69330314D01*
X194582769Y-69330314D02*
X194642293Y-69235076D01*
X194642293Y-69235076D02*
X194749436Y-69139838D01*
X194749436Y-69139838D02*
X194898246Y-69092219D01*
X194898246Y-69092219D02*
X194993484Y-69092219D01*
X194993484Y-69092219D02*
X195130389Y-69139838D01*
X195130389Y-69139838D02*
X195172055Y-69187457D01*
D14*
X269409819Y-79416666D02*
X268933628Y-79749999D01*
X269409819Y-79988094D02*
X268409819Y-79988094D01*
X268409819Y-79988094D02*
X268409819Y-79607142D01*
X268409819Y-79607142D02*
X268457438Y-79511904D01*
X268457438Y-79511904D02*
X268505057Y-79464285D01*
X268505057Y-79464285D02*
X268600295Y-79416666D01*
X268600295Y-79416666D02*
X268743152Y-79416666D01*
X268743152Y-79416666D02*
X268838390Y-79464285D01*
X268838390Y-79464285D02*
X268886009Y-79511904D01*
X268886009Y-79511904D02*
X268933628Y-79607142D01*
X268933628Y-79607142D02*
X268933628Y-79988094D01*
X269409819Y-78464285D02*
X269409819Y-79035713D01*
X269409819Y-78749999D02*
X268409819Y-78749999D01*
X268409819Y-78749999D02*
X268552676Y-78845237D01*
X268552676Y-78845237D02*
X268647914Y-78940475D01*
X268647914Y-78940475D02*
X268695533Y-79035713D01*
X221278095Y-98199819D02*
X221278095Y-99009342D01*
X221278095Y-99009342D02*
X221325714Y-99104580D01*
X221325714Y-99104580D02*
X221373333Y-99152200D01*
X221373333Y-99152200D02*
X221468571Y-99199819D01*
X221468571Y-99199819D02*
X221659047Y-99199819D01*
X221659047Y-99199819D02*
X221754285Y-99152200D01*
X221754285Y-99152200D02*
X221801904Y-99104580D01*
X221801904Y-99104580D02*
X221849523Y-99009342D01*
X221849523Y-99009342D02*
X221849523Y-98199819D01*
X222278095Y-98295057D02*
X222325714Y-98247438D01*
X222325714Y-98247438D02*
X222420952Y-98199819D01*
X222420952Y-98199819D02*
X222659047Y-98199819D01*
X222659047Y-98199819D02*
X222754285Y-98247438D01*
X222754285Y-98247438D02*
X222801904Y-98295057D01*
X222801904Y-98295057D02*
X222849523Y-98390295D01*
X222849523Y-98390295D02*
X222849523Y-98485533D01*
X222849523Y-98485533D02*
X222801904Y-98628390D01*
X222801904Y-98628390D02*
X222230476Y-99199819D01*
X222230476Y-99199819D02*
X222849523Y-99199819D01*
X214384819Y-111441666D02*
X213908628Y-111774999D01*
X214384819Y-112013094D02*
X213384819Y-112013094D01*
X213384819Y-112013094D02*
X213384819Y-111632142D01*
X213384819Y-111632142D02*
X213432438Y-111536904D01*
X213432438Y-111536904D02*
X213480057Y-111489285D01*
X213480057Y-111489285D02*
X213575295Y-111441666D01*
X213575295Y-111441666D02*
X213718152Y-111441666D01*
X213718152Y-111441666D02*
X213813390Y-111489285D01*
X213813390Y-111489285D02*
X213861009Y-111536904D01*
X213861009Y-111536904D02*
X213908628Y-111632142D01*
X213908628Y-111632142D02*
X213908628Y-112013094D01*
X213718152Y-110584523D02*
X214384819Y-110584523D01*
X213337200Y-110822618D02*
X214051485Y-111060713D01*
X214051485Y-111060713D02*
X214051485Y-110441666D01*
X272008333Y-79974819D02*
X271675000Y-79498628D01*
X271436905Y-79974819D02*
X271436905Y-78974819D01*
X271436905Y-78974819D02*
X271817857Y-78974819D01*
X271817857Y-78974819D02*
X271913095Y-79022438D01*
X271913095Y-79022438D02*
X271960714Y-79070057D01*
X271960714Y-79070057D02*
X272008333Y-79165295D01*
X272008333Y-79165295D02*
X272008333Y-79308152D01*
X272008333Y-79308152D02*
X271960714Y-79403390D01*
X271960714Y-79403390D02*
X271913095Y-79451009D01*
X271913095Y-79451009D02*
X271817857Y-79498628D01*
X271817857Y-79498628D02*
X271436905Y-79498628D01*
X272389286Y-79070057D02*
X272436905Y-79022438D01*
X272436905Y-79022438D02*
X272532143Y-78974819D01*
X272532143Y-78974819D02*
X272770238Y-78974819D01*
X272770238Y-78974819D02*
X272865476Y-79022438D01*
X272865476Y-79022438D02*
X272913095Y-79070057D01*
X272913095Y-79070057D02*
X272960714Y-79165295D01*
X272960714Y-79165295D02*
X272960714Y-79260533D01*
X272960714Y-79260533D02*
X272913095Y-79403390D01*
X272913095Y-79403390D02*
X272341667Y-79974819D01*
X272341667Y-79974819D02*
X272960714Y-79974819D01*
X268928571Y-86254819D02*
X268928571Y-85254819D01*
X268928571Y-85254819D02*
X269261904Y-85969104D01*
X269261904Y-85969104D02*
X269595237Y-85254819D01*
X269595237Y-85254819D02*
X269595237Y-86254819D01*
X270261904Y-85254819D02*
X270452380Y-85254819D01*
X270452380Y-85254819D02*
X270547618Y-85302438D01*
X270547618Y-85302438D02*
X270642856Y-85397676D01*
X270642856Y-85397676D02*
X270690475Y-85588152D01*
X270690475Y-85588152D02*
X270690475Y-85921485D01*
X270690475Y-85921485D02*
X270642856Y-86111961D01*
X270642856Y-86111961D02*
X270547618Y-86207200D01*
X270547618Y-86207200D02*
X270452380Y-86254819D01*
X270452380Y-86254819D02*
X270261904Y-86254819D01*
X270261904Y-86254819D02*
X270166666Y-86207200D01*
X270166666Y-86207200D02*
X270071428Y-86111961D01*
X270071428Y-86111961D02*
X270023809Y-85921485D01*
X270023809Y-85921485D02*
X270023809Y-85588152D01*
X270023809Y-85588152D02*
X270071428Y-85397676D01*
X270071428Y-85397676D02*
X270166666Y-85302438D01*
X270166666Y-85302438D02*
X270261904Y-85254819D01*
X271071428Y-86207200D02*
X271214285Y-86254819D01*
X271214285Y-86254819D02*
X271452380Y-86254819D01*
X271452380Y-86254819D02*
X271547618Y-86207200D01*
X271547618Y-86207200D02*
X271595237Y-86159580D01*
X271595237Y-86159580D02*
X271642856Y-86064342D01*
X271642856Y-86064342D02*
X271642856Y-85969104D01*
X271642856Y-85969104D02*
X271595237Y-85873866D01*
X271595237Y-85873866D02*
X271547618Y-85826247D01*
X271547618Y-85826247D02*
X271452380Y-85778628D01*
X271452380Y-85778628D02*
X271261904Y-85731009D01*
X271261904Y-85731009D02*
X271166666Y-85683390D01*
X271166666Y-85683390D02*
X271119047Y-85635771D01*
X271119047Y-85635771D02*
X271071428Y-85540533D01*
X271071428Y-85540533D02*
X271071428Y-85445295D01*
X271071428Y-85445295D02*
X271119047Y-85350057D01*
X271119047Y-85350057D02*
X271166666Y-85302438D01*
X271166666Y-85302438D02*
X271261904Y-85254819D01*
X271261904Y-85254819D02*
X271499999Y-85254819D01*
X271499999Y-85254819D02*
X271642856Y-85302438D01*
X272404761Y-85731009D02*
X272071428Y-85731009D01*
X272071428Y-86254819D02*
X272071428Y-85254819D01*
X272071428Y-85254819D02*
X272547618Y-85254819D01*
X272928571Y-85731009D02*
X273261904Y-85731009D01*
X273404761Y-86254819D02*
X272928571Y-86254819D01*
X272928571Y-86254819D02*
X272928571Y-85254819D01*
X272928571Y-85254819D02*
X273404761Y-85254819D01*
X273690476Y-85254819D02*
X274261904Y-85254819D01*
X273976190Y-86254819D02*
X273976190Y-85254819D01*
X275119047Y-86254819D02*
X274547619Y-86254819D01*
X274833333Y-86254819D02*
X274833333Y-85254819D01*
X274833333Y-85254819D02*
X274738095Y-85397676D01*
X274738095Y-85397676D02*
X274642857Y-85492914D01*
X274642857Y-85492914D02*
X274547619Y-85540533D01*
X248510476Y-70454819D02*
X248510476Y-71169104D01*
X248510476Y-71169104D02*
X248462857Y-71311961D01*
X248462857Y-71311961D02*
X248367619Y-71407200D01*
X248367619Y-71407200D02*
X248224762Y-71454819D01*
X248224762Y-71454819D02*
X248129524Y-71454819D01*
X249510476Y-71454819D02*
X248939048Y-71454819D01*
X249224762Y-71454819D02*
X249224762Y-70454819D01*
X249224762Y-70454819D02*
X249129524Y-70597676D01*
X249129524Y-70597676D02*
X249034286Y-70692914D01*
X249034286Y-70692914D02*
X248939048Y-70740533D01*
X250462857Y-71454819D02*
X249891429Y-71454819D01*
X250177143Y-71454819D02*
X250177143Y-70454819D01*
X250177143Y-70454819D02*
X250081905Y-70597676D01*
X250081905Y-70597676D02*
X249986667Y-70692914D01*
X249986667Y-70692914D02*
X249891429Y-70740533D01*
X218558333Y-94259580D02*
X218510714Y-94307200D01*
X218510714Y-94307200D02*
X218367857Y-94354819D01*
X218367857Y-94354819D02*
X218272619Y-94354819D01*
X218272619Y-94354819D02*
X218129762Y-94307200D01*
X218129762Y-94307200D02*
X218034524Y-94211961D01*
X218034524Y-94211961D02*
X217986905Y-94116723D01*
X217986905Y-94116723D02*
X217939286Y-93926247D01*
X217939286Y-93926247D02*
X217939286Y-93783390D01*
X217939286Y-93783390D02*
X217986905Y-93592914D01*
X217986905Y-93592914D02*
X218034524Y-93497676D01*
X218034524Y-93497676D02*
X218129762Y-93402438D01*
X218129762Y-93402438D02*
X218272619Y-93354819D01*
X218272619Y-93354819D02*
X218367857Y-93354819D01*
X218367857Y-93354819D02*
X218510714Y-93402438D01*
X218510714Y-93402438D02*
X218558333Y-93450057D01*
X218939286Y-93450057D02*
X218986905Y-93402438D01*
X218986905Y-93402438D02*
X219082143Y-93354819D01*
X219082143Y-93354819D02*
X219320238Y-93354819D01*
X219320238Y-93354819D02*
X219415476Y-93402438D01*
X219415476Y-93402438D02*
X219463095Y-93450057D01*
X219463095Y-93450057D02*
X219510714Y-93545295D01*
X219510714Y-93545295D02*
X219510714Y-93640533D01*
X219510714Y-93640533D02*
X219463095Y-93783390D01*
X219463095Y-93783390D02*
X218891667Y-94354819D01*
X218891667Y-94354819D02*
X219510714Y-94354819D01*
X218558333Y-111814580D02*
X218510714Y-111862200D01*
X218510714Y-111862200D02*
X218367857Y-111909819D01*
X218367857Y-111909819D02*
X218272619Y-111909819D01*
X218272619Y-111909819D02*
X218129762Y-111862200D01*
X218129762Y-111862200D02*
X218034524Y-111766961D01*
X218034524Y-111766961D02*
X217986905Y-111671723D01*
X217986905Y-111671723D02*
X217939286Y-111481247D01*
X217939286Y-111481247D02*
X217939286Y-111338390D01*
X217939286Y-111338390D02*
X217986905Y-111147914D01*
X217986905Y-111147914D02*
X218034524Y-111052676D01*
X218034524Y-111052676D02*
X218129762Y-110957438D01*
X218129762Y-110957438D02*
X218272619Y-110909819D01*
X218272619Y-110909819D02*
X218367857Y-110909819D01*
X218367857Y-110909819D02*
X218510714Y-110957438D01*
X218510714Y-110957438D02*
X218558333Y-111005057D01*
X219510714Y-111909819D02*
X218939286Y-111909819D01*
X219225000Y-111909819D02*
X219225000Y-110909819D01*
X219225000Y-110909819D02*
X219129762Y-111052676D01*
X219129762Y-111052676D02*
X219034524Y-111147914D01*
X219034524Y-111147914D02*
X218939286Y-111195533D01*
D15*
X267002500Y-79012742D02*
X267002500Y-79487258D01*
X268047500Y-79012742D02*
X268047500Y-79487258D01*
X218730000Y-99795000D02*
X218730000Y-100065000D01*
X218730000Y-106695000D02*
X218730000Y-106425000D01*
X225150000Y-99795000D02*
X218730000Y-99795000D01*
X225150000Y-106695000D02*
X218730000Y-106695000D01*
X217000000Y-100105000D02*
X216660000Y-99635000D01*
X217340000Y-99635000D01*
X217000000Y-100105000D01*
G36*
X217000000Y-100105000D02*
G01*
X216660000Y-99635000D01*
X217340000Y-99635000D01*
X217000000Y-100105000D01*
G37*
X211190000Y-110547936D02*
X211190000Y-112002064D01*
X213010000Y-110547936D02*
X213010000Y-112002064D01*
X271937742Y-80427500D02*
X272412258Y-80427500D01*
X271937742Y-81472500D02*
X272412258Y-81472500D01*
D16*
X265103700Y-84271300D02*
X265103700Y-86328700D01*
X265103700Y-86328700D02*
X266091760Y-86328700D01*
X267041761Y-84271300D02*
X266315239Y-84271300D01*
X267265240Y-86328700D02*
X268253300Y-86328700D01*
X268253300Y-86328700D02*
X268253300Y-84271300D01*
X269523300Y-84055400D02*
G75*
G02*
X269269300Y-84055400I-127000J0D01*
G01*
X269269300Y-84055400D02*
G75*
G02*
X269523300Y-84055400I127000J0D01*
G01*
D15*
X246670000Y-72000000D02*
X248050000Y-72000000D01*
X246670000Y-73380000D02*
X246670000Y-72000000D01*
X246670000Y-74650000D02*
X246670000Y-90000000D01*
X246670000Y-74650000D02*
X249320000Y-74650000D01*
X246670000Y-90000000D02*
X251970000Y-90000000D01*
X249320000Y-72000000D02*
X251970000Y-72000000D01*
X249320000Y-74650000D02*
X249320000Y-72000000D01*
X251970000Y-72000000D02*
X251970000Y-90000000D01*
X219586252Y-95040000D02*
X218163748Y-95040000D01*
X219586252Y-96860000D02*
X218163748Y-96860000D01*
X218865580Y-109515000D02*
X218584420Y-109515000D01*
X218865580Y-110535000D02*
X218584420Y-110535000D01*
%LPC*%
D17*
X156900000Y-145195000D03*
D18*
X220898944Y-59395000D03*
D19*
X267525000Y-78425000D03*
X267525000Y-80075000D03*
D17*
X201925000Y-188395000D03*
X253125000Y-63745000D03*
D18*
X156375000Y-123920000D03*
X285425000Y-123920000D03*
D17*
X197925000Y-140845000D03*
D20*
X217000000Y-100965000D03*
D21*
X223300000Y-103245000D03*
D20*
X217000000Y-105525000D03*
D22*
X212100000Y-109812500D03*
X212100000Y-112737500D03*
D23*
X271350000Y-80950000D03*
X273000000Y-80950000D03*
D24*
X267628501Y-84106200D03*
X265728499Y-84106200D03*
X266678500Y-86493800D03*
D25*
X248050000Y-73380000D03*
D26*
X250590000Y-73380000D03*
X248050000Y-75920000D03*
X250590000Y-75920000D03*
X248050000Y-78460000D03*
X250590000Y-78460000D03*
X248050000Y-81000000D03*
X250590000Y-81000000D03*
X248050000Y-83540000D03*
X250590000Y-83540000D03*
X248050000Y-86080000D03*
X250590000Y-86080000D03*
X248050000Y-88620000D03*
X250590000Y-88620000D03*
D27*
X220350000Y-95950000D03*
X217400000Y-95950000D03*
D17*
X238750000Y-188670000D03*
X165150000Y-84420000D03*
D28*
X219500000Y-110025000D03*
X217950000Y-110025000D03*
D29*
X178250000Y-151850000D03*
D30*
X178885000Y-149820000D03*
X181550000Y-151850000D03*
X180915000Y-149820000D03*
D29*
X191950000Y-173350000D03*
D30*
X192585000Y-171320000D03*
X195250000Y-173350000D03*
X194615000Y-171320000D03*
D29*
X180225000Y-127150000D03*
D30*
X180860000Y-125120000D03*
X183525000Y-127150000D03*
X182890000Y-125120000D03*
D31*
X252700000Y-103305000D03*
D30*
X252065000Y-105335000D03*
X249400000Y-103305000D03*
X250035000Y-105335000D03*
D31*
X249510000Y-134195000D03*
D30*
X248875000Y-136225000D03*
X246210000Y-134195000D03*
X246845000Y-136225000D03*
D17*
X244005000Y-171925000D03*
X264005000Y-171925000D03*
X244005000Y-151925000D03*
X264005000Y-151925000D03*
D25*
X190135000Y-66850000D03*
D26*
X192675000Y-66850000D03*
D31*
X267660000Y-119870000D03*
D30*
X267025000Y-121900000D03*
X264360000Y-119870000D03*
X264995000Y-121900000D03*
D17*
X209225000Y-74195000D03*
X232925000Y-73795000D03*
X232925000Y-123895000D03*
D25*
X202225000Y-124420000D03*
D26*
X202225000Y-121880000D03*
X202225000Y-119340000D03*
X202225000Y-116800000D03*
X202225000Y-114260000D03*
X202225000Y-111720000D03*
X202225000Y-109180000D03*
X202225000Y-106640000D03*
X202225000Y-104100000D03*
X202225000Y-101560000D03*
X202225000Y-99020000D03*
X202225000Y-96480000D03*
X202225000Y-93940000D03*
X202225000Y-91400000D03*
X202225000Y-88860000D03*
X202225000Y-86320000D03*
X202225000Y-83780000D03*
X202225000Y-81240000D03*
X202225000Y-78700000D03*
X202225000Y-76160000D03*
D25*
X232725000Y-104095000D03*
D26*
X232725000Y-101555000D03*
X232725000Y-99015000D03*
X232725000Y-96475000D03*
X232725000Y-93935000D03*
X232725000Y-91395000D03*
X232725000Y-88855000D03*
X232725000Y-86315000D03*
X232725000Y-83775000D03*
X232725000Y-81235000D03*
D25*
X186500000Y-76225000D03*
D26*
X189040000Y-76225000D03*
D29*
X181000000Y-102760000D03*
D30*
X181635000Y-100730000D03*
X184300000Y-102760000D03*
X183665000Y-100730000D03*
D25*
X182800000Y-85950000D03*
D26*
X185340000Y-85950000D03*
D25*
X265810000Y-92575000D03*
D26*
X268350000Y-92575000D03*
%LPD*%
M02*
