G04 #@! TF.GenerationSoftware,KiCad,Pcbnew,9.0.3*
G04 #@! TF.CreationDate,2026-01-25T15:38:05-06:00*
G04 #@! TF.ProjectId,DAQ_HAT,4441515f-4841-4542-9e6b-696361645f70,rev?*
G04 #@! TF.SameCoordinates,Original*
G04 #@! TF.FileFunction,Copper,L2,Bot*
G04 #@! TF.FilePolarity,Positive*
%FSLAX46Y46*%
G04 Gerber Fmt 4.6, Leading zero omitted, Abs format (unit mm)*
G04 Created by KiCad (PCBNEW 9.0.3) date 2026-01-25 15:38:05*
%MOMM*%
%LPD*%
G01*
G04 APERTURE LIST*
G04 #@! TA.AperFunction,ComponentPad*
%ADD10R,1.700000X1.700000*%
G04 #@! TD*
G04 #@! TA.AperFunction,ComponentPad*
%ADD11C,1.700000*%
G04 #@! TD*
G04 #@! TA.AperFunction,ComponentPad*
%ADD12R,1.508000X1.508000*%
G04 #@! TD*
G04 #@! TA.AperFunction,ComponentPad*
%ADD13C,1.508000*%
G04 #@! TD*
G04 #@! TA.AperFunction,ViaPad*
%ADD14C,0.600000*%
G04 #@! TD*
G04 #@! TA.AperFunction,Conductor*
%ADD15C,1.000000*%
G04 #@! TD*
G04 #@! TA.AperFunction,Conductor*
%ADD16C,0.200000*%
G04 #@! TD*
G04 APERTURE END LIST*
D10*
X248050000Y-73380000D03*
D11*
X250590000Y-73380000D03*
X248050000Y-75920000D03*
X250590000Y-75920000D03*
X248050000Y-78460000D03*
X250590000Y-78460000D03*
X248050000Y-81000000D03*
X250590000Y-81000000D03*
X248050000Y-83540000D03*
X250590000Y-83540000D03*
X248050000Y-86080000D03*
X250590000Y-86080000D03*
X248050000Y-88620000D03*
X250590000Y-88620000D03*
D12*
X178250000Y-151850000D03*
D13*
X178885000Y-149820000D03*
X181550000Y-151850000D03*
X180915000Y-149820000D03*
D12*
X191950000Y-173350000D03*
D13*
X192585000Y-171320000D03*
X195250000Y-173350000D03*
X194615000Y-171320000D03*
D12*
X180225000Y-127150000D03*
D13*
X180860000Y-125120000D03*
X183525000Y-127150000D03*
X182890000Y-125120000D03*
D12*
X252700000Y-103305000D03*
D13*
X252065000Y-105335000D03*
X249400000Y-103305000D03*
X250035000Y-105335000D03*
D12*
X249510000Y-134195000D03*
D13*
X248875000Y-136225000D03*
X246210000Y-134195000D03*
X246845000Y-136225000D03*
D10*
X190135000Y-66850000D03*
D11*
X192675000Y-66850000D03*
D12*
X267660000Y-119870000D03*
D13*
X267025000Y-121900000D03*
X264360000Y-119870000D03*
X264995000Y-121900000D03*
D10*
X202225000Y-124420000D03*
D11*
X202225000Y-121880000D03*
X202225000Y-119340000D03*
X202225000Y-116800000D03*
X202225000Y-114260000D03*
X202225000Y-111720000D03*
X202225000Y-109180000D03*
X202225000Y-106640000D03*
X202225000Y-104100000D03*
X202225000Y-101560000D03*
X202225000Y-99020000D03*
X202225000Y-96480000D03*
X202225000Y-93940000D03*
X202225000Y-91400000D03*
X202225000Y-88860000D03*
X202225000Y-86320000D03*
X202225000Y-83780000D03*
X202225000Y-81240000D03*
X202225000Y-78700000D03*
X202225000Y-76160000D03*
D10*
X232725000Y-104095000D03*
D11*
X232725000Y-101555000D03*
X232725000Y-99015000D03*
X232725000Y-96475000D03*
X232725000Y-93935000D03*
X232725000Y-91395000D03*
X232725000Y-88855000D03*
X232725000Y-86315000D03*
X232725000Y-83775000D03*
X232725000Y-81235000D03*
D10*
X186500000Y-76225000D03*
D11*
X189040000Y-76225000D03*
D12*
X181000000Y-102760000D03*
D13*
X181635000Y-100730000D03*
X184300000Y-102760000D03*
X183665000Y-100730000D03*
D10*
X182800000Y-85950000D03*
D11*
X185340000Y-85950000D03*
D10*
X265810000Y-92575000D03*
D11*
X268350000Y-92575000D03*
D14*
X265400000Y-147800000D03*
X157400000Y-131800000D03*
X177400000Y-67800000D03*
X165400000Y-95800000D03*
X285400000Y-143800000D03*
X189400000Y-183800000D03*
X193400000Y-147800000D03*
X209400000Y-115800000D03*
X205400000Y-63800000D03*
X259875000Y-92450000D03*
X177400000Y-115800000D03*
X269400000Y-171800000D03*
X177400000Y-155800000D03*
X244450000Y-155300000D03*
X277425000Y-81125000D03*
X229400000Y-107800000D03*
X244050000Y-79075000D03*
X173400000Y-147800000D03*
X181400000Y-163800000D03*
X241400000Y-183800000D03*
X181400000Y-135800000D03*
X181400000Y-163800000D03*
X269400000Y-95800000D03*
X253400000Y-123800000D03*
X177400000Y-159800000D03*
X185400000Y-135800000D03*
X189400000Y-107800000D03*
X165400000Y-99800000D03*
X261400000Y-127800000D03*
X193400000Y-179800000D03*
X197400000Y-183800000D03*
X165400000Y-163800000D03*
X253400000Y-111800000D03*
X205400000Y-75800000D03*
X265400000Y-115800000D03*
X169400000Y-79800000D03*
X273400000Y-87800000D03*
X257400000Y-115800000D03*
X181400000Y-107800000D03*
X185400000Y-179800000D03*
X257400000Y-183800000D03*
X177400000Y-83800000D03*
X205400000Y-91800000D03*
X193400000Y-183800000D03*
X173400000Y-131800000D03*
X189400000Y-159800000D03*
X201400000Y-179800000D03*
X273400000Y-151800000D03*
X261400000Y-139800000D03*
X289400000Y-135800000D03*
X197400000Y-147800000D03*
X205400000Y-83800000D03*
X269400000Y-143800000D03*
X181400000Y-75800000D03*
X261400000Y-111800000D03*
X189400000Y-99800000D03*
X285400000Y-99800000D03*
X185400000Y-111800000D03*
X257400000Y-179800000D03*
X197400000Y-147800000D03*
X229400000Y-55800000D03*
X289400000Y-115800000D03*
X285400000Y-111800000D03*
X197400000Y-179800000D03*
X165400000Y-103800000D03*
X273400000Y-103800000D03*
X281400000Y-135800000D03*
X193400000Y-59800000D03*
X269400000Y-147800000D03*
X289400000Y-103800000D03*
X193400000Y-151800000D03*
X257400000Y-127800000D03*
X177400000Y-115800000D03*
X221400000Y-91800000D03*
X260725000Y-182675000D03*
X197400000Y-187800000D03*
X253400000Y-115800000D03*
X173400000Y-91800000D03*
X201400000Y-183800000D03*
X261400000Y-179800000D03*
X277400000Y-123800000D03*
X205400000Y-67800000D03*
X273400000Y-147800000D03*
X269400000Y-139800000D03*
X213400000Y-55800000D03*
X273400000Y-75800000D03*
X258275000Y-95475000D03*
X257400000Y-143800000D03*
X281400000Y-111800000D03*
X177400000Y-135800000D03*
X173400000Y-119800000D03*
X277400000Y-151800000D03*
X265400000Y-155800000D03*
X177400000Y-67800000D03*
X173400000Y-155800000D03*
X173400000Y-171800000D03*
X213500000Y-53175000D03*
X249400000Y-139800000D03*
X161400000Y-123800000D03*
X209400000Y-67800000D03*
X249400000Y-143800000D03*
X249400000Y-147800000D03*
X273400000Y-87800000D03*
X257400000Y-123800000D03*
X261400000Y-143800000D03*
X273400000Y-139800000D03*
X249400000Y-171800000D03*
X285400000Y-139800000D03*
X173400000Y-123800000D03*
X265400000Y-139800000D03*
X213400000Y-55800000D03*
X285400000Y-135800000D03*
X245400000Y-59800000D03*
X276475000Y-167125000D03*
X285400000Y-107800000D03*
X157400000Y-107800000D03*
X177400000Y-91800000D03*
X253400000Y-67800000D03*
X257400000Y-67800000D03*
X269400000Y-135800000D03*
X157400000Y-103800000D03*
X185400000Y-67800000D03*
X169400000Y-79800000D03*
X157400000Y-103800000D03*
X241400000Y-183800000D03*
X173400000Y-79800000D03*
X177400000Y-131800000D03*
X261400000Y-139800000D03*
X177400000Y-119800000D03*
X281400000Y-107800000D03*
X173400000Y-111800000D03*
X277400000Y-83800000D03*
X285400000Y-151800000D03*
X173400000Y-111800000D03*
X261400000Y-111800000D03*
X273400000Y-135800000D03*
X169400000Y-75800000D03*
X185400000Y-179800000D03*
X201400000Y-127800000D03*
X161400000Y-111800000D03*
X185400000Y-131800000D03*
X273400000Y-131800000D03*
X269400000Y-103800000D03*
X165400000Y-79800000D03*
X165400000Y-95800000D03*
X253400000Y-143800000D03*
X241400000Y-163800000D03*
X197400000Y-155800000D03*
X253400000Y-179800000D03*
X273400000Y-147800000D03*
X205400000Y-67800000D03*
X185400000Y-71800000D03*
X257400000Y-151800000D03*
X253400000Y-147800000D03*
X181400000Y-111800000D03*
X245400000Y-115800000D03*
X161400000Y-143800000D03*
X201400000Y-67800000D03*
X263800000Y-84200000D03*
X285400000Y-135800000D03*
X177400000Y-175800000D03*
X165400000Y-103800000D03*
X213400000Y-71800000D03*
X189350000Y-61725000D03*
X151125000Y-114625000D03*
X245400000Y-175800000D03*
X245400000Y-179800000D03*
X205400000Y-87800000D03*
X269400000Y-143800000D03*
X150825000Y-118200000D03*
X157400000Y-111800000D03*
X269400000Y-159800000D03*
X281400000Y-131800000D03*
X189400000Y-159800000D03*
X269400000Y-155800000D03*
X165400000Y-163800000D03*
X169400000Y-95800000D03*
X269400000Y-159800000D03*
X238325000Y-87600000D03*
X173400000Y-91800000D03*
X249400000Y-147800000D03*
X173400000Y-95800000D03*
X181400000Y-143800000D03*
X241400000Y-143800000D03*
X273400000Y-103800000D03*
X173400000Y-83800000D03*
X177400000Y-79800000D03*
X161400000Y-99800000D03*
X253400000Y-115800000D03*
X218725000Y-52500000D03*
X197400000Y-95800000D03*
X257400000Y-147800000D03*
X161400000Y-143800000D03*
X281400000Y-103800000D03*
X277400000Y-135800000D03*
X259250000Y-82325000D03*
X241400000Y-159800000D03*
X173400000Y-87800000D03*
X173400000Y-83800000D03*
X229400000Y-55800000D03*
X257400000Y-179800000D03*
X289400000Y-111800000D03*
X257400000Y-107800000D03*
X261400000Y-175800000D03*
X265400000Y-95800000D03*
X241400000Y-179800000D03*
X157400000Y-115800000D03*
X245400000Y-147800000D03*
X169400000Y-99800000D03*
X241400000Y-175800000D03*
X277400000Y-163800000D03*
X177400000Y-75800000D03*
X225400000Y-115800000D03*
X181400000Y-139800000D03*
X177400000Y-159800000D03*
X173400000Y-75800000D03*
X185400000Y-139800000D03*
X273400000Y-171800000D03*
X241400000Y-55800000D03*
X157400000Y-131800000D03*
X201400000Y-59800000D03*
X257400000Y-111800000D03*
X181400000Y-71800000D03*
X213400000Y-71800000D03*
X205400000Y-71800000D03*
X269400000Y-135800000D03*
X197400000Y-183800000D03*
X213400000Y-87800000D03*
X277400000Y-91800000D03*
X249400000Y-115800000D03*
X265400000Y-167800000D03*
X269400000Y-167800000D03*
X197400000Y-63800000D03*
X285400000Y-143800000D03*
X213400000Y-59800000D03*
X281400000Y-91800000D03*
X244775000Y-168700000D03*
X277400000Y-155800000D03*
X173400000Y-143800000D03*
X229400000Y-115800000D03*
X273400000Y-95800000D03*
X284900000Y-93000000D03*
X205400000Y-111800000D03*
X277400000Y-95800000D03*
X269400000Y-175800000D03*
X209400000Y-59800000D03*
X239400000Y-97675000D03*
X273400000Y-95800000D03*
X241400000Y-55800000D03*
X161400000Y-95800000D03*
X185400000Y-167800000D03*
X205400000Y-63800000D03*
X273400000Y-75800000D03*
X257400000Y-139800000D03*
X285400000Y-99800000D03*
X157400000Y-115800000D03*
X181400000Y-179800000D03*
X269400000Y-95800000D03*
X285400000Y-107800000D03*
X273400000Y-107800000D03*
X161400000Y-111800000D03*
X193400000Y-151800000D03*
X157400000Y-135800000D03*
X213400000Y-91800000D03*
X177400000Y-87800000D03*
X173400000Y-171800000D03*
X157400000Y-139800000D03*
X185400000Y-155800000D03*
X153400000Y-135800000D03*
X277400000Y-95800000D03*
X273400000Y-91800000D03*
X189400000Y-183800000D03*
X161400000Y-119800000D03*
X169400000Y-91800000D03*
X249400000Y-115800000D03*
X273400000Y-155800000D03*
X265400000Y-159800000D03*
X249400000Y-143800000D03*
X277400000Y-119800000D03*
X269400000Y-103800000D03*
X273400000Y-151800000D03*
X277400000Y-127800000D03*
X229400000Y-59800000D03*
X209400000Y-115800000D03*
X289400000Y-139800000D03*
X257750000Y-172750000D03*
X277400000Y-107800000D03*
X249400000Y-123800000D03*
X169400000Y-95800000D03*
X249400000Y-179800000D03*
X251900000Y-59850000D03*
X201400000Y-63800000D03*
X280325000Y-163025000D03*
X229400000Y-59800000D03*
X269400000Y-147800000D03*
X273400000Y-155800000D03*
X253350000Y-150750000D03*
X161400000Y-91800000D03*
X241400000Y-159800000D03*
X201400000Y-183800000D03*
X213400000Y-115800000D03*
X261400000Y-95800000D03*
X177400000Y-143800000D03*
X249400000Y-151800000D03*
X269400000Y-163800000D03*
X181400000Y-143800000D03*
X185400000Y-163800000D03*
X257400000Y-67800000D03*
X173400000Y-71800000D03*
X277400000Y-131800000D03*
X181400000Y-115800000D03*
X157400000Y-95800000D03*
X245400000Y-187800000D03*
X173400000Y-87800000D03*
X249400000Y-139800000D03*
X169400000Y-91800000D03*
X209400000Y-63800000D03*
X257400000Y-63800000D03*
X189400000Y-179800000D03*
X265325000Y-69150000D03*
X261425000Y-65325000D03*
X244550000Y-190500000D03*
X181400000Y-179800000D03*
X249400000Y-151800000D03*
X237400000Y-59800000D03*
X285400000Y-115800000D03*
X153400000Y-103800000D03*
X197400000Y-151800000D03*
X169400000Y-87800000D03*
X209400000Y-63800000D03*
X269400000Y-71800000D03*
X161400000Y-147800000D03*
X181425000Y-65425000D03*
X169400000Y-167800000D03*
X161400000Y-135800000D03*
X289400000Y-131800000D03*
X181400000Y-79800000D03*
X277400000Y-103800000D03*
X281400000Y-159800000D03*
X245400000Y-123800000D03*
X265400000Y-139800000D03*
X285400000Y-103800000D03*
X181400000Y-115800000D03*
X253400000Y-183800000D03*
X177400000Y-91800000D03*
X213400000Y-95800000D03*
X161400000Y-107800000D03*
X257400000Y-115800000D03*
X245400000Y-139800000D03*
X194325000Y-125500000D03*
X161400000Y-139800000D03*
X197400000Y-155800000D03*
X241400000Y-163800000D03*
X281400000Y-139800000D03*
X277400000Y-111800000D03*
X189400000Y-179800000D03*
X277400000Y-87800000D03*
X181400000Y-155800000D03*
X249400000Y-183800000D03*
X245400000Y-183800000D03*
X285400000Y-95800000D03*
X173400000Y-139800000D03*
X273400000Y-167800000D03*
X241400000Y-155800000D03*
X241400000Y-135800000D03*
X265400000Y-99800000D03*
X273400000Y-159800000D03*
X161400000Y-115800000D03*
X201400000Y-179800000D03*
X169400000Y-167800000D03*
X177400000Y-71800000D03*
X221400000Y-87800000D03*
X265400000Y-179800000D03*
X273400000Y-99800000D03*
X189400000Y-151800000D03*
X277400000Y-99800000D03*
X181400000Y-175800000D03*
X185400000Y-71800000D03*
X157400000Y-91800000D03*
X177400000Y-83800000D03*
X291850000Y-123800000D03*
X181400000Y-75800000D03*
X281400000Y-99800000D03*
X161400000Y-119800000D03*
X161400000Y-131800000D03*
X245400000Y-147800000D03*
X189400000Y-155800000D03*
X177400000Y-87800000D03*
X173400000Y-115800000D03*
X181400000Y-119800000D03*
X249400000Y-183800000D03*
X151175000Y-110325000D03*
X245400000Y-143800000D03*
X161400000Y-107800000D03*
X281400000Y-135800000D03*
X161400000Y-115800000D03*
X281400000Y-143800000D03*
X197400000Y-163800000D03*
X177400000Y-75800000D03*
X262275000Y-154975000D03*
X173400000Y-75800000D03*
X181400000Y-107800000D03*
X241400000Y-147800000D03*
X253400000Y-183800000D03*
X205400000Y-75800000D03*
X177400000Y-107800000D03*
X177400000Y-143800000D03*
X245400000Y-175800000D03*
X205400000Y-115800000D03*
X185400000Y-159800000D03*
X205400000Y-83800000D03*
X185400000Y-135800000D03*
X277400000Y-119800000D03*
X161400000Y-103800000D03*
X193400000Y-179800000D03*
X213400000Y-95800000D03*
X249400000Y-171800000D03*
X165400000Y-91800000D03*
X197400000Y-159800000D03*
X185400000Y-131800000D03*
X197400000Y-179800000D03*
X253400000Y-127800000D03*
X273400000Y-91800000D03*
X161400000Y-151800000D03*
X205400000Y-115800000D03*
X161400000Y-155800000D03*
X161400000Y-99800000D03*
X281400000Y-95800000D03*
X277400000Y-147800000D03*
X289400000Y-115800000D03*
X193400000Y-167800000D03*
X173400000Y-155800000D03*
X209400000Y-55800000D03*
X269400000Y-171800000D03*
X289400000Y-135800000D03*
X249400000Y-187800000D03*
X195075000Y-135700000D03*
X185400000Y-175800000D03*
X181400000Y-139800000D03*
X173400000Y-95800000D03*
X245400000Y-127800000D03*
X281400000Y-95800000D03*
X277400000Y-123800000D03*
X265400000Y-179800000D03*
X265400000Y-71800000D03*
X261400000Y-115800000D03*
X173400000Y-135800000D03*
X289400000Y-111800000D03*
X249400000Y-127800000D03*
X281400000Y-143800000D03*
X289400000Y-139800000D03*
X185400000Y-175800000D03*
X177400000Y-139800000D03*
X257400000Y-183800000D03*
X252575000Y-186450000D03*
X285400000Y-115800000D03*
X193400000Y-155800000D03*
X173400000Y-147800000D03*
X205400000Y-55800000D03*
X277400000Y-139800000D03*
X181400000Y-111800000D03*
X205400000Y-91800000D03*
X269400000Y-163800000D03*
X213400000Y-63800000D03*
X177400000Y-119800000D03*
X273400000Y-167800000D03*
X285400000Y-131800000D03*
X217400000Y-67800000D03*
X245400000Y-115800000D03*
X277400000Y-147800000D03*
X173400000Y-143800000D03*
X277400000Y-143800000D03*
X281400000Y-99800000D03*
X205400000Y-59800000D03*
X265400000Y-167800000D03*
X281400000Y-103800000D03*
X277400000Y-99800000D03*
X161400000Y-147800000D03*
X273400000Y-131800000D03*
X241400000Y-59800000D03*
X273400000Y-143800000D03*
X277400000Y-127800000D03*
X161400000Y-127800000D03*
X281400000Y-87800000D03*
X281400000Y-111800000D03*
X226800000Y-90550000D03*
X189400000Y-163800000D03*
X236150000Y-101175000D03*
X229175000Y-96175000D03*
X249400000Y-111800000D03*
X213400000Y-67800000D03*
X201400000Y-59800000D03*
X157400000Y-95800000D03*
X285400000Y-147800000D03*
X177400000Y-111800000D03*
X281400000Y-115800000D03*
X288175000Y-143775000D03*
X177400000Y-175800000D03*
X264275000Y-80425000D03*
X185400000Y-107800000D03*
X245400000Y-59800000D03*
X264275000Y-87250000D03*
X165400000Y-91800000D03*
X157400000Y-91800000D03*
X269400000Y-139800000D03*
X273400000Y-139800000D03*
X201400000Y-55800000D03*
X285400000Y-139800000D03*
X257400000Y-127800000D03*
X235075000Y-95925000D03*
X273400000Y-107800000D03*
X173400000Y-123800000D03*
X181400000Y-159800000D03*
X277400000Y-135800000D03*
X265400000Y-163800000D03*
X253400000Y-175800000D03*
X181400000Y-159800000D03*
X273400000Y-99800000D03*
X205400000Y-71800000D03*
X177400000Y-123800000D03*
X173400000Y-131800000D03*
X213400000Y-87800000D03*
X281400000Y-115800000D03*
X213400000Y-99800000D03*
X169400000Y-99800000D03*
X241400000Y-143800000D03*
X173400000Y-139800000D03*
X277400000Y-139800000D03*
X241400000Y-139800000D03*
X185400000Y-67800000D03*
X273400000Y-143800000D03*
X181400000Y-155800000D03*
X205400000Y-107800000D03*
X177400000Y-139800000D03*
X217400000Y-67800000D03*
X257400000Y-175800000D03*
X235625000Y-87450000D03*
X265400000Y-147800000D03*
X197400000Y-187800000D03*
X189400000Y-107800000D03*
X185400000Y-111800000D03*
X233400000Y-59800000D03*
X193400000Y-159800000D03*
X285400000Y-131800000D03*
X157400000Y-107800000D03*
X277400000Y-115800000D03*
X169400000Y-87800000D03*
X277400000Y-91800000D03*
X277400000Y-143800000D03*
X281400000Y-87800000D03*
X153400000Y-135800000D03*
X261400000Y-147800000D03*
X197400000Y-159800000D03*
X253400000Y-179800000D03*
X197400000Y-95800000D03*
X197400000Y-151800000D03*
X181400000Y-135800000D03*
X161400000Y-85400000D03*
X245400000Y-187800000D03*
X277400000Y-83800000D03*
X213400000Y-99800000D03*
X205400000Y-87800000D03*
X257400000Y-63800000D03*
X249400000Y-187800000D03*
X261400000Y-123800000D03*
X169400000Y-83800000D03*
X241400000Y-167800000D03*
X213400000Y-63800000D03*
X265400000Y-163800000D03*
X181400000Y-119800000D03*
X277400000Y-103800000D03*
X154975000Y-99875000D03*
X241400000Y-147800000D03*
X249400000Y-175800000D03*
X273400000Y-163800000D03*
X281400000Y-91800000D03*
X150450000Y-125650000D03*
X177400000Y-131800000D03*
X277400000Y-159800000D03*
X259050000Y-88550000D03*
X161400000Y-155800000D03*
X165400000Y-99800000D03*
X273400000Y-135800000D03*
X289400000Y-107800000D03*
X185400000Y-163800000D03*
X226475000Y-52600000D03*
X257400000Y-111800000D03*
X173400000Y-135800000D03*
X237400000Y-55800000D03*
X197400000Y-57350000D03*
X253400000Y-143800000D03*
X153400000Y-131800000D03*
X227125000Y-82375000D03*
X157400000Y-111800000D03*
X185400000Y-167800000D03*
X253400000Y-139800000D03*
X277400000Y-159800000D03*
X265400000Y-175800000D03*
X205400000Y-111800000D03*
X281400000Y-159800000D03*
X197400000Y-63800000D03*
X221400000Y-115800000D03*
X157400000Y-135800000D03*
X261400000Y-179800000D03*
X285400000Y-95800000D03*
X269400000Y-167800000D03*
X281400000Y-151800000D03*
X189400000Y-155800000D03*
X205400000Y-107800000D03*
X265625000Y-89425000D03*
X261400000Y-127800000D03*
X257400000Y-151800000D03*
X289400000Y-131800000D03*
X161400000Y-131800000D03*
X201400000Y-55800000D03*
X257400000Y-107800000D03*
X255650000Y-84600000D03*
X185400000Y-107800000D03*
X161400000Y-123800000D03*
X245375000Y-56950000D03*
X289400000Y-107800000D03*
X185400000Y-63800000D03*
X185400000Y-63800000D03*
X177400000Y-79800000D03*
X281400000Y-107800000D03*
X209400000Y-67800000D03*
X177400000Y-111800000D03*
X201400000Y-127800000D03*
X221400000Y-87800000D03*
X177400000Y-71800000D03*
X265400000Y-143800000D03*
X205400000Y-59800000D03*
X193400000Y-163800000D03*
X161400000Y-135800000D03*
X181400000Y-91800000D03*
X161400000Y-91800000D03*
X241400000Y-59800000D03*
X189400000Y-167800000D03*
X265400000Y-71800000D03*
X261400000Y-115800000D03*
X241400000Y-155800000D03*
X253400000Y-147800000D03*
X269400000Y-71800000D03*
X222650000Y-52675000D03*
X261400000Y-175800000D03*
X273400000Y-171800000D03*
X261400000Y-71800000D03*
X205400000Y-55800000D03*
X189400000Y-99800000D03*
X281400000Y-139800000D03*
X161400000Y-103800000D03*
X265400000Y-95800000D03*
X284000000Y-155075000D03*
X185400000Y-139800000D03*
X253400000Y-175800000D03*
X257400000Y-175800000D03*
X233400000Y-59800000D03*
X269400000Y-99800000D03*
X169400000Y-75800000D03*
X173400000Y-119800000D03*
X277400000Y-115800000D03*
X269400000Y-99800000D03*
X161400000Y-127800000D03*
X153400000Y-103800000D03*
X193400000Y-59800000D03*
X177400000Y-135800000D03*
X277400000Y-163800000D03*
X161400000Y-95800000D03*
X185400000Y-159800000D03*
X201400000Y-67800000D03*
X245400000Y-139800000D03*
X241400000Y-167800000D03*
X213400000Y-59800000D03*
X277400000Y-151800000D03*
X249400000Y-179800000D03*
X193400000Y-155800000D03*
X229400000Y-107800000D03*
X265400000Y-155800000D03*
X189400000Y-151800000D03*
X213400000Y-67800000D03*
X273400000Y-83800000D03*
X189400000Y-167800000D03*
X173400000Y-79800000D03*
X277400000Y-155800000D03*
X265400000Y-175800000D03*
X245400000Y-179800000D03*
X213400000Y-91800000D03*
X181400000Y-91800000D03*
X165400000Y-79800000D03*
X233400000Y-55800000D03*
X236925000Y-85000000D03*
X269400000Y-175800000D03*
X253400000Y-139800000D03*
X177400000Y-107800000D03*
X261400000Y-95800000D03*
X277400000Y-131800000D03*
X277400000Y-107800000D03*
X261400000Y-143800000D03*
X249400000Y-175800000D03*
X205400000Y-79800000D03*
X253775000Y-94100000D03*
X265400000Y-115800000D03*
X193400000Y-163800000D03*
X289400000Y-103800000D03*
X285400000Y-111800000D03*
X181400000Y-131800000D03*
X237400000Y-59800000D03*
X185400000Y-155800000D03*
X265400000Y-99800000D03*
X193400000Y-159800000D03*
X285400000Y-151800000D03*
X277400000Y-87800000D03*
X285400000Y-147800000D03*
X265400000Y-143800000D03*
X285400000Y-103800000D03*
X277400000Y-111800000D03*
X261400000Y-147800000D03*
X257400000Y-147800000D03*
X261400000Y-71800000D03*
X281400000Y-147800000D03*
X257400000Y-143800000D03*
X201400000Y-63800000D03*
X253400000Y-127800000D03*
X209400000Y-59800000D03*
X217400000Y-115800000D03*
X193400000Y-147800000D03*
X181400000Y-131800000D03*
X241400000Y-179800000D03*
X249400000Y-111800000D03*
X273400000Y-159800000D03*
X173400000Y-71800000D03*
X209400000Y-55800000D03*
X281400000Y-151800000D03*
X181400000Y-175800000D03*
X257400000Y-139800000D03*
X193400000Y-167800000D03*
X253325000Y-172600000D03*
X197400000Y-163800000D03*
X273400000Y-163800000D03*
X241400000Y-139800000D03*
X245400000Y-183800000D03*
X177400000Y-155800000D03*
X273400000Y-83800000D03*
X265400000Y-159800000D03*
X181400000Y-79800000D03*
X189400000Y-163800000D03*
X249400000Y-127800000D03*
X253400000Y-67800000D03*
X257800000Y-79900000D03*
X177400000Y-123800000D03*
X173400000Y-115800000D03*
X237400000Y-55800000D03*
X245400000Y-143800000D03*
X269400000Y-155800000D03*
X157400000Y-139800000D03*
X201400000Y-175800000D03*
X181400000Y-71800000D03*
X281400000Y-131800000D03*
X269400000Y-151800000D03*
X161400000Y-139800000D03*
X221400000Y-91800000D03*
X169400000Y-83800000D03*
X161400000Y-151800000D03*
X193400000Y-183800000D03*
X233400000Y-55800000D03*
X253400000Y-111800000D03*
X153400000Y-131800000D03*
X201400000Y-175800000D03*
X269400000Y-151800000D03*
X205400000Y-79800000D03*
X241400000Y-175800000D03*
X281400000Y-147800000D03*
X242600000Y-91375000D03*
X242650000Y-82275000D03*
X243650000Y-86075000D03*
X243650000Y-93950000D03*
X241400000Y-86300000D03*
X241375000Y-83540000D03*
D15*
X248050000Y-73380000D02*
X248050000Y-72250000D01*
X252450000Y-71200000D02*
X261700000Y-80450000D01*
X261700000Y-80450000D02*
X261700000Y-88465000D01*
X248050000Y-72250000D02*
X249100000Y-71200000D01*
X261700000Y-88465000D02*
X265810000Y-92575000D01*
X249100000Y-71200000D02*
X252450000Y-71200000D01*
D16*
X242650000Y-91325000D02*
X242650000Y-82275000D01*
X242600000Y-91375000D02*
X242650000Y-91325000D01*
X243650000Y-93950000D02*
X243650000Y-86075000D01*
X241400000Y-86300000D02*
X241400000Y-86275000D01*
X241375000Y-86250000D02*
X241375000Y-83540000D01*
X241400000Y-86275000D02*
X241375000Y-86250000D01*
G04 #@! TA.AperFunction,Conductor*
G36*
X249391444Y-86733999D02*
G01*
X249430486Y-86779056D01*
X249434951Y-86787820D01*
X249559890Y-86959786D01*
X249710213Y-87110109D01*
X249882179Y-87235048D01*
X249882181Y-87235049D01*
X249882184Y-87235051D01*
X249891493Y-87239794D01*
X249942290Y-87287766D01*
X249959087Y-87355587D01*
X249936552Y-87421722D01*
X249891505Y-87460760D01*
X249882446Y-87465376D01*
X249882440Y-87465380D01*
X249828282Y-87504727D01*
X249828282Y-87504728D01*
X250460591Y-88137037D01*
X250397007Y-88154075D01*
X250282993Y-88219901D01*
X250189901Y-88312993D01*
X250124075Y-88427007D01*
X250107037Y-88490590D01*
X249474728Y-87858282D01*
X249474727Y-87858282D01*
X249435380Y-87912440D01*
X249430483Y-87922051D01*
X249382506Y-87972845D01*
X249314684Y-87989638D01*
X249248550Y-87967098D01*
X249209516Y-87922048D01*
X249204626Y-87912452D01*
X249165270Y-87858282D01*
X249165269Y-87858282D01*
X248532962Y-88490590D01*
X248515925Y-88427007D01*
X248450099Y-88312993D01*
X248357007Y-88219901D01*
X248242993Y-88154075D01*
X248179409Y-88137037D01*
X248811716Y-87504728D01*
X248757547Y-87465373D01*
X248757547Y-87465372D01*
X248748500Y-87460763D01*
X248697706Y-87412788D01*
X248680912Y-87344966D01*
X248703451Y-87278832D01*
X248748508Y-87239793D01*
X248757816Y-87235051D01*
X248864496Y-87157544D01*
X248929786Y-87110109D01*
X248929788Y-87110106D01*
X248929792Y-87110104D01*
X249080104Y-86959792D01*
X249080106Y-86959788D01*
X249080109Y-86959786D01*
X249205048Y-86787820D01*
X249205047Y-86787820D01*
X249205051Y-86787816D01*
X249209514Y-86779054D01*
X249257488Y-86728259D01*
X249325308Y-86711463D01*
X249391444Y-86733999D01*
G37*
G04 #@! TD.AperFunction*
G04 #@! TA.AperFunction,Conductor*
G36*
X222591596Y-51415247D02*
G01*
X222594440Y-51415314D01*
X224284741Y-51474543D01*
X224287493Y-51474671D01*
X225975977Y-51573369D01*
X225978857Y-51573571D01*
X227664536Y-51711679D01*
X227667273Y-51711935D01*
X229349318Y-51889384D01*
X229352180Y-51889721D01*
X231029486Y-52106394D01*
X231032332Y-52106795D01*
X232271676Y-52296422D01*
X232704202Y-52362601D01*
X232707060Y-52363073D01*
X232708981Y-52363413D01*
X234372433Y-52657849D01*
X234375232Y-52658378D01*
X236033338Y-52991990D01*
X236036161Y-52992593D01*
X236291419Y-53050185D01*
X237685987Y-53364835D01*
X237688672Y-53365474D01*
X239329444Y-53776174D01*
X239332157Y-53776887D01*
X240784842Y-54176789D01*
X240962843Y-54225790D01*
X240965627Y-54226592D01*
X241319016Y-54332814D01*
X242585306Y-54713439D01*
X242588026Y-54714291D01*
X243756183Y-55095388D01*
X244195904Y-55238843D01*
X244198647Y-55239773D01*
X245793931Y-55801773D01*
X245796539Y-55802727D01*
X247378191Y-56401810D01*
X247380808Y-56402835D01*
X248948076Y-57038717D01*
X248950709Y-57039821D01*
X250502700Y-57712139D01*
X250505259Y-57713284D01*
X252041135Y-58421677D01*
X252043641Y-58422869D01*
X253562516Y-59166926D01*
X253565056Y-59168207D01*
X254201800Y-59498792D01*
X255066132Y-59947538D01*
X255068687Y-59948903D01*
X256551097Y-60763054D01*
X256553620Y-60764478D01*
X258016624Y-61613043D01*
X258019019Y-61614470D01*
X259441440Y-62484522D01*
X259461887Y-62497029D01*
X259464335Y-62498566D01*
X259606180Y-62589949D01*
X260886064Y-63414503D01*
X260888481Y-63416100D01*
X261530529Y-63851286D01*
X262288505Y-64365049D01*
X262290837Y-64366670D01*
X263313819Y-65095500D01*
X263668285Y-65348042D01*
X263670584Y-65349720D01*
X265024771Y-66363027D01*
X265027041Y-66364768D01*
X265509545Y-66743713D01*
X266304964Y-67368414D01*
X266357163Y-67409409D01*
X266359403Y-67411212D01*
X266574659Y-67588551D01*
X267664746Y-68486626D01*
X267666960Y-68488494D01*
X268946807Y-69594087D01*
X268948977Y-69596006D01*
X270202668Y-70731210D01*
X270204792Y-70733179D01*
X271431603Y-71897336D01*
X271433670Y-71899343D01*
X271887755Y-72350858D01*
X272633006Y-73091891D01*
X272635036Y-73093958D01*
X273806136Y-74314141D01*
X273808116Y-74316253D01*
X274908010Y-75517179D01*
X274950378Y-75563438D01*
X274952310Y-75565597D01*
X276065208Y-76839216D01*
X276067088Y-76841419D01*
X277149862Y-78140600D01*
X277151690Y-78142846D01*
X278203839Y-79466986D01*
X278205615Y-79469275D01*
X279226576Y-80817668D01*
X279228297Y-80819998D01*
X280217433Y-82191801D01*
X280219100Y-82194170D01*
X280534723Y-82654179D01*
X281086765Y-83458760D01*
X281175950Y-83588743D01*
X281177561Y-83591151D01*
X282101593Y-85007723D01*
X282103147Y-85010167D01*
X282993822Y-86447908D01*
X282995318Y-86450388D01*
X283661866Y-87584692D01*
X283805950Y-87829890D01*
X283852138Y-87908490D01*
X283853572Y-87910995D01*
X284670363Y-89378412D01*
X284676157Y-89388820D01*
X284677528Y-89391354D01*
X284770422Y-89567820D01*
X285465334Y-90887923D01*
X285466653Y-90890501D01*
X286219289Y-92405068D01*
X286220548Y-92407677D01*
X286937617Y-93939446D01*
X286938814Y-93942084D01*
X287619893Y-95490152D01*
X287621028Y-95492816D01*
X288239801Y-96993412D01*
X288265750Y-97056340D01*
X288266823Y-97059031D01*
X288874861Y-98637226D01*
X288875871Y-98639941D01*
X289446883Y-100231917D01*
X289447829Y-100234655D01*
X289981490Y-101839507D01*
X289982372Y-101842266D01*
X290261127Y-102750909D01*
X290354037Y-103053763D01*
X290478410Y-103459173D01*
X290479227Y-103461952D01*
X290937353Y-105089982D01*
X290938105Y-105092779D01*
X291358076Y-106731054D01*
X291358763Y-106733868D01*
X291740369Y-108381576D01*
X291740989Y-108384406D01*
X292083989Y-110040511D01*
X292084543Y-110043354D01*
X292388764Y-111707012D01*
X292389252Y-111709867D01*
X292654535Y-113380211D01*
X292654956Y-113383077D01*
X292881149Y-115059149D01*
X292881503Y-115062024D01*
X293068487Y-116742956D01*
X293068773Y-116745838D01*
X293216435Y-118430592D01*
X293216655Y-118433481D01*
X293324932Y-120121339D01*
X293325083Y-120124231D01*
X293393900Y-121814076D01*
X293393984Y-121816972D01*
X293423311Y-123507958D01*
X293423328Y-123510854D01*
X293413148Y-125202149D01*
X293413096Y-125205046D01*
X293363416Y-126895516D01*
X293363298Y-126898410D01*
X293274139Y-128587391D01*
X293273952Y-128590281D01*
X293145372Y-130276631D01*
X293145118Y-130279517D01*
X292977181Y-131962413D01*
X292976860Y-131965292D01*
X292769653Y-133643861D01*
X292769264Y-133646731D01*
X292522917Y-135319917D01*
X292522462Y-135322778D01*
X292237090Y-136989815D01*
X292236568Y-136992664D01*
X291912341Y-138652546D01*
X291911753Y-138655382D01*
X291548830Y-140307288D01*
X291548175Y-140310110D01*
X291146779Y-141953035D01*
X291146059Y-141955840D01*
X290706387Y-143588981D01*
X290705601Y-143591769D01*
X290227917Y-145214138D01*
X290227067Y-145216907D01*
X289711602Y-146827724D01*
X289710687Y-146830473D01*
X289157736Y-148428811D01*
X289156757Y-148431537D01*
X288566618Y-150016538D01*
X288565575Y-150019241D01*
X287938603Y-151589949D01*
X287937498Y-151592626D01*
X287273990Y-153148307D01*
X287272823Y-153150958D01*
X286573150Y-154690731D01*
X286571921Y-154693354D01*
X285836472Y-156216362D01*
X285835182Y-156218955D01*
X285064361Y-157724368D01*
X285063010Y-157726931D01*
X284257269Y-159213862D01*
X284255860Y-159216393D01*
X283415539Y-160684219D01*
X283414070Y-160686715D01*
X282539761Y-162134399D01*
X282538235Y-162136861D01*
X281630324Y-163563765D01*
X281628741Y-163566191D01*
X280687723Y-164971536D01*
X280686083Y-164973924D01*
X279712522Y-166356868D01*
X279710827Y-166359217D01*
X278705217Y-167719055D01*
X278703468Y-167721363D01*
X277666386Y-169057321D01*
X277664583Y-169059589D01*
X276596533Y-170371014D01*
X276594677Y-170373238D01*
X275496367Y-171659261D01*
X275494461Y-171661442D01*
X274366312Y-172921571D01*
X274364354Y-172923706D01*
X273207164Y-174157047D01*
X273205158Y-174159136D01*
X272019433Y-175365155D01*
X272017378Y-175367197D01*
X270803806Y-176545189D01*
X270801704Y-176547182D01*
X269560945Y-177696508D01*
X269558797Y-177698451D01*
X268291573Y-178818444D01*
X268289381Y-178820337D01*
X266996272Y-179910482D01*
X266994036Y-179912323D01*
X265675901Y-180971898D01*
X265673622Y-180973686D01*
X264330995Y-182002262D01*
X264328675Y-182003997D01*
X262962457Y-183000878D01*
X262960097Y-183002558D01*
X261570950Y-183967267D01*
X261568552Y-183968891D01*
X260157250Y-184900888D01*
X260154814Y-184902456D01*
X258722156Y-185801216D01*
X258719685Y-185802727D01*
X257266361Y-186667815D01*
X257263854Y-186669267D01*
X255790771Y-187500141D01*
X255788232Y-187501535D01*
X254296132Y-188297781D01*
X254293561Y-188299115D01*
X252783235Y-189060308D01*
X252780633Y-189061581D01*
X251252972Y-189787272D01*
X251250341Y-189788484D01*
X249706180Y-190478278D01*
X249703522Y-190479429D01*
X248143611Y-191132991D01*
X248140926Y-191134079D01*
X246566176Y-191751024D01*
X246563467Y-191752049D01*
X244974754Y-192332036D01*
X244972022Y-192332997D01*
X243370234Y-192875702D01*
X243367480Y-192876600D01*
X241753361Y-193381772D01*
X241750587Y-193382604D01*
X240125198Y-193849909D01*
X240122404Y-193850677D01*
X238486517Y-194279895D01*
X238483707Y-194280598D01*
X236838189Y-194671499D01*
X236835363Y-194672135D01*
X235181213Y-195024482D01*
X235178425Y-195025042D01*
X234249550Y-195200325D01*
X234180023Y-195193413D01*
X234125271Y-195150009D01*
X234102675Y-195083893D01*
X234102557Y-195078511D01*
X234102326Y-188563713D01*
X237399500Y-188563713D01*
X237399500Y-188776286D01*
X237421218Y-188913412D01*
X237432754Y-188986243D01*
X237470632Y-189102820D01*
X237498444Y-189188414D01*
X237594951Y-189377820D01*
X237719890Y-189549786D01*
X237870213Y-189700109D01*
X238042179Y-189825048D01*
X238042181Y-189825049D01*
X238042184Y-189825051D01*
X238231588Y-189921557D01*
X238433757Y-189987246D01*
X238643713Y-190020500D01*
X238643714Y-190020500D01*
X238856286Y-190020500D01*
X238856287Y-190020500D01*
X239066243Y-189987246D01*
X239268412Y-189921557D01*
X239457816Y-189825051D01*
X239479789Y-189809086D01*
X239629786Y-189700109D01*
X239629788Y-189700106D01*
X239629792Y-189700104D01*
X239780104Y-189549792D01*
X239780106Y-189549788D01*
X239780109Y-189549786D01*
X239905048Y-189377820D01*
X239905047Y-189377820D01*
X239905051Y-189377816D01*
X240001557Y-189188412D01*
X240067246Y-188986243D01*
X240100500Y-188776287D01*
X240100500Y-188563713D01*
X240067246Y-188353757D01*
X240001557Y-188151588D01*
X239905051Y-187962184D01*
X239905049Y-187962181D01*
X239905048Y-187962179D01*
X239780109Y-187790213D01*
X239629786Y-187639890D01*
X239457820Y-187514951D01*
X239268414Y-187418444D01*
X239268413Y-187418443D01*
X239268412Y-187418443D01*
X239066243Y-187352754D01*
X239066241Y-187352753D01*
X239066240Y-187352753D01*
X238904957Y-187327208D01*
X238856287Y-187319500D01*
X238643713Y-187319500D01*
X238595042Y-187327208D01*
X238433760Y-187352753D01*
X238231585Y-187418444D01*
X238042179Y-187514951D01*
X237870213Y-187639890D01*
X237719890Y-187790213D01*
X237594951Y-187962179D01*
X237498444Y-188151585D01*
X237432753Y-188353760D01*
X237399500Y-188563713D01*
X234102326Y-188563713D01*
X234101733Y-171818713D01*
X242654500Y-171818713D01*
X242654500Y-172031286D01*
X242673651Y-172152204D01*
X242687754Y-172241243D01*
X242737102Y-172393121D01*
X242753444Y-172443414D01*
X242849951Y-172632820D01*
X242974890Y-172804786D01*
X243125213Y-172955109D01*
X243297179Y-173080048D01*
X243297181Y-173080049D01*
X243297184Y-173080051D01*
X243486588Y-173176557D01*
X243688757Y-173242246D01*
X243898713Y-173275500D01*
X243898714Y-173275500D01*
X244111286Y-173275500D01*
X244111287Y-173275500D01*
X244321243Y-173242246D01*
X244523412Y-173176557D01*
X244712816Y-173080051D01*
X244745595Y-173056236D01*
X244884786Y-172955109D01*
X244884788Y-172955106D01*
X244884792Y-172955104D01*
X245035104Y-172804792D01*
X245035106Y-172804788D01*
X245035109Y-172804786D01*
X245160048Y-172632820D01*
X245160047Y-172632820D01*
X245160051Y-172632816D01*
X245256557Y-172443412D01*
X245322246Y-172241243D01*
X245355500Y-172031287D01*
X245355500Y-171818713D01*
X262654500Y-171818713D01*
X262654500Y-172031286D01*
X262673651Y-172152204D01*
X262687754Y-172241243D01*
X262737102Y-172393121D01*
X262753444Y-172443414D01*
X262849951Y-172632820D01*
X262974890Y-172804786D01*
X263125213Y-172955109D01*
X263297179Y-173080048D01*
X263297181Y-173080049D01*
X263297184Y-173080051D01*
X263486588Y-173176557D01*
X263688757Y-173242246D01*
X263898713Y-173275500D01*
X263898714Y-173275500D01*
X264111286Y-173275500D01*
X264111287Y-173275500D01*
X264321243Y-173242246D01*
X264523412Y-173176557D01*
X264712816Y-173080051D01*
X264745595Y-173056236D01*
X264884786Y-172955109D01*
X264884788Y-172955106D01*
X264884792Y-172955104D01*
X265035104Y-172804792D01*
X265035106Y-172804788D01*
X265035109Y-172804786D01*
X265160048Y-172632820D01*
X265160047Y-172632820D01*
X265160051Y-172632816D01*
X265256557Y-172443412D01*
X265322246Y-172241243D01*
X265355500Y-172031287D01*
X265355500Y-171818713D01*
X265322246Y-171608757D01*
X265256557Y-171406588D01*
X265160051Y-171217184D01*
X265160049Y-171217181D01*
X265160048Y-171217179D01*
X265035109Y-171045213D01*
X264884786Y-170894890D01*
X264712820Y-170769951D01*
X264523414Y-170673444D01*
X264523413Y-170673443D01*
X264523412Y-170673443D01*
X264321243Y-170607754D01*
X264321241Y-170607753D01*
X264321240Y-170607753D01*
X264159957Y-170582208D01*
X264111287Y-170574500D01*
X263898713Y-170574500D01*
X263850042Y-170582208D01*
X263688760Y-170607753D01*
X263688757Y-170607754D01*
X263532415Y-170658553D01*
X263486585Y-170673444D01*
X263297179Y-170769951D01*
X263125213Y-170894890D01*
X262974890Y-171045213D01*
X262849951Y-171217179D01*
X262753444Y-171406585D01*
X262687753Y-171608760D01*
X262654500Y-171818713D01*
X245355500Y-171818713D01*
X245322246Y-171608757D01*
X245256557Y-171406588D01*
X245160051Y-171217184D01*
X245160049Y-171217181D01*
X245160048Y-171217179D01*
X245035109Y-171045213D01*
X244884786Y-170894890D01*
X244712820Y-170769951D01*
X244523414Y-170673444D01*
X244523413Y-170673443D01*
X244523412Y-170673443D01*
X244321243Y-170607754D01*
X244321241Y-170607753D01*
X244321240Y-170607753D01*
X244159957Y-170582208D01*
X244111287Y-170574500D01*
X243898713Y-170574500D01*
X243850042Y-170582208D01*
X243688760Y-170607753D01*
X243688757Y-170607754D01*
X243532415Y-170658553D01*
X243486585Y-170673444D01*
X243297179Y-170769951D01*
X243125213Y-170894890D01*
X242974890Y-171045213D01*
X242849951Y-171217179D01*
X242753444Y-171406585D01*
X242687753Y-171608760D01*
X242654500Y-171818713D01*
X234101733Y-171818713D01*
X234101373Y-161637916D01*
X244504500Y-161637916D01*
X244504500Y-162212083D01*
X244539166Y-162785177D01*
X244608372Y-163355135D01*
X244711866Y-163919887D01*
X244849268Y-164477350D01*
X244849273Y-164477366D01*
X245020077Y-165025495D01*
X245223672Y-165562332D01*
X245223677Y-165562343D01*
X245459315Y-166085910D01*
X245726136Y-166594295D01*
X246023165Y-167085641D01*
X246349319Y-167558157D01*
X246349323Y-167558162D01*
X246703401Y-168010111D01*
X246703402Y-168010112D01*
X247084130Y-168439864D01*
X247084164Y-168439900D01*
X247490099Y-168845835D01*
X247490135Y-168845869D01*
X247919887Y-169226597D01*
X247919888Y-169226598D01*
X248287220Y-169514383D01*
X248371843Y-169580681D01*
X248844359Y-169906835D01*
X249335705Y-170203864D01*
X249844090Y-170470685D01*
X250367657Y-170706323D01*
X250367664Y-170706325D01*
X250367667Y-170706327D01*
X250457385Y-170740352D01*
X250904496Y-170909920D01*
X251452649Y-171080731D01*
X252010115Y-171218134D01*
X252574860Y-171321627D01*
X253030830Y-171376991D01*
X253144822Y-171390833D01*
X253211994Y-171394896D01*
X253717925Y-171425500D01*
X253717938Y-171425500D01*
X254292062Y-171425500D01*
X254292075Y-171425500D01*
X254865177Y-171390833D01*
X255435140Y-171321627D01*
X255999885Y-171218134D01*
X256557351Y-171080731D01*
X257105504Y-170909920D01*
X257642343Y-170706323D01*
X258165910Y-170470685D01*
X258674295Y-170203864D01*
X259165641Y-169906835D01*
X259638157Y-169580681D01*
X259944272Y-169340854D01*
X260090111Y-169226598D01*
X260090112Y-169226597D01*
X260090118Y-169226592D01*
X260519875Y-168845860D01*
X260925860Y-168439875D01*
X261306592Y-168010118D01*
X261306597Y-168010112D01*
X261306598Y-168010111D01*
X261420854Y-167864272D01*
X261660681Y-167558157D01*
X261986835Y-167085641D01*
X262283864Y-166594295D01*
X262550685Y-166085910D01*
X262786323Y-165562343D01*
X262989920Y-165025504D01*
X263160731Y-164477351D01*
X263298134Y-163919885D01*
X263401627Y-163355140D01*
X263470833Y-162785177D01*
X263505500Y-162212075D01*
X263505500Y-161637925D01*
X263470833Y-161064823D01*
X263401627Y-160494860D01*
X263298134Y-159930115D01*
X263160731Y-159372649D01*
X262989920Y-158824496D01*
X262786323Y-158287657D01*
X262550685Y-157764090D01*
X262283864Y-157255705D01*
X261986835Y-156764359D01*
X261660681Y-156291843D01*
X261521982Y-156114807D01*
X261306598Y-155839888D01*
X261306597Y-155839887D01*
X260925869Y-155410135D01*
X260925835Y-155410099D01*
X260519900Y-155004164D01*
X260519864Y-155004130D01*
X260090112Y-154623402D01*
X260090111Y-154623401D01*
X259638162Y-154269323D01*
X259638157Y-154269319D01*
X259204907Y-153970268D01*
X259165656Y-153943175D01*
X259165648Y-153943170D01*
X259165641Y-153943165D01*
X259119915Y-153915522D01*
X258674304Y-153646141D01*
X258674298Y-153646138D01*
X258674295Y-153646136D01*
X258165910Y-153379315D01*
X258165908Y-153379314D01*
X258165904Y-153379312D01*
X257642332Y-153143672D01*
X257284194Y-153007848D01*
X257105504Y-152940080D01*
X257105497Y-152940078D01*
X257105495Y-152940077D01*
X256557366Y-152769273D01*
X256557350Y-152769268D01*
X255999887Y-152631866D01*
X255435135Y-152528372D01*
X254865177Y-152459166D01*
X254292083Y-152424500D01*
X254292075Y-152424500D01*
X253717925Y-152424500D01*
X253717916Y-152424500D01*
X253144822Y-152459166D01*
X252574864Y-152528372D01*
X252010112Y-152631866D01*
X251452649Y-152769268D01*
X251452633Y-152769273D01*
X250904504Y-152940077D01*
X250367667Y-153143672D01*
X249844095Y-153379312D01*
X249335695Y-153646141D01*
X248844368Y-153943159D01*
X248844343Y-153943175D01*
X248371837Y-154269323D01*
X247919888Y-154623401D01*
X247919887Y-154623402D01*
X247490135Y-155004130D01*
X247490099Y-155004164D01*
X247084164Y-155410099D01*
X247084130Y-155410135D01*
X246703402Y-155839887D01*
X246703401Y-155839888D01*
X246349323Y-156291837D01*
X246023175Y-156764343D01*
X246023159Y-156764368D01*
X245726141Y-157255695D01*
X245459312Y-157764095D01*
X245223672Y-158287667D01*
X245020077Y-158824504D01*
X244849273Y-159372633D01*
X244849268Y-159372649D01*
X244711866Y-159930112D01*
X244608372Y-160494864D01*
X244539166Y-161064822D01*
X244504500Y-161637916D01*
X234101373Y-161637916D01*
X234101025Y-151818713D01*
X242654500Y-151818713D01*
X242654500Y-152031286D01*
X242672314Y-152143763D01*
X242687754Y-152241243D01*
X242717100Y-152331561D01*
X242753444Y-152443414D01*
X242849951Y-152632820D01*
X242974890Y-152804786D01*
X243125213Y-152955109D01*
X243297179Y-153080048D01*
X243297181Y-153080049D01*
X243297184Y-153080051D01*
X243486588Y-153176557D01*
X243688757Y-153242246D01*
X243898713Y-153275500D01*
X243898714Y-153275500D01*
X244111286Y-153275500D01*
X244111287Y-153275500D01*
X244321243Y-153242246D01*
X244523412Y-153176557D01*
X244712816Y-153080051D01*
X244781436Y-153030196D01*
X244884786Y-152955109D01*
X244884788Y-152955106D01*
X244884792Y-152955104D01*
X245035104Y-152804792D01*
X245035106Y-152804788D01*
X245035109Y-152804786D01*
X245160048Y-152632820D01*
X245160047Y-152632820D01*
X245160051Y-152632816D01*
X245256557Y-152443412D01*
X245322246Y-152241243D01*
X245355500Y-152031287D01*
X245355500Y-151818713D01*
X262654500Y-151818713D01*
X262654500Y-152031286D01*
X262672314Y-152143763D01*
X262687754Y-152241243D01*
X262717100Y-152331561D01*
X262753444Y-152443414D01*
X262849951Y-152632820D01*
X262974890Y-152804786D01*
X263125213Y-152955109D01*
X263297179Y-153080048D01*
X263297181Y-153080049D01*
X263297184Y-153080051D01*
X263486588Y-153176557D01*
X263688757Y-153242246D01*
X263898713Y-153275500D01*
X263898714Y-153275500D01*
X264111286Y-153275500D01*
X264111287Y-153275500D01*
X264321243Y-153242246D01*
X264523412Y-153176557D01*
X264712816Y-153080051D01*
X264781436Y-153030196D01*
X264884786Y-152955109D01*
X264884788Y-152955106D01*
X264884792Y-152955104D01*
X265035104Y-152804792D01*
X265035106Y-152804788D01*
X265035109Y-152804786D01*
X265160048Y-152632820D01*
X265160047Y-152632820D01*
X265160051Y-152632816D01*
X265256557Y-152443412D01*
X265322246Y-152241243D01*
X265355500Y-152031287D01*
X265355500Y-151818713D01*
X265322246Y-151608757D01*
X265256557Y-151406588D01*
X265160051Y-151217184D01*
X265160049Y-151217181D01*
X265160048Y-151217179D01*
X265035109Y-151045213D01*
X264884786Y-150894890D01*
X264712820Y-150769951D01*
X264523414Y-150673444D01*
X264523413Y-150673443D01*
X264523412Y-150673443D01*
X264321243Y-150607754D01*
X264321241Y-150607753D01*
X264321240Y-150607753D01*
X264159957Y-150582208D01*
X264111287Y-150574500D01*
X263898713Y-150574500D01*
X263850042Y-150582208D01*
X263688760Y-150607753D01*
X263486585Y-150673444D01*
X263297179Y-150769951D01*
X263125213Y-150894890D01*
X262974890Y-151045213D01*
X262849951Y-151217179D01*
X262753444Y-151406585D01*
X262687753Y-151608760D01*
X262654500Y-151818713D01*
X245355500Y-151818713D01*
X245322246Y-151608757D01*
X245256557Y-151406588D01*
X245160051Y-151217184D01*
X245160049Y-151217181D01*
X245160048Y-151217179D01*
X245035109Y-151045213D01*
X244884786Y-150894890D01*
X244712820Y-150769951D01*
X244523414Y-150673444D01*
X244523413Y-150673443D01*
X244523412Y-150673443D01*
X244321243Y-150607754D01*
X244321241Y-150607753D01*
X244321240Y-150607753D01*
X244159957Y-150582208D01*
X244111287Y-150574500D01*
X243898713Y-150574500D01*
X243850042Y-150582208D01*
X243688760Y-150607753D01*
X243486585Y-150673444D01*
X243297179Y-150769951D01*
X243125213Y-150894890D01*
X242974890Y-151045213D01*
X242849951Y-151217179D01*
X242753444Y-151406585D01*
X242687753Y-151608760D01*
X242654500Y-151818713D01*
X234101025Y-151818713D01*
X234100605Y-139965208D01*
X234100508Y-137224287D01*
X234100500Y-137010523D01*
X234100500Y-134096263D01*
X244955500Y-134096263D01*
X244955500Y-134293736D01*
X244986389Y-134488763D01*
X245047408Y-134676558D01*
X245047409Y-134676561D01*
X245137056Y-134852501D01*
X245137058Y-134852504D01*
X245253115Y-135012246D01*
X245392753Y-135151884D01*
X245542234Y-135260486D01*
X245552499Y-135267944D01*
X245728439Y-135357591D01*
X245728450Y-135357594D01*
X245732942Y-135359456D01*
X245732180Y-135361295D01*
X245782923Y-135395953D01*
X245810154Y-135460298D01*
X245798276Y-135529150D01*
X245787291Y-135547379D01*
X245772481Y-135567763D01*
X245682873Y-135743626D01*
X245621876Y-135931353D01*
X245591000Y-136126302D01*
X245591000Y-136323697D01*
X245621876Y-136518646D01*
X245682873Y-136706373D01*
X245772483Y-136882239D01*
X245798457Y-136917988D01*
X245798457Y-136917989D01*
X246362037Y-136354408D01*
X246379075Y-136417993D01*
X246444901Y-136532007D01*
X246537993Y-136625099D01*
X246652007Y-136690925D01*
X246715590Y-136707962D01*
X246152009Y-137271541D01*
X246152010Y-137271542D01*
X246187755Y-137297512D01*
X246187768Y-137297520D01*
X246363626Y-137387126D01*
X246551353Y-137448123D01*
X246746303Y-137479000D01*
X246943697Y-137479000D01*
X247138646Y-137448123D01*
X247326373Y-137387126D01*
X247502241Y-137297516D01*
X247537988Y-137271543D01*
X247537988Y-137271541D01*
X246974410Y-136707962D01*
X247037993Y-136690925D01*
X247152007Y-136625099D01*
X247245099Y-136532007D01*
X247310925Y-136417993D01*
X247327962Y-136354409D01*
X247860000Y-136886446D01*
X247860001Y-136886446D01*
X248392037Y-136354409D01*
X248409075Y-136417993D01*
X248474901Y-136532007D01*
X248567993Y-136625099D01*
X248682007Y-136690925D01*
X248745590Y-136707962D01*
X248182009Y-137271541D01*
X248182010Y-137271542D01*
X248217755Y-137297512D01*
X248217768Y-137297520D01*
X248393626Y-137387126D01*
X248581353Y-137448123D01*
X248776303Y-137479000D01*
X248973697Y-137479000D01*
X249168646Y-137448123D01*
X249356373Y-137387126D01*
X249532241Y-137297516D01*
X249567988Y-137271543D01*
X249567988Y-137271541D01*
X249004410Y-136707962D01*
X249067993Y-136690925D01*
X249182007Y-136625099D01*
X249275099Y-136532007D01*
X249340925Y-136417993D01*
X249357962Y-136354408D01*
X249921541Y-136917988D01*
X249921543Y-136917988D01*
X249947516Y-136882241D01*
X250037126Y-136706373D01*
X250098123Y-136518646D01*
X250129000Y-136323697D01*
X250129000Y-136126302D01*
X250098123Y-135931353D01*
X250037126Y-135743626D01*
X249979125Y-135629794D01*
X249966229Y-135561125D01*
X249992505Y-135496384D01*
X250049612Y-135456127D01*
X250089609Y-135449499D01*
X250311872Y-135449499D01*
X250371483Y-135443091D01*
X250506331Y-135392796D01*
X250621546Y-135306546D01*
X250707796Y-135191331D01*
X250758091Y-135056483D01*
X250764500Y-134996873D01*
X250764499Y-133393128D01*
X250758091Y-133333517D01*
X250722508Y-133238115D01*
X250707797Y-133198671D01*
X250707793Y-133198664D01*
X250621547Y-133083455D01*
X250621544Y-133083452D01*
X250506335Y-132997206D01*
X250506328Y-132997202D01*
X250371482Y-132946908D01*
X250371483Y-132946908D01*
X250311883Y-132940501D01*
X250311881Y-132940500D01*
X250311873Y-132940500D01*
X250311864Y-132940500D01*
X248708129Y-132940500D01*
X248708123Y-132940501D01*
X248648516Y-132946908D01*
X248513671Y-132997202D01*
X248513664Y-132997206D01*
X248398455Y-133083452D01*
X248398452Y-133083455D01*
X248312206Y-133198664D01*
X248312202Y-133198671D01*
X248261908Y-133333517D01*
X248257153Y-133377748D01*
X248255501Y-133393123D01*
X248255500Y-133393135D01*
X248255500Y-134996870D01*
X248255501Y-134996876D01*
X248260610Y-135044401D01*
X248257480Y-135061742D01*
X248259424Y-135079256D01*
X248248392Y-135112781D01*
X248204589Y-135201035D01*
X248745591Y-135742037D01*
X248682007Y-135759075D01*
X248567993Y-135824901D01*
X248474901Y-135917993D01*
X248409075Y-136032007D01*
X248392037Y-136095590D01*
X247860001Y-135563553D01*
X247860000Y-135563553D01*
X247327962Y-136095590D01*
X247310925Y-136032007D01*
X247245099Y-135917993D01*
X247152007Y-135824901D01*
X247037993Y-135759075D01*
X246974408Y-135742037D01*
X247537989Y-135178457D01*
X247502239Y-135152483D01*
X247326363Y-135062870D01*
X247321866Y-135061007D01*
X247322664Y-135059078D01*
X247272209Y-135024562D01*
X247245025Y-134960197D01*
X247256954Y-134891354D01*
X247267900Y-134873206D01*
X247282944Y-134852501D01*
X247372591Y-134676561D01*
X247433610Y-134488763D01*
X247464500Y-134293736D01*
X247464500Y-134096263D01*
X247433610Y-133901236D01*
X247413270Y-133838637D01*
X247372591Y-133713439D01*
X247282944Y-133537499D01*
X247275486Y-133527234D01*
X247166884Y-133377753D01*
X247027246Y-133238115D01*
X246867504Y-133122058D01*
X246867503Y-133122057D01*
X246867501Y-133122056D01*
X246691561Y-133032409D01*
X246691558Y-133032408D01*
X246503763Y-132971389D01*
X246308736Y-132940500D01*
X246308731Y-132940500D01*
X246111269Y-132940500D01*
X246111264Y-132940500D01*
X245916236Y-132971389D01*
X245728441Y-133032408D01*
X245552495Y-133122058D01*
X245392753Y-133238115D01*
X245253115Y-133377753D01*
X245137058Y-133537495D01*
X245047408Y-133713441D01*
X244986389Y-133901236D01*
X244955500Y-134096263D01*
X234100500Y-134096263D01*
X234100500Y-130512683D01*
X234100500Y-130512682D01*
X234069954Y-130300231D01*
X234009484Y-130094290D01*
X234009483Y-130094288D01*
X234009482Y-130094284D01*
X233920327Y-129899061D01*
X233920320Y-129899048D01*
X233887211Y-129847531D01*
X233804281Y-129718487D01*
X233771172Y-129680277D01*
X233663724Y-129556275D01*
X233501514Y-129415720D01*
X233501513Y-129415719D01*
X233436991Y-129374253D01*
X233320951Y-129299679D01*
X233320938Y-129299672D01*
X233125715Y-129210517D01*
X232919774Y-129150047D01*
X232919764Y-129150044D01*
X232728754Y-129122582D01*
X232707318Y-129119500D01*
X232665892Y-129119500D01*
X209265892Y-129119500D01*
X209200000Y-129119500D01*
X209092682Y-129119500D01*
X208880235Y-129150044D01*
X208880225Y-129150047D01*
X208674284Y-129210517D01*
X208479061Y-129299672D01*
X208479048Y-129299679D01*
X208298485Y-129415720D01*
X208136275Y-129556275D01*
X207995720Y-129718485D01*
X207879679Y-129899048D01*
X207879672Y-129899061D01*
X207790517Y-130094284D01*
X207730047Y-130300225D01*
X207730044Y-130300235D01*
X207699500Y-130512682D01*
X207699500Y-136954108D01*
X207699495Y-195078859D01*
X207679810Y-195145898D01*
X207627006Y-195191653D01*
X207557848Y-195201597D01*
X207552505Y-195200709D01*
X206623679Y-195025464D01*
X206620839Y-195024894D01*
X204966638Y-194672587D01*
X204963812Y-194671950D01*
X203318353Y-194281112D01*
X203315543Y-194280410D01*
X201679613Y-193851232D01*
X201676820Y-193850464D01*
X200051418Y-193383206D01*
X200048644Y-193382374D01*
X198434523Y-192877253D01*
X198431769Y-192876355D01*
X196829952Y-192333692D01*
X196827219Y-192332731D01*
X196825315Y-192332036D01*
X195238474Y-191752784D01*
X195235767Y-191751760D01*
X193661028Y-191134871D01*
X193658343Y-191133783D01*
X192098435Y-190480276D01*
X192095777Y-190479126D01*
X190631461Y-189825051D01*
X190551516Y-189789341D01*
X190548893Y-189788132D01*
X190548379Y-189787888D01*
X189021243Y-189062500D01*
X189018645Y-189061229D01*
X189018095Y-189060952D01*
X187508297Y-188300080D01*
X187505726Y-188298746D01*
X187486924Y-188288713D01*
X200574500Y-188288713D01*
X200574500Y-188501287D01*
X200607754Y-188711243D01*
X200647739Y-188834305D01*
X200673444Y-188913414D01*
X200769951Y-189102820D01*
X200894890Y-189274786D01*
X201045213Y-189425109D01*
X201217179Y-189550048D01*
X201217181Y-189550049D01*
X201217184Y-189550051D01*
X201406588Y-189646557D01*
X201608757Y-189712246D01*
X201818713Y-189745500D01*
X201818714Y-189745500D01*
X202031286Y-189745500D01*
X202031287Y-189745500D01*
X202241243Y-189712246D01*
X202443412Y-189646557D01*
X202632816Y-189550051D01*
X202654789Y-189534086D01*
X202804786Y-189425109D01*
X202804788Y-189425106D01*
X202804792Y-189425104D01*
X202955104Y-189274792D01*
X202955106Y-189274788D01*
X202955109Y-189274786D01*
X203080048Y-189102820D01*
X203080047Y-189102820D01*
X203080051Y-189102816D01*
X203176557Y-188913412D01*
X203242246Y-188711243D01*
X203275500Y-188501287D01*
X203275500Y-188288713D01*
X203242246Y-188078757D01*
X203176557Y-187876588D01*
X203080051Y-187687184D01*
X203080049Y-187687181D01*
X203080048Y-187687179D01*
X202955109Y-187515213D01*
X202804786Y-187364890D01*
X202632820Y-187239951D01*
X202443414Y-187143444D01*
X202443413Y-187143443D01*
X202443412Y-187143443D01*
X202241243Y-187077754D01*
X202241241Y-187077753D01*
X202241240Y-187077753D01*
X202079957Y-187052208D01*
X202031287Y-187044500D01*
X201818713Y-187044500D01*
X201770042Y-187052208D01*
X201608760Y-187077753D01*
X201406585Y-187143444D01*
X201217179Y-187239951D01*
X201045213Y-187364890D01*
X200894890Y-187515213D01*
X200769951Y-187687179D01*
X200673444Y-187876585D01*
X200607753Y-188078760D01*
X200574500Y-188288713D01*
X187486924Y-188288713D01*
X186013635Y-187502561D01*
X186011095Y-187501168D01*
X184537956Y-186670316D01*
X184535450Y-186668864D01*
X183082100Y-185803819D01*
X183079629Y-185802308D01*
X183077888Y-185801216D01*
X182347982Y-185343348D01*
X181646946Y-184903590D01*
X181644510Y-184902022D01*
X180233181Y-183970065D01*
X180230783Y-183968441D01*
X178841608Y-183003772D01*
X178839248Y-183002092D01*
X177473001Y-182005250D01*
X177470681Y-182003516D01*
X176128072Y-180975016D01*
X176125793Y-180973228D01*
X174807534Y-179913617D01*
X174805341Y-179911811D01*
X173512178Y-178821684D01*
X173510056Y-178819852D01*
X173509568Y-178819421D01*
X172242731Y-177699835D01*
X172240583Y-177697891D01*
X170999815Y-176548623D01*
X170997713Y-176546630D01*
X169784128Y-175368694D01*
X169782073Y-175366653D01*
X168596292Y-174160647D01*
X168594286Y-174158558D01*
X167437019Y-172925206D01*
X167435062Y-172923070D01*
X167329160Y-172804786D01*
X167099376Y-172548135D01*
X190695500Y-172548135D01*
X190695500Y-174151870D01*
X190695501Y-174151876D01*
X190701908Y-174211483D01*
X190752202Y-174346328D01*
X190752206Y-174346335D01*
X190838452Y-174461544D01*
X190838455Y-174461547D01*
X190953664Y-174547793D01*
X190953671Y-174547797D01*
X191088517Y-174598091D01*
X191088516Y-174598091D01*
X191095444Y-174598835D01*
X191148127Y-174604500D01*
X192751872Y-174604499D01*
X192811483Y-174598091D01*
X192946331Y-174547796D01*
X193061546Y-174461546D01*
X193147796Y-174346331D01*
X193198091Y-174211483D01*
X193204500Y-174151873D01*
X193204499Y-172548128D01*
X193199390Y-172500600D01*
X193211607Y-172432218D01*
X193255409Y-172343962D01*
X192714408Y-171802962D01*
X192777993Y-171785925D01*
X192892007Y-171720099D01*
X192985099Y-171627007D01*
X193050925Y-171512993D01*
X193067962Y-171449409D01*
X193600000Y-171981446D01*
X193600001Y-171981446D01*
X194132037Y-171449409D01*
X194149075Y-171512993D01*
X194214901Y-171627007D01*
X194307993Y-171720099D01*
X194422007Y-171785925D01*
X194485590Y-171802962D01*
X193922009Y-172366541D01*
X193922010Y-172366542D01*
X193957755Y-172392512D01*
X193957768Y-172392520D01*
X194133636Y-172482129D01*
X194138134Y-172483993D01*
X194137329Y-172485935D01*
X194187746Y-172520384D01*
X194214966Y-172584733D01*
X194203075Y-172653584D01*
X194192100Y-172671792D01*
X194177054Y-172692501D01*
X194087408Y-172868441D01*
X194026389Y-173056236D01*
X193995500Y-173251263D01*
X193995500Y-173448736D01*
X194026389Y-173643763D01*
X194087408Y-173831558D01*
X194087409Y-173831561D01*
X194177056Y-174007501D01*
X194177058Y-174007504D01*
X194293115Y-174167246D01*
X194432753Y-174306884D01*
X194517638Y-174368555D01*
X194592499Y-174422944D01*
X194768439Y-174512591D01*
X194893637Y-174553270D01*
X194956236Y-174573610D01*
X195151264Y-174604500D01*
X195151269Y-174604500D01*
X195348736Y-174604500D01*
X195543763Y-174573610D01*
X195731561Y-174512591D01*
X195907501Y-174422944D01*
X196012955Y-174346328D01*
X196067246Y-174306884D01*
X196067248Y-174306881D01*
X196067252Y-174306879D01*
X196206879Y-174167252D01*
X196206881Y-174167248D01*
X196206884Y-174167246D01*
X196257779Y-174097192D01*
X196322944Y-174007501D01*
X196412591Y-173831561D01*
X196473610Y-173643763D01*
X196504500Y-173448736D01*
X196504500Y-173251263D01*
X196473610Y-173056236D01*
X196453270Y-172993637D01*
X196412591Y-172868439D01*
X196322944Y-172692499D01*
X196279585Y-172632820D01*
X196206884Y-172532753D01*
X196067246Y-172393115D01*
X195907504Y-172277058D01*
X195907503Y-172277057D01*
X195907501Y-172277056D01*
X195731561Y-172187409D01*
X195731555Y-172187407D01*
X195727058Y-172185544D01*
X195727815Y-172183714D01*
X195677044Y-172149006D01*
X195649839Y-172084651D01*
X195661746Y-172015803D01*
X195672713Y-171997613D01*
X195687517Y-171977237D01*
X195777126Y-171801373D01*
X195838123Y-171613646D01*
X195869000Y-171418697D01*
X195869000Y-171221302D01*
X195838123Y-171026353D01*
X195777126Y-170838626D01*
X195687520Y-170662768D01*
X195687512Y-170662755D01*
X195661542Y-170627010D01*
X195661541Y-170627009D01*
X195097962Y-171190590D01*
X195080925Y-171127007D01*
X195015099Y-171012993D01*
X194922007Y-170919901D01*
X194807993Y-170854075D01*
X194744409Y-170837037D01*
X195307989Y-170273457D01*
X195272239Y-170247483D01*
X195096373Y-170157873D01*
X194908646Y-170096876D01*
X194713697Y-170066000D01*
X194516303Y-170066000D01*
X194321353Y-170096876D01*
X194133626Y-170157873D01*
X193957762Y-170247482D01*
X193957760Y-170247483D01*
X193922010Y-170273456D01*
X193922010Y-170273457D01*
X194485591Y-170837037D01*
X194422007Y-170854075D01*
X194307993Y-170919901D01*
X194214901Y-171012993D01*
X194149075Y-171127007D01*
X194132037Y-171190590D01*
X193600001Y-170658553D01*
X193600000Y-170658553D01*
X193067962Y-171190590D01*
X193050925Y-171127007D01*
X192985099Y-171012993D01*
X192892007Y-170919901D01*
X192777993Y-170854075D01*
X192714409Y-170837037D01*
X193277989Y-170273457D01*
X193242239Y-170247483D01*
X193066373Y-170157873D01*
X192878646Y-170096876D01*
X192683697Y-170066000D01*
X192486303Y-170066000D01*
X192291353Y-170096876D01*
X192103626Y-170157873D01*
X191927762Y-170247482D01*
X191927760Y-170247483D01*
X191892010Y-170273456D01*
X191892010Y-170273457D01*
X192455591Y-170837037D01*
X192392007Y-170854075D01*
X192277993Y-170919901D01*
X192184901Y-171012993D01*
X192119075Y-171127007D01*
X192102037Y-171190591D01*
X191538457Y-170627010D01*
X191538456Y-170627010D01*
X191512483Y-170662760D01*
X191512482Y-170662762D01*
X191422873Y-170838626D01*
X191361876Y-171026353D01*
X191331000Y-171221302D01*
X191331000Y-171418697D01*
X191361876Y-171613646D01*
X191422873Y-171801373D01*
X191480875Y-171915205D01*
X191493771Y-171983874D01*
X191467495Y-172048614D01*
X191410389Y-172088872D01*
X191370391Y-172095500D01*
X191148130Y-172095500D01*
X191148123Y-172095501D01*
X191088516Y-172101908D01*
X190953671Y-172152202D01*
X190953664Y-172152206D01*
X190838455Y-172238452D01*
X190838452Y-172238455D01*
X190752206Y-172353664D01*
X190752202Y-172353671D01*
X190701908Y-172488517D01*
X190695501Y-172548116D01*
X190695500Y-172548135D01*
X167099376Y-172548135D01*
X166446313Y-171818713D01*
X166306957Y-171663063D01*
X166305050Y-171660883D01*
X165586863Y-170820000D01*
X165206606Y-170374779D01*
X165204768Y-170372575D01*
X164136712Y-169061221D01*
X164134954Y-169059010D01*
X163097817Y-167723060D01*
X163096067Y-167720752D01*
X162471159Y-166875769D01*
X162090373Y-166360880D01*
X162088728Y-166358601D01*
X161115097Y-164975645D01*
X161113461Y-164973262D01*
X160408078Y-163919887D01*
X160172382Y-163567914D01*
X160170839Y-163565549D01*
X159309588Y-162212062D01*
X159262880Y-162138659D01*
X159261354Y-162136198D01*
X158386979Y-160688502D01*
X158385510Y-160686005D01*
X158384487Y-160684219D01*
X157545177Y-159218256D01*
X157543767Y-159215725D01*
X156737957Y-157728767D01*
X156736607Y-157726205D01*
X155965741Y-156220813D01*
X155964451Y-156218219D01*
X155866371Y-156015124D01*
X155228956Y-154695227D01*
X155227738Y-154692627D01*
X155227477Y-154692052D01*
X154528015Y-153152861D01*
X154526890Y-153150306D01*
X153863279Y-151594513D01*
X153862227Y-151591964D01*
X153645132Y-151048135D01*
X176995500Y-151048135D01*
X176995500Y-152651870D01*
X176995501Y-152651876D01*
X177001908Y-152711483D01*
X177052202Y-152846328D01*
X177052206Y-152846335D01*
X177138452Y-152961544D01*
X177138455Y-152961547D01*
X177253664Y-153047793D01*
X177253671Y-153047797D01*
X177388517Y-153098091D01*
X177388516Y-153098091D01*
X177395444Y-153098835D01*
X177448127Y-153104500D01*
X179051872Y-153104499D01*
X179111483Y-153098091D01*
X179246331Y-153047796D01*
X179361546Y-152961546D01*
X179447796Y-152846331D01*
X179498091Y-152711483D01*
X179504500Y-152651873D01*
X179504499Y-151048128D01*
X179499390Y-151000600D01*
X179511607Y-150932218D01*
X179555409Y-150843962D01*
X179014408Y-150302962D01*
X179077993Y-150285925D01*
X179192007Y-150220099D01*
X179285099Y-150127007D01*
X179350925Y-150012993D01*
X179367962Y-149949409D01*
X179900000Y-150481446D01*
X179900001Y-150481446D01*
X180432037Y-149949409D01*
X180449075Y-150012993D01*
X180514901Y-150127007D01*
X180607993Y-150220099D01*
X180722007Y-150285925D01*
X180785590Y-150302962D01*
X180222009Y-150866541D01*
X180222010Y-150866542D01*
X180257755Y-150892512D01*
X180257768Y-150892520D01*
X180433636Y-150982129D01*
X180438134Y-150983993D01*
X180437329Y-150985935D01*
X180487746Y-151020384D01*
X180514966Y-151084733D01*
X180503075Y-151153584D01*
X180492100Y-151171792D01*
X180477054Y-151192501D01*
X180387408Y-151368441D01*
X180326389Y-151556236D01*
X180295500Y-151751263D01*
X180295500Y-151948736D01*
X180326389Y-152143763D01*
X180358063Y-152241243D01*
X180387409Y-152331561D01*
X180477056Y-152507501D01*
X180477058Y-152507504D01*
X180593115Y-152667246D01*
X180732753Y-152806884D01*
X180882234Y-152915486D01*
X180892499Y-152922944D01*
X181068439Y-153012591D01*
X181193637Y-153053270D01*
X181256236Y-153073610D01*
X181451264Y-153104500D01*
X181451269Y-153104500D01*
X181648736Y-153104500D01*
X181843763Y-153073610D01*
X182031561Y-153012591D01*
X182207501Y-152922944D01*
X182312955Y-152846328D01*
X182367246Y-152806884D01*
X182367248Y-152806881D01*
X182367252Y-152806879D01*
X182506879Y-152667252D01*
X182506881Y-152667248D01*
X182506884Y-152667246D01*
X182557779Y-152597192D01*
X182622944Y-152507501D01*
X182712591Y-152331561D01*
X182773610Y-152143763D01*
X182804500Y-151948736D01*
X182804500Y-151751263D01*
X182773610Y-151556236D01*
X182753270Y-151493637D01*
X182712591Y-151368439D01*
X182622944Y-151192499D01*
X182594671Y-151153584D01*
X182506884Y-151032753D01*
X182367246Y-150893115D01*
X182207504Y-150777058D01*
X182207503Y-150777057D01*
X182207501Y-150777056D01*
X182031561Y-150687409D01*
X182031555Y-150687407D01*
X182027058Y-150685544D01*
X182027815Y-150683714D01*
X181977044Y-150649006D01*
X181949839Y-150584651D01*
X181961746Y-150515803D01*
X181972713Y-150497613D01*
X181987517Y-150477237D01*
X182077126Y-150301373D01*
X182138123Y-150113646D01*
X182169000Y-149918697D01*
X182169000Y-149721302D01*
X182138123Y-149526353D01*
X182077126Y-149338626D01*
X181987520Y-149162768D01*
X181987512Y-149162755D01*
X181961542Y-149127010D01*
X181961541Y-149127009D01*
X181397962Y-149690590D01*
X181380925Y-149627007D01*
X181315099Y-149512993D01*
X181222007Y-149419901D01*
X181107993Y-149354075D01*
X181044409Y-149337037D01*
X181607989Y-148773457D01*
X181572239Y-148747483D01*
X181396373Y-148657873D01*
X181208646Y-148596876D01*
X181013697Y-148566000D01*
X180816303Y-148566000D01*
X180621353Y-148596876D01*
X180433626Y-148657873D01*
X180257762Y-148747482D01*
X180257760Y-148747483D01*
X180222010Y-148773456D01*
X180222010Y-148773457D01*
X180785591Y-149337037D01*
X180722007Y-149354075D01*
X180607993Y-149419901D01*
X180514901Y-149512993D01*
X180449075Y-149627007D01*
X180432037Y-149690590D01*
X179900001Y-149158553D01*
X179900000Y-149158553D01*
X179367962Y-149690590D01*
X179350925Y-149627007D01*
X179285099Y-149512993D01*
X179192007Y-149419901D01*
X179077993Y-149354075D01*
X179014409Y-149337037D01*
X179577989Y-148773457D01*
X179542239Y-148747483D01*
X179366373Y-148657873D01*
X179178646Y-148596876D01*
X178983697Y-148566000D01*
X178786303Y-148566000D01*
X178591353Y-148596876D01*
X178403626Y-148657873D01*
X178227762Y-148747482D01*
X178227760Y-148747483D01*
X178192010Y-148773456D01*
X178192010Y-148773457D01*
X178755591Y-149337037D01*
X178692007Y-149354075D01*
X178577993Y-149419901D01*
X178484901Y-149512993D01*
X178419075Y-149627007D01*
X178402037Y-149690591D01*
X177838457Y-149127010D01*
X177838456Y-149127010D01*
X177812483Y-149162760D01*
X177812482Y-149162762D01*
X177722873Y-149338626D01*
X177661876Y-149526353D01*
X177631000Y-149721302D01*
X177631000Y-149918697D01*
X177661876Y-150113646D01*
X177722873Y-150301373D01*
X177780875Y-150415205D01*
X177793771Y-150483874D01*
X177767495Y-150548614D01*
X177710389Y-150588872D01*
X177670391Y-150595500D01*
X177448130Y-150595500D01*
X177448123Y-150595501D01*
X177388516Y-150601908D01*
X177253671Y-150652202D01*
X177253664Y-150652206D01*
X177138455Y-150738452D01*
X177138452Y-150738455D01*
X177052206Y-150853664D01*
X177052202Y-150853671D01*
X177001908Y-150988517D01*
X176995501Y-151048116D01*
X176995500Y-151048135D01*
X153645132Y-151048135D01*
X153235154Y-150021132D01*
X153234116Y-150018440D01*
X153174914Y-149859450D01*
X152980980Y-149338626D01*
X152804243Y-148863986D01*
X152643950Y-148433508D01*
X152642971Y-148430782D01*
X152465716Y-147918466D01*
X152089960Y-146832421D01*
X152089079Y-146829776D01*
X151573539Y-145218884D01*
X151572727Y-145216242D01*
X151535174Y-145088713D01*
X155549500Y-145088713D01*
X155549500Y-145301286D01*
X155582753Y-145511239D01*
X155648444Y-145713414D01*
X155744951Y-145902820D01*
X155869890Y-146074786D01*
X156020213Y-146225109D01*
X156192179Y-146350048D01*
X156192181Y-146350049D01*
X156192184Y-146350051D01*
X156381588Y-146446557D01*
X156583757Y-146512246D01*
X156793713Y-146545500D01*
X156793714Y-146545500D01*
X157006286Y-146545500D01*
X157006287Y-146545500D01*
X157216243Y-146512246D01*
X157418412Y-146446557D01*
X157607816Y-146350051D01*
X157629789Y-146334086D01*
X157779786Y-146225109D01*
X157779788Y-146225106D01*
X157779792Y-146225104D01*
X157930104Y-146074792D01*
X157930106Y-146074788D01*
X157930109Y-146074786D01*
X158055048Y-145902820D01*
X158055047Y-145902820D01*
X158055051Y-145902816D01*
X158151557Y-145713412D01*
X158217246Y-145511243D01*
X158250500Y-145301287D01*
X158250500Y-145088713D01*
X158217246Y-144878757D01*
X158151557Y-144676588D01*
X158055051Y-144487184D01*
X158055049Y-144487181D01*
X158055048Y-144487179D01*
X157930109Y-144315213D01*
X157779786Y-144164890D01*
X157607820Y-144039951D01*
X157418414Y-143943444D01*
X157418413Y-143943443D01*
X157418412Y-143943443D01*
X157216243Y-143877754D01*
X157216241Y-143877753D01*
X157216240Y-143877753D01*
X157054957Y-143852208D01*
X157006287Y-143844500D01*
X156793713Y-143844500D01*
X156745042Y-143852208D01*
X156583760Y-143877753D01*
X156381585Y-143943444D01*
X156192179Y-144039951D01*
X156020213Y-144164890D01*
X155869890Y-144315213D01*
X155744951Y-144487179D01*
X155648444Y-144676585D01*
X155582753Y-144878760D01*
X155549500Y-145088713D01*
X151535174Y-145088713D01*
X151094953Y-143593741D01*
X151094192Y-143591040D01*
X150654450Y-141957834D01*
X150653737Y-141955052D01*
X150634202Y-141875104D01*
X150356527Y-140738713D01*
X196574500Y-140738713D01*
X196574500Y-140951286D01*
X196607753Y-141161239D01*
X196673444Y-141363414D01*
X196769951Y-141552820D01*
X196894890Y-141724786D01*
X197045213Y-141875109D01*
X197217179Y-142000048D01*
X197217181Y-142000049D01*
X197217184Y-142000051D01*
X197406588Y-142096557D01*
X197608757Y-142162246D01*
X197818713Y-142195500D01*
X197818714Y-142195500D01*
X198031286Y-142195500D01*
X198031287Y-142195500D01*
X198241243Y-142162246D01*
X198443412Y-142096557D01*
X198632816Y-142000051D01*
X198695585Y-141954447D01*
X198804786Y-141875109D01*
X198804788Y-141875106D01*
X198804792Y-141875104D01*
X198955104Y-141724792D01*
X198955106Y-141724788D01*
X198955109Y-141724786D01*
X199080048Y-141552820D01*
X199080047Y-141552820D01*
X199080051Y-141552816D01*
X199176557Y-141363412D01*
X199242246Y-141161243D01*
X199275500Y-140951287D01*
X199275500Y-140738713D01*
X199242246Y-140528757D01*
X199176557Y-140326588D01*
X199080051Y-140137184D01*
X199080049Y-140137181D01*
X199080048Y-140137179D01*
X198955109Y-139965213D01*
X198804786Y-139814890D01*
X198632820Y-139689951D01*
X198443414Y-139593444D01*
X198443413Y-139593443D01*
X198443412Y-139593443D01*
X198241243Y-139527754D01*
X198241241Y-139527753D01*
X198241240Y-139527753D01*
X198079957Y-139502208D01*
X198031287Y-139494500D01*
X197818713Y-139494500D01*
X197770042Y-139502208D01*
X197608760Y-139527753D01*
X197406585Y-139593444D01*
X197217179Y-139689951D01*
X197045213Y-139814890D01*
X196894890Y-139965213D01*
X196769951Y-140137179D01*
X196673444Y-140326585D01*
X196607753Y-140528760D01*
X196574500Y-140738713D01*
X150356527Y-140738713D01*
X150252285Y-140312102D01*
X150251657Y-140309393D01*
X149888665Y-138657398D01*
X149888083Y-138654588D01*
X149563802Y-136994693D01*
X149563305Y-136991983D01*
X149277857Y-135324789D01*
X149277422Y-135322056D01*
X149031005Y-133648730D01*
X149030621Y-133645888D01*
X149017238Y-133537495D01*
X148823370Y-131967361D01*
X148823061Y-131964591D01*
X148655058Y-130281534D01*
X148654817Y-130278793D01*
X148526177Y-128592305D01*
X148525993Y-128589434D01*
X148508675Y-128261546D01*
X148436787Y-126900508D01*
X148436670Y-126897651D01*
X148436607Y-126895516D01*
X148386940Y-125207106D01*
X148386889Y-125204244D01*
X148386885Y-125203568D01*
X148378136Y-123757106D01*
X153474500Y-123757106D01*
X153474500Y-124082893D01*
X153510974Y-124406604D01*
X153510976Y-124406620D01*
X153583467Y-124724226D01*
X153583471Y-124724238D01*
X153691066Y-125031725D01*
X153832413Y-125325234D01*
X153832415Y-125325237D01*
X154005739Y-125601081D01*
X154208857Y-125855783D01*
X154439217Y-126086143D01*
X154693919Y-126289261D01*
X154969763Y-126462585D01*
X155263278Y-126603935D01*
X155447620Y-126668439D01*
X155570761Y-126711528D01*
X155570773Y-126711532D01*
X155888383Y-126784024D01*
X156212106Y-126820499D01*
X156212107Y-126820500D01*
X156212111Y-126820500D01*
X156537893Y-126820500D01*
X156537893Y-126820499D01*
X156861617Y-126784024D01*
X157179227Y-126711532D01*
X157486722Y-126603935D01*
X157780237Y-126462585D01*
X157962383Y-126348135D01*
X178970500Y-126348135D01*
X178970500Y-127951870D01*
X178970501Y-127951876D01*
X178976908Y-128011483D01*
X179027202Y-128146328D01*
X179027206Y-128146335D01*
X179113452Y-128261544D01*
X179113455Y-128261547D01*
X179228664Y-128347793D01*
X179228671Y-128347797D01*
X179363517Y-128398091D01*
X179363516Y-128398091D01*
X179370444Y-128398835D01*
X179423127Y-128404500D01*
X181026872Y-128404499D01*
X181086483Y-128398091D01*
X181221331Y-128347796D01*
X181336546Y-128261546D01*
X181422796Y-128146331D01*
X181473091Y-128011483D01*
X181479500Y-127951873D01*
X181479499Y-126348128D01*
X181474390Y-126300600D01*
X181486607Y-126232218D01*
X181530409Y-126143962D01*
X180989408Y-125602962D01*
X181052993Y-125585925D01*
X181167007Y-125520099D01*
X181260099Y-125427007D01*
X181325925Y-125312993D01*
X181342962Y-125249409D01*
X181875000Y-125781446D01*
X181875001Y-125781446D01*
X182407037Y-125249409D01*
X182424075Y-125312993D01*
X182489901Y-125427007D01*
X182582993Y-125520099D01*
X182697007Y-125585925D01*
X182760590Y-125602962D01*
X182197009Y-126166541D01*
X182197010Y-126166542D01*
X182232755Y-126192512D01*
X182232768Y-126192520D01*
X182408636Y-126282129D01*
X182413134Y-126283993D01*
X182412329Y-126285935D01*
X182462746Y-126320384D01*
X182489966Y-126384733D01*
X182478075Y-126453584D01*
X182467100Y-126471792D01*
X182452054Y-126492501D01*
X182362408Y-126668441D01*
X182301389Y-126856236D01*
X182270500Y-127051263D01*
X182270500Y-127248736D01*
X182301389Y-127443763D01*
X182362408Y-127631558D01*
X182362409Y-127631561D01*
X182452056Y-127807501D01*
X182452058Y-127807504D01*
X182568115Y-127967246D01*
X182707753Y-128106884D01*
X182815346Y-128185053D01*
X182867499Y-128222944D01*
X183043439Y-128312591D01*
X183168637Y-128353270D01*
X183231236Y-128373610D01*
X183426264Y-128404500D01*
X183426269Y-128404500D01*
X183623736Y-128404500D01*
X183818763Y-128373610D01*
X184006561Y-128312591D01*
X184182501Y-128222944D01*
X184287955Y-128146328D01*
X184342246Y-128106884D01*
X184342248Y-128106881D01*
X184342252Y-128106879D01*
X184481879Y-127967252D01*
X184481881Y-127967248D01*
X184481884Y-127967246D01*
X184532779Y-127897192D01*
X184597944Y-127807501D01*
X184687591Y-127631561D01*
X184748610Y-127443763D01*
X184779500Y-127248736D01*
X184779500Y-127051263D01*
X184748610Y-126856236D01*
X184725146Y-126784023D01*
X184687591Y-126668439D01*
X184597944Y-126492499D01*
X184576211Y-126462586D01*
X184481884Y-126332753D01*
X184342246Y-126193115D01*
X184182504Y-126077058D01*
X184182503Y-126077057D01*
X184182501Y-126077056D01*
X184006561Y-125987409D01*
X184006555Y-125987407D01*
X184002058Y-125985544D01*
X184002815Y-125983714D01*
X183952044Y-125949006D01*
X183924839Y-125884651D01*
X183936746Y-125815803D01*
X183947713Y-125797613D01*
X183962517Y-125777237D01*
X184052126Y-125601373D01*
X184113123Y-125413646D01*
X184144000Y-125218697D01*
X184144000Y-125021302D01*
X184113123Y-124826353D01*
X184052126Y-124638626D01*
X183962520Y-124462768D01*
X183962512Y-124462755D01*
X183936542Y-124427010D01*
X183936541Y-124427009D01*
X183372962Y-124990590D01*
X183355925Y-124927007D01*
X183290099Y-124812993D01*
X183197007Y-124719901D01*
X183082993Y-124654075D01*
X183019409Y-124637037D01*
X183582989Y-124073457D01*
X183547239Y-124047483D01*
X183371373Y-123957873D01*
X183183646Y-123896876D01*
X182988697Y-123866000D01*
X182791303Y-123866000D01*
X182596353Y-123896876D01*
X182408626Y-123957873D01*
X182232762Y-124047482D01*
X182232760Y-124047483D01*
X182197010Y-124073456D01*
X182197010Y-124073457D01*
X182760591Y-124637037D01*
X182697007Y-124654075D01*
X182582993Y-124719901D01*
X182489901Y-124812993D01*
X182424075Y-124927007D01*
X182407037Y-124990590D01*
X181875001Y-124458553D01*
X181875000Y-124458553D01*
X181342962Y-124990590D01*
X181325925Y-124927007D01*
X181260099Y-124812993D01*
X181167007Y-124719901D01*
X181052993Y-124654075D01*
X180989409Y-124637037D01*
X181552989Y-124073457D01*
X181517239Y-124047483D01*
X181341373Y-123957873D01*
X181153646Y-123896876D01*
X180958697Y-123866000D01*
X180761303Y-123866000D01*
X180566353Y-123896876D01*
X180378626Y-123957873D01*
X180202762Y-124047482D01*
X180202760Y-124047483D01*
X180167010Y-124073456D01*
X180167010Y-124073457D01*
X180730591Y-124637037D01*
X180667007Y-124654075D01*
X180552993Y-124719901D01*
X180459901Y-124812993D01*
X180394075Y-124927007D01*
X180377037Y-124990591D01*
X179813457Y-124427010D01*
X179813456Y-124427010D01*
X179787483Y-124462760D01*
X179787482Y-124462762D01*
X179697873Y-124638626D01*
X179636876Y-124826353D01*
X179606000Y-125021302D01*
X179606000Y-125218697D01*
X179636876Y-125413646D01*
X179697873Y-125601373D01*
X179755875Y-125715205D01*
X179768771Y-125783874D01*
X179742495Y-125848614D01*
X179685389Y-125888872D01*
X179645391Y-125895500D01*
X179423130Y-125895500D01*
X179423123Y-125895501D01*
X179363516Y-125901908D01*
X179228671Y-125952202D01*
X179228664Y-125952206D01*
X179113455Y-126038452D01*
X179113452Y-126038455D01*
X179027206Y-126153664D01*
X179027202Y-126153671D01*
X178976908Y-126288517D01*
X178970501Y-126348116D01*
X178970500Y-126348135D01*
X157962383Y-126348135D01*
X158056081Y-126289261D01*
X158310783Y-126086143D01*
X158541143Y-125855783D01*
X158744261Y-125601081D01*
X158917585Y-125325237D01*
X159058935Y-125031722D01*
X159166532Y-124724227D01*
X159239024Y-124406617D01*
X159261038Y-124211243D01*
X159272803Y-124106832D01*
X159272803Y-124106831D01*
X159275499Y-124082896D01*
X159275500Y-124082893D01*
X159275500Y-123757107D01*
X159275499Y-123757106D01*
X159275192Y-123754382D01*
X159239024Y-123433383D01*
X159166532Y-123115773D01*
X159058935Y-122808278D01*
X158917585Y-122514763D01*
X158744261Y-122238919D01*
X158541143Y-121984217D01*
X158310783Y-121753857D01*
X158056081Y-121550739D01*
X157780237Y-121377415D01*
X157780234Y-121377413D01*
X157486725Y-121236066D01*
X157179238Y-121128471D01*
X157179226Y-121128467D01*
X156861620Y-121055976D01*
X156861604Y-121055974D01*
X156537893Y-121019500D01*
X156537889Y-121019500D01*
X156212111Y-121019500D01*
X156212107Y-121019500D01*
X155888395Y-121055974D01*
X155888379Y-121055976D01*
X155570773Y-121128467D01*
X155570761Y-121128471D01*
X155263274Y-121236066D01*
X154969765Y-121377413D01*
X154693920Y-121550738D01*
X154439217Y-121753856D01*
X154208856Y-121984217D01*
X154005738Y-122238920D01*
X153832413Y-122514765D01*
X153691066Y-122808274D01*
X153583471Y-123115761D01*
X153583467Y-123115773D01*
X153510976Y-123433379D01*
X153510974Y-123433395D01*
X153474500Y-123757106D01*
X148378136Y-123757106D01*
X148376659Y-123512900D01*
X148376675Y-123510103D01*
X148405956Y-121818981D01*
X148406035Y-121816251D01*
X148474808Y-120126316D01*
X148474959Y-120123432D01*
X148484878Y-119968736D01*
X148583183Y-118435593D01*
X148583402Y-118432719D01*
X148583459Y-118432068D01*
X148731027Y-116747830D01*
X148731304Y-116745047D01*
X148918251Y-115064011D01*
X148918582Y-115061320D01*
X149144741Y-113385134D01*
X149145144Y-113382379D01*
X149410399Y-111711909D01*
X149410882Y-111709083D01*
X149503670Y-111201585D01*
X149715058Y-110045393D01*
X149715610Y-110042566D01*
X149828745Y-109496239D01*
X150058585Y-108386341D01*
X150059179Y-108383635D01*
X150440750Y-106735859D01*
X150441396Y-106733210D01*
X150861355Y-105094782D01*
X150862100Y-105092013D01*
X151320210Y-103463864D01*
X151320970Y-103461277D01*
X151782058Y-101958135D01*
X179745500Y-101958135D01*
X179745500Y-103561870D01*
X179745501Y-103561876D01*
X179751908Y-103621483D01*
X179802202Y-103756328D01*
X179802206Y-103756335D01*
X179888452Y-103871544D01*
X179888455Y-103871547D01*
X180003664Y-103957793D01*
X180003671Y-103957797D01*
X180138517Y-104008091D01*
X180138516Y-104008091D01*
X180145444Y-104008835D01*
X180198127Y-104014500D01*
X181801872Y-104014499D01*
X181861483Y-104008091D01*
X181996331Y-103957796D01*
X182111546Y-103871546D01*
X182197796Y-103756331D01*
X182248091Y-103621483D01*
X182254500Y-103561873D01*
X182254499Y-101958128D01*
X182250233Y-101918441D01*
X182249390Y-101910600D01*
X182261607Y-101842218D01*
X182305409Y-101753962D01*
X181764408Y-101212962D01*
X181827993Y-101195925D01*
X181942007Y-101130099D01*
X182035099Y-101037007D01*
X182100925Y-100922993D01*
X182117962Y-100859409D01*
X182650000Y-101391446D01*
X182650001Y-101391446D01*
X183182037Y-100859409D01*
X183199075Y-100922993D01*
X183264901Y-101037007D01*
X183357993Y-101130099D01*
X183472007Y-101195925D01*
X183535590Y-101212962D01*
X182972009Y-101776541D01*
X182972010Y-101776542D01*
X183007755Y-101802512D01*
X183007768Y-101802520D01*
X183183636Y-101892129D01*
X183188134Y-101893993D01*
X183187329Y-101895935D01*
X183237746Y-101930384D01*
X183264966Y-101994733D01*
X183253075Y-102063584D01*
X183242100Y-102081792D01*
X183227054Y-102102501D01*
X183137408Y-102278441D01*
X183076389Y-102466236D01*
X183045500Y-102661263D01*
X183045500Y-102858736D01*
X183076389Y-103053763D01*
X183122972Y-103197128D01*
X183137409Y-103241561D01*
X183227056Y-103417501D01*
X183227058Y-103417504D01*
X183343115Y-103577246D01*
X183482753Y-103716884D01*
X183632234Y-103825486D01*
X183642499Y-103832944D01*
X183818439Y-103922591D01*
X183941270Y-103962501D01*
X184006236Y-103983610D01*
X184201264Y-104014500D01*
X184201269Y-104014500D01*
X184398736Y-104014500D01*
X184593763Y-103983610D01*
X184595022Y-103983201D01*
X184781561Y-103922591D01*
X184957501Y-103832944D01*
X185062955Y-103756328D01*
X185117246Y-103716884D01*
X185117248Y-103716881D01*
X185117252Y-103716879D01*
X185256879Y-103577252D01*
X185256881Y-103577248D01*
X185256884Y-103577246D01*
X185307779Y-103507192D01*
X185372944Y-103417501D01*
X185462591Y-103241561D01*
X185523610Y-103053763D01*
X185554500Y-102858736D01*
X185554500Y-102661267D01*
X185552305Y-102647407D01*
X185552305Y-102647405D01*
X185529453Y-102503128D01*
X185523610Y-102466237D01*
X185462591Y-102278439D01*
X185372944Y-102102499D01*
X185342067Y-102060000D01*
X185256884Y-101942753D01*
X185117246Y-101803115D01*
X184957504Y-101687058D01*
X184957503Y-101687057D01*
X184957501Y-101687056D01*
X184781561Y-101597409D01*
X184781555Y-101597407D01*
X184777058Y-101595544D01*
X184777815Y-101593714D01*
X184762351Y-101583142D01*
X184738167Y-101570914D01*
X184733936Y-101563717D01*
X184727044Y-101559006D01*
X184716491Y-101534042D01*
X184702758Y-101510682D01*
X184703089Y-101502340D01*
X184699839Y-101494651D01*
X184704457Y-101467947D01*
X184705534Y-101440867D01*
X184710955Y-101430371D01*
X184711746Y-101425803D01*
X184721460Y-101409370D01*
X184739006Y-101384314D01*
X184827126Y-101211373D01*
X184888123Y-101023646D01*
X184919000Y-100828697D01*
X184919000Y-100631302D01*
X184888123Y-100436353D01*
X184827126Y-100248626D01*
X184737520Y-100072768D01*
X184737512Y-100072755D01*
X184711542Y-100037010D01*
X184711541Y-100037009D01*
X184147962Y-100600590D01*
X184130925Y-100537007D01*
X184065099Y-100422993D01*
X183972007Y-100329901D01*
X183857993Y-100264075D01*
X183794409Y-100247037D01*
X184357989Y-99683457D01*
X184322239Y-99657483D01*
X184146373Y-99567873D01*
X183958646Y-99506876D01*
X183763697Y-99476000D01*
X183566303Y-99476000D01*
X183371353Y-99506876D01*
X183183626Y-99567873D01*
X183007762Y-99657482D01*
X183007760Y-99657483D01*
X182972010Y-99683456D01*
X182972010Y-99683457D01*
X183535591Y-100247037D01*
X183472007Y-100264075D01*
X183357993Y-100329901D01*
X183264901Y-100422993D01*
X183199075Y-100537007D01*
X183182037Y-100600590D01*
X182650001Y-100068553D01*
X182650000Y-100068553D01*
X182117962Y-100600590D01*
X182100925Y-100537007D01*
X182035099Y-100422993D01*
X181942007Y-100329901D01*
X181827993Y-100264075D01*
X181764409Y-100247037D01*
X182327989Y-99683457D01*
X182292239Y-99657483D01*
X182116373Y-99567873D01*
X181928646Y-99506876D01*
X181733697Y-99476000D01*
X181536303Y-99476000D01*
X181341353Y-99506876D01*
X181153626Y-99567873D01*
X180977762Y-99657482D01*
X180977760Y-99657483D01*
X180942010Y-99683456D01*
X180942010Y-99683457D01*
X181505591Y-100247037D01*
X181442007Y-100264075D01*
X181327993Y-100329901D01*
X181234901Y-100422993D01*
X181169075Y-100537007D01*
X181152037Y-100600591D01*
X180588457Y-100037010D01*
X180588456Y-100037010D01*
X180562483Y-100072760D01*
X180562482Y-100072762D01*
X180472873Y-100248626D01*
X180411876Y-100436353D01*
X180381000Y-100631302D01*
X180381000Y-100828697D01*
X180411876Y-101023646D01*
X180472873Y-101211373D01*
X180530875Y-101325205D01*
X180543771Y-101393874D01*
X180517495Y-101458614D01*
X180460389Y-101498872D01*
X180420391Y-101505500D01*
X180198130Y-101505500D01*
X180198123Y-101505501D01*
X180138516Y-101511908D01*
X180003671Y-101562202D01*
X180003664Y-101562206D01*
X179888455Y-101648452D01*
X179888452Y-101648455D01*
X179802206Y-101763664D01*
X179802202Y-101763671D01*
X179751908Y-101898517D01*
X179745501Y-101958116D01*
X179745500Y-101958135D01*
X151782058Y-101958135D01*
X151817009Y-101844196D01*
X151817850Y-101841567D01*
X152351507Y-100236570D01*
X152352409Y-100233958D01*
X152923418Y-98641848D01*
X152924359Y-98639315D01*
X153532431Y-97060897D01*
X153533440Y-97058369D01*
X154178181Y-95494666D01*
X154179282Y-95492083D01*
X154860340Y-93943944D01*
X154861496Y-93941397D01*
X155578559Y-92409524D01*
X155579747Y-92407059D01*
X156332439Y-90892273D01*
X156333696Y-90889817D01*
X157121496Y-89393154D01*
X157122815Y-89390716D01*
X157945382Y-87912823D01*
X157946803Y-87910341D01*
X157947891Y-87908490D01*
X158803654Y-86452086D01*
X158805038Y-86449792D01*
X159695767Y-85011870D01*
X159697242Y-85009550D01*
X160151109Y-84313713D01*
X163799500Y-84313713D01*
X163799500Y-84526286D01*
X163826936Y-84699514D01*
X163832754Y-84736243D01*
X163897176Y-84934514D01*
X163898444Y-84938414D01*
X163994951Y-85127820D01*
X164119890Y-85299786D01*
X164270213Y-85450109D01*
X164442179Y-85575048D01*
X164442181Y-85575049D01*
X164442184Y-85575051D01*
X164631588Y-85671557D01*
X164833757Y-85737246D01*
X165043713Y-85770500D01*
X165043714Y-85770500D01*
X165256286Y-85770500D01*
X165256287Y-85770500D01*
X165466243Y-85737246D01*
X165668412Y-85671557D01*
X165857816Y-85575051D01*
X165879789Y-85559086D01*
X166029786Y-85450109D01*
X166029788Y-85450106D01*
X166029792Y-85450104D01*
X166180104Y-85299792D01*
X166180106Y-85299788D01*
X166180109Y-85299786D01*
X166305048Y-85127820D01*
X166305047Y-85127820D01*
X166305051Y-85127816D01*
X166343612Y-85052135D01*
X181449500Y-85052135D01*
X181449500Y-86847870D01*
X181449501Y-86847876D01*
X181455908Y-86907483D01*
X181506202Y-87042328D01*
X181506206Y-87042335D01*
X181592452Y-87157544D01*
X181592455Y-87157547D01*
X181707664Y-87243793D01*
X181707671Y-87243797D01*
X181842517Y-87294091D01*
X181842516Y-87294091D01*
X181849444Y-87294835D01*
X181902127Y-87300500D01*
X183697872Y-87300499D01*
X183757483Y-87294091D01*
X183892331Y-87243796D01*
X184007546Y-87157546D01*
X184093796Y-87042331D01*
X184142810Y-86910916D01*
X184184681Y-86854984D01*
X184250145Y-86830566D01*
X184318418Y-86845417D01*
X184346673Y-86866569D01*
X184460213Y-86980109D01*
X184632179Y-87105048D01*
X184632181Y-87105049D01*
X184632184Y-87105051D01*
X184821588Y-87201557D01*
X185023757Y-87267246D01*
X185233713Y-87300500D01*
X185233714Y-87300500D01*
X185446286Y-87300500D01*
X185446287Y-87300500D01*
X185656243Y-87267246D01*
X185858412Y-87201557D01*
X186047816Y-87105051D01*
X186134138Y-87042335D01*
X186219786Y-86980109D01*
X186219788Y-86980106D01*
X186219792Y-86980104D01*
X186370104Y-86829792D01*
X186370106Y-86829788D01*
X186370109Y-86829786D01*
X186495048Y-86657820D01*
X186495047Y-86657820D01*
X186495051Y-86657816D01*
X186591557Y-86468412D01*
X186657246Y-86266243D01*
X186690500Y-86056287D01*
X186690500Y-85843713D01*
X186657246Y-85633757D01*
X186591557Y-85431588D01*
X186495051Y-85242184D01*
X186495049Y-85242181D01*
X186495048Y-85242179D01*
X186370109Y-85070213D01*
X186219786Y-84919890D01*
X186047820Y-84794951D01*
X185858414Y-84698444D01*
X185858413Y-84698443D01*
X185858412Y-84698443D01*
X185656243Y-84632754D01*
X185656241Y-84632753D01*
X185656240Y-84632753D01*
X185494957Y-84607208D01*
X185446287Y-84599500D01*
X185233713Y-84599500D01*
X185185042Y-84607208D01*
X185023760Y-84632753D01*
X184940561Y-84659786D01*
X184832028Y-84695051D01*
X184821585Y-84698444D01*
X184632179Y-84794951D01*
X184460215Y-84919889D01*
X184346673Y-85033431D01*
X184285350Y-85066915D01*
X184215658Y-85061931D01*
X184159725Y-85020059D01*
X184142810Y-84989082D01*
X184093797Y-84857671D01*
X184093793Y-84857664D01*
X184007547Y-84742455D01*
X184007544Y-84742452D01*
X183892335Y-84656206D01*
X183892328Y-84656202D01*
X183757482Y-84605908D01*
X183757483Y-84605908D01*
X183697883Y-84599501D01*
X183697881Y-84599500D01*
X183697873Y-84599500D01*
X183697864Y-84599500D01*
X181902129Y-84599500D01*
X181902123Y-84599501D01*
X181842516Y-84605908D01*
X181707671Y-84656202D01*
X181707664Y-84656206D01*
X181592455Y-84742452D01*
X181592452Y-84742455D01*
X181506206Y-84857664D01*
X181506202Y-84857671D01*
X181455908Y-84992517D01*
X181449501Y-85052116D01*
X181449500Y-85052135D01*
X166343612Y-85052135D01*
X166401557Y-84938412D01*
X166467246Y-84736243D01*
X166500500Y-84526287D01*
X166500500Y-84313713D01*
X166467246Y-84103757D01*
X166401557Y-83901588D01*
X166305051Y-83712184D01*
X166305049Y-83712181D01*
X166305048Y-83712179D01*
X166180109Y-83540213D01*
X166029786Y-83389890D01*
X165857820Y-83264951D01*
X165668414Y-83168444D01*
X165668413Y-83168443D01*
X165668412Y-83168443D01*
X165466243Y-83102754D01*
X165466241Y-83102753D01*
X165466240Y-83102753D01*
X165304957Y-83077208D01*
X165256287Y-83069500D01*
X165043713Y-83069500D01*
X164995042Y-83077208D01*
X164833760Y-83102753D01*
X164631585Y-83168444D01*
X164442179Y-83264951D01*
X164270213Y-83389890D01*
X164119890Y-83540213D01*
X163994951Y-83712179D01*
X163898444Y-83901585D01*
X163832753Y-84103760D01*
X163799500Y-84313713D01*
X160151109Y-84313713D01*
X160621320Y-83592819D01*
X160622835Y-83590555D01*
X161579728Y-82195834D01*
X161581325Y-82193564D01*
X162570493Y-80821634D01*
X162572145Y-80819397D01*
X163593108Y-79470918D01*
X163594827Y-79468702D01*
X164290043Y-78593713D01*
X200874500Y-78593713D01*
X200874500Y-78806287D01*
X200907754Y-79016243D01*
X200957003Y-79167816D01*
X200973444Y-79218414D01*
X201069951Y-79407820D01*
X201194890Y-79579786D01*
X201345213Y-79730109D01*
X201517182Y-79855050D01*
X201525946Y-79859516D01*
X201576742Y-79907491D01*
X201593536Y-79975312D01*
X201570998Y-80041447D01*
X201525946Y-80080484D01*
X201517182Y-80084949D01*
X201345213Y-80209890D01*
X201194890Y-80360213D01*
X201069951Y-80532179D01*
X200973444Y-80721585D01*
X200907753Y-80923760D01*
X200907083Y-80927993D01*
X200874500Y-81133713D01*
X200874500Y-81346287D01*
X200884534Y-81409644D01*
X200906943Y-81551127D01*
X200907754Y-81556243D01*
X200957003Y-81707816D01*
X200973444Y-81758414D01*
X201069951Y-81947820D01*
X201194890Y-82119786D01*
X201345213Y-82270109D01*
X201517182Y-82395050D01*
X201525946Y-82399516D01*
X201576742Y-82447491D01*
X201593536Y-82515312D01*
X201570998Y-82581447D01*
X201525946Y-82620484D01*
X201517182Y-82624949D01*
X201345213Y-82749890D01*
X201194890Y-82900213D01*
X201069951Y-83072179D01*
X200973444Y-83261585D01*
X200907753Y-83463760D01*
X200887490Y-83591696D01*
X200874500Y-83673713D01*
X200874500Y-83886287D01*
X200879709Y-83919172D01*
X200900475Y-84050289D01*
X200907754Y-84096243D01*
X200971818Y-84293412D01*
X200973444Y-84298414D01*
X201069951Y-84487820D01*
X201194890Y-84659786D01*
X201345213Y-84810109D01*
X201517182Y-84935050D01*
X201525946Y-84939516D01*
X201576742Y-84987491D01*
X201593536Y-85055312D01*
X201570998Y-85121447D01*
X201525946Y-85160484D01*
X201517182Y-85164949D01*
X201345213Y-85289890D01*
X201194890Y-85440213D01*
X201069951Y-85612179D01*
X200973444Y-85801585D01*
X200973443Y-85801587D01*
X200973443Y-85801588D01*
X200959756Y-85843713D01*
X200907753Y-86003760D01*
X200883983Y-86153842D01*
X200874500Y-86213713D01*
X200874500Y-86426287D01*
X200878117Y-86449122D01*
X200900069Y-86587726D01*
X200907754Y-86636243D01*
X200971818Y-86833412D01*
X200973444Y-86838414D01*
X201069951Y-87027820D01*
X201194890Y-87199786D01*
X201345213Y-87350109D01*
X201517182Y-87475050D01*
X201525946Y-87479516D01*
X201576742Y-87527491D01*
X201593536Y-87595312D01*
X201570998Y-87661447D01*
X201525946Y-87700484D01*
X201517182Y-87704949D01*
X201345213Y-87829890D01*
X201194890Y-87980213D01*
X201069951Y-88152179D01*
X200973444Y-88341585D01*
X200907753Y-88543760D01*
X200874500Y-88753713D01*
X200874500Y-88966286D01*
X200896118Y-89102780D01*
X200907754Y-89176243D01*
X200971818Y-89373412D01*
X200973444Y-89378414D01*
X201069951Y-89567820D01*
X201194890Y-89739786D01*
X201345213Y-89890109D01*
X201517182Y-90015050D01*
X201525946Y-90019516D01*
X201576742Y-90067491D01*
X201593536Y-90135312D01*
X201570998Y-90201447D01*
X201525946Y-90240484D01*
X201517182Y-90244949D01*
X201345213Y-90369890D01*
X201194890Y-90520213D01*
X201069951Y-90692179D01*
X200973444Y-90881585D01*
X200973443Y-90881587D01*
X200973443Y-90881588D01*
X200969952Y-90892332D01*
X200907753Y-91083760D01*
X200874500Y-91293713D01*
X200874500Y-91506286D01*
X200903900Y-91691915D01*
X200907754Y-91716243D01*
X200971818Y-91913412D01*
X200973444Y-91918414D01*
X201069951Y-92107820D01*
X201194890Y-92279786D01*
X201345213Y-92430109D01*
X201517179Y-92555048D01*
X201517181Y-92555049D01*
X201517184Y-92555051D01*
X201526493Y-92559794D01*
X201577290Y-92607766D01*
X201594087Y-92675587D01*
X201571552Y-92741722D01*
X201526505Y-92780760D01*
X201517446Y-92785376D01*
X201517440Y-92785380D01*
X201463282Y-92824727D01*
X201463282Y-92824728D01*
X202095591Y-93457037D01*
X202032007Y-93474075D01*
X201917993Y-93539901D01*
X201824901Y-93632993D01*
X201759075Y-93747007D01*
X201742037Y-93810590D01*
X201109728Y-93178282D01*
X201109727Y-93178282D01*
X201070380Y-93232439D01*
X200973904Y-93421782D01*
X200908242Y-93623869D01*
X200908242Y-93623872D01*
X200875000Y-93833753D01*
X200875000Y-94046246D01*
X200908242Y-94256127D01*
X200908242Y-94256130D01*
X200973904Y-94458217D01*
X201070375Y-94647550D01*
X201109728Y-94701716D01*
X201742037Y-94069408D01*
X201759075Y-94132993D01*
X201824901Y-94247007D01*
X201917993Y-94340099D01*
X202032007Y-94405925D01*
X202095591Y-94422962D01*
X201494971Y-95023581D01*
X201573711Y-95140895D01*
X201574920Y-95144729D01*
X201577844Y-95147491D01*
X201585343Y-95177778D01*
X201594727Y-95207529D01*
X201593671Y-95211408D01*
X201594638Y-95215312D01*
X201584573Y-95244844D01*
X201576383Y-95274947D01*
X201573397Y-95277640D01*
X201572100Y-95281447D01*
X201527051Y-95320483D01*
X201517440Y-95325380D01*
X201463282Y-95364727D01*
X201463282Y-95364728D01*
X202095591Y-95997037D01*
X202032007Y-96014075D01*
X201917993Y-96079901D01*
X201824901Y-96172993D01*
X201759075Y-96287007D01*
X201742037Y-96350590D01*
X201109728Y-95718282D01*
X201109727Y-95718282D01*
X201070380Y-95772439D01*
X200973904Y-95961782D01*
X200908242Y-96163869D01*
X200908242Y-96163872D01*
X200875000Y-96373753D01*
X200875000Y-96586246D01*
X200908242Y-96796127D01*
X200908242Y-96796130D01*
X200973904Y-96998217D01*
X201070375Y-97187550D01*
X201109728Y-97241716D01*
X201742037Y-96609408D01*
X201759075Y-96672993D01*
X201824901Y-96787007D01*
X201917993Y-96880099D01*
X202032007Y-96945925D01*
X202095590Y-96962962D01*
X201463282Y-97595269D01*
X201463282Y-97595270D01*
X201517452Y-97634626D01*
X201517451Y-97634626D01*
X201526495Y-97639234D01*
X201577292Y-97687208D01*
X201594087Y-97755029D01*
X201571550Y-97821164D01*
X201526499Y-97860202D01*
X201517182Y-97864949D01*
X201345213Y-97989890D01*
X201194890Y-98140213D01*
X201069951Y-98312179D01*
X200973444Y-98501585D01*
X200907753Y-98703760D01*
X200881902Y-98866979D01*
X200874500Y-98913713D01*
X200874500Y-99126287D01*
X200907754Y-99336243D01*
X200971818Y-99533412D01*
X200973444Y-99538414D01*
X201069951Y-99727820D01*
X201194890Y-99899786D01*
X201345213Y-100050109D01*
X201517179Y-100175048D01*
X201517181Y-100175049D01*
X201517184Y-100175051D01*
X201526493Y-100179794D01*
X201577290Y-100227766D01*
X201594087Y-100295587D01*
X201571552Y-100361722D01*
X201526505Y-100400760D01*
X201517446Y-100405376D01*
X201517440Y-100405380D01*
X201463282Y-100444727D01*
X201463282Y-100444728D01*
X202095591Y-101077037D01*
X202032007Y-101094075D01*
X201917993Y-101159901D01*
X201824901Y-101252993D01*
X201759075Y-101367007D01*
X201742037Y-101430590D01*
X201109728Y-100798282D01*
X201109727Y-100798282D01*
X201070380Y-100852439D01*
X200973904Y-101041782D01*
X200908242Y-101243869D01*
X200908242Y-101243872D01*
X200875000Y-101453753D01*
X200875000Y-101666246D01*
X200908242Y-101876127D01*
X200908242Y-101876130D01*
X200973904Y-102078217D01*
X201070375Y-102267550D01*
X201109728Y-102321716D01*
X201742037Y-101689408D01*
X201759075Y-101752993D01*
X201824901Y-101867007D01*
X201917993Y-101960099D01*
X202032007Y-102025925D01*
X202095591Y-102042962D01*
X201494971Y-102643581D01*
X201573711Y-102760895D01*
X201574920Y-102764729D01*
X201577844Y-102767491D01*
X201585343Y-102797778D01*
X201594727Y-102827529D01*
X201593671Y-102831408D01*
X201594638Y-102835312D01*
X201584573Y-102864844D01*
X201576383Y-102894947D01*
X201573397Y-102897640D01*
X201572100Y-102901447D01*
X201527051Y-102940483D01*
X201517440Y-102945380D01*
X201463282Y-102984727D01*
X201463282Y-102984728D01*
X202095591Y-103617037D01*
X202032007Y-103634075D01*
X201917993Y-103699901D01*
X201824901Y-103792993D01*
X201759075Y-103907007D01*
X201742037Y-103970590D01*
X201109728Y-103338282D01*
X201109727Y-103338282D01*
X201070380Y-103392439D01*
X200973904Y-103581782D01*
X200908242Y-103783869D01*
X200908242Y-103783872D01*
X200875000Y-103993753D01*
X200875000Y-104206246D01*
X200908242Y-104416127D01*
X200908242Y-104416130D01*
X200973904Y-104618217D01*
X201070375Y-104807550D01*
X201109728Y-104861716D01*
X201742037Y-104229408D01*
X201759075Y-104292993D01*
X201824901Y-104407007D01*
X201917993Y-104500099D01*
X202032007Y-104565925D01*
X202095590Y-104582962D01*
X201463282Y-105215269D01*
X201463282Y-105215270D01*
X201517452Y-105254626D01*
X201517451Y-105254626D01*
X201526495Y-105259234D01*
X201577292Y-105307208D01*
X201594087Y-105375029D01*
X201571550Y-105441164D01*
X201526499Y-105480202D01*
X201517182Y-105484949D01*
X201345213Y-105609890D01*
X201194890Y-105760213D01*
X201069951Y-105932179D01*
X200973444Y-106121585D01*
X200907753Y-106323760D01*
X200874500Y-106533713D01*
X200874500Y-106746286D01*
X200907753Y-106956239D01*
X200973444Y-107158414D01*
X201069951Y-107347820D01*
X201194890Y-107519786D01*
X201345213Y-107670109D01*
X201517182Y-107795050D01*
X201525946Y-107799516D01*
X201576742Y-107847491D01*
X201593536Y-107915312D01*
X201570998Y-107981447D01*
X201525946Y-108020484D01*
X201517182Y-108024949D01*
X201345213Y-108149890D01*
X201194890Y-108300213D01*
X201069951Y-108472179D01*
X200973444Y-108661585D01*
X200907753Y-108863760D01*
X200874500Y-109073713D01*
X200874500Y-109286286D01*
X200907753Y-109496239D01*
X200973444Y-109698414D01*
X201069951Y-109887820D01*
X201194890Y-110059786D01*
X201345213Y-110210109D01*
X201517182Y-110335050D01*
X201525946Y-110339516D01*
X201576742Y-110387491D01*
X201593536Y-110455312D01*
X201570998Y-110521447D01*
X201525946Y-110560484D01*
X201517182Y-110564949D01*
X201345213Y-110689890D01*
X201194890Y-110840213D01*
X201069951Y-111012179D01*
X200973444Y-111201585D01*
X200907753Y-111403760D01*
X200874500Y-111613713D01*
X200874500Y-111826286D01*
X200907753Y-112036239D01*
X200973444Y-112238414D01*
X201069951Y-112427820D01*
X201194890Y-112599786D01*
X201345213Y-112750109D01*
X201517182Y-112875050D01*
X201525946Y-112879516D01*
X201576742Y-112927491D01*
X201593536Y-112995312D01*
X201570998Y-113061447D01*
X201525946Y-113100484D01*
X201517182Y-113104949D01*
X201345213Y-113229890D01*
X201194894Y-113380209D01*
X201194893Y-113380211D01*
X201069951Y-113552179D01*
X200973444Y-113741585D01*
X200907753Y-113943760D01*
X200874500Y-114153713D01*
X200874500Y-114366286D01*
X200907753Y-114576239D01*
X200973444Y-114778414D01*
X201069951Y-114967820D01*
X201194890Y-115139786D01*
X201345213Y-115290109D01*
X201517182Y-115415050D01*
X201525946Y-115419516D01*
X201576742Y-115467491D01*
X201593536Y-115535312D01*
X201570998Y-115601447D01*
X201525946Y-115640484D01*
X201517182Y-115644949D01*
X201345213Y-115769890D01*
X201194890Y-115920213D01*
X201069951Y-116092179D01*
X200973444Y-116281585D01*
X200907753Y-116483760D01*
X200874500Y-116693713D01*
X200874500Y-116906286D01*
X200907753Y-117116239D01*
X200973444Y-117318414D01*
X201069951Y-117507820D01*
X201194890Y-117679786D01*
X201345213Y-117830109D01*
X201517182Y-117955050D01*
X201525946Y-117959516D01*
X201576742Y-118007491D01*
X201593536Y-118075312D01*
X201570998Y-118141447D01*
X201525946Y-118180484D01*
X201517182Y-118184949D01*
X201345213Y-118309890D01*
X201194890Y-118460213D01*
X201069951Y-118632179D01*
X200973444Y-118821585D01*
X200907753Y-119023760D01*
X200874500Y-119233713D01*
X200874500Y-119446286D01*
X200907753Y-119656239D01*
X200907753Y-119656241D01*
X200907754Y-119656243D01*
X200945128Y-119771269D01*
X200973444Y-119858414D01*
X201069951Y-120047820D01*
X201194890Y-120219786D01*
X201345213Y-120370109D01*
X201517182Y-120495050D01*
X201525946Y-120499516D01*
X201576742Y-120547491D01*
X201593536Y-120615312D01*
X201570998Y-120681447D01*
X201525946Y-120720484D01*
X201517182Y-120724949D01*
X201345213Y-120849890D01*
X201194890Y-121000213D01*
X201069951Y-121172179D01*
X200973444Y-121361585D01*
X200907753Y-121563760D01*
X200874500Y-121773713D01*
X200874500Y-121986286D01*
X200907342Y-122193646D01*
X200907754Y-122196243D01*
X200962887Y-122365925D01*
X200973444Y-122398414D01*
X201069951Y-122587820D01*
X201194890Y-122759786D01*
X201308430Y-122873326D01*
X201341915Y-122934649D01*
X201336931Y-123004341D01*
X201295059Y-123060274D01*
X201264083Y-123077189D01*
X201132669Y-123126203D01*
X201132664Y-123126206D01*
X201017455Y-123212452D01*
X201017452Y-123212455D01*
X200931206Y-123327664D01*
X200931202Y-123327671D01*
X200880908Y-123462517D01*
X200874501Y-123522116D01*
X200874501Y-123522123D01*
X200874500Y-123522135D01*
X200874500Y-125317870D01*
X200874501Y-125317876D01*
X200880908Y-125377483D01*
X200931202Y-125512328D01*
X200931206Y-125512335D01*
X201017452Y-125627544D01*
X201017455Y-125627547D01*
X201132664Y-125713793D01*
X201132671Y-125713797D01*
X201267517Y-125764091D01*
X201267516Y-125764091D01*
X201274444Y-125764835D01*
X201327127Y-125770500D01*
X203122872Y-125770499D01*
X203182483Y-125764091D01*
X203317331Y-125713796D01*
X203432546Y-125627546D01*
X203518796Y-125512331D01*
X203569091Y-125377483D01*
X203575500Y-125317873D01*
X203575499Y-123788713D01*
X231574500Y-123788713D01*
X231574500Y-124001287D01*
X231607754Y-124211243D01*
X231671235Y-124406617D01*
X231673444Y-124413414D01*
X231769951Y-124602820D01*
X231894890Y-124774786D01*
X232045213Y-124925109D01*
X232217179Y-125050048D01*
X232217181Y-125050049D01*
X232217184Y-125050051D01*
X232406588Y-125146557D01*
X232608757Y-125212246D01*
X232818713Y-125245500D01*
X232818714Y-125245500D01*
X233031286Y-125245500D01*
X233031287Y-125245500D01*
X233241243Y-125212246D01*
X233443412Y-125146557D01*
X233632816Y-125050051D01*
X233672386Y-125021302D01*
X233804786Y-124925109D01*
X233804788Y-124925106D01*
X233804792Y-124925104D01*
X233955104Y-124774792D01*
X233955106Y-124774788D01*
X233955109Y-124774786D01*
X234080048Y-124602820D01*
X234080047Y-124602820D01*
X234080051Y-124602816D01*
X234176557Y-124413412D01*
X234242246Y-124211243D01*
X234275500Y-124001287D01*
X234275500Y-123788713D01*
X234270493Y-123757106D01*
X282524500Y-123757106D01*
X282524500Y-124082893D01*
X282560974Y-124406604D01*
X282560976Y-124406620D01*
X282633467Y-124724226D01*
X282633471Y-124724238D01*
X282741066Y-125031725D01*
X282882413Y-125325234D01*
X282882415Y-125325237D01*
X283055739Y-125601081D01*
X283258857Y-125855783D01*
X283489217Y-126086143D01*
X283743919Y-126289261D01*
X284019763Y-126462585D01*
X284313278Y-126603935D01*
X284497620Y-126668439D01*
X284620761Y-126711528D01*
X284620773Y-126711532D01*
X284938383Y-126784024D01*
X285262106Y-126820499D01*
X285262107Y-126820500D01*
X285262111Y-126820500D01*
X285587893Y-126820500D01*
X285587893Y-126820499D01*
X285911617Y-126784024D01*
X286229227Y-126711532D01*
X286536722Y-126603935D01*
X286830237Y-126462585D01*
X287106081Y-126289261D01*
X287360783Y-126086143D01*
X287591143Y-125855783D01*
X287794261Y-125601081D01*
X287967585Y-125325237D01*
X288108935Y-125031722D01*
X288216532Y-124724227D01*
X288289024Y-124406617D01*
X288325500Y-124082889D01*
X288325500Y-123757111D01*
X288289024Y-123433383D01*
X288216532Y-123115773D01*
X288108935Y-122808278D01*
X287967585Y-122514763D01*
X287794261Y-122238919D01*
X287591143Y-121984217D01*
X287360783Y-121753857D01*
X287106081Y-121550739D01*
X286830237Y-121377415D01*
X286830234Y-121377413D01*
X286536725Y-121236066D01*
X286229238Y-121128471D01*
X286229226Y-121128467D01*
X285911620Y-121055976D01*
X285911604Y-121055974D01*
X285587893Y-121019500D01*
X285587889Y-121019500D01*
X285262111Y-121019500D01*
X285262107Y-121019500D01*
X284938395Y-121055974D01*
X284938379Y-121055976D01*
X284620773Y-121128467D01*
X284620761Y-121128471D01*
X284313274Y-121236066D01*
X284019765Y-121377413D01*
X283743920Y-121550738D01*
X283489217Y-121753856D01*
X283258856Y-121984217D01*
X283055738Y-122238920D01*
X282882413Y-122514765D01*
X282741066Y-122808274D01*
X282633471Y-123115761D01*
X282633467Y-123115773D01*
X282560976Y-123433379D01*
X282560974Y-123433395D01*
X282524500Y-123757106D01*
X234270493Y-123757106D01*
X234270062Y-123754382D01*
X234242246Y-123578760D01*
X234242246Y-123578757D01*
X234176557Y-123376588D01*
X234080051Y-123187184D01*
X234080049Y-123187181D01*
X234080048Y-123187179D01*
X233955109Y-123015213D01*
X233804786Y-122864890D01*
X233632820Y-122739951D01*
X233443414Y-122643444D01*
X233443413Y-122643443D01*
X233443412Y-122643443D01*
X233241243Y-122577754D01*
X233241241Y-122577753D01*
X233241240Y-122577753D01*
X233079957Y-122552208D01*
X233031287Y-122544500D01*
X232818713Y-122544500D01*
X232770042Y-122552208D01*
X232608760Y-122577753D01*
X232406585Y-122643444D01*
X232217179Y-122739951D01*
X232045213Y-122864890D01*
X231894890Y-123015213D01*
X231769951Y-123187179D01*
X231673444Y-123376585D01*
X231607753Y-123578760D01*
X231579506Y-123757106D01*
X231574500Y-123788713D01*
X203575499Y-123788713D01*
X203575499Y-123522128D01*
X203569091Y-123462517D01*
X203558229Y-123433395D01*
X203518797Y-123327671D01*
X203518793Y-123327664D01*
X203432547Y-123212455D01*
X203432544Y-123212452D01*
X203317335Y-123126206D01*
X203317328Y-123126202D01*
X203185917Y-123077189D01*
X203129983Y-123035318D01*
X203105566Y-122969853D01*
X203120418Y-122901580D01*
X203141563Y-122873332D01*
X203255104Y-122759792D01*
X203380051Y-122587816D01*
X203476557Y-122398412D01*
X203542246Y-122196243D01*
X203575500Y-121986287D01*
X203575500Y-121773713D01*
X203542246Y-121563757D01*
X203476557Y-121361588D01*
X203380051Y-121172184D01*
X203380049Y-121172181D01*
X203380048Y-121172179D01*
X203255109Y-121000213D01*
X203104786Y-120849890D01*
X202932820Y-120724951D01*
X202932115Y-120724591D01*
X202924054Y-120720485D01*
X202873259Y-120672512D01*
X202856463Y-120604692D01*
X202878999Y-120538556D01*
X202924054Y-120499515D01*
X202932816Y-120495051D01*
X202954789Y-120479086D01*
X203104786Y-120370109D01*
X203104788Y-120370106D01*
X203104792Y-120370104D01*
X203255104Y-120219792D01*
X203255106Y-120219788D01*
X203255109Y-120219786D01*
X203380048Y-120047820D01*
X203380047Y-120047820D01*
X203380051Y-120047816D01*
X203476557Y-119858412D01*
X203504874Y-119771263D01*
X263105500Y-119771263D01*
X263105500Y-119968736D01*
X263136389Y-120163763D01*
X263197408Y-120351558D01*
X263197409Y-120351561D01*
X263270522Y-120495051D01*
X263287058Y-120527504D01*
X263403115Y-120687246D01*
X263542753Y-120826884D01*
X263692234Y-120935486D01*
X263702499Y-120942944D01*
X263878439Y-121032591D01*
X263878450Y-121032594D01*
X263882942Y-121034456D01*
X263882180Y-121036295D01*
X263932923Y-121070953D01*
X263960154Y-121135298D01*
X263948276Y-121204150D01*
X263937291Y-121222379D01*
X263922481Y-121242763D01*
X263832873Y-121418626D01*
X263771876Y-121606353D01*
X263741000Y-121801302D01*
X263741000Y-121998697D01*
X263771876Y-122193646D01*
X263832873Y-122381373D01*
X263922483Y-122557239D01*
X263948457Y-122592988D01*
X263948457Y-122592989D01*
X264512037Y-122029408D01*
X264529075Y-122092993D01*
X264594901Y-122207007D01*
X264687993Y-122300099D01*
X264802007Y-122365925D01*
X264865590Y-122382962D01*
X264302009Y-122946541D01*
X264302010Y-122946542D01*
X264337755Y-122972512D01*
X264337768Y-122972520D01*
X264513626Y-123062126D01*
X264701353Y-123123123D01*
X264896303Y-123154000D01*
X265093697Y-123154000D01*
X265288646Y-123123123D01*
X265476373Y-123062126D01*
X265652241Y-122972516D01*
X265687988Y-122946543D01*
X265687988Y-122946541D01*
X265124410Y-122382962D01*
X265187993Y-122365925D01*
X265302007Y-122300099D01*
X265395099Y-122207007D01*
X265460925Y-122092993D01*
X265477962Y-122029409D01*
X266010000Y-122561446D01*
X266010001Y-122561446D01*
X266542037Y-122029409D01*
X266559075Y-122092993D01*
X266624901Y-122207007D01*
X266717993Y-122300099D01*
X266832007Y-122365925D01*
X266895590Y-122382962D01*
X266332009Y-122946541D01*
X266332010Y-122946542D01*
X266367755Y-122972512D01*
X266367768Y-122972520D01*
X266543626Y-123062126D01*
X266731353Y-123123123D01*
X266926303Y-123154000D01*
X267123697Y-123154000D01*
X267318646Y-123123123D01*
X267506373Y-123062126D01*
X267682241Y-122972516D01*
X267717988Y-122946543D01*
X267717988Y-122946541D01*
X267154410Y-122382962D01*
X267217993Y-122365925D01*
X267332007Y-122300099D01*
X267425099Y-122207007D01*
X267490925Y-122092993D01*
X267507962Y-122029408D01*
X268071541Y-122592988D01*
X268071543Y-122592988D01*
X268097516Y-122557241D01*
X268187126Y-122381373D01*
X268248123Y-122193646D01*
X268279000Y-121998697D01*
X268279000Y-121801302D01*
X268248123Y-121606353D01*
X268187126Y-121418626D01*
X268129125Y-121304794D01*
X268116229Y-121236125D01*
X268142505Y-121171384D01*
X268199612Y-121131127D01*
X268239609Y-121124499D01*
X268461872Y-121124499D01*
X268521483Y-121118091D01*
X268656331Y-121067796D01*
X268771546Y-120981546D01*
X268857796Y-120866331D01*
X268908091Y-120731483D01*
X268914500Y-120671873D01*
X268914499Y-119068128D01*
X268908091Y-119008517D01*
X268872508Y-118913115D01*
X268857797Y-118873671D01*
X268857793Y-118873664D01*
X268771547Y-118758455D01*
X268771544Y-118758452D01*
X268656335Y-118672206D01*
X268656328Y-118672202D01*
X268521482Y-118621908D01*
X268521483Y-118621908D01*
X268461883Y-118615501D01*
X268461881Y-118615500D01*
X268461873Y-118615500D01*
X268461864Y-118615500D01*
X266858129Y-118615500D01*
X266858123Y-118615501D01*
X266798516Y-118621908D01*
X266663671Y-118672202D01*
X266663664Y-118672206D01*
X266548455Y-118758452D01*
X266548452Y-118758455D01*
X266462206Y-118873664D01*
X266462202Y-118873671D01*
X266411908Y-119008517D01*
X266407153Y-119052748D01*
X266405501Y-119068123D01*
X266405500Y-119068135D01*
X266405500Y-120671870D01*
X266405501Y-120671876D01*
X266410610Y-120719401D01*
X266407480Y-120736742D01*
X266409424Y-120754256D01*
X266398392Y-120787781D01*
X266354589Y-120876035D01*
X266895591Y-121417037D01*
X266832007Y-121434075D01*
X266717993Y-121499901D01*
X266624901Y-121592993D01*
X266559075Y-121707007D01*
X266542037Y-121770590D01*
X266010001Y-121238553D01*
X266010000Y-121238553D01*
X265477962Y-121770590D01*
X265460925Y-121707007D01*
X265395099Y-121592993D01*
X265302007Y-121499901D01*
X265187993Y-121434075D01*
X265124408Y-121417037D01*
X265687989Y-120853457D01*
X265652239Y-120827483D01*
X265476363Y-120737870D01*
X265471866Y-120736007D01*
X265472664Y-120734078D01*
X265422209Y-120699562D01*
X265395025Y-120635197D01*
X265406954Y-120566354D01*
X265417900Y-120548206D01*
X265432944Y-120527501D01*
X265522591Y-120351561D01*
X265583610Y-120163763D01*
X265601974Y-120047820D01*
X265614500Y-119968736D01*
X265614500Y-119771263D01*
X265583610Y-119576236D01*
X265541387Y-119446287D01*
X265522591Y-119388439D01*
X265432944Y-119212499D01*
X265425486Y-119202234D01*
X265316884Y-119052753D01*
X265177246Y-118913115D01*
X265017504Y-118797058D01*
X265017503Y-118797057D01*
X265017501Y-118797056D01*
X264841561Y-118707409D01*
X264841558Y-118707408D01*
X264653763Y-118646389D01*
X264458736Y-118615500D01*
X264458731Y-118615500D01*
X264261269Y-118615500D01*
X264261264Y-118615500D01*
X264066236Y-118646389D01*
X263878441Y-118707408D01*
X263702495Y-118797058D01*
X263542753Y-118913115D01*
X263403115Y-119052753D01*
X263287058Y-119212495D01*
X263197408Y-119388441D01*
X263136389Y-119576236D01*
X263105500Y-119771263D01*
X203504874Y-119771263D01*
X203542246Y-119656243D01*
X203575500Y-119446287D01*
X203575500Y-119233713D01*
X203542246Y-119023757D01*
X203476557Y-118821588D01*
X203380051Y-118632184D01*
X203380049Y-118632181D01*
X203380048Y-118632179D01*
X203255109Y-118460213D01*
X203104786Y-118309890D01*
X202932820Y-118184951D01*
X202932115Y-118184591D01*
X202924054Y-118180485D01*
X202873259Y-118132512D01*
X202856463Y-118064692D01*
X202878999Y-117998556D01*
X202924054Y-117959515D01*
X202932816Y-117955051D01*
X202972569Y-117926169D01*
X203104786Y-117830109D01*
X203104788Y-117830106D01*
X203104792Y-117830104D01*
X203255104Y-117679792D01*
X203255106Y-117679788D01*
X203255109Y-117679786D01*
X203380048Y-117507820D01*
X203380047Y-117507820D01*
X203380051Y-117507816D01*
X203476557Y-117318412D01*
X203542246Y-117116243D01*
X203575500Y-116906287D01*
X203575500Y-116693713D01*
X203542246Y-116483757D01*
X203476557Y-116281588D01*
X203380051Y-116092184D01*
X203380049Y-116092181D01*
X203380048Y-116092179D01*
X203255109Y-115920213D01*
X203104786Y-115769890D01*
X202932820Y-115644951D01*
X202932115Y-115644591D01*
X202924054Y-115640485D01*
X202873259Y-115592512D01*
X202856463Y-115524692D01*
X202878999Y-115458556D01*
X202924054Y-115419515D01*
X202932816Y-115415051D01*
X202954789Y-115399086D01*
X203104786Y-115290109D01*
X203104788Y-115290106D01*
X203104792Y-115290104D01*
X203255104Y-115139792D01*
X203255106Y-115139788D01*
X203255109Y-115139786D01*
X203380048Y-114967820D01*
X203380047Y-114967820D01*
X203380051Y-114967816D01*
X203476557Y-114778412D01*
X203542246Y-114576243D01*
X203575500Y-114366287D01*
X203575500Y-114153713D01*
X203542246Y-113943757D01*
X203476557Y-113741588D01*
X203380051Y-113552184D01*
X203380049Y-113552181D01*
X203380048Y-113552179D01*
X203255107Y-113380211D01*
X203104786Y-113229890D01*
X202932820Y-113104951D01*
X202932115Y-113104591D01*
X202924054Y-113100485D01*
X202873259Y-113052512D01*
X202856463Y-112984692D01*
X202878999Y-112918556D01*
X202924054Y-112879515D01*
X202932816Y-112875051D01*
X202993172Y-112831200D01*
X203104786Y-112750109D01*
X203104788Y-112750106D01*
X203104792Y-112750104D01*
X203255104Y-112599792D01*
X203255106Y-112599788D01*
X203255109Y-112599786D01*
X203380048Y-112427820D01*
X203380047Y-112427820D01*
X203380051Y-112427816D01*
X203476557Y-112238412D01*
X203542246Y-112036243D01*
X203575500Y-111826287D01*
X203575500Y-111613713D01*
X203542246Y-111403757D01*
X203476557Y-111201588D01*
X203380051Y-111012184D01*
X203380049Y-111012181D01*
X203380048Y-111012179D01*
X203255109Y-110840213D01*
X203104786Y-110689890D01*
X202932820Y-110564951D01*
X202932115Y-110564591D01*
X202924054Y-110560485D01*
X202873259Y-110512512D01*
X202856463Y-110444692D01*
X202878999Y-110378556D01*
X202924054Y-110339515D01*
X202932816Y-110335051D01*
X202954789Y-110319086D01*
X203104786Y-110210109D01*
X203104788Y-110210106D01*
X203104792Y-110210104D01*
X203255104Y-110059792D01*
X203255106Y-110059788D01*
X203255109Y-110059786D01*
X203380048Y-109887820D01*
X203380047Y-109887820D01*
X203380051Y-109887816D01*
X203476557Y-109698412D01*
X203542246Y-109496243D01*
X203575500Y-109286287D01*
X203575500Y-109073713D01*
X203542246Y-108863757D01*
X203476557Y-108661588D01*
X203380051Y-108472184D01*
X203380049Y-108472181D01*
X203380048Y-108472179D01*
X203255109Y-108300213D01*
X203104786Y-108149890D01*
X202932820Y-108024951D01*
X202932115Y-108024591D01*
X202924054Y-108020485D01*
X202873259Y-107972512D01*
X202856463Y-107904692D01*
X202878999Y-107838556D01*
X202924054Y-107799515D01*
X202932816Y-107795051D01*
X202954789Y-107779086D01*
X203104786Y-107670109D01*
X203104788Y-107670106D01*
X203104792Y-107670104D01*
X203255104Y-107519792D01*
X203255106Y-107519788D01*
X203255109Y-107519786D01*
X203380048Y-107347820D01*
X203380047Y-107347820D01*
X203380051Y-107347816D01*
X203476557Y-107158412D01*
X203542246Y-106956243D01*
X203575500Y-106746287D01*
X203575500Y-106533713D01*
X203542246Y-106323757D01*
X203476557Y-106121588D01*
X203380051Y-105932184D01*
X203380049Y-105932181D01*
X203380048Y-105932179D01*
X203255109Y-105760213D01*
X203104786Y-105609890D01*
X202932817Y-105484949D01*
X202923504Y-105480204D01*
X202872707Y-105432230D01*
X202855912Y-105364409D01*
X202878449Y-105298274D01*
X202923507Y-105259232D01*
X202932555Y-105254622D01*
X202986716Y-105215270D01*
X202986717Y-105215270D01*
X202354408Y-104582962D01*
X202417993Y-104565925D01*
X202532007Y-104500099D01*
X202625099Y-104407007D01*
X202690925Y-104292993D01*
X202707962Y-104229408D01*
X203340270Y-104861717D01*
X203340270Y-104861716D01*
X203379622Y-104807554D01*
X203476095Y-104618217D01*
X203541757Y-104416130D01*
X203541757Y-104416127D01*
X203575000Y-104206246D01*
X203575000Y-103993753D01*
X203541757Y-103783872D01*
X203541757Y-103783869D01*
X203476095Y-103581782D01*
X203379624Y-103392449D01*
X203340270Y-103338282D01*
X203340269Y-103338282D01*
X202707962Y-103970590D01*
X202690925Y-103907007D01*
X202625099Y-103792993D01*
X202532007Y-103699901D01*
X202417993Y-103634075D01*
X202354409Y-103617037D01*
X202986716Y-102984728D01*
X202932550Y-102945375D01*
X202922954Y-102940486D01*
X202872157Y-102892512D01*
X202855361Y-102824692D01*
X202877897Y-102758556D01*
X202922954Y-102719514D01*
X202932554Y-102714622D01*
X202986716Y-102675270D01*
X202986717Y-102675270D01*
X202354408Y-102042962D01*
X202417993Y-102025925D01*
X202532007Y-101960099D01*
X202625099Y-101867007D01*
X202690925Y-101752993D01*
X202707962Y-101689408D01*
X203340270Y-102321717D01*
X203340270Y-102321716D01*
X203379622Y-102267554D01*
X203476095Y-102078217D01*
X203541757Y-101876130D01*
X203541757Y-101876127D01*
X203575000Y-101666246D01*
X203575000Y-101453753D01*
X203541757Y-101243872D01*
X203541757Y-101243869D01*
X203476095Y-101041782D01*
X203379624Y-100852449D01*
X203340270Y-100798282D01*
X203340269Y-100798282D01*
X202707962Y-101430590D01*
X202690925Y-101367007D01*
X202625099Y-101252993D01*
X202532007Y-101159901D01*
X202417993Y-101094075D01*
X202354409Y-101077037D01*
X202986716Y-100444728D01*
X202932547Y-100405373D01*
X202932547Y-100405372D01*
X202923500Y-100400763D01*
X202872706Y-100352788D01*
X202855912Y-100284966D01*
X202878451Y-100218832D01*
X202923508Y-100179793D01*
X202932816Y-100175051D01*
X203012007Y-100117515D01*
X203104786Y-100050109D01*
X203104788Y-100050106D01*
X203104792Y-100050104D01*
X203255104Y-99899792D01*
X203255106Y-99899788D01*
X203255109Y-99899786D01*
X203380048Y-99727820D01*
X203380047Y-99727820D01*
X203380051Y-99727816D01*
X203476557Y-99538412D01*
X203542246Y-99336243D01*
X203575500Y-99126287D01*
X203575500Y-98913713D01*
X203542246Y-98703757D01*
X203476557Y-98501588D01*
X203380051Y-98312184D01*
X203380049Y-98312181D01*
X203380048Y-98312179D01*
X203255109Y-98140213D01*
X203104786Y-97989890D01*
X202932817Y-97864949D01*
X202923504Y-97860204D01*
X202872707Y-97812230D01*
X202855912Y-97744409D01*
X202878449Y-97678274D01*
X202923507Y-97639232D01*
X202932555Y-97634622D01*
X202986716Y-97595270D01*
X202986717Y-97595270D01*
X202354408Y-96962962D01*
X202417993Y-96945925D01*
X202532007Y-96880099D01*
X202625099Y-96787007D01*
X202690925Y-96672993D01*
X202707962Y-96609408D01*
X203340270Y-97241717D01*
X203340270Y-97241716D01*
X203379622Y-97187554D01*
X203476095Y-96998217D01*
X203541757Y-96796130D01*
X203541757Y-96796127D01*
X203575000Y-96586246D01*
X203575000Y-96373753D01*
X203541757Y-96163872D01*
X203541757Y-96163869D01*
X203476095Y-95961782D01*
X203379624Y-95772449D01*
X203340270Y-95718282D01*
X203340269Y-95718282D01*
X202707962Y-96350590D01*
X202690925Y-96287007D01*
X202625099Y-96172993D01*
X202532007Y-96079901D01*
X202417993Y-96014075D01*
X202354409Y-95997037D01*
X202986716Y-95364728D01*
X202932550Y-95325375D01*
X202922954Y-95320486D01*
X202872157Y-95272512D01*
X202855361Y-95204692D01*
X202877897Y-95138556D01*
X202922954Y-95099514D01*
X202932554Y-95094622D01*
X202986716Y-95055270D01*
X202986717Y-95055270D01*
X202354408Y-94422962D01*
X202417993Y-94405925D01*
X202532007Y-94340099D01*
X202625099Y-94247007D01*
X202690925Y-94132993D01*
X202707962Y-94069408D01*
X203340270Y-94701717D01*
X203340270Y-94701716D01*
X203379622Y-94647554D01*
X203476095Y-94458217D01*
X203541757Y-94256130D01*
X203541757Y-94256127D01*
X203575000Y-94046246D01*
X203575000Y-93833753D01*
X203541757Y-93623872D01*
X203541757Y-93623869D01*
X203476095Y-93421782D01*
X203379624Y-93232449D01*
X203340270Y-93178282D01*
X203340269Y-93178282D01*
X202707962Y-93810590D01*
X202690925Y-93747007D01*
X202625099Y-93632993D01*
X202532007Y-93539901D01*
X202417993Y-93474075D01*
X202354409Y-93457037D01*
X202986716Y-92824728D01*
X202932547Y-92785373D01*
X202932547Y-92785372D01*
X202923500Y-92780763D01*
X202872706Y-92732788D01*
X202855912Y-92664966D01*
X202878451Y-92598832D01*
X202923508Y-92559793D01*
X202932816Y-92555051D01*
X203051651Y-92468713D01*
X203104786Y-92430109D01*
X203104788Y-92430106D01*
X203104792Y-92430104D01*
X203255104Y-92279792D01*
X203255106Y-92279788D01*
X203255109Y-92279786D01*
X203366634Y-92126283D01*
X203380051Y-92107816D01*
X203476557Y-91918412D01*
X203542246Y-91716243D01*
X203575500Y-91506287D01*
X203575500Y-91293713D01*
X203542246Y-91083757D01*
X203476557Y-90881588D01*
X203380051Y-90692184D01*
X203380049Y-90692181D01*
X203380048Y-90692179D01*
X203255109Y-90520213D01*
X203104786Y-90369890D01*
X202932820Y-90244951D01*
X202932115Y-90244591D01*
X202924054Y-90240485D01*
X202873259Y-90192512D01*
X202856463Y-90124692D01*
X202878999Y-90058556D01*
X202924054Y-90019515D01*
X202932816Y-90015051D01*
X202994824Y-89970000D01*
X203104786Y-89890109D01*
X203104788Y-89890106D01*
X203104792Y-89890104D01*
X203255104Y-89739792D01*
X203255106Y-89739788D01*
X203255109Y-89739786D01*
X203380048Y-89567820D01*
X203380047Y-89567820D01*
X203380051Y-89567816D01*
X203476557Y-89378412D01*
X203542246Y-89176243D01*
X203575500Y-88966287D01*
X203575500Y-88753713D01*
X203542246Y-88543757D01*
X203476557Y-88341588D01*
X203380051Y-88152184D01*
X203380049Y-88152181D01*
X203380048Y-88152179D01*
X203255109Y-87980213D01*
X203104786Y-87829890D01*
X202932820Y-87704951D01*
X202932115Y-87704591D01*
X202924054Y-87700485D01*
X202873259Y-87652512D01*
X202856463Y-87584692D01*
X202878999Y-87518556D01*
X202924054Y-87479515D01*
X202932816Y-87475051D01*
X203006218Y-87421722D01*
X203104786Y-87350109D01*
X203104788Y-87350106D01*
X203104792Y-87350104D01*
X203255104Y-87199792D01*
X203255106Y-87199788D01*
X203255109Y-87199786D01*
X203380048Y-87027820D01*
X203380047Y-87027820D01*
X203380051Y-87027816D01*
X203476557Y-86838412D01*
X203542246Y-86636243D01*
X203575500Y-86426287D01*
X203575500Y-86213713D01*
X203542246Y-86003757D01*
X203476557Y-85801588D01*
X203380051Y-85612184D01*
X203380049Y-85612181D01*
X203380048Y-85612179D01*
X203255109Y-85440213D01*
X203104786Y-85289890D01*
X202932820Y-85164951D01*
X202932115Y-85164591D01*
X202924054Y-85160485D01*
X202873259Y-85112512D01*
X202856463Y-85044692D01*
X202878999Y-84978556D01*
X202924054Y-84939515D01*
X202932816Y-84935051D01*
X203006596Y-84881447D01*
X203104786Y-84810109D01*
X203104788Y-84810106D01*
X203104792Y-84810104D01*
X203255104Y-84659792D01*
X203255106Y-84659788D01*
X203255109Y-84659786D01*
X203380048Y-84487820D01*
X203380047Y-84487820D01*
X203380051Y-84487816D01*
X203476557Y-84298412D01*
X203542246Y-84096243D01*
X203575500Y-83886287D01*
X203575500Y-83673713D01*
X203574708Y-83668713D01*
X231374500Y-83668713D01*
X231374500Y-83881287D01*
X231407754Y-84091243D01*
X231458629Y-84247820D01*
X231473444Y-84293414D01*
X231569951Y-84482820D01*
X231694890Y-84654786D01*
X231845213Y-84805109D01*
X232017182Y-84930050D01*
X232025946Y-84934516D01*
X232076742Y-84982491D01*
X232093536Y-85050312D01*
X232070998Y-85116447D01*
X232025946Y-85155484D01*
X232017182Y-85159949D01*
X231845213Y-85284890D01*
X231694890Y-85435213D01*
X231569951Y-85607179D01*
X231473444Y-85796585D01*
X231407753Y-85998760D01*
X231374500Y-86208713D01*
X231374500Y-86421286D01*
X231400861Y-86587726D01*
X231407754Y-86631243D01*
X231472518Y-86830566D01*
X231473444Y-86833414D01*
X231569951Y-87022820D01*
X231694890Y-87194786D01*
X231845213Y-87345109D01*
X232017182Y-87470050D01*
X232025946Y-87474516D01*
X232076742Y-87522491D01*
X232093536Y-87590312D01*
X232070998Y-87656447D01*
X232025946Y-87695484D01*
X232017182Y-87699949D01*
X231845213Y-87824890D01*
X231694890Y-87975213D01*
X231569951Y-88147179D01*
X231473444Y-88336585D01*
X231407753Y-88538760D01*
X231384460Y-88685826D01*
X231374500Y-88748713D01*
X231374500Y-88961287D01*
X231407754Y-89171243D01*
X231458541Y-89327550D01*
X231473444Y-89373414D01*
X231569951Y-89562820D01*
X231694890Y-89734786D01*
X231845213Y-89885109D01*
X232017182Y-90010050D01*
X232025946Y-90014516D01*
X232076742Y-90062491D01*
X232093536Y-90130312D01*
X232070998Y-90196447D01*
X232025946Y-90235484D01*
X232017182Y-90239949D01*
X231845213Y-90364890D01*
X231694890Y-90515213D01*
X231569951Y-90687179D01*
X231473444Y-90876585D01*
X231407753Y-91078760D01*
X231374500Y-91288713D01*
X231374500Y-91501286D01*
X231404692Y-91691915D01*
X231407754Y-91711243D01*
X231464306Y-91885292D01*
X231473444Y-91913414D01*
X231569951Y-92102820D01*
X231694890Y-92274786D01*
X231845213Y-92425109D01*
X232017182Y-92550050D01*
X232025946Y-92554516D01*
X232076742Y-92602491D01*
X232093536Y-92670312D01*
X232070998Y-92736447D01*
X232025946Y-92775484D01*
X232017182Y-92779949D01*
X231845213Y-92904890D01*
X231694890Y-93055213D01*
X231569951Y-93227179D01*
X231473444Y-93416585D01*
X231407753Y-93618760D01*
X231381812Y-93782546D01*
X231374500Y-93828713D01*
X231374500Y-94041287D01*
X231384534Y-94104644D01*
X231397024Y-94183501D01*
X231407754Y-94251243D01*
X231469085Y-94440000D01*
X231473444Y-94453414D01*
X231569951Y-94642820D01*
X231694890Y-94814786D01*
X231845213Y-94965109D01*
X232017182Y-95090050D01*
X232025946Y-95094516D01*
X232076742Y-95142491D01*
X232093536Y-95210312D01*
X232070998Y-95276447D01*
X232025946Y-95315484D01*
X232017182Y-95319949D01*
X231845213Y-95444890D01*
X231694890Y-95595213D01*
X231569951Y-95767179D01*
X231473444Y-95956585D01*
X231407753Y-96158760D01*
X231405499Y-96172993D01*
X231374500Y-96368713D01*
X231374500Y-96581287D01*
X231407754Y-96791243D01*
X231469085Y-96980000D01*
X231473444Y-96993414D01*
X231569951Y-97182820D01*
X231694890Y-97354786D01*
X231845213Y-97505109D01*
X232017182Y-97630050D01*
X232025946Y-97634516D01*
X232076742Y-97682491D01*
X232093536Y-97750312D01*
X232070998Y-97816447D01*
X232025946Y-97855484D01*
X232017182Y-97859949D01*
X231845213Y-97984890D01*
X231694890Y-98135213D01*
X231569951Y-98307179D01*
X231473444Y-98496585D01*
X231407753Y-98698760D01*
X231381110Y-98866979D01*
X231374500Y-98908713D01*
X231374500Y-99121287D01*
X231407754Y-99331243D01*
X231409377Y-99336239D01*
X231473444Y-99533414D01*
X231569951Y-99722820D01*
X231694890Y-99894786D01*
X231845213Y-100045109D01*
X232017182Y-100170050D01*
X232025946Y-100174516D01*
X232076742Y-100222491D01*
X232093536Y-100290312D01*
X232070998Y-100356447D01*
X232025946Y-100395484D01*
X232017182Y-100399949D01*
X231845213Y-100524890D01*
X231694890Y-100675213D01*
X231569951Y-100847179D01*
X231473444Y-101036585D01*
X231407753Y-101238760D01*
X231405499Y-101252993D01*
X231374500Y-101448713D01*
X231374500Y-101661287D01*
X231378582Y-101687058D01*
X231402946Y-101840890D01*
X231407754Y-101871243D01*
X231469085Y-102060000D01*
X231473444Y-102073414D01*
X231569951Y-102262820D01*
X231694890Y-102434786D01*
X231808430Y-102548326D01*
X231841915Y-102609649D01*
X231836931Y-102679341D01*
X231795059Y-102735274D01*
X231764083Y-102752189D01*
X231632669Y-102801203D01*
X231632664Y-102801206D01*
X231517455Y-102887452D01*
X231517452Y-102887455D01*
X231431206Y-103002664D01*
X231431202Y-103002671D01*
X231380908Y-103137517D01*
X231374501Y-103197116D01*
X231374501Y-103197123D01*
X231374500Y-103197135D01*
X231374500Y-104992870D01*
X231374501Y-104992876D01*
X231380908Y-105052483D01*
X231431202Y-105187328D01*
X231431206Y-105187335D01*
X231517452Y-105302544D01*
X231517455Y-105302547D01*
X231632664Y-105388793D01*
X231632671Y-105388797D01*
X231767517Y-105439091D01*
X231767516Y-105439091D01*
X231774444Y-105439835D01*
X231827127Y-105445500D01*
X233622872Y-105445499D01*
X233682483Y-105439091D01*
X233817331Y-105388796D01*
X233932546Y-105302546D01*
X234018796Y-105187331D01*
X234069091Y-105052483D01*
X234075500Y-104992873D01*
X234075499Y-103206263D01*
X248145500Y-103206263D01*
X248145500Y-103403736D01*
X248176389Y-103598763D01*
X248224375Y-103746446D01*
X248237409Y-103786561D01*
X248327056Y-103962501D01*
X248327058Y-103962504D01*
X248443115Y-104122246D01*
X248582753Y-104261884D01*
X248732234Y-104370486D01*
X248742499Y-104377944D01*
X248918439Y-104467591D01*
X248918450Y-104467594D01*
X248922942Y-104469456D01*
X248922180Y-104471295D01*
X248972923Y-104505953D01*
X249000154Y-104570298D01*
X248988276Y-104639150D01*
X248977291Y-104657379D01*
X248962481Y-104677763D01*
X248872873Y-104853626D01*
X248811876Y-105041353D01*
X248781000Y-105236302D01*
X248781000Y-105433697D01*
X248811876Y-105628646D01*
X248872873Y-105816373D01*
X248962483Y-105992239D01*
X248988457Y-106027988D01*
X248988457Y-106027989D01*
X249552037Y-105464408D01*
X249569075Y-105527993D01*
X249634901Y-105642007D01*
X249727993Y-105735099D01*
X249842007Y-105800925D01*
X249905590Y-105817962D01*
X249342009Y-106381541D01*
X249342010Y-106381542D01*
X249377755Y-106407512D01*
X249377768Y-106407520D01*
X249553626Y-106497126D01*
X249741353Y-106558123D01*
X249936303Y-106589000D01*
X250133697Y-106589000D01*
X250328646Y-106558123D01*
X250516373Y-106497126D01*
X250692241Y-106407516D01*
X250727988Y-106381543D01*
X250727988Y-106381541D01*
X250164410Y-105817962D01*
X250227993Y-105800925D01*
X250342007Y-105735099D01*
X250435099Y-105642007D01*
X250500925Y-105527993D01*
X250517962Y-105464409D01*
X251050000Y-105996446D01*
X251050001Y-105996446D01*
X251582037Y-105464409D01*
X251599075Y-105527993D01*
X251664901Y-105642007D01*
X251757993Y-105735099D01*
X251872007Y-105800925D01*
X251935590Y-105817962D01*
X251372009Y-106381541D01*
X251372010Y-106381542D01*
X251407755Y-106407512D01*
X251407768Y-106407520D01*
X251583626Y-106497126D01*
X251771353Y-106558123D01*
X251966303Y-106589000D01*
X252163697Y-106589000D01*
X252358646Y-106558123D01*
X252546373Y-106497126D01*
X252722241Y-106407516D01*
X252757988Y-106381543D01*
X252757988Y-106381541D01*
X252194410Y-105817962D01*
X252257993Y-105800925D01*
X252372007Y-105735099D01*
X252465099Y-105642007D01*
X252530925Y-105527993D01*
X252547962Y-105464408D01*
X253111541Y-106027988D01*
X253111543Y-106027988D01*
X253137516Y-105992241D01*
X253227126Y-105816373D01*
X253288123Y-105628646D01*
X253319000Y-105433697D01*
X253319000Y-105236302D01*
X253288123Y-105041353D01*
X253227126Y-104853626D01*
X253169125Y-104739794D01*
X253156229Y-104671125D01*
X253182505Y-104606384D01*
X253239612Y-104566127D01*
X253279609Y-104559499D01*
X253501872Y-104559499D01*
X253561483Y-104553091D01*
X253696331Y-104502796D01*
X253811546Y-104416546D01*
X253897796Y-104301331D01*
X253948091Y-104166483D01*
X253954500Y-104106873D01*
X253954499Y-102503128D01*
X253948091Y-102443517D01*
X253912508Y-102348115D01*
X253897797Y-102308671D01*
X253897793Y-102308664D01*
X253811547Y-102193455D01*
X253811544Y-102193452D01*
X253696335Y-102107206D01*
X253696328Y-102107202D01*
X253561482Y-102056908D01*
X253561483Y-102056908D01*
X253501883Y-102050501D01*
X253501881Y-102050500D01*
X253501873Y-102050500D01*
X253501864Y-102050500D01*
X251898129Y-102050500D01*
X251898123Y-102050501D01*
X251838516Y-102056908D01*
X251703671Y-102107202D01*
X251703664Y-102107206D01*
X251588455Y-102193452D01*
X251588452Y-102193455D01*
X251502206Y-102308664D01*
X251502202Y-102308671D01*
X251451908Y-102443517D01*
X251449466Y-102466235D01*
X251445501Y-102503123D01*
X251445500Y-102503135D01*
X251445500Y-104106870D01*
X251445501Y-104106876D01*
X251450610Y-104154401D01*
X251447480Y-104171742D01*
X251449424Y-104189256D01*
X251438392Y-104222781D01*
X251394589Y-104311035D01*
X251935591Y-104852037D01*
X251872007Y-104869075D01*
X251757993Y-104934901D01*
X251664901Y-105027993D01*
X251599075Y-105142007D01*
X251582037Y-105205590D01*
X251050001Y-104673553D01*
X251050000Y-104673553D01*
X250517962Y-105205590D01*
X250500925Y-105142007D01*
X250435099Y-105027993D01*
X250342007Y-104934901D01*
X250227993Y-104869075D01*
X250164408Y-104852037D01*
X250727989Y-104288457D01*
X250692239Y-104262483D01*
X250516363Y-104172870D01*
X250511866Y-104171007D01*
X250512664Y-104169078D01*
X250462209Y-104134562D01*
X250435025Y-104070197D01*
X250446954Y-104001354D01*
X250457900Y-103983206D01*
X250472944Y-103962501D01*
X250562591Y-103786561D01*
X250623610Y-103598763D01*
X250645401Y-103461181D01*
X250654500Y-103403736D01*
X250654500Y-103206263D01*
X250623610Y-103011236D01*
X250583391Y-102887455D01*
X250562591Y-102823439D01*
X250472944Y-102647499D01*
X250421419Y-102576580D01*
X250356884Y-102487753D01*
X250217246Y-102348115D01*
X250057504Y-102232058D01*
X250057503Y-102232057D01*
X250057501Y-102232056D01*
X249881561Y-102142409D01*
X249881558Y-102142408D01*
X249693763Y-102081389D01*
X249498736Y-102050500D01*
X249498731Y-102050500D01*
X249301269Y-102050500D01*
X249301264Y-102050500D01*
X249106236Y-102081389D01*
X248918441Y-102142408D01*
X248742495Y-102232058D01*
X248582753Y-102348115D01*
X248443115Y-102487753D01*
X248327058Y-102647495D01*
X248237408Y-102823441D01*
X248176389Y-103011236D01*
X248145500Y-103206263D01*
X234075499Y-103206263D01*
X234075499Y-103197128D01*
X234069091Y-103137517D01*
X234021991Y-103011236D01*
X234018797Y-103002671D01*
X234018793Y-103002664D01*
X233932547Y-102887455D01*
X233932544Y-102887452D01*
X233817335Y-102801206D01*
X233817328Y-102801202D01*
X233685917Y-102752189D01*
X233629983Y-102710318D01*
X233605566Y-102644853D01*
X233620418Y-102576580D01*
X233641563Y-102548332D01*
X233755104Y-102434792D01*
X233880051Y-102262816D01*
X233976557Y-102073412D01*
X234042246Y-101871243D01*
X234075500Y-101661287D01*
X234075500Y-101448713D01*
X234042246Y-101238757D01*
X233976557Y-101036588D01*
X233880051Y-100847184D01*
X233880049Y-100847181D01*
X233880048Y-100847179D01*
X233755109Y-100675213D01*
X233604786Y-100524890D01*
X233432820Y-100399951D01*
X233432115Y-100399591D01*
X233424054Y-100395485D01*
X233373259Y-100347512D01*
X233356463Y-100279692D01*
X233378999Y-100213556D01*
X233424054Y-100174515D01*
X233432816Y-100170051D01*
X233566727Y-100072760D01*
X233604786Y-100045109D01*
X233604788Y-100045106D01*
X233604792Y-100045104D01*
X233755104Y-99894792D01*
X233755106Y-99894788D01*
X233755109Y-99894786D01*
X233880048Y-99722820D01*
X233880047Y-99722820D01*
X233880051Y-99722816D01*
X233976557Y-99533412D01*
X234042246Y-99331243D01*
X234075500Y-99121287D01*
X234075500Y-98908713D01*
X234042246Y-98698757D01*
X233976557Y-98496588D01*
X233880051Y-98307184D01*
X233880049Y-98307181D01*
X233880048Y-98307179D01*
X233755109Y-98135213D01*
X233604786Y-97984890D01*
X233432820Y-97859951D01*
X233432115Y-97859591D01*
X233424054Y-97855485D01*
X233373259Y-97807512D01*
X233356463Y-97739692D01*
X233378999Y-97673556D01*
X233424054Y-97634515D01*
X233432816Y-97630051D01*
X233480690Y-97595269D01*
X233604786Y-97505109D01*
X233604788Y-97505106D01*
X233604792Y-97505104D01*
X233755104Y-97354792D01*
X233755106Y-97354788D01*
X233755109Y-97354786D01*
X233876609Y-97187554D01*
X233880051Y-97182816D01*
X233976557Y-96993412D01*
X234042246Y-96791243D01*
X234075500Y-96581287D01*
X234075500Y-96368713D01*
X234042246Y-96158757D01*
X233976557Y-95956588D01*
X233880051Y-95767184D01*
X233880049Y-95767181D01*
X233880048Y-95767179D01*
X233755109Y-95595213D01*
X233604786Y-95444890D01*
X233432820Y-95319951D01*
X233432115Y-95319591D01*
X233424054Y-95315485D01*
X233373259Y-95267512D01*
X233356463Y-95199692D01*
X233378999Y-95133556D01*
X233424054Y-95094515D01*
X233432816Y-95090051D01*
X233524305Y-95023581D01*
X233604786Y-94965109D01*
X233604788Y-94965106D01*
X233604792Y-94965104D01*
X233755104Y-94814792D01*
X233755106Y-94814788D01*
X233755109Y-94814786D01*
X233876609Y-94647554D01*
X233880051Y-94642816D01*
X233976557Y-94453412D01*
X234042246Y-94251243D01*
X234075500Y-94041287D01*
X234075500Y-93828713D01*
X234042246Y-93618757D01*
X233976557Y-93416588D01*
X233880051Y-93227184D01*
X233880049Y-93227181D01*
X233880048Y-93227179D01*
X233755109Y-93055213D01*
X233604786Y-92904890D01*
X233432820Y-92779951D01*
X233432115Y-92779591D01*
X233424054Y-92775485D01*
X233373259Y-92727512D01*
X233356463Y-92659692D01*
X233378999Y-92593556D01*
X233424054Y-92554515D01*
X233432816Y-92550051D01*
X233544769Y-92468713D01*
X233604786Y-92425109D01*
X233604788Y-92425106D01*
X233604792Y-92425104D01*
X233755104Y-92274792D01*
X233755106Y-92274788D01*
X233755109Y-92274786D01*
X233880048Y-92102820D01*
X233880047Y-92102820D01*
X233880051Y-92102816D01*
X233976557Y-91913412D01*
X234042246Y-91711243D01*
X234075500Y-91501287D01*
X234075500Y-91288713D01*
X234042246Y-91078757D01*
X233976557Y-90876588D01*
X233880051Y-90687184D01*
X233880049Y-90687181D01*
X233880048Y-90687179D01*
X233755109Y-90515213D01*
X233604786Y-90364890D01*
X233432820Y-90239951D01*
X233432115Y-90239591D01*
X233424054Y-90235485D01*
X233373259Y-90187512D01*
X233356463Y-90119692D01*
X233378999Y-90053556D01*
X233424054Y-90014515D01*
X233432816Y-90010051D01*
X233487942Y-89970000D01*
X233604786Y-89885109D01*
X233604788Y-89885106D01*
X233604792Y-89885104D01*
X233755104Y-89734792D01*
X233755106Y-89734788D01*
X233755109Y-89734786D01*
X233880048Y-89562820D01*
X233880047Y-89562820D01*
X233880051Y-89562816D01*
X233976557Y-89373412D01*
X234042246Y-89171243D01*
X234075500Y-88961287D01*
X234075500Y-88748713D01*
X234042246Y-88538757D01*
X233976557Y-88336588D01*
X233880051Y-88147184D01*
X233880049Y-88147181D01*
X233880048Y-88147179D01*
X233755109Y-87975213D01*
X233604786Y-87824890D01*
X233432820Y-87699951D01*
X233432115Y-87699591D01*
X233424054Y-87695485D01*
X233373259Y-87647512D01*
X233356463Y-87579692D01*
X233378999Y-87513556D01*
X233424054Y-87474515D01*
X233432816Y-87470051D01*
X233499336Y-87421722D01*
X233604786Y-87345109D01*
X233604788Y-87345106D01*
X233604792Y-87345104D01*
X233755104Y-87194792D01*
X233755106Y-87194788D01*
X233755109Y-87194786D01*
X233880048Y-87022820D01*
X233880047Y-87022820D01*
X233880051Y-87022816D01*
X233976557Y-86833412D01*
X234042246Y-86631243D01*
X234075500Y-86421287D01*
X234075500Y-86208713D01*
X234042246Y-85998757D01*
X233976557Y-85796588D01*
X233880051Y-85607184D01*
X233880049Y-85607181D01*
X233880048Y-85607179D01*
X233755109Y-85435213D01*
X233604786Y-85284890D01*
X233432820Y-85159951D01*
X233432115Y-85159591D01*
X233424054Y-85155485D01*
X233373259Y-85107512D01*
X233356463Y-85039692D01*
X233378999Y-84973556D01*
X233424054Y-84934515D01*
X233432816Y-84930051D01*
X233499714Y-84881447D01*
X233604786Y-84805109D01*
X233604788Y-84805106D01*
X233604792Y-84805104D01*
X233755104Y-84654792D01*
X233755106Y-84654788D01*
X233755109Y-84654786D01*
X233880048Y-84482820D01*
X233880047Y-84482820D01*
X233880051Y-84482816D01*
X233976557Y-84293412D01*
X234042246Y-84091243D01*
X234075500Y-83881287D01*
X234075500Y-83668713D01*
X234063215Y-83591151D01*
X234044734Y-83474464D01*
X234042625Y-83461153D01*
X240574500Y-83461153D01*
X240574500Y-83618846D01*
X240605261Y-83773489D01*
X240605264Y-83773501D01*
X240665602Y-83919172D01*
X240665609Y-83919185D01*
X240753602Y-84050874D01*
X240774480Y-84117551D01*
X240774500Y-84119765D01*
X240774500Y-85757650D01*
X240754815Y-85824689D01*
X240753626Y-85826503D01*
X240743600Y-85841510D01*
X240690609Y-85920815D01*
X240690602Y-85920828D01*
X240630264Y-86066498D01*
X240630261Y-86066510D01*
X240599500Y-86221153D01*
X240599500Y-86378846D01*
X240630261Y-86533489D01*
X240630264Y-86533501D01*
X240690602Y-86679172D01*
X240690609Y-86679185D01*
X240778210Y-86810288D01*
X240778213Y-86810292D01*
X240889707Y-86921786D01*
X240889711Y-86921789D01*
X241020814Y-87009390D01*
X241020827Y-87009397D01*
X241100348Y-87042335D01*
X241166503Y-87069737D01*
X241321153Y-87100499D01*
X241321156Y-87100500D01*
X241321158Y-87100500D01*
X241478844Y-87100500D01*
X241478845Y-87100499D01*
X241633497Y-87069737D01*
X241779179Y-87009394D01*
X241856609Y-86957657D01*
X241923286Y-86936779D01*
X241990666Y-86955263D01*
X242037357Y-87007242D01*
X242049500Y-87060759D01*
X242049500Y-90742059D01*
X242029815Y-90809098D01*
X242013181Y-90829740D01*
X241978213Y-90864707D01*
X241978210Y-90864711D01*
X241890609Y-90995814D01*
X241890602Y-90995827D01*
X241830264Y-91141498D01*
X241830261Y-91141510D01*
X241799500Y-91296153D01*
X241799500Y-91453846D01*
X241830261Y-91608489D01*
X241830264Y-91608501D01*
X241890602Y-91754172D01*
X241890609Y-91754185D01*
X241978210Y-91885288D01*
X241978213Y-91885292D01*
X242089707Y-91996786D01*
X242089711Y-91996789D01*
X242220814Y-92084390D01*
X242220827Y-92084397D01*
X242366498Y-92144735D01*
X242366503Y-92144737D01*
X242521153Y-92175499D01*
X242521156Y-92175500D01*
X242521158Y-92175500D01*
X242678844Y-92175500D01*
X242678845Y-92175499D01*
X242833497Y-92144737D01*
X242878050Y-92126282D01*
X242947515Y-92118814D01*
X243009995Y-92150088D01*
X243045648Y-92210177D01*
X243049500Y-92240844D01*
X243049500Y-93370234D01*
X243029815Y-93437273D01*
X243028602Y-93439125D01*
X242940609Y-93570814D01*
X242940602Y-93570827D01*
X242880264Y-93716498D01*
X242880261Y-93716510D01*
X242849500Y-93871153D01*
X242849500Y-94028846D01*
X242880261Y-94183489D01*
X242880264Y-94183501D01*
X242940602Y-94329172D01*
X242940609Y-94329185D01*
X243028210Y-94460288D01*
X243028213Y-94460292D01*
X243139707Y-94571786D01*
X243139711Y-94571789D01*
X243270814Y-94659390D01*
X243270827Y-94659397D01*
X243416498Y-94719735D01*
X243416503Y-94719737D01*
X243571153Y-94750499D01*
X243571156Y-94750500D01*
X243571158Y-94750500D01*
X243728844Y-94750500D01*
X243728845Y-94750499D01*
X243883497Y-94719737D01*
X244029179Y-94659394D01*
X244160289Y-94571789D01*
X244271789Y-94460289D01*
X244359394Y-94329179D01*
X244419737Y-94183497D01*
X244450500Y-94028842D01*
X244450500Y-93871158D01*
X244450500Y-93871155D01*
X244450499Y-93871153D01*
X244432873Y-93782544D01*
X244419737Y-93716503D01*
X244399371Y-93667335D01*
X244359397Y-93570827D01*
X244359390Y-93570814D01*
X244271398Y-93439125D01*
X244250520Y-93372447D01*
X244250500Y-93370234D01*
X244250500Y-86654765D01*
X244270185Y-86587726D01*
X244271398Y-86585874D01*
X244359390Y-86454185D01*
X244359390Y-86454184D01*
X244359394Y-86454179D01*
X244419737Y-86308497D01*
X244450500Y-86153842D01*
X244450500Y-85996158D01*
X244450500Y-85996155D01*
X244450499Y-85996153D01*
X244435513Y-85920815D01*
X244419737Y-85841503D01*
X244413540Y-85826541D01*
X244359397Y-85695827D01*
X244359390Y-85695814D01*
X244271789Y-85564711D01*
X244271786Y-85564707D01*
X244160292Y-85453213D01*
X244160288Y-85453210D01*
X244029185Y-85365609D01*
X244029172Y-85365602D01*
X243883501Y-85305264D01*
X243883489Y-85305261D01*
X243728845Y-85274500D01*
X243728842Y-85274500D01*
X243571158Y-85274500D01*
X243571155Y-85274500D01*
X243416510Y-85305261D01*
X243410676Y-85307031D01*
X243409873Y-85304385D01*
X243352056Y-85310396D01*
X243289687Y-85278902D01*
X243254245Y-85218689D01*
X243250500Y-85188444D01*
X243250500Y-82854765D01*
X243270185Y-82787726D01*
X243271398Y-82785874D01*
X243359390Y-82654185D01*
X243359390Y-82654184D01*
X243359394Y-82654179D01*
X243419737Y-82508497D01*
X243450500Y-82353842D01*
X243450500Y-82196158D01*
X243450500Y-82196155D01*
X243450499Y-82196153D01*
X243435310Y-82119792D01*
X243419737Y-82041503D01*
X243419735Y-82041498D01*
X243359397Y-81895827D01*
X243359390Y-81895814D01*
X243271789Y-81764711D01*
X243271786Y-81764707D01*
X243160292Y-81653213D01*
X243160288Y-81653210D01*
X243029185Y-81565609D01*
X243029172Y-81565602D01*
X242883501Y-81505264D01*
X242883489Y-81505261D01*
X242728845Y-81474500D01*
X242728842Y-81474500D01*
X242571158Y-81474500D01*
X242571155Y-81474500D01*
X242416510Y-81505261D01*
X242416498Y-81505264D01*
X242270827Y-81565602D01*
X242270814Y-81565609D01*
X242139711Y-81653210D01*
X242139707Y-81653213D01*
X242028213Y-81764707D01*
X242028210Y-81764711D01*
X241940609Y-81895814D01*
X241940602Y-81895827D01*
X241880264Y-82041498D01*
X241880261Y-82041510D01*
X241849500Y-82196153D01*
X241849500Y-82353846D01*
X241880261Y-82508489D01*
X241880264Y-82508501D01*
X241940602Y-82654172D01*
X241940609Y-82654184D01*
X241957598Y-82679610D01*
X241978476Y-82746287D01*
X241959992Y-82813667D01*
X241908013Y-82860358D01*
X241839043Y-82871534D01*
X241785606Y-82851604D01*
X241754183Y-82830608D01*
X241754172Y-82830602D01*
X241608501Y-82770264D01*
X241608489Y-82770261D01*
X241453845Y-82739500D01*
X241453842Y-82739500D01*
X241296158Y-82739500D01*
X241296155Y-82739500D01*
X241141510Y-82770261D01*
X241141498Y-82770264D01*
X240995827Y-82830602D01*
X240995814Y-82830609D01*
X240864711Y-82918210D01*
X240864707Y-82918213D01*
X240753213Y-83029707D01*
X240753210Y-83029711D01*
X240665609Y-83160814D01*
X240665602Y-83160827D01*
X240605264Y-83306498D01*
X240605261Y-83306510D01*
X240574500Y-83461153D01*
X234042625Y-83461153D01*
X234042246Y-83458759D01*
X234042246Y-83458757D01*
X233976557Y-83256588D01*
X233880051Y-83067184D01*
X233880049Y-83067181D01*
X233880048Y-83067179D01*
X233755109Y-82895213D01*
X233604786Y-82744890D01*
X233432817Y-82619949D01*
X233423504Y-82615204D01*
X233372707Y-82567230D01*
X233355912Y-82499409D01*
X233378449Y-82433274D01*
X233423507Y-82394232D01*
X233432555Y-82389622D01*
X233486716Y-82350270D01*
X233486717Y-82350270D01*
X232854408Y-81717962D01*
X232917993Y-81700925D01*
X233032007Y-81635099D01*
X233125099Y-81542007D01*
X233190925Y-81427993D01*
X233207962Y-81364408D01*
X233840270Y-81996717D01*
X233840270Y-81996716D01*
X233879622Y-81942554D01*
X233976095Y-81753217D01*
X234041757Y-81551130D01*
X234041757Y-81551127D01*
X234075000Y-81341246D01*
X234075000Y-81128753D01*
X234041757Y-80918872D01*
X234041757Y-80918869D01*
X233976095Y-80716782D01*
X233879624Y-80527449D01*
X233840270Y-80473282D01*
X233840269Y-80473282D01*
X233207962Y-81105590D01*
X233190925Y-81042007D01*
X233125099Y-80927993D01*
X233032007Y-80834901D01*
X232917993Y-80769075D01*
X232854409Y-80752037D01*
X233486716Y-80119728D01*
X233432550Y-80080375D01*
X233243217Y-79983904D01*
X233041129Y-79918242D01*
X232831246Y-79885000D01*
X232618754Y-79885000D01*
X232408872Y-79918242D01*
X232408869Y-79918242D01*
X232206782Y-79983904D01*
X232017439Y-80080380D01*
X231963282Y-80119727D01*
X231963282Y-80119728D01*
X232595591Y-80752037D01*
X232532007Y-80769075D01*
X232417993Y-80834901D01*
X232324901Y-80927993D01*
X232259075Y-81042007D01*
X232242037Y-81105591D01*
X231609728Y-80473282D01*
X231609727Y-80473282D01*
X231570380Y-80527439D01*
X231473904Y-80716782D01*
X231408242Y-80918869D01*
X231408242Y-80918872D01*
X231375000Y-81128753D01*
X231375000Y-81341246D01*
X231408242Y-81551127D01*
X231408242Y-81551130D01*
X231473904Y-81753217D01*
X231570375Y-81942550D01*
X231609728Y-81996716D01*
X232242037Y-81364408D01*
X232259075Y-81427993D01*
X232324901Y-81542007D01*
X232417993Y-81635099D01*
X232532007Y-81700925D01*
X232595590Y-81717962D01*
X231963282Y-82350269D01*
X231963282Y-82350270D01*
X232017452Y-82389626D01*
X232017451Y-82389626D01*
X232026495Y-82394234D01*
X232077292Y-82442208D01*
X232094087Y-82510029D01*
X232071550Y-82576164D01*
X232026499Y-82615202D01*
X232017182Y-82619949D01*
X231845213Y-82744890D01*
X231694890Y-82895213D01*
X231569951Y-83067179D01*
X231473444Y-83256585D01*
X231407753Y-83458760D01*
X231386785Y-83591151D01*
X231374500Y-83668713D01*
X203574708Y-83668713D01*
X203542246Y-83463757D01*
X203476557Y-83261588D01*
X203380051Y-83072184D01*
X203380049Y-83072181D01*
X203380048Y-83072179D01*
X203255109Y-82900213D01*
X203104786Y-82749890D01*
X202932820Y-82624951D01*
X202932115Y-82624591D01*
X202924054Y-82620485D01*
X202873259Y-82572512D01*
X202856463Y-82504692D01*
X202878999Y-82438556D01*
X202924054Y-82399515D01*
X202932816Y-82395051D01*
X203006596Y-82341447D01*
X203104786Y-82270109D01*
X203104788Y-82270106D01*
X203104792Y-82270104D01*
X203255104Y-82119792D01*
X203255106Y-82119788D01*
X203255109Y-82119786D01*
X203380048Y-81947820D01*
X203380047Y-81947820D01*
X203380051Y-81947816D01*
X203476557Y-81758412D01*
X203542246Y-81556243D01*
X203575500Y-81346287D01*
X203575500Y-81133713D01*
X203542246Y-80923757D01*
X203476557Y-80721588D01*
X203380051Y-80532184D01*
X203380049Y-80532181D01*
X203380048Y-80532179D01*
X203255109Y-80360213D01*
X203104786Y-80209890D01*
X202932820Y-80084951D01*
X202932115Y-80084591D01*
X202924054Y-80080485D01*
X202873259Y-80032512D01*
X202856463Y-79964692D01*
X202878999Y-79898556D01*
X202924054Y-79859515D01*
X202932816Y-79855051D01*
X203006596Y-79801447D01*
X203104786Y-79730109D01*
X203104788Y-79730106D01*
X203104792Y-79730104D01*
X203255104Y-79579792D01*
X203255106Y-79579788D01*
X203255109Y-79579786D01*
X203380048Y-79407820D01*
X203380047Y-79407820D01*
X203380051Y-79407816D01*
X203476557Y-79218412D01*
X203542246Y-79016243D01*
X203575500Y-78806287D01*
X203575500Y-78593713D01*
X203542246Y-78383757D01*
X203476557Y-78181588D01*
X203380051Y-77992184D01*
X203380049Y-77992181D01*
X203380048Y-77992179D01*
X203255109Y-77820213D01*
X203104786Y-77669890D01*
X202932817Y-77544949D01*
X202923504Y-77540204D01*
X202872707Y-77492230D01*
X202855912Y-77424409D01*
X202878449Y-77358274D01*
X202923507Y-77319232D01*
X202932555Y-77314622D01*
X202986716Y-77275270D01*
X202986717Y-77275270D01*
X202354408Y-76642962D01*
X202417993Y-76625925D01*
X202532007Y-76560099D01*
X202625099Y-76467007D01*
X202690925Y-76352993D01*
X202707962Y-76289408D01*
X203340270Y-76921717D01*
X203340270Y-76921716D01*
X203379622Y-76867554D01*
X203476095Y-76678217D01*
X203541757Y-76476130D01*
X203541757Y-76476127D01*
X203575000Y-76266246D01*
X203575000Y-76053753D01*
X203541757Y-75843872D01*
X203541757Y-75843869D01*
X203476095Y-75641782D01*
X203379624Y-75452449D01*
X203340270Y-75398282D01*
X203340269Y-75398282D01*
X202707962Y-76030590D01*
X202690925Y-75967007D01*
X202625099Y-75852993D01*
X202532007Y-75759901D01*
X202417993Y-75694075D01*
X202354409Y-75677037D01*
X202986716Y-75044728D01*
X202932550Y-75005375D01*
X202743217Y-74908904D01*
X202541129Y-74843242D01*
X202331246Y-74810000D01*
X202118754Y-74810000D01*
X201908872Y-74843242D01*
X201908869Y-74843242D01*
X201706782Y-74908904D01*
X201517439Y-75005380D01*
X201463282Y-75044727D01*
X201463282Y-75044728D01*
X202095591Y-75677037D01*
X202032007Y-75694075D01*
X201917993Y-75759901D01*
X201824901Y-75852993D01*
X201759075Y-75967007D01*
X201742037Y-76030590D01*
X201109728Y-75398282D01*
X201109727Y-75398282D01*
X201070380Y-75452439D01*
X200973904Y-75641782D01*
X200908242Y-75843869D01*
X200908242Y-75843872D01*
X200875000Y-76053753D01*
X200875000Y-76266246D01*
X200908242Y-76476127D01*
X200908242Y-76476130D01*
X200973904Y-76678217D01*
X201070375Y-76867550D01*
X201109728Y-76921716D01*
X201742037Y-76289408D01*
X201759075Y-76352993D01*
X201824901Y-76467007D01*
X201917993Y-76560099D01*
X202032007Y-76625925D01*
X202095590Y-76642962D01*
X201463282Y-77275269D01*
X201463282Y-77275270D01*
X201517452Y-77314626D01*
X201517451Y-77314626D01*
X201526495Y-77319234D01*
X201577292Y-77367208D01*
X201594087Y-77435029D01*
X201571550Y-77501164D01*
X201526499Y-77540202D01*
X201517182Y-77544949D01*
X201345213Y-77669890D01*
X201194890Y-77820213D01*
X201069951Y-77992179D01*
X200973444Y-78181585D01*
X200907753Y-78383760D01*
X200887489Y-78511702D01*
X200874500Y-78593713D01*
X164290043Y-78593713D01*
X164647056Y-78144382D01*
X164648783Y-78142262D01*
X165731585Y-76842971D01*
X165733399Y-76840845D01*
X166846285Y-75567166D01*
X166848151Y-75565078D01*
X167066064Y-75327135D01*
X185149500Y-75327135D01*
X185149500Y-77122870D01*
X185149501Y-77122876D01*
X185155908Y-77182483D01*
X185206202Y-77317328D01*
X185206206Y-77317335D01*
X185292452Y-77432544D01*
X185292455Y-77432547D01*
X185407664Y-77518793D01*
X185407671Y-77518797D01*
X185542517Y-77569091D01*
X185542516Y-77569091D01*
X185549444Y-77569835D01*
X185602127Y-77575500D01*
X187397872Y-77575499D01*
X187457483Y-77569091D01*
X187592331Y-77518796D01*
X187707546Y-77432546D01*
X187793796Y-77317331D01*
X187842810Y-77185916D01*
X187884681Y-77129984D01*
X187950145Y-77105566D01*
X188018418Y-77120417D01*
X188046673Y-77141569D01*
X188160213Y-77255109D01*
X188332179Y-77380048D01*
X188332181Y-77380049D01*
X188332184Y-77380051D01*
X188521588Y-77476557D01*
X188723757Y-77542246D01*
X188933713Y-77575500D01*
X188933714Y-77575500D01*
X189146286Y-77575500D01*
X189146287Y-77575500D01*
X189356243Y-77542246D01*
X189558412Y-77476557D01*
X189747816Y-77380051D01*
X189834138Y-77317335D01*
X189919786Y-77255109D01*
X189919788Y-77255106D01*
X189919792Y-77255104D01*
X190070104Y-77104792D01*
X190070106Y-77104788D01*
X190070109Y-77104786D01*
X190195048Y-76932820D01*
X190195047Y-76932820D01*
X190195051Y-76932816D01*
X190291557Y-76743412D01*
X190357246Y-76541243D01*
X190390500Y-76331287D01*
X190390500Y-76118713D01*
X190357246Y-75908757D01*
X190291557Y-75706588D01*
X190195051Y-75517184D01*
X190195049Y-75517181D01*
X190195048Y-75517179D01*
X190070109Y-75345213D01*
X189919788Y-75194892D01*
X189916228Y-75192306D01*
X189916227Y-75192305D01*
X189747819Y-75069951D01*
X189747818Y-75069950D01*
X189747816Y-75069949D01*
X189558412Y-74973443D01*
X189356243Y-74907754D01*
X189356241Y-74907753D01*
X189356240Y-74907753D01*
X189194957Y-74882208D01*
X189146287Y-74874500D01*
X188933713Y-74874500D01*
X188885042Y-74882208D01*
X188723760Y-74907753D01*
X188521585Y-74973444D01*
X188332179Y-75069951D01*
X188160215Y-75194889D01*
X188046673Y-75308431D01*
X187985350Y-75341915D01*
X187915658Y-75336931D01*
X187859725Y-75295059D01*
X187842810Y-75264082D01*
X187793797Y-75132671D01*
X187793793Y-75132664D01*
X187707547Y-75017455D01*
X187707544Y-75017452D01*
X187592335Y-74931206D01*
X187592328Y-74931202D01*
X187457482Y-74880908D01*
X187457483Y-74880908D01*
X187397883Y-74874501D01*
X187397881Y-74874500D01*
X187397873Y-74874500D01*
X187397864Y-74874500D01*
X185602129Y-74874500D01*
X185602123Y-74874501D01*
X185542516Y-74880908D01*
X185407671Y-74931202D01*
X185407664Y-74931206D01*
X185292455Y-75017452D01*
X185292452Y-75017455D01*
X185206206Y-75132664D01*
X185206202Y-75132671D01*
X185155908Y-75267517D01*
X185149501Y-75327116D01*
X185149500Y-75327135D01*
X167066064Y-75327135D01*
X167990488Y-74317740D01*
X167992391Y-74315709D01*
X168210244Y-74088713D01*
X207874500Y-74088713D01*
X207874500Y-74301287D01*
X207877113Y-74317782D01*
X207901591Y-74472335D01*
X207907754Y-74511243D01*
X207960571Y-74673797D01*
X207973444Y-74713414D01*
X208069951Y-74902820D01*
X208194890Y-75074786D01*
X208345213Y-75225109D01*
X208517179Y-75350048D01*
X208517181Y-75350049D01*
X208517184Y-75350051D01*
X208706588Y-75446557D01*
X208908757Y-75512246D01*
X209118713Y-75545500D01*
X209118714Y-75545500D01*
X209331286Y-75545500D01*
X209331287Y-75545500D01*
X209541243Y-75512246D01*
X209743412Y-75446557D01*
X209932816Y-75350051D01*
X209964384Y-75327116D01*
X210104786Y-75225109D01*
X210104788Y-75225106D01*
X210104792Y-75225104D01*
X210255104Y-75074792D01*
X210255106Y-75074788D01*
X210255109Y-75074786D01*
X210380048Y-74902820D01*
X210380047Y-74902820D01*
X210380051Y-74902816D01*
X210476557Y-74713412D01*
X210542246Y-74511243D01*
X210575500Y-74301287D01*
X210575500Y-74088713D01*
X210542246Y-73878757D01*
X210480497Y-73688713D01*
X231574500Y-73688713D01*
X231574500Y-73901286D01*
X231604185Y-74088713D01*
X231607754Y-74111243D01*
X231669503Y-74301287D01*
X231673444Y-74313414D01*
X231769951Y-74502820D01*
X231894890Y-74674786D01*
X232045213Y-74825109D01*
X232217179Y-74950048D01*
X232217181Y-74950049D01*
X232217184Y-74950051D01*
X232406588Y-75046557D01*
X232608757Y-75112246D01*
X232818713Y-75145500D01*
X232818714Y-75145500D01*
X233031286Y-75145500D01*
X233031287Y-75145500D01*
X233241243Y-75112246D01*
X233443412Y-75046557D01*
X233632816Y-74950051D01*
X233664993Y-74926673D01*
X233804786Y-74825109D01*
X233804788Y-74825106D01*
X233804792Y-74825104D01*
X233955104Y-74674792D01*
X233955106Y-74674788D01*
X233955109Y-74674786D01*
X234080048Y-74502820D01*
X234080047Y-74502820D01*
X234080051Y-74502816D01*
X234176557Y-74313412D01*
X234242246Y-74111243D01*
X234275500Y-73901287D01*
X234275500Y-73688713D01*
X234242246Y-73478757D01*
X234176557Y-73276588D01*
X234080051Y-73087184D01*
X234080049Y-73087181D01*
X234080048Y-73087179D01*
X233955109Y-72915213D01*
X233804786Y-72764890D01*
X233632819Y-72639951D01*
X233632818Y-72639950D01*
X233632816Y-72639949D01*
X233443412Y-72543443D01*
X233254726Y-72482135D01*
X246699500Y-72482135D01*
X246699500Y-74277870D01*
X246699501Y-74277876D01*
X246705908Y-74337483D01*
X246756202Y-74472328D01*
X246756206Y-74472335D01*
X246842452Y-74587544D01*
X246842455Y-74587547D01*
X246957664Y-74673793D01*
X246957671Y-74673797D01*
X247089082Y-74722810D01*
X247145016Y-74764681D01*
X247169433Y-74830145D01*
X247154582Y-74898418D01*
X247133431Y-74926673D01*
X247019889Y-75040215D01*
X246894951Y-75212179D01*
X246798444Y-75401585D01*
X246732753Y-75603760D01*
X246716467Y-75706588D01*
X246699500Y-75813713D01*
X246699500Y-76026287D01*
X246732754Y-76236243D01*
X246763635Y-76331286D01*
X246798444Y-76438414D01*
X246894951Y-76627820D01*
X247019890Y-76799786D01*
X247170213Y-76950109D01*
X247342182Y-77075050D01*
X247350946Y-77079516D01*
X247401742Y-77127491D01*
X247418536Y-77195312D01*
X247395998Y-77261447D01*
X247350946Y-77300484D01*
X247342182Y-77304949D01*
X247170213Y-77429890D01*
X247019890Y-77580213D01*
X246894951Y-77752179D01*
X246798444Y-77941585D01*
X246732753Y-78143760D01*
X246699500Y-78353713D01*
X246699500Y-78566286D01*
X246732753Y-78776239D01*
X246798444Y-78978414D01*
X246894951Y-79167820D01*
X247019890Y-79339786D01*
X247170213Y-79490109D01*
X247342182Y-79615050D01*
X247350946Y-79619516D01*
X247401742Y-79667491D01*
X247418536Y-79735312D01*
X247395998Y-79801447D01*
X247350946Y-79840484D01*
X247342182Y-79844949D01*
X247170213Y-79969890D01*
X247019890Y-80120213D01*
X246894951Y-80292179D01*
X246798444Y-80481585D01*
X246732753Y-80683760D01*
X246709892Y-80828101D01*
X246699500Y-80893713D01*
X246699500Y-81106287D01*
X246732754Y-81316243D01*
X246756268Y-81388612D01*
X246798444Y-81518414D01*
X246894951Y-81707820D01*
X247019890Y-81879786D01*
X247170213Y-82030109D01*
X247342182Y-82155050D01*
X247350946Y-82159516D01*
X247401742Y-82207491D01*
X247418536Y-82275312D01*
X247395998Y-82341447D01*
X247350946Y-82380484D01*
X247342182Y-82384949D01*
X247170213Y-82509890D01*
X247019890Y-82660213D01*
X246894951Y-82832179D01*
X246798444Y-83021585D01*
X246732753Y-83223760D01*
X246726229Y-83264951D01*
X246699500Y-83433713D01*
X246699500Y-83646287D01*
X246732754Y-83856243D01*
X246770171Y-83971401D01*
X246798444Y-84058414D01*
X246894951Y-84247820D01*
X247019890Y-84419786D01*
X247170213Y-84570109D01*
X247342182Y-84695050D01*
X247350946Y-84699516D01*
X247401742Y-84747491D01*
X247418536Y-84815312D01*
X247395998Y-84881447D01*
X247350946Y-84920484D01*
X247342182Y-84924949D01*
X247170213Y-85049890D01*
X247019890Y-85200213D01*
X246894951Y-85372179D01*
X246798444Y-85561585D01*
X246732753Y-85763760D01*
X246699500Y-85973713D01*
X246699500Y-86186286D01*
X246729998Y-86378846D01*
X246732754Y-86396243D01*
X246795776Y-86590205D01*
X246798444Y-86598414D01*
X246894951Y-86787820D01*
X247019890Y-86959786D01*
X247170213Y-87110109D01*
X247342179Y-87235048D01*
X247342181Y-87235049D01*
X247342184Y-87235051D01*
X247351493Y-87239794D01*
X247402290Y-87287766D01*
X247419087Y-87355587D01*
X247396552Y-87421722D01*
X247351505Y-87460760D01*
X247342446Y-87465376D01*
X247342440Y-87465380D01*
X247288282Y-87504727D01*
X247288282Y-87504728D01*
X247920591Y-88137037D01*
X247857007Y-88154075D01*
X247742993Y-88219901D01*
X247649901Y-88312993D01*
X247584075Y-88427007D01*
X247567037Y-88490591D01*
X246934728Y-87858282D01*
X246934727Y-87858282D01*
X246895380Y-87912439D01*
X246798904Y-88101782D01*
X246733242Y-88303869D01*
X246733242Y-88303872D01*
X246700000Y-88513753D01*
X246700000Y-88726246D01*
X246733242Y-88936127D01*
X246733242Y-88936130D01*
X246798904Y-89138217D01*
X246895375Y-89327550D01*
X246934728Y-89381716D01*
X247567037Y-88749408D01*
X247584075Y-88812993D01*
X247649901Y-88927007D01*
X247742993Y-89020099D01*
X247857007Y-89085925D01*
X247920590Y-89102962D01*
X247288282Y-89735269D01*
X247288282Y-89735270D01*
X247342449Y-89774624D01*
X247531782Y-89871095D01*
X247733870Y-89936757D01*
X247943754Y-89970000D01*
X248156246Y-89970000D01*
X248366127Y-89936757D01*
X248366130Y-89936757D01*
X248568217Y-89871095D01*
X248757554Y-89774622D01*
X248811716Y-89735270D01*
X248811717Y-89735270D01*
X248179408Y-89102962D01*
X248242993Y-89085925D01*
X248357007Y-89020099D01*
X248450099Y-88927007D01*
X248515925Y-88812993D01*
X248532962Y-88749408D01*
X249165270Y-89381717D01*
X249165270Y-89381716D01*
X249204622Y-89327554D01*
X249209514Y-89317954D01*
X249257488Y-89267157D01*
X249325308Y-89250361D01*
X249391444Y-89272897D01*
X249430486Y-89317954D01*
X249435375Y-89327550D01*
X249474728Y-89381716D01*
X250107037Y-88749408D01*
X250124075Y-88812993D01*
X250189901Y-88927007D01*
X250282993Y-89020099D01*
X250397007Y-89085925D01*
X250460590Y-89102962D01*
X249828282Y-89735269D01*
X249828282Y-89735270D01*
X249882449Y-89774624D01*
X250071782Y-89871095D01*
X250273870Y-89936757D01*
X250483754Y-89970000D01*
X250696246Y-89970000D01*
X250906127Y-89936757D01*
X250906130Y-89936757D01*
X251108217Y-89871095D01*
X251297554Y-89774622D01*
X251351716Y-89735270D01*
X251351717Y-89735270D01*
X250719408Y-89102962D01*
X250782993Y-89085925D01*
X250897007Y-89020099D01*
X250990099Y-88927007D01*
X251055925Y-88812993D01*
X251072962Y-88749408D01*
X251705270Y-89381717D01*
X251705270Y-89381716D01*
X251744622Y-89327554D01*
X251841095Y-89138217D01*
X251906757Y-88936130D01*
X251906757Y-88936127D01*
X251940000Y-88726246D01*
X251940000Y-88513753D01*
X251906757Y-88303872D01*
X251906757Y-88303869D01*
X251841095Y-88101782D01*
X251744624Y-87912449D01*
X251705270Y-87858282D01*
X251705269Y-87858282D01*
X251072962Y-88490590D01*
X251055925Y-88427007D01*
X250990099Y-88312993D01*
X250897007Y-88219901D01*
X250782993Y-88154075D01*
X250719409Y-88137037D01*
X251351716Y-87504728D01*
X251297547Y-87465373D01*
X251297547Y-87465372D01*
X251288500Y-87460763D01*
X251237706Y-87412788D01*
X251220912Y-87344966D01*
X251243451Y-87278832D01*
X251288508Y-87239793D01*
X251297816Y-87235051D01*
X251404496Y-87157544D01*
X251469786Y-87110109D01*
X251469788Y-87110106D01*
X251469792Y-87110104D01*
X251620104Y-86959792D01*
X251620106Y-86959788D01*
X251620109Y-86959786D01*
X251745048Y-86787820D01*
X251745047Y-86787820D01*
X251745051Y-86787816D01*
X251841557Y-86598412D01*
X251907246Y-86396243D01*
X251940500Y-86186287D01*
X251940500Y-85973713D01*
X251907246Y-85763757D01*
X251841557Y-85561588D01*
X251745051Y-85372184D01*
X251745049Y-85372181D01*
X251745048Y-85372179D01*
X251620109Y-85200213D01*
X251469786Y-85049890D01*
X251297820Y-84924951D01*
X251297115Y-84924591D01*
X251289054Y-84920485D01*
X251238259Y-84872512D01*
X251221463Y-84804692D01*
X251243999Y-84738556D01*
X251289054Y-84699515D01*
X251297816Y-84695051D01*
X251346346Y-84659792D01*
X251469786Y-84570109D01*
X251469788Y-84570106D01*
X251469792Y-84570104D01*
X251620104Y-84419792D01*
X251620106Y-84419788D01*
X251620109Y-84419786D01*
X251745048Y-84247820D01*
X251745047Y-84247820D01*
X251745051Y-84247816D01*
X251841557Y-84058412D01*
X251907246Y-83856243D01*
X251940500Y-83646287D01*
X251940500Y-83433713D01*
X251907246Y-83223757D01*
X251841557Y-83021588D01*
X251745051Y-82832184D01*
X251745049Y-82832181D01*
X251745048Y-82832179D01*
X251620109Y-82660213D01*
X251469786Y-82509890D01*
X251297820Y-82384951D01*
X251297115Y-82384591D01*
X251289054Y-82380485D01*
X251238259Y-82332512D01*
X251221463Y-82264692D01*
X251243999Y-82198556D01*
X251289054Y-82159515D01*
X251297816Y-82155051D01*
X251346346Y-82119792D01*
X251469786Y-82030109D01*
X251469788Y-82030106D01*
X251469792Y-82030104D01*
X251620104Y-81879792D01*
X251620106Y-81879788D01*
X251620109Y-81879786D01*
X251745048Y-81707820D01*
X251745047Y-81707820D01*
X251745051Y-81707816D01*
X251841557Y-81518412D01*
X251907246Y-81316243D01*
X251940500Y-81106287D01*
X251940500Y-80893713D01*
X251907246Y-80683757D01*
X251841557Y-80481588D01*
X251745051Y-80292184D01*
X251745049Y-80292181D01*
X251745048Y-80292179D01*
X251620109Y-80120213D01*
X251469786Y-79969890D01*
X251297820Y-79844951D01*
X251297115Y-79844591D01*
X251289054Y-79840485D01*
X251238259Y-79792512D01*
X251221463Y-79724692D01*
X251243999Y-79658556D01*
X251289054Y-79619515D01*
X251297816Y-79615051D01*
X251346346Y-79579792D01*
X251469786Y-79490109D01*
X251469788Y-79490106D01*
X251469792Y-79490104D01*
X251620104Y-79339792D01*
X251620106Y-79339788D01*
X251620109Y-79339786D01*
X251745048Y-79167820D01*
X251745047Y-79167820D01*
X251745051Y-79167816D01*
X251841557Y-78978412D01*
X251907246Y-78776243D01*
X251940500Y-78566287D01*
X251940500Y-78353713D01*
X251907246Y-78143757D01*
X251841557Y-77941588D01*
X251745051Y-77752184D01*
X251745049Y-77752181D01*
X251745048Y-77752179D01*
X251620109Y-77580213D01*
X251469786Y-77429890D01*
X251297820Y-77304951D01*
X251297115Y-77304591D01*
X251289054Y-77300485D01*
X251238259Y-77252512D01*
X251221463Y-77184692D01*
X251243999Y-77118556D01*
X251289054Y-77079515D01*
X251297816Y-77075051D01*
X251319789Y-77059086D01*
X251469786Y-76950109D01*
X251469788Y-76950106D01*
X251469792Y-76950104D01*
X251620104Y-76799792D01*
X251620106Y-76799788D01*
X251620109Y-76799786D01*
X251745048Y-76627820D01*
X251745047Y-76627820D01*
X251745051Y-76627816D01*
X251841557Y-76438412D01*
X251907246Y-76236243D01*
X251940500Y-76026287D01*
X251940500Y-75813713D01*
X251907246Y-75603757D01*
X251841557Y-75401588D01*
X251745051Y-75212184D01*
X251745049Y-75212181D01*
X251745048Y-75212179D01*
X251620109Y-75040213D01*
X251469786Y-74889890D01*
X251297820Y-74764951D01*
X251297115Y-74764591D01*
X251289054Y-74760485D01*
X251238259Y-74712512D01*
X251221463Y-74644692D01*
X251243999Y-74578556D01*
X251289054Y-74539515D01*
X251297816Y-74535051D01*
X251330591Y-74511239D01*
X251469786Y-74410109D01*
X251469788Y-74410106D01*
X251469792Y-74410104D01*
X251620104Y-74259792D01*
X251620106Y-74259788D01*
X251620109Y-74259786D01*
X251745048Y-74087820D01*
X251745047Y-74087820D01*
X251745051Y-74087816D01*
X251841557Y-73898412D01*
X251907246Y-73696243D01*
X251940500Y-73486287D01*
X251940500Y-73273713D01*
X251907246Y-73063757D01*
X251841557Y-72861588D01*
X251745051Y-72672184D01*
X251745049Y-72672181D01*
X251745048Y-72672179D01*
X251620109Y-72500213D01*
X251532077Y-72412181D01*
X251498592Y-72350858D01*
X251503576Y-72281166D01*
X251545448Y-72225233D01*
X251610912Y-72200816D01*
X251619758Y-72200500D01*
X251984218Y-72200500D01*
X252051257Y-72220185D01*
X252071899Y-72236819D01*
X260663181Y-80828101D01*
X260696666Y-80889424D01*
X260699500Y-80915782D01*
X260699500Y-88563541D01*
X260699500Y-88563543D01*
X260699499Y-88563543D01*
X260737947Y-88756829D01*
X260737950Y-88756839D01*
X260813364Y-88938907D01*
X260813371Y-88938920D01*
X260922859Y-89102780D01*
X260922860Y-89102781D01*
X260922861Y-89102782D01*
X261062218Y-89242139D01*
X261062219Y-89242139D01*
X261069286Y-89249206D01*
X261069285Y-89249206D01*
X261069289Y-89249209D01*
X264423181Y-92603102D01*
X264456666Y-92664425D01*
X264459500Y-92690783D01*
X264459500Y-93472870D01*
X264459501Y-93472876D01*
X264465908Y-93532483D01*
X264516202Y-93667328D01*
X264516206Y-93667335D01*
X264602452Y-93782544D01*
X264602455Y-93782547D01*
X264717664Y-93868793D01*
X264717671Y-93868797D01*
X264852517Y-93919091D01*
X264852516Y-93919091D01*
X264859444Y-93919835D01*
X264912127Y-93925500D01*
X266707872Y-93925499D01*
X266767483Y-93919091D01*
X266902331Y-93868796D01*
X267017546Y-93782546D01*
X267103796Y-93667331D01*
X267152810Y-93535916D01*
X267194681Y-93479984D01*
X267260145Y-93455566D01*
X267328418Y-93470417D01*
X267356673Y-93491569D01*
X267470213Y-93605109D01*
X267642179Y-93730048D01*
X267642181Y-93730049D01*
X267642184Y-93730051D01*
X267831588Y-93826557D01*
X268033757Y-93892246D01*
X268243713Y-93925500D01*
X268243714Y-93925500D01*
X268456286Y-93925500D01*
X268456287Y-93925500D01*
X268666243Y-93892246D01*
X268868412Y-93826557D01*
X269057816Y-93730051D01*
X269144138Y-93667335D01*
X269229786Y-93605109D01*
X269229788Y-93605106D01*
X269229792Y-93605104D01*
X269380104Y-93454792D01*
X269380106Y-93454788D01*
X269380109Y-93454786D01*
X269505048Y-93282820D01*
X269505047Y-93282820D01*
X269505051Y-93282816D01*
X269601557Y-93093412D01*
X269667246Y-92891243D01*
X269700500Y-92681287D01*
X269700500Y-92468713D01*
X269667246Y-92258757D01*
X269601557Y-92056588D01*
X269505051Y-91867184D01*
X269505049Y-91867181D01*
X269505048Y-91867179D01*
X269380109Y-91695213D01*
X269229786Y-91544890D01*
X269057820Y-91419951D01*
X268868414Y-91323444D01*
X268868413Y-91323443D01*
X268868412Y-91323443D01*
X268666243Y-91257754D01*
X268666241Y-91257753D01*
X268666240Y-91257753D01*
X268504957Y-91232208D01*
X268456287Y-91224500D01*
X268243713Y-91224500D01*
X268195042Y-91232208D01*
X268033760Y-91257753D01*
X267831585Y-91323444D01*
X267642179Y-91419951D01*
X267470215Y-91544889D01*
X267356673Y-91658431D01*
X267295350Y-91691915D01*
X267225658Y-91686931D01*
X267169725Y-91645059D01*
X267152810Y-91614082D01*
X267103797Y-91482671D01*
X267103793Y-91482664D01*
X267017547Y-91367455D01*
X267017544Y-91367452D01*
X266902335Y-91281206D01*
X266902328Y-91281202D01*
X266767482Y-91230908D01*
X266767483Y-91230908D01*
X266707883Y-91224501D01*
X266707881Y-91224500D01*
X266707873Y-91224500D01*
X266707865Y-91224500D01*
X265925783Y-91224500D01*
X265858744Y-91204815D01*
X265838102Y-91188181D01*
X262736819Y-88086898D01*
X262703334Y-88025575D01*
X262700500Y-87999217D01*
X262700500Y-80351456D01*
X262662052Y-80158170D01*
X262662051Y-80158169D01*
X262662051Y-80158165D01*
X262629830Y-80080375D01*
X262586635Y-79976092D01*
X262586628Y-79976079D01*
X262477140Y-79812219D01*
X262413364Y-79748443D01*
X262337782Y-79672861D01*
X262337781Y-79672860D01*
X253234208Y-70569288D01*
X253234206Y-70569285D01*
X253234206Y-70569286D01*
X253227139Y-70562219D01*
X253227139Y-70562218D01*
X253087782Y-70422861D01*
X253087781Y-70422860D01*
X253087780Y-70422859D01*
X252923920Y-70313371D01*
X252923911Y-70313366D01*
X252851315Y-70283296D01*
X252795165Y-70260038D01*
X252741836Y-70237949D01*
X252741832Y-70237948D01*
X252741828Y-70237946D01*
X252645188Y-70218724D01*
X252548544Y-70199500D01*
X252548541Y-70199500D01*
X249001459Y-70199500D01*
X249001455Y-70199500D01*
X248904812Y-70218724D01*
X248808167Y-70237947D01*
X248808161Y-70237949D01*
X248754834Y-70260037D01*
X248754834Y-70260038D01*
X248709315Y-70278892D01*
X248626089Y-70313366D01*
X248626079Y-70313371D01*
X248462219Y-70422859D01*
X248392540Y-70492538D01*
X248322861Y-70562218D01*
X248322858Y-70562221D01*
X247412221Y-71472858D01*
X247412218Y-71472861D01*
X247342538Y-71542540D01*
X247272859Y-71612219D01*
X247163371Y-71776079D01*
X247163364Y-71776092D01*
X247087950Y-71958160D01*
X247087947Y-71958171D01*
X247084370Y-71976155D01*
X247051984Y-72038066D01*
X247006088Y-72068144D01*
X246957667Y-72086204D01*
X246957665Y-72086205D01*
X246842455Y-72172452D01*
X246842452Y-72172455D01*
X246756206Y-72287664D01*
X246756202Y-72287671D01*
X246705908Y-72422517D01*
X246699501Y-72482116D01*
X246699500Y-72482135D01*
X233254726Y-72482135D01*
X233241243Y-72477754D01*
X233241241Y-72477753D01*
X233241240Y-72477753D01*
X233079957Y-72452208D01*
X233031287Y-72444500D01*
X232818713Y-72444500D01*
X232770042Y-72452208D01*
X232608760Y-72477753D01*
X232406585Y-72543444D01*
X232217179Y-72639951D01*
X232045213Y-72764890D01*
X231894890Y-72915213D01*
X231769951Y-73087179D01*
X231673444Y-73276585D01*
X231607753Y-73478760D01*
X231574500Y-73688713D01*
X210480497Y-73688713D01*
X210476557Y-73676588D01*
X210476555Y-73676585D01*
X210476555Y-73676583D01*
X210380048Y-73487179D01*
X210255109Y-73315213D01*
X210104786Y-73164890D01*
X209932820Y-73039951D01*
X209743414Y-72943444D01*
X209743413Y-72943443D01*
X209743412Y-72943443D01*
X209541243Y-72877754D01*
X209541241Y-72877753D01*
X209541240Y-72877753D01*
X209379957Y-72852208D01*
X209331287Y-72844500D01*
X209118713Y-72844500D01*
X209070042Y-72852208D01*
X208908760Y-72877753D01*
X208706585Y-72943444D01*
X208517179Y-73039951D01*
X208345213Y-73164890D01*
X208194890Y-73315213D01*
X208069951Y-73487179D01*
X207973444Y-73676585D01*
X207907753Y-73878760D01*
X207888871Y-73997980D01*
X207874500Y-74088713D01*
X168210244Y-74088713D01*
X169163550Y-73095396D01*
X169165513Y-73093398D01*
X170364845Y-71900783D01*
X170366819Y-71898865D01*
X171593733Y-70734543D01*
X171595732Y-70732691D01*
X172849472Y-69597376D01*
X172851624Y-69595474D01*
X174131515Y-68489777D01*
X174133575Y-68488039D01*
X175439039Y-67412463D01*
X175441163Y-67410755D01*
X176771293Y-66366044D01*
X176773544Y-66364317D01*
X177324352Y-65952135D01*
X188784500Y-65952135D01*
X188784500Y-67747870D01*
X188784501Y-67747876D01*
X188790908Y-67807483D01*
X188841202Y-67942328D01*
X188841206Y-67942335D01*
X188927452Y-68057544D01*
X188927455Y-68057547D01*
X189042664Y-68143793D01*
X189042671Y-68143797D01*
X189177517Y-68194091D01*
X189177516Y-68194091D01*
X189184444Y-68194835D01*
X189237127Y-68200500D01*
X191032872Y-68200499D01*
X191092483Y-68194091D01*
X191227331Y-68143796D01*
X191342546Y-68057546D01*
X191428796Y-67942331D01*
X191477810Y-67810916D01*
X191519681Y-67754984D01*
X191585145Y-67730566D01*
X191653418Y-67745417D01*
X191681673Y-67766569D01*
X191795213Y-67880109D01*
X191967179Y-68005048D01*
X191967181Y-68005049D01*
X191967184Y-68005051D01*
X192156588Y-68101557D01*
X192358757Y-68167246D01*
X192568713Y-68200500D01*
X192568714Y-68200500D01*
X192781286Y-68200500D01*
X192781287Y-68200500D01*
X192991243Y-68167246D01*
X193193412Y-68101557D01*
X193382816Y-68005051D01*
X193469138Y-67942335D01*
X193554786Y-67880109D01*
X193554788Y-67880106D01*
X193554792Y-67880104D01*
X193705104Y-67729792D01*
X193705106Y-67729788D01*
X193705109Y-67729786D01*
X193830048Y-67557820D01*
X193830047Y-67557820D01*
X193830051Y-67557816D01*
X193926557Y-67368412D01*
X193992246Y-67166243D01*
X194025500Y-66956287D01*
X194025500Y-66743713D01*
X193992246Y-66533757D01*
X193926557Y-66331588D01*
X193830051Y-66142184D01*
X193830049Y-66142181D01*
X193830048Y-66142179D01*
X193705109Y-65970213D01*
X193554786Y-65819890D01*
X193382820Y-65694951D01*
X193193414Y-65598444D01*
X193193413Y-65598443D01*
X193193412Y-65598443D01*
X192991243Y-65532754D01*
X192991241Y-65532753D01*
X192991240Y-65532753D01*
X192829957Y-65507208D01*
X192781287Y-65499500D01*
X192568713Y-65499500D01*
X192520042Y-65507208D01*
X192358760Y-65532753D01*
X192156585Y-65598444D01*
X191967179Y-65694951D01*
X191795215Y-65819889D01*
X191681673Y-65933431D01*
X191620350Y-65966915D01*
X191550658Y-65961931D01*
X191494725Y-65920059D01*
X191477810Y-65889082D01*
X191428797Y-65757671D01*
X191428793Y-65757664D01*
X191342547Y-65642455D01*
X191342544Y-65642452D01*
X191227335Y-65556206D01*
X191227328Y-65556202D01*
X191092482Y-65505908D01*
X191092483Y-65505908D01*
X191032883Y-65499501D01*
X191032881Y-65499500D01*
X191032873Y-65499500D01*
X191032864Y-65499500D01*
X189237129Y-65499500D01*
X189237123Y-65499501D01*
X189177516Y-65505908D01*
X189042671Y-65556202D01*
X189042664Y-65556206D01*
X188927455Y-65642452D01*
X188927452Y-65642455D01*
X188841206Y-65757664D01*
X188841202Y-65757671D01*
X188790908Y-65892517D01*
X188784501Y-65952116D01*
X188784500Y-65952135D01*
X177324352Y-65952135D01*
X178127714Y-65350962D01*
X178129992Y-65349299D01*
X179507478Y-64367839D01*
X179509740Y-64366268D01*
X180583065Y-63638713D01*
X251774500Y-63638713D01*
X251774500Y-63851286D01*
X251807753Y-64061239D01*
X251873444Y-64263414D01*
X251969951Y-64452820D01*
X252094890Y-64624786D01*
X252245213Y-64775109D01*
X252417179Y-64900048D01*
X252417181Y-64900049D01*
X252417184Y-64900051D01*
X252606588Y-64996557D01*
X252808757Y-65062246D01*
X253018713Y-65095500D01*
X253018714Y-65095500D01*
X253231286Y-65095500D01*
X253231287Y-65095500D01*
X253441243Y-65062246D01*
X253643412Y-64996557D01*
X253832816Y-64900051D01*
X253854789Y-64884086D01*
X254004786Y-64775109D01*
X254004788Y-64775106D01*
X254004792Y-64775104D01*
X254155104Y-64624792D01*
X254155106Y-64624788D01*
X254155109Y-64624786D01*
X254280048Y-64452820D01*
X254280047Y-64452820D01*
X254280051Y-64452816D01*
X254376557Y-64263412D01*
X254442246Y-64061243D01*
X254475500Y-63851287D01*
X254475500Y-63638713D01*
X254442246Y-63428757D01*
X254376557Y-63226588D01*
X254280051Y-63037184D01*
X254280049Y-63037181D01*
X254280048Y-63037179D01*
X254155109Y-62865213D01*
X254004786Y-62714890D01*
X253832820Y-62589951D01*
X253643414Y-62493444D01*
X253643413Y-62493443D01*
X253643412Y-62493443D01*
X253441243Y-62427754D01*
X253441241Y-62427753D01*
X253441240Y-62427753D01*
X253279957Y-62402208D01*
X253231287Y-62394500D01*
X253018713Y-62394500D01*
X252970042Y-62402208D01*
X252808760Y-62427753D01*
X252606585Y-62493444D01*
X252417179Y-62589951D01*
X252245213Y-62714890D01*
X252094890Y-62865213D01*
X251969951Y-63037179D01*
X251873444Y-63226585D01*
X251807753Y-63428760D01*
X251774500Y-63638713D01*
X180583065Y-63638713D01*
X180909785Y-63417245D01*
X180912188Y-63415658D01*
X182333937Y-62499650D01*
X182336287Y-62498173D01*
X183779169Y-61615549D01*
X183781589Y-61614108D01*
X185244612Y-60765476D01*
X185247022Y-60764115D01*
X186729497Y-59949871D01*
X186731988Y-59948540D01*
X188111821Y-59232106D01*
X217998444Y-59232106D01*
X217998444Y-59557893D01*
X218034918Y-59881604D01*
X218034920Y-59881620D01*
X218107411Y-60199226D01*
X218107415Y-60199238D01*
X218215010Y-60506725D01*
X218356357Y-60800234D01*
X218356359Y-60800237D01*
X218529683Y-61076081D01*
X218732801Y-61330783D01*
X218963161Y-61561143D01*
X219217863Y-61764261D01*
X219493707Y-61937585D01*
X219787222Y-62078935D01*
X220018161Y-62159744D01*
X220094705Y-62186528D01*
X220094717Y-62186532D01*
X220412327Y-62259024D01*
X220736050Y-62295499D01*
X220736051Y-62295500D01*
X220736055Y-62295500D01*
X221061837Y-62295500D01*
X221061837Y-62295499D01*
X221385561Y-62259024D01*
X221703171Y-62186532D01*
X222010666Y-62078935D01*
X222304181Y-61937585D01*
X222580025Y-61764261D01*
X222834727Y-61561143D01*
X223065087Y-61330783D01*
X223268205Y-61076081D01*
X223441529Y-60800237D01*
X223582879Y-60506722D01*
X223690476Y-60199227D01*
X223762968Y-59881617D01*
X223799444Y-59557889D01*
X223799444Y-59232111D01*
X223762968Y-58908383D01*
X223690476Y-58590773D01*
X223582879Y-58283278D01*
X223441529Y-57989763D01*
X223268205Y-57713919D01*
X223065087Y-57459217D01*
X222834727Y-57228857D01*
X222580025Y-57025739D01*
X222304181Y-56852415D01*
X222304178Y-56852413D01*
X222010669Y-56711066D01*
X221703182Y-56603471D01*
X221703170Y-56603467D01*
X221385564Y-56530976D01*
X221385548Y-56530974D01*
X221061837Y-56494500D01*
X221061833Y-56494500D01*
X220736055Y-56494500D01*
X220736051Y-56494500D01*
X220412339Y-56530974D01*
X220412323Y-56530976D01*
X220094717Y-56603467D01*
X220094705Y-56603471D01*
X219787218Y-56711066D01*
X219493709Y-56852413D01*
X219217864Y-57025738D01*
X218963161Y-57228856D01*
X218732800Y-57459217D01*
X218529682Y-57713920D01*
X218356357Y-57989765D01*
X218215010Y-58283274D01*
X218107415Y-58590761D01*
X218107411Y-58590773D01*
X218034920Y-58908379D01*
X218034918Y-58908395D01*
X217998444Y-59232106D01*
X188111821Y-59232106D01*
X188233084Y-59169144D01*
X188235536Y-59167907D01*
X189754470Y-58423766D01*
X189756970Y-58422577D01*
X191292839Y-57714134D01*
X191295415Y-57712983D01*
X192847421Y-57040605D01*
X192849958Y-57039541D01*
X194417185Y-56403623D01*
X194419815Y-56402591D01*
X196001532Y-55803431D01*
X196004089Y-55802496D01*
X197599461Y-55240413D01*
X197602018Y-55239546D01*
X199210004Y-54714908D01*
X199212666Y-54714074D01*
X200832387Y-54227163D01*
X200835116Y-54226377D01*
X202465824Y-53777418D01*
X202468501Y-53776715D01*
X204109284Y-53365959D01*
X204111903Y-53365336D01*
X205761864Y-52993013D01*
X205764627Y-52992424D01*
X207422690Y-52658771D01*
X207425513Y-52658238D01*
X209090912Y-52363406D01*
X209093694Y-52362947D01*
X210765552Y-52107094D01*
X210768397Y-52106692D01*
X212445799Y-51889956D01*
X212448624Y-51889626D01*
X214130536Y-51712141D01*
X214133400Y-51711871D01*
X215819113Y-51573713D01*
X215821965Y-51573514D01*
X217510327Y-51474774D01*
X217513167Y-51474641D01*
X219203460Y-51415363D01*
X219206317Y-51415296D01*
X220897583Y-51395517D01*
X220900322Y-51395517D01*
X222591596Y-51415247D01*
G37*
G04 #@! TD.AperFunction*
M02*
